<svg xmlns="http://www.w3.org/2000/svg" width="414" height="170" viewBox="0 0 414 170"><defs><style>.cls-1{fill:#2e3192;}.cls-2{fill:#fff;}</style></defs><title>ico_second_life</title><g id="レイヤー_2" data-name="レイヤー 2"><g id="レイヤー_1-2" data-name="レイヤー 1"><rect class="cls-1" width="414" height="170"/><path class="cls-2" d="M106.5,80.74a9.46,9.46,0,0,0-1.09,1.91A28.35,28.35,0,0,1,95.85,94,13,13,0,0,0,92,90.88a19.65,19.65,0,0,0,6.44-5.5c.54-.78.78-1.13,1.48-2.3-.62.12-.9.16-1.48.24-3.94.47-8,1-12,1.56v8.77A16.77,16.77,0,0,0,86.53,97C86.8,98.53,88.05,99,92,99a43.34,43.34,0,0,0,12-1.52l.24,5.26a22.81,22.81,0,0,0-2.38.16,88.74,88.74,0,0,1-9.67.66,27,27,0,0,1-7-.66,5.1,5.1,0,0,1-3.35-3.59c-.35-1.21-.39-1.8-.39-4.92V85.42l-3.67.47a23,23,0,0,0-4.33.74L73,81.8c.43,0,.74,0,.93,0a30,30,0,0,0,3.44-.27l4.13-.51V75.71a19.76,19.76,0,0,0-.23-3.7h5.38a18.47,18.47,0,0,0-.24,3.62v4.92l14.2-1.72a7.19,7.19,0,0,0,3-.66Z"/><path class="cls-2" d="M143.94,80a6.18,6.18,0,0,0-.43,2.62c-.12,4.4-.55,10.41-.94,13-1,6.75-2.37,8.35-7.06,8.35a30,30,0,0,1-4.83-.43,11.82,11.82,0,0,0-.9-5,20.42,20.42,0,0,0,5.15.9c1.68,0,2.26-.86,2.89-4.26a88.84,88.84,0,0,0,.85-12.48l-9.08,0a28.74,28.74,0,0,1-3.12,11.16c-2.15,4.13-5.62,7.68-10.53,10.8a15.48,15.48,0,0,0-3.51-4.13c4.87-2.58,8.07-5.66,10.14-9.83a20.35,20.35,0,0,0,2-6.79c.07-.54.15-.93.19-1.21l-6.47,0a27.15,27.15,0,0,0-4.22.2l0-4.8a22.58,22.58,0,0,0,4.32.31l6.83,0c.12-1.48.2-3.74.2-4.87v-1a7.4,7.4,0,0,0-.12-1.52l5.22.12c-.07.51-.11.66-.15,1.21,0,.23,0,.47,0,.74-.08.82-.08.82-.16,2.85,0,.85,0,1.2-.15,2.45l8.65,0a8,8,0,0,0,3.09-.35Z"/><path class="cls-2" d="M153.18,98.33a37,37,0,0,0,11.55-2.88,26.08,26.08,0,0,0,11.58-9.56,32.3,32.3,0,0,0,4-7.8,16.74,16.74,0,0,0,4.13,3.82c-3.31,7.14-7,11.74-12.36,15.29a42.28,42.28,0,0,1-14.86,5.85,14,14,0,0,0-2.58.66Zm3.32-24.22a55.19,55.19,0,0,1,10.06,7.53l-3.36,4.25A41,41,0,0,0,153.26,78Z"/><path class="cls-2" d="M197.17,104.77a27.78,27.78,0,0,0,.24-4.37v-25a25,25,0,0,0-.24-4h5.35a31.59,31.59,0,0,0-.16,4.1v7.25A113.47,113.47,0,0,1,220.07,91l-2.73,4.6a95.06,95.06,0,0,0-13.81-7.45,12.8,12.8,0,0,1-1.33-.66,21.75,21.75,0,0,1,.16,2.65v10.3a39.09,39.09,0,0,0,.16,4.33Zm16.07-31.32a25.16,25.16,0,0,1,4.1,5.73l-2.73,1.45a26.53,26.53,0,0,0-4.1-5.82Zm6,4.72a28.76,28.76,0,0,0-4-5.66l2.61-1.36a22.27,22.27,0,0,1,4.06,5.5Z"/><path class="cls-2" d="M261.33,84.17a18.33,18.33,0,0,0-1.09,2.46c-2,5.74-5,10.06-9.05,13.18-2.77,2.15-5.31,3.48-10.22,5.31a13.82,13.82,0,0,0-3-4.53c4.76-1.2,7.84-2.65,10.84-5.14s4.56-4.8,6.28-9.13h-19a38.82,38.82,0,0,0-5,.2V81.76a28.17,28.17,0,0,0,5.07.27H254.7a17.23,17.23,0,0,0,4.41-.35ZM234.38,72.36a22.56,22.56,0,0,0,4.56.27h13.61a22.62,22.62,0,0,0,4.57-.27v4.79a31.12,31.12,0,0,0-4.49-.19H238.86a31,31,0,0,0-4.48.19Z"/><path class="cls-2" d="M299.78,74.46a15.67,15.67,0,0,0-1.44,1.37,68.48,68.48,0,0,1-9.2,8v16.66a29.22,29.22,0,0,0,.19,4.33h-5.46a21.77,21.77,0,0,0,.23-4.22V86.91c-4.56,2.73-6.74,3.74-13.92,6.31a14.79,14.79,0,0,0-2.61-4.44A57.12,57.12,0,0,0,288,78.64c3.47-2.69,6.13-5.39,7.26-7.3Z"/><path class="cls-2" d="M339.06,76.73a6,6,0,0,0-.67,1.75c-1.95,7.45-4.25,12.13-8,16.34s-8,7.14-14.51,10a14.27,14.27,0,0,0-3.43-4.64,32.12,32.12,0,0,0,8.54-4c6.08-3.94,9.91-9.44,11.82-17H314.25a30.13,30.13,0,0,0-4.91.24V74.31a27.89,27.89,0,0,0,5,.27h17.9a14.24,14.24,0,0,0,4.17-.39Z"/></g></g></svg>