<svg xmlns="http://www.w3.org/2000/svg" width="1170" height="209.73" viewBox="0 0 1170 209.73"><defs><style>.cls-1{fill:#ddb621;}.cls-2{fill:#3c1000;}.cls-3{fill:#fff;}.cls-4{fill:#a7c7e8;}.cls-5{fill:#ac7c2f;}.cls-6{fill:#4c3e37;}.cls-7{fill:#f9d3c1;}.cls-8{fill:#fadfeb;}.cls-9{fill:#fad7b5;}.cls-10{fill:#8a7d6c;}.cls-11{fill:#f4b0a1;}.cls-12{fill:#ada397;}.cls-13{fill:#d4cfc7;}.cls-14{fill:#7b986a;}.cls-15{fill:#f5a900;}.cls-16{fill:#523300;}.cls-17{fill:#f4ac69;}.cls-18{fill:#81674f;}.cls-19{fill:#9e8773;}.cls-20{fill:#f3a89b;}.cls-21{fill:#6f4000;}.cls-22{fill:#915700;}.cls-23{fill:#c3995c;}.cls-24{fill:#fff251;}.cls-25{fill:#ec7fae;}.cls-26{fill:#bed400;}.cls-27{fill:#422a16;}.cls-28{fill:#6e4f00;}.cls-29{fill:#a08d5d;}.cls-30{fill:#0074c0;}.cls-31{fill:#483a29;}.cls-32{fill:#816d51;}.cls-33{fill:#9e9077;}</style></defs><title>kazoku_manga</title><g id="レイヤー_2" data-name="レイヤー 2"><g id="レイヤー_1-2" data-name="レイヤー 1"><line class="cls-1" x1="1.58" y1="187.1" x2="1166.87" y2="187.1"/><path class="cls-2" d="M1166.87,188.67H1.58a1.58,1.58,0,1,1,0-3.15H1166.87a1.58,1.58,0,1,1,0,3.15Z"/><path class="cls-2" d="M1156.58,123.12c-3.26-4.74-7.06-7.15-11.31-7.15a10.68,10.68,0,0,0-5.13,1.33,48.85,48.85,0,0,0-30.51-10.54c-.63,0-1.26,0-1.89,0a48.87,48.87,0,0,0-29,10.83,10.55,10.55,0,0,0-9.71-.86,27.72,27.72,0,0,0-1.46-12.11c-2.31-6.3-6.3-8.4-9.21-9.06,1-13.78-.64-32.79-13-47.73a27.7,27.7,0,0,1,6.22-2.72,6.79,6.79,0,0,0,3.72-10.65c-4.4-5.85-11.07-8.94-19.28-8.94a40.19,40.19,0,0,0-7.7.8,27.65,27.65,0,0,0-.79-11.77A23,23,0,0,0,1015.28.7a6.88,6.88,0,0,0-6.6.3,6.7,6.7,0,0,0-3.22,5.69A27.94,27.94,0,0,0,994.74,4a6.86,6.86,0,0,0-5.51,2.35,6.74,6.74,0,0,0-1.5,5.79l.08.38a57.87,57.87,0,0,0-24,.84c-19.69,4.78-46.68,18.5-58,41.43a46.12,46.12,0,0,0-4.93,22.27,54.84,54.84,0,0,0-2.68-8.61c-.4-1.54-.82-3-1.27-4.32-6.1-18.19-20.34-32.91-42.28-43.74a31.79,31.79,0,0,0-11.21-6.63,31.27,31.27,0,0,0-13.95-1.65A80.6,80.6,0,0,0,816.11,11a84.13,84.13,0,0,0-34.18,7.49,7.47,7.47,0,0,0-.4-.64,6.8,6.8,0,0,0-8.66-2.05c-21.32,11.16-25,28.65-25,39.07a137.05,137.05,0,0,0-10,26.72,36.33,36.33,0,0,0-3.46-8.26,6.74,6.74,0,0,0-.53-2.95A24.88,24.88,0,0,0,729.32,63a16.36,16.36,0,0,0-7.65-17,6.87,6.87,0,0,0-5.58-.45C706,36.4,688.8,31.66,665.3,31.66c-6.08,0-11.58.33-15.81.69.23-.46.48-.91.73-1.33a6.79,6.79,0,0,0-5.78-10.36,7.06,7.06,0,0,0-1.12.1,25,25,0,0,0-15,8.88c-.18-.15-.36-.28-.55-.41a6.91,6.91,0,0,0-8.22.5c-6.11,5.28-9.46,11.3-10,17.89a6.51,6.51,0,0,0-.88-.06,8.14,8.14,0,0,0-1.22.11,6.83,6.83,0,0,0-4.85,3.62c-2.57,5.09-1.42,10.82,3,16.1-9.45,9.77-8.79,22.44-8.75,23.11a6.83,6.83,0,0,0,2.37,4.69,13.52,13.52,0,0,0-5.77,5.79c-.31.54-.59,1.1-.86,1.68-.44,0-.88,0-1.31.09a20.24,20.24,0,0,0-3.63-9.46l-.1-.26c-2-5.17-4.11-10.5-6.5-15.52a11,11,0,0,0-6.92-17.62,11.24,11.24,0,0,0-9.49-5.45,9.47,9.47,0,0,0-1.3.09c-6.73-5-14.89-8.38-24.82-10.22a106,106,0,0,0-19.32-1.79c-19.1,0-33.09,5-38.46,13.57-8.21,2.56-29.23,12-31.2,42.4a6.81,6.81,0,0,0,1.19,4.3,81.85,81.85,0,0,0-.24,10.8c-.66,0-1.3,0-1.94.09a28.49,28.49,0,0,0-2.79-19.45c-2.61-4.63-5.87-6.4-8.43-7,3.63-44.95-17.45-55.4-46-69.58l-5.79-2.88c-13.12-6.59-28.63-6.53-45.46.33a32.66,32.66,0,0,0-20-6.76,33.08,33.08,0,0,0-33,33.06,32.56,32.56,0,0,0,1.9,11c-5.3,8.8-6.94,19.76-7.09,29.41a11.4,11.4,0,0,0-7-2.39,11.64,11.64,0,0,0-2.62.3,68.18,68.18,0,0,0-24.11-33.84,6.78,6.78,0,0,0,.73-4.9A18.69,18.69,0,0,0,245.89,34a6.84,6.84,0,0,0-.29-2.19c-.87-2.91-2.93-5.47-6.13-7.66a11.12,11.12,0,0,0-1.78-8.95,6.8,6.8,0,0,0-5.55-2.88,6.93,6.93,0,0,0-1.67.21,6.46,6.46,0,0,0-1.74.72,35.13,35.13,0,0,1-4.54.22c-4.71,0-11.39-.45-19.83-1.33a73.69,73.69,0,0,0-7.7-.4,69.66,69.66,0,0,0-37.92,11.07,6.73,6.73,0,0,0-4.33,1.09,22.12,22.12,0,0,0-10,16.14,19.9,19.9,0,0,0-15,5.79,6.84,6.84,0,0,0-1.71,2.81c-5.06,3.59-11.2,10.81-11.67,24.81a107.07,107.07,0,0,1-2,17.26q-.22,1.22-.42,2.34c-2.65,1.13-5.51,3.58-7.37,8.65a27.1,27.1,0,0,0-1.31,5.14c-6.86-1.85-15,.25-23.89,6.14a49.39,49.39,0,0,0-48.56.13c-6.84-4.6-13.23-6.93-19-6.93a19.2,19.2,0,0,0-5.4.75,6.8,6.8,0,0,0-4.6,4.48C2.65,114-3.75,135.69,8.42,148a48.06,48.06,0,0,0-.54,9.28c.35,9.3,3.61,16.81,9.54,22.14-.87.81-1.46,1.44-1.7,1.7A6.82,6.82,0,0,0,14,186.25c.71,8.89,6.43,14.41,14.93,14.41,5.68,0,11.42-2.45,14.07-3.77a13.31,13.31,0,0,0,6.56-3h14a13.19,13.19,0,0,0,6.54,3c2.65,1.32,8.39,3.77,14.08,3.77h0c8.49,0,14.21-5.52,14.92-14.39a6.85,6.85,0,0,0-1.76-5.17c-.14-.15-.64-.7-1.46-1.46,7.11-5.85,10.48-14.6,10-26.07a49.55,49.55,0,0,0-.6-5.95c4.35-4.6,6.2-10.43,6.79-16.08,3.86,4.33,8.69,6.7,13.87,6.7a15.79,15.79,0,0,0,2-.13,59.36,59.36,0,0,0,25.63,22,76.82,76.82,0,0,0-8.75,14.27,1.89,1.89,0,0,0-.11.25c-1.09,2.6-6.26,16.07-1.18,25.46a15.34,15.34,0,0,0,11.17,7.82,20.75,20.75,0,0,0,3.66.33c8.4,0,15.82-5.44,20.78-15.08h38c5,9.64,12.38,15.08,20.78,15.08a21,21,0,0,0,3.67-.33,15.34,15.34,0,0,0,11.16-7.82c5.1-9.42-.1-22.9-1.19-25.5l-.11-.24A76.05,76.05,0,0,0,241,157.87,17.19,17.19,0,0,1,243,157a12.17,12.17,0,0,0,5.46-4.09A59.88,59.88,0,0,0,271,126.47a16.6,16.6,0,0,0,6.93-2,28.78,28.78,0,0,0,4.2,9.14c4.27,6.11,10.35,9.24,16.68,8.58a54.69,54.69,0,0,0,19.13,17.87,76.64,76.64,0,0,0-8.73,14.24l-.12.25c-1.08,2.6-6.26,16.07-1.17,25.46a15.31,15.31,0,0,0,11.16,7.82,20.87,20.87,0,0,0,3.67.33c8.4,0,15.82-5.44,20.78-15.08h38c5,9.64,12.39,15.08,20.78,15.08a20.78,20.78,0,0,0,3.67-.33,15.34,15.34,0,0,0,11.17-7.82c5.1-9.42-.1-22.9-1.2-25.5l-.1-.24a76,76,0,0,0-9.92-15.72c11.48-6.3,20-15.13,25-25.88a6.7,6.7,0,0,0,.7,1.6,6.79,6.79,0,0,0,3.2,9.87,6.79,6.79,0,0,0,3.49,5.63,21.12,21.12,0,0,0,9.82,2.28,23.7,23.7,0,0,0,9.1-1.86,15.32,15.32,0,0,0,11.33,4.23,48.16,48.16,0,0,0,22.25,17.82,52,52,0,0,0-3.05,5.57,1.89,1.89,0,0,0-.11.25c-.79,1.87-4.52,11.59-.67,18.69a12.45,12.45,0,0,0,8.94,6.31,16.11,16.11,0,0,0,2.83.26c6.15,0,11.54-3.68,15.2-10.24h21.69c3.66,6.56,9,10.24,15.2,10.24a15.91,15.91,0,0,0,2.82-.26,12.46,12.46,0,0,0,9-6.31c3.86-7.13.1-16.86-.69-18.74l-.11-.23a52.22,52.22,0,0,0-4.88-8.28c11.59-5.57,20-13.84,24.7-24.29a15.15,15.15,0,0,0,9.34-4.85,23.17,23.17,0,0,0,5.72.72,21,21,0,0,0,9.79-2.27,6.3,6.3,0,0,0,1.32-.94,49.8,49.8,0,0,0,12.92,15.29v0a10,10,0,0,0,6,11.08,60.3,60.3,0,0,0-6.83,11.11c0,.09-.07.17-.11.25-.87,2.09-5,12.91-.82,20.67a13.18,13.18,0,0,0,9.6,6.75,16.94,16.94,0,0,0,3.07.28c6.4,0,12-3.61,16-10.26h28.19c4,6.65,9.63,10.26,16,10.26a16.94,16.94,0,0,0,3.07-.28,13.18,13.18,0,0,0,9.6-6.75c4.21-7.79,0-18.62-.84-20.71a2.56,2.56,0,0,0-.11-.24,59.24,59.24,0,0,0-6.65-10.88c11.72-3.93,21-10.81,27.11-20.1,5.19.36,10.12-2,13.84-6.53a87.26,87.26,0,0,0,4.12,11,6.76,6.76,0,0,0,5.08,3.9c.34.06,8.47,1.41,14.4,2.56a7.21,7.21,0,0,0,1.23.11,6.35,6.35,0,0,0,1.07-.08,7.57,7.57,0,0,0,1.16.29s2.85.44,7.72,1.08q2,1.26,4.18,2.39a76.21,76.21,0,0,0-9.52,15.24,1.89,1.89,0,0,0-.11.25c-1.09,2.6-6.26,16.07-1.18,25.46a15.34,15.34,0,0,0,11.17,7.82,20.78,20.78,0,0,0,3.67.33c8.45,0,15.9-5.49,20.85-15.24h37.85c5,9.74,12.41,15.23,20.86,15.23a20.87,20.87,0,0,0,3.67-.33,15.31,15.31,0,0,0,11.16-7.82c5.1-9.42-.1-22.9-1.19-25.5l-.11-.24A76.21,76.21,0,0,0,865.15,160c1.34-.14,2.6-.28,3.81-.44a6.73,6.73,0,0,0,2,.3,6.55,6.55,0,0,0,1.58-.18l13.26-3.17a6.79,6.79,0,0,0,4.71-4.07,194.16,194.16,0,0,0,7.56-24.11l.06-.1a25.14,25.14,0,0,0,1.78-3.37,16.63,16.63,0,0,0,9.55,3.87,55.56,55.56,0,0,0,16.93,21.8,11.44,11.44,0,0,0,7.27,8,16.39,16.39,0,0,1,1.93.89,75.47,75.47,0,0,0-10.54,16.47,1.89,1.89,0,0,0-.11.25c-1.09,2.6-6.27,16.07-1.18,25.46a15.34,15.34,0,0,0,11.17,7.82,20.77,20.77,0,0,0,3.66.34c11.81,0,18.5-10.19,21.58-16.76h39.69c3.09,6.56,9.78,16.75,21.58,16.75a20.89,20.89,0,0,0,3.67-.34,15.34,15.34,0,0,0,11.17-7.82c5.1-9.42-.1-22.89-1.2-25.5a2.56,2.56,0,0,0-.11-.24,75.49,75.49,0,0,0-10.36-16.26c1-.51,2-1,2.93-1.61a13.84,13.84,0,0,0,1.9-1.14,55.25,55.25,0,0,0,17.17-16.95c.6.06,1.21.1,1.81.1a16.4,16.4,0,0,0,5.17-.87c-3.94,9.63-7.12,21.41-4.09,29.51a13.75,13.75,0,0,0,9.64,8.74,15.15,15.15,0,0,0,8.58-.23,27.72,27.72,0,0,0,2.83,2.8c-.58.57-1,1-1.16,1.19a6.87,6.87,0,0,0-1.76,5.14c.72,8.89,6.44,14.41,14.93,14.41,5.69,0,11.42-2.45,14.08-3.77a13.23,13.23,0,0,0,6.55-3h14a13.19,13.19,0,0,0,6.54,3c2.65,1.32,8.39,3.77,14.07,3.77h0c8.5,0,14.22-5.52,14.93-14.39a6.85,6.85,0,0,0-1.76-5.17c-.18-.19-.86-.93-2-1.91.7-.62,1.36-1.26,2-1.93a15.15,15.15,0,0,0,8.13.09,13.75,13.75,0,0,0,9.64-8.74C1174.26,154,1159.52,127.41,1156.58,123.12Z"/><rect class="cls-3" x="1091.92" y="178.11" width="39.59" height="8.98"/><path class="cls-2" d="M1131.51,187.89h-39.59a.79.79,0,0,1-.79-.79v-9a.79.79,0,0,1,.79-.79h39.59a.79.79,0,0,1,.79.79v9a.79.79,0,0,1-.79.79Zm-38.8-1.58h38V178.9h-38v7.41Z"/><rect class="cls-4" x="38.25" y="178.11" width="39.59" height="8.98"/><path class="cls-2" d="M77.84,187.89H38.25a.8.8,0,0,1-.79-.79v-9a.8.8,0,0,1,.79-.79H77.84a.79.79,0,0,1,.79.79v9a.79.79,0,0,1-.79.79ZM39,186.31h38V178.9H39v7.41Z"/><path class="cls-3" d="M1067.37,157.11a42.23,42.23,0,0,1,84.4-3.19c.88,23.14-15.74,27.55-39,28.43S1068.25,180.25,1067.37,157.11Z"/><path class="cls-2" d="M1106.18,183.28c-18,0-38.72-3-39.6-26.14A42.25,42.25,0,0,1,1078,126.48,42.86,42.86,0,0,1,1108,112.83c.55,0,1.11,0,1.66,0a42.69,42.69,0,0,1,42.93,41.09c1,25.57-20,28.51-39.81,29.25-2.36.09-4.51.14-6.57.14Zm3.45-68.9-1.61,0a41.3,41.3,0,0,0-28.83,13.14,40.74,40.74,0,0,0-11,29.53c.65,17,12.37,24.62,38,24.62,2,0,4.17,0,6.51-.13,24.25-.92,39.12-5.86,38.29-27.62a41.11,41.11,0,0,0-41.35-39.57Z"/><path class="cls-5" d="M1128.07,169c0,7.24-7.41,9.33-16.75,9.33s-17-2.09-17-9.33,7.56-13.11,16.9-13.11S1128.07,161.77,1128.07,169Z"/><path class="cls-6" d="M1115.74,162.3c.08,1.87-2.12,3.48-4.92,3.59s-5.11-1.32-5.18-3.2,2.13-3.49,4.92-3.6S1115.67,160.42,1115.74,162.3Z"/><path class="cls-2" d="M1110.53,166.65c-3.08,0-5.56-1.73-5.65-3.94s2.39-4.25,5.65-4.37h.32c3.09,0,5.56,1.73,5.65,3.94s-2.39,4.25-5.65,4.38Zm.32-6.81h-.26c-2.33.09-4.25,1.38-4.2,2.82s1.91,2.49,4.14,2.49h.26c2.33-.09,4.26-1.38,4.2-2.81s-1.91-2.49-4.14-2.49Z"/><path class="cls-2" d="M1134.1,154.15a5.82,5.82,0,1,1-6-5.59A5.83,5.83,0,0,1,1134.1,154.15Z"/><path class="cls-2" d="M1096.75,155.6a5.82,5.82,0,1,1-6-5.6A5.82,5.82,0,0,1,1096.75,155.6Z"/><path class="cls-7" d="M1088.63,169.54a5.64,5.64,0,1,1-5.39-5.9A5.65,5.65,0,0,1,1088.63,169.54Z"/><path class="cls-7" d="M1143.56,167.36a5.65,5.65,0,1,1-5.4-5.9A5.67,5.67,0,0,1,1143.56,167.36Z"/><path class="cls-3" d="M1132.77,153.87a2.25,2.25,0,1,1-2.34-2.17A2.26,2.26,0,0,1,1132.77,153.87Z"/><path class="cls-3" d="M1096,155.29a2.25,2.25,0,1,1-2.33-2.17A2.26,2.26,0,0,1,1096,155.29Z"/><path class="cls-2" d="M1106.46,174.69a5.83,5.83,0,0,1-5.83-5.59,1.52,1.52,0,0,1,1.45-1.57,1.57,1.57,0,0,1,1.57,1.44,2.8,2.8,0,0,0,.9,2,2.85,2.85,0,0,0,2,.74,2.78,2.78,0,0,0,2-.91,2.84,2.84,0,0,0,.74-2s0,0,0-.06a1.52,1.52,0,0,1,1.45-1.51,1.47,1.47,0,0,1,1.57,1.45,2.83,2.83,0,0,0,.91,2,2.8,2.8,0,0,0,2,.74,2.87,2.87,0,0,0,2-.91,2.83,2.83,0,0,0,.74-2,1.5,1.5,0,0,1,1.44-1.57h.07a1.5,1.5,0,0,1,1.5,1.44,5.84,5.84,0,0,1-9.78,4.55l-.21-.21c-.06.08-.13.15-.19.22a5.84,5.84,0,0,1-4.06,1.89Z"/><path class="cls-5" d="M1077.35,125.79s-4.06-7.47-10,1.19-20.15,40.24-6.5,43.76S1079.86,145.81,1077.35,125.79Z"/><path class="cls-2" d="M1063.11,171.83h0a10.07,10.07,0,0,1-2.46-.32,7.66,7.66,0,0,1-5.5-5c-3.88-10.35,6.82-33.07,11.54-39.95,2.06-3,4.19-4.54,6.33-4.54,3.14,0,5,3.27,5,3.41a.71.71,0,0,1,.09.28c1.82,14.55-.53,34.4-7.61,42.43a9.8,9.8,0,0,1-7.42,3.71Zm9.91-48.25c-1.56,0-3.3,1.33-5,3.85-5,7.27-14.87,29.15-11.36,38.51a6.09,6.09,0,0,0,4.41,4c3.1.8,5.89-.18,8.3-2.91,6.77-7.66,9-26.83,7.25-41-.31-.51-1.65-2.47-3.57-2.47Z"/><path class="cls-5" d="M1140.94,125.79s4.07-7.47,10,1.19,20.16,40.24,6.5,43.76S1138.43,145.81,1140.94,125.79Z"/><path class="cls-2" d="M1155.19,171.83a9.76,9.76,0,0,1-7.42-3.71c-7.09-8-9.44-27.88-7.62-42.43a1.31,1.31,0,0,1,.09-.28c.08-.14,1.9-3.41,5-3.41,2.14,0,4.27,1.53,6.33,4.54,4.73,6.88,15.42,29.59,11.54,40a7.67,7.67,0,0,1-5.49,5,10.13,10.13,0,0,1-2.46.32Zm-13.49-45.78c-1.74,14.18.49,33.36,7.25,41,2.41,2.73,5.21,3.71,8.3,2.91a6.09,6.09,0,0,0,4.41-4c3.51-9.36-6.37-31.24-11.36-38.51-1.72-2.52-3.46-3.85-5-3.85-1.92,0-3.25,2-3.57,2.47Z"/><path class="cls-8" d="M392.47,187.1a143.26,143.26,0,0,1-9.31-28.67l-43.65,1.33a104.19,104.19,0,0,1-3.83,27.33"/><path class="cls-2" d="M392.47,187.85a.76.76,0,0,1-.69-.44,146.73,146.73,0,0,1-9.23-28.2l-42.29,1.28a107.4,107.4,0,0,1-3.85,26.81.76.76,0,0,1-.94.52.75.75,0,0,1-.51-.93,105,105,0,0,0,3.8-27.12.75.75,0,0,1,.73-.76l43.65-1.33a.72.72,0,0,1,.76.61,144.61,144.61,0,0,0,9.26,28.49.76.76,0,0,1-.38,1,.67.67,0,0,1-.31.07Z"/><path class="cls-9" d="M379.13,158.43c.26,6.17-6.76,11.47-15.68,11.85s-16.37-4.3-16.64-10.47Z"/><path class="cls-2" d="M362.44,171.06c-8.92,0-16.11-4.93-16.38-11.21a.75.75,0,0,1,.72-.79l32.32-1.38a.8.8,0,0,1,.54.2.75.75,0,0,1,.24.52c.28,6.57-7.08,12.23-16.4,12.63l-1,0Zm-14.8-10.53c.8,5.33,7.61,9.33,15.78,9s14.6-4.9,14.95-10.31l-30.73,1.31Z"/><path class="cls-10" d="M293.91,41.37A26.24,26.24,0,1,0,320.15,15.1,26.26,26.26,0,0,0,293.91,41.37Z"/><path class="cls-2" d="M320.15,68.41a27,27,0,1,1,27-27,27,27,0,0,1-27,27Zm0-52.56a25.53,25.53,0,1,0,25.48,25.52,25.53,25.53,0,0,0-25.48-25.52Z"/><path class="cls-9" d="M303.44,116.37s-13.66-19.64-18.6-6.17,7.14,33.08,19.9,22.15Z"/><path class="cls-2" d="M297.16,136.29h0c-3.78,0-7.36-2.16-10.1-6.08-4.06-5.81-5.24-14-2.93-20.27,1.27-3.46,3.23-5.21,5.83-5.21,6.23,0,13.78,10.75,14.1,11.21a.72.72,0,0,1,.13.37l1.3,16a.73.73,0,0,1-.26.63,12.39,12.39,0,0,1-8.07,3.37Zm-7.2-30c-1.93,0-3.37,1.38-4.41,4.22-2.15,5.87-1.05,13.46,2.74,18.88,2.45,3.51,5.6,5.44,8.87,5.44A10.79,10.79,0,0,0,304,132l-1.25-15.38c-1-1.34-7.68-10.4-12.75-10.4Z"/><path class="cls-2" d="M303.94,123.22a.8.8,0,0,1-.5-.19c-2.6-2.28-10.08-7.93-13.39-6.76a2.65,2.65,0,0,0-1.58,2.31.75.75,0,0,1-1.48-.26,4.09,4.09,0,0,1,2.55-3.48c4.74-1.65,13.87,6.16,14.9,7a.76.76,0,0,1-.5,1.33Z"/><path class="cls-9" d="M422.56,106.66s10.31-21.59,17.36-9.1-1.71,33.79-16.06,25.08Z"/><path class="cls-2" d="M430.36,125.43a13.3,13.3,0,0,1-6.9-2.15.76.76,0,0,1-.36-.58l-1.29-16a.67.67,0,0,1,.07-.39c.26-.54,6.48-13.41,12.95-13.41,2.21,0,4.14,1.44,5.74,4.27a22.93,22.93,0,0,1-.32,21.82c-2.42,4.14-5.94,6.42-9.89,6.42Zm-5.78-3.24c5.66,3.27,11.06,1.71,14.36-3.94,3.47-5.94,3.61-14.49.32-20.31-1.31-2.33-2.8-3.51-4.43-3.51-4.51,0-9.74,8.76-11.51,12.37l1.26,15.39Z"/><path class="cls-2" d="M423.05,113.51a.74.74,0,0,1-.48-.18.76.76,0,0,1-.1-1.06c.87-1,8.59-10.26,13.56-9.37a4.06,4.06,0,0,1,3.07,3,.75.75,0,0,1-.46,1,.76.76,0,0,1-1-.46c-.42-1.21-1.05-1.88-1.92-2-3.46-.62-9.93,6.17-12.13,8.84a.74.74,0,0,1-.58.28Z"/><path class="cls-9" d="M296.6,114.13c-3-36.4,24.33-68.32,60.93-71.31a66.3,66.3,0,0,1,71.63,60.5c3,36.4-25.31,56.1-61.92,59.09S299.56,150.52,296.6,114.13Z"/><path class="cls-2" d="M358.27,163.54c-36.57,0-59.91-18.45-62.42-49.35-3-36.76,24.66-69.11,61.61-72.12,1.85-.15,3.73-.23,5.57-.23,34.7,0,64.08,27,66.88,61.42,2.73,33.58-21.26,56.53-62.61,59.9-3,.25-6.08.38-9,.38ZM363,43.35c-1.8,0-3.63.08-5.44.23-36.13,2.94-63.15,34.56-60.24,70.49,2.45,30,25.22,48,60.92,48,2.91,0,5.9-.13,8.91-.37,31.68-2.59,64.4-19.25,61.22-58.28-2.73-33.66-31.45-60-65.37-60Z"/><path class="cls-9" d="M369.66,117.39c.19,2.27-2.4,4.33-5.77,4.61s-6.25-1.35-6.44-3.61,2.4-4.34,5.77-4.62S369.48,115.12,369.66,117.39Z"/><path class="cls-2" d="M363.14,122.78c-3.47,0-6.24-1.86-6.44-4.33a4.32,4.32,0,0,1,1.83-3.71,8.66,8.66,0,0,1,4.63-1.72c3.86-.31,7,1.65,7.25,4.31a4.32,4.32,0,0,1-1.83,3.7,8.66,8.66,0,0,1-4.63,1.72q-.4,0-.81,0Zm.83-8.28q-.35,0-.69,0a7,7,0,0,0-3.8,1.39,2.85,2.85,0,0,0-1.27,2.4c.14,1.8,2.67,3.16,5.62,2.93a7,7,0,0,0,3.81-1.4,2.84,2.84,0,0,0,1.27-2.4c-.14-1.66-2.31-3-4.94-3Z"/><path class="cls-2" d="M338.48,98.59a7,7,0,0,0-3.16,8.26,6.9,6.9,0,0,1-1.07-1.37,7.05,7.05,0,1,1,12.19-7.1,7.68,7.68,0,0,1,.6,1.39A7,7,0,0,0,338.48,98.59Z"/><path class="cls-2" d="M385.33,95.79a7.07,7.07,0,0,1,3.16,8.27,7,7,0,0,0,1.07-1.38A7.05,7.05,0,1,0,376.76,97,7.05,7.05,0,0,1,385.33,95.79Z"/><path class="cls-11" d="M338.81,122.48c.51,4.56-6.16,8.67-14.9,9.19s-16.24-2.76-16.75-7.32,6.16-8.67,14.89-9.18S338.29,117.93,338.81,122.48Z"/><path class="cls-11" d="M420.51,114.84c.52,4.55-6.15,8.67-14.89,9.18s-16.24-2.76-16.75-7.32,6.15-8.66,14.89-9.18S420,110.28,420.51,114.84Z"/><path class="cls-2" d="M401.71,88.32a.75.75,0,0,1-.62-.32c-10.83-15.39-24.34-8.08-24.91-7.76a.75.75,0,0,1-.74-1.31c.15-.09,15.26-8.32,26.89,8.2a.76.76,0,0,1-.62,1.19Z"/><path class="cls-2" d="M320,95a.78.78,0,0,1-.33-.07.76.76,0,0,1-.35-1c8.82-18.19,25-12.51,25.21-12.45a.76.76,0,1,1-.52,1.42c-.61-.23-15.12-5.25-23.33,11.69A.75.75,0,0,1,320,95Z"/><path class="cls-2" d="M363.48,135.53a15,15,0,0,1-6.92-1.58c-2.55-1.35-4.06-3.37-4.24-5.68a1.5,1.5,0,1,1,3-.24c.14,1.68,1.72,2.76,2.65,3.25a13.56,13.56,0,0,0,13.18-1.07c.84-.64,2.22-2,2.08-3.64a1.53,1.53,0,0,1,1.39-1.63,1.5,1.5,0,0,1,1.62,1.38c.19,2.31-1,4.55-3.27,6.29a15.41,15.41,0,0,1-8,2.86c-.49,0-1,.06-1.46.06Z"/><path class="cls-2" d="M347.05,132.47h-.11a.75.75,0,0,1-.64-.85c1.21-8.68,6.72-10.26,7-10.32a.75.75,0,0,1,.92.53.76.76,0,0,1-.53.93c-.2,0-4.79,1.43-5.86,9.07a.74.74,0,0,1-.74.64Z"/><path class="cls-10" d="M372.28,49.48s1.83,23.49-8,30.25c0,0,3-19.35-2.9-26.95,0,0-30.05,46.27-65,60,0,0-3-3.8-2.17-13.88,0,0-3.3,2.91-3.43,4.79,0,0-10.87-47.58,16.34-58.48,0,0,41.09-41.6,75.4-24.38s54.78,23.9,46.84,76.67c0,0-8.93-21.13-18.49-26.63a13.25,13.25,0,0,1,2.63,8.89S400,54.11,372.28,49.48Z"/><path class="cls-2" d="M296.39,113.51a.79.79,0,0,1-.6-.29c-.12-.15-2.79-3.63-2.44-12.41a6.46,6.46,0,0,0-1.8,2.9.76.76,0,0,1-1.49.12c-.11-.48-10.66-48.16,16.65-59.29,2-2,29.58-28.67,57.81-28.67a40.45,40.45,0,0,1,18.35,4.26l5.82,2.9c30.55,15.15,49,24.29,41.42,74.55a.74.74,0,0,1-.65.64.77.77,0,0,1-.79-.46c-.08-.18-7.25-17-15.41-24.23a14.34,14.34,0,0,1,1,6.24.76.76,0,0,1-.6.69.74.74,0,0,1-.82-.38c-.14-.25-13.37-24.77-39.76-29.69.23,4.6.65,23.75-8.38,30a.76.76,0,0,1-.83,0,.77.77,0,0,1-.34-.76c0-.18,2.71-17.71-2.13-25.49-4.5,6.62-32.72,46.77-64.75,59.33a.66.66,0,0,1-.27.06Zm-2.17-15.39a.81.81,0,0,1,.34.08.74.74,0,0,1,.41.74c-.65,7.69,1,11.61,1.72,12.88,34.09-13.75,63.77-59,64.07-59.45a.76.76,0,0,1,.6-.34.82.82,0,0,1,.63.29c5,6.41,3.91,20.44,3.3,25.6,7.75-7.67,6.25-28.16,6.24-28.38a.77.77,0,0,1,.24-.62.76.76,0,0,1,.63-.18c22.49,3.75,35.87,21.36,40.21,28.05a11.94,11.94,0,0,0-2.31-5.46.76.76,0,0,1,0-1,.77.77,0,0,1,1-.17C419.09,74.69,426.33,89,429,94.78c6.42-46.9-10.57-55.32-41-70.4-1.89-.94-3.84-1.9-5.83-2.9a39,39,0,0,0-17.67-4.1C336,17.38,308,45.43,307.67,45.71a.65.65,0,0,1-.26.17c-22.93,9.19-18,45.78-16.33,55.33a18.42,18.42,0,0,1,2.64-2.9.73.73,0,0,1,.5-.19Z"/><path class="cls-12" d="M376.63,21.84c-10.09-1.19-18.93,3.37-19.73,10.21s6.71,13.34,16.81,14.54,18.92-3.37,19.73-10.21S386.72,23,376.63,21.84Z"/><path class="cls-13" d="M390.72,32.18c-7.28-.86-13.65,2.43-14.23,7.36s4.84,9.62,12.12,10.49,13.65-2.43,14.24-7.36S398,33,390.72,32.18Z"/><path class="cls-14" d="M226.22,187.1a143.26,143.26,0,0,1-9.31-28.67l-43.65,1.33a104.69,104.69,0,0,1-3.83,27.33"/><path class="cls-2" d="M226.22,187.85a.75.75,0,0,1-.69-.44,146,146,0,0,1-9.23-28.2L174,160.49a107.09,107.09,0,0,1-3.86,26.81.74.74,0,0,1-.93.52.76.76,0,0,1-.52-.93,104,104,0,0,0,3.8-27.12.75.75,0,0,1,.73-.76l43.66-1.33a.75.75,0,0,1,.76.61,144.19,144.19,0,0,0,9.25,28.49.75.75,0,0,1-.37,1,.7.7,0,0,1-.31.07Z"/><path class="cls-9" d="M212.87,158.43c.27,6.17-6.75,11.47-15.68,11.85s-16.37-4.3-16.63-10.47Z"/><path class="cls-2" d="M196.18,171.06c-8.91,0-16.11-4.93-16.37-11.21a.75.75,0,0,1,.19-.54.78.78,0,0,1,.53-.25l32.31-1.38a.75.75,0,0,1,.79.72c.14,3.24-1.53,6.34-4.7,8.73a21,21,0,0,1-11.7,3.9q-.53,0-1,0Zm-14.8-10.53c.81,5.33,7.59,9.34,15.78,9A19.5,19.5,0,0,0,208,165.92c2.5-1.89,3.93-4.24,4.08-6.7l-30.73,1.31Z"/><path class="cls-10" d="M156.11,50.65s-13.3-8.59-21.92,0l2.58,1.11s-13.31,2.38-14,21.93-5.22,23.89-1.32,29.24l8.2,3.87S135.74,56.67,156.11,50.65Z"/><path class="cls-2" d="M129.69,107.56a.88.88,0,0,1-.32-.07l-8.21-3.87a.81.81,0,0,1-.28-.24c-2.39-3.28-1.85-6.23-.87-11.57a112.55,112.55,0,0,0,2-18.15c.51-15.25,8.71-20.41,12.59-22l-.75-.32a.75.75,0,0,1-.44-.55.77.77,0,0,1,.2-.68,13.74,13.74,0,0,1,10-4c6.64,0,12.57,3.77,12.82,3.93a.75.75,0,0,1-.2,1.36c-19.66,5.82-25.82,55-25.88,55.52a.73.73,0,0,1-.39.57.68.68,0,0,1-.36.1Zm-7.7-5.22,7.08,3.34c1-7.22,7.25-47.7,25.23-55.19a24.34,24.34,0,0,0-10.6-2.91,12.32,12.32,0,0,0-8.14,2.84l1.51.65a.73.73,0,0,1,.45.77.77.77,0,0,1-.61.66c-.52.1-12.73,2.55-13.35,21.21a114.34,114.34,0,0,1-2.07,18.37c-.94,5.16-1.38,7.56.5,10.26Z"/><path class="cls-9" d="M132.78,110.72S118,89.47,112.66,104.05s7.72,35.78,21.53,24Z"/><path class="cls-2" d="M126,132.21h0c-4.06,0-7.92-2.33-10.88-6.56-4.38-6.27-5.65-15.06-3.15-21.86,1.36-3.72,3.46-5.61,6.25-5.61,6.7,0,14.86,11.62,15.2,12.11a.72.72,0,0,1,.13.37L134.94,128a.76.76,0,0,1-.26.63,13.38,13.38,0,0,1-8.7,3.63ZM118.2,99.69c-2.12,0-3.7,1.51-4.84,4.62-2.33,6.36-1.13,14.59,3,20.48,2.66,3.81,6.09,5.91,9.64,5.91a11.74,11.74,0,0,0,7.42-3L132.05,111c-1-1.4-8.32-11.3-13.85-11.3Z"/><path class="cls-2" d="M133.32,118.06a.77.77,0,0,1-.5-.18c-2.82-2.47-10.94-8.6-14.55-7.33a2.89,2.89,0,0,0-1.74,2.55.77.77,0,0,1-.88.61.75.75,0,0,1-.61-.87c.35-2,1.26-3.2,2.73-3.71,5.09-1.8,14.94,6.64,16,7.61a.76.76,0,0,1,.08,1.07.75.75,0,0,1-.57.25Z"/><path class="cls-9" d="M261.66,100.21s11.15-23.36,18.78-9.84-1.84,36.56-17.38,27.13Z"/><path class="cls-2" d="M270.1,120.46a14.34,14.34,0,0,1-7.43-2.32.73.73,0,0,1-.36-.58l-1.4-17.29a.63.63,0,0,1,.07-.38c.28-.59,7-14.48,14-14.48,2.36,0,4.44,1.54,6.16,4.59,3.81,6.76,3.66,16.66-.36,23.54-2.6,4.46-6.38,6.92-10.64,6.92Zm-6.32-3.41a12.68,12.68,0,0,0,6.32,1.9c3.7,0,7-2.19,9.34-6.17,3.76-6.45,3.91-15.71.34-22-1.43-2.54-3.06-3.83-4.84-3.83-4.93,0-10.61,9.53-12.52,13.44l1.36,16.7Z"/><path class="cls-2" d="M262.19,107.56a.74.74,0,0,1-.48-.18.76.76,0,0,1-.1-1.06c.94-1.13,9.31-11.06,14.61-10.11a4.33,4.33,0,0,1,3.28,3.22.75.75,0,1,1-1.42.5c-.47-1.33-1.16-2.06-2.13-2.23-3.77-.69-10.79,6.69-13.18,9.58a.74.74,0,0,1-.58.28Z"/><path class="cls-9" d="M125.38,108.29c-3.19-39.38,26.23-67.85,65.83-71.08s74.39,20,77.59,59.39-27.39,60.7-67,63.93S128.59,147.67,125.38,108.29Z"/><path class="cls-2" d="M192.1,161.68c-39.53,0-64.75-19.93-67.47-53.33-3.11-38.26,24.87-68.5,66.52-71.89,2.44-.2,4.91-.3,7.33-.3,39,0,68.18,24.83,71.07,60.38,2.95,36.29-23,61.09-67.68,64.74-3.29.27-6.58.4-9.77.4Zm6.38-124c-2.38,0-4.81.1-7.21.29-40.78,3.33-68.17,32.88-65.14,70.27,2.65,32.53,27.31,52,66,52,3.15,0,6.39-.14,9.65-.4,34.3-2.8,69.74-20.85,66.3-63.12-2.83-34.73-31.43-59-69.57-59Z"/><path class="cls-9" d="M204.43,111.82c.19,2.46-2.6,4.69-6.25,5s-6.76-1.45-7-3.91,2.59-4.7,6.24-5S204.23,109.36,204.43,111.82Z"/><path class="cls-2" d="M197.38,117.59c-3.72,0-6.7-2-6.91-4.63-.24-2.92,2.81-5.47,6.93-5.8s7.54,1.75,7.78,4.6-2.81,5.46-6.93,5.8l-.87,0Zm.89-9c-.25,0-.49,0-.75,0-3.17.26-5.71,2.17-5.55,4.18s2.93,3.48,6.15,3.21,5.72-2.17,5.56-4.17c-.15-1.82-2.53-3.25-5.41-3.25Z"/><path class="cls-2" d="M170.69,91.48a7.64,7.64,0,0,0-3.42,8.94,7.81,7.81,0,0,1-1.16-1.49A7.63,7.63,0,1,1,180,92.76,7.62,7.62,0,0,0,170.69,91.48Z"/><path class="cls-2" d="M221.38,88.46a7.65,7.65,0,0,1,3.42,8.94,7.62,7.62,0,1,0-12-9.17,8.25,8.25,0,0,0-.66,1.5A7.6,7.6,0,0,1,221.38,88.46Z"/><path class="cls-11" d="M171,117.33c.56,4.93-6.66,9.38-16.12,9.94s-17.57-3-18.12-7.92,6.66-9.37,16.12-9.93S170.49,112.41,171,117.33Z"/><path class="cls-11" d="M259.44,109.06c.56,4.93-6.65,9.38-16.11,9.94s-17.57-3-18.12-7.92,6.66-9.38,16.11-9.93S258.89,104.13,259.44,109.06Z"/><path class="cls-2" d="M239.1,80.31a.74.74,0,0,1-.61-.32c-11.78-16.73-26.88-8.5-27-8.41a.76.76,0,0,1-.74-1.32c.17-.09,16.45-9,29,8.86a.75.75,0,0,1-.18,1,.82.82,0,0,1-.44.14Z"/><path class="cls-2" d="M150.65,87.52a.8.8,0,0,1-.33-.08.75.75,0,0,1-.35-1c9.52-19.63,27-13.51,27.2-13.44a.75.75,0,0,1,.45,1,.76.76,0,0,1-1,.45c-.66-.24-16.41-5.7-25.32,12.68a.76.76,0,0,1-.68.43Z"/><path class="cls-2" d="M197.73,131.32a16,16,0,0,1-7.42-1.69c-2.72-1.44-4.33-3.59-4.53-6a1.5,1.5,0,0,1,1.38-1.62,1.49,1.49,0,0,1,1.63,1.38c.11,1.39,1.15,2.68,2.93,3.62a14.79,14.79,0,0,0,14.39-1.17c1.6-1.22,2.42-2.65,2.31-4.05a1.51,1.51,0,1,1,3-.25c.21,2.46-1,4.84-3.49,6.7a16.59,16.59,0,0,1-8.62,3.07c-.53,0-1.06.06-1.58.06Z"/><path class="cls-2" d="M180,128.08h-.11a.74.74,0,0,1-.64-.85c1.3-9.35,7.23-11,7.49-11.11a.76.76,0,0,1,.39,1.46c-.22.06-5.23,1.56-6.39,9.86a.74.74,0,0,1-.74.65Z"/><path class="cls-10" d="M152.27,50.65S146.94,37,158.14,29.58v2.09S175.5,16,203.65,18.9s28.49.22,28.49.22,4,5.69-5.46,6.75c0,0,10.9,2.85,12.42,7.91h-7.3a10.55,10.55,0,0,1,10.52,8.66l-9.84-1.56a21.36,21.36,0,0,1,6.62,17.88s-16.46-20.08-33.44-19.32a4.91,4.91,0,0,1,4.28,5.74s-15.64-6-30,1.65c0,0,1.61.33,1.61,3.82S158.23,46,152.27,50.65Z"/><path class="cls-2" d="M239.1,59.51a.76.76,0,0,1-.58-.27c-.15-.19-14.21-17.12-29.36-18.91a5.77,5.77,0,0,1,1.53,4.93.77.77,0,0,1-.36.56.7.7,0,0,1-.66.06A41.82,41.82,0,0,0,196.3,43.7,33.88,33.88,0,0,0,181.36,47a5.91,5.91,0,0,1,1,3.69c0,1.09-1,1.65-2.92,1.65a62.13,62.13,0,0,1-8.07-1,85.31,85.31,0,0,0-12.54-1.4c-2.9,0-4.94.44-6.06,1.32a.72.72,0,0,1-.66.13.77.77,0,0,1-.51-.45c-.05-.14-5.41-14.33,6.17-22a.76.76,0,0,1,.77,0,.77.77,0,0,1,.4.67v.51a63.27,63.27,0,0,1,37.76-12.31,67.11,67.11,0,0,1,7.07.37c8.65.9,15.53,1.36,20.46,1.36,5.77,0,7.09-.64,7.3-.78a.77.77,0,0,1,1.27-.05c.07.1,1.64,2.38.65,4.6A5.49,5.49,0,0,1,229.7,26c3.47,1.25,9,3.79,10.12,7.52a.74.74,0,0,1-.72,1h-1.51a11.26,11.26,0,0,1,5.47,7.74.76.76,0,0,1-.19.69.78.78,0,0,1-.67.23L234.62,42a22.07,22.07,0,0,1,5.23,16.86.75.75,0,0,1-.53.64.83.83,0,0,1-.22,0ZM206.61,38.67c14.33,0,27.79,13.67,31.86,18.2A20.73,20.73,0,0,0,232,41.46a.75.75,0,0,1-.2-.89.73.73,0,0,1,.8-.43l8.69,1.37a9.64,9.64,0,0,0-9.17-7h-.32a.75.75,0,0,1-.05-1.5h6.19c-2-3.32-8.79-5.72-11.45-6.42a.77.77,0,0,1-.57-.78.76.76,0,0,1,.67-.69c3-.34,4.87-1.19,5.44-2.47a3.08,3.08,0,0,0-.15-2.44c-1.07.45-3.26.8-7.69.8-5,0-11.91-.46-20.61-1.37a67.11,67.11,0,0,0-6.92-.36c-23.44,0-37.87,12.81-38,12.94a.75.75,0,0,1-.81.13.74.74,0,0,1-.45-.69v-.62c-7.71,6.07-5.61,15.52-4.72,18.45a13.64,13.64,0,0,1,6.12-1.09,86.29,86.29,0,0,1,12.78,1.42,61.69,61.69,0,0,0,7.83,1c1.21,0,1.44-.21,1.45-.22,0-2.64-1.07-3-1.08-3a.73.73,0,0,1-.58-.63.78.78,0,0,1,.41-.77,35.17,35.17,0,0,1,16.7-4,43.94,43.94,0,0,1,12.92,2,4,4,0,0,0-3.64-4,.76.76,0,0,1-.67-.78.75.75,0,0,1,.72-.72c.33,0,.65,0,1,0Z"/><path class="cls-15" d="M848.62,186.94a143.28,143.28,0,0,1-9.31-28.66l-43.65,1.33a104.69,104.69,0,0,1-3.83,27.33"/><path class="cls-2" d="M848.62,187.7a.77.77,0,0,1-.69-.44,146.2,146.2,0,0,1-9.23-28.2l-42.29,1.28a107.15,107.15,0,0,1-3.86,26.81.74.74,0,0,1-.93.51.76.76,0,0,1-.52-.93,104.45,104.45,0,0,0,3.8-27.11.76.76,0,0,1,.73-.77l43.65-1.32a.71.71,0,0,1,.77.61,144.19,144.19,0,0,0,9.25,28.49.75.75,0,0,1-.37,1,.87.87,0,0,1-.31.07Z"/><path class="cls-9" d="M835.27,158.28c.27,6.16-6.75,11.46-15.68,11.85s-16.37-4.31-16.63-10.47Z"/><path class="cls-2" d="M818.58,170.9c-8.91,0-16.11-4.92-16.38-11.21a.82.82,0,0,1,.2-.54.77.77,0,0,1,.52-.24l32.32-1.38a.76.76,0,0,1,.79.72c.14,3.23-1.53,6.33-4.7,8.72a21,21,0,0,1-11.7,3.91l-1,0Zm-14.8-10.52c.8,5.32,7.6,9.34,15.78,9a19.54,19.54,0,0,0,10.86-3.6,9.3,9.3,0,0,0,4.09-6.7l-30.73,1.31Z"/><path class="cls-16" d="M756.22,53.57s-28.66,47.11-8,92.49c0,0,8.36,1.39,14.53,2.59l.43-5,2.85,5.24s59.66,9.4,102.11,3.88l5.64-9.05-2.77,9.3,13.24-3.17S908,90.46,887.42,63"/><path class="cls-2" d="M837.6,155.28c-35.6,0-71.26-5.53-71.72-5.6a.75.75,0,0,1-.55-.39l-1.65-3-.22,2.46a.72.72,0,0,1-.29.54.76.76,0,0,1-.6.14c-6.1-1.19-14.43-2.57-14.51-2.58a.78.78,0,0,1-.57-.44c-20.55-45.22,7.79-92.71,8.08-93.19a.76.76,0,0,1,1.29.79c-.28.46-28.05,47-8.16,91.42,1.65.27,8.11,1.36,13.33,2.36l.36-4.13a.77.77,0,0,1,.6-.67.75.75,0,0,1,.82.38l2.67,4.91c5.07.77,61,9,101.17,3.87l5.45-8.75a.76.76,0,0,1,.95-.29.75.75,0,0,1,.41.9l-2.4,8.05,11.59-2.77c1.93-5,22.47-60.1,3.16-85.8a.76.76,0,0,1,.15-1.06.75.75,0,0,1,1.06.15c20.64,27.49-2.13,85.19-3.11,87.64a.78.78,0,0,1-.52.45l-13.25,3.16a.76.76,0,0,1-.72-.21.77.77,0,0,1-.18-.74l1.18-3.93-2.68,4.3a.77.77,0,0,1-.55.35,242.75,242.75,0,0,1-30.59,1.72Z"/><path class="cls-9" d="M760.19,111.51s-11.6-20.17-17.52-7.54,4.14,32.62,17.43,23.11Z"/><path class="cls-2" d="M753.25,130.32h0c-3.76,0-7.22-2.17-9.72-6.11-3.79-6-4.42-14.41-1.54-20.56,1.43-3.05,3.33-4.59,5.65-4.59,6.19,0,12.92,11.58,13.2,12.07a.75.75,0,0,1,.1.38l-.08,15.58a.79.79,0,0,1-.32.61,12.56,12.56,0,0,1-7.29,2.62Zm-5.61-29.75c-1.69,0-3.13,1.25-4.29,3.72-2.67,5.7-2.07,13.56,1.45,19.11,2.22,3.49,5.22,5.41,8.45,5.41h0a10.88,10.88,0,0,0,6.1-2.12l.08-15c-1.91-3.27-7.46-11.14-11.79-11.14Z"/><path class="cls-2" d="M760.16,118.2a.78.78,0,0,1-.55-.23c-2.33-2.42-9.12-8.52-12.4-7.67-.82.21-1.38.9-1.7,2.09a.75.75,0,0,1-.92.54.77.77,0,0,1-.54-.93,4,4,0,0,1,2.79-3.16c4.75-1.23,12.94,7.13,13.86,8.08a.76.76,0,0,1,0,1.07.77.77,0,0,1-.52.21Z"/><path class="cls-9" d="M876.49,112.14s11.81-20,17.6-7.34-4.49,32.57-17.69,22.92Z"/><path class="cls-2" d="M883.33,131a12.52,12.52,0,0,1-7.37-2.7.74.74,0,0,1-.31-.61l.08-15.58a.84.84,0,0,1,.11-.38c.29-.49,7.1-11.93,13.27-11.93,2.35,0,4.26,1.57,5.66,4.66,2.8,6.13,2.09,14.54-1.71,20.45-2.53,3.93-6,6.09-9.73,6.09Zm-6.17-3.7a10.78,10.78,0,0,0,6.17,2.19c3.22,0,6.22-1.91,8.46-5.39,3.54-5.5,4.2-13.32,1.61-19-1.14-2.5-2.58-3.77-4.29-3.77-4.33,0-9.93,7.78-11.87,11l-.08,15Z"/><path class="cls-2" d="M876.46,118.84a.73.73,0,0,1-.53-.22.76.76,0,0,1,0-1.07c.93-.94,9.21-9.21,14-7.93a4,4,0,0,1,2.75,3.19.76.76,0,0,1-1.47.38c-.3-1.2-.85-1.89-1.67-2.11-3.29-.88-10.13,5.14-12.48,7.53a.78.78,0,0,1-.54.23Z"/><path class="cls-9" d="M753.75,108.76c.19-35.48,29.32-64.09,65.06-63.89s64.55,29.12,64.36,64.6-29.26,52.17-65,52S753.55,144.24,753.75,108.76Z"/><path class="cls-2" d="M818.79,162.21h-.62c-40.38-.22-65.36-20.7-65.18-53.45.2-35.64,29.56-64.64,65.45-64.64h.37c36.1.2,65.31,29.52,65.11,65.36-.18,32.53-25.14,52.74-65.13,52.74Zm-.35-116.59c-35.06,0-63.75,28.33-63.94,63.14-.21,38,32.76,51.76,63.68,51.93h.61c30.62,0,63.42-13.46,63.63-51.24.19-35-28.35-63.64-63.61-63.84Z"/><path class="cls-9" d="M824.3,118.07c0,2.22-2.69,4-6,4s-6-1.83-5.94-4,2.69-4,6-4S824.31,115.86,824.3,118.07Z"/><path class="cls-2" d="M818.37,122.8h0a8.42,8.42,0,0,1-4.63-1.32,4.22,4.22,0,0,1-2.06-3.48c0-2.65,3-4.73,6.68-4.73A8.51,8.51,0,0,1,823,114.6a4.26,4.26,0,0,1,2.06,3.48c0,2.65-3,4.72-6.69,4.72Zm0-8c-2.84,0-5.21,1.48-5.22,3.23a2.76,2.76,0,0,0,1.4,2.22,6.78,6.78,0,0,0,3.79,1.06l0,.76v-.76c2.8,0,5.17-1.47,5.18-3.22a2.78,2.78,0,0,0-1.4-2.22,6.89,6.89,0,0,0-3.79-1.07Z"/><path class="cls-2" d="M847.06,101.06a6.86,6.86,0,1,1-6.82-6.9A6.86,6.86,0,0,1,847.06,101.06Z"/><path class="cls-2" d="M803,100.82a6.86,6.86,0,1,1-6.82-6.9A6.86,6.86,0,0,1,803,100.82Z"/><path class="cls-11" d="M794,120.41c.11,4.45-6.7,7.87-15.22,7.63s-15.51-4-15.62-8.49,6.7-7.87,15.21-7.64S793.85,116,794,120.41Z"/><path class="cls-11" d="M873.82,119.89c.11,4.45-6.7,7.87-15.22,7.63s-15.51-4-15.62-8.49,6.7-7.87,15.22-7.63S873.71,115.43,873.82,119.89Z"/><path class="cls-2" d="M857.88,92.66a.76.76,0,0,1-.65-.38c-9.2-15.79-22.89-9.86-23.47-9.6a.75.75,0,0,1-.63-1.37c.16-.07,15.5-6.78,25.4,10.21a.76.76,0,0,1-.65,1.14Z"/><path class="cls-2" d="M778.07,92.22a.77.77,0,0,1-.39-.11.75.75,0,0,1-.26-1c10.08-16.88,25.35-10,25.51-9.94a.74.74,0,0,1,.36,1,.75.75,0,0,1-1,.37c-.57-.27-14.2-6.35-23.58,9.34a.74.74,0,0,1-.64.37Z"/><path class="cls-2" d="M818.36,135.9h-.12a17.66,17.66,0,0,1-9.35-2.55c-2.73-1.75-4.22-4.15-4.21-6.74a1.51,1.51,0,0,1,1.51-1.5h0a1.51,1.51,0,0,1,1.5,1.51c0,1.53,1,3,2.82,4.2a14.68,14.68,0,0,0,7.74,2.06h.1a14.51,14.51,0,0,0,7.66-2c1.85-1.16,2.87-2.63,2.87-4.16a1.51,1.51,0,0,1,1.51-1.5h0a1.5,1.5,0,0,1,1.5,1.52c0,2.59-1.53,5-4.28,6.7a17.65,17.65,0,0,1-9.27,2.44Z"/><path class="cls-3" d="M845.51,100.65A2.66,2.66,0,1,1,842.87,98,2.65,2.65,0,0,1,845.51,100.65Z"/><path class="cls-3" d="M802.21,100.42a2.66,2.66,0,1,1-2.64-2.67A2.65,2.65,0,0,1,802.21,100.42Z"/><path class="cls-16" d="M850.87,57.54s-.76,16.88-32.69,21.11c0,0,16.08-10.34,11.66-24.25,0,0,1.7,16.72-18.93,18,0,0,10.94-8.93,7-18.14,0,0-42.71,2-52.83,43.17,0,0-4.78-5.28-.94-16.88,0,0-15.36,38.79-3.5,62.94,0,0-25.75-50.65-5.23-80.71,0,0-7.27-26.36,20.6-40.95,0,0-7.62,7.19-7.89,12.83,0,0,35.75-31.41,82.82-8.5,53.29,25.93,50.46,70.15,25.13,119.9,0,0,14.59-43.31.66-58.63l-5.62,9.41S873.94,71.75,850.87,57.54Z"/><path class="cls-2" d="M876.08,146.79a.72.72,0,0,1-.29-.06.74.74,0,0,1-.42-.93c.14-.43,13.81-41.62,1.48-57.09l-5.08,8.5a.75.75,0,0,1-.89.32.76.76,0,0,1-.51-.79c0-.25,2.4-24-18.92-37.94-.83,4.08-5.62,17-33.17,20.6a.75.75,0,0,1-.51-1.38c.13-.09,10.88-7.14,12-17.14a16.22,16.22,0,0,1-3.1,5.6c-3.38,4-8.67,6.22-15.71,6.65a.75.75,0,0,1-.75-.47.76.76,0,0,1,.23-.86c.1-.09,10.06-8.36,7-16.77-4.92.42-42.34,4.86-51.6,42.56a.77.77,0,0,1-.55.55.74.74,0,0,1-.74-.23c-.14-.15-2.43-2.77-2.62-8.18-3.73,12.83-8.74,36.8-.59,53.41a.74.74,0,0,1-.33,1,.76.76,0,0,1-1-.33c-.25-.51-25.56-51.09-5.36-81.2-.73-3.2-5.29-27.68,21.06-41.47a.75.75,0,0,1,1,.23.76.76,0,0,1-.09,1c-.07.06-5.82,5.53-7.31,10.45,5.22-4,22.83-15.79,46.88-15.79a80,80,0,0,1,35.17,8.44C872.14,35.61,885.57,49.27,891.19,66c7.07,21.09,2.35,47.37-14.44,80.34a.74.74,0,0,1-.67.41Zm.66-60.13a.77.77,0,0,1,.56.25c10.37,11.4,5.5,37.29,2,50.82,13.41-28.88,16.83-52.24,10.47-71.21-5.49-16.37-18.66-29.73-39.14-39.7a75.94,75.94,0,0,0-82,8.39.73.73,0,0,1-.82.11.75.75,0,0,1-.43-.71c.16-3.29,2.58-7,4.74-9.65-22,14.37-16.25,36.61-16,37.6a.79.79,0,0,1-.11.63c-13.82,20.23-6.18,50.34,0,67.25-3.28-22.69,6.91-48.86,7.43-50.19a.76.76,0,0,1,1.42.52c-2.56,7.75-1.14,12.57-.06,14.75,10.88-39.65,52.66-42,53.08-42a.77.77,0,0,1,.73.46c3.16,7.41-2.55,14.46-5.56,17.49,5.52-.69,9.71-2.68,12.46-5.92a16.25,16.25,0,0,0,3.59-11,.74.74,0,0,1,.59-.82.75.75,0,0,1,.87.51C834,65,825.41,73.82,821,77.47c28.1-4.7,29.11-19.81,29.11-20a.77.77,0,0,1,.4-.63.74.74,0,0,1,.75,0c18.5,11.4,20.62,29.88,20.71,37l4.12-6.9a.77.77,0,0,1,.57-.37Z"/><path class="cls-17" d="M790,66.8a4.73,4.73,0,0,1-2.18,6.32h0a4.73,4.73,0,0,1-6.32-2.18L775.7,59.13a4.72,4.72,0,0,1,2.17-6.32h0A4.73,4.73,0,0,1,784.19,55Z"/><path class="cls-2" d="M785.71,74.35a5.46,5.46,0,0,1-4.93-3.08L775,59.46a5.47,5.47,0,0,1,2.52-7.33,5.38,5.38,0,0,1,2.4-.55,5.46,5.46,0,0,1,4.93,3.07l5.76,11.82a5.49,5.49,0,0,1-4.92,7.88Zm-5.77-21.26a4,4,0,0,0-3.56,5.71l5.76,11.81a4,4,0,0,0,5.31,1.83,4,4,0,0,0,1.83-5.31l-5.77-11.81a3.94,3.94,0,0,0-3.57-2.23Z"/><path class="cls-18" d="M841.45,19.46c9.94,3.45,16.1,11.7,13.76,18.41S842.93,47.24,833,43.78s-16.1-11.69-13.76-18.41S831.51,16,841.45,19.46Z"/><path class="cls-19" d="M823.66,22.69c7.17,2.49,11.61,8.44,9.93,13.29s-8.86,6.75-16,4.26S806,31.8,807.63,27,816.49,20.2,823.66,22.69Z"/><path class="cls-20" d="M543.08,187.1A94.19,94.19,0,0,1,537,168.34l-28.58.86a68.62,68.62,0,0,1-2.5,17.9"/><path class="cls-2" d="M543.08,187.85a.75.75,0,0,1-.68-.44,95.46,95.46,0,0,1-6-18.3l-27.22.82a70.26,70.26,0,0,1-2.53,17.37.74.74,0,0,1-.93.52.76.76,0,0,1-.52-.93,68.08,68.08,0,0,0,2.48-17.67.76.76,0,0,1,.73-.77l28.58-.87a.74.74,0,0,1,.76.61,93.62,93.62,0,0,0,6,18.59.75.75,0,0,1-.37,1,.71.71,0,0,1-.32.07Z"/><path class="cls-9" d="M534.35,168.34c.17,4-4.43,7.5-10.27,7.75s-10.71-2.82-10.89-6.85Z"/><path class="cls-2" d="M523.42,176.86c-6,0-10.8-3.33-11-7.59a.73.73,0,0,1,.2-.54.74.74,0,0,1,.52-.25l21.16-.9a.73.73,0,0,1,.78.72,7.08,7.08,0,0,1-3.17,5.93,14,14,0,0,1-7.81,2.61l-.7,0ZM514,170c.7,3.21,5,5.6,10,5.38a12.59,12.59,0,0,0,7-2.31,6,6,0,0,0,2.54-3.91L514,170Z"/><path class="cls-21" d="M461.05,122.49s-14.19-6.38-23.69,3.05l3.69,3-3.69,2.19,4.75,1.56-4.75,5.6,5.28,1.57-1.06,4.41s11.19,6.18,22.47-7.17Z"/><path class="cls-2" d="M448.11,146.07h0a15.06,15.06,0,0,1-6.89-1.53.74.74,0,0,1-.37-.83l.89-3.72-4.59-1.37a.73.73,0,0,1-.51-.5.76.76,0,0,1,.15-.71l4-4.74-3.68-1.21a.78.78,0,0,1-.52-.64.75.75,0,0,1,.37-.73l2.76-1.64-2.85-2.33a.73.73,0,0,1-.28-.55.76.76,0,0,1,.22-.57,18.76,18.76,0,0,1,13.73-5.38,28.86,28.86,0,0,1,10.8,2.18.75.75,0,0,1,.42.53l3,14.23a.75.75,0,0,1-.16.64c-6.19,7.33-12.4,8.87-16.52,8.87Zm-5.65-2.61a14.8,14.8,0,0,0,5.65,1.1h0c3.75,0,9.39-1.41,15.13-8.06L460.39,123a28.24,28.24,0,0,0-9.83-1.9,17.46,17.46,0,0,0-12.06,4.36l3,2.47a.8.8,0,0,1,.28.64.75.75,0,0,1-.37.59l-2.27,1.35,3.17,1a.76.76,0,0,1,.34,1.21l-4,4.72,4.16,1.23a.77.77,0,0,1,.52.9l-.91,3.82Z"/><path class="cls-21" d="M583.73,111.52s14.19-6.38,23.68,3l-3.69,3,3.69,2.19-4.74,1.56,4.74,5.6-5.27,1.57,1.05,4.42s-11.19,6.18-22.47-7.18Z"/><path class="cls-2" d="M596.67,135.1c-4.12,0-10.33-1.54-16.52-8.87a.74.74,0,0,1-.16-.64l3-14.23a.77.77,0,0,1,.43-.53,29,29,0,0,1,10.8-2.17A18.8,18.8,0,0,1,608,114a.77.77,0,0,1,.22.58.72.72,0,0,1-.28.54L605,117.48l2.77,1.64a.76.76,0,0,1,.36.74.74.74,0,0,1-.51.63L604,121.7l4,4.75a.74.74,0,0,1,.15.7.81.81,0,0,1-.51.51L603,129l.89,3.72a.76.76,0,0,1-.37.84,15.34,15.34,0,0,1-6.89,1.52Zm-15.13-9.56c5.73,6.64,11.38,8,15.13,8a14.65,14.65,0,0,0,5.65-1.1l-.91-3.82a.73.73,0,0,1,.52-.89l4.16-1.24-4-4.72a.75.75,0,0,1-.15-.69.77.77,0,0,1,.49-.52l3.17-1-2.26-1.34a.76.76,0,0,1-.1-1.24l3-2.46a17.37,17.37,0,0,0-12-4.37,28.24,28.24,0,0,0-9.83,1.9l-2.85,13.48Z"/><path class="cls-21" d="M581.78,96.75c-8.6-22-15.26-40.35-44.43-45.77-24.23-4.5-48.62.36-51.79,10.9,0,0-27,4-29.17,37l3.39-8.49s-10.37,35.27,10.5,52.83h0l108.79-9.52s11.06-27.73,2.71-37"/><path class="cls-2" d="M479.56,151.8a.77.77,0,0,1-.49-.17l-9.27-7.81C455,131.4,455.66,110.13,457.38,98.47l-.29.72a.76.76,0,0,1-.87.46.74.74,0,0,1-.58-.78C457.63,68,481.34,62,485,61.22c2.75-7.71,16.1-12.67,34.28-12.67a100.2,100.2,0,0,1,18.22,1.69c29,5.39,36.2,23.74,44.51,45l.43,1.13c8.4,9.58-2.2,36.51-2.66,37.65a.77.77,0,0,1-.63.48l-107,9.36,7.89,6.63a.77.77,0,0,1,.09,1.06.76.76,0,0,1-.58.27ZM459.78,89.67a.77.77,0,0,1,.25,0,.76.76,0,0,1,.47.93c-.1.34-9.91,34.72,10,51.82l108-9.45c1.33-3.52,10.07-27.57,2.68-35.76a.59.59,0,0,1-.14-.23l-.49-1.25c-8.48-21.68-15.17-38.81-43.38-44a98.9,98.9,0,0,0-17.94-1.66c-17.57,0-30.82,4.84-33,12a.78.78,0,0,1-.62.53c-1,.15-23.46,3.8-27.9,30.8l1.31-3.29a.76.76,0,0,1,.7-.47Z"/><path class="cls-9" d="M473,131.59s-11.51-16.52-15.67-5.19,6,27.81,16.76,18.62Z"/><path class="cls-2" d="M467.71,148.46h0c-3.22,0-6.28-1.84-8.61-5.18a19.57,19.57,0,0,1-2.47-17.14c1.09-3,2.78-4.46,5-4.46,5.31,0,11.7,9.09,12,9.48a.7.7,0,0,1,.14.37L474.85,145a.75.75,0,0,1-.26.64,10.58,10.58,0,0,1-6.88,2.86Zm-6.06-25.28c-1.56,0-2.74,1.14-3.6,3.48a18,18,0,0,0,2.29,15.76c2,2.92,4.66,4.53,7.37,4.53h0a9,9,0,0,0,5.61-2.25l-1.05-12.85c-1.82-2.56-6.95-8.67-10.62-8.67Z"/><path class="cls-2" d="M473.43,137.47a.78.78,0,0,1-.5-.19c-2.18-1.9-8.44-6.63-11.17-5.66-.24.08-1,.34-1.24,1.85a.75.75,0,1,1-1.48-.27,3.51,3.51,0,0,1,2.22-3c4-1.43,11.79,5.19,12.66,5.95a.75.75,0,0,1,.07,1.07.74.74,0,0,1-.56.26Z"/><path class="cls-9" d="M573.33,123.42S582,105.26,588,115.77s-1.44,28.42-13.53,21.09Z"/><path class="cls-2" d="M579.9,139.33A11.34,11.34,0,0,1,574,137.5a.74.74,0,0,1-.37-.58l-1.09-13.44a.72.72,0,0,1,.07-.38c.22-.47,5.49-11.35,11-11.35,1.91,0,3.57,1.22,4.94,3.65a19.38,19.38,0,0,1-.27,18.46c-2.06,3.52-5.06,5.47-8.44,5.47Zm-4.75-2.92c4.69,2.67,9.15,1.37,11.89-3.32a18.07,18.07,0,0,0,.26-17c-1.09-1.91-2.31-2.89-3.63-2.89-3.73,0-8.08,7.28-9.57,10.32l1,12.84Z"/><path class="cls-2" d="M573.75,129.3a.78.78,0,0,1-.48-.17.75.75,0,0,1-.1-1.06c.73-.89,7.31-8.68,11.53-7.92a3.51,3.51,0,0,1,2.68,2.61.75.75,0,0,1-1.42.5c-.51-1.45-1.28-1.58-1.53-1.63-2.85-.5-8.26,5.17-10.1,7.4a.76.76,0,0,1-.58.27Z"/><path class="cls-9" d="M467.25,129.7a56,56,0,0,1,111.64-9.09c2.49,30.61-21.32,47.18-52.15,49.69S469.74,160.31,467.25,129.7Z"/><path class="cls-2" d="M519.19,171.37c-30.87,0-50.57-15.55-52.69-41.61-2.52-31,20.8-58.23,52-60.77,1.56-.13,3.14-.19,4.7-.19,29.29,0,54.08,22.73,56.44,51.75,2.3,28.31-17.94,47.66-52.83,50.5-2.57.21-5.14.32-7.62.32Zm4-101.06c-1.52,0-3.06.06-4.58.18C488.26,73,465.55,99.5,468,129.64c2.05,25.19,21.19,40.22,51.19,40.22,2.44,0,5-.1,7.49-.31,26.62-2.17,54.12-16.14,51.46-48.88-2.3-28.24-26.44-50.36-54.94-50.36Z"/><path class="cls-9" d="M528.78,132.45c.15,1.9-2,3.64-4.86,3.87s-5.27-1.13-5.42-3,2-3.65,4.86-3.88S528.63,130.53,528.78,132.45Z"/><path class="cls-2" d="M523.3,137.1c-3,0-5.38-1.61-5.55-3.76a3.72,3.72,0,0,1,1.59-3.22,7.42,7.42,0,0,1,4-1.47c3.3-.25,6.05,1.43,6.23,3.74s-2.24,4.41-5.55,4.68l-.68,0Zm.69-7-.57,0a5.8,5.8,0,0,0-3.14,1.15,2.3,2.3,0,0,0-1,1.92c.12,1.45,2.2,2.55,4.61,2.35s4.29-1.6,4.17-3.06-1.88-2.38-4-2.38Z"/><path class="cls-2" d="M547.13,116.07a5.94,5.94,0,1,1-6.4-5.44A5.95,5.95,0,0,1,547.13,116.07Z"/><path class="cls-2" d="M509.14,119.16a5.94,5.94,0,1,1-6.4-5.44A5.95,5.95,0,0,1,509.14,119.16Z"/><path class="cls-2" d="M555.77,108.12a.75.75,0,0,1-.61-.32c-9.06-12.85-20.36-6.75-20.83-6.49a.76.76,0,0,1-1-.29.74.74,0,0,1,.29-1c.13-.08,12.94-7,22.8,6.93a.75.75,0,0,1-.18,1,.77.77,0,0,1-.44.14Z"/><path class="cls-2" d="M486.92,113.72a.78.78,0,0,1-.33-.07.76.76,0,0,1-.35-1c7.47-15.39,21.24-10.58,21.38-10.53a.75.75,0,1,1-.52,1.41c-.51-.18-12.64-4.36-19.5,9.78a.75.75,0,0,1-.68.42Z"/><path class="cls-2" d="M523.42,148.53c-6,0-10.77-3-11.12-7.24a1.5,1.5,0,0,1,1.38-1.62,1.52,1.52,0,0,1,1.63,1.38c.22,2.78,4.5,4.81,9.36,4.41s8.74-3.08,8.51-5.87a1.53,1.53,0,0,1,1.39-1.63,1.49,1.49,0,0,1,1.62,1.39c.37,4.57-4.59,8.57-11.28,9.12-.5,0-1,.06-1.49.06Z"/><path class="cls-21" d="M581.69,112.5c-.54,9.46-6.17,13-6.17,13,2.28-13.69-1.77-20.36-1.77-20.36l-.42,5.43c-12.79-38.22-62.48-32.29-62.48-32.29-.49,7.53,14.92,15.21,14.92,15.21-12.19.4-21.11-12.64-21.11-12.64-.89,8.54,16.38,18,16.38,18-19.89,0-32.77-15.08-32.77-15.08s-16.22,9.34-17.76,41.75l-1.49-15L466.6,124.7s-14.76-38.79,26.79-58.06S584.18,68.63,581.69,112.5Z"/><path class="cls-2" d="M470.51,126.33a.74.74,0,0,1-.75-.68l-.94-9.42-1.48,8.59a.75.75,0,1,1-1.48-.25l2.42-14.09a.73.73,0,0,1,.77-.62.75.75,0,0,1,.72.68l.7,7c3.5-26.06,16.81-34,17.43-34.39a.75.75,0,0,1,1,.17c.12.14,11.61,13.34,29.26,14.71-4.88-3.09-14.92-10.31-14.2-17.23a.75.75,0,0,1,.56-.66.76.76,0,0,1,.81.31c.08.11,7.22,10.36,17.16,12.08-4.58-2.74-12.72-8.44-12.34-14.28a.75.75,0,0,1,.66-.7c.5-.06,47.6-5.25,62.08,29.58l.16-2a.75.75,0,0,1,.57-.68.77.77,0,0,1,.82.35c.16.26,3.77,6.4,2.18,18.82a17.37,17.37,0,0,0,4.37-11.15.73.73,0,0,1,.79-.71.75.75,0,0,1,.71.79c-.55,9.74-6.27,13.48-6.52,13.63a.76.76,0,0,1-1.15-.76c1.37-8.22.42-13.85-.52-17l-.17,2.22a.74.74,0,0,1-.66.69.78.78,0,0,1-.81-.51C561,76,517.53,78.5,511.61,79c.43,6.75,14.35,13.78,14.5,13.85a.76.76,0,0,1,.4.84.77.77,0,0,1-.72.59c-9.54.35-17-7.11-20.13-10.87,2.14,7.28,15.59,14.75,15.74,14.83a.76.76,0,0,1-.36,1.42h0c-17.94,0-30.41-12.23-32.89-14.86-2.71,1.92-15.54,12.46-16.89,40.81a.75.75,0,0,1-.73.71Z"/><path class="cls-11" d="M497.28,132.52a6.91,6.91,0,1,1-6.91-6.94A6.93,6.93,0,0,1,497.28,132.52Z"/><path class="cls-11" d="M564.43,127a6.92,6.92,0,1,1-6.92-6.95A6.93,6.93,0,0,1,564.43,127Z"/><path class="cls-22" d="M554.17,58.05c8.08,6.39,11.14,16,6.83,21.45s-14.37,4.73-22.45-1.65-11.15-16-6.83-21.45S546.08,51.67,554.17,58.05Z"/><path class="cls-23" d="M536.68,55.34c5.83,4.61,8,11.53,4.92,15.48s-10.36,3.4-16.19-1.2-8-11.53-4.93-15.47S530.84,50.74,536.68,55.34Z"/><path class="cls-24" d="M552.4,92.38a2.2,2.2,0,0,1-1.35-.46,2.26,2.26,0,0,1-.45-3.15l12-16a2.25,2.25,0,0,1,3.6,2.71l-12,16a2.23,2.23,0,0,1-1.8.9Z"/><path class="cls-2" d="M552.4,93.13a2.92,2.92,0,0,1-1.8-.61,3,3,0,0,1-.6-4.21l12-16a3,3,0,0,1,5.38,1.39,3,3,0,0,1-.58,2.23l-12,16a3,3,0,0,1-2.41,1.2Zm12-20.46a1.48,1.48,0,0,0-1.2.59l-12,16a1.51,1.51,0,0,0,.3,2.1,1.53,1.53,0,0,0,2.1-.29l12-16a1.48,1.48,0,0,0,.28-1.11,1.49,1.49,0,0,0-1.48-1.29Z"/><path class="cls-2" d="M500.37,119.06s-4.86,1.4-6.48,0c0,0,.73,4.6,6.48,2.3"/><path class="cls-2" d="M544.7,115.11s5,.53,6.39-1.13c0,0,.07,4.66-6,3.39"/><path class="cls-3" d="M545.76,115.83a2.3,2.3,0,1,1-2.47-2.1A2.29,2.29,0,0,1,545.76,115.83Z"/><path class="cls-3" d="M508.41,118.88a2.3,2.3,0,1,1-2.48-2.11A2.3,2.3,0,0,1,508.41,118.88Z"/><path class="cls-25" d="M576.39,69.2c-.9-2.3-3.88-3.32-6.87-2.47-.3-3.1-2.33-5.5-4.81-5.5-2.67,0-4.84,2.81-4.84,6.27a8.05,8.05,0,0,0,.08,1.11,7.88,7.88,0,0,0-1.1-.17c-3.45-.28-6.42,1.66-6.63,4.33-.2,2.46,2,4.69,5.09,5.23-1.09,2.91-.3,6,1.92,7s5.11-.18,6.73-2.84c2.31,2.08,5.44,2.46,7.26.78s1.68-4.83-.2-7.3C575.8,74.28,577.29,71.51,576.39,69.2Zm-11.68,4.57Z"/><path class="cls-2" d="M560.93,86.18a4.57,4.57,0,0,1-2-.46c-2.34-1.14-3.36-4.12-2.55-7.17-3-.85-5.09-3.25-4.88-5.84.24-3.07,3.52-5.34,7.44-5l.2,0V67.5c0-3.87,2.51-7,5.6-7,2.6,0,4.83,2.24,5.43,5.33a8.11,8.11,0,0,1,1.47-.13c2.6,0,4.7,1.24,5.48,3.25.95,2.42-.33,5.31-3,7,1.66,2.68,1.54,5.84-.37,7.6a4.86,4.86,0,0,1-3.36,1.26h0a7.34,7.34,0,0,1-4.25-1.49,6.7,6.7,0,0,1-5.19,2.88Zm-2.73-17c-2.77,0-5.07,1.61-5.23,3.66s1.76,4,4.48,4.42a.76.76,0,0,1,.57,1c-1,2.58-.3,5.21,1.54,6.1s4.36-.28,5.75-2.55a.76.76,0,0,1,.54-.36.77.77,0,0,1,.61.19c2,1.77,4.78,2.14,6.24.78s1.39-4.09-.28-6.28a.74.74,0,0,1,.26-1.13c2.46-1.25,3.75-3.62,3-5.53a4.13,4.13,0,0,0-4.08-2.29,6.9,6.9,0,0,0-1.89.27.76.76,0,0,1-1-.66c-.26-2.74-2-4.81-4.06-4.81-2.25,0-4.09,2.47-4.09,5.51a8.12,8.12,0,0,0,.07,1,.75.75,0,0,1-.91.84,7.86,7.86,0,0,0-1-.15c-.2,0-.4,0-.59,0Z"/><path class="cls-24" d="M569.37,74.05a4.72,4.72,0,1,1-4.72-4.72A4.72,4.72,0,0,1,569.37,74.05Z"/><path class="cls-2" d="M564.65,79.53a5.48,5.48,0,1,1,5.48-5.48,5.49,5.49,0,0,1-5.48,5.48Zm0-9.45a4,4,0,1,0,4,4,4,4,0,0,0-4-4Z"/><path class="cls-26" d="M683.46,187.1l-2.4-11.57,8-4.74s.73-10.27-12.7-9.34l-22-2.17s-11.79-8.45-19,4.5l7.23,7a158.81,158.81,0,0,0-4.42,16.31"/><path class="cls-2" d="M683.46,187.85a.76.76,0,0,1-.74-.6l-2.4-11.56a.75.75,0,0,1,.36-.8l7.66-4.53a8.3,8.3,0,0,0-2.29-5.57c-2-2-5.27-2.89-9.61-2.59L654.29,160a.82.82,0,0,1-.37-.13s-5-3.5-10.15-2.33c-2.95.67-5.45,2.71-7.43,6.08l6.8,6.6a.77.77,0,0,1,.19.79,160.07,160.07,0,0,0-4.39,16.22.74.74,0,0,1-.9.57.76.76,0,0,1-.58-.9c1.73-7.94,3.73-14.23,4.29-15.93l-6.89-6.68a.76.76,0,0,1-.13-.91c2.25-4.06,5.18-6.52,8.72-7.31,5.32-1.2,10.2,1.79,11.18,2.45l21.83,2.15c4.68-.34,8.33.68,10.67,3a9.81,9.81,0,0,1,2.71,7.11.73.73,0,0,1-.36.59l-7.57,4.47,2.29,11a.75.75,0,0,1-.59.89l-.15,0Z"/><path class="cls-9" d="M672.28,161.48c-.42,4-5.48,6.78-11.29,6.17s-10.19-4.35-9.78-8.37Z"/><path class="cls-2" d="M662.58,168.49a15.71,15.71,0,0,1-1.67-.09c-6.22-.65-10.91-4.77-10.45-9.19a.78.78,0,0,1,.83-.68l21.06,2.2a.77.77,0,0,1,.68.83c-.42,4-4.82,6.93-10.45,6.93ZM652,160.12c.22,3.3,4.1,6.26,9.11,6.78s9.42-1.63,10.32-4.75l-19.43-2Z"/><path class="cls-9" d="M719.53,120.84s12-17.26,16.36-5.42-6.27,29.06-17.5,19.46Z"/><path class="cls-2" d="M725.06,138.44a11,11,0,0,1-7.17-3,.76.76,0,0,1-.26-.63l1.15-14a.72.72,0,0,1,.13-.37c.28-.4,7-9.89,12.48-9.89,2.33,0,4.08,1.56,5.21,4.65A20.37,20.37,0,0,1,734,133c-2.43,3.48-5.62,5.4-9,5.4Zm-5.89-3.89c4.74,3.86,10,2.81,13.62-2.37a18.82,18.82,0,0,0,2.4-16.5c-.91-2.46-2.15-3.65-3.8-3.65-3.86,0-9.22,6.4-11.13,9.08l-1.09,13.44Z"/><path class="cls-2" d="M719.09,127a.75.75,0,0,1-.5-1.32c.91-.79,9-7.7,13.2-6.22a3.66,3.66,0,0,1,2.3,3.13.74.74,0,0,1-.61.87.76.76,0,0,1-.87-.61,2.24,2.24,0,0,0-1.32-2c-2.87-1-9.42,3.93-11.7,5.92a.73.73,0,0,1-.5.19Z"/><path class="cls-9" d="M614.71,112.31s-9.08-19-15.28-8,1.5,29.69,14.13,22Z"/><path class="cls-2" d="M607.84,128.89h0c-3.52,0-6.64-2-8.79-5.7a20.21,20.21,0,0,1-.28-19.24c1.43-2.53,3.16-3.81,5.13-3.81,5.76,0,11.25,11.36,11.49,11.84a.87.87,0,0,1,.07.39l-1.14,14a.74.74,0,0,1-.37.58,11.82,11.82,0,0,1-6.11,1.9Zm-3.94-27.24c-1.39,0-2.67,1-3.81,3a18.87,18.87,0,0,0,.27,17.74c1.86,3.19,4.52,5,7.48,5h0a10.06,10.06,0,0,0,5-1.49l1.1-13.45c-1.56-3.17-6.12-10.8-10-10.8Z"/><path class="cls-2" d="M614.27,118.42a.77.77,0,0,1-.58-.28c-1.93-2.33-7.56-8.25-10.59-7.74-.73.13-1.26.7-1.62,1.73a.76.76,0,0,1-1,.46.75.75,0,0,1-.46-1,3.65,3.65,0,0,1,2.78-2.71c4.43-.79,11.25,7.33,12,8.26a.76.76,0,0,1-.58,1.24Z"/><path class="cls-9" d="M725.54,118.87c2.6-32-21.4-60-53.61-62.65s-60.43,21.18-63,53.15,22.27,49.3,54.48,51.92S722.94,150.85,725.54,118.87Z"/><path class="cls-2" d="M671.28,162.37h0c-2.6,0-5.28-.11-8-.33-36.44-3-57.58-23.17-55.17-52.73,2.46-30.3,28.35-54,58.94-54,1.62,0,3.27.07,4.9.2,32.58,2.65,56.94,31.12,54.3,63.46-2.21,27.2-22.78,43.44-55,43.44ZM667.09,56.78c-29.81,0-55,23.13-57.44,52.66-2.78,34.22,26,48.83,53.79,51.1,2.64.22,5.28.32,7.84.32,31.36,0,51.37-15.72,53.51-42.05C727.35,87.3,703.62,59.56,671.87,57c-1.59-.13-3.2-.19-4.78-.19Z"/><path class="cls-9" d="M661.25,121.74c-.16,2,2.11,3.8,5.08,4.05s5.5-1.18,5.67-3.18-2.12-3.81-5.08-4S661.41,119.74,661.25,121.74Z"/><path class="cls-2" d="M667,126.57h0l-.71,0c-3.43-.28-6-2.42-5.77-4.86s3-4.15,6.48-3.87a7.54,7.54,0,0,1,4.12,1.53,3.87,3.87,0,0,1,1.65,3.33c-.18,2.22-2.66,3.9-5.76,3.9Zm-.72-7.29c-2.28,0-4.15,1.11-4.26,2.52s1.88,3,4.38,3.24l.59,0h0c2.27,0,4.14-1.1,4.26-2.51a2.44,2.44,0,0,0-1.09-2,6,6,0,0,0-3.3-1.21l-.59,0Z"/><path class="cls-2" d="M642.09,104.63A6.2,6.2,0,1,0,648.77,99,6.2,6.2,0,0,0,642.09,104.63Z"/><path class="cls-2" d="M681.78,107.86a6.2,6.2,0,1,0,6.68-5.68A6.2,6.2,0,0,0,681.78,107.86Z"/><path class="cls-2" d="M633.05,96.29a.76.76,0,0,1-.62-1.19c10.29-14.59,23.65-7.31,23.78-7.24a.75.75,0,0,1,.29,1,.76.76,0,0,1-1,.29c-.49-.28-12.32-6.66-21.8,6.79a.78.78,0,0,1-.62.32Z"/><path class="cls-2" d="M705,102.14a.77.77,0,0,1-.68-.42c-7.2-14.85-19.88-10.43-20.42-10.23a.75.75,0,1,1-.51-1.42c.14,0,14.5-5.06,22.29,11a.77.77,0,0,1-.35,1,.78.78,0,0,1-.33.07Z"/><path class="cls-2" d="M666.86,138.48c-.51,0-1,0-1.55-.07-7-.56-12.11-4.72-11.73-9.46a1.5,1.5,0,1,1,3,.24c-.23,3,3.87,5.8,9,6.22s9.61-1.73,9.85-4.68a1.51,1.51,0,0,1,3,.24c-.36,4.38-5.31,7.51-11.55,7.51Z"/><path class="cls-11" d="M694.16,121.82a7.23,7.23,0,1,0,7.23-7.26A7.24,7.24,0,0,0,694.16,121.82Z"/><path class="cls-11" d="M624,116a7.23,7.23,0,1,0,7.22-7.25A7.24,7.24,0,0,0,624,116Z"/><path class="cls-3" d="M643.51,104.38a2.4,2.4,0,1,0,2.59-2.19A2.41,2.41,0,0,0,643.51,104.38Z"/><path class="cls-3" d="M682.54,107.56a2.4,2.4,0,1,0,2.59-2.2A2.41,2.41,0,0,0,682.54,107.56Z"/><path class="cls-27" d="M731.87,107.75c-1.71,7.1-10.24,14.42-10.24,14.42,1.32-5.7,0-13.39,0-13.39a61.88,61.88,0,0,1-3.24,9.75c.38-11.66-5-25.34-5-25.34-.66,6-4.76,18.14-4.76,18.14.53-13.2-7.22-23.91-7.22-23.91.57,4.8-2.89,8.42-2.89,8.42,0-5.28-4.34-12.4-4.34-12.4.29,4.12-8.31,12.09-8.31,12.09.9-4.26-4.09-15.48-4.09-15.48.76,3-7,11.07-7,11.07,1.69-3.4-2.76-14.39-2.76-14.39-2.71,1.71-5.37,18.8-5.37,18.8-7.43-11.2-3-25.28-3-25.28s-20.55,6.15-21.6,25.28c0,0-2.64-15.9,2.39-26.35,0,0-12.1,9.43-11.4,20.52,0,0-4.56-5.69-3.92-13,0,0-11.76,9-7.87,22.2,0,0-4.08-4.49-3.89-13.21,0,0-3.22,9.82-9.85,13.21,0,0-2.51-8.24,3.11-18.88,0,0-6.94,7.12-6.94,10,0,0-1-14.66,12.55-22.26,0,0-10.77-7-7.53-13.4,0,0,6.54,6,11.5,5.75,0,0-10.9-12.53,3.8-25.23,0,0-3.47,10.51,2.15,13.77,0,0,4.53-18.88,18.29-21.19,0,0-5.31,8.59-2.39,12.55,0,0,69.54-10.57,77,23.46,0,0,4-8.26-.7-11.56,0,0,7.53,4.17,2.91,14.14,0,0,3.1-.6,6.34,7l-3.7-.33s6.27,0,9.41,19.82L726.22,90S734.86,95.32,731.87,107.75Z"/><path class="cls-2" d="M721.63,122.93a.76.76,0,0,1-.74-.93,32.65,32.65,0,0,0,.44-9.17c-1,3-2.18,5.83-2.25,6a.75.75,0,0,1-.86.44.76.76,0,0,1-.59-.76c.28-8.3-2.47-17.76-4-22.31-1.26,6.24-4.17,14.94-4.31,15.37a.75.75,0,0,1-.85.5.74.74,0,0,1-.62-.77c.37-9.41-3.61-17.62-5.76-21.33a12.68,12.68,0,0,1-3.05,6.39.77.77,0,0,1-.83.18.76.76,0,0,1-.47-.7c0-3.45-2-7.81-3.24-10.22-1.61,4.3-7.38,9.75-8.14,10.46a.75.75,0,0,1-1.25-.7c.56-2.68-1.55-8.87-3.1-12.75-1.5,3.49-5.68,7.94-6.72,9a.75.75,0,0,1-1.21-.86c1.12-2.25-1-9-2.34-12.61-1.57,2.77-3.43,11.39-4.38,17.48A.75.75,0,0,1,666,96c-6.24-9.41-4.38-20.59-3.44-24.51-4.48,1.75-18.9,8.56-19.74,24.13a.75.75,0,0,1-.71.71.76.76,0,0,1-.79-.62c-.1-.6-2.18-13.49,1.22-23.75-3.4,3.34-9.21,10.2-8.74,17.74a.75.75,0,0,1-1.34.52,20.91,20.91,0,0,1-4.14-11.71c-2.85,2.76-9.26,10.32-6.34,20.25a.75.75,0,0,1-1.28.72c-.15-.16-3.21-3.61-3.94-10.25-1.55,3.27-4.47,8.16-8.9,10.42a.75.75,0,0,1-1.06-.46c-.09-.29-1.89-6.45,1.2-15-1.88,2.29-3.55,4.71-3.55,5.88a.76.76,0,0,1-.73.76.74.74,0,0,1-.78-.71c0-.14-.82-14.47,11.91-22.36-2.69-2-9.73-7.9-6.81-13.69a.75.75,0,0,1,1.18-.21c.06.05,5.08,4.63,9.42,5.44a18.14,18.14,0,0,1-3-11.05c.35-5,3-9.67,7.9-13.89a.77.77,0,0,1,.92-.06.74.74,0,0,1,.29.86c0,.1-2.83,8.82,1,12.29,1.21-4.14,6.29-18.61,18.6-20.68a.73.73,0,0,1,.75.32.74.74,0,0,1,0,.82c-1.34,2.18-4.31,8.28-2.65,11.34A178.37,178.37,0,0,1,665.3,37.7c21.47,0,47.83,4.11,53.92,23.31.77-2.51,1.47-6.56-1.27-8.5a.75.75,0,0,1,.8-1.27c.08,0,7.62,4.36,3.64,14.18,1.4.43,3.67,2,5.94,7.32a.75.75,0,0,1-.76,1.05l-.36,0c2.28,2.27,5.09,7.34,6.88,18.65a.73.73,0,0,1-.26.7.74.74,0,0,1-.73.13l-3.7-1.3c2.38,2.81,5.12,8,3.2,16-1.75,7.25-10.13,14.51-10.48,14.81a.72.72,0,0,1-.49.19Zm0-14.91h0a.76.76,0,0,1,.74.63,45.1,45.1,0,0,1,.38,11.44c2.52-2.47,7.2-7.6,8.39-12.51,2.82-11.73-5-16.72-5.32-16.93a.75.75,0,0,1,.65-1.35l5.93,2.09c-2.93-16.91-8.17-17.88-8.44-17.92a.85.85,0,0,1-.65-.49.58.58,0,0,1-.06-.32.72.72,0,0,1,.69-.71h.22l2.26.2c-2.51-5.23-4.7-5.39-5-5.39a.7.7,0,0,1-.75-.25.77.77,0,0,1-.1-.81c1.86-4,1.66-7,.82-9.1a17.69,17.69,0,0,1-1.66,7.17.78.78,0,0,1-.77.42.74.74,0,0,1-.64-.59c-4.45-20.18-31.31-24.41-53.06-24.41a172.34,172.34,0,0,0-23.12,1.54.74.74,0,0,1-.72-.3c-2.44-3.3.08-9.14,1.51-11.9-11.88,3.35-16,20.09-16.08,20.26a.73.73,0,0,1-.43.52.74.74,0,0,1-.68,0c-4.32-2.5-3.83-8.62-3.14-12.11-4.5,4.59-6.28,9.58-5.31,14.87a17.5,17.5,0,0,0,3.45,7.56.74.74,0,0,1,.12.79.76.76,0,0,1-.65.46c-4.21.21-9.26-3.6-11.22-5.24-1.49,5.51,7.53,11.44,7.63,11.5a.75.75,0,0,1,0,1.29A23.7,23.7,0,0,0,604.7,86a53.89,53.89,0,0,1,5.39-6.47.76.76,0,0,1,1.21.88c-4.34,8.21-3.7,15-3.27,17.37,5.71-3.58,8.59-12.19,8.63-12.28a.74.74,0,0,1,.84-.51.76.76,0,0,1,.63.76,22,22,0,0,0,1.64,9.14c-.76-11.21,8.8-18.66,8.9-18.75a.78.78,0,0,1,.83-.06.74.74,0,0,1,.38.73,18.54,18.54,0,0,0,2.46,10.41C633.31,77,643.52,69,644,68.59a.77.77,0,0,1,.94,0,.76.76,0,0,1,.21.92c-3,6.32-3.2,14.8-2.88,20.3,4.26-15,21-20.23,21.2-20.28a.75.75,0,0,1,.75.19.74.74,0,0,1,.18.76c0,.13-3.83,12.46,1.83,22.9.86-5,3-15.76,5.39-17.29a.76.76,0,0,1,.64-.08.74.74,0,0,1,.46.44c.38.93,3.11,7.82,3.19,12.32,2.73-3.12,5.51-7,5.14-8.54a.75.75,0,0,1,1.42-.49c.18.41,3.9,8.82,4.24,13.93,2.71-2.76,6.9-7.59,6.72-10.18a.76.76,0,0,1,1.4-.45c.16.27,3.47,5.74,4.27,10.75a9.9,9.9,0,0,0,1.56-6.28.76.76,0,0,1,.47-.79A.75.75,0,0,1,702,87a43.7,43.7,0,0,1,7.25,19.87c1.25-4.07,3-10.13,3.37-13.74a.76.76,0,0,1,.65-.67.73.73,0,0,1,.8.47c.2.51,4.38,11.2,5,21.79a41,41,0,0,0,1.81-6.06.75.75,0,0,1,.74-.62Z"/><path class="cls-28" d="M708,54.76c8.46,6.67,11.65,16.71,7.14,22.42s-15,4.93-23.46-1.73S680.08,58.75,684.59,53,699.6,48.1,708,54.76Z"/><path class="cls-29" d="M689.77,51.93c6.09,4.81,8.4,12,5.14,16.17S684.09,71.66,678,66.85s-8.4-12-5.15-16.16S683.68,47.13,689.77,51.93Z"/><path class="cls-30" d="M1007.86,186.94a143.28,143.28,0,0,1-9.31-28.66l-43.65,1.33a104.69,104.69,0,0,1-3.83,27.33"/><path class="cls-2" d="M1007.86,187.7a.77.77,0,0,1-.69-.44,145.46,145.46,0,0,1-9.23-28.2l-42.29,1.28a107.15,107.15,0,0,1-3.86,26.81.74.74,0,0,1-.93.51.76.76,0,0,1-.52-.93,104.45,104.45,0,0,0,3.8-27.11.76.76,0,0,1,.73-.77l43.65-1.32a.73.73,0,0,1,.77.61,144.19,144.19,0,0,0,9.25,28.49.75.75,0,0,1-.37,1,.87.87,0,0,1-.31.07Z"/><path class="cls-9" d="M994.51,158.28c.27,6.16-6.75,11.46-15.68,11.85s-16.37-4.31-16.63-10.47Z"/><path class="cls-2" d="M977.82,170.9c-8.91,0-16.11-4.92-16.38-11.21a.73.73,0,0,1,.2-.54.75.75,0,0,1,.52-.24l32.32-1.38a.71.71,0,0,1,.78.72c.15,3.23-1.52,6.33-4.69,8.72a21,21,0,0,1-11.71,3.91l-1,0ZM963,160.38c.8,5.32,7.61,9.34,15.78,9a19.6,19.6,0,0,0,10.87-3.6,9.31,9.31,0,0,0,4.08-6.7L963,160.38Z"/><path class="cls-9" d="M1041.91,113.37s14.15-20.3,19.26-6.37-7.38,34.18-20.6,22.89Z"/><path class="cls-2" d="M1048.42,133.94a12.82,12.82,0,0,1-8.34-3.48.75.75,0,0,1-.26-.64l1.34-16.51a.78.78,0,0,1,.13-.37c.33-.48,8.15-11.58,14.58-11.58,2.68,0,4.7,1.81,6,5.38,2.39,6.5,1.17,14.9-3,20.91-2.83,4-6.54,6.29-10.44,6.29Zm-7.07-4.38a11.22,11.22,0,0,0,7.07,2.87c3.4,0,6.66-2,9.21-5.65,3.92-5.61,5.06-13.46,2.83-19.52-1.08-3-2.58-4.39-4.59-4.39-5.27,0-12.24,9.4-13.22,10.77l-1.3,15.92Z"/><path class="cls-2" d="M1041.4,120.42a.75.75,0,0,1-.5-1.32c1.07-.93,10.51-9,15.39-7.28a4.17,4.17,0,0,1,2.63,3.57.75.75,0,0,1-.61.87.77.77,0,0,1-.88-.61,2.77,2.77,0,0,0-1.64-2.41c-3.45-1.22-11.19,4.64-13.89,7a.75.75,0,0,1-.5.19Z"/><path class="cls-9" d="M918.59,103.33s-10.68-22.32-18-9.4,1.76,34.93,16.62,25.92Z"/><path class="cls-2" d="M910.51,122.71h0c-4.09,0-7.72-2.36-10.22-6.64-3.9-6.69-4-15.94-.33-22.51,1.65-2.93,3.64-4.41,5.92-4.41,6.69,0,13.12,13.29,13.39,13.86a.72.72,0,0,1,.07.38L918,119.91a.76.76,0,0,1-.36.58,13.74,13.74,0,0,1-7.13,2.22Zm-4.63-32c-1.69,0-3.24,1.22-4.61,3.64-3.4,6-3.26,14.86.32,21,2.22,3.8,5.39,5.89,8.92,5.89h0a12,12,0,0,0,6-1.8l1.3-15.92c-1.82-3.74-7.25-12.82-11.94-12.82Z"/><path class="cls-2" d="M918.08,110.38a.74.74,0,0,1-.58-.27c-2.28-2.76-9-9.79-12.59-9.15-.9.16-1.56.85-2,2.11a.76.76,0,0,1-1.43-.5,4.21,4.21,0,0,1,3.17-3.1c5.12-.89,13.11,8.59,14,9.68a.76.76,0,0,1-.1,1.06.72.72,0,0,1-.48.17Z"/><path class="cls-9" d="M1049,111.05c3.06-37.62-25.18-70.62-63.07-73.71s-71.1,24.92-74.16,62.54,26.2,58,64.1,61.08S1045.93,148.67,1049,111.05Z"/><path class="cls-2" d="M985.14,162.1h0c-3,0-6.19-.13-9.34-.39-42.79-3.48-67.62-27.2-64.8-61.89,2.9-35.59,33.3-63.46,69.21-63.46,1.91,0,3.85.08,5.77.23,38.25,3.11,66.85,36.54,63.76,74.52-2.59,31.93-26.75,51-64.6,51ZM980.21,37.87c-35.13,0-64.87,27.26-67.7,62.07-3.29,40.36,30.6,57.6,63.41,60.27,3.11.25,6.22.38,9.22.38,37,0,60.57-18.54,63.1-49.6,3-37.15-25-69.85-62.39-72.89-1.87-.16-3.77-.23-5.64-.23Z"/><path class="cls-9" d="M973.36,114.42c-.2,2.35,2.48,4.48,6,4.77s6.47-1.39,6.66-3.74-2.48-4.48-6-4.77S973.54,112.07,973.36,114.42Z"/><path class="cls-2" d="M980.09,120h0l-.83,0a8.87,8.87,0,0,1-4.77-1.77,4.45,4.45,0,0,1-1.89-3.81c.22-2.74,3.52-4.74,7.48-4.43s6.89,2.77,6.66,5.58c-.2,2.55-3.06,4.46-6.65,4.46Zm-.84-8.57c-2.75,0-5,1.36-5.14,3.08a3,3,0,0,0,1.32,2.51,7.36,7.36,0,0,0,4,1.45c3,.26,5.7-1.18,5.85-3s-2.27-3.71-5.28-4a5.74,5.74,0,0,0-.71,0Z"/><path class="cls-2" d="M950.8,94.29a7.3,7.3,0,1,0,7.87-6.68A7.3,7.3,0,0,0,950.8,94.29Z"/><path class="cls-2" d="M997.5,98.09a7.3,7.3,0,1,0,7.87-6.68A7.3,7.3,0,0,0,997.5,98.09Z"/><path class="cls-2" d="M940.17,84.35a.76.76,0,0,1-.61-1.19c12-17.06,27.64-8.56,27.8-8.48a.76.76,0,0,1-.74,1.32c-.59-.33-14.6-7.9-25.83,8a.75.75,0,0,1-.62.32Z"/><path class="cls-2" d="M1024.81,91.23a.75.75,0,0,1-.68-.42c-8.51-17.53-23.55-12.33-24.19-12.1a.75.75,0,0,1-.51-1.42c.16-.06,16.94-5.92,26.06,12.86a.76.76,0,0,1-.35,1,.78.78,0,0,1-.33.07Z"/><path class="cls-2" d="M980,133.92c-.6,0-1.2,0-1.82-.07a18.68,18.68,0,0,1-9.7-3.45c-2.75-2.08-4.14-4.73-3.91-7.47a1.58,1.58,0,0,1,3.15.25c-.14,1.63.81,3.3,2.66,4.7a15.67,15.67,0,0,0,8.06,2.82c6.09.49,11.51-2.11,11.8-5.68a1.58,1.58,0,1,1,3.15.26c-.41,5-6.15,8.64-13.39,8.64Z"/><path class="cls-11" d="M927.85,116.8a9.38,9.38,0,1,0,9.38-9.42A9.4,9.4,0,0,0,927.85,116.8Z"/><path class="cls-11" d="M1010.65,124.51a9.39,9.39,0,1,0,9.38-9.42A9.4,9.4,0,0,0,1010.65,124.51Z"/><path class="cls-3" d="M952.48,94a2.82,2.82,0,1,0,3-2.59A2.82,2.82,0,0,0,952.48,94Z"/><path class="cls-3" d="M998.4,97.74a2.82,2.82,0,1,0,3-2.58A2.83,2.83,0,0,0,998.4,97.74Z"/><path class="cls-31" d="M1049,111.05s16.92-56.71-31.32-73.94c0,0-19.83-25-52.3-17.15s-70,36.46-53.83,73c0,0,1.64-11.49,7.05-17.7,0,0-1.61,14.76,2.6,20.91,0,0,16.87-45.37,61.36-48.18,0,0,0,18.82,9.21,35.81,0,0-5.3-26.88,0-32.28,0,0,31.52,47.73,49.64,50.08a27.74,27.74,0,0,1-10.14-17.8S1048.31,89,1049,111.05Z"/><path class="cls-2" d="M1049,111.81h-.1a.76.76,0,0,1-.65-.73c-.56-18.13-12.25-24.52-16-26.12a27.43,27.43,0,0,0,9.65,16,.75.75,0,0,1,.26.89.78.78,0,0,1-.8.47c-17.09-2.22-45-42.8-49.58-49.54-3.25,5.46-.6,23.85.78,30.84a.75.75,0,0,1-1.4.51c-8.13-15-9.16-31.56-9.29-35.36C938.89,52,922.07,96,921.9,96.42a.75.75,0,0,1-.61.49.77.77,0,0,1-.72-.32c-3.27-4.77-3.19-14.22-2.93-18.81-4,6.16-5.34,15.17-5.36,15.27a.75.75,0,0,1-1.43.2c-5.43-12.23-5.31-24.27.36-35.8,10.37-21.06,35.56-33.75,54-38.23a54.14,54.14,0,0,1,12.71-1.55c23.76,0,38.63,16.9,40.22,18.8,48.12,17.36,31.76,74.22,31.59,74.8a.75.75,0,0,1-.72.54ZM1031.26,83a.85.85,0,0,1,.22,0c.16.05,15.07,4.84,17.84,23.23,2.72-13.69,7.17-54.52-31.9-68.48a.81.81,0,0,1-.34-.24c-.14-.18-14.88-18.4-39.18-18.4a52.68,52.68,0,0,0-12.35,1.51c-18.11,4.4-42.85,16.84-53,37.43a38.66,38.66,0,0,0-1.31,32.18c.81-3.8,2.78-11,6.76-15.54a.76.76,0,0,1,.87-.2.77.77,0,0,1,.45.78c0,.13-1.33,12.68,1.74,19.11,3.39-7.81,21.48-44.7,61.42-47.22a.74.74,0,0,1,.56.2.72.72,0,0,1,.24.55,86,86,0,0,0,6.83,30.77c-1.26-8.21-3-23.62,1.09-27.77a.78.78,0,0,1,.62-.22.73.73,0,0,1,.55.33c.3.45,28.31,42.62,46.2,49a28.05,28.05,0,0,1-8.08-16.23.78.78,0,0,1,.26-.67.8.8,0,0,1,.49-.18Z"/><path class="cls-32" d="M960.1,23.92c10.36-1.82,19.76,2.39,21,9.39s-6.17,14.16-16.54,16-19.76-2.39-21-9.4S949.73,25.73,960.1,23.92Z"/><path class="cls-33" d="M946.13,35.4c7.48-1.31,14.25,1.72,15.14,6.77s-4.46,10.22-11.93,11.52S935.08,52,934.2,46.92,938.65,36.7,946.13,35.4Z"/><path class="cls-31" d="M1033.73,54c-.23-11.2,16.06-15.42,16.06-15.42-9.79-13-32.12-1.47-32.12-1.47s12.08-21.53-5.43-30.34V23.49a19.76,19.76,0,0,0-17.86-12.71l4,19.61"/><path class="cls-2" d="M1033.73,54.75A.74.74,0,0,1,1033,54c-.21-10,11.73-14.64,15.51-15.84-9.63-11-30.26-.51-30.47-.4a.75.75,0,0,1-.89-.15.74.74,0,0,1-.11-.89c.06-.11,6-10.88,3.21-20A15.06,15.06,0,0,0,1013,8V23.49a.76.76,0,0,1-.64.75.75.75,0,0,1-.83-.52A18.82,18.82,0,0,0,995.32,11.6l3.81,18.63a.75.75,0,0,1-.59.89.74.74,0,0,1-.89-.58l-4-19.61a.74.74,0,0,1,.17-.65.8.8,0,0,1,.61-.26,20.55,20.55,0,0,1,17.07,10.19V6.77a.76.76,0,0,1,.36-.64.73.73,0,0,1,.73,0c4.68,2.35,7.74,5.8,9.1,10.25,2.26,7.39-.71,15.5-2.37,19.16,5.79-2.54,22.66-8.59,31.08,2.62a.76.76,0,0,1,.11.7.74.74,0,0,1-.52.48c-.16,0-15.71,4.2-15.49,14.67a.75.75,0,0,1-.74.77Z"/><path class="cls-20" d="M493.89,180.73s-5.88,14,3.24,15.7S510,185.13,510,185.13l3.17-12.91-10.58-3.88A42,42,0,0,0,493.89,180.73Z"/><path class="cls-2" d="M498.73,197.34h0a10.43,10.43,0,0,1-1.74-.16,6.41,6.41,0,0,1-4.73-3.25c-2.63-4.86.79-13.14.93-13.49a42.89,42.89,0,0,1,8.91-12.67.77.77,0,0,1,.77-.14l10.58,3.88a.76.76,0,0,1,.48.89l-3.18,12.91c-.15.52-3.58,12-12,12Zm4.06-28.13a42.76,42.76,0,0,0-8.22,11.84s-3.27,7.93-1,12.16a4.87,4.87,0,0,0,3.68,2.48,8.11,8.11,0,0,0,1.46.14c7.3,0,10.54-10.81,10.57-10.91l3-12.22-9.51-3.49Z"/><path class="cls-9" d="M502.61,168.34s-.16-2.89-5.48-5,.37-9.42,5.48-6.07,16.06,5.17,10.58,14.94Z"/><path class="cls-2" d="M513.19,173a.82.82,0,0,1-.26,0L502.35,169a.74.74,0,0,1-.5-.66s-.28-2.47-5-4.32a3.58,3.58,0,0,1-2.54-4.09,5.67,5.67,0,0,1,8.71-3.32,32.94,32.94,0,0,0,3.79,2c3.4,1.62,7.25,3.45,8.34,6.85.65,2,.23,4.37-1.3,7.1a.76.76,0,0,1-.66.38Zm-9.93-5.2,9.58,3.52c1.06-2.09,1.35-3.85.87-5.35-.88-2.77-4.27-4.38-7.55-5.94a34,34,0,0,1-4-2.09,4.26,4.26,0,0,0-2.35-.74,4.21,4.21,0,0,0-4,3.08c-.21,1.08.35,1.91,1.62,2.4,4.41,1.74,5.56,4.09,5.85,5.12Z"/><path class="cls-20" d="M555.66,180.73s5.88,14-3.24,15.7-12.89-11.3-12.89-11.3l-3.18-12.91,10.59-3.88A42,42,0,0,1,555.66,180.73Z"/><path class="cls-2" d="M550.82,197.34c-8.44,0-11.87-11.51-12-12l-3.18-12.94a.75.75,0,0,1,.48-.89l10.58-3.88a.75.75,0,0,1,.76.14,42.45,42.45,0,0,1,8.9,12.64c.16.38,3.58,8.66.94,13.52a6.37,6.37,0,0,1-4.73,3.25,10.22,10.22,0,0,1-1.73.16ZM537.25,172.7l3,12.25c0,.07,3.25,10.88,10.56,10.88a8.19,8.19,0,0,0,1.46-.14,4.87,4.87,0,0,0,3.68-2.48c2.29-4.23-1-12.11-1-12.19a42.47,42.47,0,0,0-8.2-11.81l-9.51,3.49Z"/><path class="cls-9" d="M546.94,168.34s.16-2.89,5.48-5-.37-9.42-5.48-6.07-16.06,5.17-10.59,14.94Z"/><path class="cls-2" d="M536.35,173a.74.74,0,0,1-.65-.38c-1.53-2.73-2-5.05-1.3-7.11,1.08-3.39,4.94-5.22,8.34-6.84a33.8,33.8,0,0,0,3.79-2,5.67,5.67,0,0,1,8.71,3.32c.34,1.8-.61,3.32-2.55,4.09-4.74,1.86-5,4.29-5,4.32a.73.73,0,0,1-.49.66l-10.59,3.89a.75.75,0,0,1-.26,0Zm13.36-15.8a4.29,4.29,0,0,0-2.36.74,33.77,33.77,0,0,1-4,2.09c-3.28,1.56-6.67,3.17-7.55,5.94-.48,1.5-.2,3.26.87,5.35l9.58-3.52c.29-1,1.43-3.38,5.85-5.12,1.26-.49,1.82-1.32,1.62-2.4a4.22,4.22,0,0,0-4-3.08Z"/><path class="cls-26" d="M626,178.31s-6.79,16.19,3.73,18.12,14.88-13,14.88-13l3.66-14.9L636.08,164A48.33,48.33,0,0,0,626,178.31Z"/><path class="cls-2" d="M631.61,197.36h0a11.13,11.13,0,0,1-2-.18,7.25,7.25,0,0,1-5.38-3.69c-3-5.56.91-15.07,1.08-15.47a48.64,48.64,0,0,1,10.25-14.57.76.76,0,0,1,.76-.15l12.22,4.48a.76.76,0,0,1,.47.89l-3.66,14.9c-.17.59-4.11,13.79-13.76,13.79Zm4.65-32.48a49.74,49.74,0,0,0-9.55,13.75c0,.07-3.8,9.21-1.13,14.15a5.75,5.75,0,0,0,4.32,2.91,9.15,9.15,0,0,0,1.71.16c8.51,0,12.27-12.55,12.31-12.67L647.41,169l-11.15-4.09Z"/><path class="cls-9" d="M636.08,164s-.17-3.33-6.32-5.75.43-10.87,6.32-7,18.54,6,12.22,17.23Z"/><path class="cls-2" d="M648.3,169.25a.75.75,0,0,1-.26-.05l-12.22-4.48a.77.77,0,0,1-.49-.67s-.32-2.91-5.84-5.09c-2.18-.85-3.25-2.57-2.87-4.58a6.44,6.44,0,0,1,9.88-3.75,40.82,40.82,0,0,0,4.38,2.3c3.9,1.85,8.33,3.95,9.56,7.83.75,2.33.26,5-1.48,8.1a.77.77,0,0,1-.66.39Zm-11.56-5.8L648,167.56c1.28-2.48,1.63-4.56,1.06-6.35-1-3.25-5-5.11-8.78-6.92a40.06,40.06,0,0,1-4.56-2.4,4.93,4.93,0,0,0-7.57,2.77c-.24,1.3.42,2.3,1.94,2.9,5.15,2,6.4,4.76,6.7,5.89Z"/><path class="cls-26" d="M697.45,178.31s6.78,16.19-3.74,18.12-14.88-13-14.88-13l-3.66-14.9L687.38,164A48.37,48.37,0,0,1,697.45,178.31Z"/><path class="cls-2" d="M691.86,197.36c-9.65,0-13.59-13.2-13.75-13.76l-3.67-14.93a.76.76,0,0,1,.47-.89l12.22-4.48a.76.76,0,0,1,.76.15A48.81,48.81,0,0,1,698.13,178c.18.43,4.1,9.94,1.09,15.5a7.23,7.23,0,0,1-5.38,3.69,11.13,11.13,0,0,1-2,.18ZM676.07,169l3.49,14.24c0,.09,3.79,12.64,12.3,12.64a9.15,9.15,0,0,0,1.71-.16,5.72,5.72,0,0,0,4.32-2.92c2.68-4.93-1.1-14.07-1.14-14.17a49.44,49.44,0,0,0-9.54-13.72L676.07,169Z"/><path class="cls-9" d="M687.38,164s.18-3.33,6.33-5.75-.43-10.87-6.33-7-18.53,6-12.21,17.23Z"/><path class="cls-2" d="M675.17,169.25a.75.75,0,0,1-.65-.39c-1.75-3.11-2.24-5.77-1.49-8.1,1.23-3.88,5.66-6,9.56-7.83a41.79,41.79,0,0,0,4.38-2.3,6.44,6.44,0,0,1,9.88,3.75c.38,2-.69,3.73-2.87,4.58-5.53,2.18-5.84,5.07-5.84,5.1a.79.79,0,0,1-.5.66l-12.21,4.48a.75.75,0,0,1-.26.05ZM690.58,151a5,5,0,0,0-2.78.88,40.06,40.06,0,0,1-4.56,2.4c-3.81,1.81-7.74,3.67-8.78,6.92-.56,1.79-.22,3.87,1.07,6.35l11.2-4.11c.3-1.13,1.55-3.86,6.7-5.89,1.52-.6,2.18-1.6,1.94-2.9a5,5,0,0,0-4.79-3.65Z"/><path class="cls-15" d="M773.47,177.22s-9,21.42,4.95,24,19.69-17.27,19.69-17.27L803,164.21l-16.17-5.93A64,64,0,0,0,773.47,177.22Z"/><path class="cls-2" d="M780.87,202.18h0a14.32,14.32,0,0,1-2.58-.24,9.34,9.34,0,0,1-6.94-4.75c-3.94-7.27,1.22-19.74,1.44-20.27a64.08,64.08,0,0,1,13.51-19.2.75.75,0,0,1,.76-.15l16.17,5.94a.75.75,0,0,1,.47.88l-4.85,19.72c-.22.77-5.38,18.07-18,18.07Zm6.1-43a65.31,65.31,0,0,0-12.82,18.39c0,.09-5.07,12.3-1.49,18.93a8,8,0,0,0,5.9,4,13,13,0,0,0,2.3.21c11.46,0,16.48-16.78,16.53-16.95l4.67-19L787,159.15Z"/><path class="cls-9" d="M786.79,158.28s-.24-4.41-8.37-7.61.56-14.39,8.37-9.27,24.53,7.9,16.17,22.81Z"/><path class="cls-2" d="M803,165a.75.75,0,0,1-.26-.05L786.53,159a.75.75,0,0,1-.49-.67s-.4-4-7.9-6.94c-2.76-1.09-4.12-3.26-3.64-5.8a8.29,8.29,0,0,1,12.7-4.81,49.66,49.66,0,0,0,5.83,3.06c5.13,2.43,10.93,5.19,12.53,10.22,1,3,.33,6.47-1.95,10.53a.73.73,0,0,1-.65.39Zm-15.5-7.25,15.15,5.56c1.81-3.43,2.3-6.3,1.52-8.78-1.4-4.4-6.66-6.89-11.74-9.31a50.09,50.09,0,0,1-6-3.16A6.77,6.77,0,0,0,776,145.86c-.35,1.83.62,3.28,2.72,4.11,6.95,2.74,8.44,6.41,8.76,7.75Z"/><path class="cls-15" d="M867.82,177.22s9,21.42-5,24-19.69-17.27-19.69-17.27l-4.84-19.72,16.17-5.93A64.11,64.11,0,0,1,867.82,177.22Z"/><path class="cls-2" d="M860.43,202.18c-12.59,0-17.76-17.3-18-18l-4.85-19.75a.75.75,0,0,1,.47-.88l16.17-5.94a.76.76,0,0,1,.76.15,64.13,64.13,0,0,1,13.49,19.17c.24.56,5.39,13,1.46,20.3a9.37,9.37,0,0,1-7,4.75,14.32,14.32,0,0,1-2.58.24Zm-21.2-37.49,4.69,19.06c0,.14,5.05,16.92,16.51,16.92a13.14,13.14,0,0,0,2.31-.21,7.94,7.94,0,0,0,5.89-4c3.59-6.63-1.45-18.84-1.5-19a65.07,65.07,0,0,0-12.8-18.36l-15.1,5.54Z"/><path class="cls-9" d="M854.51,158.28s.23-4.41,8.36-7.61-.56-14.39-8.36-9.27-24.53,7.9-16.17,22.81Z"/><path class="cls-2" d="M838.34,165a.75.75,0,0,1-.66-.39c-2.28-4.06-2.91-7.51-1.95-10.53,1.6-5,7.41-7.79,12.53-10.22a49.66,49.66,0,0,0,5.83-3.06,8.3,8.3,0,0,1,12.71,4.81c.48,2.54-.89,4.71-3.65,5.8-7.59,3-7.89,6.9-7.89,6.94a.76.76,0,0,1-.49.67l-16.17,5.93a.8.8,0,0,1-.26.05Zm20.4-24.14a6.91,6.91,0,0,0-3.82,1.2,49.91,49.91,0,0,1-6,3.16c-5.08,2.42-10.34,4.91-11.74,9.31-.79,2.48-.29,5.35,1.52,8.78l15.15-5.56c.32-1.34,1.81-5,8.76-7.75,2.1-.83,3.06-2.28,2.71-4.11a6.85,6.85,0,0,0-6.57-5Z"/><path class="cls-8" d="M315.34,177.22s-9,21.42,5,24S340,183.93,340,183.93l4.84-19.72-16.17-5.93A64.11,64.11,0,0,0,315.34,177.22Z"/><path class="cls-2" d="M322.73,202.18h0a14.24,14.24,0,0,1-2.58-.24,9.37,9.37,0,0,1-6.95-4.75c-3.93-7.27,1.22-19.74,1.44-20.27a64.28,64.28,0,0,1,13.51-19.2.76.76,0,0,1,.76-.15l16.17,5.94a.75.75,0,0,1,.48.88l-4.85,19.72c-.22.77-5.39,18.07-18,18.07Zm6.1-43A65.37,65.37,0,0,0,316,177.54c0,.09-5.08,12.3-1.49,18.93a7.94,7.94,0,0,0,5.89,4,13.14,13.14,0,0,0,2.31.21c11.46,0,16.47-16.78,16.52-16.95l4.68-19-15.1-5.54Z"/><path class="cls-9" d="M328.65,158.28s-.23-4.41-8.36-7.61.56-14.39,8.36-9.27,24.53,7.9,16.17,22.81Z"/><path class="cls-2" d="M344.82,165a.85.85,0,0,1-.26-.05L328.39,159a.76.76,0,0,1-.49-.67s-.4-4-7.89-6.94c-2.77-1.09-4.13-3.26-3.65-5.8a8.3,8.3,0,0,1,12.71-4.81,49.66,49.66,0,0,0,5.83,3.06c5.12,2.43,10.93,5.19,12.53,10.22,1,3,.33,6.47-1.95,10.53a.75.75,0,0,1-.66.39Zm-15.5-7.25,15.15,5.56c1.81-3.43,2.31-6.3,1.52-8.78-1.4-4.4-6.66-6.89-11.74-9.31a49.91,49.91,0,0,1-6-3.16,6.94,6.94,0,0,0-3.82-1.2,6.85,6.85,0,0,0-6.57,5c-.35,1.83.61,3.28,2.71,4.11,6.95,2.74,8.44,6.41,8.76,7.75Z"/><path class="cls-8" d="M409.69,177.22s9,21.42-4.95,24-19.69-17.27-19.69-17.27l-4.85-19.72,16.17-5.93A64,64,0,0,1,409.69,177.22Z"/><path class="cls-2" d="M402.29,202.18c-12.59,0-17.75-17.3-18-18l-4.85-19.75a.75.75,0,0,1,.47-.88l16.17-5.94a.75.75,0,0,1,.76.15,64.05,64.05,0,0,1,13.5,19.17c.23.56,5.39,13,1.45,20.3a9.34,9.34,0,0,1-6.95,4.75,14.16,14.16,0,0,1-2.58.24ZM381.1,164.69l4.68,19.06c0,.14,5.06,16.92,16.51,16.92a13.06,13.06,0,0,0,2.31-.21,8,8,0,0,0,5.9-4c3.59-6.63-1.46-18.84-1.51-19a65.07,65.07,0,0,0-12.8-18.36l-15.09,5.54Z"/><path class="cls-9" d="M396.37,158.28s.24-4.41,8.37-7.61-.56-14.39-8.37-9.27-24.53,7.9-16.17,22.81Z"/><path class="cls-2" d="M380.2,165a.73.73,0,0,1-.65-.39c-2.28-4.06-2.92-7.51-1.95-10.53,1.6-5,7.4-7.79,12.53-10.22a49.66,49.66,0,0,0,5.83-3.06,8.29,8.29,0,0,1,12.7,4.81c.48,2.54-.88,4.71-3.65,5.8-7.59,3-7.88,6.9-7.89,6.94a.75.75,0,0,1-.49.67l-16.17,5.93a.75.75,0,0,1-.26.05Zm20.4-24.14a7,7,0,0,0-3.82,1.2,49.17,49.17,0,0,1-6,3.16c-5.08,2.42-10.33,4.91-11.74,9.31-.78,2.48-.29,5.35,1.53,8.78l15.14-5.56c.32-1.34,1.81-5,8.76-7.75,2.1-.83,3.06-2.28,2.72-4.11a6.85,6.85,0,0,0-6.58-5Z"/><path class="cls-14" d="M151.06,177.22s-9,21.42,4.95,24,19.69-17.27,19.69-17.27l4.84-19.72-16.16-5.93A64,64,0,0,0,151.06,177.22Z"/><path class="cls-2" d="M158.45,202.18h0a14.32,14.32,0,0,1-2.58-.24,9.34,9.34,0,0,1-6.94-4.75c-3.94-7.27,1.21-19.74,1.43-20.27a64.49,64.49,0,0,1,13.51-19.2.77.77,0,0,1,.77-.15l16.16,5.94a.75.75,0,0,1,.48.88l-4.85,19.72c-.22.77-5.38,18.07-18,18.07Zm6.1-43a65.59,65.59,0,0,0-12.81,18.39c0,.09-5.08,12.3-1.49,18.93a7.94,7.94,0,0,0,5.9,4,13,13,0,0,0,2.3.21c11.46,0,16.48-16.78,16.53-16.95l4.67-19-15.1-5.54Z"/><path class="cls-9" d="M164.38,158.28s-.24-4.41-8.37-7.61.56-14.39,8.37-9.27,24.53,7.9,16.16,22.81Z"/><path class="cls-2" d="M180.54,165a.74.74,0,0,1-.25-.05L164.12,159a.76.76,0,0,1-.5-.67s-.39-4-7.89-6.94c-2.76-1.09-4.12-3.26-3.64-5.8a8.29,8.29,0,0,1,12.7-4.81,49.66,49.66,0,0,0,5.83,3.06c5.13,2.43,10.93,5.19,12.53,10.22,1,3,.33,6.47-2,10.53a.74.74,0,0,1-.66.39Zm-15.49-7.25,15.14,5.56c1.82-3.43,2.31-6.3,1.53-8.78-1.41-4.4-6.66-6.89-11.75-9.31a50.68,50.68,0,0,1-6-3.16,6.77,6.77,0,0,0-10.39,3.83c-.35,1.83.62,3.28,2.72,4.11,7,2.74,8.44,6.41,8.76,7.75Z"/><path class="cls-14" d="M245.41,177.22s9,21.42-4.95,24-19.69-17.27-19.69-17.27l-4.84-19.72,16.17-5.93A64.11,64.11,0,0,1,245.41,177.22Z"/><path class="cls-2" d="M238,202.18c-12.59,0-17.76-17.3-18-18l-4.85-19.75a.74.74,0,0,1,.47-.88l16.17-5.94a.76.76,0,0,1,.76.15,64.33,64.33,0,0,1,13.49,19.17c.24.56,5.39,13,1.46,20.3a9.37,9.37,0,0,1-7,4.75,14.32,14.32,0,0,1-2.58.24Zm-21.2-37.49,4.68,19.06c0,.14,5.06,16.92,16.52,16.92a13.14,13.14,0,0,0,2.31-.21,7.94,7.94,0,0,0,5.89-4c3.59-6.63-1.45-18.84-1.5-19a65.07,65.07,0,0,0-12.8-18.36l-15.1,5.54Z"/><path class="cls-9" d="M232.1,158.28s.23-4.41,8.36-7.61-.56-14.39-8.36-9.27-24.53,7.9-16.17,22.81Z"/><path class="cls-2" d="M215.93,165a.75.75,0,0,1-.66-.39c-2.28-4.06-2.91-7.51-2-10.53,1.6-5,7.41-7.79,12.53-10.22a49.66,49.66,0,0,0,5.83-3.06,8.29,8.29,0,0,1,12.7,4.81c.49,2.54-.88,4.71-3.64,5.8-7.49,2.94-7.89,6.91-7.89,7a.77.77,0,0,1-.5.66l-16.16,5.93a.85.85,0,0,1-.26.05Zm20.39-24.14a6.91,6.91,0,0,0-3.81,1.2,49.91,49.91,0,0,1-6,3.16c-5.08,2.42-10.34,4.91-11.74,9.31-.79,2.48-.29,5.35,1.52,8.78l15.15-5.56c.32-1.34,1.81-5,8.76-7.75,2.09-.83,3.06-2.28,2.71-4.11a6.85,6.85,0,0,0-6.58-5Z"/><path class="cls-30" d="M931.2,178.73s-9,21.42,4.95,24,19.69-17.27,19.69-17.27l4.84-19.71-16.16-5.94A64.19,64.19,0,0,0,931.2,178.73Z"/><path class="cls-2" d="M938.59,203.69h0a14.32,14.32,0,0,1-2.58-.24,9.37,9.37,0,0,1-7-4.75c-3.93-7.26,1.22-19.74,1.44-20.26A64.62,64.62,0,0,1,944,159.23a.77.77,0,0,1,.77-.14L960.94,165a.76.76,0,0,1,.48.89l-4.85,19.71c-.22.77-5.38,18.07-18,18.07Zm6.1-43a65.76,65.76,0,0,0-12.81,18.39c0,.09-5.08,12.31-1.49,18.94a8,8,0,0,0,5.89,4,13.17,13.17,0,0,0,2.31.22c11.46,0,16.48-16.79,16.53-17l4.67-19-15.1-5.54Z"/><path class="cls-9" d="M944.52,159.79s-.24-4.41-8.37-7.6.56-14.39,8.37-9.28,24.53,7.9,16.16,22.82Z"/><path class="cls-2" d="M960.68,166.48a.82.82,0,0,1-.26,0l-16.16-5.94a.74.74,0,0,1-.5-.66s-.39-4-7.89-7c-2.76-1.09-4.12-3.26-3.64-5.8a8.29,8.29,0,0,1,12.7-4.81,49.66,49.66,0,0,0,5.83,3.06c5.12,2.44,10.93,5.19,12.53,10.22,1,3,.33,6.47-1.95,10.54a.75.75,0,0,1-.66.38Zm-15.5-7.24,15.15,5.55c1.81-3.42,2.31-6.3,1.52-8.77-1.4-4.41-6.65-6.9-11.74-9.31a52.18,52.18,0,0,1-6-3.17,6.79,6.79,0,0,0-10.39,3.83c-.35,1.83.62,3.29,2.72,4.11,6.94,2.74,8.44,6.41,8.75,7.76Z"/><path class="cls-30" d="M1028.84,178.73s9,21.42-4.95,24-19.69-17.27-19.69-17.27l-4.85-19.71,16.17-5.94A64.19,64.19,0,0,1,1028.84,178.73Z"/><path class="cls-2" d="M1021.44,203.69c-12.59,0-17.75-17.3-18-18l-4.85-19.74a.75.75,0,0,1,.47-.89l16.17-5.93a.75.75,0,0,1,.76.14,64.19,64.19,0,0,1,13.5,19.18c.23.55,5.38,13,1.45,20.29a9.34,9.34,0,0,1-7,4.75,14.16,14.16,0,0,1-2.58.24Zm-21.19-37.49,4.68,19.06c0,.14,5.06,16.93,16.51,16.93a13.08,13.08,0,0,0,2.31-.22,8,8,0,0,0,5.9-4c3.59-6.63-1.46-18.84-1.51-19a65.41,65.41,0,0,0-12.8-18.36l-15.09,5.54Z"/><path class="cls-9" d="M1015.52,159.79s.24-4.41,8.37-7.6-.56-14.39-8.37-9.28-24.53,7.9-16.17,22.82Z"/><path class="cls-2" d="M999.35,166.48a.74.74,0,0,1-.65-.38c-2.28-4.07-2.92-7.51-2-10.54,1.6-5,7.4-7.79,12.53-10.22a50.47,50.47,0,0,0,5.83-3.06,8.29,8.29,0,0,1,12.7,4.81c.48,2.54-.88,4.71-3.65,5.8-7.49,3-7.88,6.91-7.89,7a.75.75,0,0,1-.49.66l-16.17,5.94a.75.75,0,0,1-.26,0Zm20.4-24.13a7,7,0,0,0-3.82,1.19,50.58,50.58,0,0,1-6,3.17c-5.08,2.41-10.33,4.9-11.74,9.31-.78,2.47-.29,5.35,1.52,8.77l15.15-5.55c.32-1.35,1.81-5,8.76-7.76,2.1-.82,3.06-2.28,2.72-4.11a6.86,6.86,0,0,0-6.58-5Z"/><path class="cls-4" d="M103.42,113.49c-7.6-2.2-16.93,3.74-22.09,7.73a42.48,42.48,0,0,0-49,.15c-5.12-4-14.6-10.11-22.3-7.88,0,0-7.35,23.08,5.93,31.86A41.35,41.35,0,0,0,14.7,157c.87,23.14,22,26.12,45.35,25.24S100,177,99.1,153.83a41.59,41.59,0,0,0-1.26-8.72C110.64,136.16,103.42,113.49,103.42,113.49Z"/><path class="cls-2" d="M53.49,183.18h0c-18,0-38.71-3-39.58-26.13A42.12,42.12,0,0,1,15,145.7c-13-9.21-6.09-31.49-5.78-32.45a.77.77,0,0,1,.53-.51,13.22,13.22,0,0,1,3.72-.51c6.69,0,13.84,4.35,18.82,8.16a43.27,43.27,0,0,1,49-.15c4.93-3.74,12-8,18.62-8a13.22,13.22,0,0,1,3.72.51.77.77,0,0,1,.53.51c.3.94,7.09,22.82-5.44,32.19a42.93,42.93,0,0,1,1.16,8.36c.42,11.1-3.13,18.72-10.85,23.27-6.2,3.66-14.86,5.45-29,6-2.37.09-4.52.13-6.59.13Zm-42.88-69c-.88,3.09-5.94,22.83,5.73,30.55a.8.8,0,0,1,.34.85A40.64,40.64,0,0,0,15.49,157c.64,17,12.36,24.61,38,24.61h0c2,0,4.19,0,6.53-.13,13.82-.52,22.26-2.24,28.22-5.76,7.27-4.29,10.47-11.23,10.07-21.85a40.84,40.84,0,0,0-1.24-8.56.8.8,0,0,1,.32-.84c11.25-7.87,6.27-27.26,5.4-30.32a12.2,12.2,0,0,0-2.87-.33c-6.72,0-14.23,5-18.11,8a.8.8,0,0,1-.94,0,41.64,41.64,0,0,0-48.13.16.8.8,0,0,1-1,0c-3.92-3.06-11.52-8.19-18.31-8.19a12.13,12.13,0,0,0-2.87.33Z"/><path class="cls-6" d="M63.07,162.21c.07,1.87-2.13,3.48-4.92,3.59S53,164.47,53,162.59s2.13-3.48,4.92-3.59S63,160.33,63.07,162.21Z"/><path class="cls-2" d="M57.85,166.56c-3.08,0-5.56-1.73-5.64-3.94a3.67,3.67,0,0,1,1.69-3.1,7.22,7.22,0,0,1,4-1.27h.33c3.08,0,5.56,1.73,5.64,3.94s-2.39,4.25-5.64,4.37Zm.33-6.81h-.27a5.75,5.75,0,0,0-3.12,1,2.23,2.23,0,0,0-1.07,1.83c.05,1.37,1.9,2.48,4.13,2.48h.27c2.33-.09,4.25-1.38,4.19-2.82s-1.9-2.48-4.13-2.48Z"/><path class="cls-2" d="M81.43,154.06a5.82,5.82,0,1,1-6.05-5.59A5.82,5.82,0,0,1,81.43,154.06Z"/><path class="cls-2" d="M44.07,155.51a5.82,5.82,0,1,1-6-5.6A5.82,5.82,0,0,1,44.07,155.51Z"/><path class="cls-7" d="M36,169.45a5.65,5.65,0,1,1-5.4-5.9A5.66,5.66,0,0,1,36,169.45Z"/><path class="cls-7" d="M90.88,167.27a5.64,5.64,0,1,1-5.39-5.91A5.66,5.66,0,0,1,90.88,167.27Z"/><path class="cls-3" d="M80.1,153.78a2.26,2.26,0,1,1-2.34-2.17A2.25,2.25,0,0,1,80.1,153.78Z"/><path class="cls-3" d="M43.37,155.2A2.25,2.25,0,1,1,41,153,2.25,2.25,0,0,1,43.37,155.2Z"/><path class="cls-2" d="M53.78,174.6A5.83,5.83,0,0,1,48,169a1.5,1.5,0,0,1,1.44-1.57A1.53,1.53,0,0,1,51,168.88a2.82,2.82,0,1,0,5.64-.24v-.06a1.51,1.51,0,0,1,3-.07,2.82,2.82,0,0,0,.92,2,2.82,2.82,0,0,0,4.72-2.19,1.51,1.51,0,1,1,3-.13,5.85,5.85,0,0,1-9.79,4.55l-.21-.21a2,2,0,0,1-.19.22A5.82,5.82,0,0,1,54,174.6Z"/><path class="cls-6" d="M96.15,139.92c8.58-5.71,3.82-20.66,3.82-20.66-5.06-1.47-11.3,2.62-14.58,5.2A42,42,0,0,1,96.15,139.92Z"/><path class="cls-6" d="M17.75,139.73a42.17,42.17,0,0,1,10.84-15.4c-3.33-2.59-9.44-6.51-14.41-5.07C14.18,119.26,9.52,133.9,17.75,139.73Z"/><path class="cls-4" d="M20.77,185.7s11.84-13,21.21-4.61-1.09,9.2-1.09,9.2S22,200.78,20.77,185.7Z"/><path class="cls-2" d="M28.9,194.63c-3.75,0-8.33-1.54-8.92-8.87a.81.81,0,0,1,.21-.59c.28-.31,7.08-7.7,14.7-7.7a11.15,11.15,0,0,1,7.62,3c3.37,3,4.67,5.46,4,7.45-.84,2.49-4.45,3-5.38,3.11-1,.55-6.9,3.57-12.22,3.57ZM21.59,186c.48,4.75,2.88,7.06,7.31,7.06,5.31,0,11.54-3.42,11.61-3.45a.75.75,0,0,1,.32-.1c1-.08,3.68-.6,4.18-2.06.43-1.27-.83-3.32-3.55-5.76a9.68,9.68,0,0,0-6.57-2.63c-6.17,0-12.07,5.68-13.3,6.94Z"/><path class="cls-4" d="M92.29,185.7s-11.84-13-21.21-4.61,1.09,9.2,1.09,9.2S91.09,200.78,92.29,185.7Z"/><path class="cls-2" d="M84.17,194.63h0c-5.32,0-11.2-3-12.23-3.57-.93-.09-4.53-.62-5.38-3.11-.68-2,.63-4.43,4-7.45a11.18,11.18,0,0,1,7.63-3c7.61,0,14.41,7.39,14.7,7.7a.8.8,0,0,1,.2.59c-.59,7.33-5.17,8.87-8.91,8.87Zm-6-15.58a9.64,9.64,0,0,0-6.57,2.63c-2.73,2.44-4,4.49-3.56,5.76.5,1.47,3.26,2,4.18,2.06a.75.75,0,0,1,.33.1c.06,0,6.29,3.45,11.61,3.45h0c4.43,0,6.82-2.31,7.3-7.06-1.23-1.26-7.12-6.94-13.29-6.94Z"/><path class="cls-5" d="M1074.44,185.7s11.84-13,21.21-4.61-1.1,9.2-1.1,9.2S1075.64,200.78,1074.44,185.7Z"/><path class="cls-2" d="M1082.56,194.63c-3.74,0-8.32-1.54-8.91-8.87a.76.76,0,0,1,.2-.59c.29-.31,7.09-7.7,14.7-7.7a11.18,11.18,0,0,1,7.63,3c3.36,3,4.67,5.46,4,7.45-.85,2.49-4.46,3-5.38,3.11-1,.55-6.91,3.57-12.23,3.57Zm-7.3-8.64c.48,4.75,2.87,7.06,7.3,7.06,5.32,0,11.55-3.42,11.61-3.45a.75.75,0,0,1,.32-.1c1-.08,3.69-.6,4.18-2.06.44-1.27-.83-3.32-3.55-5.76a9.64,9.64,0,0,0-6.57-2.63c-6.17,0-12.06,5.68-13.29,6.94Z"/><path class="cls-5" d="M1146,185.7s-11.84-13-21.22-4.61,1.1,9.2,1.1,9.2S1144.75,200.78,1146,185.7Z"/><path class="cls-2" d="M1137.83,194.63h0c-5.32,0-11.2-3-12.22-3.57-.93-.09-4.54-.62-5.39-3.11-.68-2,.63-4.43,4-7.45a11.15,11.15,0,0,1,7.62-3c7.61,0,14.41,7.39,14.7,7.7a.76.76,0,0,1,.2.59c-.58,7.33-5.17,8.87-8.91,8.87Zm-6-15.58a9.64,9.64,0,0,0-6.57,2.63c-2.72,2.44-4,4.49-3.55,5.76.5,1.47,3.25,2,4.18,2.06a.75.75,0,0,1,.32.1c.06,0,6.3,3.45,11.61,3.45h0c4.43,0,6.83-2.31,7.31-7.06-1.23-1.26-7.13-6.94-13.3-6.94Z"/></g></g></svg>