<svg xmlns="http://www.w3.org/2000/svg" width="414" height="170" viewBox="0 0 414 170"><defs><style>.cls-1{fill:#2e3192;}.cls-2{fill:#fff;}</style></defs><title>ico_umetsu</title><g id="レイヤー_2" data-name="レイヤー 2"><g id="レイヤー_1-2" data-name="レイヤー 1"><rect class="cls-1" width="414" height="170"/><path class="cls-2" d="M21.44,73.38A55.16,55.16,0,0,1,26.7,85.82l-5.07,1.79A50.1,50.1,0,0,0,16.68,75ZM46,74.55a17.56,17.56,0,0,0-1,3.82,40.23,40.23,0,0,1-8.66,18,35.52,35.52,0,0,1-11.23,8.5,14.79,14.79,0,0,0-3.59-4.21,30,30,0,0,0,10.84-7.45,29.44,29.44,0,0,0,6.36-11.08,35.14,35.14,0,0,0,2-8.81Z"/><path class="cls-2" d="M53.77,84.85a39,39,0,0,0,6.32.27H80.88a38.74,38.74,0,0,0,6.31-.27v5.42a41.7,41.7,0,0,0-6.35-.2H60.13a41.79,41.79,0,0,0-6.36.2Z"/><path class="cls-2" d="M97,81a55,55,0,0,1,10.38,5.31l-2.42,4.41A45.26,45.26,0,0,0,94.37,85ZM95.23,98.46a35.79,35.79,0,0,0,11.27-2.54,23.87,23.87,0,0,0,11.27-8.58,28.82,28.82,0,0,0,4.52-8.62,19.92,19.92,0,0,0,4.06,3.47,34,34,0,0,1-5.85,9.87c-5,5.69-11.58,9.17-21.18,11.08a25.88,25.88,0,0,0-2.73.62ZM100,71.55a62.57,62.57,0,0,1,10.38,5l-2.5,4.29a45.86,45.86,0,0,0-10.41-5.39Z"/><path class="cls-2" d="M140.54,80.55a12.3,12.3,0,0,0-.74-2.92l4.64-.7a15.49,15.49,0,0,0,.39,3l.59,3,11.66-2a9.76,9.76,0,0,0,2.58-.66l2.72,2.46a9,9,0,0,0-1,1.87,22.21,22.21,0,0,1-7.68,10.14A11.1,11.1,0,0,0,150.1,92a18.28,18.28,0,0,0,6.63-7,10.69,10.69,0,0,1-1.44.27l-9.17,1.52,2.77,14.43a14.87,14.87,0,0,0,.74,3.16l-4.87.86a15.93,15.93,0,0,0-.32-3.16l-2.65-14.54-3.35.54A19.52,19.52,0,0,0,135,89l-.82-4.45a21.18,21.18,0,0,0,3.7-.35l3.24-.54Z"/><path class="cls-2" d="M182.39,72.29c-.15,1.09-.15,1.09-.39,8.73s-1.13,12-3.16,16a24.89,24.89,0,0,1-5.38,7.22,14,14,0,0,0-3.94-3.79,16.06,16.06,0,0,0,4-4.48c2.81-4.49,3.7-9.52,3.7-20.44a20.47,20.47,0,0,0-.15-3.55Zm10.34-.47a20.55,20.55,0,0,0-.28,3.7l-.19,22.2a15.74,15.74,0,0,0,6-4.45,19.17,19.17,0,0,0,3.82-7.14,16.34,16.34,0,0,0,3.66,3.67,24.12,24.12,0,0,1-6.2,9.09,25.78,25.78,0,0,1-8.3,4.68,15.46,15.46,0,0,0-1.68.7l-2.5-2.65a17.25,17.25,0,0,0,.35-4.14l.2-22V74.31a16.44,16.44,0,0,0-.16-2.57Z"/><path class="cls-2" d="M241.83,83.67a17.13,17.13,0,0,0-1.09,2.46c-2,5.74-5,10.06-9.05,13.18-2.77,2.15-5.31,3.48-10.22,5.31a13.82,13.82,0,0,0-3-4.53c4.76-1.2,7.84-2.65,10.84-5.14s4.56-4.8,6.28-9.13h-19a38.82,38.82,0,0,0-5,.2V81.26a28.11,28.11,0,0,0,5.07.27H235.2a17.23,17.23,0,0,0,4.41-.35Zm-27-11.81a22.51,22.51,0,0,0,4.56.27h13.61a22.62,22.62,0,0,0,4.57-.27v4.79a31.12,31.12,0,0,0-4.49-.19H219.36a31,31,0,0,0-4.48.19Z"/><path class="cls-2" d="M280.28,74a15.67,15.67,0,0,0-1.44,1.37,68.57,68.57,0,0,1-9.21,8V100a28.89,28.89,0,0,0,.2,4.33h-5.46a22.62,22.62,0,0,0,.23-4.22V86.41c-4.56,2.73-6.74,3.74-13.92,6.31a14.79,14.79,0,0,0-2.61-4.44,57.12,57.12,0,0,0,20.47-10.14c3.47-2.69,6.13-5.39,7.26-7.3Z"/><path class="cls-2" d="M319.56,76.23a5.7,5.7,0,0,0-.67,1.75c-1.95,7.45-4.25,12.13-8,16.34s-8,7.14-14.51,10A14.27,14.27,0,0,0,293,99.63a32.12,32.12,0,0,0,8.54-4c6.08-3.94,9.9-9.44,11.82-17H294.75a30.13,30.13,0,0,0-4.91.24V73.81a27.89,27.89,0,0,0,5,.27h17.9a14.32,14.32,0,0,0,4.17-.39Z"/><path class="cls-2" d="M343.77,77a23.07,23.07,0,0,1-1.63,2.73h13.3c2.3,0,3.15,0,4.05-.12a29.17,29.17,0,0,0-.27,4.06c0,2-.08,2.49-.12,4.09a12.16,12.16,0,0,0,2.69-.19v4a22.22,22.22,0,0,0-2.92-.19c-.12,2.06-.2,2.84-.47,5.22a11.84,11.84,0,0,0,2.57-.19v4a21.84,21.84,0,0,0-3-.16c-.74,4.41-1.72,5.3-5.58,5.3a34.85,34.85,0,0,1-3.51-.19,14.57,14.57,0,0,0-.66-3.94,20.4,20.4,0,0,0,3.71.47c1.24,0,1.63-.31,1.95-1.64H341.51c-.31,1.48-.35,1.6-.7,3l-4.1-.82a72.14,72.14,0,0,0,2.54-11,15.36,15.36,0,0,0-2.57.19v-3c-.28.55-.36.7-.59,1.21A22.51,22.51,0,0,1,334,85.66c.16,2.19.2,3.48.2,5.11V101a39.35,39.35,0,0,0,.23,4.76h-4.52a32.69,32.69,0,0,0,.27-4.76V93.19c0-.93.12-3.63.2-5a34.19,34.19,0,0,1-3.55,8.46A13.29,13.29,0,0,0,324.62,93a39.89,39.89,0,0,0,5.31-12.52H328.6a16.07,16.07,0,0,0-2.61.15V76.5a14.44,14.44,0,0,0,2.61.15h1.56v-3a22.19,22.19,0,0,0-.23-4.09h4.48a28.14,28.14,0,0,0-.19,4v3h.7A10.43,10.43,0,0,0,337,76.5v3a23,23,0,0,0,5.07-10.1l4.48.74a7.61,7.61,0,0,0-.5,1.33c-.16.47-.28.82-.67,1.75h11.47a31.82,31.82,0,0,0,4.33-.23v4.17a35.71,35.71,0,0,0-4.37-.19Zm-9.44,3.47a19.44,19.44,0,0,0,3.94,5.89,12.94,12.94,0,0,0-1,1.28,19.91,19.91,0,0,0,2.42.12c.27-2.5.35-3.31.47-5.42-.39.51-.47.62-1,1.21a14.67,14.67,0,0,0-3-3v0a11.43,11.43,0,0,0-1.17,0Zm8.7,11c-.27,2-.5,3.55-.82,5.22h3.94c.08-.54.08-.54.28-1.56s.23-1.67.46-3.66Zm.82-8.15c-.15,2.06-.19,2.73-.39,4.48h3.79c.07-.82.19-2.34.31-4.48Zm10.57,13.37c.24-2.1.35-3.08.51-5.22h-4.37c-.27,2.81-.39,3.55-.62,5.22Zm.7-8.89c.08-1.71.12-2.22.16-4.48h-4.06c-.11,2.1-.23,3.58-.31,4.48Z"/><path class="cls-2" d="M372.71,93.07a72.09,72.09,0,0,1-4.13,11.12,11,11,0,0,0-.63,1.4l-3.66-3.35c1.87-2.34,3.55-6.24,5-11.54Zm-5.42-13.22a33.4,33.4,0,0,1,6,5.15l-2.81,3a34.4,34.4,0,0,0-6-5.38ZM377,83.09a30.92,30.92,0,0,0-4.25.23v-4a28,28,0,0,0,4.14.23h2.37V76.65h-1.4a26,26,0,0,0-3.78.2V75.37l-2.46,2.77a30,30,0,0,0-6-5.39l2.81-2.69A33.37,33.37,0,0,1,374,74.7v-2a32.22,32.22,0,0,0,3.86.2h1.32v-.27a18.7,18.7,0,0,0-.19-2.89h4.41a13.92,13.92,0,0,0-.2,2.89V73h6.2v-.27a15.57,15.57,0,0,0-.19-2.89h4.41a18.15,18.15,0,0,0-.2,2.89V73h2a33.61,33.61,0,0,0,3.9-.2v4.1a33.13,33.13,0,0,0-3.82-.2h-2.11V79.5h2.85a23.21,23.21,0,0,0,4.33-.23v4a30.72,30.72,0,0,0-4.33-.23h-8.23v2.53h6.67a39.27,39.27,0,0,0,4.29-.15,25.4,25.4,0,0,0-.2,4V102c0,2.65-1,3.35-5,3.35h-1.48c-.82,0-1,0-1.76-.12a13.74,13.74,0,0,0-.89-4,34.31,34.31,0,0,0,4,.32c1.06,0,1.21-.12,1.21-.9V89.14h-6.86v7.6h1.79V93.93a28,28,0,0,0-.12-3h3.59a28.4,28.4,0,0,0-.11,3v3.43c0,1.6,0,2.07.07,3-.39,0-1.28,0-2.65-.08h-8v2h-3.51A24.66,24.66,0,0,0,379.3,99V93.89a22.77,22.77,0,0,0-.15-3h3.62a29.92,29.92,0,0,0-.11,3v2.85h1.71v-7.6h-6.63V101.5a31.88,31.88,0,0,0,.2,4.29h-4.25a37.12,37.12,0,0,0,.23-4.49V88.82c0-1.4,0-2.26-.12-3.31a28.46,28.46,0,0,0,2.93.11h7.64V83.09Zm12.48-3.59V76.65h-6.2V79.5Z"/></g></g></svg>