<svg xmlns="http://www.w3.org/2000/svg" width="414" height="170" viewBox="0 0 414 170"><defs><style>.cls-1{fill:#2e3192;}.cls-2{fill:#fff;}</style></defs><title>ico_faq</title><g id="レイヤー_2" data-name="レイヤー 2"><g id="レイヤー_1-2" data-name="レイヤー 1"><rect class="cls-1" width="414" height="170"/><path class="cls-2" d="M111.76,70.45a45.45,45.45,0,0,0-.27,6c0,.54,0,.66,0,2.53,4.68,0,9-.5,11.43-1.32l.39,4.72c-.78,0-.78,0-2.54.23a81.7,81.7,0,0,1-9.16.7c.07,3,.15,4.8.43,8.62a29.28,29.28,0,0,1,6.08,2.65,52.28,52.28,0,0,1,5,3.32c.51.35.7.51,1.17.78l-3,4.41a15.31,15.31,0,0,0-2.77-2.58,24.78,24.78,0,0,0-5.15-3.2,14.3,14.3,0,0,1-1.25-.7,8.93,8.93,0,0,1,.08,1.25c0,4.37-3.08,6.67-8.89,6.67-4,0-6.75-1.13-8.19-3.35a7,7,0,0,1-1-3.48c0-4,4-7,9.64-7a14.57,14.57,0,0,1,3.62.39c0-.11,0-.11,0-.39-.15-1.4-.5-12-.54-16.92a22.65,22.65,0,0,0-.2-3.44ZM103.88,95C101,95,99,96.12,99,97.83a2.14,2.14,0,0,0,1.32,2,7,7,0,0,0,2.85.59,5.54,5.54,0,0,0,3.55-1.06,2.73,2.73,0,0,0,.82-2.18c0-.7,0-1.8,0-1.83A12.32,12.32,0,0,0,103.88,95Z"/><path class="cls-2" d="M157.47,73.57a61.55,61.55,0,0,0-4.8,4.29c-2,1.84-4.71,4-9.28,7.49-1.21.9-1.48,1.21-1.48,1.64,0,.59.08.66,3.51,3.24a131.44,131.44,0,0,1,12.29,10.18,8.73,8.73,0,0,0,1.13,1l-4,4.06a37.94,37.94,0,0,0-5.07-5.35,126.11,126.11,0,0,0-10.06-8.3c-2.58-2-3.28-3-3.28-4.84a4.56,4.56,0,0,1,1.29-3.16A24,24,0,0,1,141.13,81a87,87,0,0,0,9-7.6A20,20,0,0,0,153,70.14Z"/><path class="cls-2" d="M196.78,80.87a10.06,10.06,0,0,0-.46,1.13c-.4,1.09-.43,1.13-.55,1.48a10.61,10.61,0,0,1,4.06,1.91,8.71,8.71,0,0,1,3.7,7.37c0,4.25-2.3,7.57-6.71,9.75a21.69,21.69,0,0,1-7.95,2.07,12.54,12.54,0,0,0-2.07-4.41,16.21,16.21,0,0,0,7.45-1.56c3.12-1.48,4.56-3.39,4.56-6.08,0-2.46-1.6-4.45-4.37-5.38a34.39,34.39,0,0,1-6.78,10.37c-3.51,3.71-7,5.62-10.22,5.62-3.63,0-6.09-2.77-6.09-6.83a12.25,12.25,0,0,1,3.86-8.73,16.23,16.23,0,0,1,5.35-3.52c0-1.24.08-2.8.15-4.68-.42,0-2.53,0-6.31-.15h-.74c-.12,0-.47,0-.9,0V74.9a34.48,34.48,0,0,0,7.29.58h.86c0-.78,0-.78.16-2.34,0-.5.07-1.48.07-2.22a2.42,2.42,0,0,0-.07-.62l4.83.23a22.87,22.87,0,0,0-.7,4.8C191.44,75,197,74.2,200,73.26l.2,4.49c-.55,0-.71,0-1.52.15a126.26,126.26,0,0,1-13.73,1.37c-.12,1.67-.16,2.92-.2,3.74a21.53,21.53,0,0,1,5.38-.51,10.92,10.92,0,0,1,1.49.08,14.72,14.72,0,0,0,.78-3ZM177.48,91.2A7.74,7.74,0,0,0,175.72,96c0,1.76.86,2.85,2.23,2.85a5.39,5.39,0,0,0,3.39-1.48,42.7,42.7,0,0,1-.7-8.82A11.61,11.61,0,0,0,177.48,91.2Zm7.64,3.24a5.09,5.09,0,0,1,.43-.55,29.77,29.77,0,0,0,4.84-7.8,9,9,0,0,0-1,0,14.28,14.28,0,0,0-4.68.71,63.18,63.18,0,0,0,.28,6.7,2.74,2.74,0,0,1,0,.51,1.53,1.53,0,0,0,0,.43Z"/><path class="cls-2" d="M222.44,86.41c3.55-1.41,5.27-1.8,8.19-1.8,6.67,0,11,3.43,11,8.78a9.54,9.54,0,0,1-5.3,8.62,19.34,19.34,0,0,1-9.44,2.22c-3.27,0-6-.63-7.56-1.8A5.54,5.54,0,0,1,217,98c0-3.24,2.8-5.58,6.7-5.58a8.4,8.4,0,0,1,6.75,3.2,10.6,10.6,0,0,1,1.8,3.51c3.23-1.21,4.64-2.89,4.64-5.65,0-3.05-3-5-7.73-5A24.08,24.08,0,0,0,213,95l-2.65-4.22a34.3,34.3,0,0,0,5.5-3.66,129.87,129.87,0,0,0,11.66-10.14l.71-.7,0,0c-1.49.19-4,.35-11,.66a14.39,14.39,0,0,0-1.87.19l-.2-4.68a34.46,34.46,0,0,0,4.6.24c3.32,0,8.08-.2,11.86-.47a5.63,5.63,0,0,0,2.42-.51l2.42,3.44a8.17,8.17,0,0,0-2,1.59c-1.95,1.8-4.8,4.33-6.12,5.46-.71.59-3.51,2.7-4.29,3.2a15.19,15.19,0,0,1-1.6,1Zm1.17,9.71c-1.4,0-2.3.7-2.3,1.79,0,1.56,1.76,2.46,4.65,2.46a10.22,10.22,0,0,0,2-.16C227.28,97.52,225.8,96.12,223.61,96.12Z"/><path class="cls-2" d="M280,75.17a23.78,23.78,0,0,0,3-.15v3.82a16.66,16.66,0,0,0-3-.2h-2.57V82c.81,0,.93,0,1.59-.12a41.2,41.2,0,0,0-.19,5.27V95.1a30.2,30.2,0,0,0,.19,4.45,38,38,0,0,0-4.17-.16h-2.81c3.9,1.8,6,2.3,11.24,2.77a14.59,14.59,0,0,0-2,4c-5.93-1-8.58-1.91-12.95-4.45l3.16-2.3H259.3l3.16,2.46a33.51,33.51,0,0,1-12.75,4.25,15.83,15.83,0,0,0-2.11-3.94c5.93-.62,8-1.13,10.92-2.77h-2.26a40,40,0,0,0-4.22.16,33.8,33.8,0,0,0,.2-4.6V87.11c0-1.88,0-2.42-.08-3.79a11.69,11.69,0,0,1-1.87,2.77,20,20,0,0,0-3.24-3.31c2.27-2.3,3.12-5,3.12-10.06a17,17,0,0,0-.15-1.8h.66a7.7,7.7,0,0,0,.78,0,48,48,0,0,0,7.22-.66,17.89,17.89,0,0,0,3.9-1.17L265,72.4c-3.63,1-5.19,1.25-10.77,1.6a10,10,0,0,1,0,1.17h7.76a19.55,19.55,0,0,0,2.85-.15V78.8a19.24,19.24,0,0,0-2.77-.16h-1V82h4.95a13.7,13.7,0,0,0-1.87-1.6c1.6-2,2.26-4.37,2.26-8.15a8.39,8.39,0,0,0-.12-1.41,8,8,0,0,0,1.21.08c1.29,0,4.88-.27,6.4-.47a28.89,28.89,0,0,0,5.46-1.28l2.49,3.27A59.19,59.19,0,0,1,270.34,74c0,.59,0,.9-.08,1.21ZM257.08,82v-3.4H253.8a12.92,12.92,0,0,1-1,3.32c1.28.08,2,.08,3.35.08ZM256.37,87h18.34V85.27H256.37Zm0,4.53h18.34V89.84H256.37Zm0,4.6h18.34V94.4H256.37Zm13.34-17.44a14.12,14.12,0,0,1-1.36,3.4h5.15v-3.4Z"/><path class="cls-2" d="M292.37,100.76a32.47,32.47,0,0,0,.24,4.79H288a33.88,33.88,0,0,0,.24-4.83V75.17a42.36,42.36,0,0,0-.16-4.4,38.66,38.66,0,0,0,4,.15H299a34.83,34.83,0,0,0,4-.15c-.08,1.24-.12,2.14-.12,3.66v6.44c0,1.75,0,2.65.12,3.51-.94-.08-2.3-.12-3.59-.12h-7Zm0-24.61H299v-2h-6.67Zm0,5.07H299V79.15h-6.67Zm19.74,15.44a24.13,24.13,0,0,0,.11,2.65c-.82-.07-1.64-.11-2.77-.11h-8.69v2.61h-4.14a33.84,33.84,0,0,0,.2-3.78V89.68c0-1.05,0-1.91-.12-2.73.86.08,1.76.12,2.89.12h9.63c1.21,0,2.18,0,3-.12a25.42,25.42,0,0,0-.11,2.69Zm-11.35-1h7.41V90.54h-7.41Zm20.12,5.11c0,2.14-.35,3.16-1.36,3.78-.78.47-1.84.63-4.1.63-.62,0-1.05,0-3.63-.16a13.47,13.47,0,0,0-1.09-4.14,44.46,44.46,0,0,0,4.8.36c1.09,0,1.29-.16,1.29-1V84.26h-7.53c-1.29,0-2.69,0-3.55.12,0-1.06.08-1.84.08-3.51V74.43c0-1.48,0-2.53-.12-3.66a37.18,37.18,0,0,0,4,.15h7.41a39.52,39.52,0,0,0,4-.15,33.3,33.3,0,0,0-.2,4.36ZM309.65,76.15h7.14v-2h-7.14Zm0,5.07h7.14V79.15h-7.14Z"/></g></g></svg>