<svg xmlns="http://www.w3.org/2000/svg" width="160" height="40" viewBox="0 0 160 40"><defs><style>.cls-1{fill:red;}.cls-2{fill:#fff;}</style></defs><title>bt_entry</title><g id="レイヤー_2" data-name="レイヤー 2"><g id="レイヤー_1-2" data-name="レイヤー 1"><rect class="cls-1" width="160" height="40"/><path class="cls-2" d="M24.06,30.68h4.6a12.93,12.93,0,0,0,2.47-.14v2.4a18.51,18.51,0,0,0-2.43-.1H17.3a18.51,18.51,0,0,0-2.43.1v-2.4a12.93,12.93,0,0,0,2.47.14h4.29V22.87H18.72a21.11,21.11,0,0,0-2.43.09V20.59a14.19,14.19,0,0,0,2.47.13h8.46a14.26,14.26,0,0,0,2.47-.13V23a21,21,0,0,0-2.44-.09H24.06Z"/><path class="cls-2" d="M34.78,31.72a18,18,0,0,0,5.62-1.41A12.58,12.58,0,0,0,46,25.66,15.78,15.78,0,0,0,48,21.86a8.16,8.16,0,0,0,2,1.86,16.67,16.67,0,0,1-6,7.45A20.54,20.54,0,0,1,36.74,34a6.94,6.94,0,0,0-1.26.32Zm1.61-11.8a27,27,0,0,1,4.91,3.67l-1.64,2.07a20.25,20.25,0,0,0-4.84-3.86Z"/><path class="cls-2" d="M56.53,34.85a12.06,12.06,0,0,0,.12-2.12V20.55a11.62,11.62,0,0,0-.12-1.94h2.61a12.16,12.16,0,0,0-.08,2v3.53a55.8,55.8,0,0,1,8.63,4l-1.33,2.24a45.33,45.33,0,0,0-6.73-3.63,6.82,6.82,0,0,1-.64-.32,11.15,11.15,0,0,1,.07,1.29v5a19.67,19.67,0,0,0,.08,2.1Z"/><path class="cls-2" d="M77,19a9.15,9.15,0,0,0-.08,1.71V26A8.67,8.67,0,0,0,77,27.65h-2.6a15.13,15.13,0,0,0,.09-1.7V20.72A13.53,13.53,0,0,0,74.38,19Zm8.62,0a9.65,9.65,0,0,0-.09,1.77v2.56A22.7,22.7,0,0,1,85,29.14a7.29,7.29,0,0,1-3.75,4.42A16.13,16.13,0,0,1,77.55,35a6.37,6.37,0,0,0-1.33-2.26,10.38,10.38,0,0,0,4.1-1.52c1.79-1.18,2.41-2.34,2.62-4.85.08-.82.1-1.65.1-3.17V20.85a9.53,9.53,0,0,0-.1-1.8Z"/><path class="cls-2" d="M90.85,25.39a17.73,17.73,0,0,0,3.08.14h10.12a17.8,17.8,0,0,0,3.08-.14V28a22,22,0,0,0-3.1-.09H94a22,22,0,0,0-3.1.09Z"/><path class="cls-2" d="M120.73,25.53c0,.07,0,.23,0,.45a5.8,5.8,0,0,1,.61,2.68,6.1,6.1,0,0,1-2.83,5.13,13.37,13.37,0,0,1-3.44,1.56,6.22,6.22,0,0,0-1.35-2.15A8.9,8.9,0,0,0,117,32.1a4,4,0,0,0,2.21-2.77,3.14,3.14,0,0,1-2.8,1.35,3.48,3.48,0,0,1-2.2-.69,3,3,0,0,1-1.31-2.56A3.5,3.5,0,0,1,116.65,24a3.19,3.19,0,0,1,2,.57.79.79,0,0,1,0-.23s0-1.1,0-1.61c-2.72.07-4.51.13-5.34.19-2.87.21-2.87.21-3.38.28l-.08-2.26a7.88,7.88,0,0,0,.93,0c.48,0,.78,0,3.23-.1l3-.07,1.62-.06a11,11,0,0,0-.11-2.3l2.39,0a14.23,14.23,0,0,0-.1,2.26c3.31,0,4.79-.05,5.49-.13l0,2.19c-.7-.06-1.61-.1-3.19-.1-.45,0-.8,0-2.3,0v1.23Zm-3.87.19a1.66,1.66,0,0,0-1.77,1.52,1.51,1.51,0,0,0,1.62,1.5A1.73,1.73,0,0,0,118.57,27C118.57,26.23,117.9,25.72,116.86,25.72Z"/><path class="cls-2" d="M135,26.15a9.34,9.34,0,0,1,4-.87c3.25,0,5.34,1.67,5.34,4.27a4.64,4.64,0,0,1-2.58,4.2,9.34,9.34,0,0,1-4.6,1.09,6.43,6.43,0,0,1-3.69-.88,2.71,2.71,0,0,1-1.14-2.18c0-1.58,1.37-2.72,3.27-2.72a4.09,4.09,0,0,1,3.29,1.56,4.94,4.94,0,0,1,.87,1.71c1.58-.59,2.26-1.41,2.26-2.76s-1.46-2.45-3.76-2.45a11.72,11.72,0,0,0-7.83,3.19l-1.29-2a16.33,16.33,0,0,0,2.68-1.78,63.09,63.09,0,0,0,5.68-4.94l.34-.34,0,0c-.72.09-1.93.17-5.37.32a7.78,7.78,0,0,0-.91.09l-.1-2.28a16.39,16.39,0,0,0,2.24.12c1.62,0,3.94-.1,5.78-.23a2.77,2.77,0,0,0,1.18-.25l1.17,1.68a4.07,4.07,0,0,0-1,.77c-1,.88-2.34,2.11-3,2.66-.34.29-1.71,1.32-2.09,1.56a6.52,6.52,0,0,1-.77.5Zm.57,4.73c-.68,0-1.12.35-1.12.88,0,.76.86,1.2,2.26,1.2a4.9,4.9,0,0,0,1-.08C137.38,31.57,136.66,30.88,135.59,30.88Z"/><path class="cls-2" d="M31.36,14.1a7,7,0,0,0-1.21.06,4.92,4.92,0,0,1,.32-1.46,4.87,4.87,0,0,1,1.43-1.89A15,15,0,0,1,33.58,9.6C34.67,8.86,35,8.38,35,7.71c0-.84-.71-1.38-1.83-1.38a1.83,1.83,0,0,0-1.6.72,2.25,2.25,0,0,0-.38,1.11L30.3,8A3,3,0,0,1,31,6.42a2.8,2.8,0,0,1,2.21-.85c1.66,0,2.73.84,2.73,2.14a2.28,2.28,0,0,1-.65,1.56,8.71,8.71,0,0,1-1.87,1.42A6.12,6.12,0,0,0,31.83,12a3.05,3.05,0,0,0-.62,1.28h3.51a8.85,8.85,0,0,0,1.34-.08v.93a11,11,0,0,0-1.35-.07Z"/><path class="cls-2" d="M37.07,11.19l.71-.85,2.79-3.48a12.9,12.9,0,0,0,.82-1.12h.83a16.81,16.81,0,0,0-.07,1.86v3.61h.42a6.72,6.72,0,0,0,1.14-.08V12A8.16,8.16,0,0,0,42.56,12h-.41v.94a6,6,0,0,0,.09,1.19h-1a6.87,6.87,0,0,0,.09-1.19V12H38.38c-.62,0-1,0-1.31,0Zm4.27-2.77a14.61,14.61,0,0,1,.06-1.49c-.23.33-.5.69-.82,1.1l-2.53,3.19h3.29Z"/><path class="cls-2" d="M47.82,6.71a9.75,9.75,0,0,0,0-1.06c.23,0,.23,0,1,0h.82c.56,0,.75,0,1,0a6.79,6.79,0,0,0,0,1.08v6c0,.53,0,.81,0,1.05h-.68v-.55H48.46v.91h-.71A9.55,9.55,0,0,0,47.82,13ZM48.46,9h1.45V6.3H48.46Zm0,3.62h1.45v-3H48.46ZM52.3,7a7.94,7.94,0,0,0-1,.06V6.3a6.76,6.76,0,0,0,1,.07h1.17V6a5,5,0,0,0-.07-.89h.82a4.8,4.8,0,0,0-.07.89v.36H55.7a7.22,7.22,0,0,0,1-.07V7a7.73,7.73,0,0,0-1-.06H54.14V8.4h2a8,8,0,0,0,1.11-.06v.73A7.85,7.85,0,0,0,56.13,9h-.36v1.28h.34a7.51,7.51,0,0,0,1.08-.06V11a6.58,6.58,0,0,0-1.08-.07h-.34V14c0,.71-.24.87-1.27.87l-1,0a1.91,1.91,0,0,0-.17-.73,7.59,7.59,0,0,0,1.25.13c.42,0,.5,0,.5-.28v-3H52a7.36,7.36,0,0,0-1.1.07v-.76a7.85,7.85,0,0,0,1.12.06h3.09V9H52a8.89,8.89,0,0,0-1.12.06V8.34A8.15,8.15,0,0,0,52,8.4h1.46V7Zm.85,6.61a9.78,9.78,0,0,0-1.53-1.84l.54-.39a12.47,12.47,0,0,1,1.59,1.79Z"/><path class="cls-2" d="M59.5,13.72A8.77,8.77,0,0,0,59.56,15h-.81a8.71,8.71,0,0,0,.07-1.23V6.61c0-.54,0-.86,0-1.21a11.34,11.34,0,0,0,1.16,0H61.5a10.59,10.59,0,0,0,1.12,0c0,.31,0,.64,0,1V7.81c0,.44,0,.75,0,1q-.45,0-1.11,0h-2Zm0-6.86H62V6H59.5Zm0,1.41H62V7.38H59.5Zm5.77,4.17a9.41,9.41,0,0,0,0,1c-.31,0-.68,0-1.13,0H61.77v.77h-.68a6.12,6.12,0,0,0,.06-1V10.7c0-.39,0-.71,0-1,.33,0,.6,0,1.09,0h2a10.81,10.81,0,0,0,1.09,0,10,10,0,0,0,0,1Zm-3.5-1.2h2.88v-1H61.77Zm0,1.62h2.88V11.79H61.77Zm5.9,1c0,.73-.23.91-1.12.91-.23,0-.83,0-1.1,0a2.3,2.3,0,0,0-.2-.7c.52.06,1,.11,1.21.11.45,0,.54-.06.54-.32v-5H64.75c-.47,0-.82,0-1.12,0a10.07,10.07,0,0,0,0-1V6.44c0-.38,0-.71,0-1a10.69,10.69,0,0,0,1.13,0h1.81a11.34,11.34,0,0,0,1.16,0,9.15,9.15,0,0,0-.06,1.21Zm-3.38-7H67V6H64.29Zm0,1.41H67V7.38H64.29Z"/><path class="cls-2" d="M72.92,12.07a1.63,1.63,0,0,0,.67,1,2.45,2.45,0,0,0,1.42.4c1.27,0,2.08-.66,2.08-1.71s-.78-1.68-2.25-1.68a8.49,8.49,0,0,0-.88.05V9.3a4.25,4.25,0,0,0,.82.07,2.2,2.2,0,0,0,1.6-.51,1.48,1.48,0,0,0,.44-1.06c0-1-.66-1.5-1.77-1.5a1.74,1.74,0,0,0-1.46.58,2,2,0,0,0-.35.78l-.92-.19a2.46,2.46,0,0,1,.6-1.1,2.84,2.84,0,0,1,2.19-.81c1.59,0,2.6.84,2.6,2.16a1.94,1.94,0,0,1-.77,1.61,2.31,2.31,0,0,1-1,.39,2.4,2.4,0,0,1,1.35.47A2,2,0,0,1,78,11.86c0,1.48-1.14,2.41-3,2.41a3.14,3.14,0,0,1-2.47-.91A2.84,2.84,0,0,1,72,12.3Z"/><path class="cls-2" d="M84.25,7.57a2.12,2.12,0,0,0-.39-.7,1.69,1.69,0,0,0-1.31-.55,2,2,0,0,0-1.9,1.37,6,6,0,0,0-.46,2.36,2.37,2.37,0,0,1,.55-.7,2.61,2.61,0,0,1,1.86-.67,2.56,2.56,0,0,1,2.76,2.75,2.69,2.69,0,0,1-2.88,2.82,3,3,0,0,1-2-.69,4.71,4.71,0,0,1-1.11-3.45,5.88,5.88,0,0,1,.84-3.33,2.75,2.75,0,0,1,2.32-1.19,2.87,2.87,0,0,1,1.67.46,2.73,2.73,0,0,1,.93,1.23ZM82.48,9.41A2.25,2.25,0,0,0,81,10a1.9,1.9,0,0,0-.55,1.4,2.08,2.08,0,0,0,3.79,1.18,2.36,2.36,0,0,0,.29-1.17A1.84,1.84,0,0,0,82.48,9.41Z"/><path class="cls-2" d="M87.89,8.93a2.47,2.47,0,0,1-.09.49,2.7,2.7,0,0,1,1.92-.75,2.79,2.79,0,0,1,2,.74,2.59,2.59,0,0,1,.73,1.94,2.74,2.74,0,0,1-3,2.9,3,3,0,0,1-2.1-.74,3.52,3.52,0,0,1-.69-1l.9-.26a1.76,1.76,0,0,0,.35.64,2.09,2.09,0,0,0,1.56.65,2,2,0,0,0,2.06-2.11,1.84,1.84,0,0,0-1.92-2,2.35,2.35,0,0,0-1.45.46,1.46,1.46,0,0,0-.5.66l-.83-.07A9.44,9.44,0,0,0,87,9.3l.24-2.48c0-.32,0-.45,0-.66s0-.2,0-.48a6.7,6.7,0,0,0,1.17.06H90.7A6.84,6.84,0,0,0,92,5.65v.94A7.25,7.25,0,0,0,90.7,6.5H88.12Z"/><path class="cls-2" d="M97.85,6.67a8.35,8.35,0,0,0,0-1.07A9.86,9.86,0,0,0,99,5.65h5a8.79,8.79,0,0,0,1.13-.05,6.09,6.09,0,0,0-.06,1v7.05a9,9,0,0,0,.07,1.18h-.8v-.72H98.59v.72h-.8a9.3,9.3,0,0,0,.06-1.17Zm.74,2.73h5.68V6.32H98.59Zm0,4h5.68V10.07H98.59Z"/><path class="cls-2" d="M115.67,10.36a2.87,2.87,0,0,0-.37.4,10.23,10.23,0,0,1-2.23,2.11,11.5,11.5,0,0,0,4.34,1.36A3.47,3.47,0,0,0,117,15a11.08,11.08,0,0,1-4.59-1.67A13.53,13.53,0,0,1,108,14.93a2.74,2.74,0,0,0-.4-.7,11.85,11.85,0,0,0,4.28-1.38,7.28,7.28,0,0,1-2-2.35,8.14,8.14,0,0,0-.82.07V9.83a6.44,6.44,0,0,0,1.1.07h4.09a4.66,4.66,0,0,0,1-.06ZM109.87,8a10.37,10.37,0,0,0-.59-1.48l-1,0a1.81,1.81,0,0,0-.25-.65,35.56,35.56,0,0,0,5.15-.32A11.59,11.59,0,0,0,116.08,5l.49.65a2.54,2.54,0,0,0-.45.1,30.32,30.32,0,0,1-3.76.62A10.9,10.9,0,0,1,113,8h1.27a9.9,9.9,0,0,0,.93-2l.71.25A16.81,16.81,0,0,1,115,8h.94a9.83,9.83,0,0,0,1.25,0,7.28,7.28,0,0,0,0,.84v.71a3.6,3.6,0,0,0,0,.69h-.75V8.68h-8v1.59h-.75a6,6,0,0,0,.05-.78V8.8c0-.29,0-.53,0-.83a9.12,9.12,0,0,0,1.35.06Zm2.39,0a10.07,10.07,0,0,0-.58-1.62c-.55,0-.92.08-1.73.11A9.91,9.91,0,0,1,110.57,8Zm-1.65,2.47a5.94,5.94,0,0,0,1.84,2,8.69,8.69,0,0,0,2.18-2Z"/><path class="cls-2" d="M120.8,13.66c0,.51,0,.92,0,1.31H120a12.3,12.3,0,0,0,.06-1.33V10c0-.48,0-.82,0-1.33a9.77,9.77,0,0,1-1.23,1.7l-.08-.12a1.68,1.68,0,0,0-.41-.49,10.74,10.74,0,0,0,2.21-3.35A6.23,6.23,0,0,0,121.12,5l.79.25a4.13,4.13,0,0,0-.27.63c-.16.38-.51,1.14-.84,1.77Zm6,.13c0,.73-.23.9-1.22.9-.43,0-.85,0-1.33-.06a2.69,2.69,0,0,0-.21-.75,8.87,8.87,0,0,0,1.51.13c.45,0,.55,0,.55-.28V8.29h-3.46a7.46,7.46,0,0,0-1.17.07V7.59a8.79,8.79,0,0,0,1.14.06h3.49V6.39A7.62,7.62,0,0,0,126,5.1h.85a9.43,9.43,0,0,0-.07,1.29V7.65h.54a7.27,7.27,0,0,0,1-.06v.75a8.94,8.94,0,0,0-1-.05h-.54Zm-4-4.52a13.58,13.58,0,0,1,1.86,2.49l-.61.47a11,11,0,0,0-1.82-2.56Z"/></g></g></svg>