<svg xmlns="http://www.w3.org/2000/svg" width="64" height="44" viewBox="0 0 64 44"><defs><style>.cls-1{fill:red;}.cls-2{fill:#fff;}</style></defs><title>bt_entry_sm</title><g id="レイヤー_2" data-name="レイヤー 2"><g id="レイヤー_1-2" data-name="レイヤー 1"><rect class="cls-1" width="64" height="44"/><path class="cls-2" d="M13.49,22.79a12.17,12.17,0,0,0-1.94-.11H6.88c-.91,0-1.31,0-1.91.05a12.25,12.25,0,0,0,.12-2V12.63A13.16,13.16,0,0,0,5,10.7c.6,0,1,0,1.91,0H11.4a17.24,17.24,0,0,0,1.94-.1v2a12.67,12.67,0,0,0-1.94-.11H7.08V15.6h3.65a16.69,16.69,0,0,0,1.95-.1v2a11.71,11.71,0,0,0-1.95-.11H7.07V20.9h4.5a13.53,13.53,0,0,0,1.92-.11Z"/><path class="cls-2" d="M23.06,22.68a14,14,0,0,0-1-1.6l-3.87-5.84c-.28-.45-.66-1.09-1-1.8,0,.21,0,.21.06.77,0,.28,0,1,0,1.3v4.92a15.47,15.47,0,0,0,.13,2.25H15.25a16.91,16.91,0,0,0,.12-2.26V12.68a14,14,0,0,0-.12-1.94h2.33a8.3,8.3,0,0,0,.92,1.59l3.79,5.72c.36.53.84,1.32,1.17,1.92-.06-.59-.1-1.49-.1-2.12v-5a13.15,13.15,0,0,0-.12-2.07h2.19a13.15,13.15,0,0,0-.12,2.07v7.94a11.37,11.37,0,0,0,.12,1.93Z"/><path class="cls-2" d="M32.82,20.73A12.39,12.39,0,0,0,33,22.68H30.68a12.57,12.57,0,0,0,.12-1.95V12.54h-2a14.1,14.1,0,0,0-2.06.11v-2a16.15,16.15,0,0,0,2,.1H34.7a16.87,16.87,0,0,0,2.2-.1v2a14.74,14.74,0,0,0-2.2-.11H32.82Z"/><path class="cls-2" d="M45.81,22.68a11.59,11.59,0,0,0-.77-2.4c-.82-2.07-1.34-2.62-2.5-2.62H40.31v3.05a11.66,11.66,0,0,0,.12,2H38.2a11.85,11.85,0,0,0,.11-1.95V12.65a13.32,13.32,0,0,0-.11-2c.62,0,1.09,0,1.92,0h3.59c2.28,0,3.59,1.14,3.59,3.12a3.15,3.15,0,0,1-.76,2.24,3.25,3.25,0,0,1-1.67.87c.94.3,1.23.72,2.71,4.22.13.27.5,1.08.71,1.49ZM43.32,16a2.06,2.06,0,0,0,1.43-.54,1.81,1.81,0,0,0,.48-1.32c0-1.08-.61-1.64-1.85-1.64H40.31V16Z"/><path class="cls-2" d="M53.28,22.68a13.55,13.55,0,0,0,.12-1.93v-3l-3.46-5.49c-.23-.36-.57-.86-1-1.55h2.62a6.18,6.18,0,0,0,.72,1.47l2.18,3.69,2.2-3.67a6.74,6.74,0,0,0,.71-1.49h2.61c-.21.3-.78,1.13-1,1.55l-3.46,5.5v3a12.3,12.3,0,0,0,.12,1.93Z"/><path class="cls-2" d="M8.45,31.1h1.93a5.46,5.46,0,0,0,1-.06v1a8.66,8.66,0,0,0-1,0H5.6a8.45,8.45,0,0,0-1,0V31a5.46,5.46,0,0,0,1,.06h1.8V27.81H6.2a8.45,8.45,0,0,0-1,0v-1a5.4,5.4,0,0,0,1,.06H9.77a5.46,5.46,0,0,0,1-.06v1a8.56,8.56,0,0,0-1,0H8.45Z"/><path class="cls-2" d="M13,31.54A7.63,7.63,0,0,0,15.33,31a5.32,5.32,0,0,0,2.37-2,6.69,6.69,0,0,0,.82-1.6,3.28,3.28,0,0,0,.84.78,7,7,0,0,1-2.53,3.14,8.88,8.88,0,0,1-3,1.2,2.73,2.73,0,0,0-.52.13Zm.68-5a10.8,10.8,0,0,1,2.06,1.54L15,29a8.09,8.09,0,0,0-2-1.62Z"/><path class="cls-2" d="M22.12,32.86a5.39,5.39,0,0,0,.05-.9V26.84a5.46,5.46,0,0,0-.05-.82h1.09a5.76,5.76,0,0,0,0,.84v1.49A23,23,0,0,1,26.81,30l-.56.94a18.46,18.46,0,0,0-2.83-1.53,1.69,1.69,0,0,1-.27-.13,4.89,4.89,0,0,1,0,.54V32c0,.42,0,.63,0,.89Z"/><path class="cls-2" d="M30.72,26.2a4.33,4.33,0,0,0,0,.72v2.21a4.06,4.06,0,0,0,0,.7h-1.1a4.75,4.75,0,0,0,0-.72v-2.2a4.33,4.33,0,0,0,0-.72Zm3.63,0a4,4,0,0,0,0,.74V28a9.64,9.64,0,0,1-.21,2.42,3.08,3.08,0,0,1-1.57,1.87,6.74,6.74,0,0,1-1.56.61,2.91,2.91,0,0,0-.56-.95,4.27,4.27,0,0,0,1.72-.64,2.27,2.27,0,0,0,1.11-2c0-.34,0-.69,0-1.33V27a4.37,4.37,0,0,0,0-.76Z"/><path class="cls-2" d="M36.57,28.88a7.77,7.77,0,0,0,1.29.05h4.26a7.84,7.84,0,0,0,1.3-.05V30a8.76,8.76,0,0,0-1.3,0H37.87a8.76,8.76,0,0,0-1.3,0Z"/><path class="cls-2" d="M49.15,28.93s0,.1,0,.2a2.46,2.46,0,0,1,.25,1.12,2.55,2.55,0,0,1-1.19,2.16,5.6,5.6,0,0,1-1.45.66,2.64,2.64,0,0,0-.56-.91,3.77,3.77,0,0,0,1.36-.46,1.67,1.67,0,0,0,.92-1.17,1.3,1.3,0,0,1-1.17.57,1.47,1.47,0,0,1-.93-.29,1.23,1.23,0,0,1-.55-1.08,1.47,1.47,0,0,1,1.59-1.45,1.34,1.34,0,0,1,.83.24.28.28,0,0,1,0-.1v-.68c-1.15,0-1.9.06-2.25.08-1.21.09-1.21.09-1.42.12l0-1a2.89,2.89,0,0,0,.4,0l1.35,0,1.26,0,.68,0a4.45,4.45,0,0,0,0-1h1a6.78,6.78,0,0,0,0,.95c1.39,0,2,0,2.31-.06v.92c-.3,0-.68,0-1.35,0l-1,0v1.2ZM47.52,29a.71.71,0,0,0-.75.64.64.64,0,0,0,.68.64.74.74,0,0,0,.79-.72C48.24,29.23,48,29,47.52,29Z"/><path class="cls-2" d="M55.17,29.2a3.86,3.86,0,0,1,1.68-.37c1.36,0,2.24.7,2.24,1.8A2,2,0,0,1,58,32.4a4,4,0,0,1-1.93.45,2.7,2.7,0,0,1-1.55-.37,1.12,1.12,0,0,1-.48-.92,1.23,1.23,0,0,1,1.37-1.14,1.73,1.73,0,0,1,1.39.66,2.28,2.28,0,0,1,.37.72c.66-.25.95-.6.95-1.16s-.62-1-1.59-1A4.93,4.93,0,0,0,53.24,31l-.54-.86a7.87,7.87,0,0,0,1.12-.76,23.3,23.3,0,0,0,2.39-2.08l.15-.14h0c-.3,0-.82.07-2.26.14a2.34,2.34,0,0,0-.39,0l0-1a7.75,7.75,0,0,0,1,.05c.68,0,1.65,0,2.43-.1a1.13,1.13,0,0,0,.49-.1l.5.7a1.67,1.67,0,0,0-.42.33c-.4.37-1,.89-1.25,1.12s-.72.55-.88.65a2.3,2.3,0,0,1-.33.21Zm.24,2c-.29,0-.48.14-.48.37s.36.5,1,.5a2.24,2.24,0,0,0,.41,0C56.16,31.48,55.85,31.19,55.41,31.19Z"/></g></g></svg>