<svg xmlns="http://www.w3.org/2000/svg" width="1170" height="200" viewBox="0 0 1170 200"><defs><style>.cls-1{fill:#d688aa;}.cls-2{fill:#fff;}</style></defs><title>flow_map</title><g id="レイヤー_2" data-name="レイヤー 2"><g id="レイヤー_1-2" data-name="レイヤー 1"><rect class="cls-1" width="200" height="200" rx="10" ry="10"/><rect class="cls-1" x="323.33" width="200" height="200" rx="10" ry="10"/><rect class="cls-1" x="646.67" width="200" height="200" rx="10" ry="10"/><rect class="cls-1" x="970" width="200" height="200" rx="10" ry="10"/><path class="cls-2" d="M82.12,83.64a11.25,11.25,0,0,0-.21-2.2H84.6a8,8,0,0,0-.21,2.24V85.5h9.92a24.08,24.08,0,0,0,3.78-.21V87.7a26.82,26.82,0,0,0-3.78-.18H71.82c0,9.68-.21,13.62-.84,17.32a22.21,22.21,0,0,1-2.72,7.93,9.31,9.31,0,0,0-2-1.6c2.62-4.47,3.25-8.53,3.25-21.13a40,40,0,0,0-.17-4.72,26.52,26.52,0,0,0,3.52.18h9.22Zm-10,24.77c1.72-3.08,2.48-6.08,3-11.42l2.2.59c-.66,5.66-1.29,8.1-3.07,12.09ZM82.51,94a17.25,17.25,0,0,0-.21,3.18v12.5c0,.56.1.73.56.91a11.42,11.42,0,0,0,2.83.21c3,0,3.87-.21,4.22-1a19.65,19.65,0,0,0,.6-5.41v-.87a8,8,0,0,0,2.23.87c-.24,4.37-.66,6.53-1.43,7.37s-2.1,1.08-5.48,1.08c-4.93,0-5.77-.35-5.77-2.41V97.09A17,17,0,0,0,79.85,94Zm6.25,2.16a30.8,30.8,0,0,0-8.42-5.76l1.47-1.54a44.9,44.9,0,0,1,8.49,5.52Zm7.37,13a37,37,0,0,0-4-11.56l2-.87a50.82,50.82,0,0,1,4.26,11.45Z"/><path class="cls-2" d="M108.42,104.81a39.81,39.81,0,0,1-5.28,2.48,5.59,5.59,0,0,0-1.36-1.85,27.37,27.37,0,0,0,5.07-1.85,25.78,25.78,0,0,0,4.26-2.59h-5.73a25.15,25.15,0,0,0-3.53.21V99a24.63,24.63,0,0,0,3.56.21H113a12.5,12.5,0,0,0,1.5-2H109.4c-1.05,0-1.93,0-2.76.1.07-.91.1-1.57.1-2.37V90.56c0-.8,0-1.54-.1-2.41a24.28,24.28,0,0,0,2.76.1h16.41a24.52,24.52,0,0,0,2.76-.1c-.07.8-.1,1.54-.1,2.41v4.37c0,.83,0,1.53.1,2.37-.84-.07-1.75-.1-2.79-.1h-9a12,12,0,0,1-1.4,2h14.29a24.25,24.25,0,0,0,3.56-.21v2.23a24.08,24.08,0,0,0-3.53-.21h-5.34c2.65,2.17,5.24,3.32,9.5,4.26a7,7,0,0,0-1.26,2,30.33,30.33,0,0,1-5.52-2.3c0,.31-.07.48-.1,1-.32,3.07-.63,4.71-1.15,5.76s-1.54,1.43-3.57,1.43c-1,0-2.23-.07-3.63-.21a6.37,6.37,0,0,0-.52-2.13,21.43,21.43,0,0,0,3.87.46c1.47,0,1.89-.25,2.2-1.16a15.42,15.42,0,0,0,.67-3.94H117a11.59,11.59,0,0,1-4,4.33c-2.1,1.4-3.53,2-7.62,2.93a6.23,6.23,0,0,0-1.25-2,19.27,19.27,0,0,0,7.26-2.27,9.76,9.76,0,0,0,3.32-3h-2.93a20.44,20.44,0,0,0-3.39.17Zm2.79-21.1a11.44,11.44,0,0,0-.14-2h2.38a11.28,11.28,0,0,0-.11,2.06v.35h8v-.35a13,13,0,0,0-.14-2.06h2.41a11.42,11.42,0,0,0-.14,2.06v.35h5.79a25.46,25.46,0,0,0,3.57-.21v2.27a19.78,19.78,0,0,0-3.53-.28h-5.83a8.77,8.77,0,0,0,.14,1.71h-2.38a7.4,7.4,0,0,0,.11-1.71h-8a7,7,0,0,0,.11,1.68h-2.38a10.35,10.35,0,0,0,.14-1.68h-5.62a19.78,19.78,0,0,0-3.53.28V83.89a25.31,25.31,0,0,0,3.56.21h5.59Zm-2.44,8.21h17.67v-2H108.77Zm0,3.67h17.67V93.46H108.77Zm4.92,5.41a22.17,22.17,0,0,1-4.47,3.36c1,.07,1.19.07,2.41.07h4a7.29,7.29,0,0,0,.49-2.66l2.48.18c-.11.34-.11.34-.53,1.74-.1.32-.14.42-.24.74h5.83c1.82,0,1.82,0,2.52,0a22.69,22.69,0,0,1-4.44-3.39Z"/><path class="cls-2" d="M415.67,90.14a34.19,34.19,0,0,0,4.16-.17,37.68,37.68,0,0,0-.21,4.4v15.12a30.16,30.16,0,0,0,.21,4.19h-2.45v-2H393.74v2h-2.45a26.15,26.15,0,0,0,.21-4.26v-15a41.08,41.08,0,0,0-.21-4.4,33.33,33.33,0,0,0,4.09.17h6.53a20.34,20.34,0,0,0,2.06-5H393.88a28,28,0,0,0-3.71.21V82.91a26.72,26.72,0,0,0,3.67.21h23.44a27.82,27.82,0,0,0,3.7-.21v2.45a27.1,27.1,0,0,0-3.7-.21H406.35a24.74,24.74,0,0,1-2,5Zm-21.93,1.92v17.68h5.73V92.06Zm15.57,0H401.6V96.6h7.71ZM401.6,103h7.71V98.49H401.6Zm0,6.78h7.71v-4.9H401.6Zm9.85,0h5.93V92.06h-5.93Z"/><path class="cls-2" d="M434.81,98.14c-1.44.73-2,1-3.46,1.61v11c0,1.29-.39,1.92-1.33,2.2a14,14,0,0,1-2.86.28,8.09,8.09,0,0,1-1.19-.07,7.31,7.31,0,0,0-.59-2.16,15.88,15.88,0,0,0,2.37.21c1.12,0,1.43-.18,1.43-.84v-9.71l-2.3.91a13.29,13.29,0,0,0-1.92.76l-.63-2.4a23.64,23.64,0,0,0,4.85-1.47V90.77h-1.81a18.73,18.73,0,0,0-2.59.14V88.6a15,15,0,0,0,2.62.21h1.78V85.46a21.51,21.51,0,0,0-.24-3.53h2.65a20.8,20.8,0,0,0-.24,3.5v3.38h1.11a14.4,14.4,0,0,0,2.42-.14v2.24a14.69,14.69,0,0,0-2.38-.14h-1.15v6.81A36.37,36.37,0,0,0,434.67,96V93.88a16.83,16.83,0,0,0,3.1.17h9.15a21.28,21.28,0,0,0,2.83-5.9l2.07.63a28.94,28.94,0,0,1-2.73,5.27h3.81a19.84,19.84,0,0,0,3.42-.17v2.27a20,20,0,0,0-3.39-.18H437.81a23.41,23.41,0,0,0-3,.14Zm16.45,3.67a14.42,14.42,0,0,1-4,6.07,64,64,0,0,1,8,4l-1.64,1.85a49.14,49.14,0,0,0-8.14-4.43c-3.14,2.06-6.56,3.24-11.56,4.08a6.38,6.38,0,0,0-1.15-2.06,24.11,24.11,0,0,0,10.51-3,63.2,63.2,0,0,0-6.91-2.3,27.2,27.2,0,0,0,3.49-4.26h-2.1a19.73,19.73,0,0,0-3.28.17V99.71a19.5,19.5,0,0,0,3.28.18h3.36a16.64,16.64,0,0,0,1.67-3.46l2.38.52c-.25.49-.45.84-1.68,2.94h9.5a19.37,19.37,0,0,0,3.39-.18V102a19.89,19.89,0,0,0-3.35-.17Zm.7-16a20.88,20.88,0,0,0,3.49-.18v2.28a19.44,19.44,0,0,0-3.39-.18H439a19.41,19.41,0,0,0-3.35.18V85.63a20.91,20.91,0,0,0,3.46.18H444V84.69a14,14,0,0,0-.21-2.65h2.55a17,17,0,0,0-.18,2.69v1.08Zm-11.53,2.48a28.2,28.2,0,0,1,2.13,4.64l-2,.74A22.47,22.47,0,0,0,438.54,89Zm1.78,13.52a31.43,31.43,0,0,1-2.55,3.38c2.72.84,3.74,1.19,5.55,1.89a10.94,10.94,0,0,0,3.78-5.27Z"/><path class="cls-2" d="M715.45,90.8a16.44,16.44,0,0,0-2.59.21V88.64a15.28,15.28,0,0,0,2.62.21h2V85.5a21.75,21.75,0,0,0-.24-3.53h2.65a20.76,20.76,0,0,0-.24,3.49v3.39h.87a10,10,0,0,0,2.37-.18v2.27a16.16,16.16,0,0,0-2.34-.14h-.9v6.64a33.62,33.62,0,0,0,3.21-1.57v2.2c-1.29.63-1.68.8-3.21,1.5v11c0,2.06-.74,2.55-3.74,2.55-.52,0-1.36,0-2.17-.07a6.22,6.22,0,0,0-.49-2.2,20.11,20.11,0,0,0,2.94.24c1,0,1.29-.21,1.29-1v-9.64c-1.19.49-1.61.63-2.37.95a15.3,15.3,0,0,0-1.72.77l-.62-2.41a22.84,22.84,0,0,0,4.71-1.47V90.8Zm25.28,7.86a22.69,22.69,0,0,0,3.32-.21v2.31a23.68,23.68,0,0,0-3.32-.21h-6.25A24.4,24.4,0,0,0,745,109.14a8.12,8.12,0,0,0-1.43,2.13,28.24,28.24,0,0,1-9.92-9.11,28.69,28.69,0,0,1,.17,3.35V110a26.49,26.49,0,0,0,.21,3.57h-2.48a27.23,27.23,0,0,0,.21-3.57v-4.43a29.77,29.77,0,0,1,.18-3.39,25.3,25.3,0,0,1-9.33,8.91,6.35,6.35,0,0,0-1.61-1.89,24.69,24.69,0,0,0,10.1-8.66h-4.89a21.71,21.71,0,0,0-3.39.17V98.49a20.73,20.73,0,0,0,3.39.17h5.55v-.42a9.42,9.42,0,0,0-.17-2.23H734a9.12,9.12,0,0,0-.18,2.23v.42ZM742.9,84c-.46.14-.46.14-1.57.53a63.54,63.54,0,0,1-17.33,3,8.1,8.1,0,0,0-.87-2,58.05,58.05,0,0,0,12.33-1.4,20.68,20.68,0,0,0,5.83-2ZM727.08,96.15a25.91,25.91,0,0,0-2.9-6.53l1.81-.74a27,27,0,0,1,3,6.43Zm6-1.26a20.11,20.11,0,0,0-2.48-6.32l1.92-.59a21.87,21.87,0,0,1,2.58,6.32Zm3.56.77a25.26,25.26,0,0,0,4.54-8.87l2.1,1a35.57,35.57,0,0,1-4.82,8.7Z"/><path class="cls-2" d="M764.76,108.44a25.24,25.24,0,0,0,.17,3.81h-2.51a25.81,25.81,0,0,0,.17-3.81v-6.6H753c-.52,5.28-1.43,8.14-3.77,11.46a8.21,8.21,0,0,0-2-1.5,14.1,14.1,0,0,0,2.83-5.91c.77-3.21,1.08-8.31,1.08-16.94a53,53,0,0,0-.14-5.69c1,.1,2.1.14,3.85.14h18.79a35.08,35.08,0,0,0,3.7-.14,28.27,28.27,0,0,0-.14,3.42v23.44c0,2.2-.8,2.72-4.19,2.72-1.12,0-2.87-.07-4.33-.17a8,8,0,0,0-.53-2.27,45.71,45.71,0,0,0,5,.38c1.54,0,1.85-.17,1.85-1v-7.9H764.76ZM753.33,93.6c0,1,0,1.82,0,2.3,0,2.17,0,2.31-.14,3.92h9.43V93.6Zm9.26-8.1H753.4v4.15l0,2h9.22ZM775,91.61V85.5H764.76v6.11Zm-10.23,8.21H775V93.6H764.76Z"/><path class="cls-2" d="M1046.26,86.12c-.67,0-1.51.07-2.66.18V83.78a13.07,13.07,0,0,0,2.66.18h4.61a16.48,16.48,0,0,0,3.24-.21,19,19,0,0,0-.14,2.3,25.49,25.49,0,0,0,3,12.19,31.6,31.6,0,0,0,5.24,7.23,28.34,28.34,0,0,0,6.53,5.07,7.79,7.79,0,0,0-2,2.23,32.82,32.82,0,0,1-6.78-6,32,32,0,0,1-5-7.54,27.46,27.46,0,0,1-2.2-6.47,30.25,30.25,0,0,1-4.89,11.32,33.13,33.13,0,0,1-4.72,5.31,32.57,32.57,0,0,1-4.4,3.42,6.39,6.39,0,0,0-1.88-2.06,29.27,29.27,0,0,0,8.1-6.88,28.38,28.38,0,0,0,5.38-10.16,30.81,30.81,0,0,0,1.12-7.62Z"/><path class="cls-2" d="M1079.57,110.08a22.7,22.7,0,0,0,.21,3.43h-2.58a25.5,25.5,0,0,0,.2-3.46V99.19a35.78,35.78,0,0,1-4.82,4.12,6.47,6.47,0,0,0-1.29-2,29.76,29.76,0,0,0,6.29-5.17,23.41,23.41,0,0,0,4.33-6.49h-6.53a23.13,23.13,0,0,0-2.8.14V87.52a22.07,22.07,0,0,0,2.73.14h2.06V84.41a21,21,0,0,0-.17-2.69h2.61a15,15,0,0,0-.2,2.73v3.21h2a12.94,12.94,0,0,0,2-.1l1.08,1.22c-.24.38-.45.77-.84,1.5a30.42,30.42,0,0,1-3.84,5.94,21.21,21.21,0,0,0,5.62,4.75,8.06,8.06,0,0,0-1.18,1.92,22.58,22.58,0,0,1-4.93-4.4ZM1091.69,85a21.33,21.33,0,0,0-.24-3.18h2.76A16.42,16.42,0,0,0,1094,85v7.54h4.58a22.55,22.55,0,0,0,3.42-.21v2.45a33.35,33.35,0,0,0-3.42-.18H1094v14.92h5.52a24.29,24.29,0,0,0,3.77-.21v2.62a23.07,23.07,0,0,0-3.77-.25h-12.57a22.45,22.45,0,0,0-3.74.25v-2.62a24.2,24.2,0,0,0,3.77.21h4.75V94.61h-3.46a33.82,33.82,0,0,0-3.42.18V92.34a22.28,22.28,0,0,0,3.42.21h3.46Z"/><polygon class="cls-1" points="299.17 98 224.17 54.7 224.17 141.3 299.17 98"/><polygon class="cls-1" points="622.5 98 547.5 54.7 547.5 141.3 622.5 98"/><polygon class="cls-1" points="945.83 98 870.83 54.7 870.83 141.3 945.83 98"/></g></g></svg>