<svg xmlns="http://www.w3.org/2000/svg" width="414" height="24.55" viewBox="0 0 414 24.55"><defs><style>.cls-1{fill:none;stroke:#000;stroke-miterlimit:10;stroke-width:1.16px;}</style></defs><title>flow_sm</title><g id="レイヤー_2" data-name="レイヤー 2"><g id="レイヤー_1-2" data-name="レイヤー 1"><path d="M140.63,10.84a11,11,0,0,0,2.09.13H144a12,12,0,0,0,2.06-.13,22.54,22.54,0,0,0-.1,2.85V19a4.28,4.28,0,0,0,2.33,2.47c1.36.6,3,.82,6.17.82a79.91,79.91,0,0,0,10.94-.55,7.22,7.22,0,0,0-.62,2c-2.8.14-5.84.19-9.13.19-4.75,0-6.16-.16-7.79-.92A7.22,7.22,0,0,1,145,20.4c-.81.84-1.27,1.3-1.9,1.85l-1.27,1.05c-.49.41-.49.41-.87.76l-.9-1.79A15.19,15.19,0,0,0,144.27,19V12.47h-1.65a10.51,10.51,0,0,0-2,.13Zm1.71-10a35,35,0,0,1,4,4.51L145,6.57A24.65,24.65,0,0,0,141.09,2Zm8.34,12.31a14.64,14.64,0,0,0-2.52.13V11.71a13.71,13.71,0,0,0,2.49.13h1.06a12.94,12.94,0,0,0-.13-1.74h1.85a12.44,12.44,0,0,0-.11,1.74h4.48a13.7,13.7,0,0,0-.14-1.74h1.85c0,.57-.08.93-.11,1.74h1.77a14,14,0,0,0,2.49-.13v1.57a15.39,15.39,0,0,0-2.55-.13H159.4v2.58h2.53a15.69,15.69,0,0,0,2.66-.14v1.6a16.18,16.18,0,0,0-2.66-.13H149.51a13.85,13.85,0,0,0-2.47.13v-1.6a13.37,13.37,0,0,0,2.45.14h2.25V13.15Zm4-8.94a11.2,11.2,0,0,0,.05,1.44,15.75,15.75,0,0,0-1.68-.08h-4V7.31c0,.68.16.76,1.95.76,2,0,2.39-.08,2.58-.41A4.36,4.36,0,0,0,153.91,6a4.16,4.16,0,0,0,1.42.65c-.17,1.36-.33,1.88-.79,2.29s-1.11.46-3.32.46c-3.17,0-3.61-.19-3.61-1.6v-2a10.22,10.22,0,0,0-.08-1.5,11.73,11.73,0,0,0,1.71.09h4v-2h-3.7a12.65,12.65,0,0,0-2.14.13V.82a12.94,12.94,0,0,0,2.14.13h2.88a15.62,15.62,0,0,0,2.39-.11,12.67,12.67,0,0,0-.05,1.47Zm-.65,13.93a17.13,17.13,0,0,1-5,3.29,3.84,3.84,0,0,0-1.25-1.22,13.89,13.89,0,0,0,4.92-2.94Zm-.76-2.41h4.51V13.15h-4.51Zm10.4-11.52a11.45,11.45,0,0,0,.05,1.44,15.89,15.89,0,0,0-1.68-.08h-4V7.31c0,.43.05.54.32.65a6.48,6.48,0,0,0,1.61.13c1.87,0,2.52-.08,2.74-.29a3.65,3.65,0,0,0,.38-1.8,5.16,5.16,0,0,0,1.44.65c-.33,2.64-.52,2.75-4.35,2.75-3.26,0-3.66-.19-3.66-1.63v-2a10.79,10.79,0,0,0-.11-1.53,12,12,0,0,0,1.74.09h4v-2h-3.7a12.65,12.65,0,0,0-2.14.13V.82A12.94,12.94,0,0,0,158.5,1h2.88a15.62,15.62,0,0,0,2.39-.11,12.23,12.23,0,0,0-.05,1.47ZM158.4,17.36a17.68,17.68,0,0,0,5.7,2.82,6.7,6.7,0,0,0-1.17,1.39,19.56,19.56,0,0,1-5.81-3.34Z"/><path d="M171,9.21a24.46,24.46,0,0,0-3.09.16V7.5a19.44,19.44,0,0,0,3.07.16h6.9V4.56h-4.22a21.34,21.34,0,0,0-3,.14V2.88a18.4,18.4,0,0,0,3,.16h4.22V2.55A16.5,16.5,0,0,0,177.7,0h2a13,13,0,0,0-.16,2.55V3h2.61a18.87,18.87,0,0,0,3-.16V4.7a18,18,0,0,0-2.87-.14h-2.72v3.1h2.23a30,30,0,0,0,5.51-4.89A10.34,10.34,0,0,0,188.78.71l1.58,1.14c-.16.19-.22.24-.46.54a43.63,43.63,0,0,1-5.65,5.27h4.59a19.19,19.19,0,0,0,3-.16V9.37a23.42,23.42,0,0,0-3-.16h-6.66A42,42,0,0,1,177.59,12c-.11.38-.13.49-.21.84,5.83-.65,9.66-1.35,11-2l1.12,1.6a104.74,104.74,0,0,1-12.61,1.93c-.24.73-.38,1.09-.7,1.93h9.07a24.17,24.17,0,0,0,3.07-.11,11.69,11.69,0,0,0-.22,1.55A20.69,20.69,0,0,1,187,23.22c-.43,1-1.22,1.33-3,1.33a44,44,0,0,1-4.53-.3,6.38,6.38,0,0,0-.36-1.82A30.08,30.08,0,0,0,184,23c1,0,1.36-.27,1.66-1.31a19.47,19.47,0,0,0,.65-3.83H175.58c-.24.52-.4.9-.92,1.91l-1.87-.3A31.06,31.06,0,0,0,175.61,13a70.13,70.13,0,0,1-7.31,3.12,4.53,4.53,0,0,0-1-1.6,53.59,53.59,0,0,0,12.12-5.35Z"/><path d="M216.81,4.56c-.19.3-.19.3-.57,1.69C214.8,11.46,212.73,15,209.42,18a24.93,24.93,0,0,1-8.53,5.1,5.2,5.2,0,0,0-1.33-1.9,20.09,20.09,0,0,0,6.14-2.88c4.45-3,7-6.84,8.55-12.93H200.43a18.19,18.19,0,0,0-3,.17V3.4a16.54,16.54,0,0,0,3.07.19h13.36a3.64,3.64,0,0,0,1.74-.22Z"/><path d="M226.88,20.42v1.93h-2.09a14.18,14.18,0,0,0,.11-2V5.57a14.13,14.13,0,0,0-.11-2.12,20.86,20.86,0,0,0,2.12.08h14.47a14.36,14.36,0,0,0,2.12-.08,15,15,0,0,0-.08,2.12V20.26c0,.82,0,1.52.08,2.09h-2.06V20.42Zm14.56-15.1H226.88V18.66h14.56Z"/><path d="M250.1,11.11a18.77,18.77,0,0,0,3.36.16h15.78a21.55,21.55,0,0,0,3.29-.13v2.2a28.73,28.73,0,0,0-3.31-.11H253.46a27.42,27.42,0,0,0-3.36.11Z"/><line class="cls-1" y1="11.78" x2="133.24" y2="11.78"/><line class="cls-1" x1="280.76" y1="11.78" x2="414" y2="11.78"/></g></g></svg>