<svg xmlns="http://www.w3.org/2000/svg" width="1170" height="31.58" viewBox="0 0 1170 31.58"><defs><style>.cls-1{fill:none;stroke:#000;stroke-miterlimit:10;}</style></defs><title>flow</title><g id="レイヤー_2" data-name="レイヤー 2"><g id="レイヤー_1-2" data-name="レイヤー 1"><path d="M502.15,13.94a14.22,14.22,0,0,0,2.69.17h1.64a15.66,15.66,0,0,0,2.66-.17A26.63,26.63,0,0,0,509,17.6v6.88a5.49,5.49,0,0,0,3,3.18c1.75.77,3.81,1.05,7.93,1.05A103,103,0,0,0,534,28a9.39,9.39,0,0,0-.81,2.52c-3.59.17-7.51.24-11.73.24-6.11,0-7.93-.21-10-1.19a9.14,9.14,0,0,1-3.63-3.35c-1.05,1.08-1.64,1.68-2.44,2.38L503.73,30c-.63.52-.63.52-1.12,1l-1.15-2.31a19.49,19.49,0,0,0,5.37-4.16V16H504.7a13.48,13.48,0,0,0-2.55.18Zm2.2-12.86a46,46,0,0,1,5.17,5.8l-1.78,1.57a31.73,31.73,0,0,0-5-5.93Zm10.73,15.83a19,19,0,0,0-3.25.17v-2a17.58,17.58,0,0,0,3.21.18h1.36a17.87,17.87,0,0,0-.17-2.24h2.37a17.16,17.16,0,0,0-.14,2.24h5.77a16.56,16.56,0,0,0-.18-2.24h2.38c-.07.74-.11,1.19-.14,2.24h2.27a18,18,0,0,0,3.21-.18v2a20,20,0,0,0-3.28-.17h-2.2v3.31h3.25a20.63,20.63,0,0,0,3.42-.17v2.06a20.66,20.66,0,0,0-3.42-.18h-16a17.61,17.61,0,0,0-3.18.18V20.05a17.4,17.4,0,0,0,3.14.17h2.9V16.91Zm5.2-11.5a13.41,13.41,0,0,0,.07,1.86,18.88,18.88,0,0,0-2.16-.11h-5.14V9.4c0,.87.21,1,2.52,1,2.51,0,3.07-.1,3.31-.52a5.51,5.51,0,0,0,.35-2.13,5.89,5.89,0,0,0,1.82.84c-.21,1.74-.42,2.41-1,2.93s-1.44.59-4.26.59c-4.09,0-4.65-.24-4.65-2.06V7.41a16.17,16.17,0,0,0-.1-1.93,16.26,16.26,0,0,0,2.2.11h5.1V3h-4.75a15.17,15.17,0,0,0-2.76.17V1.05a15.37,15.37,0,0,0,2.76.17h3.7a19.25,19.25,0,0,0,3.07-.14A15,15,0,0,0,520.28,3Zm-.84,17.92A21.68,21.68,0,0,1,513,27.56,4.94,4.94,0,0,0,511.41,26a17.82,17.82,0,0,0,6.32-3.78Zm-1-3.11h5.8V16.91h-5.8ZM531.84,5.41a13.64,13.64,0,0,0,.07,1.86,18.88,18.88,0,0,0-2.16-.11h-5.14V9.4c0,.56.07.69.42.83a7.71,7.71,0,0,0,2.06.18c2.41,0,3.25-.11,3.53-.39a4.71,4.71,0,0,0,.49-2.3,7.27,7.27,0,0,0,1.85.84c-.42,3.39-.66,3.52-5.59,3.52-4.19,0-4.71-.24-4.71-2.09V7.44a14.42,14.42,0,0,0-.14-2,16.89,16.89,0,0,0,2.23.11h5.14V3h-4.75a15.17,15.17,0,0,0-2.76.17V1.05a15.43,15.43,0,0,0,2.76.17h3.7a19.25,19.25,0,0,0,3.07-.14A14.44,14.44,0,0,0,531.84,3ZM525,22.32A23,23,0,0,0,532.33,26a8.93,8.93,0,0,0-1.5,1.78,25.27,25.27,0,0,1-7.48-4.29Z"/><path d="M541.2,11.84a31.91,31.91,0,0,0-4,.21V9.64a25.14,25.14,0,0,0,3.95.21H550v-4h-5.41a27.94,27.94,0,0,0-3.81.17V3.7a23.58,23.58,0,0,0,3.81.21H550V3.28A21.55,21.55,0,0,0,549.82,0h2.59a15.76,15.76,0,0,0-.21,3.28v.63h3.35a24.28,24.28,0,0,0,3.84-.21V6a23.74,23.74,0,0,0-3.7-.17H552.2v4h2.86a38.6,38.6,0,0,0,7.09-6.29A12.57,12.57,0,0,0,564.07.91l2,1.47c-.21.24-.28.31-.59.69a55.79,55.79,0,0,1-7.27,6.78h5.9A24.78,24.78,0,0,0,568,9.64v2.41a30.3,30.3,0,0,0-3.85-.21h-8.55a54.81,54.81,0,0,1-5.91,3.63c-.14.49-.17.63-.28,1.09,7.51-.84,12.44-1.75,14.18-2.62L565,16a134.21,134.21,0,0,1-16.21,2.48c-.31.94-.49,1.39-.91,2.48h11.67a31.44,31.44,0,0,0,3.94-.14,16.56,16.56,0,0,0-.27,2,27.25,27.25,0,0,1-1.4,7.05c-.56,1.26-1.57,1.72-3.91,1.72a58.12,58.12,0,0,1-5.84-.39,8.27,8.27,0,0,0-.45-2.34,38.89,38.89,0,0,0,6.32.7c1.29,0,1.75-.35,2.13-1.68a24.51,24.51,0,0,0,.84-4.92H547.1c-.31.66-.52,1.15-1.19,2.44L543.5,25a39.18,39.18,0,0,0,3.63-8.24,91.38,91.38,0,0,1-9.39,4,6.16,6.16,0,0,0-1.22-2.06,68,68,0,0,0,15.57-6.88Z"/><path d="M600.11,5.87c-.24.38-.24.38-.73,2.16-1.85,6.71-4.51,11.29-8.77,15.16a32.08,32.08,0,0,1-11,6.57,6.74,6.74,0,0,0-1.72-2.45,25.76,25.76,0,0,0,7.9-3.7c5.73-3.81,9-8.8,11-16.62H579.05a23.64,23.64,0,0,0-3.91.21V4.37a21.07,21.07,0,0,0,4,.24h17.18a4.65,4.65,0,0,0,2.24-.28Z"/><path d="M613.06,26.27v2.48h-2.68a19.12,19.12,0,0,0,.13-2.62v-19a18.74,18.74,0,0,0-.13-2.72,25.25,25.25,0,0,0,2.72.1h18.61a19,19,0,0,0,2.73-.1,17.94,17.94,0,0,0-.11,2.72v18.9c0,1,0,2,.11,2.69h-2.65V26.27ZM631.79,6.85H613.06V24h18.73Z"/><path d="M642.92,14.29a25.18,25.18,0,0,0,4.33.21h20.29a27.25,27.25,0,0,0,4.23-.18v2.83a38.55,38.55,0,0,0-4.26-.14H647.25a36.88,36.88,0,0,0-4.33.14Z"/><line class="cls-1" y1="16.16" x2="493" y2="16.16"/><line class="cls-1" x1="677" y1="16.16" x2="1170" y2="16.16"/></g></g></svg>