<svg xmlns="http://www.w3.org/2000/svg" width="1170" height="31.89" viewBox="0 0 1170 31.89"><defs><style>.cls-1{fill:none;stroke:#000;stroke-miterlimit:10;}</style></defs><title>kaisya</title><g id="レイヤー_2" data-name="レイヤー 2"><g id="レイヤー_1-2" data-name="レイヤー 1"><path d="M534.31.25a23.59,23.59,0,0,0,5.87,6.25,37.47,37.47,0,0,0,9.64,5.58,7.35,7.35,0,0,0-1.36,2.24,47.27,47.27,0,0,1-9.71-6.08,28.81,28.81,0,0,1-5.59-6A30,30,0,0,1,527.92,8a38.78,38.78,0,0,1-9.43,6.15,6.86,6.86,0,0,0-1.47-2,36.9,36.9,0,0,0,9.26-5.7A25.6,25.6,0,0,0,531.83.25ZM522.5,19.73a29.91,29.91,0,0,0-4,.21V17.43a30,30,0,0,0,4,.21H544a29.49,29.49,0,0,0,4-.21v2.51a30.22,30.22,0,0,0-4-.21H531.48A51.47,51.47,0,0,1,527.11,28c4.82-.32,8.46-.67,13.63-1.3-2.1-2.26-2.73-2.89-4.27-4.33l1.82-1.11a75,75,0,0,1,8.45,9.22l-1.92,1.43c-1.36-1.92-1.81-2.52-2.55-3.42-6.21.83-11.49,1.39-16.94,1.81a41.69,41.69,0,0,0-5.9.63L519,28.26a16.19,16.19,0,0,0,1.78.1c.56,0,.56,0,3.71-.21a52.72,52.72,0,0,0,4.43-8.42ZM524.74,11a19.15,19.15,0,0,0,2.76.14h11.28a21.83,21.83,0,0,0,2.93-.14v2.34a20.6,20.6,0,0,0-2.93-.14H527.46a19.28,19.28,0,0,0-2.72.14Z"/><path d="M560.15,28.36a22.46,22.46,0,0,0,.21,3.42h-2.59a23.65,23.65,0,0,0,.21-3.45V17.46a35.11,35.11,0,0,1-4.82,4.13,6.47,6.47,0,0,0-1.29-2,30.07,30.07,0,0,0,6.29-5.17A23.84,23.84,0,0,0,562.49,8H556a25.36,25.36,0,0,0-2.8.14V5.8a24.21,24.21,0,0,0,2.73.14H558V2.69A19.21,19.21,0,0,0,557.77,0h2.62a14.8,14.8,0,0,0-.21,2.72V5.94h2a12.57,12.57,0,0,0,2-.11l1.08,1.23a15.35,15.35,0,0,0-.84,1.5,30.42,30.42,0,0,1-3.84,5.94,21.21,21.21,0,0,0,5.62,4.75,8.44,8.44,0,0,0-1.19,1.92,22.75,22.75,0,0,1-4.92-4.4ZM572.27,3.28A20,20,0,0,0,572,.11h2.76a16.36,16.36,0,0,0-.24,3.17v7.55h4.58a22.55,22.55,0,0,0,3.42-.21v2.44c-1.08-.1-2.2-.17-3.42-.17h-4.58V27.8h5.52a24.29,24.29,0,0,0,3.77-.21v2.62a24.45,24.45,0,0,0-3.77-.24H567.48a23.56,23.56,0,0,0-3.73.24V27.59a24.2,24.2,0,0,0,3.77.21h4.75V12.89h-3.46c-1.19,0-2.34.07-3.42.17V10.62a22.19,22.19,0,0,0,3.42.21h3.46Z"/><path d="M586.72,16c1-3.28,1.26-4.5,1.47-9.25l1.92.52a35,35,0,0,1-1.5,9.6Zm4.54,15.79a27.05,27.05,0,0,0,.25-4V3.53A22.06,22.06,0,0,0,591.26,0H594a22.43,22.43,0,0,0-.24,3.53V27.77a28.08,28.08,0,0,0,.24,4Zm4.54-20.89a20.41,20.41,0,0,0-1.6-4.75l1.57-.66a35.89,35.89,0,0,1,1.74,4.61Zm4.86-6.35a20.17,20.17,0,0,0-3.28.17V2.52a16.68,16.68,0,0,0,3.31.2h5.21A12,12,0,0,0,605.69,0h2.48A11.32,11.32,0,0,0,608,2.72h6.46a17.52,17.52,0,0,0,3.42-.2V4.68a21.88,21.88,0,0,0-3.38-.17H608V6.88h5.45a19.8,19.8,0,0,0,3.21-.17V8.77a20.93,20.93,0,0,0-3.25-.18H608v2.59h7a21.53,21.53,0,0,0,3.46-.21V13.2A27,27,0,0,0,615,13H600.17a22.61,22.61,0,0,0-3.56.21V11a21.76,21.76,0,0,0,3.56.21h5.73V8.59h-4.19a20.76,20.76,0,0,0-3.18.18V6.71a20,20,0,0,0,3.21.17h4.16V4.51Zm.24,23.4a23.94,23.94,0,0,0,.21,3.77H598.6a25,25,0,0,0,.17-3.77V18.06a24.62,24.62,0,0,0-.1-3,29.17,29.17,0,0,0,3.25.14h10.72a17.1,17.1,0,0,0,3.21-.18,33,33,0,0,0-.14,3.74v9.92c0,2.17-.66,2.73-3.28,2.73-.94,0-2.06-.08-3.56-.18a7.56,7.56,0,0,0-.56-2.2,24,24,0,0,0,3.91.42c1.15,0,1.36-.14,1.36-.94V25.74H600.9Zm12.68-8.32V16.94H600.9v2.65Zm0,4.37V21.34H600.9V24Z"/><path d="M635.06,9.57a14.23,14.23,0,0,0,2.75-.17v2.27a18.45,18.45,0,0,0-2.75-.14h-9.85a19.8,19.8,0,0,0-2.8.14V9.4a15.26,15.26,0,0,0,2.8.17h4.15V6h-3.28a17.71,17.71,0,0,0-2.62.14V4a17.27,17.27,0,0,0,2.62.14h3.28V3a19.15,19.15,0,0,0-.21-3h2.48a20.88,20.88,0,0,0-.21,3v1h2.8A17,17,0,0,0,636.8,4v2.2A17.46,17.46,0,0,0,634.22,6h-2.8V9.57Zm0,7.82a13.38,13.38,0,0,0,2.75-.17v2.27a18.7,18.7,0,0,0-2.75-.14h-3.64v3.53h3.22a17.64,17.64,0,0,0,2.58-.14V25a19.25,19.25,0,0,0-2.58-.14h-3.22V28.4a25.8,25.8,0,0,0,.21,3.31h-2.51a21.68,21.68,0,0,0,.24-3.31V24.83H625.8a19.19,19.19,0,0,0-2.62.14V22.74a17.89,17.89,0,0,0,2.62.14h3.56V19.35h-4.15a20.42,20.42,0,0,0-2.8.14V17.22a14.81,14.81,0,0,0,2.8.17h6.42a21.16,21.16,0,0,0,1.89-5.48l1.92.56a28.79,28.79,0,0,1-1.85,4.92ZM626.57,17a25.71,25.71,0,0,0-1.33-4.58l1.75-.55a27.3,27.3,0,0,1,1.39,4.5Zm14.25-2.55V28.22a23.33,23.33,0,0,0,.24,3.49h-2.55a21.8,21.8,0,0,0,.25-3.49V4.75a29.19,29.19,0,0,0-.18-3.28,22.24,22.24,0,0,0,3.29.17h8.06a18.43,18.43,0,0,0,2.94-.14c-.07.6-.07.6-.25,2.48a13.93,13.93,0,0,1-1,5c-.53.77-1.26,1-3,1a27.22,27.22,0,0,1-3.43-.25,9.68,9.68,0,0,0-.45-2.1,21.28,21.28,0,0,0,4,.49c1.32,0,1.5-.45,1.81-4.47h-9.67v8.91h7.58a16.94,16.94,0,0,0,2.79-.14l1.26,1.29a9.14,9.14,0,0,0-.42,1.43,35.29,35.29,0,0,1-3.53,9.26,23.33,23.33,0,0,0,5.87,5.06,7.81,7.81,0,0,0-1.43,2,29.1,29.1,0,0,1-5.59-5.17,25.58,25.58,0,0,1-4.61,5.14,9.1,9.1,0,0,0-1.57-1.75,21.48,21.48,0,0,0,4.85-5.1c-1.81-2.55-2.93-5.31-4.12-10.06Zm3,0c1.18,4.44,1.71,5.8,3.31,8.17A29.68,29.68,0,0,0,650,14.46Z"/><line class="cls-1" y1="15.16" x2="498" y2="15.16"/><line class="cls-1" x1="672" y1="15.16" x2="1170" y2="15.16"/></g></g></svg>