<svg xmlns="http://www.w3.org/2000/svg" width="414" height="25.52" viewBox="0 0 414 25.52"><defs><style>.cls-1{fill:none;stroke:#000;stroke-miterlimit:10;stroke-width:1.16px;}</style></defs><title>kaisya_sm</title><g id="レイヤー_2" data-name="レイヤー 2"><g id="レイヤー_1-2" data-name="レイヤー 1"><path d="M168.15.2a18.82,18.82,0,0,0,4.69,5,30.12,30.12,0,0,0,7.72,4.47,5.9,5.9,0,0,0-1.09,1.79A38.19,38.19,0,0,1,171.7,6.6a23.36,23.36,0,0,1-4.47-4.78A24.35,24.35,0,0,1,163,6.4a30.44,30.44,0,0,1-7.54,4.92,5.54,5.54,0,0,0-1.18-1.59,29.36,29.36,0,0,0,7.41-4.56,20.63,20.63,0,0,0,4.44-5ZM158.7,15.79a24.3,24.3,0,0,0-3.19.17V14a24.3,24.3,0,0,0,3.19.17h17.22a24.08,24.08,0,0,0,3.19-.17v2a24.62,24.62,0,0,0-3.19-.17h-10a41,41,0,0,1-3.49,6.6c3.86-.25,6.76-.53,10.9-1-1.68-1.82-2.18-2.32-3.41-3.47l1.45-.89a59.41,59.41,0,0,1,6.77,7.38l-1.54,1.14c-1.09-1.54-1.45-2-2-2.74-5,.67-9.19,1.12-13.56,1.46a33.6,33.6,0,0,0-4.72.5l-.34-2.13a12.19,12.19,0,0,0,1.43.09c.45,0,.45,0,3-.17a41.53,41.53,0,0,0,3.55-6.74Zm1.79-7A13.75,13.75,0,0,0,162.7,9h9a15.64,15.64,0,0,0,2.34-.12v1.88a15.9,15.9,0,0,0-2.34-.12h-9.06a15,15,0,0,0-2.18.12Z"/><path d="M188.83,22.7a17.13,17.13,0,0,0,.17,2.74h-2.07a19.32,19.32,0,0,0,.17-2.77V14a29.19,29.19,0,0,1-3.86,3.3,5.12,5.12,0,0,0-1-1.57,24.1,24.1,0,0,0,5-4.14,18.85,18.85,0,0,0,3.46-5.2h-5.23a18,18,0,0,0-2.23.12V4.64a19.16,19.16,0,0,0,2.18.11h1.65V2.15A16.61,16.61,0,0,0,186.93,0H189a11.2,11.2,0,0,0-.17,2.18V4.75h1.62a11.15,11.15,0,0,0,1.62-.08l.87,1a11.34,11.34,0,0,0-.67,1.2,24.46,24.46,0,0,1-3.08,4.75,16.9,16.9,0,0,0,4.5,3.8,6.8,6.8,0,0,0-.95,1.54,18.26,18.26,0,0,1-3.94-3.52Zm9.7-20.07a16.75,16.75,0,0,0-.2-2.55h2.21a13.06,13.06,0,0,0-.19,2.55v6H204a18.39,18.39,0,0,0,2.74-.17v1.95c-.87-.08-1.76-.14-2.74-.14h-3.66V22.25h4.41a18.31,18.31,0,0,0,3-.17v2.1a19,19,0,0,0-3-.2H194.7a18.34,18.34,0,0,0-3,.2v-2.1a18.39,18.39,0,0,0,3,.17h3.8V10.31h-2.77c-.95,0-1.87.06-2.74.14V8.5a18.1,18.1,0,0,0,2.74.17h2.77Z"/><path d="M210.1,12.77a22,22,0,0,0,1.17-7.4l1.54.42a28.25,28.25,0,0,1-1.2,7.68Zm3.63,12.64a22.17,22.17,0,0,0,.2-3.21V2.82a18.09,18.09,0,0,0-.2-2.82h2.15a17.37,17.37,0,0,0-.19,2.82v19.4a22,22,0,0,0,.19,3.19Zm3.64-16.72a16.66,16.66,0,0,0-1.29-3.8l1.26-.53a31.5,31.5,0,0,1,1.4,3.69Zm3.88-5.08a15.31,15.31,0,0,0-2.63.14V2a13,13,0,0,0,2.66.17h4.16A9.49,9.49,0,0,0,225.28,0h2a9.26,9.26,0,0,0-.17,2.18h5.18A13.51,13.51,0,0,0,235,2V3.75a16.5,16.5,0,0,0-2.71-.14h-5.2v1.9h4.36A16.1,16.1,0,0,0,234,5.37V7a16,16,0,0,0-2.6-.14h-4.34V9h5.65a17.45,17.45,0,0,0,2.77-.17v1.79a20.3,20.3,0,0,0-2.77-.17H220.86a17.24,17.24,0,0,0-2.85.17V8.78a17.63,17.63,0,0,0,2.85.17h4.58V6.88h-3.35a15.66,15.66,0,0,0-2.54.14V5.37a16.11,16.11,0,0,0,2.57.14h3.32V3.61Zm.2,18.72a19.55,19.55,0,0,0,.16,3h-2a20,20,0,0,0,.14-3V14.45a19.72,19.72,0,0,0-.08-2.43,23.49,23.49,0,0,0,2.6.11h8.58a14,14,0,0,0,2.57-.14,26.45,26.45,0,0,0-.11,3v7.94c0,1.74-.53,2.18-2.63,2.18-.75,0-1.65-.05-2.85-.14a5.84,5.84,0,0,0-.45-1.76,19.9,19.9,0,0,0,3.13.34c.93,0,1.09-.12,1.09-.76V20.6H221.45Zm10.14-6.65V13.56H221.45v2.12Zm0,3.5v-2.1H221.45v2.1Z"/><path d="M248.78,7.66A11.59,11.59,0,0,0,251,7.52V9.34a14.48,14.48,0,0,0-2.21-.12H240.9a15.35,15.35,0,0,0-2.24.12V7.52a12.34,12.34,0,0,0,2.24.14h3.32V4.81H241.6a15.36,15.36,0,0,0-2.1.11V3.16a13.91,13.91,0,0,0,2.1.11h2.62V2.43a15.73,15.73,0,0,0-.16-2.4h2a17,17,0,0,0-.17,2.4v.84h2.24a13.72,13.72,0,0,0,2.07-.11V4.92a15.27,15.27,0,0,0-2.07-.11h-2.24V7.66Zm0,6.26a10.89,10.89,0,0,0,2.21-.14V15.6a14.86,14.86,0,0,0-2.21-.11h-2.91v2.82h2.58a14.1,14.1,0,0,0,2.06-.11V20a13.82,13.82,0,0,0-2.06-.11h-2.58v2.85a21.06,21.06,0,0,0,.17,2.65h-2a16.88,16.88,0,0,0,.19-2.65V19.88h-2.85a13.84,13.84,0,0,0-2.09.11V18.2a14.29,14.29,0,0,0,2.09.11h2.85V15.49H240.9a16.06,16.06,0,0,0-2.24.11V13.78a11.94,11.94,0,0,0,2.24.14H246a16.38,16.38,0,0,0,1.51-4.39l1.54.45a24.83,24.83,0,0,1-1.48,3.94ZM242,13.61A20,20,0,0,0,240.93,10l1.39-.45a22.22,22.22,0,0,1,1.12,3.61Zm11.4-2v11a18.14,18.14,0,0,0,.2,2.79h-2a17.9,17.9,0,0,0,.19-2.79V3.8a23.08,23.08,0,0,0-.14-2.63,16.72,16.72,0,0,0,2.63.14h6.46A14.56,14.56,0,0,0,263,1.2c-.06.48-.06.48-.2,2a10.88,10.88,0,0,1-.84,4c-.42.61-1,.81-2.43.81a21,21,0,0,1-2.74-.2,8.36,8.36,0,0,0-.36-1.68,16.78,16.78,0,0,0,3.21.4c1.07,0,1.2-.37,1.46-3.58h-7.75V10h6.07a12.35,12.35,0,0,0,2.24-.12l1,1a6.76,6.76,0,0,0-.33,1.14,27.91,27.91,0,0,1-2.83,7.41,18.7,18.7,0,0,0,4.7,4.06,6.28,6.28,0,0,0-1.15,1.56A23.34,23.34,0,0,1,258.62,21a20.35,20.35,0,0,1-3.69,4.11,7.08,7.08,0,0,0-1.26-1.39,17.35,17.35,0,0,0,3.89-4.09c-1.45-2-2.35-4.25-3.3-8Zm2.44,0c.95,3.55,1.37,4.64,2.65,6.54a23.93,23.93,0,0,0,2.27-6.54Z"/><line class="cls-1" y1="12.36" x2="143.24" y2="12.36"/><line class="cls-1" x1="270.76" y1="12.36" x2="414" y2="12.36"/></g></g></svg>