<svg xmlns="http://www.w3.org/2000/svg" width="227.9" height="28.43" viewBox="0 0 227.9 28.43"><defs><style>.cls-1{fill:#d688aa;}.cls-2{fill:#888;}</style></defs><title>saiyou_logo_sm</title><g id="レイヤー_2" data-name="レイヤー 2"><g id="レイヤー_1-2" data-name="レイヤー 1"><path class="cls-1" d="M5.83,28.22a9.84,9.84,0,0,0-.6-1.83c-.62-1.59-1-2-1.9-2H1.62v2.34a8.83,8.83,0,0,0,.09,1.5H0a8.85,8.85,0,0,0,.09-1.49V20.55A10,10,0,0,0,0,19.06c.48,0,.84,0,1.47,0H4.22C6,19.09,7,20,7,21.48a2.36,2.36,0,0,1-.58,1.71,2.45,2.45,0,0,1-1.28.66c.73.23.94.55,2.08,3.24.09.2.38.82.54,1.13ZM3.92,23.07A1.55,1.55,0,0,0,5,22.66a1.36,1.36,0,0,0,.37-1c0-.82-.47-1.25-1.41-1.25H1.62v2.67Z"/><path class="cls-1" d="M15.38,28.3a9.5,9.5,0,0,0-1.48-.08H10.32c-.69,0-1,0-1.45,0A9.24,9.24,0,0,0,9,26.74v-6.2a10,10,0,0,0-.09-1.48c.45,0,.75,0,1.45,0h3.47A11.54,11.54,0,0,0,15.26,19v1.52a9.77,9.77,0,0,0-1.47-.08H10.48v2.36h2.79a11.36,11.36,0,0,0,1.49-.08v1.5a8.86,8.86,0,0,0-1.49-.08h-2.8v2.71h3.44a12.38,12.38,0,0,0,1.47-.08Z"/><path class="cls-1" d="M24.52,25.44a4.38,4.38,0,0,1-.77,1.72,3.9,3.9,0,0,1-3.13,1.25,3.89,3.89,0,0,1-2.94-1.11,5.13,5.13,0,0,1-1.25-3.6A5.19,5.19,0,0,1,17.77,20a4,4,0,0,1,2.86-1.09,4.08,4.08,0,0,1,2.21.55,3.61,3.61,0,0,1,1.21,1.25,4.12,4.12,0,0,1,.36.88l-1.6.37a2.47,2.47,0,0,0-.49-1,2.07,2.07,0,0,0-1.67-.71C19,20.26,18,21.54,18,23.65s1,3.4,2.62,3.4a2.17,2.17,0,0,0,1.85-.85,2.2,2.2,0,0,0,.38-1.05Z"/><path class="cls-1" d="M31.65,28.22a9.84,9.84,0,0,0-.6-1.83c-.62-1.59-1-2-1.91-2h-1.7v2.34a8.83,8.83,0,0,0,.09,1.5H25.82a8.85,8.85,0,0,0,.09-1.49V20.55a10,10,0,0,0-.09-1.49c.48,0,.84,0,1.47,0H30c1.74,0,2.74.88,2.74,2.39a2.36,2.36,0,0,1-.58,1.71,2.45,2.45,0,0,1-1.28.66c.73.23.94.55,2.08,3.24.09.2.38.82.54,1.13Zm-1.91-5.15a1.55,1.55,0,0,0,1.09-.41,1.36,1.36,0,0,0,.37-1c0-.82-.47-1.25-1.41-1.25H27.44v2.67Z"/><path class="cls-1" d="M42.57,19.09a10.44,10.44,0,0,0-.09,1.56v4.07c0,2.38-1.41,3.71-3.91,3.71a4,4,0,0,1-3-1.08,3.72,3.72,0,0,1-.86-2.64v-4a9.43,9.43,0,0,0-.09-1.58h1.71a9,9,0,0,0-.09,1.58v4a2.1,2.1,0,0,0,2.35,2.37A2.1,2.1,0,0,0,41,24.7v-4a9.36,9.36,0,0,0-.09-1.58Z"/><path class="cls-1" d="M45.94,19.09a8.57,8.57,0,0,0-.09,1.48v6.17a8.5,8.5,0,0,0,.09,1.48H44.19a8.35,8.35,0,0,0,.1-1.48V20.57a8.35,8.35,0,0,0-.1-1.48Z"/><path class="cls-1" d="M51.58,26.73a9.38,9.38,0,0,0,.09,1.49H49.94A9.45,9.45,0,0,0,50,26.73V20.47H48.48a11,11,0,0,0-1.57.08V19a11.22,11.22,0,0,0,1.56.08H53A11.83,11.83,0,0,0,54.7,19v1.54A11.65,11.65,0,0,0,53,20.47H51.58Z"/><path class="cls-2" d="M176,5.58A3.72,3.72,0,0,0,174,5a1.57,1.57,0,0,0-1.75,1.55c0,.9.59,1.32,1.93,1.89,1.68.69,2.65,1.57,2.65,3.14,0,1.85-1.41,3.08-3.69,3.08a5.52,5.52,0,0,1-2.73-.71l.44-1.22a5,5,0,0,0,2.35.7c1.4,0,2.09-.74,2.09-1.68s-.56-1.51-1.93-2.06C171.6,9,170.7,8,170.7,6.71c0-1.62,1.3-3,3.4-3a4.56,4.56,0,0,1,2.39.63Z"/><path class="cls-2" d="M186.64,14a7.64,7.64,0,0,1-3.27.65c-3,0-4.86-2.15-4.86-5.26,0-3.27,1.84-5.62,4.65-5.62,3.21,0,4,2.94,4,4.76,0,.36,0,.63,0,.88h-7.1c0,2.88,1.67,4,3.54,4a6.54,6.54,0,0,0,2.73-.53Zm-1-5.78c0-1.41-.58-3.25-2.62-3.25s-2.76,1.82-2.91,3.25Z"/><path class="cls-2" d="M194.32,5.33c-.17,0-.34,0-.57,0-1.72,0-2.6,1.7-2.6,3.46v5.66h-1.59V7.11c0-1.11,0-2.12-.08-3.11h1.4L191,6h0a3.11,3.11,0,0,1,2.83-2.23,3.71,3.71,0,0,1,.48,0Z"/><path class="cls-2" d="M204.18,4l-4,10.42h-1.5L194.89,4h1.7L198.68,10c.32.93.61,1.81.84,2.67h.06c.23-.86.53-1.74.86-2.67l2.06-6Z"/><path class="cls-2" d="M206.76,2.16a1,1,0,0,1-1-1.09A1,1,0,0,1,206.78,0a1,1,0,0,1,1,1.07A1,1,0,0,1,206.76,2.16Zm.8,12.26H206V4h1.58Z"/><path class="cls-2" d="M217.75,14a6.62,6.62,0,0,1-2.83.6c-3,0-4.95-2.13-4.95-5.32a5.21,5.21,0,0,1,5.33-5.56,5.77,5.77,0,0,1,2.51.55l-.4,1.28a4.22,4.22,0,0,0-2.14-.53c-2.41,0-3.67,1.93-3.67,4.17,0,2.52,1.51,4.11,3.61,4.11a5.16,5.16,0,0,0,2.25-.52Z"/><path class="cls-2" d="M227.35,14a7.72,7.72,0,0,1-3.27.65c-3,0-4.86-2.15-4.86-5.26,0-3.27,1.84-5.62,4.65-5.62,3.21,0,4,2.94,4,4.76,0,.36,0,.63,0,.88h-7.09c0,2.88,1.66,4,3.54,4a6.54,6.54,0,0,0,2.73-.53Zm-1-5.78c0-1.41-.57-3.25-2.62-3.25S221,6.77,220.81,8.2Z"/><path class="cls-1" d="M1.54,15.09H0q0-.55,0-2.46c0-1.27,0-2.8,0-4.59,0-.72,0-1.57,0-2.53S0,3.58,0,2.59H1.54c0,1,0,2,0,3.23s0,2.24,0,3.11c0,1.79,0,3.17,0,4.14S1.53,14.72,1.54,15.09Zm8.09-.86-1.07,1c-1.49-1.45-2.92-2.79-4.3-4L1.88,9.07V9C2.27,8.65,3.1,7.8,4.36,6.49s2.53-2.66,3.8-4l1.05.94Q7.61,4.93,5.91,6.67L3.78,8.86v0l1.85,1.71Z"/><path class="cls-1" d="M20.86,3.2,19,5.52,16.15,9.13c0,1.12,0,2.3,0,3.54s0,2.05,0,2.42H14.65c0-.37,0-1.19,0-2.45s0-2.39,0-3.4C13.94,8.24,13,7,11.88,5.6L10.07,3.31l1.22-.93c.09.11.57.76,1.47,2s1.8,2.39,2.71,3.57h0q1.32-1.68,2.76-3.56l1.52-2Z"/><path class="cls-1" d="M33.31,2.59c0,1.2,0,2.19,0,3s0,1.46,0,2V9.41c0,.5,0,.94,0,1.3A5.35,5.35,0,0,1,33,12.62a3.93,3.93,0,0,1-1,1.44,4.67,4.67,0,0,1-1.6,1A7.12,7.12,0,0,1,26,15a4.56,4.56,0,0,1-1.61-1,3.93,3.93,0,0,1-1-1.44,5.35,5.35,0,0,1-.32-1.91V9.41c0-.5,0-1.1,0-1.81s0-1.26,0-2,0-1.77,0-3h1.54c0,.16,0,.69,0,1.6s0,2.09,0,3.56c0,.45,0,.92,0,1.4v1.47a3.32,3.32,0,0,0,1,2.59,3.82,3.82,0,0,0,2.65.88,3.87,3.87,0,0,0,2.72-.84,3.45,3.45,0,0,0,.9-2.63c0-.5,0-1,0-1.47V7.75c0-1.47,0-2.68,0-3.62s0-1.45,0-1.54Z"/><path class="cls-1" d="M43.82,11.57a3.16,3.16,0,0,1-.45,1.69,3.51,3.51,0,0,1-1.22,1.17,5.81,5.81,0,0,1-1.61.62,8.86,8.86,0,0,1-2,.21c-.39,0-.81,0-1.23,0l-.75-.05-.07-1.34.73.07c.39,0,.86,0,1.41,0a7.65,7.65,0,0,0,1.27-.13,4.49,4.49,0,0,0,1.21-.34,2.27,2.27,0,0,0,.84-.65,1.52,1.52,0,0,0,.3-1,1.81,1.81,0,0,0-.3-1.06A2.84,2.84,0,0,0,41,10c-.3-.18-.68-.37-1.14-.59a12.16,12.16,0,0,1-1.26-.67,3.83,3.83,0,0,1-1.36-1.27,2.93,2.93,0,0,1-.41-1.52,2.94,2.94,0,0,1,.37-1.49,3.81,3.81,0,0,1,1-1.08,4.18,4.18,0,0,1,1.46-.67,7.68,7.68,0,0,1,1.93-.23c.38,0,.77,0,1.17,0l.68,0,.13,1.35-.69-.06q-.59-.06-1.47-.06a5.1,5.1,0,0,0-1.08.12,3.1,3.1,0,0,0-1,.36,2,2,0,0,0-.64.59,1.61,1.61,0,0,0-.26.9,1.55,1.55,0,0,0,.28.88,2.93,2.93,0,0,0,1,.87,9.63,9.63,0,0,0,1,.54c.42.2.83.42,1.24.66a4.23,4.23,0,0,1,1.4,1.26A2.86,2.86,0,0,1,43.82,11.57Z"/><path class="cls-1" d="M57.76,15.09H56.22q0-.55,0-2.07c0-1,0-2.25,0-3.75H48.69c0,1.73,0,3,0,3.92s0,1.53,0,1.9H47.19c0-.37,0-1,0-2s0-2.56,0-4.82c0-.69,0-1.52,0-2.5s0-2.05,0-3.19h1.54c0,1,0,1.88,0,2.79s0,1.78,0,2.6h7.57c0-.82,0-1.69,0-2.6s0-1.83,0-2.79h1.54c0,.94,0,2,0,3.26s0,2.24,0,3c0,1.83,0,3.24,0,4.21S57.76,14.72,57.76,15.09Z"/><path class="cls-1" d="M72.29,2.59c0,1.2,0,2.19,0,3s0,1.46,0,2V9.41c0,.5,0,.94,0,1.3a5.13,5.13,0,0,1-.33,1.91,3.9,3.9,0,0,1-1,1.44,4.62,4.62,0,0,1-1.61,1A7.09,7.09,0,0,1,65,15a4.56,4.56,0,0,1-1.61-1,3.81,3.81,0,0,1-1-1.44,5.35,5.35,0,0,1-.32-1.91V9.41c0-.5,0-1.1,0-1.81s0-1.26,0-2,0-1.77,0-3h1.54c0,.16,0,.69,0,1.6s0,2.09,0,3.56c0,.45,0,.92,0,1.4v1.47a3.32,3.32,0,0,0,1,2.59,3.82,3.82,0,0,0,2.65.88,3.89,3.89,0,0,0,2.72-.84,3.45,3.45,0,0,0,.9-2.63c0-.5,0-1,0-1.47V7.75c0-1.47,0-2.68,0-3.62s0-1.45,0-1.54Z"/><path class="cls-1" d="M89,3.92H87.76l-2.62,0H82.87c0,.7,0,1.47,0,2.29s0,1.54,0,2.16h4.55l1.51,0V9.62H87.16l-2.76,0H82.83c0,1.1,0,2.14,0,3.12s0,1.77,0,2.37H81.33c0-.37,0-1,0-2s0-2.33,0-4.12c0-.71,0-1.63,0-2.78s0-2.35,0-3.58H89Z"/><path class="cls-1" d="M102.4,2.59c0,1.2,0,2.19,0,3s0,1.46,0,2,0,1.31,0,1.81v1.3a5.35,5.35,0,0,1-.32,1.91,3.93,3.93,0,0,1-1,1.44,4.57,4.57,0,0,1-1.6,1,7.12,7.12,0,0,1-4.41,0,4.56,4.56,0,0,1-1.61-1,3.93,3.93,0,0,1-1-1.44,5.35,5.35,0,0,1-.32-1.91c0-.36,0-.8,0-1.3V7.6c0-.58,0-1.26,0-2s0-1.77,0-3h1.54c0,.16,0,.69,0,1.6s0,2.09,0,3.56v1.4c0,.47,0,1,0,1.47a3.28,3.28,0,0,0,1,2.59,3.79,3.79,0,0,0,2.65.88,3.86,3.86,0,0,0,2.71-.84,3.41,3.41,0,0,0,.91-2.63V9.15c0-.48,0-1,0-1.4,0-1.47,0-2.68,0-3.62s0-1.45,0-1.54Z"/><path class="cls-1" d="M108.19,15.09h-1.54c0-.37,0-1.19,0-2.46s0-2.8,0-4.59c0-.72,0-1.57,0-2.53s0-1.93,0-2.92h1.54c0,1,0,2,0,3.23s0,2.24,0,3.11c0,1.79,0,3.17,0,4.14S108.19,14.72,108.19,15.09Zm8.1-.86-1.08,1c-1.49-1.45-2.92-2.79-4.3-4l-2.37-2.15V9L111,6.49c1.26-1.32,2.53-2.66,3.79-4l1,.94q-1.6,1.54-3.3,3.28l-2.12,2.19v0l1.84,1.71C113.37,11.58,114.7,12.8,116.29,14.23Z"/><path class="cls-1" d="M128.89,2.59c0,1.2,0,2.19,0,3s0,1.46,0,2v3.11a5.13,5.13,0,0,1-.32,1.91,3.9,3.9,0,0,1-1,1.44A4.62,4.62,0,0,1,126,15a7.09,7.09,0,0,1-4.4,0,4.52,4.52,0,0,1-1.62-1,3.9,3.9,0,0,1-1-1.44,5.13,5.13,0,0,1-.32-1.91V7.6c0-.58,0-1.26,0-2s0-1.77,0-3h1.54c0,.16,0,.69,0,1.6s0,2.09,0,3.56v1.4c0,.47,0,1,0,1.47a3.32,3.32,0,0,0,1,2.59,3.8,3.8,0,0,0,2.65.88,3.84,3.84,0,0,0,2.71-.84,3.41,3.41,0,0,0,.91-2.63V9.15c0-.48,0-1,0-1.4,0-1.47,0-2.68,0-3.62s0-1.45,0-1.54Z"/><path class="cls-1" d="M139.41,11.57a3.16,3.16,0,0,1-.45,1.69,3.6,3.6,0,0,1-1.22,1.17,5.93,5.93,0,0,1-1.61.62,8.86,8.86,0,0,1-2,.21c-.4,0-.81,0-1.24,0l-.74-.05-.08-1.34.73.07c.4,0,.87,0,1.41,0a7.75,7.75,0,0,0,1.28-.13,4.51,4.51,0,0,0,1.2-.34,2.31,2.31,0,0,0,.85-.65,1.57,1.57,0,0,0,.29-1,1.89,1.89,0,0,0-.29-1.06,2.88,2.88,0,0,0-1-.83,12.42,12.42,0,0,0-1.13-.59,12.16,12.16,0,0,1-1.26-.67,3.83,3.83,0,0,1-1.36-1.27,2.93,2.93,0,0,1-.41-1.52,2.84,2.84,0,0,1,.37-1.49,3.81,3.81,0,0,1,1-1.08,4.1,4.1,0,0,1,1.46-.67,7.66,7.66,0,0,1,1.92-.23c.39,0,.78,0,1.17,0l.68,0,.13,1.35-.68-.06q-.6-.06-1.47-.06a5.1,5.1,0,0,0-1.08.12,3.16,3.16,0,0,0-1,.36,1.86,1.86,0,0,0-.63.59,1.54,1.54,0,0,0-.26.9,1.62,1.62,0,0,0,.27.88,3.08,3.08,0,0,0,1,.87,9.63,9.63,0,0,0,1,.54q.63.3,1.23.66a4.27,4.27,0,0,1,1.41,1.26A2.93,2.93,0,0,1,139.41,11.57Z"/><path class="cls-1" d="M153.35,15.09h-1.54c0-.37,0-1.06,0-2.07s0-2.25,0-3.75h-7.57c0,1.73,0,3,0,3.92s0,1.53,0,1.9h-1.54c0-.37,0-1,0-2s0-2.56,0-4.82c0-.69,0-1.52,0-2.5s0-2.05,0-3.19h1.54c0,1,0,1.88,0,2.79s0,1.78,0,2.6h7.57c0-.82,0-1.69,0-2.6s0-1.83,0-2.79h1.54c0,.94,0,2,0,3.26s0,2.24,0,3c0,1.83,0,3.24,0,4.21S153.34,14.72,153.35,15.09Z"/><path class="cls-1" d="M159.26,15.09h-1.54c0-.37,0-1,0-2s0-2.33,0-4.12c0-.71,0-1.64,0-2.79s0-2.35,0-3.59h1.54c0,.89,0,1.93,0,3.11s0,2.14,0,2.88c0,1.9,0,3.36,0,4.4S159.25,14.72,159.26,15.09Z"/></g></g></svg>