<svg xmlns="http://www.w3.org/2000/svg" width="160" height="40" viewBox="0 0 160 40"><defs><style>.cls-1{fill:#d688aa;}.cls-2,.cls-4{fill:none;}.cls-2{stroke:#fff;stroke-miterlimit:10;}.cls-3{isolation:isolate;}.cls-5{fill:#fff;}</style></defs><title>saiyou_tel</title><g id="レイヤー_2" data-name="レイヤー 2"><g id="レイヤー_1-2" data-name="レイヤー 1"><rect class="cls-1" width="160" height="40"/><line class="cls-2" x1="38.43" y1="18" x2="156" y2="18"/><g class="cls-3"><circle class="cls-4" cx="20" cy="20" r="16"/></g><path class="cls-5" d="M20,5.76h-.73l-.72.06-.71.09-.7.13-.69.15-.68.2-.66.22-.64.26-.63.28-.62.32-.59.34-.58.37-.56.4L11,9l-.52.45-.49.48-.48.49L9,11l-.42.54-.4.56-.37.58-.34.59-.32.62-.28.63-.26.64-.22.66-.2.68-.15.69-.13.7-.09.71-.06.72v1.46l.06.72.09.71.13.7.15.69.2.68.22.66.26.64.28.63.32.62.34.59.37.58.4.56.42.54.45.52.48.49.49.48L11,31l.54.42.56.4.58.37.59.34.62.32.63.28.64.26.66.22.68.2.69.15.7.13.71.09.72.06h1.46l.72-.06.71-.09.7-.13.69-.15.68-.2.66-.22.64-.26.63-.28.62-.32.59-.34.58-.37.56-.4.54-.42.52-.45.49-.48.48-.49.45-.52.42-.54.4-.56.37-.58.34-.59.32-.62.28-.63.26-.64.22-.66.2-.68.15-.69.13-.7.09-.71.06-.72V19.27l-.06-.72-.09-.71-.13-.7-.15-.69-.2-.68-.22-.66-.26-.64-.28-.63-.32-.62-.34-.59-.37-.58-.4-.56L31,11l-.45-.52-.48-.49-.49-.48L29.05,9l-.54-.42L28,8.19l-.58-.37-.59-.34-.62-.32-.63-.28-.64-.26-.66-.22-.68-.2-.69-.15-.7-.13-.71-.09-.72-.06ZM20,4A16,16,0,1,1,4,20,16,16,0,0,1,20,4Z"/><path class="cls-5" d="M25,29.62l1.31-.76a.48.48,0,0,0,.22-.33.69.69,0,0,0-.15-.48l-2.41-4.18c-.25-.42-.49-.53-.79-.35l-1.29.74ZM14.4,23.29l.12.2c1.59,2.74,3.19,4.56,4.82,5.46,2,1.11,3.6,1.47,4.91,1.08l0,0-3.13-5.34a1.11,1.11,0,0,1-1.13,0,3.69,3.69,0,0,1-1.09-1.1c-.4-.62-.85-1.33-1.35-2.18-.61-1.06-1-1.77-1.17-2.11A3.63,3.63,0,0,1,16,17.8a1.05,1.05,0,0,1,.57-1l-3.12-5.39A4.56,4.56,0,0,0,12.22,14a9.14,9.14,0,0,0-.17,3.29A17.75,17.75,0,0,0,14.4,23.29Zm2.82-6.82,1.28-.74c.33-.19.35-.56.07-1.05l-2.26-3.91c-.21-.36-.37-.55-.51-.56a.88.88,0,0,0-.49.17l-1.21.7Z"/><path class="cls-5" d="M39.81,33.21a4.38,4.38,0,0,1-1-1.52,10,10,0,0,1-.58-3.45,8.86,8.86,0,0,1,.91-4.15A4.27,4.27,0,0,1,43,22a4.33,4.33,0,0,1,3.16,1.22,4.12,4.12,0,0,1,1,1.51,10.09,10.09,0,0,1,.59,3.48,7.9,7.9,0,0,1-1.11,4.44A4.27,4.27,0,0,1,43,34.42,4.35,4.35,0,0,1,39.81,33.21Zm4.79-1.16a5.79,5.79,0,0,0,1-3.85,5.84,5.84,0,0,0-1-3.84A2.15,2.15,0,0,0,43,23.73a2,2,0,0,0-1.68.76,5.6,5.6,0,0,0-1,3.65,6.75,6.75,0,0,0,.77,3.57,2.39,2.39,0,0,0,3.54.34Z"/><path class="cls-5" d="M51.3,31.29a2.45,2.45,0,0,0,.47.82,2.23,2.23,0,0,0,1.72.62,2.28,2.28,0,0,0,1.7-.62c.75-.72,1.09-1.8,1.17-3.57a3,3,0,0,1-.8.86,4.1,4.1,0,0,1-2.43.68,3.74,3.74,0,0,1-4.08-3.94A4,4,0,0,1,51,22.62,4.85,4.85,0,0,1,53.58,22a4.25,4.25,0,0,1,4.13,2.95A9.8,9.8,0,0,1,58.14,28c0,2.26-.6,4.24-1.59,5.2a4.12,4.12,0,0,1-3.19,1.14,4.35,4.35,0,0,1-2.9-.87,4.39,4.39,0,0,1-1.23-1.66ZM56,26a2.48,2.48,0,0,0-5,.05,2.24,2.24,0,0,0,2.38,2.4A2.46,2.46,0,0,0,56,26Z"/><path class="cls-5" d="M69.32,31.51a11.67,11.67,0,0,0-1.5-.1h-.54v1.06a9.39,9.39,0,0,0,.12,1.71H65.27a9.6,9.6,0,0,0,.12-1.74v-1H61.23a18.47,18.47,0,0,0-1.87.06V29.62c.51-.55.67-.75,1.2-1.38l3.55-4.35a14.59,14.59,0,0,0,1.25-1.65h2a21.31,21.31,0,0,0-.1,2.54V29.7h.52a9.38,9.38,0,0,0,1.52-.11Zm-3.92-4.9a16.79,16.79,0,0,1,.08-1.8c-.3.43-.48.67-1,1.33l-2.88,3.57H65.4Z"/><path class="cls-5" d="M72.42,34.18a14,14,0,0,0-1.93.07,7.59,7.59,0,0,1,.39-1.92,7.36,7.36,0,0,1,2.05-2.93,21.15,21.15,0,0,1,2.48-1.82c1.38-.94,1.8-1.44,1.8-2.2,0-1-.8-1.65-2.07-1.65a2.14,2.14,0,0,0-1.91.88A2.85,2.85,0,0,0,72.77,26l-2.15-.25a4.45,4.45,0,0,1,1-2.4A4.35,4.35,0,0,1,75.09,22c2.63,0,4.25,1.26,4.25,3.32a3,3,0,0,1-1.07,2.4,18.52,18.52,0,0,1-2.52,1.84A13.47,13.47,0,0,0,74,31.06a3.69,3.69,0,0,0-.86,1.35h4.2a14.92,14.92,0,0,0,2.19-.12v2c-.7-.06-1.3-.09-2.26-.09Z"/><path class="cls-5" d="M80.87,28.63a9.35,9.35,0,0,0,1.41.09H84.6A9.55,9.55,0,0,0,86,28.63v2a8.91,8.91,0,0,0-1.43-.08H82.28a8.79,8.79,0,0,0-1.41.08Z"/><path class="cls-5" d="M94.23,25.17a1.88,1.88,0,0,0-2-1.52,2.5,2.5,0,0,0-2.35,1.56,6.6,6.6,0,0,0-.62,2.66,3.48,3.48,0,0,1,3.21-1.5,3.91,3.91,0,0,1,3.48,1.78,4.33,4.33,0,0,1,.54,2.25,4,4,0,0,1-4.35,4.05,4.7,4.7,0,0,1-3-1c-1.11-1-1.74-2.76-1.74-5a8.14,8.14,0,0,1,1.23-4.64A4.24,4.24,0,0,1,92.24,22a4.12,4.12,0,0,1,3.07,1.14,4.29,4.29,0,0,1,1,1.53ZM89.55,30.4a2.54,2.54,0,0,0,4.59,1.32,2.51,2.51,0,0,0,.35-1.37A2.17,2.17,0,0,0,92.12,28,2.42,2.42,0,0,0,89.55,30.4Z"/><path class="cls-5" d="M100.17,31.08a2.14,2.14,0,0,0,.45.87,2.27,2.27,0,0,0,1.85.76,2.33,2.33,0,0,0,2.46-2.47,2.24,2.24,0,0,0-2.36-2.42,2.65,2.65,0,0,0-1.86.69,1.72,1.72,0,0,0-.45.68L98.39,29c.15-1.07.16-1.14.19-1.56l.35-3.72c0-.27,0-.78.06-1.53.45,0,.79,0,1.59,0h3.69a10.93,10.93,0,0,0,2.08-.12V24a14.34,14.34,0,0,0-2.07-.12h-3.52l-.24,2.63q0,.18-.09.63a3.68,3.68,0,0,1,2.56-.92,3.85,3.85,0,0,1,2.93,1.13A3.7,3.7,0,0,1,107,30.18c0,2.63-1.72,4.27-4.51,4.27a4.18,4.18,0,0,1-4.37-2.94Z"/><path class="cls-5" d="M108.41,28.63a9.35,9.35,0,0,0,1.41.09h2.32a9.55,9.55,0,0,0,1.43-.09v2a8.91,8.91,0,0,0-1.43-.08h-2.32a8.79,8.79,0,0,0-1.41.08Z"/><path class="cls-5" d="M121.77,25.17a1.88,1.88,0,0,0-2-1.52,2.5,2.5,0,0,0-2.35,1.56,6.6,6.6,0,0,0-.62,2.66,3.48,3.48,0,0,1,3.21-1.5,3.91,3.91,0,0,1,3.48,1.78A4.33,4.33,0,0,1,124,30.4a4,4,0,0,1-4.35,4.05,4.7,4.7,0,0,1-3-1c-1.11-1-1.74-2.76-1.74-5a8.14,8.14,0,0,1,1.23-4.64A4.24,4.24,0,0,1,119.78,22a4.12,4.12,0,0,1,3.07,1.14,4.29,4.29,0,0,1,1,1.53Zm-4.68,5.23a2.54,2.54,0,0,0,4.59,1.32,2.51,2.51,0,0,0,.35-1.37A2.17,2.17,0,0,0,119.66,28,2.42,2.42,0,0,0,117.09,30.4Z"/><path class="cls-5" d="M134.51,23.91A9.9,9.9,0,0,0,133,26.07a19.23,19.23,0,0,0-2.79,8.11h-2.37a22.26,22.26,0,0,1,1.81-5.8A24.69,24.69,0,0,1,132.23,24h-4.64a13.4,13.4,0,0,0-2,.11v-2a17.67,17.67,0,0,0,2.05.1h4.77a16.91,16.91,0,0,0,2.06-.07Z"/><path class="cls-5" d="M138.42,31.29a2.45,2.45,0,0,0,.47.82,2.23,2.23,0,0,0,1.72.62,2.28,2.28,0,0,0,1.7-.62c.75-.72,1.09-1.8,1.17-3.57a3,3,0,0,1-.8.86,4.12,4.12,0,0,1-2.43.68,3.74,3.74,0,0,1-4.08-3.94,4,4,0,0,1,1.91-3.52A4.85,4.85,0,0,1,140.7,22a4.25,4.25,0,0,1,4.13,2.95,9.8,9.8,0,0,1,.43,3.11c0,2.26-.6,4.24-1.59,5.2a4.12,4.12,0,0,1-3.19,1.14,4.35,4.35,0,0,1-2.9-.87,4.39,4.39,0,0,1-1.23-1.66ZM143.13,26a2.48,2.48,0,0,0-5,.05,2.24,2.24,0,0,0,2.38,2.4A2.46,2.46,0,0,0,143.13,26Z"/><path class="cls-5" d="M155.87,23.91a9.87,9.87,0,0,0-1.57,2.16,19.37,19.37,0,0,0-2.79,8.11h-2.36a22.26,22.26,0,0,1,1.81-5.8A24.57,24.57,0,0,1,153.58,24H149a13.4,13.4,0,0,0-2,.11v-2a17.55,17.55,0,0,0,2,.1h4.77a17,17,0,0,0,2.06-.07Z"/><path class="cls-5" d="M43.67,6.84a1.57,1.57,0,0,0-.27,0,15.43,15.43,0,0,1-1.59.27V8.72a6.19,6.19,0,0,1,1.93-.33,3.11,3.11,0,0,1,1.6.38,1.86,1.86,0,0,1-.91,3.46,1.33,1.33,0,0,1-1.39-1,3.23,3.23,0,0,1-.11-1,1.87,1.87,0,0,0,.6-.23,2.37,2.37,0,0,0,0,.35c0,.94.27,1.33.93,1.33a1.2,1.2,0,0,0,1.2-1.27c0-.89-.74-1.44-1.92-1.44a5.88,5.88,0,0,0-1.91.36v2.25q0,.72-.66.72a2.37,2.37,0,0,1-1.48-.58,1.08,1.08,0,0,1-.42-.85A1.64,1.64,0,0,1,40,9.64a5,5,0,0,1,1.27-.74V7.2l-.36,0H39.45V6.63a5.63,5.63,0,0,0,.92.06l.86,0v-.9a7,7,0,0,0,0-.85h.66a6.06,6.06,0,0,0,0,.84v.86a9.13,9.13,0,0,0,1.83-.39ZM41.23,9.49c-.89.43-1.39.92-1.39,1.35a.68.68,0,0,0,.38.54,1.64,1.64,0,0,0,.81.26c.18,0,.2-.05.2-.44ZM46.17,7.8A7.05,7.05,0,0,0,44.36,6l.46-.36A7.53,7.53,0,0,1,46.64,7.4Z"/><path class="cls-5" d="M48.83,11.78a7.46,7.46,0,0,0,.05,1h-.66a7.9,7.9,0,0,0,.05-1V5.94a8.86,8.86,0,0,0,0-1c.25,0,.5,0,.94,0h1.29c.45,0,.66,0,.92,0,0,.27,0,.5,0,.85V7c0,.36,0,.61,0,.83-.2,0-.55,0-.91,0H48.83Zm0-5.62h2V5.42h-2Zm0,1.2h2V6.6h-2Zm4.63,3.26a4.36,4.36,0,0,0,0,.54,4.61,4.61,0,0,0-.56,0H50.75v.71h-.58a5,5,0,0,0,0-.83V9.2a5.06,5.06,0,0,0,0-.56,5.82,5.82,0,0,0,.62,0h2a6,6,0,0,0,.65,0,4.7,4.7,0,0,0,0,.55Zm-2.71,0h2.17V9.14H50.75Zm4.74,1.26c0,.59-.17.75-.79.75l-1.07,0a1.78,1.78,0,0,0-.17-.58,11.52,11.52,0,0,0,1.15.09c.26,0,.32-.05.32-.26V7.81h-1.8c-.38,0-.72,0-.92,0,0-.26,0-.5,0-.83V5.8c0-.31,0-.58,0-.85.25,0,.48,0,.92,0h1.46c.45,0,.69,0,.95,0a7.52,7.52,0,0,0,0,1ZM52.76,6.16h2.17V5.42H52.76Zm0,1.2h2.17V6.6H52.76Z"/><path class="cls-5" d="M61.17,4.7a6,6,0,0,0,1.48,1.63,9.42,9.42,0,0,0,2.47,1.48,2.39,2.39,0,0,0-.36.57,12.64,12.64,0,0,1-2.54-1.66,7.89,7.89,0,0,1-1.39-1.51,8.24,8.24,0,0,1-1.89,2A10.41,10.41,0,0,1,57,8.35a1.58,1.58,0,0,0-.38-.51,9.66,9.66,0,0,0,2.45-1.57A6.26,6.26,0,0,0,60.49,4.7ZM58,12.75a7.75,7.75,0,0,0,0-.88v-2a6.78,6.78,0,0,0,0-.83,4.16,4.16,0,0,0,.7,0H63a4.31,4.31,0,0,0,.7,0,6.47,6.47,0,0,0,0,.83v2a5.73,5.73,0,0,0,.05.88H63v-.52H58.67v.52Zm.64-1.05H63V9.64H58.67Zm.07-4.26a4.14,4.14,0,0,0,.71,0h2.79a4.92,4.92,0,0,0,.76,0v.61a7.42,7.42,0,0,0-.76,0h-2.8a6.81,6.81,0,0,0-.7,0Z"/><path class="cls-5" d="M68.39,5.32a11.25,11.25,0,0,0-.08,1.88l3-.15V6.8c0-.1,0-.2,0-.31a7.73,7.73,0,0,0-.06-1.36h.7a4.33,4.33,0,0,0,0,.69V7c.88,0,1.58,0,1.88-.09l0,.64H71.84a8.68,8.68,0,0,1-.16,1.76.9.9,0,0,1-.91.79,2.65,2.65,0,0,1-1.25-.41c0-.14,0-.18,0-.27s0-.19,0-.37a2.57,2.57,0,0,0,1.18.49c.25,0,.36-.14.44-.58a8.61,8.61,0,0,0,.11-1.39c-1.09,0-1.74.07-2.94.16v.81a14.1,14.1,0,0,0,.09,2.26.78.78,0,0,0,.61.59,4.94,4.94,0,0,0,1.4.15,8,8,0,0,0,2.5-.33l.08.69-.36.05a16.26,16.26,0,0,1-2.28.19c-1.6,0-2.29-.31-2.52-1.12a9.39,9.39,0,0,1-.12-2.13V7.79A17.69,17.69,0,0,0,65.9,8l-.05-.63H66c.17,0,.72,0,1.67-.12V6.66a11.12,11.12,0,0,0,0-1.34Z"/><path class="cls-5" d="M75.23,6.06c0-.38,0-.63,0-.86a7.32,7.32,0,0,0,.83,0h.66a7,7,0,0,0,.81,0c0,.21,0,.36,0,.88V11c0,.44,0,.67,0,.87h-.56v-.45H75.76v.74h-.58a6.71,6.71,0,0,0,0-1ZM75.76,8h1.18V5.73H75.76Zm0,3h1.18V8.45H75.76Zm3.15-4.64c-.32,0-.64,0-.87,0V5.73a5,5,0,0,0,.86,0h.95V5.5a5.46,5.46,0,0,0,0-.73h.66a5.12,5.12,0,0,0,0,.73v.28h1.28a5,5,0,0,0,.85,0v.59c-.23,0-.51,0-.85,0H80.41V7.45H82a6.81,6.81,0,0,0,.91,0V8A5.14,5.14,0,0,0,82,7.94h-.3V9H82a4.87,4.87,0,0,0,.88-.06v.62A7,7,0,0,0,82,9.51h-.28V12c0,.58-.2.71-1,.71l-.81,0a1.66,1.66,0,0,0-.15-.6,5.84,5.84,0,0,0,1,.11c.34,0,.4,0,.4-.23V9.51H78.65a7.85,7.85,0,0,0-.9.05V8.94a5,5,0,0,0,.9.06h2.53V7.94H78.65a5.89,5.89,0,0,0-.9.06V7.4a6.86,6.86,0,0,0,.9,0h1.2V6.28Zm.69,5.41a8.3,8.3,0,0,0-1.25-1.51l.44-.32a10.2,10.2,0,0,1,1.3,1.47Z"/><path class="cls-5" d="M84.79,11.8a6,6,0,0,0,.06,1h-.67a6.46,6.46,0,0,0,0-1V6c0-.44,0-.7,0-1a7.38,7.38,0,0,0,.94,0h1.29a7.13,7.13,0,0,0,.92,0c0,.25,0,.52,0,.86V7c0,.36,0,.62,0,.84-.24,0-.55,0-.91,0H84.79Zm0-5.61h2V5.47h-2Zm0,1.15h2V6.61h-2Zm4.73,3.41c0,.35,0,.59,0,.82-.25,0-.54,0-.91,0h-2v.63H86.1a6.71,6.71,0,0,0,0-.85v-2c0-.32,0-.58,0-.85a7.1,7.1,0,0,0,.89,0h1.64a7,7,0,0,0,.89,0c0,.26,0,.49,0,.85Zm-2.86-1H89V9H86.66Zm0,1.33H89v-.88H86.66Zm4.82.83c0,.6-.19.75-.92.75l-.9,0a1.9,1.9,0,0,0-.16-.57c.42,0,.8.09,1,.09.37,0,.44-.05.44-.26V7.77H89.09c-.38,0-.67,0-.91,0,0-.23,0-.5,0-.84V5.85c0-.32,0-.59,0-.86a7,7,0,0,0,.91,0h1.49a7.67,7.67,0,0,0,1,0,7.71,7.71,0,0,0,0,1ZM88.72,6.19h2.21V5.47H88.72Zm0,1.15h2.21V6.61H88.72Z"/><path class="cls-5" d="M97.3,7.21h-.89v-.9h.89Zm-.89,4v-.89h.89v.89Z"/><path class="cls-5" d="M102.68,10.62a1.32,1.32,0,0,0,.33.57,1.46,1.46,0,0,0,1.13.43,1.55,1.55,0,0,0,1.45-.83A3.62,3.62,0,0,0,106,9.64c0-.23.06-.6.08-1.06a1.85,1.85,0,0,1-.36.51,2.47,2.47,0,0,1-3.26,0,2.27,2.27,0,0,1-.61-1.62,2.39,2.39,0,0,1,4.62-.85,5.43,5.43,0,0,1,.26,1.87,4.64,4.64,0,0,1-.75,2.87,2.2,2.2,0,0,1-1.87.84,2.23,2.23,0,0,1-1.51-.49,2.12,2.12,0,0,1-.63-.89Zm3.21-3.17a1.65,1.65,0,0,0-1.68-1.7,1.69,1.69,0,0,0-1.44.76,2,2,0,0,0-.23,1,1.51,1.51,0,0,0,1.6,1.65A1.67,1.67,0,0,0,105.89,7.45Z"/><path class="cls-5" d="M108.79,8.15h-.89V7.26h.89Zm-.89,4v-.89h.89v.89Z"/><path class="cls-5" d="M110.74,11.61a2.25,2.25,0,0,1-.54-.83,6.09,6.09,0,0,1-.34-2.08,5.22,5.22,0,0,1,.52-2.45A2.4,2.4,0,0,1,114,5.78a2.37,2.37,0,0,1,.54.83,6.07,6.07,0,0,1,.34,2.09,4.66,4.66,0,0,1-.63,2.6,2.2,2.2,0,0,1-1.9.95A2.25,2.25,0,0,1,110.74,11.61Zm.52-5.39a1.86,1.86,0,0,0-.4.66,5.56,5.56,0,0,0-.28,1.82,5,5,0,0,0,.42,2.14,1.53,1.53,0,0,0,1.4.79,1.48,1.48,0,0,0,1.1-.43,1.82,1.82,0,0,0,.43-.7,5.56,5.56,0,0,0,.28-1.82,5.21,5.21,0,0,0-.41-2.1,1.51,1.51,0,0,0-1.41-.81A1.49,1.49,0,0,0,111.26,6.22Z"/><path class="cls-5" d="M116.65,11.61a2.25,2.25,0,0,1-.54-.83,6.34,6.34,0,0,1-.34-2.08,5.34,5.34,0,0,1,.52-2.45,2.22,2.22,0,0,1,2-1.11,2.25,2.25,0,0,1,1.65.64,2.37,2.37,0,0,1,.54.83,6.32,6.32,0,0,1,.34,2.09,4.74,4.74,0,0,1-.63,2.6,2.21,2.21,0,0,1-1.91.95A2.27,2.27,0,0,1,116.65,11.61Zm.52-5.39a2,2,0,0,0-.4.66,5.56,5.56,0,0,0-.28,1.82,5,5,0,0,0,.42,2.14,1.54,1.54,0,0,0,1.4.79,1.51,1.51,0,0,0,1.11-.43,1.8,1.8,0,0,0,.42-.7,5.56,5.56,0,0,0,.28-1.82,5,5,0,0,0-.41-2.1,1.64,1.64,0,0,0-2.54-.36Z"/><path class="cls-5" d="M121.72,8.73a2.83,2.83,0,0,1,2.17-1.06,2.42,2.42,0,0,1,1.12.26,4.63,4.63,0,0,1,.85.54,2.92,2.92,0,0,0,1.73.73,1.75,1.75,0,0,0,.72-.15,2.34,2.34,0,0,0,1-.87l.47.4a3.62,3.62,0,0,1-1,.93,2.43,2.43,0,0,1-1.19.31,2.88,2.88,0,0,1-.86-.15,4.34,4.34,0,0,1-1.25-.73,2.44,2.44,0,0,0-1.62-.68,1.89,1.89,0,0,0-.93.23,3.35,3.35,0,0,0-.75.63Z"/><path class="cls-5" d="M131.71,5.23a5.11,5.11,0,0,0,.75,0H133a6.17,6.17,0,0,0,.75,0c-.05.54-.08,1-.08,1.49V11.1a6.08,6.08,0,0,0,.07,1h-.85a6,6,0,0,0,.07-1V5.88h-.49a4.84,4.84,0,0,0-.78.06Z"/><path class="cls-5" d="M141,8.92a1.66,1.66,0,0,1,.68,1.41c0,1.23-.9,1.93-2.49,1.93s-2.55-.69-2.55-1.93a1.66,1.66,0,0,1,.8-1.49,1.78,1.78,0,0,1,.81-.31,1.56,1.56,0,0,1-1.31-1.62c0-1.09.86-1.78,2.22-1.78s2.22.67,2.22,1.78A1.56,1.56,0,0,1,140,8.53,1.76,1.76,0,0,1,141,8.92Zm-3.63,1.37c0,.85.66,1.35,1.78,1.35a2.07,2.07,0,0,0,1.45-.46,1.21,1.21,0,0,0,.34-.89c0-.89-.68-1.42-1.78-1.42S137.34,9.41,137.34,10.29ZM137.61,7c0,.8.58,1.29,1.52,1.29s1.52-.49,1.52-1.29-.6-1.23-1.52-1.23S137.61,6.22,137.61,7Z"/><path class="cls-5" d="M143.61,8.15h-.89V7.26h.89Zm-.89,4v-.89h.89v.89Z"/><path class="cls-5" d="M145.55,11.61a2.25,2.25,0,0,1-.54-.83,6.34,6.34,0,0,1-.34-2.08,5.34,5.34,0,0,1,.52-2.45,2.22,2.22,0,0,1,2-1.11,2.25,2.25,0,0,1,1.65.64,2.37,2.37,0,0,1,.54.83,6.32,6.32,0,0,1,.34,2.09,4.74,4.74,0,0,1-.63,2.6,2.21,2.21,0,0,1-1.91.95A2.25,2.25,0,0,1,145.55,11.61Zm.52-5.39a1.86,1.86,0,0,0-.4.66,5.56,5.56,0,0,0-.28,1.82,5,5,0,0,0,.42,2.14,1.54,1.54,0,0,0,1.4.79,1.52,1.52,0,0,0,1.11-.43,1.8,1.8,0,0,0,.42-.7A5.56,5.56,0,0,0,149,8.68a5,5,0,0,0-.41-2.1,1.64,1.64,0,0,0-2.54-.36Z"/><path class="cls-5" d="M151.46,11.61a2.25,2.25,0,0,1-.54-.83,6.34,6.34,0,0,1-.34-2.08,5.34,5.34,0,0,1,.52-2.45,2.42,2.42,0,0,1,3.67-.47,2.37,2.37,0,0,1,.54.83,6.32,6.32,0,0,1,.34,2.09,4.66,4.66,0,0,1-.63,2.6,2.21,2.21,0,0,1-1.91.95A2.29,2.29,0,0,1,151.46,11.61ZM152,6.22a1.89,1.89,0,0,0-.41.66,5.56,5.56,0,0,0-.28,1.82,4.83,4.83,0,0,0,.43,2.14,1.63,1.63,0,0,0,2.5.36,1.69,1.69,0,0,0,.42-.7,5.56,5.56,0,0,0,.28-1.82,5.22,5.22,0,0,0-.4-2.1,1.53,1.53,0,0,0-1.42-.81A1.45,1.45,0,0,0,152,6.22Z"/></g></g></svg>