<svg xmlns="http://www.w3.org/2000/svg" width="383.41" height="38.7" viewBox="0 0 383.41 38.7"><defs><style>.cls-1{fill:#888;}.cls-2{fill:#d688aa;}</style></defs><title>saiyou_logo</title><g id="レイヤー_2" data-name="レイヤー 2"><g id="レイヤー_1-2" data-name="レイヤー 1"><path class="cls-1" d="M310.06,7.89A5.28,5.28,0,0,0,307.2,7a2.22,2.22,0,0,0-2.49,2.18c0,1.27.84,1.87,2.73,2.68,2.38,1,3.76,2.22,3.76,4.43,0,2.62-2,4.35-5.22,4.35a7.72,7.72,0,0,1-3.86-1l.62-1.73a7,7,0,0,0,3.32,1c2,0,2.95-1.05,2.95-2.37s-.78-2.14-2.73-2.92c-2.49-1-3.76-2.38-3.76-4.17,0-2.29,1.84-4.18,4.81-4.18a6.47,6.47,0,0,1,3.38.89Z"/><path class="cls-1" d="M325.06,19.75a10.55,10.55,0,0,1-4.62.92c-4.29,0-6.86-3-6.86-7.43,0-4.62,2.59-7.94,6.57-7.94,4.53,0,5.7,4.16,5.7,6.73,0,.51,0,.89-.06,1.24h-10c0,4.08,2.35,5.62,5,5.62a9.28,9.28,0,0,0,3.86-.76Zm-1.43-8.16c0-2-.81-4.59-3.7-4.59-2.7,0-3.89,2.57-4.11,4.59Z"/><path class="cls-1" d="M335.93,7.54a6.27,6.27,0,0,0-.81,0c-2.43,0-3.68,2.4-3.68,4.89v8H329.2V10.05c0-1.56,0-3-.11-4.4h2l.11,2.84h.08a4.42,4.42,0,0,1,4-3.17c.25,0,.44.06.68.08Z"/><path class="cls-1" d="M349.87,5.65l-5.59,14.73h-2.11L336.74,5.62h2.41l2.94,8.57c.46,1.32.87,2.56,1.19,3.78h.08c.33-1.22.76-2.46,1.22-3.78l2.92-8.54Z"/><path class="cls-1" d="M353.52,3.05a1.46,1.46,0,0,1-1.46-1.54A1.48,1.48,0,0,1,353.55,0,1.44,1.44,0,0,1,355,1.51,1.43,1.43,0,0,1,353.52,3.05Zm1.14,17.33h-2.24V5.65h2.24Z"/><path class="cls-1" d="M369.06,19.83a9.33,9.33,0,0,1-4,.84c-4.21,0-7-3-7-7.51s3-7.86,7.54-7.86a8.06,8.06,0,0,1,3.54.78l-.56,1.81a6,6,0,0,0-3-.76c-3.41,0-5.19,2.73-5.19,5.89,0,3.57,2.14,5.81,5.11,5.81a7.47,7.47,0,0,0,3.19-.72Z"/><path class="cls-1" d="M382.63,19.75a10.62,10.62,0,0,1-4.62.92c-4.3,0-6.86-3-6.86-7.43,0-4.62,2.59-7.94,6.56-7.94,4.54,0,5.7,4.16,5.7,6.73,0,.51,0,.89-.05,1.24h-10c0,4.08,2.35,5.62,5,5.62a9.3,9.3,0,0,0,3.87-.76Zm-1.43-8.16c0-2-.81-4.59-3.7-4.59-2.71,0-3.9,2.57-4.11,4.59Z"/><path class="cls-2" d="M0,20.53c0-3.52.05-6.87.05-10,0-.93,0-2.13,0-3.63S0,4,0,2.83H2.36c0,1.27,0,2.76,0,4.47v4.2q0,4.71.08,9Zm17.72-1.4-1.55,1.61Q14.31,19.44,9.24,16L3.52,12.08h0L8.41,8.41c2.38-1.79,4.8-3.65,7.24-5.61l1.62,1.32q-1.83,1.35-5.91,4.49L7,12v0c.44.29,2,1.31,4.57,3.08S16.24,18.17,17.72,19.13Z"/><path class="cls-2" d="M38.71,3.89q-7.3,6.78-8.63,8.07-.06,3.21.05,8.54H27.7c.05-3.33.08-6.09.08-8.3q-1.71-1.59-8.71-8.3l1.7-1.37Q27,8.51,29,10.38h0q1.91-1.8,8.2-7.83Z"/><path class="cls-2" d="M61.37,2.83q0,1.62,0,3.18t0,3.63c0,.86,0,1.53,0,2s0,1.15,0,2A7.51,7.51,0,0,1,60.71,17,5.76,5.76,0,0,1,58.88,19a9.48,9.48,0,0,1-3,1.41,16.18,16.18,0,0,1-4.06.43,16.22,16.22,0,0,1-4.07-.46A9.31,9.31,0,0,1,44.62,19a5.38,5.38,0,0,1-1.79-2.14,8.08,8.08,0,0,1-.57-3.3V11.83c0-.61,0-1.34,0-2.19,0-.63,0-1.58,0-2.83s0-2.57,0-4h2.4c0,.21,0,1.09,0,2.63s0,3,0,4.48c0,.78,0,1.37,0,1.8v1.78a4.72,4.72,0,0,0,1.9,4.25A9.52,9.52,0,0,0,51.78,19a9.5,9.5,0,0,0,5.41-1.3,4.63,4.63,0,0,0,1.87-4.09c0-.52,0-1,0-1.57s0-1.18,0-1.95c0-1.2,0-2.65,0-4.36s0-2.69,0-2.94Z"/><path class="cls-2" d="M79.91,15.52a3.74,3.74,0,0,1-.81,2.37,5.85,5.85,0,0,1-2.24,1.69,11.9,11.9,0,0,1-3.08.87,22.67,22.67,0,0,1-3.56.26c-1,0-2.23,0-3.64-.1l-.12-1.92c1.5.11,2.88.16,4.12.16a17.4,17.4,0,0,0,2.54-.19,10.24,10.24,0,0,0,2.15-.5,4.25,4.25,0,0,0,1.56-.9,2,2,0,0,0,.64-1.33,2,2,0,0,0-.55-1.5A5,5,0,0,0,75,13.25l-2.2-.84c-.8-.3-1.59-.62-2.37-.95A7.51,7.51,0,0,1,68,9.85a3.15,3.15,0,0,1-1-2.3,3.56,3.56,0,0,1,.68-2.08,5.18,5.18,0,0,1,1.76-1.58,8.7,8.7,0,0,1,2.65-1,17.69,17.69,0,0,1,3.53-.31c1,0,2.1,0,3.43.11l.24,1.82q-2.25-.12-4-.12a14,14,0,0,0-2.09.16,7.37,7.37,0,0,0-2,.54A3.32,3.32,0,0,0,70.07,6a1.89,1.89,0,0,0-.52,1.26,1.82,1.82,0,0,0,.62,1.36A5.88,5.88,0,0,0,72,9.74q1.38.57,2.52,1l1.83.7a6.76,6.76,0,0,1,2.73,1.78A3.58,3.58,0,0,1,79.91,15.52Z"/><path class="cls-2" d="M102.7,20.5c0-4.24,0-7,0-8.2l-7.37,0-7.74,0q0,2.54,0,8.2H85.3q.06-6.18.06-9.67,0-1.5,0-3.63c0-1.43,0-2.88,0-4.37h2.37c0,.9,0,2,0,3.4s0,2.77,0,4.17l7.77,0,7.34,0c0-1.35,0-2.75,0-4.21s0-2.57,0-3.36h2.36c0,2.05,0,3.76,0,5.13s0,2.52,0,3.46c0,1.78,0,4.81,0,9.11Z"/><path class="cls-2" d="M130.65,2.83q0,1.62,0,3.18c0,1,0,2.25,0,3.63v2c0,.48,0,1.15,0,2A7.51,7.51,0,0,1,130,17,5.64,5.64,0,0,1,128.17,19a9.53,9.53,0,0,1-3,1.41,16.15,16.15,0,0,1-4.05.43,16.36,16.36,0,0,1-4.08-.46A9.31,9.31,0,0,1,113.9,19a5.46,5.46,0,0,1-1.79-2.14,8.08,8.08,0,0,1-.57-3.3c0-.57,0-1.16,0-1.77V9.64c0-.63,0-1.58,0-2.83s0-2.57,0-4h2.4c0,.21,0,1.09,0,2.63s0,3,0,4.48c0,.78,0,1.37,0,1.8v1.78a4.75,4.75,0,0,0,1.9,4.25A9.56,9.56,0,0,0,121.07,19a9.44,9.44,0,0,0,5.4-1.3,4.61,4.61,0,0,0,1.87-4.09c0-.52,0-1,0-1.57s0-1.18,0-1.95c0-1.2,0-2.65,0-4.36s0-2.69,0-2.94Z"/><path class="cls-2" d="M159.44,4.74H147.86c0,.63,0,1.54,0,2.73s0,2.34,0,3.46h3.11l8.36,0v1.91c-4.51,0-7.38-.05-8.61-.05l-2.86,0c0,2.09,0,3.74,0,4.94s0,2.13,0,2.82H145.5q0-5.54.05-8.7,0-1.63,0-4.05c0-1.62,0-3.24,0-4.88h2.87l4,0,7.11,0Z"/><path class="cls-2" d="M182.87,2.83q0,1.62,0,3.18c0,1,0,2.25,0,3.63v2c0,.48,0,1.15,0,2a7.51,7.51,0,0,1-.62,3.31A5.73,5.73,0,0,1,180.39,19a9.53,9.53,0,0,1-3,1.41,16.15,16.15,0,0,1-4.05.43,16.36,16.36,0,0,1-4.08-.46A9.31,9.31,0,0,1,166.12,19a5.46,5.46,0,0,1-1.79-2.14,8.08,8.08,0,0,1-.57-3.3c0-.57,0-1.16,0-1.77V9.64c0-.63,0-1.58,0-2.83s0-2.57,0-4h2.4c0,.21,0,1.09,0,2.63s0,3,0,4.48c0,.78,0,1.37,0,1.8v1.78a4.75,4.75,0,0,0,1.9,4.25A9.56,9.56,0,0,0,173.29,19a9.44,9.44,0,0,0,5.4-1.3,4.61,4.61,0,0,0,1.87-4.09c0-.52,0-1,0-1.57s0-1.18,0-1.95c0-1.2,0-2.65,0-4.36s0-2.69,0-2.94Z"/><path class="cls-2" d="M189.3,20.53c0-3.52,0-6.87,0-10,0-.93,0-2.13,0-3.63s0-2.84,0-4h2.36c0,1.27,0,2.76,0,4.47v4.2c0,3.14,0,6.15.08,9ZM207,19.13l-1.56,1.61q-1.85-1.3-6.93-4.77l-5.71-3.89h0l4.89-3.66c2.38-1.79,4.79-3.65,7.24-5.61l1.62,1.32q-1.84,1.35-5.92,4.49L196.32,12v0l4.56,3.08Q204.8,17.69,207,19.13Z"/><path class="cls-2" d="M230.44,2.83c0,1.08,0,2.14,0,3.18s0,2.25,0,3.63c0,.86,0,1.53,0,2v2a7.37,7.37,0,0,1-.62,3.31A5.64,5.64,0,0,1,228,19a9.53,9.53,0,0,1-3.05,1.41,16.15,16.15,0,0,1-4,.43,16.36,16.36,0,0,1-4.08-.46A9.35,9.35,0,0,1,213.7,19a5.38,5.38,0,0,1-1.79-2.14,8.07,8.07,0,0,1-.58-3.3c0-.57,0-1.16,0-1.77s0-1.34,0-2.19c0-.63,0-1.58,0-2.83s0-2.57,0-4h2.41c0,.21,0,1.09,0,2.63s0,3,0,4.48c0,.78,0,1.37,0,1.8v1.78a4.72,4.72,0,0,0,1.9,4.25,11.8,11.8,0,0,0,10.71,0,4.62,4.62,0,0,0,1.86-4.09c0-.52,0-1,0-1.57s0-1.18,0-1.95c0-1.2,0-2.65,0-4.36s0-2.69,0-2.94Z"/><path class="cls-2" d="M249,15.52a3.74,3.74,0,0,1-.81,2.37,5.81,5.81,0,0,1-2.23,1.69,11.9,11.9,0,0,1-3.08.87,22.71,22.71,0,0,1-3.57.26c-1,0-2.22,0-3.63-.1l-.12-1.92c1.5.11,2.87.16,4.11.16a17.63,17.63,0,0,0,2.55-.19,10.24,10.24,0,0,0,2.15-.5,4.33,4.33,0,0,0,1.56-.9,1.91,1.91,0,0,0,.63-1.33,2,2,0,0,0-.54-1.5,5,5,0,0,0-1.89-1.18l-2.19-.84c-.8-.3-1.59-.62-2.37-.95a7.56,7.56,0,0,1-2.46-1.61,3.18,3.18,0,0,1-1-2.3,3.55,3.55,0,0,1,.67-2.08,5.31,5.31,0,0,1,1.77-1.58,8.73,8.73,0,0,1,2.64-1,17.87,17.87,0,0,1,3.54-.31c1,0,2.1,0,3.43.11l.24,1.82c-1.5-.08-2.85-.12-4-.12a14,14,0,0,0-2.09.16,7.27,7.27,0,0,0-2,.54,3.24,3.24,0,0,0-1.18.89,1.9,1.9,0,0,0-.53,1.26,1.86,1.86,0,0,0,.62,1.36,6.07,6.07,0,0,0,1.84,1.09q1.38.57,2.52,1l1.83.7a6.65,6.65,0,0,1,2.72,1.78A3.53,3.53,0,0,1,249,15.52Z"/><path class="cls-2" d="M271.77,20.5q0-6.36.05-8.2l-7.37,0-7.75,0c0,1.69,0,4.42,0,8.2h-2.36c0-4.12.05-7.34.05-9.67,0-1,0-2.21,0-3.63s0-2.88,0-4.37h2.36c0,.9,0,2,0,3.4s0,2.77,0,4.17l7.78,0,7.34,0c0-1.35,0-2.75,0-4.21s0-2.57,0-3.36h2.37c0,2.05,0,3.76,0,5.13s0,2.52,0,3.46c0,1.78,0,4.81.06,9.11Z"/><path class="cls-2" d="M280.62,20.5c0-3.24.06-6.12.06-8.66,0-1,0-2.32,0-3.94s0-3.32-.05-5.07h2.17c0,1.26,0,2.72,0,4.39s0,3,0,4.08c0,2.68,0,5.74.06,9.2Z"/><path class="cls-2" d="M8.52,38.4a13.45,13.45,0,0,0-.87-2.69c-.91-2.31-1.5-2.93-2.79-2.93H2.36V36.2a13.12,13.12,0,0,0,.14,2.2H0a13.32,13.32,0,0,0,.13-2.18v-9A15,15,0,0,0,0,25c.7,0,1.22.05,2.15.05h4c2.55,0,4,1.27,4,3.49A3.42,3.42,0,0,1,9.32,31a3.52,3.52,0,0,1-1.86,1c1.06.33,1.38.8,3,4.73.13.3.55,1.2.79,1.66ZM5.74,30.87a2.25,2.25,0,0,0,1.59-.61,2,2,0,0,0,.54-1.47C7.87,27.58,7.18,27,5.8,27H2.36v3.91Z"/><path class="cls-2" d="M22.49,38.51a15.1,15.1,0,0,0-2.16-.11H15.1c-1,0-1.46,0-2.13.05a13.77,13.77,0,0,0,.13-2.22V27.16A14.93,14.93,0,0,0,13,25c.67,0,1.1.05,2.13.05h5.06a18.63,18.63,0,0,0,2.16-.12v2.21A15.65,15.65,0,0,0,20.16,27H15.33v3.45h4.08a16.37,16.37,0,0,0,2.18-.12v2.2a13.18,13.18,0,0,0-2.18-.12h-4.1v4h5a15.07,15.07,0,0,0,2.15-.12Z"/><path class="cls-2" d="M35.86,34.32a6.52,6.52,0,0,1-1.12,2.52,5.73,5.73,0,0,1-4.58,1.82,5.75,5.75,0,0,1-4.31-1.61A7.52,7.52,0,0,1,24,31.79a7.6,7.6,0,0,1,2-5.42,5.85,5.85,0,0,1,4.19-1.59,6,6,0,0,1,3.22.8,5.11,5.11,0,0,1,1.78,1.83,6.06,6.06,0,0,1,.52,1.29l-2.33.54a3.33,3.33,0,0,0-.72-1.44,3,3,0,0,0-2.45-1c-2.38,0-3.82,1.86-3.82,4.95s1.47,5,3.82,5a3.21,3.21,0,0,0,2.72-1.25,3.39,3.39,0,0,0,.55-1.54Z"/><path class="cls-2" d="M46.28,38.4a14.19,14.19,0,0,0-.87-2.69c-.91-2.31-1.5-2.93-2.79-2.93h-2.5V36.2a13.12,13.12,0,0,0,.14,2.2h-2.5a13.32,13.32,0,0,0,.13-2.18v-9A15,15,0,0,0,37.76,25c.7,0,1.22.05,2.14.05h4c2.55,0,4,1.27,4,3.49A3.42,3.42,0,0,1,47.08,31a3.52,3.52,0,0,1-1.86,1c1.06.33,1.38.8,3,4.73.13.3.55,1.2.78,1.66Zm-2.79-7.53a2.27,2.27,0,0,0,1.6-.61,2,2,0,0,0,.53-1.47c0-1.21-.68-1.83-2.06-1.83H40.12v3.91Z"/><path class="cls-2" d="M62.26,25.05a13.66,13.66,0,0,0-.13,2.28v6c0,3.47-2.07,5.42-5.72,5.42a5.77,5.77,0,0,1-4.33-1.58,5.43,5.43,0,0,1-1.26-3.86V27.35a13.93,13.93,0,0,0-.13-2.3h2.5a13,13,0,0,0-.14,2.3v5.91c0,2.27,1.18,3.46,3.44,3.46s3.41-1.19,3.41-3.47v-5.9a13.58,13.58,0,0,0-.14-2.3Z"/><path class="cls-2" d="M67.18,25.05A12.45,12.45,0,0,0,67,27.21v9a12.73,12.73,0,0,0,.14,2.17H64.63a12.89,12.89,0,0,0,.13-2.17v-9a12.61,12.61,0,0,0-.13-2.16Z"/><path class="cls-2" d="M75.43,36.22a14.11,14.11,0,0,0,.13,2.18H73a14.17,14.17,0,0,0,.14-2.18V27.06H70.9a15.49,15.49,0,0,0-2.29.12V24.93a17.36,17.36,0,0,0,2.28.12h6.64A18.35,18.35,0,0,0,80,24.93v2.25a16.61,16.61,0,0,0-2.46-.12h-2.1Z"/></g></g></svg>