<svg xmlns="http://www.w3.org/2000/svg" width="216.07" height="29.48" viewBox="0 0 216.07 29.48"><defs><style>.cls-1{fill:#d688aa;}</style></defs><title>saiyou_logo2</title><g id="レイヤー_2" data-name="レイヤー 2"><g id="レイヤー_1-2" data-name="レイヤー 1"><path class="cls-1" d="M7.62,29.21a12.41,12.41,0,0,0-.78-2.4C6,24.74,5.5,24.18,4.35,24.18H2.11v3.06a11.81,11.81,0,0,0,.12,2H0a11.78,11.78,0,0,0,.12-1.95V19.17a13.44,13.44,0,0,0-.12-2c.63,0,1.09.05,1.92.05h3.6c2.28,0,3.58,1.14,3.58,3.12a3.06,3.06,0,0,1-.76,2.23,3.13,3.13,0,0,1-1.67.87c1,.3,1.23.72,2.72,4.23.12.27.49,1.08.7,1.49ZM5.13,22.47a2,2,0,0,0,1.42-.54A1.75,1.75,0,0,0,7,20.61C7,19.53,6.42,19,5.19,19H2.11v3.49Z"/><path class="cls-1" d="M19.74,29.31a13.78,13.78,0,0,0-1.94-.1H13.12c-.9,0-1.3,0-1.9,0a12.09,12.09,0,0,0,.12-2V19.16a13.39,13.39,0,0,0-.12-1.94c.6,0,1,.05,1.9.05h4.53a15.12,15.12,0,0,0,1.94-.11v2a14.36,14.36,0,0,0-1.94-.1H13.33v3.09H17A14.67,14.67,0,0,0,18.93,22v2A11.71,11.71,0,0,0,17,23.88H13.32v3.54h4.5a15.38,15.38,0,0,0,1.92-.1Z"/><path class="cls-1" d="M31.32,25.56a5.77,5.77,0,0,1-1,2.25,5.09,5.09,0,0,1-4.09,1.64A5.19,5.19,0,0,1,22.36,28a6.78,6.78,0,0,1-1.63-4.71,6.83,6.83,0,0,1,1.75-4.85A5.23,5.23,0,0,1,26.23,17a5.25,5.25,0,0,1,2.88.72,4.51,4.51,0,0,1,1.59,1.63,5.47,5.47,0,0,1,.47,1.16L29.08,21a3.09,3.09,0,0,0-.64-1.29,2.7,2.7,0,0,0-2.19-.93c-2.13,0-3.42,1.66-3.42,4.42s1.32,4.46,3.42,4.46a2.88,2.88,0,0,0,2.43-1.11,3.15,3.15,0,0,0,.49-1.38Z"/><path class="cls-1" d="M40.26,29.21a12.41,12.41,0,0,0-.78-2.4c-.81-2.07-1.34-2.63-2.49-2.63H34.75v3.06a11.81,11.81,0,0,0,.12,2H32.64a11.78,11.78,0,0,0,.12-1.95V19.17a13.44,13.44,0,0,0-.12-2c.63,0,1.09.05,1.92.05h3.6c2.28,0,3.58,1.14,3.58,3.12A3.06,3.06,0,0,1,41,22.62a3.13,3.13,0,0,1-1.67.87c.95.3,1.23.72,2.72,4.23.12.27.49,1.08.7,1.49Zm-2.49-6.74a2,2,0,0,0,1.42-.54,1.75,1.75,0,0,0,.48-1.32c0-1.08-.61-1.63-1.84-1.63H34.75v3.49Z"/><path class="cls-1" d="M54.18,17.27a12,12,0,0,0-.12,2v5.32c0,3.11-1.85,4.85-5.12,4.85a5.18,5.18,0,0,1-3.87-1.41A4.86,4.86,0,0,1,44,24.62v-5.3a12.26,12.26,0,0,0-.12-2.05h2.23a11.73,11.73,0,0,0-.12,2.05v5.3A2.75,2.75,0,0,0,49,27.71c2,0,3-1.07,3-3.11V19.32a12.1,12.1,0,0,0-.12-2.05Z"/><path class="cls-1" d="M58.2,17.27a11.14,11.14,0,0,0-.12,1.93v8.07a11.34,11.34,0,0,0,.12,1.94H55.92A11.34,11.34,0,0,0,56,27.27V19.2a11.14,11.14,0,0,0-.12-1.93Z"/><path class="cls-1" d="M65.2,27.26a12.49,12.49,0,0,0,.12,1.95H63.06a12.57,12.57,0,0,0,.12-1.95V19.07h-2a15.8,15.8,0,0,0-2,.1v-2a14.15,14.15,0,0,0,2,.11h5.94a14.92,14.92,0,0,0,2.2-.11v2a16.67,16.67,0,0,0-2.2-.1H65.2Z"/><path class="cls-1" d="M8.92,10.3a20.88,20.88,0,0,0,1.5,1.91H7.65a14.69,14.69,0,0,0-1-1.58l-3-4.2L2.08,8.07v2.2a9.75,9.75,0,0,0,.14,1.94H0a12.94,12.94,0,0,0,.12-1.94V2.2A12.3,12.3,0,0,0,0,.27H2.22A10.6,10.6,0,0,0,2.08,2.2V5.7l3.83-4A7.72,7.72,0,0,0,7.08.27H9.91C9.48.7,9,1.18,8.32,1.86L5.11,5.14Z"/><path class="cls-1" d="M14.82,12.21a15.25,15.25,0,0,0,.12-1.94v-3L11.47,1.81C11.25,1.45,10.9,1,10.42.27h2.63a6,6,0,0,0,.72,1.47l2.17,3.69,2.21-3.68a6.38,6.38,0,0,0,.7-1.48h2.61c-.21.3-.78,1.12-1,1.54L17,7.32v2.95a12.44,12.44,0,0,0,.12,1.94Z"/><path class="cls-1" d="M32.64.27a12,12,0,0,0-.12,2V7.63c0,3.11-1.85,4.85-5.12,4.85a5.14,5.14,0,0,1-3.86-1.41,4.82,4.82,0,0,1-1.13-3.45V2.32a12.26,12.26,0,0,0-.12-2h2.23a11.73,11.73,0,0,0-.12,2.05v5.3a2.76,2.76,0,0,0,3.08,3.09c2,0,3-1.07,3-3.11V2.32a12.1,12.1,0,0,0-.12-2Z"/><path class="cls-1" d="M36.15,8.49a2.17,2.17,0,0,0,.42,1.32,2.65,2.65,0,0,0,2.19.88c1.5,0,2.4-.67,2.4-1.8a1.54,1.54,0,0,0-.75-1.38,9.58,9.58,0,0,0-2.61-.73,5.36,5.36,0,0,1-2.27-.92,3,3,0,0,1-1.15-2.43C34.38,1.35,36.06,0,38.64,0a4.4,4.4,0,0,1,3.73,1.51,4,4,0,0,1,.74,1.74L41,3.51a1.92,1.92,0,0,0-.45-1.07,2.39,2.39,0,0,0-1.87-.72c-1.31,0-2.19.66-2.19,1.64a1.42,1.42,0,0,0,1,1.36,11.64,11.64,0,0,0,2.11.54A6.59,6.59,0,0,1,42,6.18a3,3,0,0,1,1.24,2.58,3.52,3.52,0,0,1-.94,2.55,5,5,0,0,1-3.59,1.14,6,6,0,0,1-3.15-.78A3.61,3.61,0,0,1,34.27,10,5.47,5.47,0,0,1,34,8.71Z"/><path class="cls-1" d="M55,.27a11.62,11.62,0,0,0-.12,1.92v8.08A12,12,0,0,0,55,12.21H52.75a11.49,11.49,0,0,0,.12-1.94V6.88h-6v3.39A11.88,11.88,0,0,0,47,12.21H44.73a11.34,11.34,0,0,0,.12-1.94V2.2A11.37,11.37,0,0,0,44.73.27H47a12.25,12.25,0,0,0-.12,1.92V5.08h6V2.2A11.29,11.29,0,0,0,52.75.27Z"/><path class="cls-1" d="M67.06.27a12,12,0,0,0-.12,2V7.63c0,3.11-1.84,4.85-5.11,4.85A5.15,5.15,0,0,1,58,11.07a4.82,4.82,0,0,1-1.13-3.45V2.32a12.26,12.26,0,0,0-.12-2H59a11.73,11.73,0,0,0-.12,2.05v5.3a2.75,2.75,0,0,0,3.07,3.09c2,0,3.05-1.07,3.05-3.11V2.32a12.1,12.1,0,0,0-.12-2Z"/><path class="cls-1" d="M75.54,10.05a13,13,0,0,0,.12,2.16H73.42a12.64,12.64,0,0,0,.12-2.13V2.17A13,13,0,0,0,73.42.22c.62,0,1,.05,1.91.05h4.2a14.4,14.4,0,0,0,2-.11v2a13.43,13.43,0,0,0-2-.11h-4V5.26h3.21a15.84,15.84,0,0,0,2-.1v2a15.73,15.73,0,0,0-2-.1H75.54Z"/><path class="cls-1" d="M93,.27a12,12,0,0,0-.12,2V7.63c0,3.11-1.85,4.85-5.12,4.85a5.18,5.18,0,0,1-3.87-1.41A4.86,4.86,0,0,1,82.8,7.62V2.32a12.26,12.26,0,0,0-.12-2h2.23a11.73,11.73,0,0,0-.12,2.05v5.3a2.75,2.75,0,0,0,3.08,3.09c2,0,3-1.07,3-3.11V2.32a12.1,12.1,0,0,0-.12-2Z"/><path class="cls-1" d="M103.69,10.3a20.88,20.88,0,0,0,1.5,1.91h-2.77a14.69,14.69,0,0,0-1-1.58l-3-4.2L96.85,8.07v2.2A9.75,9.75,0,0,0,97,12.21H94.77a12.94,12.94,0,0,0,.12-1.94V2.2A12.3,12.3,0,0,0,94.77.27H97a10.6,10.6,0,0,0-.14,1.93V5.7l3.83-4A7.72,7.72,0,0,0,101.85.27h2.83c-.43.43-.93.91-1.59,1.59L99.88,5.14Z"/><path class="cls-1" d="M116.41.27a12,12,0,0,0-.12,2V7.63c0,3.11-1.84,4.85-5.11,4.85a5.15,5.15,0,0,1-3.87-1.41,4.82,4.82,0,0,1-1.13-3.45V2.32a12.26,12.26,0,0,0-.12-2h2.24a11.73,11.73,0,0,0-.12,2.05v5.3a2.75,2.75,0,0,0,3.07,3.09c2,0,3-1.07,3-3.11V2.32a12.1,12.1,0,0,0-.12-2Z"/><path class="cls-1" d="M119.92,8.49a2.17,2.17,0,0,0,.42,1.32,2.67,2.67,0,0,0,2.19.88c1.5,0,2.4-.67,2.4-1.8a1.52,1.52,0,0,0-.75-1.38,9.58,9.58,0,0,0-2.61-.73,5.37,5.37,0,0,1-2.26-.92,2.94,2.94,0,0,1-1.16-2.43c0-2.08,1.68-3.43,4.26-3.43a4.44,4.44,0,0,1,3.74,1.51,4.16,4.16,0,0,1,.73,1.74l-2.14.26a2,2,0,0,0-.45-1.07,2.39,2.39,0,0,0-1.88-.72c-1.3,0-2.19.66-2.19,1.64a1.42,1.42,0,0,0,1,1.36,11.63,11.63,0,0,0,2.12.54,6.6,6.6,0,0,1,2.44.92,3,3,0,0,1,1.25,2.58,3.49,3.49,0,0,1-1,2.55,5,5,0,0,1-3.58,1.14,6,6,0,0,1-3.15-.78A3.55,3.55,0,0,1,118.05,10a4.92,4.92,0,0,1-.29-1.25Z"/><path class="cls-1" d="M138.76.27a11.62,11.62,0,0,0-.12,1.92v8.08a12,12,0,0,0,.12,1.94h-2.23a11.49,11.49,0,0,0,.12-1.94V6.88h-6v3.39a11.88,11.88,0,0,0,.12,1.94H128.5a11.34,11.34,0,0,0,.12-1.94V2.2A11.37,11.37,0,0,0,128.5.27h2.24a12.25,12.25,0,0,0-.12,1.92V5.08h6V2.2a11.29,11.29,0,0,0-.12-1.93Z"/><path class="cls-1" d="M142.8.27a11.14,11.14,0,0,0-.12,1.93v8.07a11.34,11.34,0,0,0,.12,1.94h-2.28a11.34,11.34,0,0,0,.12-1.94V2.2a11.14,11.14,0,0,0-.12-1.93Z"/><path class="cls-1" d="M150.93,8.49a2.17,2.17,0,0,0,.42,1.32,2.65,2.65,0,0,0,2.19.88c1.5,0,2.4-.67,2.4-1.8a1.54,1.54,0,0,0-.75-1.38,9.58,9.58,0,0,0-2.61-.73,5.36,5.36,0,0,1-2.27-.92,3,3,0,0,1-1.15-2.43c0-2.08,1.68-3.43,4.26-3.43a4.4,4.4,0,0,1,3.73,1.51,4,4,0,0,1,.74,1.74l-2.15.26a1.92,1.92,0,0,0-.45-1.07,2.39,2.39,0,0,0-1.87-.72c-1.31,0-2.19.66-2.19,1.64a1.42,1.42,0,0,0,1,1.36,11.64,11.64,0,0,0,2.11.54,6.59,6.59,0,0,1,2.45.92,3,3,0,0,1,1.24,2.58,3.52,3.52,0,0,1-.94,2.55,5,5,0,0,1-3.59,1.14,6,6,0,0,1-3.15-.78A3.61,3.61,0,0,1,149.05,10a5.47,5.47,0,0,1-.28-1.25Z"/><path class="cls-1" d="M168,12.31a13.78,13.78,0,0,0-1.94-.1h-4.68c-.9,0-1.3,0-1.9,0a12.09,12.09,0,0,0,.12-2V2.16a13.39,13.39,0,0,0-.12-1.94c.6,0,1,.05,1.9.05h4.53a15.12,15.12,0,0,0,1.94-.11v2a14.36,14.36,0,0,0-1.94-.1h-4.32V5.13h3.65A14.67,14.67,0,0,0,167.22,5V7a11.71,11.71,0,0,0-1.95-.11h-3.66v3.54h4.5a15.38,15.38,0,0,0,1.92-.1Z"/><path class="cls-1" d="M177,12.21a12.41,12.41,0,0,0-.78-2.4c-.81-2.07-1.34-2.63-2.49-2.63h-2.24v3.06a11.81,11.81,0,0,0,.12,2h-2.23a11.78,11.78,0,0,0,.12-2V2.17a13.44,13.44,0,0,0-.12-1.95c.63,0,1.09.05,1.92.05h3.6c2.28,0,3.58,1.14,3.58,3.12a3.06,3.06,0,0,1-.76,2.23,3.13,3.13,0,0,1-1.67.87c.95.3,1.23.72,2.72,4.23.12.27.49,1.08.7,1.49Zm-2.49-6.74A2,2,0,0,0,176,4.93a1.75,1.75,0,0,0,.48-1.32c0-1.08-.61-1.63-1.84-1.63h-3.08V5.47Z"/><path class="cls-1" d="M184.17,12.21a11.68,11.68,0,0,0-.48-1.5l-3.21-8.66a14.32,14.32,0,0,0-.75-1.78h2.47a10.44,10.44,0,0,0,.41,1.57l2.49,7.41c.07.18.25.78.36,1.14.13-.45.25-.87.34-1.14l2.49-7.41A9.19,9.19,0,0,0,188.7.27h2.47a11.43,11.43,0,0,0-.75,1.78l-3.21,8.66a9.08,9.08,0,0,0-.46,1.5Z"/><path class="cls-1" d="M194.29.27a11.14,11.14,0,0,0-.12,1.93v8.07a11.34,11.34,0,0,0,.12,1.94H192a11.34,11.34,0,0,0,.12-1.94V2.2A11.14,11.14,0,0,0,192,.27Z"/><path class="cls-1" d="M206.23,8.56a5.63,5.63,0,0,1-1,2.25,5.91,5.91,0,0,1-7.95.2,6.78,6.78,0,0,1-1.64-4.71,6.79,6.79,0,0,1,1.76-4.85A5.84,5.84,0,0,1,204,.75a4.68,4.68,0,0,1,1.59,1.63,6.15,6.15,0,0,1,.46,1.16L204,4a3.09,3.09,0,0,0-.65-1.29,2.7,2.7,0,0,0-2.19-.93c-2.13,0-3.42,1.66-3.42,4.42s1.32,4.46,3.42,4.46a2.88,2.88,0,0,0,2.43-1.11,2.92,2.92,0,0,0,.49-1.38Z"/><path class="cls-1" d="M216.07,12.31a13.78,13.78,0,0,0-1.94-.1h-4.67c-.9,0-1.31,0-1.91,0a12.09,12.09,0,0,0,.12-2V2.16a13.39,13.39,0,0,0-.12-1.94c.6,0,1,.05,1.91.05H214a15,15,0,0,0,1.93-.11v2A14.3,14.3,0,0,0,214,2h-4.32V5.13h3.64A14.67,14.67,0,0,0,215.26,5V7a11.64,11.64,0,0,0-1.95-.11h-3.66v3.54h4.5a15.38,15.38,0,0,0,1.92-.1Z"/></g></g></svg>