<svg xmlns="http://www.w3.org/2000/svg" width="1170" height="31.75" viewBox="0 0 1170 31.75"><defs><style>.cls-1{fill:none;stroke:#000;stroke-miterlimit:10;}</style></defs><title>shisetu</title><g id="レイヤー_2" data-name="レイヤー 2"><g id="レイヤー_1-2" data-name="レイヤー 1"><path d="M523,3.42a21.49,21.49,0,0,0-.21-3.21h2.58a17.91,17.91,0,0,0-.21,3.21V5.73h2.38a19.87,19.87,0,0,0,3.11-.18V7.82a24,24,0,0,0-3.11-.14h-4.3c-.07,2-.07,2-.14,4.79h3.53a16,16,0,0,0,2.45-.14c0,.66-.07,1.29-.07,2.17a101.61,101.61,0,0,1-.67,12.36c-.31,1.92-.7,3-1.26,3.42a4.28,4.28,0,0,1-2.51.53c-.45,0-1.43-.07-2.38-.14a8.18,8.18,0,0,0-.41-2.27,10.66,10.66,0,0,0,2.82.38c1.23,0,1.44-.31,1.79-2.69a88.12,88.12,0,0,0,.59-11.7h-4A43.11,43.11,0,0,1,522,23a21.7,21.7,0,0,1-3.94,8.31,7.46,7.46,0,0,0-1.64-1.74c2.51-3.07,3.7-6.22,4.26-11.25a105.31,105.31,0,0,0,.49-10.62h-1a16.21,16.21,0,0,0-2.93.18V5.52a18.2,18.2,0,0,0,3,.21H523ZM533.92,7a37.31,37.31,0,0,1-3.77,5.72,4.34,4.34,0,0,0-1.67-1.39A26.4,26.4,0,0,0,534,1.82a9.74,9.74,0,0,0,.48-1.75l2.34.56a7.67,7.67,0,0,0-.62,1.47c-.6,1.43-.81,1.88-1.26,2.9h10a23.53,23.53,0,0,0,3.56-.21V7.13A33.59,33.59,0,0,0,545,7Zm4.58,6.84V11.25a23.59,23.59,0,0,0-.17-2.9h2.34a16.36,16.36,0,0,0-.21,2.83v2.06L544.37,12a26,26,0,0,0,2.86-1c-.1,2.23-.1,2.65-.14,3.39-.17,5.41-.38,7.4-.91,8.34-.34.6-1,.84-2.34.84-.41,0-1.15,0-1.92-.1a8.14,8.14,0,0,0-.49-2.06,17.21,17.21,0,0,0,2.28.28c.62,0,.9-.32,1-1.05a55,55,0,0,0,.38-6.88l-4.64,1.5v6.43a15.92,15.92,0,0,0,.17,2.93h-2.27a20.69,20.69,0,0,0,.14-2.93v-5.8l-4,1.29V27.28c0,1.43.38,1.54,6.08,1.54,3.66,0,4.89-.14,5.27-.6s.66-2.09.73-4.75a6.55,6.55,0,0,0,2.17.87c-.59,6.29-.87,6.5-8.28,6.5-6.88,0-8-.42-8-3V17.78a19.08,19.08,0,0,0-2.23.91l-.46-2.31a18.11,18.11,0,0,0,2.45-.59l.24-.07V13.17a21.91,21.91,0,0,0-.14-2.87h2.38a13.65,13.65,0,0,0-.21,2.83v2Z"/><path d="M552.74,6a15.06,15.06,0,0,0,2.8.17h6.67A14.26,14.26,0,0,0,565,6V8.35a15,15,0,0,0-2.55-.14h-6.91a21.06,21.06,0,0,0-2.8.14Zm1.19-4.82a14.26,14.26,0,0,0,2.66.17h4.71A14.51,14.51,0,0,0,564,1.19v2.2a19.25,19.25,0,0,0-2.66-.14h-4.71a18.55,18.55,0,0,0-2.66.14Zm0,30.56a23.34,23.34,0,0,0,.21-3.39V23.65a18.18,18.18,0,0,0-.17-2.94,22.65,22.65,0,0,0,2.79.14h4.58a15.18,15.18,0,0,0,2.55-.1,27.38,27.38,0,0,0-.11,2.76v4.92a18.12,18.12,0,0,0,.18,2.86h-2.17V29.86h-5.62v1.89ZM554,11a15.66,15.66,0,0,0,2.51.14h4.93a15.65,15.65,0,0,0,2.48-.14v2.13a16.61,16.61,0,0,0-2.48-.14h-4.93a16.14,16.14,0,0,0-2.51.14Zm0,4.82a16,16,0,0,0,2.51.14h4.93a15.32,15.32,0,0,0,2.48-.14V18a17,17,0,0,0-2.48-.14h-4.93A15.83,15.83,0,0,0,554,18Zm2.2,12.19h5.62V22.67h-5.62Zm25.6-11.77a11.35,11.35,0,0,0-.66,1.29A27.26,27.26,0,0,1,576,24.94a26.06,26.06,0,0,0,8.77,4.36,12.11,12.11,0,0,0-1.26,2.2,29.21,29.21,0,0,1-9.05-5.06,29.36,29.36,0,0,1-8.87,5.14,5.94,5.94,0,0,0-1.36-1.93A26.87,26.87,0,0,0,572.9,25c-2.41-2.41-3.39-3.91-5.17-8a19.19,19.19,0,0,0-2.1.18V15a12.73,12.73,0,0,0,2.48.17h9.75a13.42,13.42,0,0,0,2.62-.14Zm-10.83-13c-.1,3.77-.52,5.62-1.67,7.72a9.74,9.74,0,0,1-2.87,3.25,7.21,7.21,0,0,0-1.78-1.47A7.87,7.87,0,0,0,568,8.66a14,14,0,0,0,.81-5.31,11.07,11.07,0,0,0-.18-2.09,25.35,25.35,0,0,0,2.73.14h4.26a24.16,24.16,0,0,0,3-.14,27.88,27.88,0,0,0-.14,3.28V10c0,.59.31.73,1.46.73,1.43,0,1.85-.1,2-.49a10.91,10.91,0,0,0,.56-3.91,6.21,6.21,0,0,0,1.92.95c-.21,2.82-.56,4.12-1.22,4.71s-1.4.63-3.39.63c-2.83,0-3.46-.35-3.46-1.92V3.32ZM569.79,17a17.78,17.78,0,0,0,4.64,6.57A20.82,20.82,0,0,0,579,17Z"/><path d="M586.72,16c1-3.28,1.26-4.5,1.47-9.25l1.92.52a35,35,0,0,1-1.5,9.6Zm4.54,15.79a27.05,27.05,0,0,0,.25-4V3.53A22.06,22.06,0,0,0,591.26,0H594a22.43,22.43,0,0,0-.24,3.53V27.77a28.08,28.08,0,0,0,.24,4Zm4.54-20.89a20.41,20.41,0,0,0-1.6-4.75l1.57-.66a35.89,35.89,0,0,1,1.74,4.61Zm4.86-6.35a20.17,20.17,0,0,0-3.28.17V2.52a16.68,16.68,0,0,0,3.31.2h5.21A12,12,0,0,0,605.69,0h2.48A11.32,11.32,0,0,0,608,2.72h6.46a17.52,17.52,0,0,0,3.42-.2V4.68a21.88,21.88,0,0,0-3.38-.17H608V6.88h5.45a19.8,19.8,0,0,0,3.21-.17V8.77a20.93,20.93,0,0,0-3.25-.18H608v2.59h7a21.53,21.53,0,0,0,3.46-.21V13.2A27,27,0,0,0,615,13H600.17a22.61,22.61,0,0,0-3.56.21V11a21.76,21.76,0,0,0,3.56.21h5.73V8.59h-4.19a20.76,20.76,0,0,0-3.18.18V6.71a20,20,0,0,0,3.21.17h4.16V4.51Zm.24,23.4a23.94,23.94,0,0,0,.21,3.77H598.6a25,25,0,0,0,.17-3.77V18.06a24.62,24.62,0,0,0-.1-3,29.17,29.17,0,0,0,3.25.14h10.72a17.1,17.1,0,0,0,3.21-.18,33,33,0,0,0-.14,3.74v9.92c0,2.17-.66,2.73-3.28,2.73-.94,0-2.06-.08-3.56-.18a7.56,7.56,0,0,0-.56-2.2,24,24,0,0,0,3.91.42c1.15,0,1.36-.14,1.36-.94V25.74H600.9Zm12.68-8.32V16.94H600.9v2.65Zm0,4.37V21.34H600.9V24Z"/><path d="M635.06,9.57a14.23,14.23,0,0,0,2.75-.17v2.27a18.45,18.45,0,0,0-2.75-.14h-9.85a19.8,19.8,0,0,0-2.8.14V9.4a15.26,15.26,0,0,0,2.8.17h4.15V6h-3.28a17.71,17.71,0,0,0-2.62.14V4a17.27,17.27,0,0,0,2.62.14h3.28V3a19.15,19.15,0,0,0-.21-3h2.48a20.88,20.88,0,0,0-.21,3v1h2.8A17,17,0,0,0,636.8,4v2.2A17.46,17.46,0,0,0,634.22,6h-2.8V9.57Zm0,7.82a13.38,13.38,0,0,0,2.75-.17v2.27a18.7,18.7,0,0,0-2.75-.14h-3.64v3.53h3.22a17.64,17.64,0,0,0,2.58-.14V25a19.25,19.25,0,0,0-2.58-.14h-3.22V28.4a25.8,25.8,0,0,0,.21,3.31h-2.51a21.68,21.68,0,0,0,.24-3.31V24.83H625.8a19.19,19.19,0,0,0-2.62.14V22.74a17.89,17.89,0,0,0,2.62.14h3.56V19.35h-4.15a20.42,20.42,0,0,0-2.8.14V17.22a14.81,14.81,0,0,0,2.8.17h6.42a21.16,21.16,0,0,0,1.89-5.48l1.92.56a28.79,28.79,0,0,1-1.85,4.92ZM626.57,17a25.71,25.71,0,0,0-1.33-4.58l1.75-.55a27.3,27.3,0,0,1,1.39,4.5Zm14.25-2.55V28.22a23.33,23.33,0,0,0,.24,3.49h-2.55a21.8,21.8,0,0,0,.25-3.49V4.75a29.19,29.19,0,0,0-.18-3.28,22.24,22.24,0,0,0,3.29.17h8.06a18.43,18.43,0,0,0,2.94-.14c-.07.6-.07.6-.25,2.48a13.93,13.93,0,0,1-1,5c-.53.77-1.26,1-3,1a27.22,27.22,0,0,1-3.43-.25,9.68,9.68,0,0,0-.45-2.1,21.28,21.28,0,0,0,4,.49c1.32,0,1.5-.45,1.81-4.47h-9.67v8.91h7.58a16.94,16.94,0,0,0,2.79-.14l1.26,1.29a9.14,9.14,0,0,0-.42,1.43,35.29,35.29,0,0,1-3.53,9.26,23.33,23.33,0,0,0,5.87,5.06,7.81,7.81,0,0,0-1.43,2,29.1,29.1,0,0,1-5.59-5.17,25.58,25.58,0,0,1-4.61,5.14,9.1,9.1,0,0,0-1.57-1.75,21.48,21.48,0,0,0,4.85-5.1c-1.81-2.55-2.93-5.31-4.12-10.06Zm3,0c1.18,4.44,1.71,5.8,3.31,8.17A29.68,29.68,0,0,0,650,14.46Z"/><line class="cls-1" y1="15.16" x2="498" y2="15.16"/><line class="cls-1" x1="672" y1="15.16" x2="1170" y2="15.16"/></g></g></svg>