<svg xmlns="http://www.w3.org/2000/svg" width="414" height="25.41" viewBox="0 0 414 25.41"><defs><style>.cls-1{fill:none;stroke:#000;stroke-miterlimit:10;stroke-width:1.16px;}</style></defs><title>shisetu_sm</title><g id="レイヤー_2" data-name="レイヤー 2"><g id="レイヤー_1-2" data-name="レイヤー 1"><path d="M159.12,2.74A17.45,17.45,0,0,0,159,.17H161a13.92,13.92,0,0,0-.17,2.57V4.58h1.9a15,15,0,0,0,2.49-.14V6.26a19.16,19.16,0,0,0-2.49-.11h-3.44c-.05,1.59-.05,1.59-.11,3.83H162A12.73,12.73,0,0,0,164,9.87c0,.53,0,1,0,1.73a83.74,83.74,0,0,1-.53,9.9c-.26,1.53-.56,2.4-1,2.74a3.47,3.47,0,0,1-2,.42c-.37,0-1.15-.06-1.9-.12a6.62,6.62,0,0,0-.34-1.81,8.76,8.76,0,0,0,2.27.3c1,0,1.14-.25,1.42-2.15a69.25,69.25,0,0,0,.48-9.36h-3.16a35.42,35.42,0,0,1-.84,6.87,17.54,17.54,0,0,1-3.16,6.66,5.93,5.93,0,0,0-1.31-1.4c2-2.46,3-5,3.41-9,.22-2,.28-3.19.39-8.5h-.81a13.28,13.28,0,0,0-2.35.14V4.42a14.92,14.92,0,0,0,2.43.16h2.21Zm8.72,2.85a29.68,29.68,0,0,1-3,4.58,3.49,3.49,0,0,0-1.34-1.11,21.15,21.15,0,0,0,4.42-7.61,8.64,8.64,0,0,0,.39-1.39l1.87.44a6.24,6.24,0,0,0-.5,1.18c-.48,1.14-.65,1.51-1,2.32h8a18.3,18.3,0,0,0,2.86-.17V5.7c-.79-.08-1.77-.11-2.86-.11Zm3.66,5.48V9a17.08,17.08,0,0,0-.14-2.32h1.88A12.36,12.36,0,0,0,173.07,9v1.64l3.13-1a22.7,22.7,0,0,0,2.29-.84c-.08,1.79-.08,2.12-.11,2.71-.14,4.33-.31,5.93-.73,6.68-.28.48-.84.67-1.87.67-.34,0-.92,0-1.54-.08a6.72,6.72,0,0,0-.39-1.65,14,14,0,0,0,1.82.22c.5,0,.72-.25.81-.84a44.17,44.17,0,0,0,.31-5.5l-3.72,1.2v5.14a12.87,12.87,0,0,0,.14,2.35h-1.82a18,18,0,0,0,.11-2.35V12.69l-3.18,1v8.1c0,1.15.3,1.23,4.86,1.23,2.94,0,3.91-.11,4.22-.47s.53-1.68.59-3.8a5.18,5.18,0,0,0,1.73.69c-.47,5-.7,5.2-6.62,5.2-5.51,0-6.41-.33-6.41-2.4v-8a13.68,13.68,0,0,0-1.78.73l-.37-1.85a12.94,12.94,0,0,0,2-.48l.19-.05v-2a17.1,17.1,0,0,0-.11-2.29h1.9a11.11,11.11,0,0,0-.16,2.26v1.57Z"/><path d="M182.9,4.81a12.21,12.21,0,0,0,2.24.14h5.34a11.5,11.5,0,0,0,2.23-.14V6.68a12.94,12.94,0,0,0-2-.11h-5.53a18.41,18.41,0,0,0-2.24.11ZM183.85,1a11.57,11.57,0,0,0,2.13.14h3.77A11.77,11.77,0,0,0,191.88,1V2.71a16.75,16.75,0,0,0-2.13-.11H186a16.24,16.24,0,0,0-2.13.11Zm0,24.46A18.92,18.92,0,0,0,184,22.7V18.92a14.62,14.62,0,0,0-.14-2.34,20,20,0,0,0,2.24.11h3.66a10.78,10.78,0,0,0,2-.09,21.39,21.39,0,0,0-.08,2.21v3.94a13.79,13.79,0,0,0,.14,2.3h-1.74V23.9h-4.5v1.51Zm0-16.58a11.36,11.36,0,0,0,2,.12h4a11.2,11.2,0,0,0,2-.12v1.71a13,13,0,0,0-2-.11h-4a12.73,12.73,0,0,0-2,.11Zm0,3.86a12.92,12.92,0,0,0,2,.11h4a12.17,12.17,0,0,0,2-.11V14.4a13.07,13.07,0,0,0-2-.12h-4a12.34,12.34,0,0,0-2,.12Zm1.76,9.76h4.5V18.14h-4.5ZM206.13,13a8.68,8.68,0,0,0-.53,1,21.54,21.54,0,0,1-4.11,5.9,20.85,20.85,0,0,0,7,3.49,9.74,9.74,0,0,0-1,1.76,23.52,23.52,0,0,1-7.24-4.05,23.42,23.42,0,0,1-7.1,4.11,4.67,4.67,0,0,0-1.09-1.54A21.26,21.26,0,0,0,199,20a16.87,16.87,0,0,1-4.13-6.37,14.55,14.55,0,0,0-1.68.14V12a9.51,9.51,0,0,0,2,.14H203a10.58,10.58,0,0,0,2.1-.11ZM197.47,2.66c-.09,3-.42,4.5-1.35,6.17a7.4,7.4,0,0,1-2.29,2.6,5.86,5.86,0,0,0-1.42-1.17,6.35,6.35,0,0,0,2.74-3.33,11.35,11.35,0,0,0,.64-4.25A8.89,8.89,0,0,0,195.65,1a20.27,20.27,0,0,0,2.18.11h3.41A19.37,19.37,0,0,0,203.62,1a21.67,21.67,0,0,0-.12,2.62V8c0,.47.26.58,1.18.58,1.15,0,1.48-.08,1.62-.39a8.8,8.8,0,0,0,.45-3.13,4.63,4.63,0,0,0,1.54.75c-.17,2.27-.45,3.3-1,3.78s-1.12.5-2.71.5c-2.27,0-2.77-.28-2.77-1.54V2.66Zm-.93,11a14.31,14.31,0,0,0,3.72,5.26,16.88,16.88,0,0,0,3.66-5.26Z"/><path d="M210.1,12.77a22,22,0,0,0,1.17-7.4l1.54.42a28.25,28.25,0,0,1-1.2,7.68Zm3.63,12.64a22.17,22.17,0,0,0,.2-3.21V2.82a18.09,18.09,0,0,0-.2-2.82h2.15a17.37,17.37,0,0,0-.19,2.82v19.4a22,22,0,0,0,.19,3.19Zm3.64-16.72a16.66,16.66,0,0,0-1.29-3.8l1.26-.53a31.5,31.5,0,0,1,1.4,3.69Zm3.88-5.08a15.31,15.31,0,0,0-2.63.14V2a13,13,0,0,0,2.66.17h4.16A9.49,9.49,0,0,0,225.28,0h2a9.26,9.26,0,0,0-.17,2.18h5.18A13.51,13.51,0,0,0,235,2V3.75a16.5,16.5,0,0,0-2.71-.14h-5.2v1.9h4.36A16.1,16.1,0,0,0,234,5.37V7a16,16,0,0,0-2.6-.14h-4.34V9h5.65a17.45,17.45,0,0,0,2.77-.17v1.79a20.3,20.3,0,0,0-2.77-.17H220.86a17.24,17.24,0,0,0-2.85.17V8.78a17.63,17.63,0,0,0,2.85.17h4.58V6.88h-3.35a15.66,15.66,0,0,0-2.54.14V5.37a16.11,16.11,0,0,0,2.57.14h3.32V3.61Zm.2,18.72a19.55,19.55,0,0,0,.16,3h-2a20,20,0,0,0,.14-3V14.45a19.72,19.72,0,0,0-.08-2.43,23.49,23.49,0,0,0,2.6.11h8.58a14,14,0,0,0,2.57-.14,26.45,26.45,0,0,0-.11,3v7.94c0,1.74-.53,2.18-2.63,2.18-.75,0-1.65-.05-2.85-.14a5.84,5.84,0,0,0-.45-1.76,19.9,19.9,0,0,0,3.13.34c.93,0,1.09-.12,1.09-.76V20.6H221.45Zm10.14-6.65V13.56H221.45v2.12Zm0,3.5v-2.1H221.45v2.1Z"/><path d="M248.78,7.66A11.59,11.59,0,0,0,251,7.52V9.34a14.48,14.48,0,0,0-2.21-.12H240.9a15.35,15.35,0,0,0-2.24.12V7.52a12.34,12.34,0,0,0,2.24.14h3.32V4.81H241.6a15.36,15.36,0,0,0-2.1.11V3.16a13.91,13.91,0,0,0,2.1.11h2.62V2.43a15.73,15.73,0,0,0-.16-2.4h2a17,17,0,0,0-.17,2.4v.84h2.24a13.72,13.72,0,0,0,2.07-.11V4.92a15.27,15.27,0,0,0-2.07-.11h-2.24V7.66Zm0,6.26a10.89,10.89,0,0,0,2.21-.14V15.6a14.86,14.86,0,0,0-2.21-.11h-2.91v2.82h2.58a14.1,14.1,0,0,0,2.06-.11V20a13.82,13.82,0,0,0-2.06-.11h-2.58v2.85a21.06,21.06,0,0,0,.17,2.65h-2a16.88,16.88,0,0,0,.19-2.65V19.88h-2.85a13.84,13.84,0,0,0-2.09.11V18.2a14.29,14.29,0,0,0,2.09.11h2.85V15.49H240.9a16.06,16.06,0,0,0-2.24.11V13.78a11.94,11.94,0,0,0,2.24.14H246a16.38,16.38,0,0,0,1.51-4.39l1.54.45a24.83,24.83,0,0,1-1.48,3.94ZM242,13.61A20,20,0,0,0,240.93,10l1.39-.45a22.22,22.22,0,0,1,1.12,3.61Zm11.4-2v11a18.14,18.14,0,0,0,.2,2.79h-2a17.9,17.9,0,0,0,.19-2.79V3.8a23.08,23.08,0,0,0-.14-2.63,16.72,16.72,0,0,0,2.63.14h6.46A14.56,14.56,0,0,0,263,1.2c-.06.48-.06.48-.2,2a10.88,10.88,0,0,1-.84,4c-.42.61-1,.81-2.43.81a21,21,0,0,1-2.74-.2,8.36,8.36,0,0,0-.36-1.68,16.78,16.78,0,0,0,3.21.4c1.07,0,1.2-.37,1.46-3.58h-7.75V10h6.07a12.35,12.35,0,0,0,2.24-.12l1,1a6.76,6.76,0,0,0-.33,1.14,27.91,27.91,0,0,1-2.83,7.41,18.7,18.7,0,0,0,4.7,4.06,6.28,6.28,0,0,0-1.15,1.56A23.34,23.34,0,0,1,258.62,21a20.35,20.35,0,0,1-3.69,4.11,7.08,7.08,0,0,0-1.26-1.39,17.35,17.35,0,0,0,3.89-4.09c-1.45-2-2.35-4.25-3.3-8Zm2.44,0c.95,3.55,1.37,4.64,2.65,6.54a23.93,23.93,0,0,0,2.27-6.54Z"/><line class="cls-1" y1="12.36" x2="143.24" y2="12.36"/><line class="cls-1" x1="270.76" y1="12.36" x2="414" y2="12.36"/></g></g></svg>