<svg xmlns="http://www.w3.org/2000/svg" width="464.98" height="393.37" viewBox="0 0 464.98 393.37"><defs><style>.cls-1{fill:none;stroke:#fff;stroke-miterlimit:10;stroke-width:10px;}.cls-2{fill:#fff;}</style></defs><title>symbol</title><g id="レイヤー_2" data-name="レイヤー 2"><g id="レイヤー_1-2" data-name="レイヤー 1"><polyline class="cls-1" points="5 393.12 5 169.63 235.28 6.15 462.05 169.63"/><path class="cls-2" d="M87.46,203.47H108.1v9.45H87.46v9.58H75.54v-9.58H54.9v-9.45H75.54v-3.35H52.29v-9.31h12c-.33-.6-1.87-3.42-2.14-4l4-.8H50.61v-9.12H75.54v-3H56v-8.58h19.5v-4.69L88,161a1.11,1.11,0,0,1,1.21,1.07c0,.6-1.08,1-1.75,1.27v1.94H107v8.58H87.46v3h24.93V186H96.71l3.75.53c1.34.2,1.61.34,1.61.81,0,.8-.87.93-1.54,1-.81,1.54-1.07,2-1.34,2.48h11.52v9.31H87.46ZM74.47,186a53.21,53.21,0,0,1,2.34,4.82H86.93c.27-.54,1.2-2.55,2.14-4.82Z"/><path class="cls-2" d="M251.09,163.07c.94.14,1.48.2,1.48,1s-.67,1-1.35,1.27c0,2.21.07,7.24.07,9.51,1.81-.2,11.12-1.34,12-1.4v12a92.84,92.84,0,0,0-12,.6c0,14.88-.94,18.9-16.88,18.36a34.9,34.9,0,0,0-2.68-11,29.87,29.87,0,0,0,4.89.4c3.15,0,3.15-1.41,3.35-6.63-4.76.67-10.25,1.67-13.67,2.27-.07,3.35-.27,13.87.54,16.35.67,2.08,2.27,3.49,10,3.49,2.48,0,14.47-.61,22.38-2.88a81.47,81.47,0,0,0-1,12.39A228.74,228.74,0,0,1,235,220.29c-19.43,0-20-8.24-20-19,0-1.21.13-7.91.2-9.65-4.76,1-9.05,2.08-12.06,2.82l-.34-12.67A115.12,115.12,0,0,0,215,180.22c0-.8-.06-11-.8-14.67l13.13,1.34c.74.07,1.54.2,1.54,1.14s-.87,1.27-1.27,1.47c-.13,1.41-.6,7.58-.67,8.85,2.95-.47,9.45-1.41,12.86-1.88-.13-7.77-.4-11.05-1.33-15Z"/><path class="cls-2" d="M384.37,163.61c.67.13,1.27.33,1.27,1.07s-.94,1.07-1.34,1.07c-.67,3.08-1.07,4.83-1.81,7.91,8.58,0,15.41,3.15,15.41,19.56,0,.81,0,15.75-5.76,23.32-1.81,2.41-4.49,4.29-10.72,4.29a20.37,20.37,0,0,1-6.37-.67,57.76,57.76,0,0,0-1.27-12.4c4,.94,5.09,1.07,6.16,1.07a3.74,3.74,0,0,0,3.49-1.74c2.54-4.42,2.75-13.13,2.75-14.27,0-7.37-1.81-8.11-6.64-8A129.18,129.18,0,0,1,363.8,221a50.61,50.61,0,0,0-10.92-6.23,112.93,112.93,0,0,0,14.54-27.87,58.27,58.27,0,0,0-9.79,3.61l-3.48-12.12c4.42-.74,5-.81,6.1-1.08,1.34-.26,8.64-1.87,10.18-2.21a77.43,77.43,0,0,0,1.68-14.27Zm20.1,9.31a62.31,62.31,0,0,0-5.36-6.77l5.36-3.41a45.18,45.18,0,0,1,6,7.43c-2.08,1.28-2.95,1.81-5.29,3.49,2.54,2.75,11.19,14.27,11.19,21.37,0,4.29-2,8.18-11.86,10.05a45.07,45.07,0,0,0-4.29-10.18c1.87-.14,3.82-.6,3.82-2.55,0-2.54-2.62-8.31-8.11-15.07Zm7.3-13.87a39.31,39.31,0,0,1,5.9,7.37c-.47.34-.67.47-2.75,1.88-.47.27-1.88,1.2-2.75,1.87a36,36,0,0,0-5.83-7.9Z"/><path class="cls-2" d="M103.68,299.26c0,7.71-4.69,8.31-15.35,8.51a18,18,0,0,0-3.61-9.51,22.31,22.31,0,0,0,5.83.73c1.8,0,2.27-.33,2.27-1.74v-.4H70.18V307.5H59.32V271.79h44.29c-1.41-1.41-2.41-2.34-3.42-3.22-10.58.54-35.24,1.95-44.62,2.69-.2.53-.53,1.47-1.34,1.47s-1-.8-1.07-1.21l-1.68-9.71c2.15,0,12.8,0,13.81-.07a46.09,46.09,0,0,0,2.27-4.09h-17V249H75.54v-3.89l12.46.34c.27,0,1.14.07,1.14.87s-.87,1.07-1.68,1.34V249h24.93v8.64H102.27a83.27,83.27,0,0,1,10.65,8.51,71.11,71.11,0,0,0-7.17,8,22.52,22.52,0,0,0-2.07-2.34Zm-33.5-18H92.82v-2.48H70.18Zm22.64,6.36H70.18v2.55H92.82Zm-11.59-30c0,.87-.6,1-1.74,1.21-.4.74-.87,1.54-1.54,2.75,7-.2,7.84-.2,12.86-.27-1-.74-1.47-1-2.74-1.81l2.48-1.88Z"/><path class="cls-2" d="M190.21,247.2c.4.07,1.27.14,1.27.94s-.74,1.07-1.34,1.41c-.14,1.47-.2,2.27-.27,3.75,2.81.07,15.41.2,18,.13v10.79c-2.88-.27-7.11-.54-18.16-.54-.07,2.35-.07,2.75,0,6.3,3.15-.13,10.79-.67,16.21-2.21l.2,10.72c-4.82,1-12.86,1.48-16.21,1.68,0,.93.2,4.95.2,5.83,7.71,1.87,15.75,5.09,20.71,8.37a116.51,116.51,0,0,0-7,9.51A58.72,58.72,0,0,0,190,296a8.86,8.86,0,0,1-2.61,6.77c-1.94,1.87-6,3.61-12.26,3.61-11.72,0-18.22-5.29-18.22-11.39,0-6.36,6.7-10.85,18-10.85h3.55c0-.4-.06-2.95-.06-3.55-7.51,0-8.38,0-11.13-.54-6.16-1.27-8.1-3.68-8.1-6.56s1.47-5,3.88-7.78l8.78,1.21a5.59,5.59,0,0,0-1.41,2.61c0,1.34,2.55,1.41,3.15,1.41.14,0,4.09-.2,4.56-.27,0-4.49,0-5-.07-6.77a210.92,210.92,0,0,0-21.3,1.55V254c3.35-.21,18.15-.54,21.17-.67-.07-2.35-.2-5.36-.47-7.78Zm-16.15,45.16c-1.14,0-5.29,0-5.29,2.14,0,1.55,2.27,2.28,4.89,2.28,4.69,0,4.75-2,4.75-3.95A19.13,19.13,0,0,0,174.06,292.36Z"/><path class="cls-2" d="M281,262.28c6.69-5.9,11.65-6.9,14.47-6.9,3,0,9,2.21,9,11.05A88.81,88.81,0,0,1,303.33,278a67.07,67.07,0,0,0-.8,9.38c0,1.68.27,3.35,1.88,3.35,1.07,0,3.88-.74,7.7-5a55.84,55.84,0,0,0,3.22,11.39,20.72,20.72,0,0,1-14.68,6.7c-5.42,0-9.51-4.55-9.51-12.26,0-3.28,1.67-17.69,1.67-20.63,0-.94,0-3.22-2-3.22-3.41,0-9.58,6.63-13.66,11.39.06,12.8.06,14.21.2,17.29.06,1.54.73,8.44.87,9.85l-12.53.53a84.25,84.25,0,0,0,.47-10.11c0-.61-.07-3.29,0-3.82l-5.09,7.43-8.65-9.11a135.62,135.62,0,0,0,14-16.21v-2.68c-8.25,2-9.05,2.07-10.46,2.21l-2-12.13A43.53,43.53,0,0,0,266.68,261c.07-2.88.14-12.19-.13-15.14L278,247.2c.87.14,1.54.27,1.54,1.14s-.67,1.14-1.28,1.47a50.67,50.67,0,0,0-.93,9.32Z"/><path class="cls-2" d="M402.12,254a155.72,155.72,0,0,0-16.21,14.14,16.55,16.55,0,0,1,6.43-1.08c11.32,0,19.36,7.71,19.36,18,0,12.26-11.05,21.37-25.66,21.37-5.29,0-17.42-1.67-17.42-11.86,0-7.44,7.1-10.72,12.93-10.72,6.37,0,12.73,3.69,14.61,8.91,2.75-1.34,3.75-4.75,3.75-7.17,0-1.81-.67-9.11-10.58-9.11-7.78,0-15.28,3.22-26.54,16.55l-8.37-9.25c9.31-6.7,22-19.36,25.59-24a112.15,112.15,0,0,1-16.55,2.14l-1.61-11.52c1.28.06,2.68.13,4.9.13,6.7,0,20.1-.8,28.74-4.49Zm-20.77,38.79c-2.14,0-2.41,1.28-2.41,1.88,0,2.34,3.55,2.88,5.43,2.88a12.82,12.82,0,0,0,2.81-.27A5.72,5.72,0,0,0,381.35,292.76Z"/><path class="cls-2" d="M78.82,373.94a47,47,0,0,1-8.24,7.91A20.39,20.39,0,0,0,64.82,377c-1.21.46-10.39,3.75-10.72,3.88,0,.47-.14,2-1.21,2-.6,0-.74-.47-.94-1.61l-2.21-10.72c3.69-.67,6.64-1.47,7.17-1.61V354.45h-6.5V344.4h6.5V331.8l10.72.54c.74.06,1.48.2,1.48.8s-.34.8-1.48,1.41v9.85h5.43v10.05H67.63v11.12c2.21-.87,2.48-.94,3.28-1.27v-7.24h41.48v7.44H86.33a12.34,12.34,0,0,1-1.28,2h26.67c0,24.79-3.15,25.93-13.2,25.93-.87,0-1.48-.07-2.48-.14a31.29,31.29,0,0,0-1.81-7,62.63,62.63,0,0,1-6.83,8,25.88,25.88,0,0,0-7.57-4.82c5.15-3.35,10.18-9.65,13-14.61H90.08c-4.63,8.51-13,15.28-17.16,17.83a33.22,33.22,0,0,0-6.56-5.7A38.7,38.7,0,0,0,81.5,373.94Zm-5.69-9.44c-.27,2.21-.21,3.81-.27,5a45.79,45.79,0,0,0,4-5ZM108,355.12H75.34V331.6H108ZM97.58,341v-2.15h-12V341Zm-12,5.36v2.28h12v-2.28Zm14.87,27.6A54.11,54.11,0,0,1,96,382.79c.94.06,1.61.2,2.41.2,1.48,0,2-.34,2.35-1.48.6-1.74.87-3.55,1.14-7.57Z"/><path class="cls-2" d="M186.92,332.34c.61.13,1.41.26,1.41,1.07,0,1-1.21,1.14-1.81,1.2-.33.61-1.14,2.08-1.67,3.15,4.35-.47,9.91-1.27,13.8-2.68l-.2,10.79c-4.69,1.07-5.16,1.14-19.63,2.55l-2.68,4.42a16.35,16.35,0,0,1,8-2,11,11,0,0,1,9,5.16c10.72-5.16,11.26-5.43,13.4-6.84l4.29,11.59A134,134,0,0,0,195.63,366c.27,2.88.27,6.37.27,7.37,0,1.74-.07,3-.13,4.09l-11.66.33a46.73,46.73,0,0,0,.47-6.23c-3.29,2-6.64,4.36-6.64,6.57,0,2.74,7.11,2.95,9.65,2.95,1.61,0,11.79,0,20.44-2.75-.87,3.82-.87,10.25-.87,11.59a92.45,92.45,0,0,1-17.76,1.47c-5.49,0-23.18,0-23.18-12.06,0-8.64,12.39-15.67,17.08-18.15a4.83,4.83,0,0,0-4-1.95c-7.1,0-12.46,8.11-15.67,13.27l-10.39-6.17a120,120,0,0,0,13.07-17.21c-4,.06-6.57-.07-8.71-.14l.2-10.92a71.25,71.25,0,0,0,14.13.67,53,53,0,0,0,3.49-8.44Z"/><path class="cls-2" d="M283,350.16H263.4v-3a41,41,0,0,1-6.9,4.36c-2.08-3.82-3.28-5.36-6.1-7.64C262,338,266.28,331,266.68,330.06l10.92.53a.94.94,0,0,1,1,.94.86.86,0,0,1-.27.67,38.14,38.14,0,0,0,12.06,7.3v-1.07l9.85.4c.87.07,1.34.27,1.34.81,0,.94-1.14,1.41-1.74,1.61v34.23H290.4V342.39a23.48,23.48,0,0,0-4,6.36,32.27,32.27,0,0,1-3.35-1.88Zm5.63,24.32v18h-9.72v-1.08h-7.1v1.08h-9.38v-8.11a45,45,0,0,1-3.68,7,38,38,0,0,0-8.31-6.1c4.89-6.16,6.1-13.27,6.1-24.46V352h31.29v20.44H266.28c-.07.87-.07.94-.2,2Zm-21.91-9.72c0,.34-.07,1.75-.07,2.08h11.19v-2.08Zm11.12-5v-2.08h-11c0,.81-.06,1.68-.06,2.08Zm0-16.48a51.52,51.52,0,0,1-5.29-4.56,46.58,46.58,0,0,1-4.49,4.56Zm-6,37.85v3.49h7.1v-3.49ZM313.58,331a1,1,0,0,1,1.08,1c0,.6-.61,1-1.61,1.47v48.65c0,8.17-1.74,9.85-14.67,10.38-1.14-6.76-2.82-9.65-4.16-11.79a44.45,44.45,0,0,0,6,.47c1.21,0,2-.2,2-2.35V330.59Z"/><path class="cls-2" d="M402.12,339a155.72,155.72,0,0,0-16.21,14.14,16.55,16.55,0,0,1,6.43-1.08c11.32,0,19.36,7.71,19.36,18,0,12.26-11.05,21.37-25.66,21.37-5.29,0-17.42-1.67-17.42-11.86,0-7.44,7.1-10.72,12.93-10.72,6.37,0,12.73,3.69,14.61,8.91,2.75-1.34,3.75-4.75,3.75-7.17,0-1.81-.67-9.11-10.58-9.11-7.78,0-15.28,3.22-26.54,16.55l-8.37-9.25c9.31-6.7,22-19.36,25.59-24a112.15,112.15,0,0,1-16.55,2.14l-1.61-11.52c1.28.06,2.68.13,4.9.13,6.7,0,20.1-.8,28.74-4.49Zm-20.77,38.79c-2.14,0-2.41,1.28-2.41,1.88,0,2.34,3.55,2.88,5.43,2.88a12.82,12.82,0,0,0,2.81-.27A5.72,5.72,0,0,0,381.35,377.76Z"/></g></g></svg>