<svg xmlns="http://www.w3.org/2000/svg" width="414" height="26.05" viewBox="0 0 414 26.05"><defs><style>.cls-1{fill:none;stroke:#000;stroke-miterlimit:10;stroke-width:1.16px;}</style></defs><title>youkou_sm</title><g id="レイヤー_2" data-name="レイヤー 2"><g id="レイヤー_1-2" data-name="レイヤー 1"><path d="M160,18.9a32.32,32.32,0,0,1-4.22,2,4.56,4.56,0,0,0-1.09-1.48,21.18,21.18,0,0,0,4-1.48,20,20,0,0,0,3.41-2.07h-4.58a20.45,20.45,0,0,0-2.83.17V14.23a20,20,0,0,0,2.85.17h6.1a9.83,9.83,0,0,0,1.2-1.6h-4.11c-.84,0-1.54,0-2.21.09.06-.73.09-1.26.09-1.9V7.49c0-.64,0-1.23-.09-1.93a18.1,18.1,0,0,0,2.21.09h13.14a18.1,18.1,0,0,0,2.21-.09c-.06.65-.09,1.23-.09,1.93V11c0,.67,0,1.23.09,1.9-.67-.06-1.4-.09-2.24-.09h-7.24a9.32,9.32,0,0,1-1.12,1.6h11.44a19.75,19.75,0,0,0,2.85-.17V16a19.64,19.64,0,0,0-2.83-.17h-4.27a16.45,16.45,0,0,0,7.6,3.41,5.55,5.55,0,0,0-1,1.57A24.21,24.21,0,0,1,174.86,19c0,.25-.06.39-.09.81a14.32,14.32,0,0,1-.92,4.61c-.42.81-1.23,1.15-2.85,1.15-.81,0-1.79-.06-2.91-.17a5.16,5.16,0,0,0-.42-1.7,17.64,17.64,0,0,0,3.11.36c1.17,0,1.51-.2,1.76-.92a12.65,12.65,0,0,0,.53-3.16h-6.21a9.47,9.47,0,0,1-3.21,3.47c-1.68,1.11-2.83,1.56-6.1,2.34a4.9,4.9,0,0,0-1-1.56,15.28,15.28,0,0,0,5.81-1.82A7.63,7.63,0,0,0,165,20h-2.35a16.45,16.45,0,0,0-2.71.14ZM162.19,2a9,9,0,0,0-.11-1.62H164A10,10,0,0,0,163.9,2v.28h6.43V2a10.45,10.45,0,0,0-.11-1.65h1.93A9,9,0,0,0,172,2v.28h4.64a20.71,20.71,0,0,0,2.86-.17V4a15.66,15.66,0,0,0-2.83-.22H172a6.91,6.91,0,0,0,.12,1.37h-1.9a6.6,6.6,0,0,0,.08-1.37H163.9A6.14,6.14,0,0,0,164,5.09h-1.9a7.72,7.72,0,0,0,.11-1.34h-4.5a15.62,15.62,0,0,0-2.82.22V2.15a20.55,20.55,0,0,0,2.85.17h4.47Zm-1.95,6.57h14.14V7H160.24Zm0,2.94h14.14V9.81H160.24Zm3.94,4.33a17.61,17.61,0,0,1-3.58,2.68,18.68,18.68,0,0,0,1.93.06h3.16a5.78,5.78,0,0,0,.39-2.12l2,.14L167.64,18l-.19.59h4.67c1.45,0,1.45,0,2,0a18.51,18.51,0,0,1-3.55-2.71Z"/><path d="M196.35,13.89h7.29a14.87,14.87,0,0,0,2.58-.14v1.68a15.92,15.92,0,0,0-2.55-.14H196v2h8.41a16.88,16.88,0,0,0,3.13-.17V19a25.75,25.75,0,0,0-3.13-.17h-7a23.2,23.2,0,0,0,10.51,4.84,6.87,6.87,0,0,0-1.07,1.73c-4.92-1.45-8.1-3.19-10.9-6a18.69,18.69,0,0,1,.09,2.13v2.18a7.42,7.42,0,0,0,.16,2.09h-2.07a8.36,8.36,0,0,0,.17-2.07v-2.2a7.44,7.44,0,0,1,0-.76,2.41,2.41,0,0,1,0-.56,6.21,6.21,0,0,1,0-.81,17.38,17.38,0,0,1-5.46,3.94,28.36,28.36,0,0,1-5.33,1.93,6,6,0,0,0-1.12-1.68,21.62,21.62,0,0,0,6.79-2.26,15.58,15.58,0,0,0,3.58-2.49h-6.91a24.82,24.82,0,0,0-3.07.17V17.16a18,18,0,0,0,3.07.17h8.36v-2H188.1a16.4,16.4,0,0,0-1.93.06,15.23,15.23,0,0,0,.09-1.88V8.78c0-1,0-1.87.11-2.74a18.84,18.84,0,0,1-3.1,2.88,5.26,5.26,0,0,0-1.12-1.37A18.93,18.93,0,0,0,187.57,2a9,9,0,0,0,1-2l1.93.48a27.11,27.11,0,0,1-1.85,2.68h6a10.62,10.62,0,0,0,1.68-3.1l1.81.42a18,18,0,0,1-1.7,2.68h7.07A16,16,0,0,0,206.13,3V4.75a14.45,14.45,0,0,0-2.43-.14h-7.35v2.1h6a13.17,13.17,0,0,0,2.52-.17V8.22a15.13,15.13,0,0,0-2.52-.14h-6v2.1h6a13.17,13.17,0,0,0,2.52-.17v1.68a13.72,13.72,0,0,0-2.52-.14h-6ZM194.7,4.61H188v2.1h6.74Zm0,3.47H188v2.1h6.74ZM188,11.55v2.34h6.74V11.55Z"/><path d="M219.24,15.24a14.28,14.28,0,0,0,1.56-2.52h-4.64a30.57,30.57,0,0,0-3.21.11,20,20,0,0,0,.11-2.43v-2A22.52,22.52,0,0,0,213,5.84,26.81,26.81,0,0,0,216,6h3.18V3.27h-4.89a22.08,22.08,0,0,0-3.1.14V1.57a21.35,21.35,0,0,0,3.16.16H232a21.4,21.4,0,0,0,3.18-.16V3.41a22.53,22.53,0,0,0-3.1-.14h-5.23V6h3.33a26.41,26.41,0,0,0,3.05-.14,19.55,19.55,0,0,0-.11,2.55v2a17.11,17.11,0,0,0,.11,2.46,29.68,29.68,0,0,0-3.22-.11h-7.21c-.78,1.37-.95,1.59-1.56,2.52H232a20.45,20.45,0,0,0,3.13-.17v1.84a24.81,24.81,0,0,0-3.13-.14h-3.07a12,12,0,0,1-3.36,4.42,91,91,0,0,1,8.95,3.33l-1.26,1.53a67.88,67.88,0,0,0-9.22-3.74c-3.16,2-6.66,2.93-12.3,3.41a6.54,6.54,0,0,0-.81-1.73c4.64-.12,7.94-.82,11-2.32-2.18-.65-4.16-1.12-7-1.71A26.75,26.75,0,0,0,218,16.77h-3.83a24.37,24.37,0,0,0-3.11.14V15.07a20.79,20.79,0,0,0,3.11.17Zm-4.47-7.83v3.88h4.38V7.41Zm5.31,9.36A24.6,24.6,0,0,1,218,19.15c2.6.59,3.58.84,5.71,1.48A9,9,0,0,0,227,16.77ZM220.75,6h4.47V3.27h-4.47Zm0,5.31h4.47V7.41h-4.47Zm6.06,0h4.56V7.41h-4.56Z"/><path d="M240.62,4.75a13.9,13.9,0,0,0-1.9.11V3.05a13.53,13.53,0,0,0,2,.11h3.72a12.92,12.92,0,0,0,2-.11V4.86a13.68,13.68,0,0,0-1.93-.11h-.92V17.44A32,32,0,0,0,246.8,16v1.79a51.93,51.93,0,0,1-7.44,3.07l-.56.26-.56-1.93a16.49,16.49,0,0,0,3.64-1.07V4.75Zm12,17.25a23,23,0,0,1-6.85,3.72,7.07,7.07,0,0,0-1.17-1.51,16.86,16.86,0,0,0,6.54-3.27ZM249.9,3.47a26.74,26.74,0,0,0-2.68.11V1.71a19.53,19.53,0,0,0,2.74.16h10.56a13.2,13.2,0,0,0,2.63-.16v1.9a19.19,19.19,0,0,0-2.6-.14h-4.7c-.39,1.06-.81,2-1.14,2.68h5.14c.45,0,1.37,0,1.73-.08-.05.47-.08,1.53-.08,2.57v9c0,1.17,0,2.15.08,2.71-.11,0-.22,0-.28,0a3,3,0,0,0-.36,0h-.42l-1.42,0h-8.31a23.45,23.45,0,0,0-2.4.09c.06-.62.08-1.65.08-2.68V8.55a18.2,18.2,0,0,0-.11-2.48c.53,0,.53,0,2.38.08h2.12A14.72,14.72,0,0,0,254,3.47Zm.28,6.9h9.61V7.63h-9.61Zm0,4.17h9.61V11.83h-9.61Zm0,4.27h9.61V16h-9.61Zm7.49,2a19,19,0,0,0,6.54,3.3A7.1,7.1,0,0,0,263,25.72,25.43,25.43,0,0,1,256.27,22Z"/><line class="cls-1" y1="12.78" x2="143.24" y2="12.78"/><line class="cls-1" x1="270.76" y1="12.78" x2="414" y2="12.78"/></g></g></svg>