<svg xmlns="http://www.w3.org/2000/svg" width="1170" height="32.55" viewBox="0 0 1170 32.55"><defs><style>.cls-1{fill:none;stroke:#000;stroke-miterlimit:10;}</style></defs><title>youkou</title><g id="レイヤー_2" data-name="レイヤー 2"><g id="レイヤー_1-2" data-name="レイヤー 1"><path d="M524.08,23.61a39.81,39.81,0,0,1-5.28,2.48,5.59,5.59,0,0,0-1.36-1.85,27,27,0,0,0,5.06-1.85,24.35,24.35,0,0,0,4.26-2.59H521a25.15,25.15,0,0,0-3.53.21V17.78a24.63,24.63,0,0,0,3.56.21h7.62a13.13,13.13,0,0,0,1.5-2h-5.14c-1,0-1.92,0-2.76.1.07-.91.11-1.57.11-2.37V9.36c0-.8,0-1.54-.11-2.41a23.83,23.83,0,0,0,2.76.11h16.42A23.83,23.83,0,0,0,544.23,7c-.07.8-.11,1.54-.11,2.41v4.37c0,.83,0,1.53.11,2.37-.84-.07-1.75-.1-2.8-.1h-9a12.18,12.18,0,0,1-1.4,2h14.29a24.34,24.34,0,0,0,3.56-.21V20a24.17,24.17,0,0,0-3.53-.21H540c2.65,2.17,5.24,3.32,9.5,4.27A6.59,6.59,0,0,0,548.21,26a30.33,30.33,0,0,1-5.52-2.3c0,.31-.07.49-.1,1-.32,3.07-.63,4.71-1.16,5.76s-1.53,1.43-3.56,1.43c-1,0-2.23-.07-3.63-.21a6.37,6.37,0,0,0-.52-2.13,21.43,21.43,0,0,0,3.87.46c1.47,0,1.89-.25,2.2-1.16a15.42,15.42,0,0,0,.67-3.94H532.7a11.59,11.59,0,0,1-4,4.33c-2.1,1.4-3.53,1.95-7.62,2.93a6.21,6.21,0,0,0-1.26-2A19.27,19.27,0,0,0,527.08,28a9.66,9.66,0,0,0,3.32-3h-2.94a20.3,20.3,0,0,0-3.38.17Zm2.79-21.1a12.48,12.48,0,0,0-.14-2h2.38A11.28,11.28,0,0,0,529,2.55V2.9h8V2.55a11.91,11.91,0,0,0-.14-2.06h2.41a12.42,12.42,0,0,0-.14,2.06V2.9H545a25.21,25.21,0,0,0,3.56-.21V5A19.6,19.6,0,0,0,545,4.68h-5.84a9.63,9.63,0,0,0,.14,1.71h-2.37a8.12,8.12,0,0,0,.1-1.71h-8a7,7,0,0,0,.11,1.68h-2.38a13.23,13.23,0,0,0,.14-1.68h-5.62a19.71,19.71,0,0,0-3.53.28V2.69a25.21,25.21,0,0,0,3.56.21h5.59Zm-2.45,8.21H542.1v-2H524.42Zm0,3.67H542.1V12.26H524.42Zm4.93,5.41a22.17,22.17,0,0,1-4.47,3.36c1,.07,1.19.07,2.41.07h4a7.49,7.49,0,0,0,.48-2.66l2.49.18c-.11.35-.11.35-.53,1.74-.1.32-.14.42-.24.74h5.83c1.81,0,1.81,0,2.51,0a23,23,0,0,1-4.43-3.39Z"/><path d="M569.54,17.36h9.12a19.3,19.3,0,0,0,3.21-.18v2.1a19.48,19.48,0,0,0-3.17-.17h-9.61v2.55H579.6a21.68,21.68,0,0,0,3.92-.21v2.3a32,32,0,0,0-3.92-.21h-8.8a28.93,28.93,0,0,0,13.13,6,9.14,9.14,0,0,0-1.32,2.17c-6.15-1.82-10.13-4-13.62-7.51a26.18,26.18,0,0,1,.1,2.65v2.73a9.42,9.42,0,0,0,.21,2.62h-2.58a10.84,10.84,0,0,0,.2-2.59V26.89a8.57,8.57,0,0,1,0-.94,2.87,2.87,0,0,1,0-.7,9.57,9.57,0,0,1,0-1,21.6,21.6,0,0,1-6.81,4.92,35.13,35.13,0,0,1-6.67,2.41,7.43,7.43,0,0,0-1.4-2.09,27.28,27.28,0,0,0,8.49-2.83,19.45,19.45,0,0,0,4.47-3.11h-8.63a30.58,30.58,0,0,0-3.84.21v-2.3a25,25,0,0,0,3.84.21h10.44V19.11h-7.68c-1.29,0-1.68,0-2.41.06a19.94,19.94,0,0,0,.11-2.34V11a33.6,33.6,0,0,1,.14-3.43,22.6,22.6,0,0,1-3.88,3.6,6.53,6.53,0,0,0-1.4-1.71,23.63,23.63,0,0,0,6.78-6.92A10.84,10.84,0,0,0,559.83,0l2.42.59A39.61,39.61,0,0,1,559.94,4h7.54a12.9,12.9,0,0,0,2.1-3.88l2.27.52A22.89,22.89,0,0,1,569.72,4h8.84a19.6,19.6,0,0,0,3.21-.18V5.94a17.88,17.88,0,0,0-3-.18h-9.19V8.38H577a16.07,16.07,0,0,0,3.15-.21v2.1a18.51,18.51,0,0,0-3.15-.18h-7.44v2.62H577a16.07,16.07,0,0,0,3.15-.21v2.1a18,18,0,0,0-3.15-.18h-7.44Zm-2.06-11.6h-8.41V8.38h8.41Zm0,4.33h-8.41v2.62h8.41Zm-8.41,4.33v2.94h8.41V14.42Z"/><path d="M598.14,19a18.33,18.33,0,0,0,2-3.15h-5.8a37.82,37.82,0,0,0-4,.14,25.2,25.2,0,0,0,.13-3V10.48a28.14,28.14,0,0,0-.13-3.18,36.9,36.9,0,0,0,3.77.17h4V4.09h-6.11a27.42,27.42,0,0,0-3.88.17V2a25.94,25.94,0,0,0,4,.21h22A26.22,26.22,0,0,0,618,2v2.3a28.11,28.11,0,0,0-3.88-.17h-6.53V7.47h4.16a36.24,36.24,0,0,0,3.8-.17,26.68,26.68,0,0,0-.14,3.18V13a23.23,23.23,0,0,0,.14,3.07,36.59,36.59,0,0,0-4-.14h-9c-1,1.71-1.18,2-1.95,3.15h13.52a25.42,25.42,0,0,0,3.91-.21v2.3a30.87,30.87,0,0,0-3.91-.17h-3.85a15,15,0,0,1-4.19,5.51,118.76,118.76,0,0,1,11.18,4.16l-1.57,1.92a83.62,83.62,0,0,0-11.53-4.68c-3.95,2.45-8.31,3.67-15.37,4.26a8,8,0,0,0-1-2.16c5.8-.14,9.92-1,13.73-2.9-2.73-.8-5.21-1.4-8.7-2.13a34.67,34.67,0,0,0,3.84-4h-4.78a29.9,29.9,0,0,0-3.88.17v-2.3a25.59,25.59,0,0,0,3.88.21Zm-5.58-9.78v4.85H598V9.26ZM599.19,21a32.13,32.13,0,0,1-2.65,3c3.25.74,4.47,1,7.12,1.86A11.26,11.26,0,0,0,607.78,21ZM600,7.47h5.59V4.09H600Zm0,6.64h5.59V9.26H600Zm7.58,0h5.69V9.26h-5.69Z"/><path d="M624.86,5.94a16,16,0,0,0-2.38.14V3.81A16.92,16.92,0,0,0,625,4h4.65a16,16,0,0,0,2.51-.14V6.08a15.64,15.64,0,0,0-2.41-.14h-1.15V21.79a41.72,41.72,0,0,0,4-1.81v2.23a65.91,65.91,0,0,1-9.29,3.85l-.7.31-.7-2.41a21.2,21.2,0,0,0,4.54-1.33V5.94Zm15,21.55a28.63,28.63,0,0,1-8.56,4.64,8.83,8.83,0,0,0-1.46-1.88c3.91-1.23,5.9-2.2,8.17-4.09ZM636.45,4.33a33.47,33.47,0,0,0-3.35.14V2.13a23.78,23.78,0,0,0,3.42.21h13.2A16,16,0,0,0,653,2.13V4.51a24.37,24.37,0,0,0-3.25-.18h-5.87c-.49,1.33-1,2.48-1.43,3.35h6.43a20.76,20.76,0,0,0,2.16-.1c-.07.59-.1,1.92-.1,3.21V22.07c0,1.47,0,2.69.1,3.39-.14,0-.28,0-.35,0a3.53,3.53,0,0,0-.45,0h-.53l-1.78,0H637.57c-1.29,0-2.37,0-3,.1.07-.77.1-2.06.1-3.35V10.69a23.15,23.15,0,0,0-.14-3.11,25.83,25.83,0,0,0,3,.1h2.66a18.61,18.61,0,0,0,1.39-3.35ZM636.8,13h12V9.54h-12Zm0,5.2h12V14.77h-12Zm0,5.35h12V20h-12Zm9.36,2.55a24.25,24.25,0,0,0,8.17,4.12,8.65,8.65,0,0,0-1.46,2,31.55,31.55,0,0,1-8.45-4.68Z"/><line class="cls-1" y1="15.68" x2="498" y2="15.68"/><line class="cls-1" x1="672" y1="15.68" x2="1170" y2="15.68"/></g></g></svg>