<svg xmlns="http://www.w3.org/2000/svg" width="414" height="170" viewBox="0 0 414 170"><defs><style>.cls-1{fill:#2e3192;}.cls-2{fill:#fff;}</style></defs><title>ico_contact</title><g id="レイヤー_2" data-name="レイヤー 2"><g id="レイヤー_1-2" data-name="レイヤー 1"><rect class="cls-1" width="414" height="170"/><path class="cls-2" d="M145.15,98.26a11.37,11.37,0,0,1-.32,3.32c-.35,1.36-1.75,2.26-3.58,2.26a12.12,12.12,0,0,1-7.37-2.77,5.72,5.72,0,0,1-2.15-4.41c0-1.83,1.21-3.9,3.35-5.77a20.84,20.84,0,0,1,5.7-3.31l0-6c-.31,0-.31,0-1.6.08-.58,0-1.13,0-2.11,0-.58,0-1.67,0-2.14,0s-.86,0-1,0a7.28,7.28,0,0,0-.82,0l0-4.37a24.22,24.22,0,0,0,4.72.35c.39,0,.81,0,1.36,0,.94,0,1.13,0,1.56,0V75a27.4,27.4,0,0,0-.23-4.49h4.87a24.55,24.55,0,0,0-.23,4.25v2.5a43.63,43.63,0,0,0,7.52-1.48l.16,4.37c-.7.11-1.44.23-4.13.7-1.29.23-2.07.35-3.55.5v5.08a26.7,26.7,0,0,1,7.95-1.1c6.52,0,11.16,4,11.16,9.52a8.66,8.66,0,0,1-8.85,8.89,6.3,6.3,0,0,1-6.4-4.33,13,13,0,0,1-.66-5,16.46,16.46,0,0,0,4.32-1.72,15.24,15.24,0,0,0-.07,1.72,7.51,7.51,0,0,0,.54,3.43,2.71,2.71,0,0,0,2.46,1.33,4,4,0,0,0,3.94-4.33c0-3.35-2.73-5.54-6.9-5.54a24.93,24.93,0,0,0-7.49,1.29ZM140.74,92c-2.93,1.56-4.64,3.28-4.64,4.68,0,.67.39,1.25,1.29,1.8a4.71,4.71,0,0,0,2.49.85c.66,0,.86-.35.86-1.63Zm21.61-7.88a33.33,33.33,0,0,0-7.8-8.42l3.66-2.46a33,33,0,0,1,7.72,8Z"/><path class="cls-2" d="M175.37,100.76a32.47,32.47,0,0,0,.24,4.79H171a33.88,33.88,0,0,0,.24-4.83V75.17a42.36,42.36,0,0,0-.16-4.4,38.66,38.66,0,0,0,4,.15H182a34.83,34.83,0,0,0,4-.15c-.08,1.24-.12,2.14-.12,3.66v6.44c0,1.75,0,2.65.12,3.51-.94-.08-2.3-.12-3.59-.12h-7Zm0-24.61H182v-2h-6.67Zm0,5.07H182V79.15h-6.67Zm19.74,15.44a24.13,24.13,0,0,0,.11,2.65c-.82-.07-1.64-.11-2.77-.11h-8.69v2.61h-4.14a33.84,33.84,0,0,0,.2-3.78V89.68c0-1.05,0-1.91-.12-2.73.86.08,1.76.12,2.89.12h9.63c1.21,0,2.18,0,3-.12a25.42,25.42,0,0,0-.11,2.69Zm-11.35-1h7.41V90.54h-7.41Zm20.12,5.11c0,2.14-.35,3.16-1.36,3.78-.78.47-1.84.63-4.1.63-.62,0-1,0-3.63-.16a13.47,13.47,0,0,0-1.09-4.14,44.46,44.46,0,0,0,4.8.36c1.09,0,1.29-.16,1.29-1V84.26h-7.53c-1.29,0-2.69,0-3.55.12,0-1.06.08-1.84.08-3.51V74.43c0-1.48,0-2.53-.12-3.66a37.18,37.18,0,0,0,4,.15h7.41a39.52,39.52,0,0,0,4-.15,33.3,33.3,0,0,0-.2,4.36ZM192.65,76.15h7.14v-2h-7.14Zm0,5.07h7.14V79.15h-7.14Z"/><path class="cls-2" d="M216.48,82.66a40,40,0,0,1-6.24,3.28A15,15,0,0,0,208,82a39.09,39.09,0,0,0,9.95-5.62A27.12,27.12,0,0,0,224,69.83h4.64a25.51,25.51,0,0,0,6.56,6.59,36.55,36.55,0,0,0,9.94,5.34A21.22,21.22,0,0,0,243,86.05a37.36,37.36,0,0,1-6.36-3.43v2.73a27.94,27.94,0,0,0-3.51-.15H219.83a28.64,28.64,0,0,0-3.35.15Zm-3.16,22.82a32.4,32.4,0,0,0,.23-4.14V92.26a37.52,37.52,0,0,0-.19-3.87,23.82,23.82,0,0,0,3.35.16h19.5a25.09,25.09,0,0,0,3.4-.16,26.1,26.1,0,0,0-.2,3.87v9.12a25,25,0,0,0,.23,4.1H235v-2H218v2ZM218,99.67h17V92.33H218Zm15.17-18.53h1.33a35.85,35.85,0,0,1-8-7.61,27.14,27.14,0,0,1-7.64,7.61h14.35Z"/><path class="cls-2" d="M279.74,102.63l-1.76.19c-2.85.32-8,.59-10.57.59-7.29,0-10.45-1.4-11.62-5.15-.55-1.75-.7-3.94-.7-10.65,0-.58,0-.74,0-3.78a54.09,54.09,0,0,0-7.22.7L247.6,80c.55,0,.94,0,1.13,0,.35,0,2.5-.12,6.36-.35,0-.63,0-1,0-1.21a37.46,37.46,0,0,0-.28-6.63h5.23c-.23,1.44-.23,1.44-.35,7.6L271,78.88c0-6.2,0-6.2-.23-7.72h4.87a18.38,18.38,0,0,0-.19,2.69v4.87a71.67,71.67,0,0,0,7.56-.35l.08,4.64a14.55,14.55,0,0,0-2.22-.11c-1.37,0-3.59,0-5.42,0,0,3.94-.39,6.87-1,8.27a4.76,4.76,0,0,1-4.76,2.93,12.69,12.69,0,0,1-5.57-1.33c0-.78,0-1,0-1.56a20.36,20.36,0,0,0-.28-3.2A12.1,12.1,0,0,0,269,90c1,0,1.45-.5,1.68-2a34.78,34.78,0,0,0,.35-4.88c-5.93.24-5.93.24-11.35.55v1.05c0,.2,0,.2,0,2.26v.82c0,2,.12,6.28.2,7.06.31,3.28,2,4.1,8.34,4.1,5.07,0,8.74-.47,11.27-1.49Z"/></g></g></svg>