<svg xmlns="http://www.w3.org/2000/svg" width="585" height="117" viewBox="0 0 585 117"><defs><style>.cls-1{fill:#009e5a;}.cls-2{fill:#fff;}.cls-3,.cls-4{fill:none;stroke:#fff;}.cls-3{stroke-linecap:round;stroke-linejoin:round;stroke-width:2.77px;}.cls-4{stroke-miterlimit:10;stroke-width:2.02px;}</style></defs><title>bn_mail</title><g id="レイヤー_2" data-name="レイヤー 2"><g id="レイヤー_1-2" data-name="レイヤー 1"><rect class="cls-1" width="585" height="117" rx="15" ry="15"/><path class="cls-2" d="M141.07,32.76c-1.65-.93-2.64-1.49-2.64-3.07a3.14,3.14,0,0,1,3-3.16,4.66,4.66,0,0,1,2.07.6c3.06,1.54,8.37,4.65,8.7,4.88a61.29,61.29,0,0,0,5.31-13.21c.37-1.3.89-2.65,2.91-2.65s3.48,1.3,3.48,3a39.83,39.83,0,0,1-2.16,7.59,96.13,96.13,0,0,1-4.14,8.84,87.58,87.58,0,0,1,7.85,6A3.45,3.45,0,0,1,166.73,44a3.36,3.36,0,0,1-3.2,3.4,3.63,3.63,0,0,1-2.44-1c-1.13-.83-5.83-4.51-6.82-5.21-5.17,7.26-14,14.57-16.92,14.57a3.22,3.22,0,0,1-3.19-3.4,3,3,0,0,1,1.6-2.65c4.93-3.31,8.5-5.68,13.16-12.19C146.14,35.64,145.67,35.36,141.07,32.76Z"/><path class="cls-2" d="M212.79,32.76c2.53,0,5,0,5,3.21s-2.45,3.21-5,3.21H183.27c-2.54,0-5,0-5-3.21s2.44-3.21,5-3.21Z"/><path class="cls-2" d="M230.46,53.14a3.49,3.49,0,0,1-6.16-2,4.41,4.41,0,0,1,1.18-2.65c2.3-3.26,5.87-8.52,5.87-19.77,0-2.52,0-7,.05-7.45.14-1,.94-2.37,3.29-2.37A3,3,0,0,1,237.84,21c.19.51.14,7.21.14,8.19C238,35.46,235.63,47.69,230.46,53.14ZM250.2,44.9c0,1.07,0,1.17.33,1.17s5.92-1.87,8.65-9.68a27,27,0,0,0,1.17-4.56,2.7,2.7,0,0,1,2.87-2.37,3,3,0,0,1,3.29,2.88,28.23,28.23,0,0,1-5.92,14.19c-2.64,3.21-7.48,7.26-12.27,7.26s-4.75-3.12-4.75-5.58V22.29c0-2.51,0-5,3.2-5,3.43,0,3.43,2.28,3.43,5Z"/><path class="cls-2" d="M295,46.16v7.16C295,55,295,57,292,57s-3-2-3-3.72V46.16H277c-4.32,0-4.61-2.56-4.61-4.75V25c0-2.33.38-4.79,4.61-4.79h12V18.71c0-1.77,0-3.72,3-3.72s3,2,3,3.72V20.2h12.08c4.28,0,4.65,2.56,4.65,4.79V41.41c0,2.51-.56,4.75-4.65,4.75Zm-17-16.1h11V25.22h-9.63c-.8,0-1.37.24-1.37,1.31ZM289,41V35H278v4.33c0,1.21.43,1.58,1.65,1.58Zm17-14.33c0-1.07-.33-1.4-1.55-1.4H295v4.84h11ZM306,35H295V41h9.49c1.23,0,1.51-.56,1.51-1.58Z"/><path class="cls-2" d="M324.41,38.39c0-.75-.23-.79-.89-.79h-2.21c-1.93,0-3.76,0-3.76-2.47,0-2.65,1.6-2.65,3.76-2.65h5.22c1.64,0,3.57.42,3.57,3.63v8.7c0,4.14,1.83,5.77,6.67,5.77h19.51c2.07,0,3.76,0,3.76,2.6,0,3.07-1.32,3.12-3.76,3.12H336.63c-2.21,0-6.53-.09-9.63-3.16-4,2.69-5.78,3.63-7.38,3.63-1.93,0-2.77-1.91-2.77-3.12s.8-1.77,1.69-2.23c3.62-1.82,4-2.1,6-3.21a7.78,7.78,0,0,1-.1-1.59ZM322.72,22.8c-1-1.07-2.39-2.56-2.91-3.25A2.37,2.37,0,0,1,319.1,18c0-1.86,2-3,3.25-3s2,.74,3.71,2.42,4.46,4.75,4.46,6.05a3.43,3.43,0,0,1-3.47,3.07C326.06,26.48,325.17,25.5,322.72,22.8Zm16.87-2c-2,0-3.76,0-3.76-2.51,0-2.88,1.41-2.88,3.76-2.88h4.84c3.15,0,3.86.69,4.28,4.18a48,48,0,0,0,9.68,22.61c1.37,1.86,1.79,2.38,1.79,3.49a3,3,0,0,1-3.15,3c-1.32,0-2.58-.28-5.36-5.21-.7-1.31-4.37-8.38-5.45-13.12a48,48,0,0,1-7.47,15.4c-.38.51-2,2.79-3.9,2.79-1.27,0-3.25-1.21-3.25-2.93,0-.84.19-1.07,1.79-3a43.1,43.1,0,0,0,8.32-15.4,44.5,44.5,0,0,0,1.17-6c0-.37-.33-.42-.51-.42Z"/><path class="cls-2" d="M391.43,36a5.41,5.41,0,1,1-5.4-5.35A5.41,5.41,0,0,1,391.43,36Z"/><path class="cls-2" d="M418.37,53.51c0,2.05,0,3.77-2.59,3.77-3,0-3-1.31-3-3.77V20c0-2.46,1.13-4.14,4.32-4.14h10.43a4.32,4.32,0,0,1,4,4.28v9.12a4.85,4.85,0,0,1-1,3.3,4.4,4.4,0,0,1-3.05,1.17h-9.07ZM426,22.2v-.89c0-.69-.57-.79-.9-.79h-5.87c-.47,0-.89,0-.89.84v.84Zm-7.66,4.7v1.86h6.91c.56,0,.75-.19.75-.84v-1Zm20.44,9c.28,0,4.18,0,4.18,3.72v8.8a4.53,4.53,0,0,1-.61,2.7,3.43,3.43,0,0,1-2.58,1.35H426.69a5.34,5.34,0,0,1-2.59-.94,3.91,3.91,0,0,1-1.32-3v-9.3a3.33,3.33,0,0,1,3.39-3.31Zm-9.63,5c-.76,0-1,.33-1,.93V46c0,.93.33,1.11,1.27,1.11h7.29c1.12,0,1.12-.32,1.12-1.16V41.79c0-.89-.84-.89-1.17-.89Zm10.34-7.16c-4.28,0-4.89-2.05-4.89-5V20.52c0-3.11.61-4.65,4.09-4.65h10.62c3.05,0,4,2.09,4,3.54v33c0,3.81-1.5,4.74-4.74,4.74a22.23,22.23,0,0,1-5.93-.93,2.39,2.39,0,0,1-1.41-2.32,2.31,2.31,0,0,1,2.26-2.47c.52,0,2.77.47,3.2.47,1.22,0,1.22-.75,1.22-1.58V33.74Zm8.41-11.54c0-1.26,0-1.68-1.18-1.68H441c-1.08,0-1.08.1-1.08,1.68Zm-8,4.7v.83c0,.89,0,1,.85,1h7.19V26.9Z"/><path class="cls-2" d="M471,32.15c-1.88,0-3.76,0-3.76-2.69a2.16,2.16,0,0,1,.14-.79c-.85.41-4.94,2.55-6.72,2.55a2.79,2.79,0,0,1-2.45-2.93c0-1.95,1.18-2.51,3.53-3.49a58.9,58.9,0,0,0,14-8.56c2-1.62,2.49-2,4.23-2,1.37,0,1.46.09,4.61,2.46a80,80,0,0,0,14.94,8.8c1.32.6,2.26,1.2,2.26,2.6s-1.18,3.3-2.87,3.3c-1.22,0-4.74-1.95-6.34-2.83a4.72,4.72,0,0,1,.14,1c0,2.65-1.93,2.65-3.76,2.65Zm25.14,19.64a4.28,4.28,0,0,1-4.46,4.46H468a4.26,4.26,0,0,1-4.47-4.46V40.85A4.25,4.25,0,0,1,468,36.43h23.69a4.22,4.22,0,0,1,4.46,4.42Zm-5.64-9a.91.91,0,0,0-1-1H470.21a.9.9,0,0,0-1,1v7.12a.9.9,0,0,0,1,1h19.27a.93.93,0,0,0,1-1Zm-.75-15.86a73.83,73.83,0,0,1-8.27-6c-.47-.37-1.08-.88-1.55-.88-.19,0-.43.09-1,.56a68.12,68.12,0,0,1-8.51,6.28Z"/><path class="cls-2" d="M519.84,42c0,5.35.14,6.6,9.35,6.6a66.32,66.32,0,0,0,8.88-.6,28.37,28.37,0,0,1,3-.42,3,3,0,0,1,3,3.26c0,2.14-.47,4-14.24,4-14.24,0-16.26-3.3-16.26-10.46V31.6l-3.85.18c-2.35.1-5.13.19-5.13-3.07,0-3,2.5-3.12,4.94-3.16l4-.09V21.13c0-2.37,0-4.93,3.15-4.93s3.15,2.56,3.15,4.93v4.14l13.3-.42c.05-.88.14-6.14.23-6.65A2.66,2.66,0,0,1,536.24,16a2.87,2.87,0,0,1,3.2,3.17c0,.23-.1,4.65-.14,5.53l2.63,0c2.44-.05,5.07-.19,5.07,2.74s-2.16,3.07-4.88,3.17l-2.92.09c-.28,7.21-.66,12.19-8,12.19-3.62,0-5.54-.84-5.54-3.35a3,3,0,0,1,3-3.12c.33,0,1.79.28,2.12.28,2,0,2.16-1,2.25-5.77l-13.2.51Z"/><path class="cls-2" d="M127.78,96.23a1.11,1.11,0,1,1,0,2.22h-7.5c-1.82,0-2-.86-2-1.62,0-2.86,2.38-4.6,4.9-6.41s3.27-2.46,3.27-3.74c0-1.94-1.84-2.14-2.66-2.14-1.78,0-2.67.86-2.81,2-.1.84-.2,1.64-1.23,1.64a1.3,1.3,0,0,1-1.27-1.46c0-2.1,2.08-4.41,5.41-4.41s4.9,2.15,4.9,4.37a4.14,4.14,0,0,1-.58,2.14c-.45.78-.85,1.08-4.14,3.47-1.19.88-3.31,2.44-3.31,3.54,0,.3.28.36.57.36Z"/><path class="cls-2" d="M140.07,95.35v2.28a1.15,1.15,0,0,1-1.15,1.17,1.14,1.14,0,0,1-1.13-1.17V95.35h-5.57a1.35,1.35,0,0,1-1.31-1.46,2.28,2.28,0,0,1,.32-1.1l5.65-9.41a2,2,0,0,1,1.73-1,1.38,1.38,0,0,1,1.46,1.45v9.39h.72a1.08,1.08,0,0,1,0,2.16Zm-2.28-2.16V86.1l-4.22,7.09Z"/><path class="cls-2" d="M154,82.83a1.49,1.49,0,0,1,1.58,1.63V97.17A1.49,1.49,0,0,1,154,98.8h-3.42A1.47,1.47,0,0,1,149,97.19V84.46a1.5,1.5,0,0,1,1.58-1.63Zm-.46,6.69V85.28c0-.42-.22-.46-.46-.46h-1.54c-.42,0-.54.12-.54.46v4.24ZM151,91.35v5.08c0,.22.06.42.44.42h1.72c.28,0,.38-.2.38-.44V91.35Zm13.82-.63h.44c.73,0,1.61,0,1.61,1s-.88.94-1.61.94h-.44v5.26c0,1.49-.91,2.19-3.11,2.19a9,9,0,0,1-3-.44.93.93,0,0,1-.54-.83.87.87,0,0,1,.89-1c.12,0,.85.14.95.16a14.6,14.6,0,0,0,1.71.18c.95,0,1.11-.38,1.11-1.06v-4.5h-4.64c.28.18.4.3,1.45,1.48.79.88,1,1.2,1,1.66a.93.93,0,0,1-.95.92c-.44,0-.56-.14-1.07-.8s-1.19-1.34-1.59-1.9a.72.72,0,0,1-.18-.52.92.92,0,0,1,.52-.84c-.62,0-1.51,0-1.51-.94s.89-1,1.61-1h5.35V89.2h-5.49c-.76,0-1.61,0-1.61-1s.85-1,1.61-1h3.13V85.7h-2.74c-.77,0-1.62,0-1.62-1s.85-1,1.62-1h2.74v-.33c0-.76,0-1.6,1-1.6s1,.84,1,1.6v.33H165c.75,0,1.61,0,1.61,1s-.86,1-1.61,1h-2.52v1.52h2.78c.77,0,1.61,0,1.61,1s-.84,1-1.61,1h-.44Z"/><path class="cls-2" d="M171.35,98.49c0,.75,0,1.59-1,1.59s-1-.78-1-1.59V83.78a1.5,1.5,0,0,1,1.71-1.65h4.6c.56,0,1.61,0,1.61,1.59v4.1c0,1.32-.8,1.52-1.65,1.52h-4.28Zm3.92-13.61V84.4c0-.42-.21-.5-.67-.5H172c-.51,0-.63.2-.63.58v.4Zm-3.92,1.52v1.14h3.25c.52,0,.67-.2.67-.56V86.4Zm9,3.92c1.39,0,2,.56,2,2v3.74c0,1.52-.63,2-2,2h-4.88c-1.39,0-2-.54-2-2V92.35c0-1.49.63-2,2-2Zm0,2.91v-.6c0-.6-.46-.6-.73-.6h-3.32c-.29,0-.73,0-.73.6v.6Zm-4.78,1.66v.9c0,.6.44.62.73.62h3.32c.27,0,.73,0,.73-.62v-.9Zm4.84-5.55c-.75,0-1.84,0-1.84-1.74V83.86a1.45,1.45,0,0,1,1.58-1.65H185c1.63,0,1.63,1.35,1.63,2V97.83c0,.82,0,2.27-2.4,2.27-1.53,0-2.54-.16-2.54-1.16a1,1,0,0,1,1-1c.22,0,1.19.18,1.39.18.57,0,.57-.38.57-.92V89.34Zm4.24-4.46v-.42c0-.56-.33-.56-.71-.56h-2.72c-.18,0-.69,0-.69.52v.46Zm-4.12,1.52v.54c0,.44.16.6.57.6h3.55V86.4Z"/><path class="cls-2" d="M194,98.25a1,1,0,0,1-1,1,1,1,0,0,1-.73-.36c-.52-.57-1.23-1.61-1.73-2.19-1-1.1-1.13-1.22-1.13-1.46a.74.74,0,0,1,.85-.8C190.8,94.47,194,96.85,194,98.25Z"/><path class="cls-2" d="M214.5,89.26a2.71,2.71,0,0,0,2.89-2.62c0-2-1.84-2.1-2.58-2.1a2.77,2.77,0,0,0-2.95,1.92c-.26.54-.5.86-1.11.86a1.19,1.19,0,0,1-1.23-1.16c0-1.16,1.77-3.81,5.33-3.81,2.9,0,4.78,1.77,4.78,4.29a3.61,3.61,0,0,1-2,3.42,3.79,3.79,0,0,1,2.46,3.81c0,3.28-2.72,4.93-5.59,4.93-3.85,0-5.3-3-5.3-3.85a1.25,1.25,0,0,1,1.25-1.16c.68,0,.89.44,1.11.9a3.09,3.09,0,0,0,3.06,1.92,2.87,2.87,0,0,0,3.19-2.86,2.24,2.24,0,0,0-2.32-2.37h-2.28A1.06,1.06,0,0,1,212,90.26a.91.91,0,0,1,1-1Z"/><path class="cls-2" d="M228,87.74c3.12,0,4.78,2.34,4.78,5.35,0,3.66-2.36,5.71-5.37,5.71-4.54,0-5.52-4.23-5.52-8,0-.79,0-4.87,2.29-7A5.5,5.5,0,0,1,228,82.35c2.8,0,4.56,1.77,4.56,2.81a1.1,1.1,0,0,1-1.09,1.08c-.45,0-.55-.12-1.07-.64a2.91,2.91,0,0,0-2.28-1.06c-2.66,0-3.65,2.06-3.73,4.58A5,5,0,0,1,228,87.74Zm2.52,5.31c0-1.18-.4-3.09-2.82-3.09a3.33,3.33,0,0,0-.19,6.65C229.89,96.61,230.52,94.49,230.52,93.05Z"/><path class="cls-2" d="M237.34,88.82a4.56,4.56,0,0,1,3.06-.94c3.8,0,5,3,5,5.21a5.45,5.45,0,0,1-5.59,5.71c-3.25,0-5.11-2.19-5.11-3.35a1.17,1.17,0,0,1,1.17-1.08,1,1,0,0,1,.89.52,2.94,2.94,0,0,0,3,1.72c2.78,0,3.33-2.1,3.33-3.54,0-2.35-1.38-3-2.89-3a3.63,3.63,0,0,0-2.82,1.25c-.45.42-.63.52-1,.52A1.31,1.31,0,0,1,235,90.54l.64-6.38c.06-.66.57-1.45,2-1.45h6.45a1.08,1.08,0,0,1,1.09,1.11,1.09,1.09,0,0,1-1.09,1.1h-5.95c-.3,0-.4.32-.42.46Z"/><path class="cls-2" d="M268.66,97.65A1.66,1.66,0,0,1,267,99.52H256.08a1.68,1.68,0,0,1-1.7-1.87V84a1.67,1.67,0,0,1,1.7-1.87H267A1.66,1.66,0,0,1,268.66,84ZM266.5,89.5V84.86c0-.28,0-.7-.64-.7H257c-.5,0-.52.28-.52.58V89.5Zm-10.06,1.91v5.48a.59.59,0,0,0,.64.68h8.72c.62,0,.7-.28.7-.76v-5.4Z"/><path class="cls-2" d="M286.66,90.6a1.25,1.25,0,0,1,1.39,1.25c0,1-1.19,3.14-3.79,4.78A19.8,19.8,0,0,0,289.84,98a.89.89,0,0,1,.87.88,1.05,1.05,0,0,1-1.07,1.07,20.26,20.26,0,0,1-7.5-2.13,24.31,24.31,0,0,1-8.33,2.07c-.93,0-1.13-.6-1.13-1a.87.87,0,0,1,.85-.91,25.38,25.38,0,0,0,6.67-1.46,11.91,11.91,0,0,1-3.14-3.9c-.63,0-1.5,0-1.5-1s.87-1,1.64-1ZM276.23,87a12.4,12.4,0,0,1-.48-1.52,1,1,0,0,1,1.06-1c.71,0,1,.44,1.54,2.48h2.11c-.18-.64-.48-1.76-.48-1.94a.81.81,0,0,1,.83-.76,1.24,1.24,0,0,1,.85.32,6.16,6.16,0,0,1,.82,2.38h2.4A22.06,22.06,0,0,0,286,85c.18-.38.41-.88,1-.88a.92.92,0,0,1,.91.94,4.4,4.4,0,0,1-.83,2H289a1.72,1.72,0,0,1,1.55,1.78V91c0,.55,0,1.59-1.07,1.59s-1-.56-1-1.59V89.54c0-.5-.32-.5-.56-.5H275.34c-.5,0-.5.28-.5.56V91c0,1,0,1.69-1,1.69s-1-.78-1-1.69V88.66c0-.3.08-1.62,1.86-1.62Zm10-5.15c.31,0,1.68-.28,1.94-.28a.88.88,0,0,1,1,1c0,.78-.61,1-1.17,1a114,114,0,0,1-12.77.86c-.81,0-1.69,0-1.69-1.09,0-.86.8-.86,1.65-.86A105,105,0,0,0,286.27,81.89Zm-6.89,10.68a9.24,9.24,0,0,0,2.88,3,8.53,8.53,0,0,0,2-1.36,3.62,3.62,0,0,0,1.11-1.48c0-.14-.22-.14-.37-.14Z"/><path class="cls-2" d="M297.57,98.53c0,.79,0,1.59-1,1.59s-1-.8-1-1.59V90.44c-1.15,2.21-1.57,2.47-2.19,2.47a1,1,0,0,1-1-1c0-.28.12-.5,1-1.89a23.8,23.8,0,0,0,2.84-7.47.89.89,0,0,1,.93-.82,1.07,1.07,0,0,1,1.13,1,18.45,18.45,0,0,1-.67,2.83Zm12-13.43a2.75,2.75,0,0,1,1.05.14,1,1,0,0,1,.57.92,1,1,0,0,1-.55.9,2.52,2.52,0,0,1-1.07.16h-1.17V97.73c0,1.35,0,2.35-2.5,2.35-1,0-3.75-.34-3.75-1.55a1,1,0,0,1,.91-1.06,3.54,3.54,0,0,1,1.27.36,4.3,4.3,0,0,0,1.19.18c.83,0,.83-.38.83-1.06V87.22h-6.56a3,3,0,0,1-1.07-.14,1,1,0,0,1-.54-.92,1,1,0,0,1,.52-.92,2.49,2.49,0,0,1,1.09-.14h6.56V83.31c0-.76,0-1.62,1-1.62s1,.86,1,1.62V85.1Zm-6.27,6.39a5.11,5.11,0,0,1,.75,1.94,1,1,0,0,1-1,.94c-.69,0-1-.62-1.11-1a14.12,14.12,0,0,0-1.74-3,1.37,1.37,0,0,1-.34-.82.89.89,0,0,1,.95-.9C301.18,88.68,301.69,88.68,303.34,91.49Z"/><path class="cls-2" d="M328.92,84.5a1.67,1.67,0,0,1,1.86,1.82v6.25a1.67,1.67,0,0,1-1.86,1.82h-5.87v4c0,.79,0,1.59-1,1.59s-1.11-.72-1.11-1.59v-4h-5.75a1.66,1.66,0,0,1-1.85-1.82V86.32a1.66,1.66,0,0,1,1.85-1.82h5.75V83.34c0-.79,0-1.59,1-1.59s1.11.72,1.11,1.59V84.5Zm-8,7.85V86.5h-5a.58.58,0,0,0-.65.6v4.65a.58.58,0,0,0,.65.6Zm2.14-5.85v5.85h5a.57.57,0,0,0,.65-.6V87.1c0-.4-.24-.6-.65-.6Z"/><path class="cls-2" d="M339.27,96.73a2.93,2.93,0,1,1-2.93-2.9A2.91,2.91,0,0,1,339.27,96.73Zm-4.38,0a1.46,1.46,0,1,0,1.45-1.44A1.46,1.46,0,0,0,334.89,96.73Z"/><path class="cls-2" d="M368.9,87.32c.63,0,1.62,0,1.62,1s-1,1-1.62,1h-5.48v8.19h6.43c.77,0,1.61,0,1.61,1s-.84,1-1.61,1h-15c-.76,0-1.61,0-1.61-1s.85-1,1.61-1h6.54V89.4H356c-.62,0-1.61,0-1.61-1s1-1,1.61-1h5.37V83.19c0-.78,0-1.6,1-1.6s1,.82,1,1.6v4.13Z"/><path class="cls-2" d="M389.7,97.65A1.66,1.66,0,0,1,388,99.52h-10.9a1.67,1.67,0,0,1-1.69-1.87V84a1.67,1.67,0,0,1,1.69-1.87H388A1.67,1.67,0,0,1,389.7,84Zm-2.16-8.15V84.86c0-.28,0-.7-.64-.7H378c-.5,0-.52.28-.52.58V89.5Zm-10.06,1.91v5.48a.59.59,0,0,0,.64.68h8.72c.62,0,.7-.28.7-.76v-5.4Z"/><path class="cls-2" d="M403.74,98.5c0,.8,0,1.6-1.05,1.6s-1.11-.72-1.11-1.6v-3H396a1.6,1.6,0,0,1-1.71-1.6V85.64A1.59,1.59,0,0,1,396,84.06h5.61v-.81c0-.8,0-1.6,1.05-1.6s1.11.72,1.11,1.6v.81h5.75a1.59,1.59,0,0,1,1.72,1.58v8.23a1.61,1.61,0,0,1-1.72,1.6h-5.75Zm-2.16-9.68V86.08h-4.84a.47.47,0,0,0-.54.52v2.22Zm-5.38,1.74v2.35a.48.48,0,0,0,.54.52h4.84V90.56Zm13-1.74V86.6a.47.47,0,0,0-.53-.52h-4.92v2.74Zm-5.45,1.74v2.87h4.92a.48.48,0,0,0,.53-.52V90.56Z"/><path class="cls-2" d="M416.71,91.85c0-.3-.14-.38-.42-.38h-1c-.81,0-1.59,0-1.59-1s1-1,1.59-1h1.84c1.31,0,1.61.92,1.61,1.87v3.72c0,2,2.44,2.68,3.57,2.68h8.19c.71,0,1.59,0,1.59.93s-.88.92-1.59.92h-8.39a5.14,5.14,0,0,1-4.44-1.89c-.1.1-2.36,2-3.09,2a1,1,0,0,1-1-1c0-.51.3-.69.78-1a13.43,13.43,0,0,0,2.36-1.72.89.89,0,0,1-.06-.3Zm.87-5c-.42,0-.56-.14-1.84-1.54-.2-.24-1.29-1.26-1.47-1.5a.86.86,0,0,1-.16-.51,1,1,0,0,1,1-1c.52,0,.6.1,2.08,1.57s1.47,1.72,1.41,2.08A1,1,0,0,1,417.58,86.8Zm5.06-2.68c-.66,0-1.57,0-1.57-1s.81-1,1.57-1h2.87c1.39,0,1.49.78,1.57,2a17.69,17.69,0,0,0,4.62,10.47,1.27,1.27,0,0,1,.42.9,1.07,1.07,0,0,1-1.08,1c-.91,0-2-1.76-2.63-2.68a25.91,25.91,0,0,1-2.5-5.21c-1.37,3.87-4,7.85-5.22,7.85a1,1,0,0,1-1-1,1.28,1.28,0,0,1,.44-.88c.69-.76,4.34-4.83,4.34-10.21,0-.28-.08-.36-.48-.36Z"/><path class="cls-2" d="M438.54,92.69a.77.77,0,0,1,.79.78,12.42,12.42,0,0,1-.65,1.7,10.74,10.74,0,0,0-.48,2.52c0,.28-.16,1.33-1.15,1.33s-1.25-.91-1.35-1.19a26.37,26.37,0,0,1-.63-6.5c0-3.71.48-7.39.89-8.08a1.09,1.09,0,0,1,1-.54c.38,0,1.17.16,1.17.89,0,.12-.31,1.7-.37,2a37.2,37.2,0,0,0-.58,6.29c0,1,0,1.7.08,2.4C437.53,93.37,437.83,92.69,438.54,92.69Zm7.63-8.75c0-.77-.05-1.63,1.06-1.63s1.13.9,1.15,1.59l0,2.28,1.68,0c.72,0,1.65,0,1.65,1.1s-.91,1.22-1.59,1.24l-1.7,0,.08,5a13,13,0,0,1,3,2,1.32,1.32,0,0,1,.46,1,1.29,1.29,0,0,1-1.17,1.22,1.22,1.22,0,0,1-.84-.42c-.81-.66-.89-.74-1.52-1.22-.16.74-.54,2.87-4,2.87-2.38,0-4.5-1.09-4.5-3.75,0-2.34,2-3.2,3.81-3.2a8.35,8.35,0,0,1,2.63.48l-.08-3.91-5,.12c-.74,0-1.65,0-1.65-1.18s.89-1.14,1.61-1.16l5-.12Zm-2.26,10.27c-.25,0-1.72,0-1.72,1.16,0,.52.36,1.48,2.06,1.48A1.81,1.81,0,0,0,446.31,95,3.61,3.61,0,0,0,443.91,94.21Z"/><path class="cls-2" d="M459.28,88.64c-.37-.24-.79-.52-.79-1.08a1.19,1.19,0,0,1,1.09-1.22c.81,0,3.41,2.06,4.46,2.92a21.77,21.77,0,0,0,2.4-5.7c.14-.55.32-1.19,1.17-1.19a1,1,0,0,1,1.15,1,22.92,22.92,0,0,1-3,7.49c2.87,2.72,3.31,3.16,3.31,3.94a1.15,1.15,0,0,1-1.15,1.1,1.45,1.45,0,0,1-1-.5c-.1-.1-2-2.22-2.42-2.62-2.6,3.42-6.35,6.43-7.77,6.43A1.16,1.16,0,0,1,455.63,98a1.06,1.06,0,0,1,.72-1,20.9,20.9,0,0,0,6.44-5.79A23.15,23.15,0,0,0,459.28,88.64Z"/><path class="cls-2" d="M476.14,92c-.72,0-1.63,0-1.63-1.11s.89-1.14,1.63-1.14h14.57c.72,0,1.63,0,1.63,1.14S491.43,92,490.71,92Z"/><path class="cls-2" d="M497.34,98.19a1.71,1.71,0,0,1-1.19.61,1.16,1.16,0,0,1-1.09-1.15c0-.44.17-.6.61-1.06,2-2,3-4.4,3-8.81,0-.48-.08-2.56-.08-3s0-1.14,1.15-1.14a1,1,0,0,1,1,.58,24,24,0,0,1,.14,3.28C500.87,91.57,500.25,95.37,497.34,98.19ZM505.59,95c0,.46,0,.7.31.7s2.94-1.64,4-5.31c.42-1.56.54-2,1.33-2a1.11,1.11,0,0,1,1.19,1.1,10.63,10.63,0,0,1-1.35,4c-1.57,2.78-4.14,4.8-5.79,4.8a1.8,1.8,0,0,1-1.55-.86,2.69,2.69,0,0,1-.2-1.3V84.62c0-.78,0-1.61,1.06-1.61s1,.83,1,1.61Z"/><path class="cls-2" d="M519.82,92.91a.74.74,0,0,1,.8.72,10.83,10.83,0,0,1-.62,1.82,12.15,12.15,0,0,0-.41,2.06c-.08.56-.2,1.21-1.13,1.21a1.25,1.25,0,0,1-1.23-.87,19,19,0,0,1-.84-6.3,23.57,23.57,0,0,1,1.27-7.71,1.2,1.2,0,0,1,1.15-.93,1.13,1.13,0,0,1,1.19,1,2,2,0,0,1-.22.82,19.89,19.89,0,0,0-1.28,7.35,13.16,13.16,0,0,0,.15,2.28C518.87,93.75,519.15,92.91,519.82,92.91Zm4.53,1c0,.2-.22,1-.22,1.18,0,1.06,2.46,1.12,3.67,1.12.45,0,2.42-.1,2.81-.1s1.29,0,1.29,1-.73,1.24-4,1.24c-1.71,0-6-.12-6-3.2,0-.1,0-2.22,1.38-2.22A1,1,0,0,1,524.35,94Zm-1-9.59,1.89.06c1.09,0,2.56-.06,3.37-.12.22,0,1.21-.12,1.41-.12a1.05,1.05,0,0,1,1.19,1.08,1.15,1.15,0,0,1-1.11,1.12,48.66,48.66,0,0,1-5.2.26c-1.92,0-2.74,0-2.74-1.24C522.12,85.3,522.12,84.36,523.31,84.36Z"/><path class="cls-2" d="M536.74,86.3a1,1,0,0,1-1.17-1.12c0-1.12.71-1.16,2.2-1.28l5.89-.41c2.78-.16,7.24-.37,7.48-.37a1,1,0,0,1,1.17,1.06c0,1-.64,1.06-2.07,1.18-3.68.28-6.9,3.36-6.9,6.51,0,3.56,3.49,4.5,4.82,4.78.24.06,1.31.18,1.51.26a.94.94,0,0,1,.59.94C550.26,99,549,99,548.72,99c-2.34,0-7.6-2.25-7.6-6.89A8.37,8.37,0,0,1,545,85.38C543.64,85.5,537.14,86.3,536.74,86.3Z"/><path class="cls-2" d="M561.17,96.73a2.93,2.93,0,1,1-2.92-2.9A2.9,2.9,0,0,1,561.17,96.73Zm-4.38,0a1.46,1.46,0,1,0,1.46-1.44A1.46,1.46,0,0,0,556.79,96.73Z"/><rect class="cls-3" x="25.58" y="37.43" width="69.08" height="44.06" rx="2.35" ry="2.35"/><line class="cls-3" x1="48.14" y1="60.36" x2="27.09" y2="79.98"/><line class="cls-3" x1="93.4" y1="80.23" x2="71.96" y2="60.23"/><polyline class="cls-3" points="92.92 39.16 60.12 69.73 27.27 39.11"/><polyline class="cls-3" points="87.66 44.07 60.12 69.73 32.04 43.56"/><line class="cls-4" x1="119.27" y1="68.58" x2="561.04" y2="68.58"/></g></g></svg>