<svg xmlns="http://www.w3.org/2000/svg" width="585" height="117" viewBox="0 0 585 117"><defs><style>.cls-1{fill:#00b8ee;}.cls-2{fill:#fff;}.cls-3,.cls-5{fill:none;}.cls-3{stroke:#fff;stroke-miterlimit:10;stroke-width:2.02px;}.cls-4{isolation:isolate;}.cls-6{fill:#ececeb;}</style></defs><title>bn_tel</title><g id="レイヤー_2" data-name="レイヤー 2"><g id="レイヤー_1-2" data-name="レイヤー 1"><rect class="cls-1" width="585" height="117" rx="15" ry="15"/><path class="cls-2" d="M198.45,36.32c0,9.86-2.64,19.17-13,19.17-10.19,0-13-9.08-13-19.17,0-9.35,2.39-19.17,13-19.17C195.91,17.15,198.45,26.69,198.45,36.32Zm-19.37,0c0,7.63,1.51,12.89,6.39,12.89s6.4-5,6.4-12.89c0-7.68-1.56-12.89-6.4-12.89S179.08,28.64,179.08,36.32Z"/><path class="cls-2" d="M213.81,42.79c-7.61,0-11.74-5.5-11.74-12.24,0-6.14,3.52-13.4,12.45-13.4,12.45,0,13.53,13.59,13.53,18,0,4.74-.94,11.16-3.19,14.51a12.58,12.58,0,0,1-11,5.82c-6.16,0-11.42-3.68-11.42-7.08a2.87,2.87,0,0,1,2.91-3c.8,0,1,.14,2.92,1.68s3.05,2.14,5.59,2.14c5.12,0,7.09-3.87,7.47-9.12A10.62,10.62,0,0,1,213.81,42.79Zm-5.45-12.52c0,2.74,1.13,6.61,6,6.61,4.65,0,6.58-3.59,6.58-6.8,0-2.79-1.51-6.65-6.3-6.65C208.64,23.43,208.36,28.69,208.36,30.27Z"/><path class="cls-2" d="M236.14,54.65c-2,0-4.23-.89-4.23-4,0-7.4,7.24-12.52,10.48-14.61,6.11-3.91,8.37-5.4,8.37-8.28,0-2-1.79-4.33-5.6-4.33-5.07,0-6.11,3.07-6.53,4.23s-.89,2.7-3.1,2.7A3.47,3.47,0,0,1,232,27c0-2.65,2.82-9.86,12.87-9.86,7.15,0,12.55,3.91,12.55,10.38,0,5.53-2.91,8.37-10.15,12.79-5.36,3.26-6.06,4.23-6.72,5.16a7.82,7.82,0,0,0-1.32,3.07c0,.19.24.24.38.24H254c.57,0,3.48,0,3.48,2.83,0,.89-.33,3-3.48,3Z"/><path class="cls-2" d="M263.54,43.9a2.77,2.77,0,0,1,0-5.53h12.78a2.77,2.77,0,0,1,0,5.53Z"/><path class="cls-2" d="M290.28,23.85c-1.17,0-1.46.79-1.46,2.7v2c0,2.84-1.78,3.25-3,3.25a3,3,0,0,1-3.24-3.07V23c0-2.79,1.41-5,4.75-5h15.18c5.12,0,5.17,3.3,5.17,5.12,0,4.51-1.13,7-3.53,10.88-5.78,9.35-6,10.38-7.19,18.24-.14,1-.51,3.26-3.1,3.26-.19,0-3.48,0-3.48-3.17,0-7.49,5-16,8.56-21.4,1.92-3,2.35-4.05,2.35-5.67,0-1.12-.29-1.4-1.88-1.4Z"/><path class="cls-2" d="M318.81,29.9a3,3,0,0,1-1.93.6,2.86,2.86,0,0,1-3.05-3,3.1,3.1,0,0,1,1.08-2.56l7.85-6.84a4.26,4.26,0,0,1,2.82-.93c2.72,0,3.62,1.77,3.62,3.21V52.23a3,3,0,0,1-3.15,3.26,3.11,3.11,0,0,1-3.25-3.35V26.5Z"/><path class="cls-2" d="M367.36,36.32c0,9.86-2.63,19.17-13,19.17s-13-9.08-13-19.17c0-9.35,2.4-19.17,13-19.17C364.82,17.15,367.36,26.69,367.36,36.32Zm-19.36,0c0,7.63,1.5,12.89,6.39,12.89s6.39-5,6.39-12.89c0-7.68-1.55-12.89-6.39-12.89S348,28.64,348,36.32Z"/><path class="cls-2" d="M373.24,43.9a2.77,2.77,0,0,1,0-5.53H386a2.77,2.77,0,0,1,0,5.53Z"/><path class="cls-2" d="M400,23.85c-1.18,0-1.46.79-1.46,2.7v2c0,2.84-1.79,3.25-3,3.25a3,3,0,0,1-3.24-3.07V23c0-2.79,1.41-5,4.74-5h15.18c5.13,0,5.17,3.3,5.17,5.12,0,4.51-1.12,7-3.52,10.88-5.78,9.35-6,10.38-7.19,18.24-.14,1-.52,3.26-3.1,3.26-.19,0-3.48,0-3.48-3.17,0-7.49,5-16,8.55-21.4,1.93-3,2.35-4.05,2.35-5.67,0-1.12-.28-1.4-1.88-1.4Z"/><path class="cls-2" d="M424,21.8A3.77,3.77,0,0,1,428.08,18h14.57a2.93,2.93,0,0,1,.05,5.86H431c-.94,0-1,.23-1.12,1l-.71,7.21c.89-.69,2.58-2.09,6.58-2.09,7.47,0,11.42,6,11.42,12.28,0,6.75-4.37,13.22-13.16,13.22-7.61,0-12.36-4.94-12.36-7.73a3,3,0,0,1,3-3.07c1,0,1.55.19,3.34,2a7.78,7.78,0,0,0,6.2,2.56c5.31,0,6.72-4.47,6.72-6.84s-1.46-6.52-6.34-6.52a6.54,6.54,0,0,0-5.27,2.38c-1.69,1.72-2.21,1.86-3.15,1.86a3.35,3.35,0,0,1-3.52-3.45Z"/><path class="cls-2" d="M459.2,23.85c-1.18,0-1.46.79-1.46,2.7v2c0,2.84-1.79,3.25-3,3.25a3,3,0,0,1-3.24-3.07V23c0-2.79,1.41-5,4.74-5h15.18c5.12,0,5.17,3.3,5.17,5.12,0,4.51-1.13,7-3.52,10.88-5.78,9.35-6,10.38-7.19,18.24-.14,1-.52,3.26-3.11,3.26-.18,0-3.47,0-3.47-3.17,0-7.49,5-16,8.55-21.4,1.93-3,2.35-4.05,2.35-5.67,0-1.12-.28-1.4-1.88-1.4Z"/><path class="cls-2" d="M485.14,54.65c-2,0-4.23-.89-4.23-4,0-7.4,7.24-12.52,10.48-14.61,6.11-3.91,8.37-5.4,8.37-8.28,0-2-1.79-4.33-5.6-4.33-5.07,0-6.11,3.07-6.53,4.23s-.89,2.7-3.1,2.7A3.47,3.47,0,0,1,481,27c0-2.65,2.82-9.86,12.87-9.86,7.15,0,12.55,3.91,12.55,10.38,0,5.53-2.91,8.37-10.15,12.79-5.36,3.26-6.06,4.23-6.72,5.16a7.82,7.82,0,0,0-1.32,3.07c0,.19.24.24.38.24H503c.57,0,3.48,0,3.48,2.83,0,.89-.33,3-3.48,3Z"/><path class="cls-2" d="M135.72,89.6a1.25,1.25,0,0,1,1.39,1.25c0,1-1.19,3.14-3.79,4.78A19.8,19.8,0,0,0,138.91,97a.88.88,0,0,1,.86.88,1.05,1.05,0,0,1-1.07,1.07,20.26,20.26,0,0,1-7.5-2.13,24.31,24.31,0,0,1-8.33,2.07c-.93,0-1.13-.6-1.13-1a.87.87,0,0,1,.85-.91,25.38,25.38,0,0,0,6.67-1.46,11.91,11.91,0,0,1-3.14-3.9c-.63,0-1.5,0-1.5-1s.87-1,1.64-1ZM125.29,86a12.4,12.4,0,0,1-.48-1.52,1,1,0,0,1,1.06-1c.71,0,1,.44,1.54,2.48h2.12A18,18,0,0,1,129,84.1a.82.82,0,0,1,.83-.76,1.24,1.24,0,0,1,.85.32,6.16,6.16,0,0,1,.82,2.38h2.4A22.06,22.06,0,0,0,135.09,84c.18-.38.41-.88,1-.88A.92.92,0,0,1,137,84a4.4,4.4,0,0,1-.83,2h1.94a1.72,1.72,0,0,1,1.55,1.78V90c0,.55,0,1.59-1.07,1.59s-1-.56-1-1.59V88.54c0-.5-.32-.5-.56-.5H124.4c-.5,0-.5.28-.5.56V90c0,1,0,1.69-1,1.69s-1-.78-1-1.69V87.66c0-.3.08-1.62,1.86-1.62Zm10-5.15c.31,0,1.68-.28,1.94-.28a.88.88,0,0,1,.95,1c0,.78-.61,1-1.17,1a113.87,113.87,0,0,1-12.77.86c-.81,0-1.69,0-1.69-1.09,0-.86.8-.86,1.65-.86A105,105,0,0,0,135.33,80.89Zm-6.89,10.68a9.24,9.24,0,0,0,2.88,3,8.53,8.53,0,0,0,2-1.36,3.62,3.62,0,0,0,1.11-1.48c0-.14-.22-.14-.37-.14Z"/><path class="cls-2" d="M146.63,97.53c0,.79,0,1.59-1,1.59s-1-.8-1-1.59V89.44c-1.15,2.21-1.57,2.47-2.19,2.47a1,1,0,0,1-1-1c0-.28.12-.5,1-1.89a23.8,23.8,0,0,0,2.84-7.47.89.89,0,0,1,.93-.82,1.07,1.07,0,0,1,1.13,1,18.45,18.45,0,0,1-.67,2.83Zm12-13.43a2.75,2.75,0,0,1,1.05.14,1,1,0,0,1,.57.92.93.93,0,0,1-.55.9,2.52,2.52,0,0,1-1.07.16H157.5V96.73c0,1.35,0,2.35-2.5,2.35-1,0-3.75-.34-3.75-1.55a1,1,0,0,1,.91-1.06,3.54,3.54,0,0,1,1.27.36,4.3,4.3,0,0,0,1.19.18c.83,0,.83-.38.83-1.06V86.22h-6.56a3,3,0,0,1-1.07-.14,1,1,0,0,1-.54-.92,1,1,0,0,1,.52-.92,2.49,2.49,0,0,1,1.09-.14h6.56V82.31c0-.76,0-1.62,1-1.62s1,.86,1,1.62V84.1Zm-6.27,6.39a5.11,5.11,0,0,1,.75,1.94,1,1,0,0,1-1.05.94c-.69,0-.95-.62-1.11-1a14.12,14.12,0,0,0-1.74-3,1.37,1.37,0,0,1-.34-.82.89.89,0,0,1,1-.9C150.24,87.68,150.75,87.68,152.4,90.49Z"/><path class="cls-2" d="M167.31,81.83a1.49,1.49,0,0,1,1.57,1.63V96.17a1.49,1.49,0,0,1-1.57,1.63h-3.43a1.47,1.47,0,0,1-1.57-1.61V83.46a1.5,1.5,0,0,1,1.57-1.63Zm-.46,6.69V84.28c0-.42-.23-.46-.47-.46h-1.53c-.43,0-.55.12-.55.46v4.24Zm-2.55,1.83v5.08c0,.22.06.42.45.42h1.71c.28,0,.39-.2.39-.44V90.35Zm13.82-.63h.45c.72,0,1.61,0,1.61,1s-.89.94-1.61.94h-.45v5.26c0,1.49-.91,2.19-3.11,2.19a8.88,8.88,0,0,1-3-.44.93.93,0,0,1-.54-.83.87.87,0,0,1,.88-1c.12,0,.85.14.95.16a14.64,14.64,0,0,0,1.72.18c.94,0,1.1-.38,1.1-1.06v-4.5H171.5c.29.18.41.3,1.46,1.48.78.88,1,1.2,1,1.66a.93.93,0,0,1-.95.92c-.45,0-.57-.14-1.07-.8s-1.19-1.34-1.59-1.9a.69.69,0,0,1-.19-.52.91.91,0,0,1,.53-.84c-.63,0-1.51,0-1.51-.94s.88-1,1.61-1h5.34V88.2h-5.48c-.77,0-1.62,0-1.62-1s.85-1,1.62-1h3.12V84.7H171c-.77,0-1.61,0-1.61-1s.84-1,1.61-1h2.74v-.33c0-.76,0-1.6,1-1.6s1,.84,1,1.6v.33h2.52c.75,0,1.62,0,1.62,1s-.87,1-1.62,1h-2.52v1.52h2.79c.76,0,1.61,0,1.61,1s-.85,1-1.61,1h-.45Z"/><path class="cls-2" d="M184.62,97.49c0,.75,0,1.59-1,1.59s-1-.78-1-1.59V82.78a1.5,1.5,0,0,1,1.71-1.65h4.6c.57,0,1.62,0,1.62,1.59v4.1c0,1.32-.81,1.52-1.66,1.52h-4.27Zm3.91-13.61V83.4c0-.42-.2-.5-.66-.5h-2.63c-.5,0-.62.2-.62.58v.4Zm-3.91,1.52v1.14h3.25c.52,0,.66-.2.66-.56V85.4Zm9,3.92c1.39,0,2,.56,2,2v3.74c0,1.52-.62,2-2,2h-4.89c-1.39,0-2-.54-2-2V91.35c0-1.49.62-2,2-2Zm0,2.91v-.6c0-.6-.46-.6-.72-.6h-3.33c-.28,0-.73,0-.73.6v.6Zm-4.78,1.66v.9c0,.6.45.62.73.62h3.33c.26,0,.72,0,.72-.62v-.9Zm4.85-5.55c-.75,0-1.84,0-1.84-1.74V82.86a1.44,1.44,0,0,1,1.57-1.65h4.86c1.64,0,1.64,1.35,1.64,2V96.83c0,.82,0,2.27-2.4,2.27-1.53,0-2.54-.16-2.54-1.16a1,1,0,0,1,1-1c.23,0,1.2.18,1.4.18.56,0,.56-.38.56-.92V88.34Zm4.23-4.46v-.42c0-.56-.32-.56-.7-.56H194.5c-.18,0-.68,0-.68.52v.46Zm-4.11,1.52v.54c0,.44.16.6.56.6h3.55V85.4Z"/><path class="cls-2" d="M213.06,85.3a1.62,1.62,0,1,1-1.61-1.62A1.61,1.61,0,0,1,213.06,85.3Zm0,9.11a1.62,1.62,0,1,1-1.61-1.6A1.62,1.62,0,0,1,213.06,94.41Z"/><path class="cls-2" d="M227.22,92.41c-3.12,0-4.78-2.33-4.78-5.35,0-3.66,2.34-5.71,5.37-5.71,4.52,0,5.52,4.23,5.52,8,0,.8,0,4.85-2.32,7a5.45,5.45,0,0,1-3.81,1.45c-2.8,0-4.54-1.77-4.54-2.81a1.09,1.09,0,0,1,1.07-1.08c.45,0,.57.12,1.09.64a2.83,2.83,0,0,0,2.26,1.06c2.68,0,3.67-2.06,3.75-4.58A5.06,5.06,0,0,1,227.22,92.41Zm-2.54-5.31c0,1.18.42,3.1,2.82,3.1a3.1,3.1,0,0,0,3.27-3.3,3.06,3.06,0,0,0-3.06-3.36C225.31,83.54,224.68,85.68,224.68,87.1Z"/><path class="cls-2" d="M238.86,87.08a1.64,1.64,0,0,1-1.63,1.62,1.62,1.62,0,0,1-1.62-1.62,1.6,1.6,0,0,1,1.62-1.6A1.63,1.63,0,0,1,238.86,87.08Zm0,9.13a1.62,1.62,0,0,1-1.63,1.59,1.6,1.6,0,1,1,0-3.19A1.62,1.62,0,0,1,238.86,96.21Z"/><path class="cls-2" d="M252,89.58c0,4-1,8.22-5.44,8.22s-5.45-3.89-5.45-8.22c0-4,1-8.23,5.45-8.23S252,85.38,252,89.58Zm-8.59,0c0,3.85.89,6,3.15,6s3.14-2.24,3.14-6-.86-6-3.14-6S243.42,85.84,243.42,89.58Z"/><path class="cls-2" d="M264.72,89.58c0,4-1,8.22-5.44,8.22s-5.45-3.89-5.45-8.22c0-4,1-8.23,5.45-8.23S264.72,85.38,264.72,89.58Zm-8.59,0c0,3.85.89,6,3.15,6s3.14-2.24,3.14-6-.87-6-3.14-6S256.13,85.84,256.13,89.58Z"/><path class="cls-2" d="M275.31,89a9.45,9.45,0,0,0,4,1.31,4.67,4.67,0,0,0,3.2-1.35,2.44,2.44,0,0,1,1.15-.64.81.81,0,0,1,.73.78c0,.58-2,2.83-5.12,2.83-.67,0-1.84,0-4.66-1.44a8.67,8.67,0,0,0-3.13-1.05,5,5,0,0,0-2.66,1,2.63,2.63,0,0,1-1.05.5.73.73,0,0,1-.81-.7c0-1.19,2.64-2.51,4.54-2.51A8.75,8.75,0,0,1,275.31,89Z"/><path class="cls-2" d="M291.39,84.24l-1.86,2.24a1.16,1.16,0,0,1-.88.42,1.09,1.09,0,0,1-1-1.1.94.94,0,0,1,.22-.66l2.62-2.93a2.56,2.56,0,0,1,1.72-.86A1.49,1.49,0,0,1,293.67,83V96.63a1.16,1.16,0,0,1-1.15,1.17,1.14,1.14,0,0,1-1.13-1.17Z"/><path class="cls-2" d="M310.31,93c0,2.46-2,4.85-5.45,4.85S299.4,95.41,299.4,93a4.05,4.05,0,0,1,3-4,3.58,3.58,0,0,1-2.2-3.32,4.7,4.7,0,0,1,9.36,0,3.56,3.56,0,0,1-2.21,3.32A4.05,4.05,0,0,1,310.31,93Zm-8.61-.12a3.19,3.19,0,0,0,6.33,0c0-1.16-.81-2.74-3.17-2.74S301.7,91.69,301.7,92.83Zm.74-7.11a2.28,2.28,0,0,0,2.42,2.2,2.2,2.2,0,1,0-2.42-2.2Z"/><path class="cls-2" d="M315.84,87.08a1.65,1.65,0,0,1-1.64,1.62,1.62,1.62,0,0,1-1.61-1.62,1.6,1.6,0,0,1,1.61-1.6A1.63,1.63,0,0,1,315.84,87.08Zm0,9.13a1.62,1.62,0,0,1-1.64,1.59,1.6,1.6,0,1,1,0-3.19A1.62,1.62,0,0,1,315.84,96.21Z"/><path class="cls-2" d="M329,89.58c0,4-1,8.22-5.45,8.22s-5.44-3.89-5.44-8.22c0-4,1-8.23,5.44-8.23S329,85.38,329,89.58Zm-8.59,0c0,3.85.88,6,3.14,6s3.15-2.24,3.15-6-.87-6-3.15-6S320.4,85.84,320.4,89.58Z"/><path class="cls-2" d="M341.7,89.58c0,4-1,8.22-5.45,8.22s-5.45-3.89-5.45-8.22c0-4,1-8.23,5.45-8.23S341.7,85.38,341.7,89.58Zm-8.6,0c0,3.85.89,6,3.15,6s3.15-2.24,3.15-6-.87-6-3.15-6S333.1,85.84,333.1,89.58Z"/><path class="cls-2" d="M368,97.5c0,.8,0,1.62-.93,1.62s-.92-.86-.92-1.62V88.9c-.75,1.33-1,1.77-1.6,1.77a1,1,0,0,1-1-1c0-.28,0-.34.75-1.62a21.74,21.74,0,0,0,2.42-6.21c.1-.4.26-1,1-1a1,1,0,0,1,1,1,13,13,0,0,1-.73,2.91Zm9.66-10.88A17.7,17.7,0,0,0,381.17,93c.89,1,1,1.16,1,1.52a1,1,0,0,1-1,1c-.42,0-.64-.16-1.11-.66a18.53,18.53,0,0,1-3.51-6.13v8.65c0,1-.1,1.59-1,1.59s-1-.7-1-1.59V88.88a28.74,28.74,0,0,1-2.68,4.73c-1.5,2.1-1.82,2.1-2.2,2.1a1,1,0,0,1-1-.94c0-.34.06-.42.68-1.16a23.27,23.27,0,0,0,4-7h-3c-.72,0-1.61,0-1.61-1s.89-1,1.61-1h4.16V82.41c0-.9,0-1.6,1-1.6s1,.7,1,1.6V84.7h4c.72,0,1.61,0,1.61,1s-.89,1-1.61,1Z"/><path class="cls-2" d="M400.18,96.65a1.67,1.67,0,0,1-1.7,1.87H387.59a1.67,1.67,0,0,1-1.69-1.87V83a1.67,1.67,0,0,1,1.69-1.87h10.89a1.67,1.67,0,0,1,1.7,1.87ZM398,88.5V83.86c0-.28,0-.7-.65-.7h-8.89c-.51,0-.53.28-.53.58V88.5ZM388,90.41v5.48a.59.59,0,0,0,.65.68h8.71c.63,0,.71-.28.71-.76v-5.4Z"/><path class="cls-2" d="M414.82,85.3a1.61,1.61,0,1,1-1.61-1.62A1.61,1.61,0,0,1,414.82,85.3Zm0,9.11a1.61,1.61,0,1,1-3.22,0,1.61,1.61,0,0,1,3.22,0Z"/><path class="cls-2" d="M439.9,86.32c.62,0,1.61,0,1.61,1s-1,1-1.61,1h-5.49v8.19h6.44c.76,0,1.61,0,1.61,1s-.85,1-1.61,1h-15c-.77,0-1.62,0-1.62-1s.85-1,1.62-1h6.53V88.4H427c-.63,0-1.62,0-1.62-1s1-1,1.62-1h5.36V82.19c0-.78,0-1.6,1-1.6s1,.82,1,1.6v4.13Z"/><path class="cls-2" d="M455.55,89.86a2,2,0,1,1-2-2A2,2,0,0,1,455.55,89.86Z"/><path class="cls-2" d="M480.87,96.65a1.67,1.67,0,0,1-1.7,1.87H468.28a1.67,1.67,0,0,1-1.69-1.87V83a1.67,1.67,0,0,1,1.69-1.87h10.89a1.67,1.67,0,0,1,1.7,1.87Zm-2.16-8.15V83.86c0-.28,0-.7-.65-.7h-8.89c-.51,0-.53.28-.53.58V88.5Zm-10.07,1.91v5.48a.59.59,0,0,0,.65.68H478c.63,0,.71-.28.71-.76v-5.4Z"/><path class="cls-2" d="M495.9,89.86a2,2,0,1,1-2-2A2,2,0,0,1,495.9,89.86Z"/><path class="cls-2" d="M510.26,84.32c.91,0,1.59.26,1.59,1.44s-1.47,3.14-1.87,3.68a8.81,8.81,0,0,0,1.73,1.45.9.9,0,0,1,.51.84c0,.3-.26,1.08-1,1.08s-1.49-.84-2-1.34v6.07c0,.7,0,1.6-.93,1.6s-.92-.88-.92-1.6V92.27c-1.13,1-1.42,1.18-1.78,1.18a1,1,0,0,1-1-1,.91.91,0,0,1,.21-.6c.06-.08,1-.88,1.49-1.32,1.59-1.39,3-3.31,3-4.15,0-.18-.06-.24-.3-.24h-2.52c-.71,0-1.59,0-1.59-.92s.88-.94,1.59-.94h.81V82.38c0-.73,0-1.59,1-1.59s1,.86,1,1.59v1.94Zm3.65,6.49a1.34,1.34,0,0,1-1.49-1.43V82.82a1.33,1.33,0,0,1,1.49-1.41h7.41a1.33,1.33,0,0,1,1.49,1.41v6.56a1.34,1.34,0,0,1-1.49,1.43h-1.11v5.52c0,.12,0,.56.34.56h.54c.37,0,.41-.26.57-1.16.24-1.3.3-1.72,1-1.72a.86.86,0,0,1,.88.9,8.2,8.2,0,0,1-.52,2.93,1.78,1.78,0,0,1-1.51,1h-1.9a1.57,1.57,0,0,1-1.39-1.73v-6.3h-1.62c-.08,4.62-2.17,6.56-3.63,7.71a2.08,2.08,0,0,1-1.25.56.86.86,0,0,1-.84-.92c0-.51.34-.79.82-1.17,2-1.56,2.83-3.1,2.89-6.18ZM515,83.32c-.52,0-.52.32-.52.64V88.2c0,.32,0,.64.54.64h5.19c.52,0,.52-.32.52-.64V84c0-.32,0-.64-.52-.64Z"/><path class="cls-2" d="M528.66,84c-.55.66-1.8,2.08-2.52,2.08a1,1,0,0,1-.95-1c0-.46.22-.64.87-1.22a7.88,7.88,0,0,0,2-2.55,1.08,1.08,0,0,1,1-.7,1,1,0,0,1,1,1,1.08,1.08,0,0,1-.1.42h3.21a2.06,2.06,0,0,1,.78.12.93.93,0,0,1,1-.92c.49,0,.65.1.89.66A13.87,13.87,0,0,0,538,85.7c.42-.44,1.63-1.66,1.63-2.24,0-.2-.06-.2-.54-.2h-1c-.69,0-1.59,0-1.59-.85s.92-.86,1.59-.86h2.26c.36,0,1.79,0,1.79,1.17,0,.54-.72,2.28-2.82,4.26a14.88,14.88,0,0,0,3.09,1.82c.6.24,1.07.46,1.07,1.06,0,.06,0,1-.85,1a9.75,9.75,0,0,1-4.22-2c.1,1-.89,1-1.59,1h-4.6c-.77,0-1.55,0-1.59-.9-.75.52-3.7,2.27-4.76,2.27a1,1,0,0,1-.91-1,1,1,0,0,1,.68-.91c1.43-.66,1.6-.72,1.92-.88l-.73-1a1,1,0,0,1-.24-.62.79.79,0,0,1,.83-.84c.36,0,.68.06,1.71,1.54a8.68,8.68,0,0,0,.83-.6c-.28-.32-.61-.66-1.09-1.12a1,1,0,0,1-.38-.76.82.82,0,0,1,.84-.82c.53,0,.67.14,1.94,1.42a4.42,4.42,0,0,0,.93-1.44c0-.2-.26-.2-.46-.2Zm.16,13c-1.37,1.57-1.94,1.65-2.3,1.65a1,1,0,0,1-1-1c0-.41.18-.57.71-1a12.64,12.64,0,0,0,2.06-2.28,1,1,0,0,1,.88-.52,1.07,1.07,0,0,1,1,.82C530.33,95.31,529.32,96.49,528.82,97.07Zm6.5.1c0,1.55-.59,2-2.3,2-.17,0-2.85,0-2.85-1.33a1,1,0,0,1,.93-1,2.65,2.65,0,0,1,.42.06,5.54,5.54,0,0,0,1.13.18c.59,0,.59-.16.59-.6V93.25h-5.09c-.72,0-1.61,0-1.61-1s.91-.94,1.61-.94h12.43c.73,0,1.61,0,1.61,1s-.9.94-1.61.94h-5.26Zm2.15-9.11a12.1,12.1,0,0,1-2.9-4c-.22,1.34-1.76,3-2.74,4Zm2.34,6.57a9.24,9.24,0,0,0,2.65,2c.36.22.68.4.68.93a1.05,1.05,0,0,1-1,1c-.94,0-4.43-2.37-4.43-3.69a1,1,0,0,1,1.13-.92A1.68,1.68,0,0,1,539.81,94.63Z"/><path class="cls-2" d="M561.56,96.65a1.66,1.66,0,0,1-1.69,1.87H549a1.67,1.67,0,0,1-1.69-1.87V83A1.67,1.67,0,0,1,549,81.11h10.9A1.67,1.67,0,0,1,561.56,83ZM559.4,88.5V83.86c0-.28,0-.7-.64-.7h-8.9c-.5,0-.52.28-.52.58V88.5Zm-10.06,1.91v5.48a.59.59,0,0,0,.64.68h8.72c.62,0,.7-.28.7-.76v-5.4Z"/><line class="cls-3" x1="121.7" y1="67.58" x2="563.47" y2="67.58"/><g class="cls-4"><circle class="cls-5" cx="66.09" cy="59.01" r="40.12"/></g><path class="cls-6" d="M66.09,23.29l-1.84.05-1.81.14-1.78.22L58.9,24l-1.72.4-1.69.48-1.66.56-1.62.64-1.58.72-1.54.79-1.49.86-1.45.93-1.41,1-1.35,1.07-1.3,1.12-1.24,1.19L39.66,35l-1.12,1.3-1.06,1.35-1,1.4-.93,1.45L34.68,42l-.79,1.54-.71,1.58-.64,1.62L32,48.42l-.48,1.69-.4,1.72-.31,1.76-.23,1.78-.14,1.81,0,1.83,0,1.84.14,1.81.23,1.78.31,1.76.4,1.72L32,69.61l.57,1.66.64,1.62.71,1.58L34.68,76l.87,1.49L36.48,79l1,1.41,1.06,1.35L39.66,83l1.19,1.24,1.24,1.19,1.3,1.12,1.35,1.07,1.41,1,1.45.94,1.49.86,1.54.79,1.58.71,1.62.64,1.66.57,1.69.48,1.72.4,1.76.31,1.78.23,1.81.14,1.84,0,1.83,0,1.81-.14,1.79-.23L73.27,94l1.72-.4,1.7-.48,1.65-.57L80,91.92l1.58-.71,1.54-.79,1.5-.86L86,88.62l1.4-1,1.35-1.07,1.3-1.12,1.24-1.19L92.51,83l1.13-1.3,1.06-1.35,1-1.41.93-1.45L97.49,76l.79-1.54L99,72.89l.64-1.62.56-1.66.48-1.69.4-1.72.32-1.76.22-1.78.14-1.81,0-1.84,0-1.83-.14-1.81-.22-1.78-.32-1.76-.4-1.72-.48-1.69-.56-1.66L99,45.14l-.72-1.58L97.49,42l-.86-1.5-.93-1.45-1-1.4-1.06-1.35L92.51,35l-1.19-1.24-1.24-1.19-1.3-1.12L87.43,30.4l-1.4-1-1.45-.93-1.5-.86-1.54-.79L80,26.1l-1.62-.64-1.65-.56L75,24.42,73.27,24l-1.75-.32-1.79-.22-1.81-.14Zm0-4.4A40.13,40.13,0,1,1,26,59,40.19,40.19,0,0,1,66.09,18.89Z"/><path class="cls-2" d="M78.52,83.15l3.3-1.91a1.21,1.21,0,0,0,.54-.82A1.78,1.78,0,0,0,82,79.21L75.93,68.72c-.61-1.06-1.21-1.32-2-.88L70.74,69.7ZM52.05,67.26l.29.51c4,6.86,8,11.44,12.1,13.68,5,2.79,9,3.7,12.3,2.72l.08,0L69,70.73a2.84,2.84,0,0,1-2.82,0A9.14,9.14,0,0,1,63.41,68c-1-1.55-2.15-3.32-3.38-5.45-1.54-2.66-2.46-4.46-3-5.29a9.25,9.25,0,0,1-.91-3.73,2.56,2.56,0,0,1,1.41-2.44L49.76,37.53c-1.43,1.23-2.55,3.4-3.19,6.4a23.73,23.73,0,0,0-.42,8.25C46.77,56.52,48.76,61.53,52.05,67.26ZM59.1,50.17l3.22-1.86c.85-.49.87-1.42.17-2.63l-5.67-9.81c-.53-.91-.92-1.39-1.26-1.39a2.15,2.15,0,0,0-1.23.4l-3,1.77Z"/></g></g></svg>