<svg xmlns="http://www.w3.org/2000/svg" width="621" height="300" viewBox="0 0 621 300"><defs><style>.cls-1{fill:#fff;}</style></defs><title>circle_dayservice</title><g id="レイヤー_2" data-name="レイヤー 2"><g id="レイヤー_1-2" data-name="レイヤー 1"><path class="cls-1" d="M179.34,141.16c-.6,13.34-5.67,20.46-17.88,25.16a17,17,0,0,0-4.43-6c10.59-3.35,14.8-8.7,15.18-19.17H159.08a46.67,46.67,0,0,0-6.85.27V135a34.74,34.74,0,0,0,7,.38h31.59a34.8,34.8,0,0,0,7-.38v6.43a46.92,46.92,0,0,0-6.86-.27Zm8.15-13.23a43.6,43.6,0,0,0-6.86-.27H164.54a44.1,44.1,0,0,0-6.86.27v-6.59a35,35,0,0,0,7,.38h15.87a34.24,34.24,0,0,0,7-.38Zm3.13-10.1a38.23,38.23,0,0,1,4.81,8.53l-4.05,1.51a40.3,40.3,0,0,0-4.75-8.64Zm7.72,7.67a39,39,0,0,0-4.64-8.37l3.89-1.41a33.5,33.5,0,0,1,4.75,8.21Z"/><path class="cls-1" d="M250,123.45a21.2,21.2,0,0,0-2,1.89,95.68,95.68,0,0,1-12.74,11.12v23.06a40.24,40.24,0,0,0,.27,6h-7.56a30.37,30.37,0,0,0,.32-5.83v-19c-6.32,3.78-9.34,5.19-19.28,8.75a20.23,20.23,0,0,0-3.62-6.16,78.53,78.53,0,0,0,28.35-14c4.81-3.72,8.48-7.45,10-10.09Z"/><path class="cls-1" d="M290.47,129.71l0-2.43v-1.73a34,34,0,0,0-.27-6h7a20,20,0,0,0-.22,3.62c0,3.29,0,3.29-.05,6.53h3.45a37.67,37.67,0,0,0,7-.38v6.59a54.07,54.07,0,0,0-6.91-.27h-3.62c-.1,6.48-.1,6.86-.37,8.91-.76,6.91-3.08,11.5-7.78,15.5-2.92,2.48-5.56,3.89-10.53,5.67a16.19,16.19,0,0,0-4-5.73c5.13-1.56,7.72-2.86,10.31-5.13,3.68-3.18,5.24-6.75,5.73-13,.11-1.24.11-2.53.21-6.26h-14v8.1a33.86,33.86,0,0,0,.21,4.54h-7a34.18,34.18,0,0,0,.22-4.65v-8h-3.3a54.17,54.17,0,0,0-6.91.27v-6.59a37.8,37.8,0,0,0,7,.38h3.19v-5.4a28.43,28.43,0,0,0-.27-4.81h7.07a27.85,27.85,0,0,0-.21,4.65v5.56Z"/><path class="cls-1" d="M314.33,138.51a52.37,52.37,0,0,0,8.75.38h28.79a52.15,52.15,0,0,0,8.74-.38V146c-2.16-.27-2.75-.27-8.8-.27H323.14c-6.05,0-6.64,0-8.81.27Z"/><path class="cls-1" d="M380.65,137.11c8.15-1.51,20.09-6.32,23.6-9.61l4.32,6.1c-.38.16-2,.92-4.86,2.32a91.49,91.49,0,0,1-23.06,7.45v7.13a3.23,3.23,0,0,0-.06.7c0,3.13.22,4.38,1,5.13.91,1,4,1.41,9.23,1.41a101.86,101.86,0,0,0,12.53-.87,31.63,31.63,0,0,0,6.15-1.29l.33,7.18c-1.14,0-1.41.05-7.13.59-3.19.33-10,.65-13.28.65-6.81,0-10.53-.7-12.64-2.32-1.51-1.14-2.32-2.86-2.65-5.51a40.53,40.53,0,0,1-.16-5l-.05-25a28,28,0,0,0-.22-5h7.24a27,27,0,0,0-.27,5Zm25.65-18.47a34.17,34.17,0,0,1,5.4,8.21l-3.89,1.78a34.16,34.16,0,0,0-5.35-8.26Zm8.1,6.86a40.15,40.15,0,0,0-5.19-8l3.73-1.73a31.78,31.78,0,0,1,5.29,7.83Z"/><path class="cls-1" d="M463.7,164.76a103.41,103.41,0,0,0-16.58-16,64.2,64.2,0,0,1-20.57,15.6,21.59,21.59,0,0,0-4.38-6,44.61,44.61,0,0,0,10.8-5.94,52,52,0,0,0,18.15-22l.59-1.4c-.86.05-.86.05-17.87.32a43.7,43.7,0,0,0-5.89.43l-.21-6.91a23.5,23.5,0,0,0,4.75.33h1.29l19-.27c3-.06,3.46-.11,4.81-.6l3.56,3.67a10.61,10.61,0,0,0-1.73,2.92A71.22,71.22,0,0,1,451,143.8a84.32,84.32,0,0,1,10,7.83c1.35,1.19,1.35,1.19,7.88,7.51Z"/><path class="cls-1" d="M583.5,4.5a33,33,0,0,1,33,33v225a33,33,0,0,1-33,33H37.5a33,33,0,0,1-33-33V37.5a33,33,0,0,1,33-33h546m0-4.5H37.5A37.5,37.5,0,0,0,0,37.5v225A37.5,37.5,0,0,0,37.5,300h546A37.5,37.5,0,0,0,621,262.5V37.5A37.5,37.5,0,0,0,583.5,0Z"/></g></g></svg>