<svg xmlns="http://www.w3.org/2000/svg" width="621" height="300" viewBox="0 0 621 300"><defs><style>.cls-1{fill:#fff;}</style></defs><title>circle_home</title><g id="レイヤー_2" data-name="レイヤー 2"><g id="レイヤー_1-2" data-name="レイヤー 1"><path class="cls-1" d="M48,145.37c0-1.4.05-2.48.16-6.16A38.93,38.93,0,0,1,44,145a29.33,29.33,0,0,0-2.43-6.53,44.07,44.07,0,0,0,8.91-14.26,34.49,34.49,0,0,0,2.05-7l6.21,1.57a85.88,85.88,0,0,1-4.81,11.82v30.35a45.53,45.53,0,0,0,.38,6.27H47.63a37.55,37.55,0,0,0,.38-6.32ZM75.66,128.2A54.21,54.21,0,0,0,65,121.39l4.16-4a67,67,0,0,1,11.34,6.69l-4,4.11h8.16a51.08,51.08,0,0,0,6.42-.33v6c-1.89-.16-3.94-.27-6.26-.27h-8.1v9.45h6.69a49,49,0,0,0,6-.32v5.94c-1.73-.16-3.67-.27-5.94-.27H76.63v11.34H86a54.48,54.48,0,0,0,6.43-.33v6c-2-.16-3.78-.27-6.48-.27H62.05c-2.65,0-4.43.11-6.43.27v-6a51.16,51.16,0,0,0,6.21.33h8.75V148.45H64.86c-2.27,0-4.16.11-5.94.27v-5.94a47.26,47.26,0,0,0,5.94.32h5.72v-9.45H63.51c-2.27,0-4.27.11-6.16.27v-6a36.55,36.55,0,0,0,6.1.33Z"/><path class="cls-1" d="M115.24,139.59c-6.59,1.08-6.59,1.08-13.18,1.95a26,26,0,0,0-2.48-5.46A144.13,144.13,0,0,0,121.66,133c5.57-1.24,9.08-2.43,11.61-3.94l5,4.86a38.57,38.57,0,0,0-4.16,1.14c-6.27,1.89-9.29,2.7-12.91,3.45v5.67l18.47-2a38.74,38.74,0,0,0,5.83-1l.6,6.15a7.65,7.65,0,0,0-1-.05c-1,0-3.51.16-5,.32l-19,2.06v9c0,1.35.27,1.67,1.51,2a52.38,52.38,0,0,0,6.59.32c5.24,0,7.83-.32,8.86-1s1.19-2.06,1.4-7.24a17.5,17.5,0,0,0,5.94,2.16c-.32,4.16-.54,5.35-1.24,7-.92,2.26-2.21,3.34-4.81,4-1.89.49-4.69.65-11,.65-11.39,0-13.28-.86-13.28-6.1V150.28l-11.72,1.3a42.17,42.17,0,0,0-5.89,1l-.59-6.1h1.08c1.08,0,3.4-.16,4.86-.27l12.26-1.35ZM118,120.75a15.56,15.56,0,0,0-.32-3.14h6.64a14.86,14.86,0,0,0-.27,3.14v1.72h14.9c2.76,0,4.16,0,6-.21a25.5,25.5,0,0,0-.22,4v4.11a32.16,32.16,0,0,0,.22,4.16h-5.89V128H104.11v6.54H98.17a23.64,23.64,0,0,0,.27-4.22v-4.05a28.57,28.57,0,0,0-.21-4c1.73.16,3.24.21,5.94.21H118Z"/><path class="cls-1" d="M157.25,124.58a36.43,36.43,0,0,0-4.91.22V119a56.43,56.43,0,0,0,5.77.27h14.53a39.74,39.74,0,0,0,5.78-.27v5.78a30.43,30.43,0,0,0-4.59-.22V130h.38a40.88,40.88,0,0,0,5.23-.22v5.84a42.31,42.31,0,0,0-5.13-.22h-.48v5.18c0,1.95,0,2.76.11,4.27h4.42a15,15,0,0,0-.27,3.4v1.68h10.8a43.31,43.31,0,0,0,6.38-.33v5.89a62.63,62.63,0,0,0-6.27-.27H178.09v4.91h15.23a58.3,58.3,0,0,0,6.32-.27v6a56.48,56.48,0,0,0-6.8-.32H158a54,54,0,0,0-6.64.32v-6a59,59,0,0,0,6.21.27h14.53V155.2H161.89c-2.53,0-4.48.11-6.21.27v-5.83a37,37,0,0,0,5.57.27h10.8v-1.62c0-.6,0-1-.06-1.79h-4.16a44.26,44.26,0,0,0,.33-5.88v-5.24h-5.29a21.21,21.21,0,0,1-2,6.8c-1.24,2.6-2.75,4.38-5.78,6.86a18.83,18.83,0,0,0-4.32-4.48c4-2.86,5.35-4.91,6.21-9.18h-.81a33.6,33.6,0,0,0-5.13.27v-5.94a36.47,36.47,0,0,0,5.3.27h1.18c0-.43,0-2.21.06-5.4Zm6.1,0v1.67c0,1.35,0,2.6,0,3.73h4.86v-5.4Zm17.77,15a31.5,31.5,0,0,0,.27-4.32V124.69a32.61,32.61,0,0,0-.27-4.43h6.15a28.3,28.3,0,0,0-.21,4.1V135.7a35.68,35.68,0,0,0,.16,3.89Zm17,1.78c0,4.65-1.46,5.67-7.84,5.67a44.14,44.14,0,0,1-4.48-.21,17.56,17.56,0,0,0-1.56-5.89,39.82,39.82,0,0,0,5.72.49c2.05,0,2.21-.11,2.21-1.24V122.47a27.38,27.38,0,0,0-.27-4.64h6.48a37.31,37.31,0,0,0-.26,5.08Z"/><path class="cls-1" d="M215.25,142.89a58,58,0,0,1-7.83,6.8,16.11,16.11,0,0,0-3.68-5.24,48.52,48.52,0,0,0,9.08-7.4,35.82,35.82,0,0,0,6.42-8.47h-7.61a52.73,52.73,0,0,0-6.43.32v-6a55.76,55.76,0,0,0,6.48.32h10.15a23.53,23.53,0,0,0,1.57-5.83l6.75.75a23.73,23.73,0,0,0-1.19,3c-.21.65-.32.92-.75,2h19.27a52.11,52.11,0,0,0,6.32-.32v6a51.35,51.35,0,0,0-6.32-.32h-21.7c-1,1.78-1.62,2.86-2.65,4.53H241.6a50.72,50.72,0,0,0,5.61-.21c-.16,1.67-.21,3.4-.21,6.15v22.52c0,2.11-.65,3.51-2.05,4.37-1,.6-3,.87-6.32.87-1.24,0-2.27-.06-5-.16a17.24,17.24,0,0,0-1.4-5.67,48.17,48.17,0,0,0,6.26.48c2.38,0,2.7-.21,2.7-1.51v-4.1H221v4.59c0,2.91.11,4.8.27,6.75h-6.37a59.43,59.43,0,0,0,.33-6.81Zm26-4.59H221v3.94h20.2ZM221,147v4h20.2v-4Z"/><path class="cls-1" d="M279.67,152.71c-.27.71-.33,1-.6,1.84a40.14,40.14,0,0,1-5.45-7.61c.27,3.67.32,4.42.32,6.15V162a31.91,31.91,0,0,0,.33,5.62H268a35,35,0,0,0,.38-5.73v-7c0-2.16.11-4.7.22-6.48-2.43,5.94-4.16,9-7,12.15a16.28,16.28,0,0,0-2.76-5.56,35.69,35.69,0,0,0,5.84-8,44.93,44.93,0,0,0,2.86-6.1h-2.81a28.56,28.56,0,0,0-4.86.27v-5.72a27.4,27.4,0,0,0,4.86.27h3.62V123a34.08,34.08,0,0,0-.27-5.29h6.15a32.88,32.88,0,0,0-.27,5.24v12.85h2.54a27.57,27.57,0,0,0,4.16-.22v5.62a31.75,31.75,0,0,0-4.27-.22h-1.94a28.74,28.74,0,0,0,7,8.26,30.6,30.6,0,0,0-1.52,3,36.58,36.58,0,0,0,5-.76l12.64-2.81V124a38.22,38.22,0,0,0-.32-6.27h6.53a38.24,38.24,0,0,0-.32,6.21v23.44A32.73,32.73,0,0,0,308,146l1.14,6.15a40.83,40.83,0,0,0-5.18,1l-.54.1v7.89a39.71,39.71,0,0,0,.32,6.37h-6.53a40.47,40.47,0,0,0,.32-6.43v-6.53L286,157.14c-2.38.54-3.94,1-5.13,1.35Zm-15.61-32.07a65.82,65.82,0,0,1,3.3,11.66l-4.54,1.95a43.5,43.5,0,0,0-3.35-11.56Zm18.52,1.89a64.55,64.55,0,0,1-4.32,11.72l-3.94-2.06a44.68,44.68,0,0,0,3.73-11.66Zm2.7,12.26a49.16,49.16,0,0,1,9.4,7.93L291,147.1a47.36,47.36,0,0,0-9.51-8.32Zm1.68-13.5a52.9,52.9,0,0,1,9.45,7.93l-3.67,4.54c-4-4.27-4.27-4.48-9.56-8.32Z"/><path class="cls-1" d="M320,140.24a55.36,55.36,0,0,0-6.53.32v-6a48.8,48.8,0,0,0,6.53.32H332.1v-5.45h-8.21a61.13,61.13,0,0,0-6.21.21v-5.94A43.16,43.16,0,0,0,324,124h8.15v-1.57a28.73,28.73,0,0,0-.32-4.75h6.64a23.58,23.58,0,0,0-.32,4.86V124h4.69a41.88,41.88,0,0,0,5.94-.33v4.21a34.14,34.14,0,0,0,5.46-7.56l5.72,3.3c-.59.7-.75.86-1.51,1.78a88.94,88.94,0,0,1-8.75,9.45h5.89a45.65,45.65,0,0,0,6.15-.32v6a55.87,55.87,0,0,0-6.42-.32H343.39a108,108,0,0,1-11.4,7.83v2.43A98.26,98.26,0,0,0,346.41,146a31.83,31.83,0,0,0,5.24-2.54l4.54,5a10.44,10.44,0,0,1-1,.38,17.58,17.58,0,0,0-1.84.75c-1.67.65-6.85,2.43-9.55,3.3-4.16,1.24-5.62,1.62-11.78,3V159c0,1.83,1,2.05,10.7,2.05,5.61,0,7.88-.27,8.69-1.13s1-2.43,1.13-7.19a19.73,19.73,0,0,0,5.95,2.22c-.54,6.8-1.19,8.91-3.14,10.2-1.78,1.19-5.24,1.52-15.6,1.52-12,0-13.77-.76-13.77-5.89v-9.34c-3.73,1.83-6,2.86-10.16,4.59a18.75,18.75,0,0,0-3.56-5.35,92.15,92.15,0,0,0,21.82-10.42Zm21.39-5.4a68.62,68.62,0,0,0,5.88-5.35c-1.08-.1-2-.1-4-.1H338.1v5.45Z"/><path class="cls-1" d="M394.85,118.32a35,35,0,0,0-.38,5.56c0,8.69,1.41,14.42,5.29,21.27a36.05,36.05,0,0,0,8.54,10.26,35.69,35.69,0,0,0,8.37,5.84,19.77,19.77,0,0,0-4.21,6c-6.59-4.59-9.89-7.67-13.72-12.74a42.57,42.57,0,0,1-7.18-14.75,38.57,38.57,0,0,1-4.22,10.91A37.68,37.68,0,0,1,379,161a45.61,45.61,0,0,1-8.37,6.21,16.22,16.22,0,0,0-4.21-5.56c5.5-2.92,8.37-5.13,11.77-9,7-8,9.88-16.85,9.88-29.81a33.71,33.71,0,0,0-.22-4.53Z"/><path class="cls-1" d="M436.54,139.21c-.16.65-.22.71-.43,1.68a55.73,55.73,0,0,1-9.08,21,23.22,23.22,0,0,0-6.26-3.46c3.56-4.26,5.51-8,7.56-14.2a27.68,27.68,0,0,0,1.57-6.64ZM442,124.63a29.9,29.9,0,0,0-.32-5.56H449a44.87,44.87,0,0,0-.22,5.73v2.86h12.37a38.48,38.48,0,0,0,7-.38v6.64a55.3,55.3,0,0,0-6.86-.27H448.74v26.19a47.1,47.1,0,0,0,.27,6h-7.34a37.54,37.54,0,0,0,.32-6.1V133.65H430a54.6,54.6,0,0,0-6.8.27v-6.64a38,38,0,0,0,6.91.38H442Zm18.52,12.91a34.78,34.78,0,0,0,1.89,6.05c2.43,6.53,4.43,10.31,7.67,14.52a40.14,40.14,0,0,0-6.21,3.78c-4.1-6.53-6.32-11.61-8.85-20.19a15.16,15.16,0,0,0-.87-2.54Z"/><path class="cls-1" d="M476.34,138.51a52.15,52.15,0,0,0,8.74.38h28.79a52.15,52.15,0,0,0,8.74-.38V146c-2.15-.27-2.75-.27-8.8-.27H485.14c-6.05,0-6.64,0-8.8.27Z"/><path class="cls-1" d="M555.45,120.69a16.46,16.46,0,0,0-1.41,3.89,319,319,0,0,1-10.69,30.78,214.36,214.36,0,0,0,22.46-2.75c-.59-1.3-1.24-2.49-2.53-4.92a67.16,67.16,0,0,0-5.13-8.58l6.1-2.38a126.78,126.78,0,0,1,13.07,25l-6.54,3.4a55,55,0,0,0-2.59-6.69l-1.94.43c-5.46,1.13-14.42,2.27-30.57,3.83a29.45,29.45,0,0,0-4.91.65l-1-7.29h1.4c1.08,0,2.38-.05,4.64-.16,2.87-6.8,5-12.91,7.83-21.76,2.54-7.94,3.57-11.77,4-15Z"/><path class="cls-1" d="M583.5,4.5a33,33,0,0,1,33,33v225a33,33,0,0,1-33,33H37.5a33,33,0,0,1-33-33V37.5a33,33,0,0,1,33-33h546m0-4.5H37.5A37.5,37.5,0,0,0,0,37.5v225A37.5,37.5,0,0,0,37.5,300h546A37.5,37.5,0,0,0,621,262.5V37.5A37.5,37.5,0,0,0,583.5,0Z"/></g></g></svg>