<svg xmlns="http://www.w3.org/2000/svg" width="436.38" height="56.83" viewBox="0 0 436.38 56.83"><defs><style>.cls-1,.cls-7{fill:#fff;}.cls-1{stroke:#fff;stroke-width:1.22px;}.cls-2{fill:#f09dc1;}.cls-3{fill:#009e5a;}.cls-4{fill:#c28600;}.cls-5{fill:#fff362;}.cls-6{fill:#00b8ee;}</style></defs><title>footer_logo</title><g id="レイヤー_2" data-name="レイヤー 2"><g id="レイヤー_1-2" data-name="レイヤー 1"><path class="cls-1" d="M56.22,28.41A27.81,27.81,0,1,1,28.42.61,27.81,27.81,0,0,1,56.22,28.41Z"/><path class="cls-2" d="M56.22,28.41A27.81,27.81,0,1,1,28.42.61,27.81,27.81,0,0,1,56.22,28.41Z"/><path class="cls-3" d="M28.42,5.21C24.3,5.21,21,15.6,21,28.41s3.34,23.21,7.46,23.21,7.45-10.39,7.45-23.21S32.53,5.21,28.42,5.21Zm0,41.2c-3.52,0-6.38-8.06-6.38-18s2.86-18,6.38-18,6.37,8.05,6.37,18S31.94,46.41,28.42,46.41Z"/><path class="cls-4" d="M5.21,28.41c0,4.12,10.39,7.46,23.21,7.46s23.2-3.34,23.2-7.46S41.23,21,28.42,21,5.21,24.3,5.21,28.41Zm41.2,0c0,3.53-8.06,6.39-18,6.39s-18-2.86-18-6.39S18.48,22,28.42,22,46.41,24.89,46.41,28.41Z"/><path class="cls-5" d="M12,12C9.1,14.92,14.08,24.62,23.14,33.69S41.91,47.74,44.82,44.82,42.75,32.21,33.69,23.14,14.92,9.09,12,12ZM41.14,41.14c-2.5,2.49-10.21-1.19-17.23-8.21S13.2,18.18,15.7,15.69s10.2,1.19,17.23,8.21S43.63,38.64,41.14,41.14Z"/><path class="cls-6" d="M23.14,23.14C14.08,32.21,9.1,41.91,12,44.82s12.61-2.07,21.68-11.13S47.74,14.92,44.82,12,32.21,14.08,23.14,23.14Zm.77.76c7-7,14.73-10.7,17.23-8.21S40,25.9,32.93,32.93s-14.74,10.7-17.24,8.21S16.88,30.93,23.91,23.9Z"/><path class="cls-7" d="M23.37,26.7h1.06V28l1.11-1.3h1.4L25.7,28,27,30.13H25.7L25,28.72l-.55.57v.84H23.37Z"/><path class="cls-7" d="M27.35,26.7H30v.74H28.42V28h1.32v.7H28.42v1.4H27.35Z"/><path class="cls-7" d="M30.35,29l1-.07a.74.74,0,0,0,.13.38.59.59,0,0,0,.47.2.52.52,0,0,0,.35-.1.33.33,0,0,0,.12-.25.31.31,0,0,0-.12-.24,1.36,1.36,0,0,0-.54-.2,2.31,2.31,0,0,1-1-.41.84.84,0,0,1-.3-.66.89.89,0,0,1,.15-.5,1,1,0,0,1,.47-.37,2.09,2.09,0,0,1,.84-.14,1.68,1.68,0,0,1,1,.25,1,1,0,0,1,.41.77l-1,.06a.5.5,0,0,0-.17-.33.48.48,0,0,0-.35-.11.39.39,0,0,0-.28.08.23.23,0,0,0-.09.19.22.22,0,0,0,.08.15,1,1,0,0,0,.35.12,4.72,4.72,0,0,1,1,.3,1.08,1.08,0,0,1,.43.38,1,1,0,0,1,.14.51,1.11,1.11,0,0,1-.18.61,1.06,1.06,0,0,1-.51.42,2,2,0,0,1-.83.15,1.73,1.73,0,0,1-1.21-.34A1.34,1.34,0,0,1,30.35,29Z"/><path class="cls-7" d="M411.28,8.74h2.36A18.39,18.39,0,0,0,416,8.62v3.06a19.64,19.64,0,0,0-2.36-.12h-1.5a12.5,12.5,0,0,0,2,2.54,11.31,11.31,0,0,0,2.44,1.76A15.44,15.44,0,0,0,415.1,19a13.09,13.09,0,0,1-3.92-4.64c0,.64.06,1.28.06,1.78v1.42a23,23,0,0,0,.12,2.54H408.2a23.53,23.53,0,0,0,.12-2.54V16.36c0-.54,0-1.14.06-1.9a13.14,13.14,0,0,1-4.17,4.48,12.69,12.69,0,0,0-1.62-2.7v1.28a23.28,23.28,0,0,0,.12,2.58h-3.16a23.79,23.79,0,0,0,.12-2.58v-2.7c0-.44,0-1.22.06-1.92a10.73,10.73,0,0,1-1.56,3.22,15.87,15.87,0,0,0-1-3.4,13.81,13.81,0,0,0,2.26-5.3H399a5.5,5.5,0,0,0-1.28.1v-3a5.39,5.39,0,0,0,1.28.1h.66V3.34a14,14,0,0,0-.12-2.09h3.18a14.32,14.32,0,0,0-.12,2.09v1.3H403a4.26,4.26,0,0,0,.92-.08V6A12.53,12.53,0,0,0,405,1.75l2.78.7c-.08.27-.14.5-.3,1.19,0,.13,0,.16-.12.5h1V3.3a14.37,14.37,0,0,0-.12-2h3.2a14,14,0,0,0-.12,2v.84h1.82A18,18,0,0,0,415.44,4V7.08A19.88,19.88,0,0,0,413.08,7h-1.8Zm-8.69,7.4a11.84,11.84,0,0,0,2.62-1.92,11.51,11.51,0,0,0,2.11-2.66h-.66a15,15,0,0,0-2.37.14V10.58c-.32.78-.66,1.72-.86,2.4a6.7,6.7,0,0,1-.88-1.68c0,.54,0,1.3,0,2Zm1.7-7.54a7.46,7.46,0,0,0,1,.12,10,10,0,0,0-1.45-1.24v0a4.08,4.08,0,0,0-.87-.08h-.36a8.15,8.15,0,0,0,1.64,2.64ZM406.46,7a12.54,12.54,0,0,1-.82,1.76c.42,0,.62,0,1,0h1.66V7Z"/><path class="cls-7" d="M420.51,11.72c-.72,0-1.58,0-2.2.08V8.92a21.48,21.48,0,0,0,2.28.1h4.53a20.9,20.9,0,0,0,2.24-.1V11.8c-.62,0-1.48-.08-2.23-.08h-.77v3.7c1.26-.22,2-.38,3.74-.78v2.84c-3.74.86-5.67,1.22-8.67,1.66-.66.1-1,.14-1.38.24l-.44-3.14a28,28,0,0,0,3.74-.36V11.72ZM433.92,4.3a11.08,11.08,0,0,0,1.94-.11V7.24a22,22,0,0,0-2.6-.12H431a23.27,23.27,0,0,0,1,6.14,8.74,8.74,0,0,0,1.4,2.84,10.62,10.62,0,0,0,.56-2.92,11.31,11.31,0,0,0,2.48,1.48,10.85,10.85,0,0,1-1.14,4.12,2,2,0,0,1-1.7,1.12c-1.16,0-2.48-1.16-3.5-3.1-1.2-2.26-1.9-5.34-2.16-9.68h-7.63c-.94,0-1.72,0-2.6.12V4.18a22.68,22.68,0,0,0,2.6.12h7.53a21.65,21.65,0,0,0-.16-2.82h3.3a7.17,7.17,0,0,0-.08,1.17c0,.19,0,.61,0,1.65h1.84a10.2,10.2,0,0,0-1.52-1.73l2.28-1.16a17,17,0,0,1,1.8,2.09l-1.56.8Z"/><path class="cls-7" d="M401.45,28.44a18.19,18.19,0,0,1-2.8,1.36,13.08,13.08,0,0,0-1.5-2.94,15.24,15.24,0,0,0,4.6-2.2,12,12,0,0,0,3.37-3.25h3.24a11.64,11.64,0,0,0,3.38,3.09,17.28,17.28,0,0,0,4.78,2.22,13.39,13.39,0,0,0-1.4,3.16,18.61,18.61,0,0,1-3-1.46v1.14a17.3,17.3,0,0,0-1.9-.08h-6.91a18.63,18.63,0,0,0-1.88.08Zm-.9,5a20.86,20.86,0,0,0-2.44.12V30.48c.7.06,1.52.1,2.44.1h12.57c1,0,1.7,0,2.42-.1v3.06a20.5,20.5,0,0,0-2.42-.12h-2a43.88,43.88,0,0,1,4.22,5.16l-2.76,1.7-.94-1.48c-2.32.26-2.32.26-3.42.36-1.32.14-6.73.6-7.57.64s-1.26.12-1.76.2l-.38-3.34c.52,0,.88.06,1.32.06l1.4,0A24.27,24.27,0,0,0,403,33.42Zm9.05-6.64a14.78,14.78,0,0,1-2.8-2.66A13.78,13.78,0,0,1,404,26.78Zm-3.08,6.64a25.15,25.15,0,0,1-1.74,3.16c2.92-.12,2.92-.12,5-.3-.56-.68-.84-1-1.7-1.92l2.36-.94Z"/><path class="cls-7" d="M423.21,38a19.61,19.61,0,0,0,.08,2.12h-3.2a15.26,15.26,0,0,0,.12-2.2V33.82a14,14,0,0,1-1.78,1.26,11.2,11.2,0,0,0-1.28-3,12,12,0,0,0,3.12-2.28A8.81,8.81,0,0,0,422.35,27h-2.82a13.51,13.51,0,0,0-1.74.08v-3a12.09,12.09,0,0,0,1.54.08h.9V22.73a9.36,9.36,0,0,0-.12-1.52h3.18a8.68,8.68,0,0,0-.1,1.55v1.46h.55a8.54,8.54,0,0,0,1.16-.06l1.3,1.38a6.83,6.83,0,0,0-.46.94,16.5,16.5,0,0,1-1.81,3.26,9.9,9.9,0,0,0,3.21,2.4,14.09,14.09,0,0,0-1.5,2.86,9.2,9.2,0,0,1-2.43-2.06Zm8.83-1.4h1.6a21.18,21.18,0,0,0,2.44-.1V39.6c-.84-.08-1.64-.12-2.42-.12h-6.5a22.92,22.92,0,0,0-2.34.12V36.46a21.51,21.51,0,0,0,2.4.1h1.66V29.24h-1c-.68,0-1.32,0-2,.1v-3.1a13.17,13.17,0,0,0,2,.1h1v-2.7a17.57,17.57,0,0,0-.14-2.37h3.42a16.6,16.6,0,0,0-.12,2.37v2.7h1.58a13.14,13.14,0,0,0,2-.1v3.1c-.66-.06-1.28-.1-2-.1H432Z"/><path class="cls-7" d="M84.46,15.34a36.92,36.92,0,0,1-3,12.47,25.5,25.5,0,0,1-6,8.12,22.88,22.88,0,0,1-4.55,3.37,22.2,22.2,0,0,0-4.51-5.4,21.17,21.17,0,0,0,5.24-3.78,18.83,18.83,0,0,0,5.77-10.44,29.15,29.15,0,0,0,.73-4.34H73.86a46.72,46.72,0,0,0-5.48.24V9a46.25,46.25,0,0,0,5.48.24h4.67c0-1.42,0-2.47,0-3.2a40.15,40.15,0,0,0-.24-4.8h6.86A31.5,31.5,0,0,0,85,5.31c0,1.7,0,2.72-.08,3.89H91A53.15,53.15,0,0,0,96.48,9a43,43,0,0,0-.2,4.75l-.16,18.08c0,.77.16.89,1.26.89h.16a3.37,3.37,0,0,1,.57,0c.53,0,.61-.28.81-1.91a58.63,58.63,0,0,0,.41-6.9,17.81,17.81,0,0,0,5.8,2.11c-.28,5.73-.6,8-1.21,9.67-.86,2.15-2.56,2.8-7.6,2.8-3.65,0-5.36-.41-6-1.54a4.88,4.88,0,0,1-.45-2.6L90,15.34Z"/><path class="cls-7" d="M113.79,11.44a68.26,68.26,0,0,1-1.7,12.27l-5.28-2a39.5,39.5,0,0,0,1.91-11.41Zm8.74,12.23a77.44,77.44,0,0,0-2-8.21c-.17,8.16-.69,11.33-2.48,15.31a24.63,24.63,0,0,1-6,8.41A15.88,15.88,0,0,0,107.58,34a18.33,18.33,0,0,0,4.63-5.56c1.46-2.68,2.31-6.7,2.36-11.13l.12-10.73V6.32a49.2,49.2,0,0,0-.29-5.16h6.38a39.87,39.87,0,0,0-.2,5.32V12l3.29-1.59c1.13,2.85,1.54,4,2.31,6.5V8.07a35.47,35.47,0,0,0-.24-5.28h6.58A33.51,33.51,0,0,0,132.27,8v3.82l3.09-1.79c1.22,2.72,1.87,4.3,2.76,6.82V6.73a41.74,41.74,0,0,0-.28-5.61h6.54a41.73,41.73,0,0,0-.29,5.65V33.13a42.12,42.12,0,0,0,.29,5.77h-6.54a44.57,44.57,0,0,0,.28-5.85V21.27l-3.37,2.19a69.69,69.69,0,0,0-2.48-8.37V30.25a36.68,36.68,0,0,0,.29,5.68H125.9a41.63,41.63,0,0,0,.28-5.68V21.63Z"/><path class="cls-7" d="M152.35,26.43a30.11,30.11,0,0,1-2.81,2.35,24.47,24.47,0,0,0-2.35-6.54,24.63,24.63,0,0,0,5.44-4.79,18.86,18.86,0,0,0,3.25-5.16H151.7a26.53,26.53,0,0,0-3.37.16v-6a20.13,20.13,0,0,0,3,.17h1V3.8A24.19,24.19,0,0,0,152.1.72h6.38a24.55,24.55,0,0,0-.2,3.12V6.65a10.44,10.44,0,0,0,2.07-.13L163,10c-.29.57-.33.69-1,2.23a36,36,0,0,1-3.21,6.26,16.25,16.25,0,0,0,3.21,2.8c0-.81-.08-.94-.12-1.59a38.61,38.61,0,0,0,4.27.17h14.7a36.65,36.65,0,0,0,4.35-.17c-.12,1.43-.17,2.44-.17,4.51V34.63a29.53,29.53,0,0,0,.21,4.31h-6.22V37.56H167.9V38.9h-6a30.52,30.52,0,0,0,.2-4.31v-12a16.85,16.85,0,0,0-2,4.63,25.53,25.53,0,0,1-1.86-2v9.38a33.1,33.1,0,0,0,.2,4.47h-6.34c.12-1.38.21-3,.21-4.59Zm9.22-24.82c1.42.12,2.88.2,4.83.2h14.74a34.32,34.32,0,0,0,4.68-.2v5.6a26.56,26.56,0,0,0-4-.2H165.55a26.49,26.49,0,0,0-4,.2ZM163.43,11a19.73,19.73,0,0,0-.16-2.84c1.22.08,2.28.12,4.11.12h12.71c1.66,0,2.64,0,3.9-.12a18.46,18.46,0,0,0-.16,2.8v4.79a19.26,19.26,0,0,0,.16,2.85c-1.14-.08-2.16-.12-4-.12H167.33c-1.78,0-2.92,0-4.06.12a19.38,19.38,0,0,0,.16-2.81ZM168,26.47h2.89V24.56H168Zm0,6.21h2.89V30.77H168Zm1.18-18.36h8.61v-1.7h-8.61Zm7.07,12.15h2.88V24.56h-2.88Zm0,6.21h2.88V30.77h-2.88Z"/><path class="cls-7" d="M199.84,33.86c0,2,.08,3.74.2,5.16h-6.42a48.82,48.82,0,0,0,.25-5.16V25.78a41.89,41.89,0,0,1-3.58,2.84,25.61,25.61,0,0,0-2.23-6.5,27.89,27.89,0,0,0,5.44-4.34,21,21,0,0,0,3.94-5.57h-4.63a31.05,31.05,0,0,0-3.53.2V6.48a23,23,0,0,0,3.16.17h1.47V3.84a25.88,25.88,0,0,0-.21-3H200a17.13,17.13,0,0,0-.2,3.12V6.65h.4a14,14,0,0,0,2.36-.13l2.68,2.68a11.81,11.81,0,0,0-.94,2,36,36,0,0,1-3.25,6.18,20.5,20.5,0,0,0,4.07,3.82v-8a12.9,12.9,0,0,0-.21-2.68h6.38a39.06,39.06,0,0,0-.2,4.91V32.28h2.44V6.85a43.2,43.2,0,0,0-.25-5.44h6.54a37.28,37.28,0,0,0-.24,5.44v6.3h2.47a26.24,26.24,0,0,0,4-.21v6.22a26,26,0,0,0-4-.21h-2.47V32.28h3.08a28.59,28.59,0,0,0,4.23-.21v6.14c-1.67-.17-3.66-.25-5.48-.25H206.94c-1.86,0-3.85.08-5.52.25v-6.1a23.42,23.42,0,0,0,3.33.17h.41V22.65A31.41,31.41,0,0,0,203,27.12,19,19,0,0,1,199.84,24Z"/><path class="cls-7" d="M252.73,9.57V6.89a28.79,28.79,0,0,0-.21-4.55h7.32c-.17,1.22-.17,1.22-.21,7.23h1.59a36.39,36.39,0,0,0,5.85-.28v6.94c-1.95-.16-3.09-.2-5.73-.2h-1.79c-.08,3.21-.12,4.1-.28,5.64-.61,5.49-2.44,9.18-6,12.27-2.2,1.91-4.31,3.05-8.41,4.59a19.85,19.85,0,0,0-4.43-6.21c3.94-1.18,6-2.12,7.84-3.58,2.76-2.19,3.94-4.83,4.26-9.38,0-.73,0-1,.09-3.33H244v4.55a36.85,36.85,0,0,0,.16,4.18h-7.44A29,29,0,0,0,237,20.5V16H235.5a48.75,48.75,0,0,0-5.72.2V9.29a36.32,36.32,0,0,0,5.85.28H237v-3a26.48,26.48,0,0,0-.25-4.3h7.44A29.64,29.64,0,0,0,244,6.44V9.57Z"/><path class="cls-7" d="M271.05,15.91a58.54,58.54,0,0,0,8.33.36H298.8a67.55,67.55,0,0,0,8.32-.36v7.84a76,76,0,0,0-8.37-.25H279.42a83.14,83.14,0,0,0-8.37.25Z"/><path class="cls-7" d="M344.34,13.51c-1,.49-1.06.53-2,1A72.74,72.74,0,0,1,323,20.78v4.55c0,2.56,0,2.56.16,3.13.25.77.77,1.1,1.95,1.26a36.22,36.22,0,0,0,4.31.24c2.31,0,5.48-.16,7.92-.4a36.06,36.06,0,0,0,7-1.3l.29,7.51c-1,0-2.15.08-4.18.28-4.07.37-8.61.61-11.86.61-5.57,0-8.37-.48-10.24-1.78A6,6,0,0,1,316,30.49a32.87,32.87,0,0,1-.16-4.31V8.51a42.06,42.06,0,0,0-.24-5.4h7.59A32.63,32.63,0,0,0,323,8.56V14a56.72,56.72,0,0,0,15.48-5.81,25.21,25.21,0,0,0-2.77-4.92l4-1.29a27.56,27.56,0,0,1,3.37,6.21l-2,.73ZM345.39.19a28.64,28.64,0,0,1,3.37,6.05L344.9,7.66a31.49,31.49,0,0,0-3.33-6.21Z"/><path class="cls-7" d="M383.25,37.88A64.89,64.89,0,0,0,371.6,26.35a44.2,44.2,0,0,1-15,11.13,21.19,21.19,0,0,0-4.55-6.42,38.25,38.25,0,0,0,13.16-8.21,32.49,32.49,0,0,0,8.16-11.94l-10.56.16a48.3,48.3,0,0,0-6.45.41l-.21-7.23a30.62,30.62,0,0,0,4.27.28c.32,0,1.09,0,2.27,0l13.89-.2a7.36,7.36,0,0,0,3.25-.45l3.58,3.66A6.24,6.24,0,0,0,382,9.9a47.91,47.91,0,0,1-6,11c4.92,3.54,6.58,5,12.92,11Z"/><path class="cls-7" d="M66.25,50.08c0-.34,0-.6,0-1.48a8.35,8.35,0,0,1-1,1.39,7.56,7.56,0,0,0-.58-1.57A10.59,10.59,0,0,0,66.84,45a8.2,8.2,0,0,0,.49-1.69l1.5.37a20.64,20.64,0,0,1-1.16,2.85v7.31a11.63,11.63,0,0,0,.09,1.5h-1.6a8.68,8.68,0,0,0,.09-1.52ZM72.91,46a12.67,12.67,0,0,0-2.57-1.64l1-1A15.57,15.57,0,0,1,74.07,45l-1,1h2a12.79,12.79,0,0,0,1.54-.08v1.46c-.45,0-.95-.07-1.5-.07H73.15v2.28h1.61a11.85,11.85,0,0,0,1.44-.08v1.43c-.42,0-.88-.07-1.43-.07H73.15v2.73h2.24a14,14,0,0,0,1.55-.07v1.45c-.47,0-.91-.06-1.56-.06H69.64c-.64,0-1.07,0-1.55.06V53.48a13,13,0,0,0,1.49.07h2.11V50.82H70.31c-.54,0-1,0-1.43.07V49.46a11.43,11.43,0,0,0,1.43.08h1.38V47.26H70c-.55,0-1,0-1.49.07V45.87A8.34,8.34,0,0,0,70,46Z"/><path class="cls-7" d="M95,48.69c-1.58.26-1.58.26-3.17.47a6.2,6.2,0,0,0-.6-1.31,35.29,35.29,0,0,0,5.32-.74,9.68,9.68,0,0,0,2.79-1l1.21,1.17a8.07,8.07,0,0,0-1,.27c-1.51.45-2.23.65-3.1.83V49.8l4.44-.48a10.33,10.33,0,0,0,1.4-.25l.15,1.48h-.24c-.23,0-.84,0-1.19.08l-4.56.49v2.16c0,.32.06.4.36.48a12.16,12.16,0,0,0,1.59.08,4.79,4.79,0,0,0,2.13-.25c.22-.17.28-.49.34-1.74a4.41,4.41,0,0,0,1.42.52A4.62,4.62,0,0,1,102,54a1.47,1.47,0,0,1-1.16,1,12.6,12.6,0,0,1-2.64.15c-2.74,0-3.2-.21-3.2-1.47V51.27l-2.82.31a10.29,10.29,0,0,0-1.42.23l-.14-1.47h.26c.26,0,.82,0,1.17-.06L95,50Zm.66-4.54a3.74,3.74,0,0,0-.07-.75h1.6a3.13,3.13,0,0,0-.07.75v.42h3.59a14.36,14.36,0,0,0,1.44,0,6.06,6.06,0,0,0,0,1v1a7.49,7.49,0,0,0,0,1h-1.41V45.9H92.33v1.57H90.9a5,5,0,0,0,.07-1v-1a6.62,6.62,0,0,0,0-1,13.9,13.9,0,0,0,1.43,0h3.32Z"/><path class="cls-7" d="M117.7,45.08a9.25,9.25,0,0,0-1.19.05V43.74a13.54,13.54,0,0,0,1.39.06h3.5a9.75,9.75,0,0,0,1.39-.06v1.39a7.49,7.49,0,0,0-1.1-.05v1.3h.09c.62,0,.91,0,1.26-.05v1.4a10.65,10.65,0,0,0-1.24,0h-.11v1.25c0,.46,0,.66,0,1h1.07a3.67,3.67,0,0,0-.07.82v.4h2.6a11.31,11.31,0,0,0,1.54-.07v1.41c-.39,0-.86-.06-1.51-.06h-2.63v1.18h3.67a13.93,13.93,0,0,0,1.52-.06V55a14.17,14.17,0,0,0-1.64-.08h-8.39a13.53,13.53,0,0,0-1.6.08V53.57a13.93,13.93,0,0,0,1.49.06h3.5V52.45h-2.45c-.61,0-1.07,0-1.49.06v-1.4a9.05,9.05,0,0,0,1.34.06h2.6v-.39c0-.14,0-.23,0-.42h-1a9.73,9.73,0,0,0,.08-1.42V47.68h-1.27a5.11,5.11,0,0,1-.47,1.64A4.57,4.57,0,0,1,117.19,51a4.43,4.43,0,0,0-1-1.08,3.05,3.05,0,0,0,1.49-2.21h-.19a8.67,8.67,0,0,0-1.24.06V46.31a9.17,9.17,0,0,0,1.28.07h.28c0-.11,0-.54,0-1.3Zm1.47,0v.4c0,.33,0,.62,0,.9h1.17v-1.3Zm4.27,3.61a7.17,7.17,0,0,0,.07-1V45.1a7.37,7.37,0,0,0-.07-1.06h1.48a6.57,6.57,0,0,0,0,1v2.73a7.72,7.72,0,0,0,0,.93Zm4.08.43c0,1.12-.35,1.37-1.88,1.37a10.34,10.34,0,0,1-1.08-.06,4.23,4.23,0,0,0-.38-1.41,11.12,11.12,0,0,0,1.38.11c.5,0,.53,0,.53-.3V44.57a7,7,0,0,0-.06-1.12h1.56a8.54,8.54,0,0,0-.07,1.22Z"/><path class="cls-7" d="M144.23,49.48a12.73,12.73,0,0,1-1.89,1.64,3.81,3.81,0,0,0-.88-1.26,11.45,11.45,0,0,0,2.18-1.78,8.46,8.46,0,0,0,1.55-2h-1.83a13.22,13.22,0,0,0-1.55.08V44.67a11.6,11.6,0,0,0,1.56.08h2.45a5.84,5.84,0,0,0,.37-1.4l1.63.18a6.55,6.55,0,0,0-.29.73c-.05.15-.08.22-.18.49H152a10.78,10.78,0,0,0,1.52-.08v1.45A12.92,12.92,0,0,0,152,46h-5.23c-.23.43-.39.69-.63,1.09h4.44a12.11,12.11,0,0,0,1.36-.05,14.24,14.24,0,0,0-.06,1.48V54a1.12,1.12,0,0,1-.49,1.06,3.55,3.55,0,0,1-1.52.2l-1.2,0a3.94,3.94,0,0,0-.34-1.36,11.71,11.71,0,0,0,1.51.12c.57,0,.65-.06.65-.37v-1h-4.86v1.11c0,.7,0,1.16.07,1.62h-1.54a14.75,14.75,0,0,0,.08-1.63Zm6.25-1.1h-4.86v.95h4.86Zm-4.86,2.11v1h4.86v-1Z"/><path class="cls-7" d="M172.31,51.85c-.06.17-.08.23-.14.44a9.9,9.9,0,0,1-1.32-1.83c.07.88.08,1.07.08,1.48v2.15a7.2,7.2,0,0,0,.08,1.35H169.5a8,8,0,0,0,.09-1.38V52.38c0-.52,0-1.13,0-1.56A8.94,8.94,0,0,1,168,53.75a3.74,3.74,0,0,0-.66-1.34,8.75,8.75,0,0,0,1.41-1.92,12.24,12.24,0,0,0,.68-1.47h-.67a7,7,0,0,0-1.17.06V47.7a5.69,5.69,0,0,0,1.17.07h.87V44.69a7.17,7.17,0,0,0-.07-1.28H171a6.86,6.86,0,0,0-.07,1.26v3.1h.61a6.4,6.4,0,0,0,1-.05v1.35a7.36,7.36,0,0,0-1,0h-.47a6.88,6.88,0,0,0,1.68,2,6.21,6.21,0,0,0-.37.72,8.35,8.35,0,0,0,1.2-.18l3-.67v-6a8.26,8.26,0,0,0-.08-1.5h1.57a9.89,9.89,0,0,0-.07,1.49v5.64a8.14,8.14,0,0,0,1.1-.32l.27,1.48a9.41,9.41,0,0,0-1.24.23L178,52v1.9a10.25,10.25,0,0,0,.07,1.53h-1.57a8.76,8.76,0,0,0,.08-1.54V52.29l-2.76.63c-.57.13-1,.23-1.23.32Zm-3.76-7.72a16.27,16.27,0,0,1,.8,2.81l-1.1.46a10.41,10.41,0,0,0-.8-2.78Zm4.46.45a16,16,0,0,1-1,2.82l-.95-.49a10.68,10.68,0,0,0,.9-2.81Zm.65,3a11.8,11.8,0,0,1,2.26,1.92l-.88,1a10.9,10.9,0,0,0-2.29-2Zm.4-3.25a12.46,12.46,0,0,1,2.28,1.92l-.88,1.09a10.91,10.91,0,0,0-2.31-2Z"/><path class="cls-7" d="M194.58,48.85a11.38,11.38,0,0,0-1.57.08V47.47a11.73,11.73,0,0,0,1.57.08h2.92V46.23h-2a13.89,13.89,0,0,0-1.5.06V44.86a11.28,11.28,0,0,0,1.51.07h2v-.37a7.11,7.11,0,0,0-.07-1.15H199a5.32,5.32,0,0,0-.08,1.17v.35h1.13a10.92,10.92,0,0,0,1.43-.07v1a8.06,8.06,0,0,0,1.31-1.82l1.38.79-.37.43a21.87,21.87,0,0,1-2.1,2.28h1.42a11.05,11.05,0,0,0,1.48-.08v1.46a11.63,11.63,0,0,0-1.55-.08h-2.86a27,27,0,0,1-2.74,1.88v.59A25.31,25.31,0,0,0,201,50.24a7.86,7.86,0,0,0,1.26-.61l1.09,1.19-.25.09-.44.19c-.4.15-1.65.58-2.3.79-1,.3-1.35.39-2.83.73v.74c0,.44.23.49,2.57.49,1.35,0,1.9-.06,2.1-.27s.24-.59.27-1.73a4.57,4.57,0,0,0,1.43.53c-.13,1.64-.29,2.15-.76,2.46s-1.26.36-3.75.36c-2.89,0-3.32-.18-3.32-1.41V51.54c-.89.44-1.44.69-2.44,1.1a4.36,4.36,0,0,0-.86-1.28A22.6,22.6,0,0,0,198,48.85Zm5.15-1.3a16.06,16.06,0,0,0,1.41-1.29,8.11,8.11,0,0,0-1,0H199v1.32Z"/><path class="cls-7" d="M225.18,43.57a8.86,8.86,0,0,0-.09,1.34A9.38,9.38,0,0,0,226.36,50a8.67,8.67,0,0,0,2.06,2.47,8.18,8.18,0,0,0,2,1.4,4.85,4.85,0,0,0-1,1.45,12.65,12.65,0,0,1-3.3-3.07,10.06,10.06,0,0,1-1.73-3.55,9.25,9.25,0,0,1-1,2.63,9,9,0,0,1-2,2.49,10.52,10.52,0,0,1-2,1.5,3.82,3.82,0,0,0-1-1.34,8.71,8.71,0,0,0,2.84-2.17,10.07,10.07,0,0,0,2.38-7.18,8.06,8.06,0,0,0-.06-1.09Z"/><path class="cls-7" d="M247.79,48.6c0,.16,0,.17-.11.4a13.28,13.28,0,0,1-2.18,5,5.52,5.52,0,0,0-1.51-.83,9.3,9.3,0,0,0,1.82-3.42,6.35,6.35,0,0,0,.38-1.6Zm1.31-3.51a6.79,6.79,0,0,0-.08-1.34h1.76a10.74,10.74,0,0,0-.05,1.38v.69h3a9,9,0,0,0,1.68-.09v1.6a11.45,11.45,0,0,0-1.65-.07h-3v6.31a11.46,11.46,0,0,0,.06,1.45H249a8.4,8.4,0,0,0,.08-1.47V47.26h-2.89a11.22,11.22,0,0,0-1.63.07v-1.6a8.87,8.87,0,0,0,1.66.09h2.86Zm4.46,3.11a8,8,0,0,0,.45,1.45,12,12,0,0,0,1.85,3.5,8.84,8.84,0,0,0-1.49.91,17.18,17.18,0,0,1-2.14-4.86,3.3,3.3,0,0,0-.2-.61Z"/><path class="cls-7" d="M269.94,48.43a12.6,12.6,0,0,0,2.11.09H279a12.6,12.6,0,0,0,2.11-.09v1.81a13.24,13.24,0,0,0-2.12-.07h-6.9a13.24,13.24,0,0,0-2.12.07Z"/><path class="cls-7" d="M301.56,44.14a3.59,3.59,0,0,0-.34.94,75.18,75.18,0,0,1-2.58,7.41,50.71,50.71,0,0,0,5.41-.67c-.14-.31-.3-.59-.61-1.18a17.85,17.85,0,0,0-1.23-2.07l1.46-.57a30.19,30.19,0,0,1,3.15,6l-1.57.82a13.29,13.29,0,0,0-.63-1.61l-.46.1c-1.32.28-3.48.55-7.36.93a7.48,7.48,0,0,0-1.19.15l-.23-1.75h.34l1.12,0c.69-1.64,1.2-3.11,1.88-5.24a20.73,20.73,0,0,0,.95-3.6Z"/><path class="cls-7" d="M325.72,43.63a21.16,21.16,0,0,0,.86,4.07c.85-.31.85-.31,3.37-1.14a2.78,2.78,0,0,0,.49-.2L331,48a32.31,32.31,0,0,0-4.29,1.25c-1.9.7-2.85,1.53-2.85,2.47s.89,1.35,3,1.35a14.18,14.18,0,0,0,4.2-.53l.14,1.78a7.68,7.68,0,0,0-1.05.09,26,26,0,0,1-3,.2,7.2,7.2,0,0,1-3.77-.72,2.44,2.44,0,0,1-1.13-2.17,3.07,3.07,0,0,1,1.15-2.33,7.87,7.87,0,0,1,1.77-1.11c-.32-1.06-.54-1.93-.87-3.53a4.68,4.68,0,0,0-.21-.84Z"/><path class="cls-7" d="M346.22,48.3a5.67,5.67,0,0,0,1,.07h.91a5.83,5.83,0,0,0,1-.07,13,13,0,0,0-.05,1.42V52.5a2,2,0,0,0,.63.73,2.41,2.41,0,0,0,.65.34,11,11,0,0,0,2.59.23,36.63,36.63,0,0,0,5.44-.34A8.57,8.57,0,0,0,358,55c-1.7.08-3,.1-5.2.1a9.7,9.7,0,0,1-2.93-.32,3.11,3.11,0,0,1-1.5-1.11l-.21.2a11,11,0,0,1-1.45,1.26l-.7-1.43a7.66,7.66,0,0,0,1.72-1.25V49.69h-.66a4.53,4.53,0,0,0-.84.07Zm1-4.76a14.46,14.46,0,0,1,2.25,2.36L348.39,47a12.31,12.31,0,0,0-2.21-2.43Zm5.23,2.64a7.11,7.11,0,0,0-1.08-.67l1-.59h-1.23a8.36,8.36,0,0,0-1.35.07V43.66a11.64,11.64,0,0,0,1.54.08h4.21a6.89,6.89,0,0,0,1.47-.09l.67.8a4.75,4.75,0,0,0-.65.5,17.92,17.92,0,0,1-1.68,1.23h1a8.82,8.82,0,0,0,1.33-.06,13.35,13.35,0,0,0-.06,1.51v4c0,.74-.05,1-.23,1.2s-.56.29-1.37.29h-.58a3.22,3.22,0,0,0-.3-1.23A6.36,6.36,0,0,0,356,52c.29,0,.3,0,.3-.36v-.51h-1.95v.55a7.78,7.78,0,0,0,.08,1.44H353a8.78,8.78,0,0,0,.08-1.44v-.55h-1.75v.67a7.64,7.64,0,0,0,.07,1.41H350a10.25,10.25,0,0,0,.06-1.41V47.64a14.9,14.9,0,0,0,0-1.52,11.28,11.28,0,0,0,1.45.06Zm-1.1,1.11v.84h1.75v-.84Zm0,2.75h1.75v-.87h-1.75Zm1.13-5.12c.46.33.58.4,1.35,1a13.54,13.54,0,0,0,1.3-1Zm1.91,3.21h1.95v-.84h-1.95Zm1.95,1h-1.95V50h1.95Z"/><path class="cls-7" d="M377.38,49.68a9.4,9.4,0,0,0,0,1l-1.27,0H374a9.09,9.09,0,0,1-1.16,4.63,4.16,4.16,0,0,0-1.16-1c.81-1.37,1-2.7,1-6.21a17,17,0,0,0-.06-1.81c.42,0,.75,0,1.37,0h2.11c.6,0,.91,0,1.31,0,0,.28,0,.67,0,1.17Zm-5.25-5.77a10.33,10.33,0,0,0,1.41.06h2.8a9.4,9.4,0,0,0,1.42-.06v1.45a9.12,9.12,0,0,0-1.35-.06h-3a9.65,9.65,0,0,0-1.33.06ZM376,49.46V47.53h-2v.94c0,.49,0,.61,0,1Zm3.57-.74a12.6,12.6,0,0,1-.57,3.55,7.11,7.11,0,0,1-1.14,2.1,8.65,8.65,0,0,1-.83,1A4.11,4.11,0,0,0,376,54.27a6,6,0,0,0,1.85-2.87,18.42,18.42,0,0,0,.41-4.81c0-1.23,0-1.63-.05-2.06a12.21,12.21,0,0,0,4.85-1.09l.74,1.33a4.86,4.86,0,0,0-.59.16,20.2,20.2,0,0,1-3.55.8v1.62h3a6.2,6.2,0,0,0,1.26-.08v1.51a7.6,7.6,0,0,0-1.15-.06h-.19v5.15a7.55,7.55,0,0,0,.08,1.4h-1.54a9.22,9.22,0,0,0,.08-1.42V48.72Z"/><path class="cls-7" d="M404.14,43.54A6.82,6.82,0,0,0,405.3,45a12.62,12.62,0,0,0,4.27,2.82,8.89,8.89,0,0,0-.74,1.52,16,16,0,0,1-3.27-2.13,9.71,9.71,0,0,1-2.21-2.44,12.59,12.59,0,0,1-2.14,2.4,14.65,14.65,0,0,1-3.2,2.17,5.31,5.31,0,0,0-.76-1.45A10.83,10.83,0,0,0,400.37,46a9.55,9.55,0,0,0,2.08-2.45ZM402.08,48a7.43,7.43,0,0,0-.05,1.08,7.92,7.92,0,0,1-.79,4,6.13,6.13,0,0,1-2.65,2.46,5.54,5.54,0,0,0-1.07-1.32,5.34,5.34,0,0,0,1.61-1c1.06-.92,1.38-1.94,1.38-4.26a4.55,4.55,0,0,0-.09-1Zm4.13,0a8.29,8.29,0,0,0-.08,1.44v4.32a10.82,10.82,0,0,0,.09,1.54h-1.67a10.35,10.35,0,0,0,.1-1.53V49.41a8.74,8.74,0,0,0-.1-1.43Z"/><path class="cls-7" d="M423,45.49a5.07,5.07,0,0,0,1.05.07h2.13a7,7,0,0,0,1.06-.05v1.32c-.28,0-.43,0-1,0H424a7.43,7.43,0,0,0-1.05.06Zm11.26,6.7a10.69,10.69,0,0,1-2,1.6,13.44,13.44,0,0,0,2.89.35,5.07,5.07,0,0,0-.46,1.27,12.5,12.5,0,0,1-3.81-.89,14.9,14.9,0,0,1-3.59.92,4.14,4.14,0,0,0-.31-.75l-.74,0H424.6v.64h-1.27c0-.39.06-.86.06-1.27v-2a7.84,7.84,0,0,0-.05-1,7.06,7.06,0,0,0,.87,0h2a4.27,4.27,0,0,0,.78,0,5.1,5.1,0,0,0,0,.94v2.26a11.81,11.81,0,0,0,2.67-.4,10.83,10.83,0,0,1-1.3-1l.91-.3h-.65a8.16,8.16,0,0,0-1.07.05v-1.1c.26,0,.55,0,1.07,0h4a6.19,6.19,0,0,0,1-.05Zm-2.11-2H434a6,6,0,0,0,.88,0V51.2a6.25,6.25,0,0,0-1.05-.06h-5.11c-.38,0-.61,0-.9,0a6.42,6.42,0,0,0,0-.93v-.91c0-.09,0-.42,0-.65a5.61,5.61,0,0,1-.55.56,3.66,3.66,0,0,0-.47-.57,4.72,4.72,0,0,0-.78,0h-1.84a4.74,4.74,0,0,0-.82,0V47.44a4.68,4.68,0,0,0,.82,0h1.84a4.32,4.32,0,0,0,.8,0V48a6,6,0,0,0,1.53-2.51l.44.12v-.35h-.52a8,8,0,0,0-1,.05V44a8.61,8.61,0,0,0,1.11.06h.4a3.33,3.33,0,0,0-.05-.71h1.38a2.51,2.51,0,0,0-.05.71h1.74a3.68,3.68,0,0,0-.05-.71h1.37a2.92,2.92,0,0,0-.06.71h.67a6.6,6.6,0,0,0,1.12-.06v1.23a8.38,8.38,0,0,0-1.1-.05h-.69a2.69,2.69,0,0,0,.05.65h-.69l-.19.35h1.49a6,6,0,0,0,1,0v1.07a5.56,5.56,0,0,0-1,0h-1.68v.4h1.44a5.2,5.2,0,0,0,.84,0v.94a5.79,5.79,0,0,0-.84,0h-1.44v.41h1.43a5.27,5.27,0,0,0,.85,0v.94a5.52,5.52,0,0,0-.85,0h-1.43Zm-8.72-6.49a5,5,0,0,0,1.05.07h1.44a5.18,5.18,0,0,0,1.06-.07v1.26a9.75,9.75,0,0,0-1.06,0h-1.44a10.11,10.11,0,0,0-1.05,0Zm0,5.59a4.68,4.68,0,0,0,.82,0h1.83a4.38,4.38,0,0,0,.81,0v1.23a4.74,4.74,0,0,0-.82,0h-1.84a4.61,4.61,0,0,0-.8,0Zm1.14,4.24h1.25V52.15h-1.25Zm6.4-6.3H429v.4H431Zm0,1.26H429v.41H431ZM429,49.73v.43H431v-.43Zm.65-3.89a3.83,3.83,0,0,1-.18.38H431a3.71,3.71,0,0,0,.31-.7l.5.13a3.1,3.1,0,0,0,0-.43h-1.74a2.84,2.84,0,0,0,0,.62Zm-.14,6.74a6.68,6.68,0,0,0,1.39.78,6.11,6.11,0,0,0,1.26-.78Z"/></g></g></svg>