<svg xmlns="http://www.w3.org/2000/svg" width="223.4" height="29.29" viewBox="0 0 223.4 29.29"><defs><style>.cls-1,.cls-7{fill:#fff;}.cls-1{stroke:#fff;stroke-width:0.63px;}.cls-2{fill:#f09dc1;}.cls-3{fill:#009e5a;}.cls-4{fill:#c28600;}.cls-5{fill:#fff362;}.cls-6{fill:#00b8ee;}</style></defs><title>header_logo</title><g id="レイヤー_2" data-name="レイヤー 2"><g id="レイヤー_1-2" data-name="レイヤー 1"><path class="cls-1" d="M29,14.64A14.34,14.34,0,1,1,14.65.31,14.34,14.34,0,0,1,29,14.64Z"/><path class="cls-2" d="M29,14.64A14.34,14.34,0,1,1,14.65.31,14.34,14.34,0,0,1,29,14.64Z"/><path class="cls-3" d="M14.65,2.69c-2.12,0-3.85,5.35-3.85,12s1.73,12,3.85,12,3.84-5.36,3.84-12S16.77,2.69,14.65,2.69Zm0,21.23c-1.82,0-3.29-4.15-3.29-9.28s1.47-9.27,3.29-9.27,3.28,4.15,3.28,9.27S16.46,23.92,14.65,23.92Z"/><path class="cls-4" d="M2.68,14.64c0,2.13,5.36,3.85,12,3.85s12-1.72,12-3.85-5.36-3.84-12-3.84S2.68,12.52,2.68,14.64Zm21.24,0c0,1.82-4.15,3.29-9.27,3.29s-9.27-1.47-9.27-3.29,4.15-3.28,9.27-3.28S23.92,12.83,23.92,14.64Z"/><path class="cls-5" d="M6.19,6.19c-1.5,1.5,1.07,6.5,5.74,11.17S21.6,24.6,23.1,23.1,22,16.6,17.36,11.93,7.69,4.69,6.19,6.19Zm15,15c-1.28,1.29-5.26-.61-8.88-4.23S6.81,9.37,8.09,8.09s5.26.61,8.88,4.23S22.49,19.92,21.2,21.2Z"/><path class="cls-6" d="M11.93,11.93C7.26,16.6,4.69,21.6,6.19,23.1s6.5-1.07,11.17-5.74S24.6,7.69,23.1,6.19,16.6,7.26,11.93,11.93Zm.39.39c3.62-3.62,7.6-5.51,8.88-4.23S20.59,13.35,17,17s-7.6,5.52-8.88,4.23S8.7,15.94,12.32,12.32Z"/><path class="cls-7" d="M12.05,13.76h.54v.67l.57-.67h.73l-.65.67.68,1.1h-.68l-.37-.73-.28.3v.43h-.54Z"/><path class="cls-7" d="M14.1,13.76h1.35v.38h-.8v.31h.68v.36h-.68v.72H14.1Z"/><path class="cls-7" d="M15.64,14.94l.52,0a.38.38,0,0,0,.07.19.28.28,0,0,0,.24.11.3.3,0,0,0,.18-.05.19.19,0,0,0,.07-.13.14.14,0,0,0-.06-.12.79.79,0,0,0-.28-.11,1.21,1.21,0,0,1-.52-.21.43.43,0,0,1-.15-.34.5.5,0,0,1,.08-.26A.52.52,0,0,1,16,13.8a1.2,1.2,0,0,1,.43-.07.85.85,0,0,1,.52.13.56.56,0,0,1,.21.4l-.52,0a.25.25,0,0,0-.08-.17.28.28,0,0,0-.18-.06.21.21,0,0,0-.15,0,.13.13,0,0,0,0,.1.1.1,0,0,0,0,.08.44.44,0,0,0,.18.06,1.8,1.8,0,0,1,.51.16.55.55,0,0,1,.23.19.59.59,0,0,1,.07.26.6.6,0,0,1-.1.32.54.54,0,0,1-.26.21,1,1,0,0,1-.43.08.9.9,0,0,1-.62-.17A.72.72,0,0,1,15.64,14.94Z"/><path class="cls-2" d="M210.57,4.94h1.2a9.61,9.61,0,0,0,1.2-.06V6.45a10.18,10.18,0,0,0-1.2-.06H211a6.19,6.19,0,0,0,1,1.3,6.31,6.31,0,0,0,1.25.9,8,8,0,0,0-.77,1.61,6.63,6.63,0,0,1-2-2.37c0,.33,0,.65,0,.91v.73a11.77,11.77,0,0,0,.06,1.29H209a12,12,0,0,0,.06-1.29V8.84c0-.27,0-.58,0-1A6.81,6.81,0,0,1,207,10.16a6.63,6.63,0,0,0-.83-1.38v.65a12,12,0,0,0,.06,1.32h-1.61a12.23,12.23,0,0,0,.06-1.32V8.05c0-.22,0-.62,0-1a5.51,5.51,0,0,1-.8,1.65,8.14,8.14,0,0,0-.5-1.74,7,7,0,0,0,1.15-2.71h-.23a2.79,2.79,0,0,0-.65.05V2.8a2.74,2.74,0,0,0,.65.05h.34V2.18a7.29,7.29,0,0,0-.06-1.06h1.62a7.39,7.39,0,0,0-.06,1.06v.67h.18a2.17,2.17,0,0,0,.47,0v.71a6.16,6.16,0,0,0,.57-2.14l1.42.35c0,.14-.07.26-.15.61l-.07.25h.5V2.16a7.42,7.42,0,0,0-.06-1h1.64a7.22,7.22,0,0,0-.06,1v.43h.93a9.5,9.5,0,0,0,1.2-.06V4.1A10.27,10.27,0,0,0,211.49,4h-.92Zm-4.44,3.79a6.31,6.31,0,0,0,1.34-1,5.86,5.86,0,0,0,1.07-1.36h-.33a7.86,7.86,0,0,0-1.21.07V5.89c-.16.39-.34.88-.44,1.22a3.34,3.34,0,0,1-.45-.86c0,.28,0,.67,0,1ZM207,4.87a3.88,3.88,0,0,0,.53.06,5.69,5.69,0,0,0-.75-.63h0a2,2,0,0,0-.43,0h-.19A4.18,4.18,0,0,0,207,5.62ZM208.1,4a5.19,5.19,0,0,1-.42.9h1.37V4Z"/><path class="cls-2" d="M215.29,6.47c-.37,0-.81,0-1.12,0V5a11,11,0,0,0,1.16,0h2.31a11.1,11.1,0,0,0,1.15,0V6.51c-.32,0-.76,0-1.14,0h-.4V8.36c.65-.11,1-.19,1.92-.4V9.41c-1.92.44-2.9.63-4.43.85a5.14,5.14,0,0,0-.71.13l-.22-1.61a14.58,14.58,0,0,0,1.91-.18V6.47Zm6.85-3.79a5.6,5.6,0,0,0,1-.06V4.18a11.32,11.32,0,0,0-1.33-.06h-1.17a11.69,11.69,0,0,0,.5,3.14,4.36,4.36,0,0,0,.72,1.45,5.59,5.59,0,0,0,.28-1.49A5.9,5.9,0,0,0,223.4,8a5.65,5.65,0,0,1-.58,2.11,1,1,0,0,1-.87.57c-.6,0-1.27-.59-1.79-1.58a12.15,12.15,0,0,1-1.11-4.95h-3.89c-.48,0-.88,0-1.33.06V2.61a11.58,11.58,0,0,0,1.33.07H219a11.73,11.73,0,0,0-.08-1.45h1.69a3.91,3.91,0,0,0,0,.61c0,.09,0,.3,0,.84h.94a4.59,4.59,0,0,0-.78-.88l1.17-.6a7.86,7.86,0,0,1,.92,1.07l-.8.41Z"/><path class="cls-2" d="M205.55,15a9.47,9.47,0,0,1-1.43.69,6.81,6.81,0,0,0-.77-1.5,7.73,7.73,0,0,0,2.35-1.13,6.07,6.07,0,0,0,1.72-1.65h1.66A6.1,6.1,0,0,0,210.8,13a9.08,9.08,0,0,0,2.45,1.14,7,7,0,0,0-.72,1.61A9.65,9.65,0,0,1,211,15v.58a9,9,0,0,0-1,0h-3.53a9.59,9.59,0,0,0-1,0Zm-.46,2.54a11,11,0,0,0-1.25.06V16.06c.36,0,.78.05,1.25.05h6.42c.49,0,.87,0,1.24-.05v1.56a10.81,10.81,0,0,0-1.24-.06h-1a22.66,22.66,0,0,1,2.15,2.64l-1.41.87-.48-.76c-1.18.14-1.18.14-1.75.19s-3.43.3-3.86.32-.65.07-.9.11l-.2-1.71c.27,0,.45,0,.68,0l.72,0a14,14,0,0,0,.89-1.67Zm4.62-3.39a7.71,7.71,0,0,1-1.43-1.36,7.29,7.29,0,0,1-1.44,1.36Zm-1.58,3.39a13.17,13.17,0,0,1-.88,1.62c1.49-.06,1.49-.06,2.55-.16-.28-.34-.43-.51-.87-1l1.21-.48Z"/><path class="cls-2" d="M216.67,19.88a10.44,10.44,0,0,0,0,1.09h-1.63a8.11,8.11,0,0,0,.06-1.13V17.77a8.56,8.56,0,0,1-.91.64,5.83,5.83,0,0,0-.66-1.53,6.16,6.16,0,0,0,1.6-1.17,4.44,4.44,0,0,0,1.06-1.42h-1.44a7.1,7.1,0,0,0-.89,0V12.82a5.54,5.54,0,0,0,.79,0h.46V12.1a5,5,0,0,0-.06-.78h1.62a4.56,4.56,0,0,0-.05.79v.75h.28a3.71,3.71,0,0,0,.59,0l.66.7A4.23,4.23,0,0,0,218,14a8.35,8.35,0,0,1-.92,1.67,5,5,0,0,0,1.64,1.23,6.88,6.88,0,0,0-.77,1.46,4.87,4.87,0,0,1-1.24-1.05Zm4.51-.71H222a11.16,11.16,0,0,0,1.25-.05v1.6c-.43,0-.84-.06-1.24-.06h-3.32c-.39,0-.81,0-1.2.06v-1.6a11.33,11.33,0,0,0,1.23.05h.85V15.42H219c-.34,0-.67,0-1,.06V13.89a6.88,6.88,0,0,0,1,0h.54V12.56a9.1,9.1,0,0,0-.08-1.21h1.75a8.63,8.63,0,0,0-.06,1.21v1.38H222a6.87,6.87,0,0,0,1,0v1.59c-.34,0-.65-.06-1-.06h-.81Z"/><path class="cls-2" d="M43.5,8.32A18.91,18.91,0,0,1,42,14.69a13.11,13.11,0,0,1-3.1,4.16,11.46,11.46,0,0,1-2.32,1.72,11.4,11.4,0,0,0-2.31-2.76,10.93,10.93,0,0,0,2.68-1.93,9.63,9.63,0,0,0,2.95-5.34,14.45,14.45,0,0,0,.37-2.22H38.08a24.54,24.54,0,0,0-2.8.12V5.06a24.3,24.3,0,0,0,2.8.12h2.39c0-.72,0-1.26,0-1.64a21.05,21.05,0,0,0-.12-2.45h3.51a14.77,14.77,0,0,0-.13,2.1c0,.87,0,1.39,0,2h3.16a27.77,27.77,0,0,0,2.78-.12,22.41,22.41,0,0,0-.1,2.43l-.09,9.24c0,.39.09.46.65.46h.08a1.74,1.74,0,0,1,.29,0c.27,0,.31-.15.42-1a30.78,30.78,0,0,0,.2-3.53,9.15,9.15,0,0,0,3,1.08,17.45,17.45,0,0,1-.62,4.94c-.44,1.1-1.31,1.43-3.88,1.43-1.87,0-2.74-.2-3.1-.78A2.6,2.6,0,0,1,46.24,18l.09-9.68Z"/><path class="cls-2" d="M58.5,6.33a36.05,36.05,0,0,1-.87,6.27l-2.7-1a20.07,20.07,0,0,0,1-5.84ZM63,12.58a40.33,40.33,0,0,0-1-4.2c-.09,4.18-.36,5.8-1.27,7.83a12.72,12.72,0,0,1-3.09,4.3,8.1,8.1,0,0,0-2.29-2.64A9.3,9.3,0,0,0,57.69,15a12.62,12.62,0,0,0,1.2-5.69L59,3.86V3.71c0-.81-.06-1.93-.14-2.64h3.26A20.83,20.83,0,0,0,62,3.79V6.6l1.68-.81a32.94,32.94,0,0,1,1.18,3.32V4.6a18.58,18.58,0,0,0-.12-2.7h3.36A17.78,17.78,0,0,0,68,4.58v2l1.57-.91c.63,1.39,1,2.2,1.42,3.49V3.92a21.52,21.52,0,0,0-.15-2.87h3.34A21.94,21.94,0,0,0,74,3.94V17.41a22.07,22.07,0,0,0,.14,2.95H70.79a22.93,22.93,0,0,0,.15-3v-6l-1.73,1.12A36.73,36.73,0,0,0,68,8.2v7.74a19.45,19.45,0,0,0,.14,2.91h-3.4a21.88,21.88,0,0,0,.14-2.91v-4.4Z"/><path class="cls-2" d="M78.21,14a16.94,16.94,0,0,1-1.44,1.2,12.7,12.7,0,0,0-1.2-3.34A12.51,12.51,0,0,0,78.35,9.4,9.59,9.59,0,0,0,80,6.76H77.87a12,12,0,0,0-1.72.09V3.79a9.27,9.27,0,0,0,1.54.09h.5V2.42A12.78,12.78,0,0,0,78.08.84h3.26a12.94,12.94,0,0,0-.1,1.6V3.88a4.62,4.62,0,0,0,1.06-.07l1.37,1.77c-.15.29-.17.35-.5,1.14a19.39,19.39,0,0,1-1.64,3.2,8.06,8.06,0,0,0,1.64,1.43c0-.41,0-.48-.06-.81a21.62,21.62,0,0,0,2.18.08H92.8A20.4,20.4,0,0,0,95,10.54c-.06.73-.08,1.25-.08,2.31v5.33a13.86,13.86,0,0,0,.11,2.2H91.87v-.7H86.16v.68H83.09a15.85,15.85,0,0,0,.1-2.2V12a8.39,8.39,0,0,0-1,2.36,13.36,13.36,0,0,1-1-1v4.79a17.42,17.42,0,0,0,.1,2.29H78.1c.06-.71.11-1.54.11-2.35ZM82.92,1.3c.73.06,1.47.11,2.47.11h7.54a16.1,16.1,0,0,0,2.39-.11V4.17a12.47,12.47,0,0,0-2-.11H85a12.33,12.33,0,0,0-2,.11Zm1,4.8a10.42,10.42,0,0,0-.08-1.46c.62.05,1.16.07,2.1.07h6.5c.85,0,1.35,0,2-.07a9.76,9.76,0,0,0-.08,1.44V8.53A10,10,0,0,0,94.38,10c-.58,0-1.1-.06-2-.06H85.87c-.92,0-1.5,0-2.08.06a10.06,10.06,0,0,0,.08-1.43ZM86.2,14h1.47V13H86.2Zm0,3.18h1.47v-1H86.2Zm.6-9.39h4.4V6.93H86.8ZM90.42,14h1.47V13H90.42Zm0,3.18h1.47v-1H90.42Z"/><path class="cls-2" d="M102.48,17.79c0,1,0,1.91.11,2.64H99.31a25.81,25.81,0,0,0,.12-2.64V13.66a20.19,20.19,0,0,1-1.83,1.45,12.9,12.9,0,0,0-1.14-3.32,14.27,14.27,0,0,0,2.78-2.22,10.81,10.81,0,0,0,2-2.85H98.89a16.44,16.44,0,0,0-1.81.1v-3a10.6,10.6,0,0,0,1.62.09h.75V2.44a13.44,13.44,0,0,0-.1-1.55h3.24a8,8,0,0,0-.11,1.6V3.88h.21a6.05,6.05,0,0,0,1.2-.07l1.38,1.37a5.5,5.5,0,0,0-.48,1,19.78,19.78,0,0,1-1.66,3.16,10.49,10.49,0,0,0,2.07,2V7.24a7.28,7.28,0,0,0-.1-1.37h3.26a20,20,0,0,0-.11,2.51V17h1.25V4a22.75,22.75,0,0,0-.12-2.78h3.34A19.16,19.16,0,0,0,112.59,4V7.2h1.27a13.92,13.92,0,0,0,2.06-.1v3.17a14.42,14.42,0,0,0-2.06-.1h-1.27V17h1.58a14.06,14.06,0,0,0,2.16-.11V20c-.85-.08-1.87-.12-2.8-.12h-7.41c-1,0-2,0-2.83.12V16.9A13.22,13.22,0,0,0,105,17h.21V12.06a16.63,16.63,0,0,0-1.1,2.28,10.18,10.18,0,0,1-1.62-1.62Z"/><path class="cls-2" d="M129.52,5.37V4a15.78,15.78,0,0,0-.1-2.32h3.73a27.1,27.1,0,0,0-.1,3.69h.81a18.93,18.93,0,0,0,3-.14V8.78a27.61,27.61,0,0,0-2.93-.11H133a28.29,28.29,0,0,1-.15,2.89,8.88,8.88,0,0,1-3.07,6.27,12.52,12.52,0,0,1-4.3,2.35A10.08,10.08,0,0,0,123.23,17a11,11,0,0,0,4-1.83c1.41-1.12,2-2.47,2.18-4.79,0-.38,0-.52,0-1.71h-4.38V11a19.32,19.32,0,0,0,.08,2.14h-3.8a16,16,0,0,0,.12-2.18V8.67h-.76a23.21,23.21,0,0,0-2.93.11V5.23a18.93,18.93,0,0,0,3,.14h.7V3.86a14.63,14.63,0,0,0-.12-2.21h3.8a15.65,15.65,0,0,0-.08,2.12v1.6Z"/><path class="cls-2" d="M138.89,8.61a28.47,28.47,0,0,0,4.25.19h9.93a33.11,33.11,0,0,0,4.26-.19v4a38.05,38.05,0,0,0-4.28-.13h-9.88a41.44,41.44,0,0,0-4.28.13Z"/><path class="cls-2" d="M176.35,7.39c-.5.24-.54.27-1,.49a36.85,36.85,0,0,1-9.88,3.22v2.33a5.1,5.1,0,0,0,.08,1.6c.13.39.39.56,1,.64a18.74,18.74,0,0,0,2.2.13c1.18,0,2.8-.09,4-.21a18.16,18.16,0,0,0,3.57-.67l.14,3.84c-.49,0-1.1,0-2.14.15-2.07.19-4.4.31-6.06.31-2.84,0-4.28-.25-5.23-.91a3.08,3.08,0,0,1-1.16-2.25,14.78,14.78,0,0,1-.09-2.2v-9a21.93,21.93,0,0,0-.12-2.76h3.88a16.93,16.93,0,0,0-.12,2.78V7.66a29.16,29.16,0,0,0,7.91-3,12.88,12.88,0,0,0-1.41-2.52l2-.66a14.06,14.06,0,0,1,1.73,3.18l-1,.37Zm.54-6.82a15.14,15.14,0,0,1,1.72,3.1l-2,.73a16.21,16.21,0,0,0-1.7-3.18Z"/><path class="cls-2" d="M196.24,19.84a32.91,32.91,0,0,0-6-5.89,22.58,22.58,0,0,1-7.64,5.69,10.66,10.66,0,0,0-2.32-3.28,19.58,19.58,0,0,0,6.73-4.2,16.75,16.75,0,0,0,4.17-6.1l-5.4.08a23.32,23.32,0,0,0-3.3.21l-.1-3.7a14.43,14.43,0,0,0,2.18.15l1.16,0,7.1-.11a3.74,3.74,0,0,0,1.66-.23l1.83,1.87a3.26,3.26,0,0,0-.75,1.23,24.48,24.48,0,0,1-3,5.6,49.54,49.54,0,0,1,6.6,5.63Z"/><path class="cls-2" d="M34.2,26.08c0-.17,0-.3,0-.76a4.52,4.52,0,0,1-.52.71,3.93,3.93,0,0,0-.3-.8,5.53,5.53,0,0,0,1.1-1.75,4,4,0,0,0,.25-.87l.76.19a9.92,9.92,0,0,1-.59,1.46V28a6.26,6.26,0,0,0,0,.78h-.82A4.58,4.58,0,0,0,34.2,28ZM37.6,24a6.4,6.4,0,0,0-1.32-.84l.52-.49a8.21,8.21,0,0,1,1.39.82l-.5.51h1c.33,0,.57,0,.79,0v.74c-.24,0-.49,0-.77,0h-1V25.8h.82a5.22,5.22,0,0,0,.74,0v.73c-.21,0-.45,0-.73,0h-.83v1.4h1.15c.3,0,.57,0,.79,0v.74c-.24,0-.47,0-.8,0H35.93c-.33,0-.55,0-.8,0v-.74c.22,0,.48,0,.77,0H37v-1.4h-.71c-.28,0-.51,0-.73,0v-.73a5.16,5.16,0,0,0,.73,0H37V24.64H36.1q-.41,0-.75,0v-.74a4.85,4.85,0,0,0,.75,0Z"/><path class="cls-2" d="M48.9,25.37c-.81.13-.81.13-1.62.24a3.86,3.86,0,0,0-.31-.67,17.81,17.81,0,0,0,2.72-.38,4.83,4.83,0,0,0,1.43-.49l.61.6c-.19,0-.26.06-.51.14-.77.23-1.14.33-1.58.43v.69l2.27-.24a3.75,3.75,0,0,0,.72-.13l.07.76h-.12l-.61,0-2.33.26v1.1c0,.17,0,.2.18.24a6.31,6.31,0,0,0,.81,0,2.58,2.58,0,0,0,1.09-.12c.11-.09.15-.25.17-.89a2.33,2.33,0,0,0,.74.26,2.23,2.23,0,0,1-.16.86.73.73,0,0,1-.59.49,6.07,6.07,0,0,1-1.35.08c-1.4,0-1.63-.1-1.63-.75V26.69l-1.44.16a5.44,5.44,0,0,0-.73.11l-.07-.75h.13l.6,0L48.9,26Zm.34-2.32a2.22,2.22,0,0,0,0-.38H50a2.25,2.25,0,0,0,0,.38v.21h1.83c.34,0,.52,0,.74,0a3.26,3.26,0,0,0,0,.49v.5a4.18,4.18,0,0,0,0,.52h-.72v-.81h-4.3v.81H46.8a3.94,3.94,0,0,0,0-.52v-.5a3.38,3.38,0,0,0,0-.49c.22,0,.4,0,.74,0h1.7Z"/><path class="cls-2" d="M60.49,23.52a4.54,4.54,0,0,0-.6,0v-.71a6.88,6.88,0,0,0,.71,0h1.79a6.12,6.12,0,0,0,.71,0v.71a3.85,3.85,0,0,0-.57,0v.67h0a4.92,4.92,0,0,0,.64,0v.72a5.18,5.18,0,0,0-.63,0h-.06v.64a4,4,0,0,0,0,.52h.54a2.34,2.34,0,0,0,0,.42v.21h1.33a4.88,4.88,0,0,0,.78,0v.72c-.2,0-.44,0-.77,0H63.06v.61h1.87a6.77,6.77,0,0,0,.78,0v.75a6.44,6.44,0,0,0-.84,0H60.58a6.11,6.11,0,0,0-.82,0v-.75a6.85,6.85,0,0,0,.77,0h1.78v-.61H61.06c-.31,0-.55,0-.76,0v-.71a5.73,5.73,0,0,0,.69,0h1.32v-.42H61.8a6.89,6.89,0,0,0,0-.72v-.65h-.66a2.81,2.81,0,0,1-.23.84,2.28,2.28,0,0,1-.72.84A2.12,2.12,0,0,0,59.7,26a1.58,1.58,0,0,0,.77-1.13h-.1a5.18,5.18,0,0,0-.63,0v-.73a4,4,0,0,0,.65,0h.14c0-.06,0-.28,0-.67Zm.75,0v.67h.6v-.67Zm2.19,1.85a3.89,3.89,0,0,0,0-.53v-1.3a4.11,4.11,0,0,0,0-.55h.76a3.39,3.39,0,0,0,0,.51v1.39c0,.21,0,.35,0,.48Zm2.09.22c0,.57-.18.7-1,.7l-.55,0a2.17,2.17,0,0,0-.19-.72,5,5,0,0,0,.7.06c.26,0,.28,0,.28-.16V23.26a3,3,0,0,0,0-.57h.8a4.64,4.64,0,0,0,0,.63Z"/><path class="cls-2" d="M74.06,25.78a7.7,7.7,0,0,1-1,.83,2,2,0,0,0-.45-.64,6.27,6.27,0,0,0,1.12-.91,4.38,4.38,0,0,0,.79-1h-.94c-.32,0-.56,0-.79,0v-.73c.23,0,.47,0,.8,0h1.25a3.52,3.52,0,0,0,.19-.72l.83.09a3.17,3.17,0,0,0-.15.37c0,.08,0,.12-.09.26H78c.33,0,.56,0,.78,0v.73c-.22,0-.46,0-.78,0H75.35c-.12.22-.2.36-.32.56H77.3a6.46,6.46,0,0,0,.69,0,7.2,7.2,0,0,0,0,.75v2.77a.57.57,0,0,1-.25.54,1.63,1.63,0,0,1-.78.11l-.61,0a2,2,0,0,0-.17-.7,5.28,5.28,0,0,0,.77.06c.29,0,.33,0,.33-.18v-.51H74.77v.56c0,.36,0,.6,0,.84H74c0-.24,0-.5,0-.84Zm3.19-.57H74.77v.49h2.48Zm-2.48,1.08v.49h2.48v-.49Z"/><path class="cls-2" d="M88.41,27c0,.09,0,.12-.07.23a4.46,4.46,0,0,1-.67-.94c0,.46,0,.55,0,.76v1.1a3.35,3.35,0,0,0,0,.69H87a4.78,4.78,0,0,0,0-.71v-.85c0-.27,0-.58,0-.8A4.43,4.43,0,0,1,86.18,28a2.15,2.15,0,0,0-.33-.68,4.33,4.33,0,0,0,.71-1,6.84,6.84,0,0,0,.36-.75h-.35a3.22,3.22,0,0,0-.6,0v-.71a2.93,2.93,0,0,0,.6,0H87V23.32a3.58,3.58,0,0,0,0-.65h.76a3.72,3.72,0,0,0,0,.65V24.9H88a3.3,3.3,0,0,0,.51,0v.69a4,4,0,0,0-.52,0h-.24a3.6,3.6,0,0,0,.85,1,3.17,3.17,0,0,0-.18.38,4.75,4.75,0,0,0,.61-.1l1.55-.34v-3a3.86,3.86,0,0,0,0-.77h.81a5.08,5.08,0,0,0,0,.76v2.89a3.88,3.88,0,0,0,.56-.17l.14.76a4.2,4.2,0,0,0-.63.12h-.07v1a5.45,5.45,0,0,0,0,.79h-.81a4.26,4.26,0,0,0,0-.8v-.8l-1.4.32c-.3.07-.49.12-.64.17ZM86.49,23a9.1,9.1,0,0,1,.41,1.43l-.56.24a5.78,5.78,0,0,0-.41-1.42Zm2.28.23a8.08,8.08,0,0,1-.53,1.44l-.49-.25A5.19,5.19,0,0,0,88.21,23Zm.33,1.51a5.85,5.85,0,0,1,1.16,1l-.45.53a6.32,6.32,0,0,0-1.17-1Zm.21-1.66a6.66,6.66,0,0,1,1.16,1l-.45.56a5.71,5.71,0,0,0-1.18-1Z"/><path class="cls-2" d="M99.8,25.45a6,6,0,0,0-.81,0v-.74a7.86,7.86,0,0,0,.81,0h1.49v-.67h-1a7,7,0,0,0-.76,0v-.73a4.82,4.82,0,0,0,.77,0h1v-.19a3.13,3.13,0,0,0,0-.59h.82a2.47,2.47,0,0,0,0,.6v.18h.58a4.81,4.81,0,0,0,.73,0v.52A4.81,4.81,0,0,0,104,23l.7.4-.18.22a11.38,11.38,0,0,1-1.08,1.16h.72a7.16,7.16,0,0,0,.76,0v.74a6,6,0,0,0-.79,0h-1.46a12.79,12.79,0,0,1-1.4,1v.3a11.87,11.87,0,0,0,1.77-.55,4,4,0,0,0,.65-.31l.55.61-.12.05-.23.09c-.2.08-.84.3-1.17.4-.52.16-.7.2-1.45.38v.38c0,.22.12.25,1.31.25.69,0,1,0,1.07-.14s.13-.3.14-.89a2.5,2.5,0,0,0,.73.28c-.06.83-.14,1.09-.38,1.25s-.65.19-1.92.19c-1.48,0-1.7-.09-1.7-.73V26.83c-.46.22-.73.35-1.25.56a2.17,2.17,0,0,0-.44-.66,11.33,11.33,0,0,0,2.69-1.28Zm2.63-.67a7.08,7.08,0,0,0,.72-.65,3.12,3.12,0,0,0-.49,0H102v.67Z"/><path class="cls-2" d="M115.44,22.75a4,4,0,0,0,0,.69,4.72,4.72,0,0,0,.65,2.61,4.48,4.48,0,0,0,1,1.27,4.63,4.63,0,0,0,1,.71,2.54,2.54,0,0,0-.52.74,6.25,6.25,0,0,1-1.68-1.57,5.19,5.19,0,0,1-.89-1.81,4.33,4.33,0,0,1-.52,1.34,4.46,4.46,0,0,1-1,1.28,5,5,0,0,1-1,.76,2,2,0,0,0-.52-.68A4.42,4.42,0,0,0,113.39,27a5.13,5.13,0,0,0,1.22-3.67,4.28,4.28,0,0,0,0-.56Z"/><path class="cls-2" d="M127,25.32l0,.21a6.81,6.81,0,0,1-1.12,2.58,3,3,0,0,0-.77-.43,4.63,4.63,0,0,0,.93-1.75,3.51,3.51,0,0,0,.2-.81Zm.68-1.79a4.1,4.1,0,0,0,0-.69h.89a6.08,6.08,0,0,0,0,.71v.35H130a4.67,4.67,0,0,0,.86,0v.82c-.24,0-.41,0-.85,0H128.5v3.22a5.33,5.33,0,0,0,0,.75h-.9a5.11,5.11,0,0,0,0-.75V24.64h-1.48c-.43,0-.6,0-.84,0v-.82a4.61,4.61,0,0,0,.85,0h1.47ZM130,25.12a3.91,3.91,0,0,0,.23.74,6.11,6.11,0,0,0,.94,1.79,5.68,5.68,0,0,0-.76.46,8.54,8.54,0,0,1-1.09-2.48,1.68,1.68,0,0,0-.11-.31Z"/><path class="cls-2" d="M138.32,25.24a6.79,6.79,0,0,0,1.08,0h3.54a6.64,6.64,0,0,0,1.07,0v.92a7.91,7.91,0,0,0-1.08,0H139.4a8,8,0,0,0-1.08,0Z"/><path class="cls-2" d="M154.48,23a2.15,2.15,0,0,0-.17.48A39.26,39.26,0,0,1,153,27.31a26.38,26.38,0,0,0,2.77-.34c-.08-.16-.16-.3-.32-.6a8,8,0,0,0-.63-1.06l.75-.29a15.19,15.19,0,0,1,1.61,3.07l-.8.42a8.39,8.39,0,0,0-.32-.82l-.24,0c-.67.14-1.77.28-3.76.47a5.82,5.82,0,0,0-.61.08l-.12-.89h.18l.57,0c.35-.84.62-1.59,1-2.68a11.41,11.41,0,0,0,.49-1.84Z"/><path class="cls-2" d="M166.83,22.78a11.47,11.47,0,0,0,.44,2.08l1.72-.58a1.57,1.57,0,0,0,.26-.1l.28.84a14.63,14.63,0,0,0-2.19.64c-1,.35-1.46.78-1.46,1.26s.46.69,1.53.69a7.34,7.34,0,0,0,2.14-.27l.08.91a3.67,3.67,0,0,0-.54,0,12.58,12.58,0,0,1-1.56.1A3.79,3.79,0,0,1,165.6,28a1.26,1.26,0,0,1-.57-1.11,1.55,1.55,0,0,1,.59-1.19,4.13,4.13,0,0,1,.9-.57,17.66,17.66,0,0,1-.44-1.8,4.07,4.07,0,0,0-.11-.44Z"/><path class="cls-2" d="M177.31,25.17a2.59,2.59,0,0,0,.51,0h.46a2.64,2.64,0,0,0,.51,0,6.57,6.57,0,0,0,0,.72v1.43a1.1,1.1,0,0,0,.33.37.94.94,0,0,0,.33.17,5.41,5.41,0,0,0,1.32.12,19.08,19.08,0,0,0,2.78-.17,4.35,4.35,0,0,0-.19.79c-.87,0-1.54,0-2.66,0a5.28,5.28,0,0,1-1.5-.16,1.69,1.69,0,0,1-.77-.57.91.91,0,0,1-.1.1,7,7,0,0,1-.74.65l-.36-.74a3.67,3.67,0,0,0,.88-.63V25.88h-.34a3,3,0,0,0-.43,0Zm.52-2.43a8.5,8.5,0,0,1,1.15,1.2l-.56.54a6.12,6.12,0,0,0-1.13-1.24Zm2.67,1.35a3.43,3.43,0,0,0-.55-.35l.51-.3h-.63a4.25,4.25,0,0,0-.69,0V22.8a7.12,7.12,0,0,0,.79,0h2.15a3.45,3.45,0,0,0,.75-.05l.34.41a2.66,2.66,0,0,0-.33.26c-.27.22-.59.45-.86.63h.53a3.75,3.75,0,0,0,.68,0,7,7,0,0,0,0,.77v2.05c0,.38,0,.51-.12.61s-.28.16-.7.16h-.29a1.5,1.5,0,0,0-.16-.63l.44,0c.15,0,.15,0,.15-.19v-.26h-1v.28a3.68,3.68,0,0,0,0,.74h-.74a4.63,4.63,0,0,0,0-.74v-.28h-.9v.34a4,4,0,0,0,0,.73h-.75a4.75,4.75,0,0,0,0-.73v-2.1c0-.38,0-.55,0-.78a4.79,4.79,0,0,0,.74,0Zm-.57.56v.43h.9v-.43Zm0,1.41h.9v-.44h-.9Zm.58-2.62.69.5a6.83,6.83,0,0,0,.67-.5Zm1,1.64h1v-.43h-1Zm1,.54h-1v.44h1Z"/><path class="cls-2" d="M193.24,25.87a3.8,3.8,0,0,0,0,.54l-.66,0h-1.1a4.65,4.65,0,0,1-.59,2.37,2.25,2.25,0,0,0-.59-.53c.41-.7.52-1.38.52-3.17a7.72,7.72,0,0,0,0-.93c.22,0,.39,0,.71,0h1.07a6.34,6.34,0,0,0,.67,0c0,.14,0,.34,0,.6Zm-2.68-2.95a4.35,4.35,0,0,0,.72,0h1.43a4.11,4.11,0,0,0,.73,0v.75a4.26,4.26,0,0,0-.7,0h-1.5a4.25,4.25,0,0,0-.68,0Zm2,2.84v-1h-1v1Zm1.82-.38a6.57,6.57,0,0,1-.29,1.82,3.69,3.69,0,0,1-.58,1.07,4.21,4.21,0,0,1-.43.5,2.39,2.39,0,0,0-.55-.55,3.11,3.11,0,0,0,.95-1.47,9.75,9.75,0,0,0,.21-2.46c0-.62,0-.83,0-1.05a6.09,6.09,0,0,0,2.48-.56l.38.68-.31.09a9.45,9.45,0,0,1-1.81.4v.84h1.51a3.6,3.6,0,0,0,.64,0v.77a3.22,3.22,0,0,0-.58,0h-.1V28a3.52,3.52,0,0,0,0,.72h-.79a4.75,4.75,0,0,0,0-.72V25.38Z"/><path class="cls-2" d="M206.92,22.74a4.09,4.09,0,0,0,.59.76,6.57,6.57,0,0,0,2.19,1.44,3.75,3.75,0,0,0-.38.78,9.23,9.23,0,0,1-1.68-1.09,5.4,5.4,0,0,1-1.13-1.25,6.08,6.08,0,0,1-1.09,1.23,8.21,8.21,0,0,1-1.63,1.11,3,3,0,0,0-.39-.74A5.72,5.72,0,0,0,205,24a5,5,0,0,0,1.07-1.25Zm-1,2.26a3.88,3.88,0,0,0,0,.56,4,4,0,0,1-.4,2,3.11,3.11,0,0,1-1.36,1.26,2.57,2.57,0,0,0-.54-.67,2.92,2.92,0,0,0,.82-.5c.54-.47.71-1,.71-2.18a2.91,2.91,0,0,0,0-.49ZM208,25a3.9,3.9,0,0,0,0,.74V28a6.63,6.63,0,0,0,0,.79h-.85a4.85,4.85,0,0,0,.05-.79V25.74a4.17,4.17,0,0,0-.05-.74Z"/><path class="cls-2" d="M216.56,23.74a3.7,3.7,0,0,0,.53,0h1.09a3.39,3.39,0,0,0,.54,0v.68c-.14,0-.22,0-.5,0h-1.13a3.79,3.79,0,0,0-.53,0Zm5.75,3.42a4.91,4.91,0,0,1-1,.81,6.37,6.37,0,0,0,1.48.18,2.88,2.88,0,0,0-.24.66,6.5,6.5,0,0,1-1.95-.46,7.54,7.54,0,0,1-1.83.47,3.25,3.25,0,0,0-.16-.39h-1.21v.33h-.65c0-.2,0-.44,0-.65v-1c0-.2,0-.33,0-.51a2.76,2.76,0,0,0,.44,0h1a1.8,1.8,0,0,0,.4,0,2.65,2.65,0,0,0,0,.48v1.16a6,6,0,0,0,1.36-.21,5.61,5.61,0,0,1-.66-.49l.47-.15h-.34a4.28,4.28,0,0,0-.54,0v-.56l.54,0h2a3.16,3.16,0,0,0,.5,0Zm-1.08-1h1a4.09,4.09,0,0,0,.45,0v.55a4,4,0,0,0-.54,0h-2.61l-.46,0a3.4,3.4,0,0,0,0-.48V25.7c0-.05,0-.22,0-.34a2.26,2.26,0,0,1-.27.29,1.94,1.94,0,0,0-.24-.29,2.07,2.07,0,0,0-.4,0h-.95a2.56,2.56,0,0,0-.42,0v-.63a2.49,2.49,0,0,0,.42,0h.95a2.13,2.13,0,0,0,.4,0V25a3.11,3.11,0,0,0,.79-1.28l.22.06V23.6h-.26a4.18,4.18,0,0,0-.51,0V23a4.45,4.45,0,0,0,.57,0h.2a1.78,1.78,0,0,0,0-.36h.7a1.22,1.22,0,0,0,0,.36h.89a1.58,1.58,0,0,0,0-.36h.7a2.28,2.28,0,0,0,0,.36h.34a3.1,3.1,0,0,0,.58,0v.63a4.71,4.71,0,0,0-.57,0h-.35a1.37,1.37,0,0,0,0,.33h-.36a1.45,1.45,0,0,1-.1.18h.77a2.91,2.91,0,0,0,.5,0v.55a2.85,2.85,0,0,0-.49,0h-.86v.2H222a3.53,3.53,0,0,0,.43,0v.48a4.1,4.1,0,0,0-.43,0h-.74v.21H222a2.26,2.26,0,0,0,.43,0v.48a3.8,3.8,0,0,0-.43,0h-.74Zm-4.46-3.32a2.58,2.58,0,0,0,.54,0h.74a2.64,2.64,0,0,0,.54,0v.65a3.85,3.85,0,0,0-.54,0h-.74a4.16,4.16,0,0,0-.54,0Zm0,2.86a2.49,2.49,0,0,0,.42,0h.94a2.19,2.19,0,0,0,.41,0v.63a2.43,2.43,0,0,0-.42,0h-.93a2.56,2.56,0,0,0-.42,0Zm.59,2.17H218v-.69h-.64Zm3.27-3.22h-1v.2h1Zm0,.64h-1v.21h1Zm-1,.65v.22h1V25.9Zm.33-2-.09.2h.78a2.32,2.32,0,0,0,.16-.36l.26.06V23.6h-.89a1.85,1.85,0,0,0,0,.31Zm-.07,3.45a3.32,3.32,0,0,0,.71.4,3.79,3.79,0,0,0,.64-.4Z"/></g></g></svg>