<svg xmlns="http://www.w3.org/2000/svg" width="160" height="40" viewBox="0 0 160 40"><defs><style>.cls-1{fill:#e799bb;}.cls-2,.cls-4{fill:none;}.cls-2{stroke:#fff;stroke-miterlimit:10;}.cls-3{isolation:isolate;}.cls-5{fill:#ececeb;}.cls-6{fill:#fff;}</style></defs><title>header_tel</title><g id="レイヤー_2" data-name="レイヤー 2"><g id="レイヤー_1-2" data-name="レイヤー 1"><rect class="cls-1" width="160" height="40"/><line class="cls-2" x1="38.43" y1="18.5" x2="156" y2="18.5"/><g class="cls-3"><circle class="cls-4" cx="20" cy="20" r="16"/></g><path class="cls-5" d="M20,5.76h-.73l-.72.06-.71.09-.7.13-.69.15-.68.2-.66.22-.64.26-.63.28-.62.32-.59.34-.58.37-.56.4L11,9l-.52.45-.49.48-.48.49L9,11l-.42.54-.4.56-.37.58-.34.59-.32.62-.28.63-.26.64-.22.66-.2.68-.15.69-.13.7-.09.71-.06.72v1.46l.06.72.09.71.13.7.15.69.2.68.22.66.26.64.28.63.32.62.34.59.37.58.4.56.42.54.45.52.48.49.49.48L11,31l.54.42.56.4.58.37.59.34.62.32.63.28.64.26.66.22.68.2.69.15.7.13.71.09.72.06h1.46l.72-.06.71-.09.7-.13.69-.15.68-.2.66-.22.64-.26.63-.28.62-.32.59-.34.58-.37.56-.4.54-.42.52-.45.49-.48.48-.49.45-.52.42-.54.4-.56.37-.58.34-.59.32-.62.28-.63.26-.64.22-.66.2-.68.15-.69.13-.7.09-.71.06-.72V19.27l-.06-.72-.09-.71-.13-.7-.15-.69-.2-.68-.22-.66-.26-.64-.28-.63-.32-.62-.34-.59-.37-.58-.4-.56L31,11l-.45-.52-.48-.49-.49-.48L29.05,9l-.54-.42L28,8.19l-.58-.37-.59-.34-.62-.32-.63-.28-.64-.26-.66-.22-.68-.2-.69-.15-.7-.13-.71-.09-.72-.06ZM20,4A16,16,0,1,1,4,20,16,16,0,0,1,20,4Z"/><path class="cls-6" d="M25,29.62l1.31-.76a.48.48,0,0,0,.22-.33.69.69,0,0,0-.15-.48l-2.41-4.18c-.25-.42-.49-.53-.79-.35l-1.29.74ZM14.4,23.29l.12.2c1.59,2.74,3.19,4.56,4.82,5.46,2,1.11,3.6,1.47,4.91,1.08l0,0-3.13-5.34a1.11,1.11,0,0,1-1.13,0,3.69,3.69,0,0,1-1.09-1.1c-.4-.62-.85-1.33-1.35-2.18-.61-1.06-1-1.77-1.17-2.11A3.63,3.63,0,0,1,16,17.8a1.05,1.05,0,0,1,.57-1l-3.12-5.39A4.56,4.56,0,0,0,12.22,14a9.14,9.14,0,0,0-.17,3.29A17.75,17.75,0,0,0,14.4,23.29Zm2.82-6.82,1.28-.74c.33-.19.35-.56.07-1.05l-2.26-3.91c-.21-.36-.37-.55-.51-.56a.88.88,0,0,0-.49.17l-1.21.7Z"/><path class="cls-6" d="M43.88,24.15a3.89,3.89,0,0,1,6.26,0,8.19,8.19,0,0,1,1.18,4.6,8.08,8.08,0,0,1-1.18,4.58,3.85,3.85,0,0,1-6.26,0,8.36,8.36,0,0,1-1.19-4.58A8.24,8.24,0,0,1,43.88,24.15Zm1.49,9q.52,1.41,1.65,1.41c.82,0,1.39-.55,1.75-1.68a14,14,0,0,0,.42-4.1,12.86,12.86,0,0,0-.52-4.37c-.36-1-.89-1.41-1.65-1.41-1.51,0-2.17,1.77-2.17,5.78A12.76,12.76,0,0,0,45.37,33.12Z"/><path class="cls-6" d="M56.32,30.43a3.51,3.51,0,0,1-3.62-3.75,3.92,3.92,0,0,1,4.17-4.13,3.65,3.65,0,0,1,3.22,1.59,7.07,7.07,0,0,1,1,4.19c0,4.31-1.58,6.61-4.56,6.61-2,0-3.45-.88-3.45-2.06,0-.63.44-1,1.17-1a1.16,1.16,0,0,1,.89.3c.09.15.09.18.14.88.07.95.52,1.47,1.3,1.47,1,0,1.66-.74,2-2.14A13.34,13.34,0,0,0,59,29.32,3.45,3.45,0,0,1,56.32,30.43Zm2.33-1.66A3.19,3.19,0,0,0,59,27.13a8.17,8.17,0,0,0-.52-2.94A1.81,1.81,0,0,0,56.82,23c-1.23,0-2,1.37-2,3.67a4.27,4.27,0,0,0,.63,2.53,1.7,1.7,0,0,0,1.38.74A2.16,2.16,0,0,0,58.65,28.77Z"/><path class="cls-6" d="M62.73,34.68a7,7,0,0,1,1.08-3.16A14.76,14.76,0,0,1,67,28.28a4.74,4.74,0,0,0,1.34-1.49,3.29,3.29,0,0,0,.34-1.49c0-1.41-.76-2.33-1.91-2.33a1.46,1.46,0,0,0-1.5,1.09,4.28,4.28,0,0,0-.18,1.47c0,.63-.32.89-1,.89s-1.15-.28-1.15-.86a2.8,2.8,0,0,1,1.35-2.28A4.66,4.66,0,0,1,67,22.55c2.44,0,3.9,1.12,3.9,3a3,3,0,0,1-.73,2,6.79,6.79,0,0,1-1.78,1.33A15.23,15.23,0,0,0,65,31.11a4.38,4.38,0,0,0-1.28,1.83h4.7c1.32,0,1.79-.42,2.08-1.87l.55.11-.56,3.5Z"/><path class="cls-6" d="M72.7,29.27h3.8v1.36H72.7Z"/><path class="cls-6" d="M80.47,24.54a1.23,1.23,0,0,0-1.28.65,4.33,4.33,0,0,0-.49,1.44l-.53-.06.5-3.76h7.74V24a21.39,21.39,0,0,0-2.58,4.87,19.64,19.64,0,0,0-.77,2.87,13.36,13.36,0,0,0-.2,2.17,1,1,0,0,1-.32.87,1.78,1.78,0,0,1-1,.26c-.71,0-1.07-.26-1.07-.78,0-1.07.86-3.25,2.24-5.62.65-1.14,1.33-2.2,2.62-4.06Z"/><path class="cls-6" d="M89.58,34.22A2.27,2.27,0,0,0,90.79,34c.38-.2.49-.62.49-1.65V24.93a5,5,0,0,0,0-1c-.06-.36-.28-.44-1.1-.44h-.44v-.45a37.26,37.26,0,0,0,3.79-.49q-.15,1.73-.15,4.08v5.72c0,1,.1,1.39.39,1.62s.42.21,1.25.22v.46H89.58Z"/><path class="cls-6" d="M99,24.15a3.75,3.75,0,0,1,3.15-1.58,3.71,3.71,0,0,1,3.12,1.58,8.19,8.19,0,0,1,1.18,4.6,8.08,8.08,0,0,1-1.18,4.58,3.69,3.69,0,0,1-3.12,1.61A3.73,3.73,0,0,1,99,33.33a8.36,8.36,0,0,1-1.18-4.58A8.32,8.32,0,0,1,99,24.15Zm1.5,9q.52,1.41,1.65,1.41c.82,0,1.39-.55,1.74-1.68a13.63,13.63,0,0,0,.43-4.1,12.86,12.86,0,0,0-.52-4.37c-.36-1-.89-1.41-1.65-1.41-1.51,0-2.17,1.77-2.17,5.78A12.76,12.76,0,0,0,100.54,33.12Z"/><path class="cls-6" d="M108,29.27h3.81v1.36H108Z"/><path class="cls-6" d="M115.76,24.54a1.23,1.23,0,0,0-1.28.65,4.62,4.62,0,0,0-.48,1.44l-.54-.06.51-3.76h7.74V24a21.39,21.39,0,0,0-2.58,4.87,18.5,18.5,0,0,0-.78,2.87,12.55,12.55,0,0,0-.19,2.17,1.06,1.06,0,0,1-.32.87,1.83,1.83,0,0,1-1,.26c-.71,0-1.07-.26-1.07-.78,0-1.07.86-3.25,2.23-5.62.65-1.14,1.33-2.2,2.63-4.06Z"/><path class="cls-6" d="M124.65,28.65a4.17,4.17,0,0,1,3.12-1.31c2.37,0,3.84,1.39,3.84,3.64,0,2.42-1.7,4-4.39,4-2.12,0-3.77-1-3.77-2.35,0-.62.4-.94,1.15-.94a1.08,1.08,0,0,1,.81.27c.11.13.14.26.16.73A1.93,1.93,0,0,0,126,34a1.72,1.72,0,0,0,1.27.53,1.86,1.86,0,0,0,1.58-.82,4.68,4.68,0,0,0,.62-2.49c0-2-.84-3.23-2.3-3.23a3.26,3.26,0,0,0-2.72,1.77l-.53-.13.53-6.8h6.62l-.29,1.81H125Z"/><path class="cls-6" d="M135.64,24.54a1.23,1.23,0,0,0-1.28.65,4.33,4.33,0,0,0-.49,1.44l-.53-.06.5-3.76h7.74V24A21.39,21.39,0,0,0,139,28.83a17.41,17.41,0,0,0-.77,2.87,13.36,13.36,0,0,0-.2,2.17,1,1,0,0,1-.32.87,1.78,1.78,0,0,1-1,.26c-.71,0-1.07-.26-1.07-.78,0-1.07.86-3.25,2.24-5.62.65-1.14,1.33-2.2,2.62-4.06Z"/><path class="cls-6" d="M143.26,34.68a7,7,0,0,1,1.08-3.16,14.76,14.76,0,0,1,3.21-3.24,4.74,4.74,0,0,0,1.34-1.49,3.29,3.29,0,0,0,.34-1.49c0-1.41-.76-2.33-1.91-2.33a1.46,1.46,0,0,0-1.5,1.09,4.28,4.28,0,0,0-.18,1.47c0,.63-.33.89-1,.89s-1.15-.28-1.15-.86a2.8,2.8,0,0,1,1.35-2.28,4.62,4.62,0,0,1,2.68-.73c2.45,0,3.9,1.12,3.9,3a3,3,0,0,1-.72,2,6.79,6.79,0,0,1-1.78,1.33,15.23,15.23,0,0,0-3.37,2.2,4.38,4.38,0,0,0-1.28,1.83h4.69c1.33,0,1.8-.42,2.09-1.87l.55.11-.56,3.5Z"/><path class="cls-6" d="M40.87,9.11a1.51,1.51,0,0,0,1.07.46,4,4,0,0,0,.9-.12c0-.26,0-.67,0-.83,0-.94-.11-1.13-.73-1.24a.52.52,0,0,1,.39-.13,2,2,0,0,1,.92.23.36.36,0,0,1,.2.29c0,.05,0,.05-.1.23a3.56,3.56,0,0,0-.28,1.34,2.5,2.5,0,0,0,1-.52.42.42,0,0,1,.22-.09,1,1,0,0,1,.34.08A.25.25,0,0,1,45,9c0,.12-.09.2-.41.35a6.3,6.3,0,0,1-1.31.44c0,.13,0,.13,0,.45s0,.64,0,1.18a6.72,6.72,0,0,1,2.39-.5c1.23,0,2,.59,2,1.54A1.53,1.53,0,0,1,46,14c-.83,0-1.43-.55-1.74-1.59l.13,0a2.69,2.69,0,0,0,.55.79,1.21,1.21,0,0,0,.85.34,1.15,1.15,0,0,0,1.13-1.24c0-.69-.47-1.07-1.34-1.07a5.9,5.9,0,0,0-2.44.65c0,1,0,1,0,1.23s0,.27,0,.34a1,1,0,0,1-.12.53.52.52,0,0,1-.43.33c-.12,0-.12,0-.67-.48a3.1,3.1,0,0,0-.61-.41.43.43,0,0,1-.29-.38.78.78,0,0,1,.27-.5,4.53,4.53,0,0,1,1.43-.93c0-.13,0-.26,0-.43,0-.41,0-.41,0-1.3a3.84,3.84,0,0,1-.7.07,1.5,1.5,0,0,1-1.34-.74Zm1,3.64a.81.81,0,0,0-.27.44q0,.13.36.27a1.68,1.68,0,0,0,.56.15c.1,0,.15-.06.16-.23,0-.81.06-1.25.06-1.3A3.75,3.75,0,0,0,41.86,12.75Zm4-4.55a2.9,2.9,0,0,1,1.33.32,1.06,1.06,0,0,1,.63.79.25.25,0,0,1-.27.27l-.14,0-.19,0a5.61,5.61,0,0,0-1.11.24l0-.09a7,7,0,0,0,1-.57,1.32,1.32,0,0,0-.56-.56,2.6,2.6,0,0,0-.63-.24Z"/><path class="cls-6" d="M50.25,9.61v5.17c0,.06,0,.08,0,.1a.89.89,0,0,1-.4.07c-.12,0-.16,0-.17-.12,0-.76,0-1.86,0-4.45,0-2.39,0-3.2,0-3.66.29.18.37.24.65.4h1.8l.34-.4c.23.17.3.23.52.42.06.05.09.09.09.11s-.07.11-.28.2v.83c0,.61,0,.61,0,1.66,0,.11-.11.14-.47.14-.07,0-.09,0-.1-.09V9.61Zm2-2.29h-2V8.2h2Zm0,1.08h-2v1h2Zm0,5.27a.11.11,0,0,1-.09.11,3.63,3.63,0,0,1-.39,0c-.09,0-.12,0-.13-.11,0-.69,0-1,0-1.88s0-.91,0-1.29c.31.2.41.25.7.46h2.14l.34-.39c.2.16.26.22.45.39s.09.09.09.11-.07.13-.28.24c0,1.42,0,1.42,0,2.13,0,.06,0,.07-.08.09a2.08,2.08,0,0,1-.41,0c-.1,0-.14,0-.14-.12v-.44H52.21Zm0-.82h2.23V11.2H52.21Zm2.23-3.24v.33c0,.09-.09.12-.42.12-.1,0-.14,0-.14-.1,0-.85,0-.85,0-2.37,0-.39,0-.54,0-.87l.56.4h2l.41-.4.51.42c.07.05.09.09.09.11s0,.1-.29.25V13c0,.53,0,.54,0,1a.62.62,0,0,1-.23.56,2.86,2.86,0,0,1-.82.29c0-.27-.09-.37-.26-.46a3.72,3.72,0,0,0-1.08-.26V14c.76.07,1,.08,1.62.1.12,0,.13,0,.13-.13V9.61Zm2-2.29h-2V8.2h2Zm0,1.08h-2v1h2Z"/><path class="cls-6" d="M58.17,11A11.5,11.5,0,0,0,60.7,8.6a8.8,8.8,0,0,0,1-1.48,3.41,3.41,0,0,0,.17-.44l.46.09c.49.1.6.13.6.21s-.11.13-.35.17a6.57,6.57,0,0,0,1.85,2,6.92,6.92,0,0,0,2.33,1.11v.13c-.38,0-.53.17-.72.59a6.73,6.73,0,0,1-2-1.46,8.94,8.94,0,0,1-1.61-2.24,10.38,10.38,0,0,1-2,2.44,8.92,8.92,0,0,1-2.14,1.46Zm2.22,3.54c0,.08,0,.11-.06.13a1.72,1.72,0,0,1-.46.05c-.1,0-.13,0-.13-.12,0-1.41,0-1.85,0-2.22,0-.71,0-1,0-1.38a6.34,6.34,0,0,1,.72.46H64.1a3.92,3.92,0,0,1,.37-.46c.25.19.33.25.57.46.08.06.09.09.09.12s-.08.12-.29.19c0,1.32,0,1.32,0,2.71v0c0,.07,0,.1-.08.11a2,2,0,0,1-.46.07c-.09,0-.13,0-.13-.11v-.42H60.39Zm0-4.69a3.65,3.65,0,0,0,.67.08h1.88l.48-.54c.32.25.43.32.75.59a.16.16,0,0,1,.07.11s0,0-.11,0H61.05a3.14,3.14,0,0,0-.6.06Zm0,4.11H64.2v-2.3H60.39Z"/><path class="cls-6" d="M70.78,11a6.18,6.18,0,0,0,1.26.64c.15,0,.27-.59.4-1.82a12.21,12.21,0,0,0-2.42.54c0,.45,0,.72,0,1.09,0,1.17.09,1.54.44,1.78a2,2,0,0,0,1.2.23,6,6,0,0,0,1.53-.21c.17-.07.18-.07.24-.07.23,0,.59.28.59.46a.21.21,0,0,1-.16.22,7,7,0,0,1-1.6.15c-1.33,0-1.89-.18-2.28-.74a2.63,2.63,0,0,1-.35-1.4c0-.27,0-.57,0-1.34a6.82,6.82,0,0,0-1.22.49.48.48,0,0,1-.24.08,1.22,1.22,0,0,1-.91-.92.71.71,0,0,1,0-.14.88.88,0,0,0,.78.43,6,6,0,0,0,1.58-.34,8.14,8.14,0,0,0-.09-1.22c0-.29-.25-.47-.71-.65A.31.31,0,0,1,69,8.21a2.19,2.19,0,0,1,.87.25.49.49,0,0,1,.33.42.77.77,0,0,1,0,.23,2.27,2.27,0,0,0,0,.34A3.8,3.8,0,0,1,70,10c1.11-.27,1.42-.33,2.45-.52,0-.32,0-.86,0-1.28a.78.78,0,0,0-.3-.73,1.09,1.09,0,0,0-.45-.24.28.28,0,0,1,.24-.1,2.16,2.16,0,0,1,.88.25c.23.11.36.25.36.41s0,.08-.08.29A7.45,7.45,0,0,0,73,9.42l.53-.1a3.8,3.8,0,0,0,.59-.16.85.85,0,0,1,.28-.07,1.56,1.56,0,0,1,.61.22c.2.11.25.17.25.27a.21.21,0,0,1-.22.18h-.2l-.75,0L72.9,9.8a12.74,12.74,0,0,1-.26,1.85c-.14.45-.41.73-.68.73-.11,0-.17,0-.22-.22a1.21,1.21,0,0,0-.32-.42L71,11.37l-.28-.25Z"/><path class="cls-6" d="M77.16,13.56c0,.11,0,.14-.29.15H76.7a.12.12,0,0,1-.13-.12c0-1.14,0-2.26,0-4.19,0-1,0-1.45,0-2.32a6.51,6.51,0,0,1,.64.43h1.13c.14-.17.18-.22.34-.39l.48.39c.07.06.1.09.1.13s-.1.14-.31.24V9.61c0,.86,0,2.06,0,3.61a.12.12,0,0,1-.08.11,1.84,1.84,0,0,1-.38,0c-.08,0-.11,0-.12-.1v-.51H77.16Zm1.22-5.83H77.16V9.94h1.22Zm-1.22,2.42v2.41h1.22V10.15Zm6,.9h.21l.49-.57c.29.27.39.36.65.63,0,0,.07.06.07.09s-.06.06-.11.06H83.12v1.4c0,.11,0,.86,0,1.17s0,.49-.11.61-.33.24-.87.35a.58.58,0,0,0-.25-.47,2.23,2.23,0,0,0-.94-.23V14L82.4,14c.1,0,.13,0,.13-.13V11.26H80.14a3.14,3.14,0,0,0-.86.07L79.2,11a3.73,3.73,0,0,0,1,.09h2.38V9.84H80a3,3,0,0,0-.84.07l-.06-.34a4,4,0,0,0,.9.06h1.17V8.19H80a2.27,2.27,0,0,0-.67.07L79.3,7.9A3,3,0,0,0,80,8h1.12V7.32c0-.16,0-.3,0-.7.86.09,1,.13,1,.22s-.1.12-.39.2V8h1.06l.48-.6c.32.28.42.37.72.66,0,0,.07.07.07.09s-.06.06-.11.06H81.76V9.63h1.47L83.71,9l.79.66.06.07s0,.07-.1.07H83.12ZM80,11.64a4.71,4.71,0,0,1,1.07.6c.26.19.38.35.38.53s-.15.6-.27.6-.13-.07-.21-.23a4.76,4.76,0,0,0-1-1.42Z"/><path class="cls-6" d="M86.26,9.49v5.23c0,.06,0,.08-.09.1a2.08,2.08,0,0,1-.43,0c-.08,0-.11,0-.12-.09,0-.77,0-2.2,0-4.46s0-3.14,0-3.65l.64.4h1.85c.16-.18.22-.23.36-.4l.48.4c.06.06.08.09.08.12s-.07.12-.26.23v1c0,.46,0,.76,0,1.31,0,.07,0,.1-.05.12a2.07,2.07,0,0,1-.45,0c-.06,0-.08,0-.11-.09V9.49Zm1.92-2.22H86.26v.88h1.92Zm0,1.09H86.26v.92h1.92Zm0,5.58c0,.06,0,.07-.08.09a1.84,1.84,0,0,1-.37.05c-.08,0-.11,0-.12-.09,0-.74,0-1.15,0-1.54,0-1.07,0-1.9,0-2.24l.67.38h2.11l.38-.35a5.2,5.2,0,0,1,.44.38c.09.06.1.09.1.13s0,.08-.29.21v1c0,.61,0,1,0,1.66h0c0,.08,0,.1-.08.12a1.62,1.62,0,0,1-.38,0c-.08,0-.12,0-.13-.08v-.32H88.18Zm2.27-3.14H88.18v1h2.27ZM88.18,12v1.17h2.27V12Zm2.27-2.52v.23c0,.11-.09.13-.33.13s-.26,0-.26-.11c0-.57,0-.85,0-1.35,0-1.3,0-1.37,0-1.72a7,7,0,0,1,.65.39h1.88l.37-.4.54.4c.08.07.1.09.1.13s0,.08-.28.26v4.33c0,1.5,0,1.5,0,2.35,0,.41-.19.53-1,.7a.73.73,0,0,0-.31-.41,1.46,1.46,0,0,0-.48-.14l-.52-.09v-.13c.73,0,.91,0,1.47.06.14,0,.16,0,.16-.12V9.49Zm2-2.22h-2v.88h2Zm0,1.09h-2v.92h2Z"/><path class="cls-6" d="M99,9a.62.62,0,0,1-.63.64A.63.63,0,0,1,97.73,9,.64.64,0,0,1,99,9Zm0,3.52a.64.64,0,1,1-.63-.63A.62.62,0,0,1,99,12.5Z"/><path class="cls-6" d="M105.28,11.55a2.11,2.11,0,0,1-1.46-.56,2.15,2.15,0,0,1-.52-1.45,2.08,2.08,0,0,1,2.17-2.2c1.43,0,2.2,1.05,2.2,3a4.67,4.67,0,0,1-.8,3,2,2,0,0,1-1.56.68c-.94,0-1.76-.48-1.76-1,0-.29.19-.46.52-.46s.38.08.4.36c0,.63.32.93.84.93s1.06-.42,1.3-1.24a6.66,6.66,0,0,0,.21-1.71A2,2,0,0,1,105.28,11.55Zm1.21-3.32a1.15,1.15,0,0,0-2-.07,2.93,2.93,0,0,0-.28,1.35c0,1.11.48,1.79,1.26,1.79a1.37,1.37,0,0,0,1-.39,1.54,1.54,0,0,0,.46-1.2A3.2,3.2,0,0,0,106.49,8.23Z"/><path class="cls-6" d="M110.2,9.83a.64.64,0,1,1-.63-.63A.62.62,0,0,1,110.2,9.83Zm0,3.52a.64.64,0,1,1-.63-.63A.62.62,0,0,1,110.2,13.35Z"/><path class="cls-6" d="M111.89,8.34a2,2,0,0,1,3.48,0,5,5,0,0,1,.51,2.33,5.12,5.12,0,0,1-.51,2.34,2,2,0,0,1-3.48,0,5,5,0,0,1-.52-2.34A5,5,0,0,1,111.89,8.34Zm1.74,5.43c1,0,1.39-.94,1.39-3.1s-.42-3.09-1.39-3.09-1.38.95-1.38,3.1S112.67,13.77,113.63,13.77Z"/><path class="cls-6" d="M117.18,8.34a2,2,0,0,1,3.48,0,4.89,4.89,0,0,1,.52,2.33,5,5,0,0,1-.52,2.34,2,2,0,0,1-3.48,0,5.12,5.12,0,0,1-.51-2.34A5.07,5.07,0,0,1,117.18,8.34Zm1.74,5.43c1,0,1.39-.94,1.39-3.1s-.42-3.09-1.39-3.09-1.38.95-1.38,3.1S118,13.77,118.92,13.77Z"/><path class="cls-6" d="M122.08,11c.69-1,1.34-1.41,2.09-1.41.5,0,1,.18,2.29,1a4.26,4.26,0,0,0,1.93.79,1.32,1.32,0,0,0,.72-.27,3,3,0,0,0,.73-.78l.21.13a3.38,3.38,0,0,1-.83,1.06,1.57,1.57,0,0,1-1.15.49,2.32,2.32,0,0,1-.58-.08A6.9,6.9,0,0,1,125.8,11a4.72,4.72,0,0,0-2.08-.83,2.32,2.32,0,0,0-1.44,1Z"/><path class="cls-6" d="M132,13.61a1.85,1.85,0,0,0,.6-.09c.2-.09.24-.28.24-.93V8.8c0-.78,0-.78-.09-.85s-.18-.08-.4-.08H132V7.61a9.58,9.58,0,0,0,1.71-.23c0,.71-.07,1.47-.07,2.54v2.67c0,.6,0,.78.16.89s.15.1.66.13v.26H132Z"/><path class="cls-6" d="M140.72,12.25c0,1.08-.87,1.76-2.25,1.76s-2.18-.64-2.18-1.66A1.71,1.71,0,0,1,137,11a4,4,0,0,1,.86-.44,4.34,4.34,0,0,1-.8-.48A1.27,1.27,0,0,1,136.56,9a1.65,1.65,0,0,1,.34-1,2.19,2.19,0,0,1,1.66-.65,2,2,0,0,1,1.65.73,1.44,1.44,0,0,1,.25.87,1.25,1.25,0,0,1-.52,1.06,2.1,2.1,0,0,1-.82.4C140.21,10.84,140.72,11.43,140.72,12.25Zm-3.23-1.14a1.55,1.55,0,0,0-.52,1.18,1.44,1.44,0,0,0,1.57,1.48A1.33,1.33,0,0,0,140,12.44a1.24,1.24,0,0,0-.66-1.07,5.16,5.16,0,0,0-.83-.45l-.36-.17A1.65,1.65,0,0,0,137.49,11.11ZM139.81,9a1.24,1.24,0,0,0-1.34-1.37,1.14,1.14,0,0,0-1.24,1.19c0,.48.2.77.75,1.08a3.87,3.87,0,0,0,.64.3c.06,0,.15.07.26.14A1.36,1.36,0,0,0,139.81,9Z"/><path class="cls-6" d="M143.2,9.83a.64.64,0,1,1-.63-.63A.62.62,0,0,1,143.2,9.83Zm0,3.52a.64.64,0,1,1-.63-.63A.62.62,0,0,1,143.2,13.35Z"/><path class="cls-6" d="M144.88,8.34a2,2,0,0,1,3.49,0,5,5,0,0,1,.51,2.33,5.12,5.12,0,0,1-.51,2.34,2,2,0,0,1-3.49,0,5.12,5.12,0,0,1-.51-2.34A5.07,5.07,0,0,1,144.88,8.34Zm1.75,5.43c1,0,1.38-.94,1.38-3.1s-.42-3.09-1.38-3.09-1.39.95-1.39,3.1S145.66,13.77,146.63,13.77Z"/><path class="cls-6" d="M150.17,8.34a2,2,0,0,1,3.49,0,5,5,0,0,1,.51,2.33,5.12,5.12,0,0,1-.51,2.34,1.91,1.91,0,0,1-1.74,1,1.93,1.93,0,0,1-1.75-1,5.12,5.12,0,0,1-.51-2.34A5.07,5.07,0,0,1,150.17,8.34Zm1.75,5.43c1,0,1.39-.94,1.39-3.1s-.43-3.09-1.39-3.09-1.39.95-1.39,3.1S151,13.77,151.92,13.77Z"/></g></g></svg>