<svg xmlns="http://www.w3.org/2000/svg" width="230.56" height="36.52" viewBox="0 0 230.56 36.52"><defs><style>.cls-1,.cls-7{fill:#fff;}.cls-1{stroke:#fff;stroke-width:0.78px;}.cls-2{fill:#f09dc1;}.cls-3{fill:#009e5a;}.cls-4{fill:#c28600;}.cls-5{fill:#fff362;}.cls-6{fill:#00b8ee;}</style></defs><title>header_logo</title><g id="レイヤー_2" data-name="レイヤー 2"><g id="レイヤー_1-2" data-name="レイヤー 1"><path class="cls-1" d="M36.14,18.26A17.88,17.88,0,1,1,18.26.39,17.88,17.88,0,0,1,36.14,18.26Z"/><path class="cls-2" d="M36.14,18.26A17.88,17.88,0,1,1,18.26.39,17.88,17.88,0,0,1,36.14,18.26Z"/><path class="cls-3" d="M18.26,3.35c-2.64,0-4.79,6.68-4.79,14.91s2.15,14.92,4.79,14.92,4.79-6.68,4.79-14.92S20.91,3.35,18.26,3.35Zm0,26.48c-2.26,0-4.09-5.18-4.09-11.57S16,6.7,18.26,6.7s4.1,5.18,4.1,11.56S20.53,29.83,18.26,29.83Z"/><path class="cls-4" d="M3.35,18.26c0,2.65,6.68,4.79,14.91,4.79s14.92-2.14,14.92-4.79-6.68-4.79-14.92-4.79S3.35,15.62,3.35,18.26Zm26.48,0c0,2.27-5.18,4.1-11.57,4.1S6.7,20.53,6.7,18.26s5.18-4.09,11.56-4.09S29.83,16,29.83,18.26Z"/><path class="cls-5" d="M7.72,7.72c-1.87,1.87,1.33,8.11,7.16,13.93s12.06,9,13.93,7.16-1.34-8.11-7.16-13.94S9.59,5.84,7.72,7.72ZM26.44,26.44c-1.6,1.6-6.56-.76-11.07-5.28s-6.88-9.47-5.28-11.07,6.56.76,11.07,5.27S28,24.84,26.44,26.44Z"/><path class="cls-6" d="M14.88,14.87c-5.83,5.83-9,12.07-7.16,13.94s8.11-1.34,13.93-7.16,9-12.06,7.16-13.93S20.7,9.05,14.88,14.87Zm.49.49c4.51-4.51,9.47-6.87,11.07-5.27s-.76,6.56-5.28,11.07S11.69,28,10.09,26.44,10.85,19.88,15.37,15.36Z"/><path class="cls-7" d="M15,17.16h.68V18l.71-.83h.91l-.8.83.83,1.37h-.83l-.47-.9-.35.37v.53H15Z"/><path class="cls-7" d="M17.58,17.16h1.68v.48h-1V18h.86v.44h-.86v.9h-.68Z"/><path class="cls-7" d="M19.51,18.64l.64,0a.67.67,0,0,0,.09.24.38.38,0,0,0,.3.13.33.33,0,0,0,.23-.07.23.23,0,0,0,.08-.16.19.19,0,0,0-.08-.15.81.81,0,0,0-.35-.13,1.42,1.42,0,0,1-.64-.27.56.56,0,0,1-.09-.74.62.62,0,0,1,.3-.24,1.32,1.32,0,0,1,.54-.09,1.14,1.14,0,0,1,.64.16.65.65,0,0,1,.26.5l-.64,0a.31.31,0,0,0-.11-.22.36.36,0,0,0-.22-.07.3.3,0,0,0-.18,0,.18.18,0,0,0-.06.13.14.14,0,0,0,.05.09.48.48,0,0,0,.23.08,3.06,3.06,0,0,1,.64.2.61.61,0,0,1,.28.24.63.63,0,0,1,.09.33.69.69,0,0,1-.12.39.73.73,0,0,1-.33.27,1.36,1.36,0,0,1-.53.09,1.14,1.14,0,0,1-.78-.21A.9.9,0,0,1,19.51,18.64Z"/><path class="cls-2" d="M217.73,12.1h1.2a9.72,9.72,0,0,0,1.2-.06v1.57a8.39,8.39,0,0,0-1.21-.07h-.76a6.19,6.19,0,0,0,1,1.3,5.38,5.38,0,0,0,1.25.9,8.12,8.12,0,0,0-.77,1.62,6.72,6.72,0,0,1-2-2.37c0,.32,0,.65,0,.91v.72a12.1,12.1,0,0,0,.06,1.3h-1.62a12.36,12.36,0,0,0,.06-1.3V16c0-.28,0-.58,0-1a6.78,6.78,0,0,1-2.12,2.29,6.38,6.38,0,0,0-.83-1.38v.65a12.23,12.23,0,0,0,.06,1.32h-1.62a12.5,12.5,0,0,0,.06-1.32V15.21c0-.22,0-.62,0-1a5.64,5.64,0,0,1-.8,1.65,8.14,8.14,0,0,0-.5-1.74,7.06,7.06,0,0,0,1.15-2.71h-.23a2.94,2.94,0,0,0-.66.05V10a2.34,2.34,0,0,0,.66.06h.33V9.34a7.2,7.2,0,0,0-.06-1.06h1.63a7.29,7.29,0,0,0-.06,1.06V10h.18a1.65,1.65,0,0,0,.47,0v.72a6.44,6.44,0,0,0,.57-2.15l1.42.36c0,.13-.08.26-.16.6l-.06.26h.5V9.32a7.32,7.32,0,0,0-.06-1h1.64a7.12,7.12,0,0,0-.06,1v.43h.93a9.22,9.22,0,0,0,1.19-.06v1.56a10.3,10.3,0,0,0-1.2-.06h-.92Zm-4.44,3.79a6.36,6.36,0,0,0,1.34-1,5.7,5.7,0,0,0,1.07-1.36h-.34a6.44,6.44,0,0,0-1.2.08V13a11.58,11.58,0,0,0-.44,1.23,3.2,3.2,0,0,1-.45-.86c0,.28,0,.67,0,1Zm.87-3.86a3.71,3.71,0,0,0,.53.06,5.56,5.56,0,0,0-.75-.63h0a2,2,0,0,0-.44,0h-.18a4,4,0,0,0,.84,1.35Zm1.1-.84a5.56,5.56,0,0,1-.42.9h1.37v-.91Z"/><path class="cls-2" d="M222.45,13.63c-.37,0-.81,0-1.13,0V12.19a10.89,10.89,0,0,0,1.17.06h2.31a10.62,10.62,0,0,0,1.15-.06v1.48c-.32,0-.76,0-1.14,0h-.4v1.89c.65-.11,1-.2,1.91-.4v1.45c-1.91.44-2.89.62-4.42.85-.34,0-.5.07-.71.12l-.22-1.6a13.53,13.53,0,0,0,1.91-.19V13.63Zm6.85-3.8a5.87,5.87,0,0,0,1-.05v1.56a9.39,9.39,0,0,0-1.33-.07h-1.17a11.55,11.55,0,0,0,.5,3.14,4.51,4.51,0,0,0,.71,1.46,5.14,5.14,0,0,0,.29-1.5,5.94,5.94,0,0,0,1.27.76,5.68,5.68,0,0,1-.59,2.11,1,1,0,0,1-.86.57c-.6,0-1.27-.59-1.79-1.59a12,12,0,0,1-1.11-4.95h-3.89a11.37,11.37,0,0,0-1.33.07V9.77a11.68,11.68,0,0,0,1.33.06h3.84a11.65,11.65,0,0,0-.08-1.44h1.69a3.78,3.78,0,0,0,0,.6c0,.1,0,.31,0,.84h.94A5.29,5.29,0,0,0,227.9,9l1.16-.59A7.83,7.83,0,0,1,230,9.42l-.8.41Z"/><path class="cls-2" d="M212.7,22.17a9.05,9.05,0,0,1-1.43.7,6.88,6.88,0,0,0-.76-1.51,7.7,7.7,0,0,0,2.35-1.12,6,6,0,0,0,1.72-1.66h1.65A5.89,5.89,0,0,0,218,20.16a8.76,8.76,0,0,0,2.45,1.13,6.81,6.81,0,0,0-.72,1.62,9.72,9.72,0,0,1-1.52-.75v.59a7,7,0,0,0-1-.05h-3.52a7.49,7.49,0,0,0-1,.05Zm-.45,2.55a10.87,10.87,0,0,0-1.25.06V23.22c.36,0,.77.05,1.25.05h6.42c.49,0,.87,0,1.23-.05v1.56a10.5,10.5,0,0,0-1.23-.06h-1a21.22,21.22,0,0,1,2.16,2.64l-1.41.87-.48-.76-1.75.18c-.67.08-3.43.31-3.86.33s-.65.06-.9.1l-.2-1.7c.27,0,.45,0,.68,0l.71,0a12.17,12.17,0,0,0,.89-1.67Zm4.62-3.4A7.12,7.12,0,0,1,215.44,20,6.83,6.83,0,0,1,214,21.32Zm-1.58,3.4a11.87,11.87,0,0,1-.89,1.61c1.5-.06,1.5-.06,2.56-.15-.29-.35-.43-.51-.87-1l1.21-.48Z"/><path class="cls-2" d="M223.83,27a10.1,10.1,0,0,0,0,1.08h-1.64a7.85,7.85,0,0,0,.06-1.12V24.92a6.59,6.59,0,0,1-.91.65,5.45,5.45,0,0,0-.65-1.54,6.23,6.23,0,0,0,1.6-1.16,4.59,4.59,0,0,0,1.06-1.42H222a7,7,0,0,0-.89,0V20a5.39,5.39,0,0,0,.78,0h.47v-.75a4.92,4.92,0,0,0-.07-.78h1.63a4.56,4.56,0,0,0-.05.79V20h.27a3.77,3.77,0,0,0,.6,0l.66.71a3.54,3.54,0,0,0-.23.48,8.64,8.64,0,0,1-.92,1.67,4.91,4.91,0,0,0,1.63,1.22,7.37,7.37,0,0,0-.76,1.47,4.74,4.74,0,0,1-1.24-1.06Zm4.51-.72h.82a10.86,10.86,0,0,0,1.24-.05v1.61c-.43,0-.83-.06-1.23-.06h-3.33a11.85,11.85,0,0,0-1.19.06V26.27a11.13,11.13,0,0,0,1.22.05h.85V22.58h-.53c-.35,0-.67,0-1,.05V21.05a6.8,6.8,0,0,0,1,.05h.53V19.72a9.17,9.17,0,0,0-.07-1.21h1.75a8.63,8.63,0,0,0-.06,1.21V21.1h.81a6.87,6.87,0,0,0,1-.05v1.58c-.34,0-.66-.05-1-.05h-.81Z"/><path class="cls-2" d="M50.66,15.48a18.9,18.9,0,0,1-1.54,6.37A12.79,12.79,0,0,1,46,26a12.08,12.08,0,0,1-2.32,1.73A11.24,11.24,0,0,0,41.4,25,11.4,11.4,0,0,0,44.08,23a9.76,9.76,0,0,0,3-5.34,15.8,15.8,0,0,0,.37-2.22H45.24a24.3,24.3,0,0,0-2.8.12V12.22a24.18,24.18,0,0,0,2.8.12h2.39c0-.73,0-1.26,0-1.64a20.93,20.93,0,0,0-.12-2.45H51a16.54,16.54,0,0,0-.12,2.1c0,.87,0,1.39,0,2H54a27.85,27.85,0,0,0,2.79-.12,20,20,0,0,0-.11,2.43l-.08,9.24c0,.39.08.45.64.45h.09a1.74,1.74,0,0,1,.29,0c.27,0,.31-.14.41-1a28.65,28.65,0,0,0,.21-3.53,9.15,9.15,0,0,0,3,1.08,17.93,17.93,0,0,1-.62,4.94c-.44,1.1-1.31,1.43-3.89,1.43-1.86,0-2.74-.21-3.09-.79a2.47,2.47,0,0,1-.23-1.33l.09-9.67Z"/><path class="cls-2" d="M65.66,13.48a34.8,34.8,0,0,1-.88,6.27l-2.7-1a19.84,19.84,0,0,0,1-5.84Zm4.46,6.25a38.15,38.15,0,0,0-1-4.19c-.08,4.17-.35,5.79-1.26,7.83a12.75,12.75,0,0,1-3.1,4.3A8,8,0,0,0,62.48,25a9.48,9.48,0,0,0,2.37-2.85,12.72,12.72,0,0,0,1.2-5.69L66.11,11v-.14c0-.81-.06-1.93-.14-2.64h3.26A18.65,18.65,0,0,0,69.12,11v2.8l1.69-.81c.58,1.46.78,2,1.18,3.33V11.76a17,17,0,0,0-.13-2.7h3.37a16.24,16.24,0,0,0-.13,2.68v1.95l1.58-.91c.62,1.39,1,2.2,1.41,3.49V11.08A21.81,21.81,0,0,0,78,8.21h3.34a21.94,21.94,0,0,0-.14,2.89V24.57a22.16,22.16,0,0,0,.14,2.95H78a23.25,23.25,0,0,0,.14-3v-6l-1.72,1.12a36.23,36.23,0,0,0-1.27-4.28V23.1a17.8,17.8,0,0,0,.15,2.9H71.84A19.78,19.78,0,0,0,72,23.1V18.7Z"/><path class="cls-2" d="M85.36,21.15a15.09,15.09,0,0,1-1.43,1.2A12.57,12.57,0,0,0,82.73,19a12.77,12.77,0,0,0,2.78-2.45,9.74,9.74,0,0,0,1.66-2.64H85a13.87,13.87,0,0,0-1.72.08V11a10.58,10.58,0,0,0,1.53.08h.5V9.58A12.86,12.86,0,0,0,85.24,8H88.5a12.94,12.94,0,0,0-.1,1.6V11a5.42,5.42,0,0,0,1-.06l1.37,1.77c-.14.29-.16.35-.49,1.14a19.39,19.39,0,0,1-1.64,3.2,8.37,8.37,0,0,0,1.64,1.43c0-.42,0-.48-.07-.81.69.06,1.17.08,2.18.08H100a20.52,20.52,0,0,0,2.22-.08c-.06.73-.08,1.24-.08,2.3v5.34a15.5,15.5,0,0,0,.1,2.2H99v-.7H93.32v.68H90.24a14.16,14.16,0,0,0,.11-2.2V19.17a8.46,8.46,0,0,0-1,2.37,11.57,11.57,0,0,1-.95-1v4.8a17.16,17.16,0,0,0,.1,2.28H85.26c.06-.7.1-1.53.1-2.34ZM90.08,8.46c.72.06,1.47.1,2.47.1h7.54a17.75,17.75,0,0,0,2.38-.1v2.86a13.72,13.72,0,0,0-2-.1H92.11a13.8,13.8,0,0,0-2,.1Zm1,4.8A10.42,10.42,0,0,0,91,11.8c.62,0,1.16.06,2.1.06h6.5c.85,0,1.34,0,2-.06a9.7,9.7,0,0,0-.08,1.43v2.45a10.06,10.06,0,0,0,.08,1.46c-.58,0-1.1-.06-2.06-.06H93c-.92,0-1.5,0-2.08.06A10.06,10.06,0,0,0,91,15.71Zm2.33,7.91h1.47v-1H93.36Zm0,3.17h1.47v-1H93.36ZM94,15h4.4v-.87H94Zm3.61,6.21h1.48v-1H97.57Zm0,3.17h1.48v-1H97.57Z"/><path class="cls-2" d="M109.64,25c0,1,0,1.91.1,2.63h-3.28a22.75,22.75,0,0,0,.13-2.63V20.81c-.67.58-1,.85-1.83,1.46a13,13,0,0,0-1.14-3.33,13.56,13.56,0,0,0,2.78-2.22,10.73,10.73,0,0,0,2-2.84h-2.36a16.3,16.3,0,0,0-1.81.1V11a12.18,12.18,0,0,0,1.62.08h.75V9.6A11.69,11.69,0,0,0,106.5,8h3.24a9.08,9.08,0,0,0-.1,1.6V11h.21a7.46,7.46,0,0,0,1.2-.06l1.37,1.37a6.69,6.69,0,0,0-.48,1,18.28,18.28,0,0,1-1.66,3.16,10.55,10.55,0,0,0,2.08,1.95V14.4a7.28,7.28,0,0,0-.1-1.37h3.26a18.25,18.25,0,0,0-.11,2.51v8.6h1.25v-13a20.71,20.71,0,0,0-.13-2.79h3.35a17.88,17.88,0,0,0-.13,2.79v3.22H121a13.43,13.43,0,0,0,2-.11v3.18a14.19,14.19,0,0,0-2-.1h-1.27v6.81h1.58a15.47,15.47,0,0,0,2.16-.11v3.14a28,28,0,0,0-2.8-.13h-7.42a28.11,28.11,0,0,0-2.82.13V24.05a12.86,12.86,0,0,0,1.7.09h.21V19.21a16.18,16.18,0,0,0-1.1,2.29,10.18,10.18,0,0,1-1.62-1.62Z"/><path class="cls-2" d="M136.68,12.53V11.16a14.27,14.27,0,0,0-.11-2.33h3.74a27.46,27.46,0,0,0-.1,3.7H141a17.6,17.6,0,0,0,3-.15v3.55c-1-.08-1.58-.1-2.93-.1h-.91c0,1.64-.07,2.1-.15,2.89A8.92,8.92,0,0,1,137,25a12.69,12.69,0,0,1-4.3,2.34,10,10,0,0,0-2.26-3.17,11,11,0,0,0,4-1.83c1.42-1.12,2-2.47,2.18-4.8,0-.37,0-.52.05-1.7h-4.39v2.33a16.63,16.63,0,0,0,.09,2.13h-3.8a15.93,15.93,0,0,0,.12-2.18V15.83h-.77a25.42,25.42,0,0,0-2.92.1V12.38a17.53,17.53,0,0,0,3,.15h.7V11a14.57,14.57,0,0,0-.12-2.2h3.8a13.79,13.79,0,0,0-.09,2.12v1.6Z"/><path class="cls-2" d="M146.05,15.77a30.37,30.37,0,0,0,4.25.18h9.93a35.29,35.29,0,0,0,4.25-.18v4a37.84,37.84,0,0,0-4.27-.13h-9.89a41.34,41.34,0,0,0-4.27.13Z"/><path class="cls-2" d="M183.51,14.54c-.5.25-.54.27-1,.5a37.44,37.44,0,0,1-9.88,3.22v2.32a5.1,5.1,0,0,0,.08,1.6c.12.4.39.56,1,.65a19.14,19.14,0,0,0,2.21.12c1.18,0,2.8-.08,4-.21a18.16,18.16,0,0,0,3.58-.66l.14,3.84a20.55,20.55,0,0,0-2.14.15c-2.07.18-4.4.31-6.06.31-2.84,0-4.28-.25-5.23-.92A3,3,0,0,1,169,23.22,17.13,17.13,0,0,1,169,21V12a21.93,21.93,0,0,0-.12-2.76h3.88a16.93,16.93,0,0,0-.12,2.78v2.8a28.83,28.83,0,0,0,7.91-3,12.64,12.64,0,0,0-1.42-2.51l2.06-.66a13.58,13.58,0,0,1,1.72,3.17l-1,.38Zm.54-6.81a15.14,15.14,0,0,1,1.72,3.1l-2,.72a16.39,16.39,0,0,0-1.7-3.17Z"/><path class="cls-2" d="M203.4,27a33.3,33.3,0,0,0-6-5.9,22.32,22.32,0,0,1-7.64,5.69,11.08,11.08,0,0,0-2.32-3.28,19.76,19.76,0,0,0,6.72-4.19,16.81,16.81,0,0,0,4.18-6.11l-5.4.09a25.48,25.48,0,0,0-3.3.2l-.11-3.69a16,16,0,0,0,2.18.14l1.17,0,7.1-.1a3.77,3.77,0,0,0,1.66-.23l1.83,1.87a3.16,3.16,0,0,0-.75,1.22,24.57,24.57,0,0,1-3,5.61,48.79,48.79,0,0,1,6.6,5.63Z"/><path class="cls-2" d="M41.35,33.24c0-.17,0-.31,0-.76a4,4,0,0,1-.51.71,3.93,3.93,0,0,0-.3-.8,5.28,5.28,0,0,0,1.09-1.76,4.57,4.57,0,0,0,.26-.86l.76.19a9.92,9.92,0,0,1-.59,1.46v3.73a4.67,4.67,0,0,0,.05.77h-.82a4.54,4.54,0,0,0,0-.77Zm3.41-2.12a6.85,6.85,0,0,0-1.32-.83L44,29.8a7.68,7.68,0,0,1,1.4.82l-.5.5h1a5.63,5.63,0,0,0,.79,0v.75c-.23,0-.48,0-.77,0h-1V33h.82a5.31,5.31,0,0,0,.74,0v.73c-.21,0-.45,0-.73,0h-.83V35H46a6.11,6.11,0,0,0,.79,0v.75c-.24,0-.47,0-.8,0H43.08c-.32,0-.54,0-.79,0V35a5.88,5.88,0,0,0,.77,0h1.07V33.62h-.7c-.28,0-.51,0-.73,0v-.73a5.07,5.07,0,0,0,.73,0h.7V31.8h-.87c-.28,0-.52,0-.75,0v-.75a3.79,3.79,0,0,0,.75,0Z"/><path class="cls-2" d="M56.06,32.53l-1.63.24a3.13,3.13,0,0,0-.3-.68,17.79,17.79,0,0,0,2.72-.37,4.93,4.93,0,0,0,1.42-.49l.62.6c-.2.05-.26.06-.51.14a16.4,16.4,0,0,1-1.59.42v.7l2.28-.24a6.62,6.62,0,0,0,.71-.13l.08.76h-.12l-.61,0-2.34.25v1.11c0,.16,0,.2.19.24a6.31,6.31,0,0,0,.81,0A2.65,2.65,0,0,0,58.88,35c.11-.09.15-.26.17-.9a2.07,2.07,0,0,0,.73.27,2.34,2.34,0,0,1-.15.86.73.73,0,0,1-.59.49,6.07,6.07,0,0,1-1.35.08c-1.4,0-1.63-.11-1.63-.75V33.84L54.61,34a6.69,6.69,0,0,0-.72.12l-.07-.75H54l.6,0,1.51-.17Zm.33-2.32a1.67,1.67,0,0,0,0-.39h.82a1.67,1.67,0,0,0,0,.39v.21H59a7.39,7.39,0,0,0,.74,0,3.16,3.16,0,0,0,0,.5v.5a3.78,3.78,0,0,0,0,.51H59v-.8h-4.3v.8H54a2.55,2.55,0,0,0,0-.52v-.49a3.53,3.53,0,0,0,0-.5,7,7,0,0,0,.73,0h1.7Z"/><path class="cls-2" d="M67.65,30.68a4.54,4.54,0,0,0-.6,0V30c.2,0,.41,0,.71,0h1.79a6.12,6.12,0,0,0,.71,0v.71a3.85,3.85,0,0,0-.57,0v.66h0a5.47,5.47,0,0,0,.64,0V32a5.18,5.18,0,0,0-.63,0h-.06v.64c0,.24,0,.34,0,.52h.55a1.68,1.68,0,0,0,0,.42v.21h1.33a6.49,6.49,0,0,0,.78,0v.72c-.2,0-.44,0-.77,0H70.22v.6h1.87a7.33,7.33,0,0,0,.78,0v.74c-.23,0-.48,0-.84,0H67.74c-.35,0-.6,0-.82,0V35a7.29,7.29,0,0,0,.76,0h1.79v-.6H68.22c-.31,0-.55,0-.76,0v-.72a3.82,3.82,0,0,0,.68,0h1.33v-.42H69a5.16,5.16,0,0,0,0-.73V32h-.65a2.55,2.55,0,0,1-.24.84,2.41,2.41,0,0,1-.71.84,2.12,2.12,0,0,0-.53-.55A1.55,1.55,0,0,0,67.62,32h-.1a5.41,5.41,0,0,0-.63,0v-.73a4.23,4.23,0,0,0,.65,0h.15c0-.05,0-.27,0-.66Zm.75,0v.66H69v-.66Zm2.19,1.85a4,4,0,0,0,0-.53V30.69a4,4,0,0,0,0-.54h.76a3.34,3.34,0,0,0,0,.5v1.4c0,.21,0,.35,0,.48Zm2.09.22c0,.57-.18.69-1,.69a5.24,5.24,0,0,1-.55,0,2.3,2.3,0,0,0-.19-.73,5,5,0,0,0,.7.06c.25,0,.27,0,.27-.15V30.42a3.1,3.1,0,0,0,0-.57h.8a4.57,4.57,0,0,0,0,.62Z"/><path class="cls-2" d="M81.21,32.93a6.94,6.94,0,0,1-1,.84,2,2,0,0,0-.45-.64,6.24,6.24,0,0,0,1.12-.92,4.6,4.6,0,0,0,.79-1h-.94a5.82,5.82,0,0,0-.79,0v-.74a6,6,0,0,0,.8,0H82a3.44,3.44,0,0,0,.19-.71l.83.09a2.53,2.53,0,0,0-.15.37c0,.08,0,.11-.09.25h2.37a5.66,5.66,0,0,0,.78,0v.74a5.85,5.85,0,0,0-.78,0H82.51c-.12.22-.2.35-.33.56h2.28a6,6,0,0,0,.69,0,7.56,7.56,0,0,0,0,.76v2.77a.58.58,0,0,1-.25.54,1.81,1.81,0,0,1-.78.11l-.61,0a2.18,2.18,0,0,0-.17-.7,5.19,5.19,0,0,0,.77.06c.29,0,.33,0,.33-.19v-.5H81.93v.56c0,.36,0,.59,0,.83h-.79a6.67,6.67,0,0,0,0-.83Zm3.2-.56H81.93v.48h2.48Zm-2.48,1.07v.5h2.48v-.5Z"/><path class="cls-2" d="M95.57,34.14c0,.09,0,.12-.07.23a4.9,4.9,0,0,1-.68-.94,6.67,6.67,0,0,1,0,.76v1.09a4.39,4.39,0,0,0,0,.7h-.77a3.76,3.76,0,0,0,.05-.71v-.86c0-.26,0-.57,0-.79a4.6,4.6,0,0,1-.87,1.49,1.81,1.81,0,0,0-.34-.68,4.21,4.21,0,0,0,.72-1,4.58,4.58,0,0,0,.35-.75h-.34a3.05,3.05,0,0,0-.6,0V32a3.05,3.05,0,0,0,.6,0h.44V30.48a3.78,3.78,0,0,0,0-.65h.76a3.39,3.39,0,0,0,0,.64v1.58h.32a3.56,3.56,0,0,0,.51,0v.69a3.79,3.79,0,0,0-.53,0h-.24a3.7,3.7,0,0,0,.86,1,4.05,4.05,0,0,0-.18.37,3.32,3.32,0,0,0,.61-.09l1.55-.35v-3a3.86,3.86,0,0,0,0-.77h.81a3.91,3.91,0,0,0,0,.76v2.88a4.06,4.06,0,0,0,.56-.16l.14.76a4.29,4.29,0,0,0-.64.11l-.06,0v1a4.14,4.14,0,0,0,0,.78h-.81a4.09,4.09,0,0,0,0-.79v-.8l-1.41.32c-.29.06-.48.12-.63.16Zm-1.92-3.95a8.12,8.12,0,0,1,.4,1.44l-.55.24a5.35,5.35,0,0,0-.42-1.42Zm2.28.24a8.08,8.08,0,0,1-.53,1.44l-.49-.25a5.55,5.55,0,0,0,.46-1.44Zm.33,1.51a6.13,6.13,0,0,1,1.16,1l-.46.54a5.41,5.41,0,0,0-1.17-1Zm.21-1.67a6.67,6.67,0,0,1,1.16,1l-.45.56a5.43,5.43,0,0,0-1.18-1Z"/><path class="cls-2" d="M107,32.61a6,6,0,0,0-.8,0V31.9a5.35,5.35,0,0,0,.8,0h1.5v-.67h-1a7.37,7.37,0,0,0-.77,0v-.73a6.7,6.7,0,0,0,.77,0h1v-.2a4.26,4.26,0,0,0,0-.58h.82a2.47,2.47,0,0,0,0,.6v.18h.57a6.47,6.47,0,0,0,.73,0v.51a4,4,0,0,0,.68-.93l.7.41-.19.22a10.33,10.33,0,0,1-1.07,1.16h.72a5.08,5.08,0,0,0,.76,0v.75a6.11,6.11,0,0,0-.79,0h-1.46a12.93,12.93,0,0,1-1.41,1v.3a12.88,12.88,0,0,0,1.78-.55,4.29,4.29,0,0,0,.64-.31l.56.61-.12,0-.23.1c-.21.08-.84.3-1.18.4-.51.15-.69.2-1.45.37v.38c0,.23.12.26,1.32.26.69,0,1,0,1.07-.14s.13-.3.14-.89a2.48,2.48,0,0,0,.73.27c-.07.84-.15,1.1-.38,1.26s-.65.19-1.93.19c-1.47,0-1.69-.1-1.69-.73V34c-.46.23-.74.35-1.25.57a2.24,2.24,0,0,0-.44-.66,11.52,11.52,0,0,0,2.69-1.28Zm2.63-.67a7.28,7.28,0,0,0,.73-.66h-1.12v.67Z"/><path class="cls-2" d="M122.6,29.91a3.86,3.86,0,0,0,0,.68,4.75,4.75,0,0,0,.65,2.62,4.44,4.44,0,0,0,1,1.26,4.17,4.17,0,0,0,1,.72,2.54,2.54,0,0,0-.52.74,6.63,6.63,0,0,1-1.69-1.57,5.46,5.46,0,0,1-.88-1.81,5,5,0,0,1-.52,1.34,4.75,4.75,0,0,1-1,1.28,6.71,6.71,0,0,1-1,.76,2,2,0,0,0-.52-.69,4.29,4.29,0,0,0,1.45-1.11,5.09,5.09,0,0,0,1.22-3.66,4.28,4.28,0,0,0,0-.56Z"/><path class="cls-2" d="M134.15,32.48l-.05.21A6.7,6.7,0,0,1,133,35.26a2.78,2.78,0,0,0-.77-.42,4.71,4.71,0,0,0,.93-1.75,3,3,0,0,0,.19-.82Zm.67-1.79a3.2,3.2,0,0,0,0-.69h.9a5.34,5.34,0,0,0,0,.71v.35h1.53a4.55,4.55,0,0,0,.85,0v.82a6.07,6.07,0,0,0-.84,0h-1.54V35a4.88,4.88,0,0,0,0,.74h-.91a3.9,3.9,0,0,0,0-.75V31.8h-1.47a6.15,6.15,0,0,0-.84,0V31a4.55,4.55,0,0,0,.85,0h1.46Zm2.28,1.58a4.14,4.14,0,0,0,.24.75,6,6,0,0,0,.94,1.79,4.39,4.39,0,0,0-.76.46,9,9,0,0,1-1.1-2.48,1.53,1.53,0,0,0-.1-.32Z"/><path class="cls-2" d="M145.48,32.39a6.25,6.25,0,0,0,1.07,0h3.54a6.4,6.4,0,0,0,1.08,0v.93a6,6,0,0,0-1.08,0h-3.53a6,6,0,0,0-1.08,0Z"/><path class="cls-2" d="M161.64,30.2a2,2,0,0,0-.18.48c-.5,1.66-.89,2.76-1.31,3.79a26.14,26.14,0,0,0,2.76-.34c-.07-.16-.15-.31-.31-.61a7.72,7.72,0,0,0-.63-1.05l.75-.3a15.8,15.8,0,0,1,1.61,3.08l-.81.42a5.76,5.76,0,0,0-.31-.82l-.24,0c-.67.14-1.78.28-3.76.47a3.53,3.53,0,0,0-.61.08l-.12-.9h.17c.14,0,.3,0,.58,0,.35-.83.61-1.58,1-2.67a9.91,9.91,0,0,0,.48-1.85Z"/><path class="cls-2" d="M174,29.94a11.65,11.65,0,0,0,.44,2.08c.43-.16.43-.16,1.72-.58l.25-.1.29.83a17.46,17.46,0,0,0-2.19.64c-1,.36-1.46.79-1.46,1.27s.45.69,1.52.69a7.05,7.05,0,0,0,2.15-.28l.07.91a4.54,4.54,0,0,0-.54.05,14.74,14.74,0,0,1-1.55.1,3.79,3.79,0,0,1-1.93-.36,1.28,1.28,0,0,1-.58-1.11,1.55,1.55,0,0,1,.6-1.19,3.89,3.89,0,0,1,.9-.58,16.12,16.12,0,0,1-.45-1.8,2.71,2.71,0,0,0-.1-.43Z"/><path class="cls-2" d="M184.47,32.33a3.68,3.68,0,0,0,.51,0h.46a3.89,3.89,0,0,0,.51,0,6.32,6.32,0,0,0,0,.72v1.42a1,1,0,0,0,.33.38,1.49,1.49,0,0,0,.33.17,5.35,5.35,0,0,0,1.32.12,19.16,19.16,0,0,0,2.78-.17,3.66,3.66,0,0,0-.19.79c-.87,0-1.55.05-2.66.05a4.82,4.82,0,0,1-1.5-.17,1.61,1.61,0,0,1-.77-.56.91.91,0,0,1-.1.1,6.17,6.17,0,0,1-.74.64l-.36-.73a3.67,3.67,0,0,0,.88-.64V33h-.34a2.9,2.9,0,0,0-.43,0ZM185,29.9a7.13,7.13,0,0,1,1.15,1.2l-.55.54a5.92,5.92,0,0,0-1.13-1.25Zm2.68,1.34a3.83,3.83,0,0,0-.56-.34l.52-.3H187a6.47,6.47,0,0,0-.69,0V30a7.42,7.42,0,0,0,.79,0h2.16A3.45,3.45,0,0,0,190,30l.34.41a2.94,2.94,0,0,0-.34.25,7.74,7.74,0,0,1-.85.63h.53a4,4,0,0,0,.68,0,7,7,0,0,0,0,.77V34c0,.38,0,.51-.12.61s-.29.15-.7.15h-.3a1.72,1.72,0,0,0-.15-.64,2.73,2.73,0,0,0,.44,0c.15,0,.15,0,.15-.18v-.26h-1V34a3.74,3.74,0,0,0,0,.74H188a6.52,6.52,0,0,0,0-.74v-.28h-.9v.34a3.84,3.84,0,0,0,0,.72h-.75a4.6,4.6,0,0,0,0-.72V32c0-.39,0-.55,0-.78a5,5,0,0,0,.74,0Zm-.57.57v.43h.9v-.43Zm0,1.41h.9v-.45h-.9Zm.58-2.62.69.5a5.25,5.25,0,0,0,.66-.5Zm1,1.64h1v-.43h-1Zm1,.53h-1v.45h1Z"/><path class="cls-2" d="M200.4,33c0,.29,0,.37,0,.53h-1.75a4.65,4.65,0,0,1-.59,2.37,2.09,2.09,0,0,0-.59-.53c.41-.7.52-1.38.52-3.18,0-.44,0-.67,0-.92l.7,0h1.08l.67,0c0,.14,0,.34,0,.6Zm-2.68-3a4.53,4.53,0,0,0,.71,0h1.44a4.2,4.2,0,0,0,.72,0v.75a3.81,3.81,0,0,0-.69,0h-1.51a4,4,0,0,0-.67,0Zm2,2.84v-1h-1v.47c0,.26,0,.32,0,.51Zm1.82-.38a6,6,0,0,1-.3,1.81,3.72,3.72,0,0,1-.57,1.08,5.21,5.21,0,0,1-.43.5,2.05,2.05,0,0,0-.55-.55,3,3,0,0,0,.94-1.47,9.23,9.23,0,0,0,.22-2.46c0-.62,0-.83,0-1.05a6.25,6.25,0,0,0,2.48-.56l.38.68-.31.09a10.47,10.47,0,0,1-1.81.4v.83h1.51a2.85,2.85,0,0,0,.64,0v.77a4.73,4.73,0,0,0-.58,0H203v2.63a3.57,3.57,0,0,0,0,.72h-.79a4.75,4.75,0,0,0,0-.72V32.54Z"/><path class="cls-2" d="M214.08,29.9a3.32,3.32,0,0,0,.59.75,6.24,6.24,0,0,0,2.18,1.44,5,5,0,0,0-.37.78,8,8,0,0,1-1.68-1.09,5.14,5.14,0,0,1-1.13-1.24,6.06,6.06,0,0,1-1.09,1.22A7.44,7.44,0,0,1,211,32.87a2.86,2.86,0,0,0-.4-.74,5.47,5.47,0,0,0,1.6-1,4.73,4.73,0,0,0,1.06-1.24ZM213,32.16a3.82,3.82,0,0,0,0,.55,4.19,4.19,0,0,1-.4,2A3.11,3.11,0,0,1,211.24,36a2.84,2.84,0,0,0-.55-.68,2.78,2.78,0,0,0,.83-.49c.54-.48.7-1,.7-2.18a2.85,2.85,0,0,0,0-.49Zm2.1,0a5,5,0,0,0,0,.74v2.21a6.7,6.7,0,0,0,0,.79h-.85a6.43,6.43,0,0,0,.05-.79V32.89a5.23,5.23,0,0,0-.05-.73Z"/><path class="cls-2" d="M223.71,30.89a2.64,2.64,0,0,0,.54,0h1.09a3.48,3.48,0,0,0,.54,0v.68a3.2,3.2,0,0,0-.51,0h-1.12a4.28,4.28,0,0,0-.54,0Zm5.76,3.42a4.78,4.78,0,0,1-1,.82,6.54,6.54,0,0,0,1.49.18,2.54,2.54,0,0,0-.24.65,6.21,6.21,0,0,1-1.95-.46,7.47,7.47,0,0,1-1.83.48,2.69,2.69,0,0,0-.16-.39h-1.21v.32h-.65c0-.2,0-.44,0-.64v-1a4,4,0,0,0,0-.51l.45,0h1a2.94,2.94,0,0,0,.4,0,2.65,2.65,0,0,0,0,.48v1.15a6.07,6.07,0,0,0,1.36-.2,5.61,5.61,0,0,1-.66-.49l.46-.16h-.33a4,4,0,0,0-.54,0V34l.54,0h2a3.16,3.16,0,0,0,.5,0Zm-1.08-1h1a4.4,4.4,0,0,0,.45,0v.55a2.86,2.86,0,0,0-.54,0h-2.61a3.1,3.1,0,0,0-.46,0,3.54,3.54,0,0,0,0-.48v-.47s0-.21,0-.33a2.4,2.4,0,0,1-.28.29,2,2,0,0,0-.24-.3,3.31,3.31,0,0,0-.4,0h-.94a2.56,2.56,0,0,0-.42,0v-.62a2.49,2.49,0,0,0,.42,0h.94a2.25,2.25,0,0,0,.41,0v.26a2.88,2.88,0,0,0,.78-1.28l.23.06v-.18h-.27a4.07,4.07,0,0,0-.5,0v-.63a4.39,4.39,0,0,0,.56,0h.21a1.66,1.66,0,0,0,0-.36h.71a1.22,1.22,0,0,0,0,.36h.89a1.58,1.58,0,0,0,0-.36h.7a1.1,1.1,0,0,0,0,.36h.34a4,4,0,0,0,.57,0v.63a4.17,4.17,0,0,0-.56,0h-.35a1.43,1.43,0,0,0,0,.33h-.35l-.1.18h.77a3.2,3.2,0,0,0,.5,0v.54a2.92,2.92,0,0,0-.49,0h-.86V32h.74a3.32,3.32,0,0,0,.42,0v.48a2.25,2.25,0,0,0-.42,0h-.74v.21h.73a3.4,3.4,0,0,0,.43,0v.48a3.53,3.53,0,0,0-.43,0h-.73ZM223.93,30a2.58,2.58,0,0,0,.54,0h.74a2.64,2.64,0,0,0,.54,0v.65a4,4,0,0,0-.54,0h-.74a4.16,4.16,0,0,0-.54,0Zm0,2.86a2.49,2.49,0,0,0,.42,0h.94a2.25,2.25,0,0,0,.41,0v.62a2.49,2.49,0,0,0-.42,0h-.94a2.43,2.43,0,0,0-.41,0Zm.59,2.17h.64v-.7h-.64Zm3.27-3.23h-1V32h1Zm0,.65h-1v.21h1Zm-1,.65v.22h1v-.22Zm.34-2a1.18,1.18,0,0,1-.1.19h.79a2.84,2.84,0,0,0,.16-.35l.26.06v-.22h-.89a2,2,0,0,0,0,.32Zm-.08,3.44a3,3,0,0,0,.71.4,2.66,2.66,0,0,0,.65-.4Z"/><path class="cls-2" d="M43.26,5.28a5.43,5.43,0,0,0,.06.86h-1a5.52,5.52,0,0,0,.06-.86V1.64h-.9a7,7,0,0,0-.91.05V.8a7.09,7.09,0,0,0,.9,0H44.1a7.41,7.41,0,0,0,1,0v.89a7.3,7.3,0,0,0-1-.05h-.84Z"/><path class="cls-2" d="M46.58,5.18a5.59,5.59,0,0,0,.06,1h-1a5.49,5.49,0,0,0,.06-.94V1.69a5.61,5.61,0,0,0-.06-.86l.85,0h1.86a7.27,7.27,0,0,0,.91,0v.9a5.38,5.38,0,0,0-.91-.05H46.58V3.06H48A5.6,5.6,0,0,0,48.91,3V3.9a7,7,0,0,0-.91,0H46.58Z"/><path class="cls-2" d="M50.71,4.49a1,1,0,0,0,.19.59,1.18,1.18,0,0,0,1,.39c.66,0,1.06-.3,1.06-.8a.66.66,0,0,0-.33-.61,4.27,4.27,0,0,0-1.16-.33,2.37,2.37,0,0,1-1-.4,1.31,1.31,0,0,1-.51-1.08c0-.92.74-1.52,1.89-1.52a2,2,0,0,1,1.65.67,1.76,1.76,0,0,1,.33.77l-.95.11a.89.89,0,0,0-.2-.47,1.09,1.09,0,0,0-.83-.32c-.58,0-1,.29-1,.73a.63.63,0,0,0,.46.6,5.88,5.88,0,0,0,.93.24,2.81,2.81,0,0,1,1.09.41,1.3,1.3,0,0,1,.55,1.14,1.56,1.56,0,0,1-.42,1.13,2.2,2.2,0,0,1-1.59.51,2.66,2.66,0,0,1-1.39-.35,1.56,1.56,0,0,1-.59-.76,2.22,2.22,0,0,1-.13-.55Z"/><path class="cls-2" d="M61.54,1.93a1.38,1.38,0,0,0-.16.4A6.55,6.55,0,0,1,60,4.84a6.69,6.69,0,0,1-2.37,1.69,2.12,2.12,0,0,0-.56-.7,5.39,5.39,0,0,0,3.4-3.59l-2,0A6.68,6.68,0,0,1,57,4a1.75,1.75,0,0,0-.65-.57A5.33,5.33,0,0,0,58,1.48a2.67,2.67,0,0,0,.33-.89l.92.19a.64.64,0,0,0-.12.2q-.07.18-.18.39l0,.09-.06.1.32,0,1.46,0H61a4.27,4.27,0,0,0-.48-.83L61,.51a4.33,4.33,0,0,1,.59,1.06l-.28.1ZM62,1.45a4.84,4.84,0,0,0-.58-1l.48-.16a3.56,3.56,0,0,1,.59,1Z"/><path class="cls-2" d="M65,.91c0,.18,0,.18-.06,1.49a6.38,6.38,0,0,1-.54,2.73,4.25,4.25,0,0,1-.92,1.23,2.57,2.57,0,0,0-.67-.65A2.56,2.56,0,0,0,63.46,5c.48-.77.64-1.62.64-3.48a3,3,0,0,0,0-.61ZM66.74.83a3.17,3.17,0,0,0,0,.63l0,3.78a2.64,2.64,0,0,0,1-.76,3.22,3.22,0,0,0,.66-1.21,2.61,2.61,0,0,0,.62.62,4.06,4.06,0,0,1-1.06,1.55,4.26,4.26,0,0,1-1.41.8,2.35,2.35,0,0,0-.29.12l-.42-.45a3.72,3.72,0,0,0,.06-.71l0-3.75v-.2a2.94,2.94,0,0,0,0-.44Z"/><path class="cls-2" d="M69.64,3.05a6.79,6.79,0,0,0,1.08,0h3.54a6.79,6.79,0,0,0,1.08,0V4a8.09,8.09,0,0,0-1.08,0H70.73a8.19,8.19,0,0,0-1.09,0Z"/><path class="cls-2" d="M80.45,1.23a3.38,3.38,0,0,0,.39,0A.77.77,0,0,1,81.6.44a.78.78,0,0,1,.78.77A.78.78,0,0,1,81.6,2l-.12,0a6,6,0,0,1-3.82,4.41,2.56,2.56,0,0,0-.58-.79A4.83,4.83,0,0,0,80.55,2H77.38a5.2,5.2,0,0,0-.84,0V1.18a4.48,4.48,0,0,0,.85.05Zm.72,0a.44.44,0,0,0,.87,0,.44.44,0,1,0-.87,0Z"/></g></g></svg>