<svg xmlns="http://www.w3.org/2000/svg" width="414" height="170" viewBox="0 0 414 170"><defs><style>.cls-1{fill:#e799bb;}.cls-2{fill:#fff;}</style></defs><title>ico_roujinhome_pink</title><g id="レイヤー_2" data-name="レイヤー 2"><g id="レイヤー_1-2" data-name="レイヤー 1"><rect class="cls-1" width="414" height="170"/><path class="cls-2" d="M17.42,89.8c0-1,0-1.8.12-4.45a29.51,29.51,0,0,1-3,4.18,20.83,20.83,0,0,0-1.76-4.72,31.79,31.79,0,0,0,6.44-10.3,25,25,0,0,0,1.48-5.07l4.48,1.13a62.94,62.94,0,0,1-3.47,8.54V101a31.87,31.87,0,0,0,.28,4.52h-4.8a27.2,27.2,0,0,0,.27-4.56Zm20-12.4a38.71,38.71,0,0,0-7.72-4.92l3-2.88a48,48,0,0,1,8.19,4.83l-2.92,3h5.89a36.74,36.74,0,0,0,4.64-.24v4.37c-1.37-.12-2.85-.2-4.53-.2H38.09v6.83h4.84a35.79,35.79,0,0,0,4.33-.23v4.29C46,92.1,44.61,92,43,92H38.09v8.19h6.75a41.49,41.49,0,0,0,4.64-.23v4.37c-1.4-.12-2.73-.2-4.68-.2H27.56c-1.91,0-3.2.08-4.64.2V100a39.06,39.06,0,0,0,4.49.23h6.31V92H29.59c-1.64,0-3,.08-4.29.2V87.93a34.51,34.51,0,0,0,4.29.23h4.13V81.33H28.61c-1.63,0-3.08.08-4.44.2V77.16a25.88,25.88,0,0,0,4.41.24Z"/><path class="cls-2" d="M66,85.62c-4.76.79-4.76.79-9.52,1.41a18.72,18.72,0,0,0-1.79-3.94,104.64,104.64,0,0,0,16-2.22c4-.9,6.55-1.76,8.38-2.85l3.63,3.51a26.36,26.36,0,0,0-3,.82c-4.53,1.36-6.71,2-9.32,2.5v4.09L83.64,87.5a29.11,29.11,0,0,0,4.22-.74l.43,4.44a5,5,0,0,0-.71,0c-.7,0-2.53.12-3.58.24L70.31,92.88v6.47c0,1,.19,1.21,1.09,1.45a38.88,38.88,0,0,0,4.76.23c3.78,0,5.65-.23,6.39-.74s.86-1.48,1-5.23a12.28,12.28,0,0,0,4.29,1.56c-.24,3-.39,3.86-.9,5a4.37,4.37,0,0,1-3.47,2.89c-1.37.35-3.4.47-7.92.47-8.23,0-9.59-.63-9.59-4.41V93.35l-8.47.93a29.65,29.65,0,0,0-4.25.71l-.43-4.41h.78c.78,0,2.46-.12,3.51-.2l8.86-1ZM68,72a10.64,10.64,0,0,0-.24-2.26h4.8a10.62,10.62,0,0,0-.2,2.26v1.25H83.1c2,0,3,0,4.33-.15A17.87,17.87,0,0,0,87.27,76v3a22.35,22.35,0,0,0,.16,3H83.18V77.24H57.94V82H53.65a16.92,16.92,0,0,0,.2-3V76a19.7,19.7,0,0,0-.16-2.88c1.25.11,2.34.15,4.29.15H68Z"/><path class="cls-2" d="M96.32,74.78a26.85,26.85,0,0,0-3.55.16V70.77c1.21.11,2.42.19,4.17.19h10.49a29.24,29.24,0,0,0,4.18-.19v4.17a22.37,22.37,0,0,0-3.32-.16v3.9h.27a32.84,32.84,0,0,0,3.79-.15v4.21a31.22,31.22,0,0,0-3.71-.16h-.35v3.75c0,1.4,0,2,.08,3.08h3.2a10.27,10.27,0,0,0-.2,2.46v1.2h7.8a31.45,31.45,0,0,0,4.61-.23v4.25a44.2,44.2,0,0,0-4.53-.19h-7.88v3.55h11a40.53,40.53,0,0,0,4.56-.2v4.37a40.07,40.07,0,0,0-4.91-.24H96.83a38.66,38.66,0,0,0-4.8.24v-4.37a41,41,0,0,0,4.48.2H107V96.9H99.67c-1.83,0-3.23.07-4.48.19V92.88a25.61,25.61,0,0,0,4,.19H107V91.9c0-.42,0-.7,0-1.28h-3a31.93,31.93,0,0,0,.24-4.25V82.58h-3.83A15.19,15.19,0,0,1,99,87.5a13.64,13.64,0,0,1-4.17,5,13.82,13.82,0,0,0-3.12-3.24c2.88-2.06,3.86-3.55,4.48-6.63h-.58a24,24,0,0,0-3.71.2V78.49a27.69,27.69,0,0,0,3.82.19h.86c0-.31,0-1.6,0-3.9Zm4.41,0V76c0,1,0,1.87,0,2.69h3.51v-3.9Zm12.83,10.84a23.62,23.62,0,0,0,.19-3.12V74.86a24.62,24.62,0,0,0-.19-3.2H118a21.42,21.42,0,0,0-.15,3v8.19c0,1.24,0,2.06.11,2.8Zm12.24,1.29c0,3.36-1,4.1-5.65,4.1a30.65,30.65,0,0,1-3.24-.16,12.57,12.57,0,0,0-1.13-4.25,30,30,0,0,0,4.13.35c1.49,0,1.6-.08,1.6-.9V73.26a20.78,20.78,0,0,0-.19-3.35H126a25.76,25.76,0,0,0-.2,3.66Z"/><path class="cls-2" d="M138.2,88a40.41,40.41,0,0,1-5.65,4.92,11.43,11.43,0,0,0-2.65-3.78,35.17,35.17,0,0,0,6.55-5.35,25.86,25.86,0,0,0,4.64-6.12h-5.5a40,40,0,0,0-4.64.23V73.57a38.34,38.34,0,0,0,4.68.24H143a16.62,16.62,0,0,0,1.13-4.21l4.88.54a18.68,18.68,0,0,0-.86,2.19c-.15.46-.23.66-.55,1.48h13.93a35.8,35.8,0,0,0,4.56-.24V77.9a39,39,0,0,0-4.56-.23H145.81c-.7,1.29-1.17,2.07-1.91,3.27h13.34a35.64,35.64,0,0,0,4-.15c-.11,1.21-.15,2.46-.15,4.44V101.5a3.37,3.37,0,0,1-1.48,3.16c-.75.43-2.19.62-4.57.62-.89,0-1.64,0-3.59-.11a12.35,12.35,0,0,0-1-4.1,34.35,34.35,0,0,0,4.52.35c1.72,0,2-.16,2-1.09v-3H142.38v3.32c0,2.11.08,3.47.19,4.87H138a42.67,42.67,0,0,0,.23-4.91ZM157,84.69H142.38v2.85H157ZM142.38,91v2.88H157V91Z"/><path class="cls-2" d="M184.73,95.1c-.19.51-.23.7-.43,1.33a28.88,28.88,0,0,1-3.94-5.5c.2,2.65.24,3.2.24,4.45v6.43a23.7,23.7,0,0,0,.23,4.06h-4.52a25.92,25.92,0,0,0,.27-4.14v-5c0-1.56.08-3.39.16-4.68-1.76,4.29-3,6.48-5.07,8.78a11.74,11.74,0,0,0-2-4A25.73,25.73,0,0,0,173.89,91,34.53,34.53,0,0,0,176,86.6h-2a20.84,20.84,0,0,0-3.51.19V82.66a18.87,18.87,0,0,0,3.51.2h2.61V73.61a25.06,25.06,0,0,0-.19-3.82h4.44a24.08,24.08,0,0,0-.19,3.78v9.29h1.83a19.17,19.17,0,0,0,3-.16v4.06a22,22,0,0,0-3.08-.16H181a20.62,20.62,0,0,0,5,6,21,21,0,0,0-1.09,2.18,26.66,26.66,0,0,0,3.59-.54l9.12-2V74.35a27.3,27.3,0,0,0-.23-4.52h4.72a26.88,26.88,0,0,0-.24,4.48V91.24a24.19,24.19,0,0,0,3.32-1l.82,4.44a28.82,28.82,0,0,0-3.75.7l-.39.08v5.7a27.91,27.91,0,0,0,.24,4.6h-4.72a29,29,0,0,0,.23-4.64V96.43l-8.27,1.87c-1.71.39-2.84.7-3.7,1ZM173.46,71.94a47.65,47.65,0,0,1,2.38,8.42l-3.28,1.4a31.46,31.46,0,0,0-2.41-8.34Zm13.38,1.36a47.5,47.5,0,0,1-3.12,8.46l-2.85-1.48a32.34,32.34,0,0,0,2.69-8.42Zm1.95,8.85a35.26,35.26,0,0,1,6.78,5.74l-2.65,3.16a33.88,33.88,0,0,0-6.86-6ZM190,72.4a37.92,37.92,0,0,1,6.82,5.74l-2.65,3.27a33.12,33.12,0,0,0-6.9-6Z"/><path class="cls-2" d="M213.83,86.09a38,38,0,0,0-4.72.24V82a35.55,35.55,0,0,0,4.72.23h8.77V78.25h-5.93a42.25,42.25,0,0,0-4.48.16V74.12a31.12,31.12,0,0,0,4.52.23h5.89V73.22a20.87,20.87,0,0,0-.23-3.43h4.79a17.37,17.37,0,0,0-.23,3.51v1h3.39a30.3,30.3,0,0,0,4.29-.23v3a24.51,24.51,0,0,0,3.94-5.46l4.14,2.38c-.43.51-.55.62-1.1,1.29a65.35,65.35,0,0,1-6.31,6.82h4.25A33.36,33.36,0,0,0,244,82v4.37a38.44,38.44,0,0,0-4.64-.24h-8.58a77.59,77.59,0,0,1-8.23,5.66V93.5a71.37,71.37,0,0,0,10.42-3.23,23.48,23.48,0,0,0,3.78-1.84L240,92a5.68,5.68,0,0,1-.75.27c-.23.08-.23.08-1.32.55s-5,1.76-6.9,2.38c-3,.9-4.06,1.17-8.51,2.18v2.23c0,1.32.7,1.48,7.73,1.48,4.05,0,5.69-.2,6.27-.82s.75-1.76.82-5.19a14.27,14.27,0,0,0,4.29,1.6c-.39,4.92-.85,6.44-2.26,7.37s-3.78,1.1-11.27,1.1c-8.66,0-9.95-.55-9.95-4.26V94.17c-2.69,1.32-4.32,2.06-7.33,3.31a13.46,13.46,0,0,0-2.57-3.86A66.23,66.23,0,0,0,224,86.09Zm15.44-3.9a50.33,50.33,0,0,0,4.25-3.86,27.45,27.45,0,0,0-2.89-.08h-3.7v3.94Z"/><path class="cls-2" d="M267.92,70.26a25.33,25.33,0,0,0-.27,4c0,6.27,1,10.41,3.82,15.36a26.11,26.11,0,0,0,6.16,7.41,25.64,25.64,0,0,0,6.05,4.21,14.61,14.61,0,0,0-3.05,4.33,37.91,37.91,0,0,1-9.9-9.2,30.87,30.87,0,0,1-5.19-10.65,27.81,27.81,0,0,1-3,7.88,27.19,27.19,0,0,1-6,7.49,32.68,32.68,0,0,1-6,4.48,11.59,11.59,0,0,0-3-4,26.09,26.09,0,0,0,8.51-6.52c5-5.77,7.13-12.16,7.13-21.53a26.9,26.9,0,0,0-.15-3.27Z"/><path class="cls-2" d="M298,85.35c-.12.47-.16.51-.32,1.21a40.14,40.14,0,0,1-6.55,15.13,16.91,16.91,0,0,0-4.52-2.49,28,28,0,0,0,5.46-10.26,20.16,20.16,0,0,0,1.13-4.8ZM302,74.82a21.12,21.12,0,0,0-.24-4H307a31.62,31.62,0,0,0-.16,4.14V77h8.93a26.76,26.76,0,0,0,5-.28v4.8a37.94,37.94,0,0,0-4.95-.2h-9v18.92a32.46,32.46,0,0,0,.2,4.37h-5.31a26.45,26.45,0,0,0,.24-4.41V81.33h-8.66a37.79,37.79,0,0,0-4.92.2v-4.8a26.65,26.65,0,0,0,5,.28H302Zm13.37,9.32a25.7,25.7,0,0,0,1.37,4.37A36,36,0,0,0,322.25,99a30,30,0,0,0-4.49,2.73,52.06,52.06,0,0,1-6.39-14.58,11.66,11.66,0,0,0-.63-1.84Z"/><path class="cls-2" d="M326.77,84.85a39,39,0,0,0,6.32.27h20.79a38.74,38.74,0,0,0,6.31-.27v5.42a41.7,41.7,0,0,0-6.35-.2H333.13a41.79,41.79,0,0,0-6.36.2Z"/><path class="cls-2" d="M383.9,72a12.75,12.75,0,0,0-1,2.81A231.67,231.67,0,0,1,375.17,97a149.79,149.79,0,0,0,16.22-2c-.43-.93-.89-1.79-1.83-3.54a49,49,0,0,0-3.71-6.21l4.41-1.71a90.79,90.79,0,0,1,9.44,18.06L395,104.07a40.78,40.78,0,0,0-1.87-4.83l-1.4.31c-3.94.82-10.42,1.64-22.08,2.77a20.25,20.25,0,0,0-3.55.47l-.7-5.27h1c.78,0,1.72,0,3.36-.12,2.06-4.91,3.62-9.32,5.65-15.71,1.84-5.74,2.58-8.51,2.85-10.81Z"/></g></g></svg>