<svg xmlns="http://www.w3.org/2000/svg" width="414" height="170" viewBox="0 0 414 170"><defs><style>.cls-1{fill:#e799bb;}.cls-2{fill:#fff;}</style></defs><title>ico_dayservice_pink</title><g id="レイヤー_2" data-name="レイヤー 2"><g id="レイヤー_1-2" data-name="レイヤー 1"><rect class="cls-1" width="414" height="170"/><path class="cls-2" d="M112.27,86.76c-.43,9.63-4.09,14.78-12.91,18.17a12.31,12.31,0,0,0-3.2-4.33c7.65-2.42,10.69-6.28,11-13.84H97.65a34,34,0,0,0-5,.19V82.31a25.94,25.94,0,0,0,5,.27h22.82a25.88,25.88,0,0,0,5-.27V87a33.92,33.92,0,0,0-4.95-.19Zm5.89-9.56a31.56,31.56,0,0,0-5-.19H101.58a32,32,0,0,0-5,.19V72.44a24.44,24.44,0,0,0,5,.28h11.47a24,24,0,0,0,5-.28Zm2.26-7.29a27.64,27.64,0,0,1,3.47,6.16L121,77.16a28.91,28.91,0,0,0-3.43-6.24ZM126,75.45a28.5,28.5,0,0,0-3.35-6l2.8-1a23.92,23.92,0,0,1,3.44,5.92Z"/><path class="cls-2" d="M163.28,74a15.67,15.67,0,0,0-1.44,1.37,68.48,68.48,0,0,1-9.2,8V100a29.22,29.22,0,0,0,.19,4.33h-5.46a21.77,21.77,0,0,0,.23-4.22V86.41c-4.56,2.73-6.74,3.74-13.92,6.31a14.79,14.79,0,0,0-2.61-4.44,57.12,57.12,0,0,0,20.47-10.14c3.47-2.69,6.13-5.39,7.26-7.3Z"/><path class="cls-2" d="M192.53,78.49l0-1.76V75.48a25.57,25.57,0,0,0-.19-4.32h5a14,14,0,0,0-.16,2.61c0,2.38,0,2.38,0,4.72h2.5a27,27,0,0,0,5.07-.28V83a41.18,41.18,0,0,0-5-.19h-2.62a45.1,45.1,0,0,1-.27,6.43c-.54,5-2.22,8.31-5.61,11.2a21.83,21.83,0,0,1-7.61,4.09,11.47,11.47,0,0,0-2.93-4.13c3.71-1.13,5.58-2.07,7.45-3.71,2.66-2.3,3.79-4.87,4.14-9.36.08-.89.08-1.83.15-4.52h-10.1v5.85a23.26,23.26,0,0,0,.16,3.27h-5.07a25.22,25.22,0,0,0,.15-3.35V82.78h-2.38a41.18,41.18,0,0,0-5,.19V78.21a27,27,0,0,0,5.07.28h2.3v-3.9a20.4,20.4,0,0,0-.19-3.47h5.11a18.92,18.92,0,0,0-.16,3.35v4Z"/><path class="cls-2" d="M209.77,84.85a39,39,0,0,0,6.32.27h20.79a38.74,38.74,0,0,0,6.31-.27v5.42a41.62,41.62,0,0,0-6.35-.2H216.13a41.79,41.79,0,0,0-6.36.2Z"/><path class="cls-2" d="M257.66,83.83c5.89-1.09,14.51-4.56,17-6.94l3.12,4.41c-.28.11-1.45.66-3.51,1.67a65.86,65.86,0,0,1-16.66,5.38V93.5a2.56,2.56,0,0,0,0,.51c0,2.26.16,3.16.71,3.71.66.7,2.88,1,6.67,1a73.34,73.34,0,0,0,9-.62,23.25,23.25,0,0,0,4.45-.94l.23,5.19c-.82,0-1,0-5.14.43-2.31.23-7.22.46-9.6.46-4.91,0-7.6-.5-9.13-1.67a5.43,5.43,0,0,1-1.91-4,32.15,32.15,0,0,1-.11-3.59l0-18.1a20,20,0,0,0-.16-3.58h5.23a19.18,19.18,0,0,0-.2,3.62Zm18.53-13.34a25.09,25.09,0,0,1,3.9,5.93l-2.81,1.29a24.83,24.83,0,0,0-3.86-6Zm5.85,5a28.66,28.66,0,0,0-3.75-5.82l2.7-1.24A23.35,23.35,0,0,1,284.81,74Z"/><path class="cls-2" d="M317.65,103.8a74.78,74.78,0,0,0-12-11.58,46.48,46.48,0,0,1-14.86,11.27,15.61,15.61,0,0,0-3.16-4.33,31.88,31.88,0,0,0,7.8-4.29A37.65,37.65,0,0,0,308.56,79l.43-1c-.63,0-.63,0-12.91.23a29.92,29.92,0,0,0-4.25.32l-.16-5a16.61,16.61,0,0,0,3.43.24H296l13.73-.2a8.33,8.33,0,0,0,3.47-.43l2.57,2.66a7.41,7.41,0,0,0-1.25,2.1,51.34,51.34,0,0,1-6.08,10.77,60.9,60.9,0,0,1,7.22,5.65c1,.86,1,.86,5.69,5.42Z"/></g></g></svg>