<svg xmlns="http://www.w3.org/2000/svg" width="552.16" height="396.35" viewBox="0 0 552.16 396.35"><defs><style>.cls-1{fill:none;stroke:#fff;stroke-linejoin:round;stroke-width:4px;}.cls-2{fill:#2e3192;}</style></defs><title>slide_mark</title><g id="レイヤー_2" data-name="レイヤー 2"><g id="レイヤー_1-2" data-name="レイヤー 1"><polygon class="cls-1" points="6.19 394.35 2 394.35 2 198.38 2.88 197.75 278.62 2 279.84 2.88 550.16 197.76 547.71 201.16 278.6 7.15 6.19 200.54 6.19 394.35"/><path class="cls-1" d="M21.86,244.36c0-1.36.05-2.41.15-6a38.28,38.28,0,0,1-4.08,5.6,28.4,28.4,0,0,0-2.36-6.33,42.64,42.64,0,0,0,8.64-13.83,33.18,33.18,0,0,0,2-6.81l6,1.52A84.71,84.71,0,0,1,27.57,230v29.44a44.34,44.34,0,0,0,.36,6.07H21.49a36.33,36.33,0,0,0,.37-6.13ZM48.68,227.7a52.6,52.6,0,0,0-10.38-6.6l4-3.87a64.48,64.48,0,0,1,11,6.49l-3.93,4h7.91a50.55,50.55,0,0,0,6.23-.31v5.87c-1.83-.16-3.82-.27-6.07-.27H49.62v9.17h6.49a46.31,46.31,0,0,0,5.82-.31v5.76c-1.68-.16-3.56-.26-5.76-.26H49.62v11h9.06a53.53,53.53,0,0,0,6.24-.32v5.87c-1.89-.16-3.67-.26-6.29-.26H35.48c-2.57,0-4.3.1-6.24.26V258a50.34,50.34,0,0,0,6,.32h8.48v-11H38.2c-2.2,0-4,.1-5.76.26v-5.76a44.64,44.64,0,0,0,5.76.31h5.55V233H36.89c-2.2,0-4.14.11-6,.27v-5.87a35.87,35.87,0,0,0,5.92.31Z"/><path class="cls-1" d="M87.08,238.76c-6.39,1-6.39,1-12.78,1.88a25.58,25.58,0,0,0-2.41-5.29,140.65,140.65,0,0,0,21.42-3c5.4-1.2,8.8-2.35,11.26-3.82l4.88,4.72a35.05,35.05,0,0,0-4,1.1c-6.07,1.83-9,2.61-12.52,3.35v5.5l17.92-1.94a36.87,36.87,0,0,0,5.65-1l.58,6a5.86,5.86,0,0,0-.94-.06c-.94,0-3.41.16-4.82.32l-18.39,2v8.69c0,1.31.26,1.63,1.47,1.94a49.22,49.22,0,0,0,6.39.32c5.08,0,7.6-.32,8.59-1s1.15-2,1.36-7a17,17,0,0,0,5.76,2.1c-.31,4-.52,5.18-1.2,6.76a5.87,5.87,0,0,1-4.66,3.87c-1.84.47-4.56.63-10.64.63-11,0-12.88-.84-12.88-5.92v-9.74l-11.37,1.25a41.42,41.42,0,0,0-5.71,1l-.58-5.92h1c1,0,3.3-.16,4.72-.26l11.89-1.31Zm2.67-18.29a15.19,15.19,0,0,0-.31-3h6.44a14.48,14.48,0,0,0-.26,3v1.68h14.45a58,58,0,0,0,5.82-.21,24.33,24.33,0,0,0-.21,3.88v4a30.22,30.22,0,0,0,.21,4h-5.71v-6.34H76.29v6.34H70.53a24.15,24.15,0,0,0,.26-4.08v-3.93a28.53,28.53,0,0,0-.21-3.88,56.11,56.11,0,0,0,5.76.21H89.75Z"/><path class="cls-1" d="M127.84,224.19a38.29,38.29,0,0,0-4.77.21v-5.6c1.62.15,3.25.26,5.61.26h14.09a37.61,37.61,0,0,0,5.6-.26v5.6a31.64,31.64,0,0,0-4.45-.21v5.24h.37a41,41,0,0,0,5.08-.21v5.66a42.43,42.43,0,0,0-5-.21h-.47v5c0,1.88,0,2.67.1,4.14h4.3a14.15,14.15,0,0,0-.26,3.3v1.62h10.47a42.9,42.9,0,0,0,6.19-.31v5.71a59,59,0,0,0-6.08-.27H148.06v4.77h14.77a55.5,55.5,0,0,0,6.13-.26v5.87a55.12,55.12,0,0,0-6.6-.32H128.52a52.66,52.66,0,0,0-6.44.32V258.4a55.84,55.84,0,0,0,6,.26h14.09v-4.77h-9.85c-2.46,0-4.34.11-6,.27V248.5a34.94,34.94,0,0,0,5.39.26h10.48v-1.57c0-.58,0-.94-.05-1.73h-4a43.72,43.72,0,0,0,.32-5.71v-5.08h-5.13a20.63,20.63,0,0,1-1.89,6.6c-1.2,2.51-2.67,4.24-5.61,6.65a18.1,18.1,0,0,0-4.19-4.35c3.88-2.77,5.19-4.76,6-8.9h-.79a32.89,32.89,0,0,0-5,.26v-5.76a35.64,35.64,0,0,0,5.13.26h1.15c0-.42,0-2.15,0-5.24Zm5.92,0v1.63c0,1.31,0,2.51,0,3.61h4.71v-5.24ZM151,238.76a30,30,0,0,0,.26-4.2V224.3A31,31,0,0,0,151,220h6a28.11,28.11,0,0,0-.21,4v11a36.44,36.44,0,0,0,.16,3.78Zm16.45,1.72c0,4.51-1.41,5.5-7.6,5.5a41.37,41.37,0,0,1-4.34-.21,17.09,17.09,0,0,0-1.52-5.71,38.85,38.85,0,0,0,5.55.48c2,0,2.15-.11,2.15-1.21V222.15a28,28,0,0,0-.26-4.5h6.28a35,35,0,0,0-.26,4.92Z"/><path class="cls-1" d="M184.1,242a54.46,54.46,0,0,1-7.59,6.6,15.74,15.74,0,0,0-3.56-5.08,47,47,0,0,0,8.8-7.18,34.86,34.86,0,0,0,6.23-8.22h-7.39a51.79,51.79,0,0,0-6.23.31v-5.81a52.76,52.76,0,0,0,6.29.31h9.84a22.83,22.83,0,0,0,1.52-5.65l6.55.73a23.13,23.13,0,0,0-1.15,2.93c-.21.63-.32.89-.74,2h18.71a49.16,49.16,0,0,0,6.12-.31v5.81a50.29,50.29,0,0,0-6.12-.31H194.32c-.94,1.73-1.57,2.78-2.57,4.4h17.92a47.76,47.76,0,0,0,5.44-.21c-.15,1.62-.21,3.3-.21,6v21.85c0,2-.62,3.4-2,4.24-1,.58-2.93.84-6.12.84-1.21,0-2.21-.06-4.82-.16a16.77,16.77,0,0,0-1.37-5.5,45.18,45.18,0,0,0,6.08.47c2.3,0,2.62-.21,2.62-1.47v-4H189.71V259c0,2.82.1,4.66.26,6.54h-6.18a58.54,58.54,0,0,0,.31-6.6Zm25.2-4.45H189.71v3.82H209.3ZM189.71,246v3.88H209.3V246Z"/><path class="cls-1" d="M246.6,251.48c-.26.69-.31,1-.57,1.79a39.39,39.39,0,0,1-5.3-7.39c.27,3.56.32,4.3.32,6v8.64a31.22,31.22,0,0,0,.31,5.45h-6.07a34.17,34.17,0,0,0,.36-5.55v-6.76c0-2.09.11-4.55.21-6.28-2.35,5.76-4,8.69-6.81,11.78a15.65,15.65,0,0,0-2.67-5.39A34.54,34.54,0,0,0,232,246a43.85,43.85,0,0,0,2.78-5.92h-2.73a26.81,26.81,0,0,0-4.71.27v-5.56a25.7,25.7,0,0,0,4.71.27h3.51V222.62a32.35,32.35,0,0,0-.26-5.13h6a31.2,31.2,0,0,0-.26,5.08V235h2.46a27.42,27.42,0,0,0,4-.21v5.44a31.49,31.49,0,0,0-4.13-.21h-1.89a27.8,27.8,0,0,0,6.76,8,28.62,28.62,0,0,0-1.47,2.93,34,34,0,0,0,4.82-.73l12.26-2.72V223.62a34.89,34.89,0,0,0-.32-6.08h6.34a37.3,37.3,0,0,0-.31,6V246.3a33.13,33.13,0,0,0,4.45-1.31l1.1,6a39.55,39.55,0,0,0-5,.94l-.52.11v7.65a38.77,38.77,0,0,0,.31,6.18h-6.34a37,37,0,0,0,.32-6.24v-6.33l-11.11,2.51c-2.3.52-3.82.94-5,1.31Zm-15.14-31.11a63.94,63.94,0,0,1,3.2,11.31l-4.4,1.89A42.17,42.17,0,0,0,227,222.36Zm18,1.83a63.22,63.22,0,0,1-4.19,11.37l-3.82-2A43.85,43.85,0,0,0,245,220.26Zm2.62,11.89a47.75,47.75,0,0,1,9.11,7.7L257.6,246a45.76,45.76,0,0,0-9.22-8.07ZM253.67,221a50.78,50.78,0,0,1,9.17,7.7l-3.56,4.4c-3.88-4.14-4.14-4.35-9.27-8.07Z"/><path class="cls-1" d="M285.68,239.38a52.06,52.06,0,0,0-6.33.32v-5.87a45.91,45.91,0,0,0,6.33.32h11.79v-5.3h-8c-2.78,0-4.56.06-6,.21V223.3a42.3,42.3,0,0,0,6.08.32h7.91V222.1a27.13,27.13,0,0,0-.31-4.61h6.44a23,23,0,0,0-.31,4.71v1.42h4.55a41.36,41.36,0,0,0,5.77-.32v4.09a33.31,33.31,0,0,0,5.29-7.34l5.55,3.2c-.58.68-.74.84-1.47,1.73a88.58,88.58,0,0,1-8.48,9.17h5.71a43.18,43.18,0,0,0,6-.32v5.87a52.92,52.92,0,0,0-6.24-.32H308.42a106.11,106.11,0,0,1-11.05,7.6v2.36a95.81,95.81,0,0,0,14-4.35,31.09,31.09,0,0,0,5.08-2.46l4.4,4.82a9.92,9.92,0,0,1-1,.36c-.32.11-.32.11-1.78.74-1.63.63-6.65,2.35-9.27,3.19-4,1.21-5.45,1.57-11.42,2.94v3c0,1.78.94,2,10.37,2,5.45,0,7.65-.26,8.43-1.1s1-2.36,1.1-7a19.11,19.11,0,0,0,5.76,2.15c-.52,6.6-1.15,8.65-3,9.9S314.92,265,304.86,265c-11.63,0-13.36-.73-13.36-5.71v-9.06c-3.62,1.78-5.82,2.77-9.85,4.45a18.3,18.3,0,0,0-3.46-5.19,88.83,88.83,0,0,0,21.17-10.11Zm20.75-5.23a69.33,69.33,0,0,0,5.71-5.19,36.09,36.09,0,0,0-3.88-.11h-5v5.3Z"/><path class="cls-1" d="M358.35,218.12a34.5,34.5,0,0,0-.37,5.39c0,8.44,1.36,14,5.13,20.64a35,35,0,0,0,8.28,9.95,34.55,34.55,0,0,0,8.12,5.66,19.48,19.48,0,0,0-4.09,5.82c-6.39-4.46-9.58-7.44-13.3-12.37a41.24,41.24,0,0,1-7-14.3,37.26,37.26,0,0,1-4.09,10.58A36.18,36.18,0,0,1,343,259.55a44.74,44.74,0,0,1-8.12,6,15.74,15.74,0,0,0-4.09-5.4c5.34-2.83,8.12-5,11.42-8.75,6.76-7.75,9.59-16.34,9.59-28.91a33.63,33.63,0,0,0-.21-4.4Z"/><path class="cls-1" d="M398.79,238.39c-.16.63-.21.68-.42,1.62a54,54,0,0,1-8.8,20.33A22.68,22.68,0,0,0,383.5,257c3.45-4.13,5.34-7.75,7.33-13.77a26.83,26.83,0,0,0,1.52-6.44Zm5.29-14.14a29.29,29.29,0,0,0-.31-5.4h7.07a42.71,42.71,0,0,0-.21,5.55v2.78h12a36.28,36.28,0,0,0,6.76-.37v6.45a51.78,51.78,0,0,0-6.65-.27h-12.1V258.4a44.72,44.72,0,0,0,.26,5.87h-7.12a36.74,36.74,0,0,0,.31-5.92V233H392.45a51.57,51.57,0,0,0-6.6.27v-6.45a36.05,36.05,0,0,0,6.71.37h11.52Zm18,12.52a33.51,33.51,0,0,0,1.83,5.86c2.36,6.34,4.3,10,7.44,14.09a39,39,0,0,0-6,3.67c-4-6.34-6.13-11.26-8.59-19.59a14.55,14.55,0,0,0-.84-2.46Z"/><path class="cls-1" d="M437.4,237.71a52.28,52.28,0,0,0,8.49.36h27.92a52.06,52.06,0,0,0,8.48-.36V245c-2.09-.26-2.67-.26-8.53-.26H445.94c-5.87,0-6.44,0-8.54.26Z"/><path class="cls-1" d="M514.15,220.42a15.74,15.74,0,0,0-1.36,3.77,311.51,311.51,0,0,1-10.37,29.86,208.54,208.54,0,0,0,21.79-2.67c-.58-1.26-1.21-2.41-2.46-4.77a66.62,66.62,0,0,0-5-8.33l5.92-2.3a122.7,122.7,0,0,1,12.68,24.25l-6.34,3.3a53.38,53.38,0,0,0-2.52-6.49l-1.88.42c-5.29,1.1-14,2.2-29.65,3.72a29,29,0,0,0-4.77.62l-.94-7.07h1.36c1.05,0,2.3,0,4.5-.15,2.78-6.6,4.88-12.52,7.6-21.12,2.46-7.7,3.46-11.41,3.82-14.51Z"/><path class="cls-1" d="M27.9,388.82c-5,0-10.75-2.27-10.75-10.28,0-19,18.4-32.14,26.64-37.52,15.54-10,21.27-13.85,21.27-21.26,0-5.14-4.54-11.11-14.22-11.11-12.9,0-15.53,7.88-16.6,10.87s-2.27,6.93-7.89,6.93c-4.18,0-9.08-3.11-9.08-8.6,0-6.81,7.17-25.33,32.74-25.33,18.16,0,31.9,10,31.9,26.64,0,14.22-7.41,21.51-25.81,32.86C42.48,360.38,40.69,362.89,39,365.28a19.88,19.88,0,0,0-3.35,7.88c0,.48.6.6,1,.6H73.19c1.43,0,8.84,0,8.84,7.29,0,2.27-.84,7.77-8.84,7.77Z"/><path class="cls-1" d="M154.42,383.08a7.68,7.68,0,0,1-7.64,7.89c-5.14,0-7.53-4.66-7.53-8v-37.4c0-5.49-2-13-12.07-13-11.23,0-16.6,9.8-16.6,15.18v35.36a7.69,7.69,0,0,1-7.65,7.89c-4.9,0-7.65-4.19-7.65-8V337.44c0-2.15-1-11.23-1-13.14,0-3.47,2.51-7.05,7.64-7.05,5.38,0,7.65,4.42,9,7.65,1.92-2,7.17-7.65,20.32-7.65,13.85,0,23.17,8.84,23.17,21.62Z"/><path class="cls-1" d="M229.69,382.6c0,3.71,0,8.37-6.45,8.37-5.5,0-7.29-4-7.77-8.13-3.11,3.59-7.05,8.13-18.16,8.13-21.15,0-29.75-18.28-29.75-37.28,0-18.64,8-36.44,28.68-36.44,2,0,11.7,0,18.28,6.21V300.28c0-2.74,2-7.76,7.28-7.76a7.75,7.75,0,0,1,7.89,7.64Zm-15.17-33.09c0-1.91,0-16.37-16-16.37-4.06,0-15.29,0-15.29,21.15,0,8.84,2.27,20.79,14.94,20.79,14,0,16.37-12.19,16.37-17Z"/><path class="cls-1" d="M287.15,301a8.36,8.36,0,0,1,8.48-8.48c5.5,0,8.13,5.25,8.13,8.48v66.31c0,3.82.47,5,3.46,5h33.69c6,0,8.25,4.18,8.25,8,0,6-4.07,8.49-7.53,8.49H301c-7.17,0-13.86-1.68-13.86-15.18Z"/><path class="cls-1" d="M363.37,301c0-4.06,2.75-8.48,8-8.48A8.4,8.4,0,0,1,380,301v81.48c0,4.66-3.11,8.49-8.13,8.49a8.37,8.37,0,0,1-8.48-8.49Z"/><path class="cls-1" d="M416.65,382c0,7.64-5.49,9.08-8.36,9.08-5.26,0-8.25-2.75-8.25-8.61v-74c0-7.17,3.47-13.86,12.55-13.86h40.5c2.75,0,9,.83,9,8.6,0,6.21-4.66,8-8.48,8H419.28c-2,0-2.63,1.55-2.63,3.58v18.4h33.46c5.13,0,7.88,3.82,7.88,8.12,0,6.1-4.06,7.77-7.29,7.77H416.65Z"/><path class="cls-1" d="M525.49,332.18c5.38,0,7.89,4.3,7.89,8.25,0,7.29-6.22,7.76-7.41,7.76H491.92v20.67a3.36,3.36,0,0,0,3.46,3.35H528.6c2.86,0,8.72.83,8.72,8.48s-7.05,8.13-8.48,8.13H488.09c-8.48,0-12.78-4.42-12.78-14.94V308.53c0-6.81,3.35-13.86,12.55-13.86h40.5c2.63,0,9,.71,9,8.6,0,6.69-5.62,8-8.48,8H494.67c-2.16,0-2.75,1.79-2.75,3.58v17.32Z"/><path class="cls-1" d="M97.84,193.32h-4.4l-5-7.95-1.41,1.73v6.22H83.41V168.11h3.65V183.8h.06c.41-.66.88-1.42,1.32-2L92.75,176h4.3L91,183.14Z"/><path class="cls-1" d="M113.59,176l-4.18,12c-2,5.69-3.49,8.89-5.57,10.91a9.24,9.24,0,0,1-4,2.23l-.94-3.08a8.2,8.2,0,0,0,5.12-5.35,1.66,1.66,0,0,0-.19-.75l-5.94-16h4l3.14,9.75c.35,1.13.7,2.45,1,3.45H106c.25-1,.6-2.29.91-3.45l2.8-9.75Z"/><path class="cls-1" d="M130.25,188.35c0,2,.09,3.59.15,5h-3.2l-.19-2.51h-.1a6,6,0,0,1-5.21,2.86c-3,0-5.6-1.86-5.6-7.39V176h3.65v9.71c0,3,.84,5,3.23,5a3.71,3.71,0,0,0,3.62-3.93V176h3.65Z"/><path class="cls-1" d="M149,188.35c0,2,.09,3.59.16,5H146l-.19-2.51h-.09a6,6,0,0,1-5.22,2.86c-3,0-5.59-1.86-5.59-7.39V176h3.64v9.71c0,3,.85,5,3.24,5a3.71,3.71,0,0,0,3.61-3.93V176H149Z"/><path class="cls-1" d="M162.3,179.27a6.3,6.3,0,0,0-3.3-1c-1.63,0-2.51.94-2.51,2.1s.79,1.79,2.89,2.7c2.86,1.17,4.37,2.74,4.37,5.25,0,3.34-2.54,5.32-6.47,5.32a9.59,9.59,0,0,1-4.72-1.17l.82-2.7a8.46,8.46,0,0,0,4,1.16c1.95,0,2.89-.94,2.89-2.26s-.72-2-2.8-2.92c-3.08-1.23-4.43-3-4.43-5,0-2.89,2.36-5.19,6-5.19a8.65,8.65,0,0,1,4.12,1Z"/><path class="cls-1" d="M181,176l-4.18,12c-2.05,5.69-3.49,8.89-5.57,10.91a9.24,9.24,0,0,1-4,2.23l-.94-3.08a8.2,8.2,0,0,0,5.12-5.35,1.66,1.66,0,0,0-.19-.75l-5.94-16h4l3.15,9.75c.34,1.13.69,2.45.94,3.45h.09c.25-1,.6-2.29.92-3.45l2.79-9.75Z"/><path class="cls-1" d="M197.67,188.35c0,2,.09,3.59.15,5h-3.2l-.19-2.51h-.1a6,6,0,0,1-5.21,2.86c-3,0-5.6-1.86-5.6-7.39V176h3.65v9.71c0,3,.85,5,3.24,5a3.71,3.71,0,0,0,3.61-3.93V176h3.65Z"/><path class="cls-1" d="M216.43,188.35c0,2,.1,3.59.16,5h-3.21l-.19-2.51h-.09a6,6,0,0,1-5.22,2.86c-3,0-5.59-1.86-5.59-7.39V176h3.64v9.71c0,3,.85,5,3.24,5a3.71,3.71,0,0,0,3.62-3.93V176h3.64Z"/><path class="cls-1" d="M228.63,176c0-1.89,0-4.68,2-6.63a6,6,0,0,1,4.21-1.6,7.13,7.13,0,0,1,2.64.47l-.38,2.79a4.8,4.8,0,0,0-1.85-.34c-2.27,0-3,2-3,4.37V176H236v2.74h-3.77v14.58h-3.64V178.74H226.3V176Z"/><path class="cls-1" d="M252.67,188.35c0,2,.1,3.59.16,5h-3.21l-.18-2.51h-.1a6,6,0,0,1-5.22,2.86c-3,0-5.59-1.86-5.59-7.39V176h3.64v9.71c0,3,.85,5,3.24,5a3.71,3.71,0,0,0,3.62-3.93V176h3.64Z"/><path class="cls-1" d="M271.78,193.32h-4.4l-5-7.95L261,187.1v6.22h-3.64V168.11H261V183.8h.06c.41-.66.88-1.42,1.32-2l4.31-5.78H271l-6.1,7.14Z"/><path class="cls-1" d="M287.91,188.35c0,2,.09,3.59.16,5h-3.21l-.19-2.51h-.09a6.05,6.05,0,0,1-5.22,2.86c-3,0-5.6-1.86-5.6-7.39V176h3.65v9.71c0,3,.85,5,3.24,5a3.71,3.71,0,0,0,3.61-3.93V176h3.65Z"/><path class="cls-1" d="M301.2,179.27a6.3,6.3,0,0,0-3.3-1c-1.63,0-2.51.94-2.51,2.1s.78,1.79,2.89,2.7c2.86,1.17,4.37,2.74,4.37,5.25,0,3.34-2.55,5.32-6.48,5.32a9.58,9.58,0,0,1-4.71-1.17l.82-2.7a8.46,8.46,0,0,0,4,1.16c1.95,0,2.89-.94,2.89-2.26s-.72-2-2.8-2.92c-3.08-1.23-4.43-3-4.43-5,0-2.89,2.36-5.19,6-5.19a8.65,8.65,0,0,1,4.12,1Z"/><path class="cls-1" d="M320.5,193.32h-3.64V183.2c0-2.48-.85-4.56-3.3-4.56a3.85,3.85,0,0,0-3.71,4.09v10.59H306.2V168.11h3.65v10.25h.06a5.91,5.91,0,0,1,5-2.74c2.61,0,5.62,1.76,5.62,7.23Z"/><path class="cls-1" d="M326.92,173.33a2.12,2.12,0,1,1,2.13-2.11A2,2,0,0,1,326.92,173.33Zm1.82,20h-3.65V176h3.65Z"/><path class="cls-1" d="M349.08,179.27a6.36,6.36,0,0,0-3.3-1c-1.64,0-2.52.94-2.52,2.1s.79,1.79,2.89,2.7c2.86,1.17,4.37,2.74,4.37,5.25,0,3.34-2.54,5.32-6.47,5.32a9.62,9.62,0,0,1-4.72-1.17l.82-2.7a8.46,8.46,0,0,0,4,1.16c1.95,0,2.89-.94,2.89-2.26s-.72-2-2.8-2.92c-3.08-1.23-4.43-3-4.43-5,0-2.89,2.36-5.19,6-5.19a8.64,8.64,0,0,1,4.11,1Z"/><path class="cls-1" d="M366.74,192.63a13.6,13.6,0,0,1-5.5,1c-5.22,0-8.23-3.49-8.23-8.77s2.89-9.28,7.79-9.28,6.82,4.06,6.82,8.33a11.4,11.4,0,0,1-.09,1.54h-11c.09,3.9,2.51,5.38,5.25,5.38a10.8,10.8,0,0,0,4.36-.82Zm-2.58-9.75c0-2.07-.81-4.65-3.61-4.65s-3.8,2.64-4,4.65Z"/><path class="cls-1" d="M379.85,179.21a4.87,4.87,0,0,0-1.07-.1c-2.45,0-4,2-4,5v9.18h-3.65v-12c0-2,0-3.68-.12-5.28h3.17l.13,3.18h.12a5,5,0,0,1,4.5-3.56,3.85,3.85,0,0,1,.91.1Z"/><path class="cls-1" d="M396.54,176l-6.22,17.32h-3.49L380.76,176h3.93l2.83,9.21c.47,1.51.85,3,1.16,4.4h.1c.31-1.44.72-2.86,1.16-4.37l2.8-9.24Z"/><path class="cls-1" d="M401.07,173.33a2.12,2.12,0,1,1,2.13-2.11A2,2,0,0,1,401.07,173.33Zm1.82,20h-3.65V176h3.65Z"/><path class="cls-1" d="M419.23,192.79a11.31,11.31,0,0,1-4.46.88c-5,0-8.27-3.43-8.27-8.84,0-5.25,3.4-9.21,9-9.21a9.27,9.27,0,0,1,3.87.79l-.72,2.8a6.74,6.74,0,0,0-3.12-.69c-3.39,0-5.28,2.76-5.28,6.16,0,3.8,2.24,6.06,5.25,6.06a7.82,7.82,0,0,0,3.27-.69Z"/><path class="cls-1" d="M435.17,192.63a13.6,13.6,0,0,1-5.5,1c-5.22,0-8.23-3.49-8.23-8.77s2.89-9.28,7.79-9.28,6.82,4.06,6.82,8.33a11.4,11.4,0,0,1-.09,1.54H425c.09,3.9,2.51,5.38,5.25,5.38a10.8,10.8,0,0,0,4.36-.82Zm-2.58-9.75c0-2.07-.81-4.65-3.61-4.65s-3.8,2.64-4,4.65Z"/><polygon class="cls-2" points="6.19 394.35 2 394.35 2 198.38 2.88 197.75 278.62 2 279.84 2.88 550.16 197.76 547.71 201.16 278.6 7.15 6.19 200.54 6.19 394.35"/><path class="cls-2" d="M21.86,244.36c0-1.36.05-2.41.15-6a38.28,38.28,0,0,1-4.08,5.6,28.4,28.4,0,0,0-2.36-6.33,42.64,42.64,0,0,0,8.64-13.83,33.18,33.18,0,0,0,2-6.81l6,1.52A84.71,84.71,0,0,1,27.57,230v29.44a44.34,44.34,0,0,0,.36,6.07H21.49a36.33,36.33,0,0,0,.37-6.13ZM48.68,227.7a52.6,52.6,0,0,0-10.38-6.6l4-3.87a64.48,64.48,0,0,1,11,6.49l-3.93,4h7.91a50.55,50.55,0,0,0,6.23-.31v5.87c-1.83-.16-3.82-.27-6.07-.27H49.62v9.17h6.49a46.31,46.31,0,0,0,5.82-.31v5.76c-1.68-.16-3.56-.26-5.76-.26H49.62v11h9.06a53.53,53.53,0,0,0,6.24-.32v5.87c-1.89-.16-3.67-.26-6.29-.26H35.48c-2.57,0-4.3.1-6.24.26V258a50.34,50.34,0,0,0,6,.32h8.48v-11H38.2c-2.2,0-4,.1-5.76.26v-5.76a44.64,44.64,0,0,0,5.76.31h5.55V233H36.89c-2.2,0-4.14.11-6,.27v-5.87a35.87,35.87,0,0,0,5.92.31Z"/><path class="cls-2" d="M87.08,238.76c-6.39,1-6.39,1-12.78,1.88a25.58,25.58,0,0,0-2.41-5.29,140.65,140.65,0,0,0,21.42-3c5.4-1.2,8.8-2.35,11.26-3.82l4.88,4.72a35.05,35.05,0,0,0-4,1.1c-6.07,1.83-9,2.61-12.52,3.35v5.5l17.92-1.94a36.87,36.87,0,0,0,5.65-1l.58,6a5.86,5.86,0,0,0-.94-.06c-.94,0-3.41.16-4.82.32l-18.39,2v8.69c0,1.31.26,1.63,1.47,1.94a49.22,49.22,0,0,0,6.39.32c5.08,0,7.6-.32,8.59-1s1.15-2,1.36-7a17,17,0,0,0,5.76,2.1c-.31,4-.52,5.18-1.2,6.76a5.87,5.87,0,0,1-4.66,3.87c-1.84.47-4.56.63-10.64.63-11,0-12.88-.84-12.88-5.92v-9.74l-11.37,1.25a41.42,41.42,0,0,0-5.71,1l-.58-5.92h1c1,0,3.3-.16,4.72-.26l11.89-1.31Zm2.67-18.29a15.19,15.19,0,0,0-.31-3h6.44a14.48,14.48,0,0,0-.26,3v1.68h14.45a58,58,0,0,0,5.82-.21,24.33,24.33,0,0,0-.21,3.88v4a30.22,30.22,0,0,0,.21,4h-5.71v-6.34H76.29v6.34H70.53a24.15,24.15,0,0,0,.26-4.08v-3.93a28.53,28.53,0,0,0-.21-3.88,56.11,56.11,0,0,0,5.76.21H89.75Z"/><path class="cls-2" d="M127.84,224.19a38.29,38.29,0,0,0-4.77.21v-5.6c1.62.15,3.25.26,5.61.26h14.09a37.61,37.61,0,0,0,5.6-.26v5.6a31.64,31.64,0,0,0-4.45-.21v5.24h.37a41,41,0,0,0,5.08-.21v5.66a42.43,42.43,0,0,0-5-.21h-.47v5c0,1.88,0,2.67.1,4.14h4.3a14.15,14.15,0,0,0-.26,3.3v1.62h10.47a42.9,42.9,0,0,0,6.19-.31v5.71a59,59,0,0,0-6.08-.27H148.06v4.77h14.77a55.5,55.5,0,0,0,6.13-.26v5.87a55.12,55.12,0,0,0-6.6-.32H128.52a52.66,52.66,0,0,0-6.44.32V258.4a55.84,55.84,0,0,0,6,.26h14.09v-4.77h-9.85c-2.46,0-4.34.11-6,.27V248.5a34.94,34.94,0,0,0,5.39.26h10.48v-1.57c0-.58,0-.94-.05-1.73h-4a43.72,43.72,0,0,0,.32-5.71v-5.08h-5.13a20.63,20.63,0,0,1-1.89,6.6c-1.2,2.51-2.67,4.24-5.61,6.65a18.1,18.1,0,0,0-4.19-4.35c3.88-2.77,5.19-4.76,6-8.9h-.79a32.89,32.89,0,0,0-5,.26v-5.76a35.64,35.64,0,0,0,5.13.26h1.15c0-.42,0-2.15,0-5.24Zm5.92,0v1.63c0,1.31,0,2.51,0,3.61h4.71v-5.24ZM151,238.76a30,30,0,0,0,.26-4.2V224.3A31,31,0,0,0,151,220h6a28.11,28.11,0,0,0-.21,4v11a36.44,36.44,0,0,0,.16,3.78Zm16.45,1.72c0,4.51-1.41,5.5-7.6,5.5a41.37,41.37,0,0,1-4.34-.21,17.09,17.09,0,0,0-1.52-5.71,38.85,38.85,0,0,0,5.55.48c2,0,2.15-.11,2.15-1.21V222.15a28,28,0,0,0-.26-4.5h6.28a35,35,0,0,0-.26,4.92Z"/><path class="cls-2" d="M184.1,242a54.46,54.46,0,0,1-7.59,6.6,15.74,15.74,0,0,0-3.56-5.08,47,47,0,0,0,8.8-7.18,34.86,34.86,0,0,0,6.23-8.22h-7.39a51.79,51.79,0,0,0-6.23.31v-5.81a52.76,52.76,0,0,0,6.29.31h9.84a22.83,22.83,0,0,0,1.52-5.65l6.55.73a23.13,23.13,0,0,0-1.15,2.93c-.21.63-.32.89-.74,2h18.71a49.16,49.16,0,0,0,6.12-.31v5.81a50.29,50.29,0,0,0-6.12-.31H194.32c-.94,1.73-1.57,2.78-2.57,4.4h17.92a47.76,47.76,0,0,0,5.44-.21c-.15,1.62-.21,3.3-.21,6v21.85c0,2-.62,3.4-2,4.24-1,.58-2.93.84-6.12.84-1.21,0-2.21-.06-4.82-.16a16.77,16.77,0,0,0-1.37-5.5,45.18,45.18,0,0,0,6.08.47c2.3,0,2.62-.21,2.62-1.47v-4H189.71V259c0,2.82.1,4.66.26,6.54h-6.18a58.54,58.54,0,0,0,.31-6.6Zm25.2-4.45H189.71v3.82H209.3ZM189.71,246v3.88H209.3V246Z"/><path class="cls-2" d="M246.6,251.48c-.26.69-.31,1-.57,1.79a39.39,39.39,0,0,1-5.3-7.39c.27,3.56.32,4.3.32,6v8.64a31.22,31.22,0,0,0,.31,5.45h-6.07a34.17,34.17,0,0,0,.36-5.55v-6.76c0-2.09.11-4.55.21-6.28-2.35,5.76-4,8.69-6.81,11.78a15.65,15.65,0,0,0-2.67-5.39A34.54,34.54,0,0,0,232,246a43.85,43.85,0,0,0,2.78-5.92h-2.73a26.81,26.81,0,0,0-4.71.27v-5.56a25.7,25.7,0,0,0,4.71.27h3.51V222.62a32.35,32.35,0,0,0-.26-5.13h6a31.2,31.2,0,0,0-.26,5.08V235h2.46a27.42,27.42,0,0,0,4-.21v5.44a31.49,31.49,0,0,0-4.13-.21h-1.89a27.8,27.8,0,0,0,6.76,8,28.62,28.62,0,0,0-1.47,2.93,34,34,0,0,0,4.82-.73l12.26-2.72V223.62a34.89,34.89,0,0,0-.32-6.08h6.34a37.3,37.3,0,0,0-.31,6V246.3a33.13,33.13,0,0,0,4.45-1.31l1.1,6a39.55,39.55,0,0,0-5,.94l-.52.11v7.65a38.77,38.77,0,0,0,.31,6.18h-6.34a37,37,0,0,0,.32-6.24v-6.33l-11.11,2.51c-2.3.52-3.82.94-5,1.31Zm-15.14-31.11a63.94,63.94,0,0,1,3.2,11.31l-4.4,1.89A42.17,42.17,0,0,0,227,222.36Zm18,1.83a63.22,63.22,0,0,1-4.19,11.37l-3.82-2A43.85,43.85,0,0,0,245,220.26Zm2.62,11.89a47.75,47.75,0,0,1,9.11,7.7L257.6,246a45.76,45.76,0,0,0-9.22-8.07ZM253.67,221a50.78,50.78,0,0,1,9.17,7.7l-3.56,4.4c-3.88-4.14-4.14-4.35-9.27-8.07Z"/><path class="cls-2" d="M285.68,239.38a52.06,52.06,0,0,0-6.33.32v-5.87a45.91,45.91,0,0,0,6.33.32h11.79v-5.3h-8c-2.78,0-4.56.06-6,.21V223.3a42.3,42.3,0,0,0,6.08.32h7.91V222.1a27.13,27.13,0,0,0-.31-4.61h6.44a23,23,0,0,0-.31,4.71v1.42h4.55a41.36,41.36,0,0,0,5.77-.32v4.09a33.31,33.31,0,0,0,5.29-7.34l5.55,3.2c-.58.68-.74.84-1.47,1.73a88.58,88.58,0,0,1-8.48,9.17h5.71a43.18,43.18,0,0,0,6-.32v5.87a52.92,52.92,0,0,0-6.24-.32H308.42a106.11,106.11,0,0,1-11.05,7.6v2.36a95.81,95.81,0,0,0,14-4.35,31.09,31.09,0,0,0,5.08-2.46l4.4,4.82a9.92,9.92,0,0,1-1,.36c-.32.11-.32.11-1.78.74-1.63.63-6.65,2.35-9.27,3.19-4,1.21-5.45,1.57-11.42,2.94v3c0,1.78.94,2,10.37,2,5.45,0,7.65-.26,8.43-1.1s1-2.36,1.1-7a19.11,19.11,0,0,0,5.76,2.15c-.52,6.6-1.15,8.65-3,9.9S314.92,265,304.86,265c-11.63,0-13.36-.73-13.36-5.71v-9.06c-3.62,1.78-5.82,2.77-9.85,4.45a18.3,18.3,0,0,0-3.46-5.19,88.83,88.83,0,0,0,21.17-10.11Zm20.75-5.23a69.33,69.33,0,0,0,5.71-5.19,36.09,36.09,0,0,0-3.88-.11h-5v5.3Z"/><path class="cls-2" d="M358.35,218.12a34.5,34.5,0,0,0-.37,5.39c0,8.44,1.36,14,5.13,20.64a35,35,0,0,0,8.28,9.95,34.55,34.55,0,0,0,8.12,5.66,19.48,19.48,0,0,0-4.09,5.82c-6.39-4.46-9.58-7.44-13.3-12.37a41.24,41.24,0,0,1-7-14.3,37.26,37.26,0,0,1-4.09,10.58A36.18,36.18,0,0,1,343,259.55a44.74,44.74,0,0,1-8.12,6,15.74,15.74,0,0,0-4.09-5.4c5.34-2.83,8.12-5,11.42-8.75,6.76-7.75,9.59-16.34,9.59-28.91a33.63,33.63,0,0,0-.21-4.4Z"/><path class="cls-2" d="M398.79,238.39c-.16.63-.21.68-.42,1.62a54,54,0,0,1-8.8,20.33A22.68,22.68,0,0,0,383.5,257c3.45-4.13,5.34-7.75,7.33-13.77a26.83,26.83,0,0,0,1.52-6.44Zm5.29-14.14a29.29,29.29,0,0,0-.31-5.4h7.07a42.71,42.71,0,0,0-.21,5.55v2.78h12a36.28,36.28,0,0,0,6.76-.37v6.45a51.78,51.78,0,0,0-6.65-.27h-12.1V258.4a44.72,44.72,0,0,0,.26,5.87h-7.12a36.74,36.74,0,0,0,.31-5.92V233H392.45a51.57,51.57,0,0,0-6.6.27v-6.45a36.05,36.05,0,0,0,6.71.37h11.52Zm18,12.52a33.51,33.51,0,0,0,1.83,5.86c2.36,6.34,4.3,10,7.44,14.09a39,39,0,0,0-6,3.67c-4-6.34-6.13-11.26-8.59-19.59a14.55,14.55,0,0,0-.84-2.46Z"/><path class="cls-2" d="M437.4,237.71a52.28,52.28,0,0,0,8.49.36h27.92a52.06,52.06,0,0,0,8.48-.36V245c-2.09-.26-2.67-.26-8.53-.26H445.94c-5.87,0-6.44,0-8.54.26Z"/><path class="cls-2" d="M514.15,220.42a15.74,15.74,0,0,0-1.36,3.77,311.51,311.51,0,0,1-10.37,29.86,208.54,208.54,0,0,0,21.79-2.67c-.58-1.26-1.21-2.41-2.46-4.77a66.62,66.62,0,0,0-5-8.33l5.92-2.3a122.7,122.7,0,0,1,12.68,24.25l-6.34,3.3a53.38,53.38,0,0,0-2.52-6.49l-1.88.42c-5.29,1.1-14,2.2-29.65,3.72a29,29,0,0,0-4.77.62l-.94-7.07h1.36c1.05,0,2.3,0,4.5-.15,2.78-6.6,4.88-12.52,7.6-21.12,2.46-7.7,3.46-11.41,3.82-14.51Z"/><path class="cls-2" d="M27.9,388.82c-5,0-10.75-2.27-10.75-10.28,0-19,18.4-32.14,26.64-37.52,15.54-10,21.27-13.85,21.27-21.26,0-5.14-4.54-11.11-14.22-11.11-12.9,0-15.53,7.88-16.6,10.87s-2.27,6.93-7.89,6.93c-4.18,0-9.08-3.11-9.08-8.6,0-6.81,7.17-25.33,32.74-25.33,18.16,0,31.9,10,31.9,26.64,0,14.22-7.41,21.51-25.81,32.86C42.48,360.38,40.69,362.89,39,365.28a19.88,19.88,0,0,0-3.35,7.88c0,.48.6.6,1,.6H73.19c1.43,0,8.84,0,8.84,7.29,0,2.27-.84,7.77-8.84,7.77Z"/><path class="cls-2" d="M154.42,383.08a7.68,7.68,0,0,1-7.64,7.89c-5.14,0-7.53-4.66-7.53-8v-37.4c0-5.49-2-13-12.07-13-11.23,0-16.6,9.8-16.6,15.18v35.36a7.69,7.69,0,0,1-7.65,7.89c-4.9,0-7.65-4.19-7.65-8V337.44c0-2.15-1-11.23-1-13.14,0-3.47,2.51-7.05,7.64-7.05,5.38,0,7.65,4.42,9,7.65,1.92-2,7.17-7.65,20.32-7.65,13.85,0,23.17,8.84,23.17,21.62Z"/><path class="cls-2" d="M229.69,382.6c0,3.71,0,8.37-6.45,8.37-5.5,0-7.29-4-7.77-8.13-3.11,3.59-7.05,8.13-18.16,8.13-21.15,0-29.75-18.28-29.75-37.28,0-18.64,8-36.44,28.68-36.44,2,0,11.7,0,18.28,6.21V300.28c0-2.74,2-7.76,7.28-7.76a7.75,7.75,0,0,1,7.89,7.64Zm-15.17-33.09c0-1.91,0-16.37-16-16.37-4.06,0-15.29,0-15.29,21.15,0,8.84,2.27,20.79,14.94,20.79,14,0,16.37-12.19,16.37-17Z"/><path class="cls-2" d="M287.15,301a8.36,8.36,0,0,1,8.48-8.48c5.5,0,8.13,5.25,8.13,8.48v66.31c0,3.82.47,5,3.46,5h33.69c6,0,8.25,4.18,8.25,8,0,6-4.07,8.49-7.53,8.49H301c-7.17,0-13.86-1.68-13.86-15.18Z"/><path class="cls-2" d="M363.37,301c0-4.06,2.75-8.48,8-8.48A8.4,8.4,0,0,1,380,301v81.48c0,4.66-3.11,8.49-8.13,8.49a8.37,8.37,0,0,1-8.48-8.49Z"/><path class="cls-2" d="M416.65,382c0,7.64-5.49,9.08-8.36,9.08-5.26,0-8.25-2.75-8.25-8.61v-74c0-7.17,3.47-13.86,12.55-13.86h40.5c2.75,0,9,.83,9,8.6,0,6.21-4.66,8-8.48,8H419.28c-2,0-2.63,1.55-2.63,3.58v18.4h33.46c5.13,0,7.88,3.82,7.88,8.12,0,6.1-4.06,7.77-7.29,7.77H416.65Z"/><path class="cls-2" d="M525.49,332.18c5.38,0,7.89,4.3,7.89,8.25,0,7.29-6.22,7.76-7.41,7.76H491.92v20.67a3.36,3.36,0,0,0,3.46,3.35H528.6c2.86,0,8.72.83,8.72,8.48s-7.05,8.13-8.48,8.13H488.09c-8.48,0-12.78-4.42-12.78-14.94V308.53c0-6.81,3.35-13.86,12.55-13.86h40.5c2.63,0,9,.71,9,8.6,0,6.69-5.62,8-8.48,8H494.67c-2.16,0-2.75,1.79-2.75,3.58v17.32Z"/><path class="cls-2" d="M97.84,193.32h-4.4l-5-7.95-1.41,1.73v6.22H83.41V168.11h3.65V183.8h.06c.41-.66.88-1.42,1.32-2L92.75,176h4.3L91,183.14Z"/><path class="cls-2" d="M113.59,176l-4.18,12c-2,5.69-3.49,8.89-5.57,10.91a9.24,9.24,0,0,1-4,2.23l-.94-3.08a8.2,8.2,0,0,0,5.12-5.35,1.66,1.66,0,0,0-.19-.75l-5.94-16h4l3.14,9.75c.35,1.13.7,2.45,1,3.45H106c.25-1,.6-2.29.91-3.45l2.8-9.75Z"/><path class="cls-2" d="M130.25,188.35c0,2,.09,3.59.15,5h-3.2l-.19-2.51h-.1a6,6,0,0,1-5.21,2.86c-3,0-5.6-1.86-5.6-7.39V176h3.65v9.71c0,3,.84,5,3.23,5a3.71,3.71,0,0,0,3.62-3.93V176h3.65Z"/><path class="cls-2" d="M149,188.35c0,2,.09,3.59.16,5H146l-.19-2.51h-.09a6,6,0,0,1-5.22,2.86c-3,0-5.59-1.86-5.59-7.39V176h3.64v9.71c0,3,.85,5,3.24,5a3.71,3.71,0,0,0,3.61-3.93V176H149Z"/><path class="cls-2" d="M162.3,179.27a6.3,6.3,0,0,0-3.3-1c-1.63,0-2.51.94-2.51,2.1s.79,1.79,2.89,2.7c2.86,1.17,4.37,2.74,4.37,5.25,0,3.34-2.54,5.32-6.47,5.32a9.59,9.59,0,0,1-4.72-1.17l.82-2.7a8.46,8.46,0,0,0,4,1.16c1.95,0,2.89-.94,2.89-2.26s-.72-2-2.8-2.92c-3.08-1.23-4.43-3-4.43-5,0-2.89,2.36-5.19,6-5.19a8.65,8.65,0,0,1,4.12,1Z"/><path class="cls-2" d="M181,176l-4.18,12c-2.05,5.69-3.49,8.89-5.57,10.91a9.24,9.24,0,0,1-4,2.23l-.94-3.08a8.2,8.2,0,0,0,5.12-5.35,1.66,1.66,0,0,0-.19-.75l-5.94-16h4l3.15,9.75c.34,1.13.69,2.45.94,3.45h.09c.25-1,.6-2.29.92-3.45l2.79-9.75Z"/><path class="cls-2" d="M197.67,188.35c0,2,.09,3.59.15,5h-3.2l-.19-2.51h-.1a6,6,0,0,1-5.21,2.86c-3,0-5.6-1.86-5.6-7.39V176h3.65v9.71c0,3,.85,5,3.24,5a3.71,3.71,0,0,0,3.61-3.93V176h3.65Z"/><path class="cls-2" d="M216.43,188.35c0,2,.1,3.59.16,5h-3.21l-.19-2.51h-.09a6,6,0,0,1-5.22,2.86c-3,0-5.59-1.86-5.59-7.39V176h3.64v9.71c0,3,.85,5,3.24,5a3.71,3.71,0,0,0,3.62-3.93V176h3.64Z"/><path class="cls-2" d="M228.63,176c0-1.89,0-4.68,2-6.63a6,6,0,0,1,4.21-1.6,7.13,7.13,0,0,1,2.64.47l-.38,2.79a4.8,4.8,0,0,0-1.85-.34c-2.27,0-3,2-3,4.37V176H236v2.74h-3.77v14.58h-3.64V178.74H226.3V176Z"/><path class="cls-2" d="M252.67,188.35c0,2,.1,3.59.16,5h-3.21l-.18-2.51h-.1a6,6,0,0,1-5.22,2.86c-3,0-5.59-1.86-5.59-7.39V176h3.64v9.71c0,3,.85,5,3.24,5a3.71,3.71,0,0,0,3.62-3.93V176h3.64Z"/><path class="cls-2" d="M271.78,193.32h-4.4l-5-7.95L261,187.1v6.22h-3.64V168.11H261V183.8h.06c.41-.66.88-1.42,1.32-2l4.31-5.78H271l-6.1,7.14Z"/><path class="cls-2" d="M287.91,188.35c0,2,.09,3.59.16,5h-3.21l-.19-2.51h-.09a6.05,6.05,0,0,1-5.22,2.86c-3,0-5.6-1.86-5.6-7.39V176h3.65v9.71c0,3,.85,5,3.24,5a3.71,3.71,0,0,0,3.61-3.93V176h3.65Z"/><path class="cls-2" d="M301.2,179.27a6.3,6.3,0,0,0-3.3-1c-1.63,0-2.51.94-2.51,2.1s.78,1.79,2.89,2.7c2.86,1.17,4.37,2.74,4.37,5.25,0,3.34-2.55,5.32-6.48,5.32a9.58,9.58,0,0,1-4.71-1.17l.82-2.7a8.46,8.46,0,0,0,4,1.16c1.95,0,2.89-.94,2.89-2.26s-.72-2-2.8-2.92c-3.08-1.23-4.43-3-4.43-5,0-2.89,2.36-5.19,6-5.19a8.65,8.65,0,0,1,4.12,1Z"/><path class="cls-2" d="M320.5,193.32h-3.64V183.2c0-2.48-.85-4.56-3.3-4.56a3.85,3.85,0,0,0-3.71,4.09v10.59H306.2V168.11h3.65v10.25h.06a5.91,5.91,0,0,1,5-2.74c2.61,0,5.62,1.76,5.62,7.23Z"/><path class="cls-2" d="M326.92,173.33a2.12,2.12,0,1,1,2.13-2.11A2,2,0,0,1,326.92,173.33Zm1.82,20h-3.65V176h3.65Z"/><path class="cls-2" d="M349.08,179.27a6.36,6.36,0,0,0-3.3-1c-1.64,0-2.52.94-2.52,2.1s.79,1.79,2.89,2.7c2.86,1.17,4.37,2.74,4.37,5.25,0,3.34-2.54,5.32-6.47,5.32a9.62,9.62,0,0,1-4.72-1.17l.82-2.7a8.46,8.46,0,0,0,4,1.16c1.95,0,2.89-.94,2.89-2.26s-.72-2-2.8-2.92c-3.08-1.23-4.43-3-4.43-5,0-2.89,2.36-5.19,6-5.19a8.64,8.64,0,0,1,4.11,1Z"/><path class="cls-2" d="M366.74,192.63a13.6,13.6,0,0,1-5.5,1c-5.22,0-8.23-3.49-8.23-8.77s2.89-9.28,7.79-9.28,6.82,4.06,6.82,8.33a11.4,11.4,0,0,1-.09,1.54h-11c.09,3.9,2.51,5.38,5.25,5.38a10.8,10.8,0,0,0,4.36-.82Zm-2.58-9.75c0-2.07-.81-4.65-3.61-4.65s-3.8,2.64-4,4.65Z"/><path class="cls-2" d="M379.85,179.21a4.87,4.87,0,0,0-1.07-.1c-2.45,0-4,2-4,5v9.18h-3.65v-12c0-2,0-3.68-.12-5.28h3.17l.13,3.18h.12a5,5,0,0,1,4.5-3.56,3.85,3.85,0,0,1,.91.1Z"/><path class="cls-2" d="M396.54,176l-6.22,17.32h-3.49L380.76,176h3.93l2.83,9.21c.47,1.51.85,3,1.16,4.4h.1c.31-1.44.72-2.86,1.16-4.37l2.8-9.24Z"/><path class="cls-2" d="M401.07,173.33a2.12,2.12,0,1,1,2.13-2.11A2,2,0,0,1,401.07,173.33Zm1.82,20h-3.65V176h3.65Z"/><path class="cls-2" d="M419.23,192.79a11.31,11.31,0,0,1-4.46.88c-5,0-8.27-3.43-8.27-8.84,0-5.25,3.4-9.21,9-9.21a9.27,9.27,0,0,1,3.87.79l-.72,2.8a6.74,6.74,0,0,0-3.12-.69c-3.39,0-5.28,2.76-5.28,6.16,0,3.8,2.24,6.06,5.25,6.06a7.82,7.82,0,0,0,3.27-.69Z"/><path class="cls-2" d="M435.17,192.63a13.6,13.6,0,0,1-5.5,1c-5.22,0-8.23-3.49-8.23-8.77s2.89-9.28,7.79-9.28,6.82,4.06,6.82,8.33a11.4,11.4,0,0,1-.09,1.54H425c.09,3.9,2.51,5.38,5.25,5.38a10.8,10.8,0,0,0,4.36-.82Zm-2.58-9.75c0-2.07-.81-4.65-3.61-4.65s-3.8,2.64-4,4.65Z"/><polygon class="cls-2" points="6.19 394.35 2 394.35 2 198.38 2.88 197.75 278.62 2 279.84 2.88 550.16 197.76 547.71 201.16 278.6 7.15 6.19 200.54 6.19 394.35"/><path class="cls-2" d="M21.86,244.36c0-1.36.05-2.41.15-6a38.28,38.28,0,0,1-4.08,5.6,28.4,28.4,0,0,0-2.36-6.33,42.64,42.64,0,0,0,8.64-13.83,33.18,33.18,0,0,0,2-6.81l6,1.52A84.71,84.71,0,0,1,27.57,230v29.44a44.34,44.34,0,0,0,.36,6.07H21.49a36.33,36.33,0,0,0,.37-6.13ZM48.68,227.7a52.6,52.6,0,0,0-10.38-6.6l4-3.87a64.48,64.48,0,0,1,11,6.49l-3.93,4h7.91a50.55,50.55,0,0,0,6.23-.31v5.87c-1.83-.16-3.82-.27-6.07-.27H49.62v9.17h6.49a46.31,46.31,0,0,0,5.82-.31v5.76c-1.68-.16-3.56-.26-5.76-.26H49.62v11h9.06a53.53,53.53,0,0,0,6.24-.32v5.87c-1.89-.16-3.67-.26-6.29-.26H35.48c-2.57,0-4.3.1-6.24.26V258a50.34,50.34,0,0,0,6,.32h8.48v-11H38.2c-2.2,0-4,.1-5.76.26v-5.76a44.64,44.64,0,0,0,5.76.31h5.55V233H36.89c-2.2,0-4.14.11-6,.27v-5.87a35.87,35.87,0,0,0,5.92.31Z"/><path class="cls-2" d="M87.08,238.76c-6.39,1-6.39,1-12.78,1.88a25.58,25.58,0,0,0-2.41-5.29,140.65,140.65,0,0,0,21.42-3c5.4-1.2,8.8-2.35,11.26-3.82l4.88,4.72a35.05,35.05,0,0,0-4,1.1c-6.07,1.83-9,2.61-12.52,3.35v5.5l17.92-1.94a36.87,36.87,0,0,0,5.65-1l.58,6a5.86,5.86,0,0,0-.94-.06c-.94,0-3.41.16-4.82.32l-18.39,2v8.69c0,1.31.26,1.63,1.47,1.94a49.22,49.22,0,0,0,6.39.32c5.08,0,7.6-.32,8.59-1s1.15-2,1.36-7a17,17,0,0,0,5.76,2.1c-.31,4-.52,5.18-1.2,6.76a5.87,5.87,0,0,1-4.66,3.87c-1.84.47-4.56.63-10.64.63-11,0-12.88-.84-12.88-5.92v-9.74l-11.37,1.25a41.42,41.42,0,0,0-5.71,1l-.58-5.92h1c1,0,3.3-.16,4.72-.26l11.89-1.31Zm2.67-18.29a15.19,15.19,0,0,0-.31-3h6.44a14.48,14.48,0,0,0-.26,3v1.68h14.45a58,58,0,0,0,5.82-.21,24.33,24.33,0,0,0-.21,3.88v4a30.22,30.22,0,0,0,.21,4h-5.71v-6.34H76.29v6.34H70.53a24.15,24.15,0,0,0,.26-4.08v-3.93a28.53,28.53,0,0,0-.21-3.88,56.11,56.11,0,0,0,5.76.21H89.75Z"/><path class="cls-2" d="M127.84,224.19a38.29,38.29,0,0,0-4.77.21v-5.6c1.62.15,3.25.26,5.61.26h14.09a37.61,37.61,0,0,0,5.6-.26v5.6a31.64,31.64,0,0,0-4.45-.21v5.24h.37a41,41,0,0,0,5.08-.21v5.66a42.43,42.43,0,0,0-5-.21h-.47v5c0,1.88,0,2.67.1,4.14h4.3a14.15,14.15,0,0,0-.26,3.3v1.62h10.47a42.9,42.9,0,0,0,6.19-.31v5.71a59,59,0,0,0-6.08-.27H148.06v4.77h14.77a55.5,55.5,0,0,0,6.13-.26v5.87a55.12,55.12,0,0,0-6.6-.32H128.52a52.66,52.66,0,0,0-6.44.32V258.4a55.84,55.84,0,0,0,6,.26h14.09v-4.77h-9.85c-2.46,0-4.34.11-6,.27V248.5a34.94,34.94,0,0,0,5.39.26h10.48v-1.57c0-.58,0-.94-.05-1.73h-4a43.72,43.72,0,0,0,.32-5.71v-5.08h-5.13a20.63,20.63,0,0,1-1.89,6.6c-1.2,2.51-2.67,4.24-5.61,6.65a18.1,18.1,0,0,0-4.19-4.35c3.88-2.77,5.19-4.76,6-8.9h-.79a32.89,32.89,0,0,0-5,.26v-5.76a35.64,35.64,0,0,0,5.13.26h1.15c0-.42,0-2.15,0-5.24Zm5.92,0v1.63c0,1.31,0,2.51,0,3.61h4.71v-5.24ZM151,238.76a30,30,0,0,0,.26-4.2V224.3A31,31,0,0,0,151,220h6a28.11,28.11,0,0,0-.21,4v11a36.44,36.44,0,0,0,.16,3.78Zm16.45,1.72c0,4.51-1.41,5.5-7.6,5.5a41.37,41.37,0,0,1-4.34-.21,17.09,17.09,0,0,0-1.52-5.71,38.85,38.85,0,0,0,5.55.48c2,0,2.15-.11,2.15-1.21V222.15a28,28,0,0,0-.26-4.5h6.28a35,35,0,0,0-.26,4.92Z"/><path class="cls-2" d="M184.1,242a54.46,54.46,0,0,1-7.59,6.6,15.74,15.74,0,0,0-3.56-5.08,47,47,0,0,0,8.8-7.18,34.86,34.86,0,0,0,6.23-8.22h-7.39a51.79,51.79,0,0,0-6.23.31v-5.81a52.76,52.76,0,0,0,6.29.31h9.84a22.83,22.83,0,0,0,1.52-5.65l6.55.73a23.13,23.13,0,0,0-1.15,2.93c-.21.63-.32.89-.74,2h18.71a49.16,49.16,0,0,0,6.12-.31v5.81a50.29,50.29,0,0,0-6.12-.31H194.32c-.94,1.73-1.57,2.78-2.57,4.4h17.92a47.76,47.76,0,0,0,5.44-.21c-.15,1.62-.21,3.3-.21,6v21.85c0,2-.62,3.4-2,4.24-1,.58-2.93.84-6.12.84-1.21,0-2.21-.06-4.82-.16a16.77,16.77,0,0,0-1.37-5.5,45.18,45.18,0,0,0,6.08.47c2.3,0,2.62-.21,2.62-1.47v-4H189.71V259c0,2.82.1,4.66.26,6.54h-6.18a58.54,58.54,0,0,0,.31-6.6Zm25.2-4.45H189.71v3.82H209.3ZM189.71,246v3.88H209.3V246Z"/><path class="cls-2" d="M246.6,251.48c-.26.69-.31,1-.57,1.79a39.39,39.39,0,0,1-5.3-7.39c.27,3.56.32,4.3.32,6v8.64a31.22,31.22,0,0,0,.31,5.45h-6.07a34.17,34.17,0,0,0,.36-5.55v-6.76c0-2.09.11-4.55.21-6.28-2.35,5.76-4,8.69-6.81,11.78a15.65,15.65,0,0,0-2.67-5.39A34.54,34.54,0,0,0,232,246a43.85,43.85,0,0,0,2.78-5.92h-2.73a26.81,26.81,0,0,0-4.71.27v-5.56a25.7,25.7,0,0,0,4.71.27h3.51V222.62a32.35,32.35,0,0,0-.26-5.13h6a31.2,31.2,0,0,0-.26,5.08V235h2.46a27.42,27.42,0,0,0,4-.21v5.44a31.49,31.49,0,0,0-4.13-.21h-1.89a27.8,27.8,0,0,0,6.76,8,28.62,28.62,0,0,0-1.47,2.93,34,34,0,0,0,4.82-.73l12.26-2.72V223.62a34.89,34.89,0,0,0-.32-6.08h6.34a37.3,37.3,0,0,0-.31,6V246.3a33.13,33.13,0,0,0,4.45-1.31l1.1,6a39.55,39.55,0,0,0-5,.94l-.52.11v7.65a38.77,38.77,0,0,0,.31,6.18h-6.34a37,37,0,0,0,.32-6.24v-6.33l-11.11,2.51c-2.3.52-3.82.94-5,1.31Zm-15.14-31.11a63.94,63.94,0,0,1,3.2,11.31l-4.4,1.89A42.17,42.17,0,0,0,227,222.36Zm18,1.83a63.22,63.22,0,0,1-4.19,11.37l-3.82-2A43.85,43.85,0,0,0,245,220.26Zm2.62,11.89a47.75,47.75,0,0,1,9.11,7.7L257.6,246a45.76,45.76,0,0,0-9.22-8.07ZM253.67,221a50.78,50.78,0,0,1,9.17,7.7l-3.56,4.4c-3.88-4.14-4.14-4.35-9.27-8.07Z"/><path class="cls-2" d="M285.68,239.38a52.06,52.06,0,0,0-6.33.32v-5.87a45.91,45.91,0,0,0,6.33.32h11.79v-5.3h-8c-2.78,0-4.56.06-6,.21V223.3a42.3,42.3,0,0,0,6.08.32h7.91V222.1a27.13,27.13,0,0,0-.31-4.61h6.44a23,23,0,0,0-.31,4.71v1.42h4.55a41.36,41.36,0,0,0,5.77-.32v4.09a33.31,33.31,0,0,0,5.29-7.34l5.55,3.2c-.58.68-.74.84-1.47,1.73a88.58,88.58,0,0,1-8.48,9.17h5.71a43.18,43.18,0,0,0,6-.32v5.87a52.92,52.92,0,0,0-6.24-.32H308.42a106.11,106.11,0,0,1-11.05,7.6v2.36a95.81,95.81,0,0,0,14-4.35,31.09,31.09,0,0,0,5.08-2.46l4.4,4.82a9.92,9.92,0,0,1-1,.36c-.32.11-.32.11-1.78.74-1.63.63-6.65,2.35-9.27,3.19-4,1.21-5.45,1.57-11.42,2.94v3c0,1.78.94,2,10.37,2,5.45,0,7.65-.26,8.43-1.1s1-2.36,1.1-7a19.11,19.11,0,0,0,5.76,2.15c-.52,6.6-1.15,8.65-3,9.9S314.92,265,304.86,265c-11.63,0-13.36-.73-13.36-5.71v-9.06c-3.62,1.78-5.82,2.77-9.85,4.45a18.3,18.3,0,0,0-3.46-5.19,88.83,88.83,0,0,0,21.17-10.11Zm20.75-5.23a69.33,69.33,0,0,0,5.71-5.19,36.09,36.09,0,0,0-3.88-.11h-5v5.3Z"/><path class="cls-2" d="M358.35,218.12a34.5,34.5,0,0,0-.37,5.39c0,8.44,1.36,14,5.13,20.64a35,35,0,0,0,8.28,9.95,34.55,34.55,0,0,0,8.12,5.66,19.48,19.48,0,0,0-4.09,5.82c-6.39-4.46-9.58-7.44-13.3-12.37a41.24,41.24,0,0,1-7-14.3,37.26,37.26,0,0,1-4.09,10.58A36.18,36.18,0,0,1,343,259.55a44.74,44.74,0,0,1-8.12,6,15.74,15.74,0,0,0-4.09-5.4c5.34-2.83,8.12-5,11.42-8.75,6.76-7.75,9.59-16.34,9.59-28.91a33.63,33.63,0,0,0-.21-4.4Z"/><path class="cls-2" d="M398.79,238.39c-.16.63-.21.68-.42,1.62a54,54,0,0,1-8.8,20.33A22.68,22.68,0,0,0,383.5,257c3.45-4.13,5.34-7.75,7.33-13.77a26.83,26.83,0,0,0,1.52-6.44Zm5.29-14.14a29.29,29.29,0,0,0-.31-5.4h7.07a42.71,42.71,0,0,0-.21,5.55v2.78h12a36.28,36.28,0,0,0,6.76-.37v6.45a51.78,51.78,0,0,0-6.65-.27h-12.1V258.4a44.72,44.72,0,0,0,.26,5.87h-7.12a36.74,36.74,0,0,0,.31-5.92V233H392.45a51.57,51.57,0,0,0-6.6.27v-6.45a36.05,36.05,0,0,0,6.71.37h11.52Zm18,12.52a33.51,33.51,0,0,0,1.83,5.86c2.36,6.34,4.3,10,7.44,14.09a39,39,0,0,0-6,3.67c-4-6.34-6.13-11.26-8.59-19.59a14.55,14.55,0,0,0-.84-2.46Z"/><path class="cls-2" d="M437.4,237.71a52.28,52.28,0,0,0,8.49.36h27.92a52.06,52.06,0,0,0,8.48-.36V245c-2.09-.26-2.67-.26-8.53-.26H445.94c-5.87,0-6.44,0-8.54.26Z"/><path class="cls-2" d="M514.15,220.42a15.74,15.74,0,0,0-1.36,3.77,311.51,311.51,0,0,1-10.37,29.86,208.54,208.54,0,0,0,21.79-2.67c-.58-1.26-1.21-2.41-2.46-4.77a66.62,66.62,0,0,0-5-8.33l5.92-2.3a122.7,122.7,0,0,1,12.68,24.25l-6.34,3.3a53.38,53.38,0,0,0-2.52-6.49l-1.88.42c-5.29,1.1-14,2.2-29.65,3.72a29,29,0,0,0-4.77.62l-.94-7.07h1.36c1.05,0,2.3,0,4.5-.15,2.78-6.6,4.88-12.52,7.6-21.12,2.46-7.7,3.46-11.41,3.82-14.51Z"/><path class="cls-2" d="M27.9,388.82c-5,0-10.75-2.27-10.75-10.28,0-19,18.4-32.14,26.64-37.52,15.54-10,21.27-13.85,21.27-21.26,0-5.14-4.54-11.11-14.22-11.11-12.9,0-15.53,7.88-16.6,10.87s-2.27,6.93-7.89,6.93c-4.18,0-9.08-3.11-9.08-8.6,0-6.81,7.17-25.33,32.74-25.33,18.16,0,31.9,10,31.9,26.64,0,14.22-7.41,21.51-25.81,32.86C42.48,360.38,40.69,362.89,39,365.28a19.88,19.88,0,0,0-3.35,7.88c0,.48.6.6,1,.6H73.19c1.43,0,8.84,0,8.84,7.29,0,2.27-.84,7.77-8.84,7.77Z"/><path class="cls-2" d="M154.42,383.08a7.68,7.68,0,0,1-7.64,7.89c-5.14,0-7.53-4.66-7.53-8v-37.4c0-5.49-2-13-12.07-13-11.23,0-16.6,9.8-16.6,15.18v35.36a7.69,7.69,0,0,1-7.65,7.89c-4.9,0-7.65-4.19-7.65-8V337.44c0-2.15-1-11.23-1-13.14,0-3.47,2.51-7.05,7.64-7.05,5.38,0,7.65,4.42,9,7.65,1.92-2,7.17-7.65,20.32-7.65,13.85,0,23.17,8.84,23.17,21.62Z"/><path class="cls-2" d="M229.69,382.6c0,3.71,0,8.37-6.45,8.37-5.5,0-7.29-4-7.77-8.13-3.11,3.59-7.05,8.13-18.16,8.13-21.15,0-29.75-18.28-29.75-37.28,0-18.64,8-36.44,28.68-36.44,2,0,11.7,0,18.28,6.21V300.28c0-2.74,2-7.76,7.28-7.76a7.75,7.75,0,0,1,7.89,7.64Zm-15.17-33.09c0-1.91,0-16.37-16-16.37-4.06,0-15.29,0-15.29,21.15,0,8.84,2.27,20.79,14.94,20.79,14,0,16.37-12.19,16.37-17Z"/><path class="cls-2" d="M287.15,301a8.36,8.36,0,0,1,8.48-8.48c5.5,0,8.13,5.25,8.13,8.48v66.31c0,3.82.47,5,3.46,5h33.69c6,0,8.25,4.18,8.25,8,0,6-4.07,8.49-7.53,8.49H301c-7.17,0-13.86-1.68-13.86-15.18Z"/><path class="cls-2" d="M363.37,301c0-4.06,2.75-8.48,8-8.48A8.4,8.4,0,0,1,380,301v81.48c0,4.66-3.11,8.49-8.13,8.49a8.37,8.37,0,0,1-8.48-8.49Z"/><path class="cls-2" d="M416.65,382c0,7.64-5.49,9.08-8.36,9.08-5.26,0-8.25-2.75-8.25-8.61v-74c0-7.17,3.47-13.86,12.55-13.86h40.5c2.75,0,9,.83,9,8.6,0,6.21-4.66,8-8.48,8H419.28c-2,0-2.63,1.55-2.63,3.58v18.4h33.46c5.13,0,7.88,3.82,7.88,8.12,0,6.1-4.06,7.77-7.29,7.77H416.65Z"/><path class="cls-2" d="M525.49,332.18c5.38,0,7.89,4.3,7.89,8.25,0,7.29-6.22,7.76-7.41,7.76H491.92v20.67a3.36,3.36,0,0,0,3.46,3.35H528.6c2.86,0,8.72.83,8.72,8.48s-7.05,8.13-8.48,8.13H488.09c-8.48,0-12.78-4.42-12.78-14.94V308.53c0-6.81,3.35-13.86,12.55-13.86h40.5c2.63,0,9,.71,9,8.6,0,6.69-5.62,8-8.48,8H494.67c-2.16,0-2.75,1.79-2.75,3.58v17.32Z"/><path class="cls-2" d="M97.84,193.32h-4.4l-5-7.95-1.41,1.73v6.22H83.41V168.11h3.65V183.8h.06c.41-.66.88-1.42,1.32-2L92.75,176h4.3L91,183.14Z"/><path class="cls-2" d="M113.59,176l-4.18,12c-2,5.69-3.49,8.89-5.57,10.91a9.24,9.24,0,0,1-4,2.23l-.94-3.08a8.2,8.2,0,0,0,5.12-5.35,1.66,1.66,0,0,0-.19-.75l-5.94-16h4l3.14,9.75c.35,1.13.7,2.45,1,3.45H106c.25-1,.6-2.29.91-3.45l2.8-9.75Z"/><path class="cls-2" d="M130.25,188.35c0,2,.09,3.59.15,5h-3.2l-.19-2.51h-.1a6,6,0,0,1-5.21,2.86c-3,0-5.6-1.86-5.6-7.39V176h3.65v9.71c0,3,.84,5,3.23,5a3.71,3.71,0,0,0,3.62-3.93V176h3.65Z"/><path class="cls-2" d="M149,188.35c0,2,.09,3.59.16,5H146l-.19-2.51h-.09a6,6,0,0,1-5.22,2.86c-3,0-5.59-1.86-5.59-7.39V176h3.64v9.71c0,3,.85,5,3.24,5a3.71,3.71,0,0,0,3.61-3.93V176H149Z"/><path class="cls-2" d="M162.3,179.27a6.3,6.3,0,0,0-3.3-1c-1.63,0-2.51.94-2.51,2.1s.79,1.79,2.89,2.7c2.86,1.17,4.37,2.74,4.37,5.25,0,3.34-2.54,5.32-6.47,5.32a9.59,9.59,0,0,1-4.72-1.17l.82-2.7a8.46,8.46,0,0,0,4,1.16c1.95,0,2.89-.94,2.89-2.26s-.72-2-2.8-2.92c-3.08-1.23-4.43-3-4.43-5,0-2.89,2.36-5.19,6-5.19a8.65,8.65,0,0,1,4.12,1Z"/><path class="cls-2" d="M181,176l-4.18,12c-2.05,5.69-3.49,8.89-5.57,10.91a9.24,9.24,0,0,1-4,2.23l-.94-3.08a8.2,8.2,0,0,0,5.12-5.35,1.66,1.66,0,0,0-.19-.75l-5.94-16h4l3.15,9.75c.34,1.13.69,2.45.94,3.45h.09c.25-1,.6-2.29.92-3.45l2.79-9.75Z"/><path class="cls-2" d="M197.67,188.35c0,2,.09,3.59.15,5h-3.2l-.19-2.51h-.1a6,6,0,0,1-5.21,2.86c-3,0-5.6-1.86-5.6-7.39V176h3.65v9.71c0,3,.85,5,3.24,5a3.71,3.71,0,0,0,3.61-3.93V176h3.65Z"/><path class="cls-2" d="M216.43,188.35c0,2,.1,3.59.16,5h-3.21l-.19-2.51h-.09a6,6,0,0,1-5.22,2.86c-3,0-5.59-1.86-5.59-7.39V176h3.64v9.71c0,3,.85,5,3.24,5a3.71,3.71,0,0,0,3.62-3.93V176h3.64Z"/><path class="cls-2" d="M228.63,176c0-1.89,0-4.68,2-6.63a6,6,0,0,1,4.21-1.6,7.13,7.13,0,0,1,2.64.47l-.38,2.79a4.8,4.8,0,0,0-1.85-.34c-2.27,0-3,2-3,4.37V176H236v2.74h-3.77v14.58h-3.64V178.74H226.3V176Z"/><path class="cls-2" d="M252.67,188.35c0,2,.1,3.59.16,5h-3.21l-.18-2.51h-.1a6,6,0,0,1-5.22,2.86c-3,0-5.59-1.86-5.59-7.39V176h3.64v9.71c0,3,.85,5,3.24,5a3.71,3.71,0,0,0,3.62-3.93V176h3.64Z"/><path class="cls-2" d="M271.78,193.32h-4.4l-5-7.95L261,187.1v6.22h-3.64V168.11H261V183.8h.06c.41-.66.88-1.42,1.32-2l4.31-5.78H271l-6.1,7.14Z"/><path class="cls-2" d="M287.91,188.35c0,2,.09,3.59.16,5h-3.21l-.19-2.51h-.09a6.05,6.05,0,0,1-5.22,2.86c-3,0-5.6-1.86-5.6-7.39V176h3.65v9.71c0,3,.85,5,3.24,5a3.71,3.71,0,0,0,3.61-3.93V176h3.65Z"/><path class="cls-2" d="M301.2,179.27a6.3,6.3,0,0,0-3.3-1c-1.63,0-2.51.94-2.51,2.1s.78,1.79,2.89,2.7c2.86,1.17,4.37,2.74,4.37,5.25,0,3.34-2.55,5.32-6.48,5.32a9.58,9.58,0,0,1-4.71-1.17l.82-2.7a8.46,8.46,0,0,0,4,1.16c1.95,0,2.89-.94,2.89-2.26s-.72-2-2.8-2.92c-3.08-1.23-4.43-3-4.43-5,0-2.89,2.36-5.19,6-5.19a8.65,8.65,0,0,1,4.12,1Z"/><path class="cls-2" d="M320.5,193.32h-3.64V183.2c0-2.48-.85-4.56-3.3-4.56a3.85,3.85,0,0,0-3.71,4.09v10.59H306.2V168.11h3.65v10.25h.06a5.91,5.91,0,0,1,5-2.74c2.61,0,5.62,1.76,5.62,7.23Z"/><path class="cls-2" d="M326.92,173.33a2.12,2.12,0,1,1,2.13-2.11A2,2,0,0,1,326.92,173.33Zm1.82,20h-3.65V176h3.65Z"/><path class="cls-2" d="M349.08,179.27a6.36,6.36,0,0,0-3.3-1c-1.64,0-2.52.94-2.52,2.1s.79,1.79,2.89,2.7c2.86,1.17,4.37,2.74,4.37,5.25,0,3.34-2.54,5.32-6.47,5.32a9.62,9.62,0,0,1-4.72-1.17l.82-2.7a8.46,8.46,0,0,0,4,1.16c1.95,0,2.89-.94,2.89-2.26s-.72-2-2.8-2.92c-3.08-1.23-4.43-3-4.43-5,0-2.89,2.36-5.19,6-5.19a8.64,8.64,0,0,1,4.11,1Z"/><path class="cls-2" d="M366.74,192.63a13.6,13.6,0,0,1-5.5,1c-5.22,0-8.23-3.49-8.23-8.77s2.89-9.28,7.79-9.28,6.82,4.06,6.82,8.33a11.4,11.4,0,0,1-.09,1.54h-11c.09,3.9,2.51,5.38,5.25,5.38a10.8,10.8,0,0,0,4.36-.82Zm-2.58-9.75c0-2.07-.81-4.65-3.61-4.65s-3.8,2.64-4,4.65Z"/><path class="cls-2" d="M379.85,179.21a4.87,4.87,0,0,0-1.07-.1c-2.45,0-4,2-4,5v9.18h-3.65v-12c0-2,0-3.68-.12-5.28h3.17l.13,3.18h.12a5,5,0,0,1,4.5-3.56,3.85,3.85,0,0,1,.91.1Z"/><path class="cls-2" d="M396.54,176l-6.22,17.32h-3.49L380.76,176h3.93l2.83,9.21c.47,1.51.85,3,1.16,4.4h.1c.31-1.44.72-2.86,1.16-4.37l2.8-9.24Z"/><path class="cls-2" d="M401.07,173.33a2.12,2.12,0,1,1,2.13-2.11A2,2,0,0,1,401.07,173.33Zm1.82,20h-3.65V176h3.65Z"/><path class="cls-2" d="M419.23,192.79a11.31,11.31,0,0,1-4.46.88c-5,0-8.27-3.43-8.27-8.84,0-5.25,3.4-9.21,9-9.21a9.27,9.27,0,0,1,3.87.79l-.72,2.8a6.74,6.74,0,0,0-3.12-.69c-3.39,0-5.28,2.76-5.28,6.16,0,3.8,2.24,6.06,5.25,6.06a7.82,7.82,0,0,0,3.27-.69Z"/><path class="cls-2" d="M435.17,192.63a13.6,13.6,0,0,1-5.5,1c-5.22,0-8.23-3.49-8.23-8.77s2.89-9.28,7.79-9.28,6.82,4.06,6.82,8.33a11.4,11.4,0,0,1-.09,1.54H425c.09,3.9,2.51,5.38,5.25,5.38a10.8,10.8,0,0,0,4.36-.82Zm-2.58-9.75c0-2.07-.81-4.65-3.61-4.65s-3.8,2.64-4,4.65Z"/></g></g></svg>