<svg xmlns="http://www.w3.org/2000/svg" width="414" height="170" viewBox="0 0 414 170"><defs><style>.cls-1{fill:#2e3192;}.cls-2{fill:#fff;}</style></defs><title>ico_company</title><g id="レイヤー_2" data-name="レイヤー 2"><g id="注釈"><rect class="cls-1" width="414" height="170"/><path class="cls-2" d="M138.63,82.5a36.87,36.87,0,0,1-6.24,3.36,17.89,17.89,0,0,0-2.26-4,36.48,36.48,0,0,0,9.79-5.42,25.87,25.87,0,0,0,6.16-6.55h4.64a23.79,23.79,0,0,0,6.6,6.47,41.22,41.22,0,0,0,10,5.27A17.48,17.48,0,0,0,165.19,86a43,43,0,0,1-6.67-3.55v3a28.76,28.76,0,0,0-3.51-.16H142a30.63,30.63,0,0,0-3.36.16Zm-2.14,10.07a37.7,37.7,0,0,0-4.6.23V88.28a39.61,39.61,0,0,0,4.6.23h24.3a38,38,0,0,0,4.56-.23V92.8a37.56,37.56,0,0,0-4.56-.23H147.37a42.25,42.25,0,0,1-4.06,7.56c6.91-.39,6.91-.39,12.37-1-1.25-1.37-1.91-2.07-4.1-4.33l3.86-1.72a80,80,0,0,1,9,10.42L160.71,106c-1.29-1.91-1.68-2.45-2.34-3.39-3.24.43-5.58.7-7,.86-3.86.35-11.59,1-13.15,1.17a43.64,43.64,0,0,0-5,.55l-.62-4.76c1,.07,1.72.11,2.26.11.27,0,1.44,0,3.43-.15a41.06,41.06,0,0,0,4.18-7.8ZM155,81.3c.63,0,1,0,1.72,0a31.81,31.81,0,0,1-8.15-7.57,33.56,33.56,0,0,1-8.11,7.57c.66,0,.89,0,1.6,0Z"/><path class="cls-2" d="M179.7,101.77a27.06,27.06,0,0,0,.2,4h-4.72a23.91,23.91,0,0,0,.23-4.06V91.9a26.06,26.06,0,0,1-4.33,3.32,15.2,15.2,0,0,0-2-4.06,27,27,0,0,0,6.71-5.26,23.25,23.25,0,0,0,4.25-6h-6.36a26,26,0,0,0-3.27.16V75.72a23.29,23.29,0,0,0,3.08.15h1.95V72.6a17.52,17.52,0,0,0-.24-3h4.72a17.32,17.32,0,0,0-.23,3.05v3.19h1.6a14.21,14.21,0,0,0,2.26-.11l1.87,2a10.46,10.46,0,0,0-.85,1.63,32.12,32.12,0,0,1-3.9,6.67,23,23,0,0,0,6.2,5,16.58,16.58,0,0,0-2.15,3.82,21.53,21.53,0,0,1-5-4.41Zm16.54-1.83h4.68a32.54,32.54,0,0,0,4.44-.24v4.72a32.69,32.69,0,0,0-4.44-.27H187.58a32.34,32.34,0,0,0-4.41.27V99.7a34.62,34.62,0,0,0,4.49.24h4.25V84.69H189c-1.32,0-2.57.08-3.82.19v-4.4a27.34,27.34,0,0,0,3.82.19h2.93V73.81a27,27,0,0,0-.28-4.06h4.88a23.28,23.28,0,0,0-.27,4.06v6.86h4.13a26.22,26.22,0,0,0,3.82-.19v4.4c-1.24-.11-2.45-.19-3.82-.19h-4.13Z"/><path class="cls-2" d="M228.68,98.07c-.11-.43-.15-.59-.27-.94a48.06,48.06,0,0,1-6.16,3.78c-2,1.1-2.22,1.21-3.32,1.84l-1.32-4.1a21.47,21.47,0,0,0,2.57-.9v-10c-.39.47-.58.78-.7.94l-1,1.6a28,28,0,0,1-1.88-3.94c0,.78,0,.78.08,1.83,0,.43,0,1.79,0,3v9.91c0,1.87.08,3.47.2,4.76h-4.18a41.21,41.21,0,0,0,.24-4.76V92.8l.07-2.07c0-.46,0-.93.08-1.36s0-.66.08-1.25a37,37,0,0,1-3.43,8.46,12.72,12.72,0,0,0-2.11-3.82,37.28,37.28,0,0,0,5.07-12.28h-1.28a15.73,15.73,0,0,0-2.58.15V76.69a11,11,0,0,0,2.58.2h1.48V73.73a27.6,27.6,0,0,0-.2-4.06h4.18a28.34,28.34,0,0,0-.2,4v3.2h.35a13.43,13.43,0,0,0,2.34-.16v3.9a13.87,13.87,0,0,0-2.26-.15h-.35a17.9,17.9,0,0,0,3.39,6.2V74.82a33.57,33.57,0,0,0-.15-3.74c.78.08,1.83.11,3.12.11h4.21c1.32,0,2.26,0,3.08-.11-.08.82-.12,2-.12,3.59V85.82a20.81,20.81,0,0,0,.12,3.24,18.2,18.2,0,0,0-2.54-.12h-4.21v7.29c1.33-.7,2.27-1.21,3.51-2-.58-1.17-.82-1.67-1.64-3.12l2.85-1.2a42.49,42.49,0,0,1,3.28,6.43,36.12,36.12,0,0,0,4.09-7.76h-1.17a29,29,0,0,0-3.51.16v-4c.67.08.94.08,1.64.11V74.94a11.44,11.44,0,0,0-1.4.12v-4a21.63,21.63,0,0,0,3.39.19H241a24.42,24.42,0,0,0,3.47-.19v4c-.9-.07-1.29-.11-2.11-.15a46.34,46.34,0,0,1-1.71,9.94h.43a22.63,22.63,0,0,0,3.59-.19v4.09a25.59,25.59,0,0,0-3.75-.19h-1.48c-.47,1.21-.62,1.6-1.09,2.69H240a15,15,0,0,0-.16,2.42v6.59c0,.82.16,1,.82,1s.9-.15,1-.47a14.34,14.34,0,0,0,.35-4.29V95.1a9.9,9.9,0,0,0,3,1.45c-.2,4.52-.47,6.27-1.1,7.29s-1.48,1.21-3.78,1.21c-3.08,0-3.67-.51-3.67-3.24V95.06a31.69,31.69,0,0,1-8.58,10.57,16,16,0,0,0-3.12-3,24.44,24.44,0,0,0,6.48-5.85ZM227,78.45V74.86h-3.28v3.59Zm-3.28,6.94H227V81.76h-3.28Zm13.38-.51a38.26,38.26,0,0,0,1.52-9.94h-2.34v9.94Z"/><path class="cls-2" d="M259.73,90a20.76,20.76,0,0,0,1.44-2.45h-5.93c-2,0-3.31,0-4.52.15a32.2,32.2,0,0,0,.16-3.78V81.18a36,36,0,0,0-.16-4,33.18,33.18,0,0,0,4.33.2h4.25V74.94h-6.47c-1.84,0-3.28.08-4.49.19V71a36,36,0,0,0,4.8.23h24.8a34.82,34.82,0,0,0,4.84-.23v4.13c-1.25-.11-2.65-.19-4.53-.19h-7V77.4h4.53a31.47,31.47,0,0,0,4.37-.2,33.82,33.82,0,0,0-.16,4v2.65c0,2,0,2.85.12,3.82a40.82,40.82,0,0,0-4.41-.15h-9.87c-.82,1.44-.93,1.67-1.4,2.45h13.76a25.49,25.49,0,0,0,4.53-.23v4.06c-1.29-.12-2.61-.2-4.53-.2h-3.5a19.2,19.2,0,0,1-3.55,5.07,101,101,0,0,1,10.68,3.78L279.11,106l-2.26-1a81.18,81.18,0,0,0-9.28-3.67c-4.57,2.58-9.83,3.86-17.59,4.25a13.76,13.76,0,0,0-1.76-4h.86a37.66,37.66,0,0,0,13.11-1.92c-4.53-1.2-5.19-1.36-9.13-2.3a29.72,29.72,0,0,0,3.86-3.82h-4.17c-1.91,0-3.2.08-4.49.2V89.72a30.56,30.56,0,0,0,4.49.23ZM255,80.55v3.71h4.29V80.55Zm6.79,13a26.2,26.2,0,0,1-1.88,2c1.37.39,1.37.39,4.41,1.09.43.08,1,.24,2.34.63a11.53,11.53,0,0,0,3.39-3.75Zm1.36-16.18h4.25V74.94h-4.25Zm0,6.86h4.25V80.55h-4.25Zm8.11,0h4.57V80.55h-4.57Z"/></g></g></svg>