<svg xmlns="http://www.w3.org/2000/svg" width="414" height="170" viewBox="0 0 414 170"><defs><style>.cls-1{fill:#2e3192;}.cls-2{fill:#fff;}</style></defs><title>ico_policy</title><g id="レイヤー_2" data-name="レイヤー 2"><g id="レイヤー_1-2" data-name="レイヤー 1"><rect class="cls-1" width="414" height="170"/><path class="cls-2" d="M39.14,74.16c1.18,0,1.64,0,2.31-.08a4.51,4.51,0,1,1,4.48,4.49,5.2,5.2,0,0,1-.74-.08C42,91.24,35.13,99.2,22.8,104.35a14.27,14.27,0,0,0-3.43-4.65c10.8-3.35,17.86-10.6,20.36-21H21.17a27.48,27.48,0,0,0-4.92.24V73.89a27.17,27.17,0,0,0,5,.27ZM43.4,74a2.56,2.56,0,1,0,2.53-2.53A2.53,2.53,0,0,0,43.4,74Z"/><path class="cls-2" d="M85.83,83.67a17.13,17.13,0,0,0-1.09,2.46c-2,5.74-5,10.06-9,13.18-2.77,2.15-5.31,3.48-10.22,5.31a13.82,13.82,0,0,0-3-4.53c4.76-1.2,7.84-2.65,10.84-5.14s4.56-4.8,6.28-9.13h-19a38.82,38.82,0,0,0-5,.2V81.26a28.11,28.11,0,0,0,5.07.27H79.2a17.23,17.23,0,0,0,4.41-.35ZM58.88,71.86a22.51,22.51,0,0,0,4.56.27H77.05a22.62,22.62,0,0,0,4.57-.27v4.79a31.12,31.12,0,0,0-4.49-.19H63.36a31,31,0,0,0-4.48.19Z"/><path class="cls-2" d="M124.28,74a15.67,15.67,0,0,0-1.44,1.37,68.57,68.57,0,0,1-9.21,8V100a28.89,28.89,0,0,0,.2,4.33h-5.46a22.62,22.62,0,0,0,.23-4.22V86.41c-4.56,2.73-6.74,3.74-13.92,6.31a14.79,14.79,0,0,0-2.61-4.44,57.12,57.12,0,0,0,20.47-10.14c3.47-2.69,6.13-5.39,7.26-7.3Z"/><path class="cls-2" d="M145.15,74.28a4.07,4.07,0,0,0-.2.78l-.08.66-.19,1.13-.12.94c-1.64,11.19-4.68,18.87-9.9,24.88a17.09,17.09,0,0,0-4.45-3.36,26.26,26.26,0,0,0,5.58-8.3,47.62,47.62,0,0,0,3.66-13.38,27.67,27.67,0,0,0,.35-3.78V73.3Zm11.07-1a48.18,48.18,0,0,0,1.64,9c1.91,7.22,4.64,12.48,8.7,16.85a16,16,0,0,0-4.29,3.59c-5.19-6.2-8.82-15.17-10.34-25.67a16.63,16.63,0,0,0-.54-2.8ZM159.54,71a23.55,23.55,0,0,1,3.24,6.28l-3,.94a25.65,25.65,0,0,0-3.2-6.36Zm5.38,5.66a27,27,0,0,0-3.12-6.17l2.89-.82a23,23,0,0,1,3.19,6.05Z"/><path class="cls-2" d="M175,81a55,55,0,0,1,10.38,5.31l-2.42,4.41A45.26,45.26,0,0,0,172.37,85Zm-1.75,17.48a35.79,35.79,0,0,0,11.27-2.54,23.87,23.87,0,0,0,11.27-8.58,28.82,28.82,0,0,0,4.52-8.62,19.92,19.92,0,0,0,4.06,3.47,34,34,0,0,1-5.85,9.87c-4.95,5.69-11.58,9.17-21.18,11.08a25.88,25.88,0,0,0-2.73.62ZM178,71.55a62.57,62.57,0,0,1,10.38,5l-2.5,4.29a45.86,45.86,0,0,0-10.41-5.39Z"/><path class="cls-2" d="M209.77,84.85a39,39,0,0,0,6.32.27h20.79a38.74,38.74,0,0,0,6.31-.27v5.42a41.7,41.7,0,0,0-6.35-.2H216.13a41.79,41.79,0,0,0-6.36.2Z"/><path class="cls-2" d="M259,86c-.08.23-.12.46-.16.54s-.08.31-.15.66a41.26,41.26,0,0,1-6.56,15.18,16.86,16.86,0,0,0-4.52-2.54c3-3.24,6-10.22,6.59-15Zm17.74-8.35c.82,0,1.21,0,2.15,0a4.47,4.47,0,0,1-3.16-4.29,4.51,4.51,0,1,1,6,4.25v4.6a34.66,34.66,0,0,0-4.95-.19h-9v18.91a29.34,29.34,0,0,0,.2,4.37h-5.31a28.29,28.29,0,0,0,.24-4.41V82h-8.66a34.59,34.59,0,0,0-4.92.19V77.4a25.52,25.52,0,0,0,5,.27h8.58V75.48a21.47,21.47,0,0,0-.24-4H268a30.26,30.26,0,0,0-.16,4.13v2.07Zm-.43,7.18c1.21,5.07,4.33,11.81,6.91,14.85a26.21,26.21,0,0,0-4.49,2.7,51.94,51.94,0,0,1-6.39-14.59A10.68,10.68,0,0,0,271.7,86Zm1.37-11.51a2.56,2.56,0,1,0,2.53-2.54A2.54,2.54,0,0,0,277.67,73.34Z"/><path class="cls-2" d="M298.26,71.78a19.3,19.3,0,0,0-.16,3.51V86.05a18.49,18.49,0,0,0,.16,3.44h-5.34a29.79,29.79,0,0,0,.19-3.51V75.25a26,26,0,0,0-.15-3.51Zm17.71,0a18,18,0,0,0-.2,3.63v5.26c0,6.08-.31,9.36-1,11.82-1.13,3.9-3.63,6.82-7.68,9.09a32.94,32.94,0,0,1-7.61,3,13.21,13.21,0,0,0-2.73-4.64,21,21,0,0,0,8.42-3.12c3.67-2.42,5-4.8,5.39-10,.15-1.68.19-3.39.19-6.51V75.52a21.22,21.22,0,0,0-.19-3.7Z"/><path class="cls-2" d="M331,81a55,55,0,0,1,10.38,5.31l-2.42,4.41A45.26,45.26,0,0,0,328.37,85Zm-1.75,17.48a35.79,35.79,0,0,0,11.27-2.54,23.87,23.87,0,0,0,11.27-8.58,28.82,28.82,0,0,0,4.52-8.62,19.92,19.92,0,0,0,4.06,3.47,34,34,0,0,1-5.85,9.87c-4.95,5.69-11.58,9.17-21.18,11.08a25.88,25.88,0,0,0-2.73.62ZM334,71.55a62.57,62.57,0,0,1,10.38,5l-2.5,4.29a45.86,45.86,0,0,0-10.41-5.39Z"/><path class="cls-2" d="M365.77,84.85a39,39,0,0,0,6.32.27h20.79a38.74,38.74,0,0,0,6.31-.27v5.42a41.7,41.7,0,0,0-6.35-.2H372.13a41.79,41.79,0,0,0-6.36.2Z"/></g></g></svg>