<svg xmlns="http://www.w3.org/2000/svg" width="273.26" height="196.16" viewBox="0 0 273.26 196.16"><defs><style>.cls-1{fill:none;stroke:#fff;stroke-linejoin:round;stroke-width:2px;}.cls-2{fill:#2e3192;}</style></defs><title>mark_policy</title><g id="レイヤー_2" data-name="レイヤー 2"><g id="レイヤー_1-2" data-name="レイヤー 1"><polygon class="cls-1" points="3.07 195.16 1 195.16 1 98.18 137.89 1 272.26 97.88 271.05 99.56 137.88 3.55 3.07 99.25 3.07 195.16"/><path class="cls-1" d="M12.83,113.93c0-.67,0-1.19.07-3a18.29,18.29,0,0,1-2,2.77,13.34,13.34,0,0,0-1.17-3.13A21.06,21.06,0,0,0,14,103.77a16.14,16.14,0,0,0,1-3.37l3,.75a40.46,40.46,0,0,1-2.31,5.68V121.4a21.85,21.85,0,0,0,.18,3H12.64a17.35,17.35,0,0,0,.19-3Zm13.27-8.24A25.84,25.84,0,0,0,21,102.42l2-1.91a31.64,31.64,0,0,1,5.45,3.21l-1.95,2h3.92a23.66,23.66,0,0,0,3.08-.16v2.91c-.91-.08-1.89-.13-3-.13H26.57v4.54h3.21a23.57,23.57,0,0,0,2.88-.16v2.85c-.83-.08-1.76-.13-2.85-.13H26.57v5.45h4.48a27.41,27.41,0,0,0,3.09-.16v2.9c-.94-.07-1.82-.13-3.11-.13H19.57c-1.27,0-2.13.06-3.09.13v-2.9a25.74,25.74,0,0,0,3,.16h4.2v-5.45H20.92c-1.09,0-2,0-2.86.13v-2.85a22.86,22.86,0,0,0,2.86.16h2.74v-4.54H20.27c-1.09,0-2.05,0-3,.13v-2.91a17.58,17.58,0,0,0,2.93.16Z"/><path class="cls-1" d="M45.1,111.16c-3.16.52-3.16.52-6.32.93a12.3,12.3,0,0,0-1.2-2.61A71.47,71.47,0,0,0,48.19,108a19.09,19.09,0,0,0,5.57-1.9l2.41,2.34a18,18,0,0,0-2,.54c-3,.91-4.46,1.3-6.2,1.66v2.72l8.87-1a18.3,18.3,0,0,0,2.8-.49l.28,3a2.93,2.93,0,0,0-.47,0c-.46,0-1.68.08-2.38.16L48,116v4.31c0,.64.13.8.73,1a26.73,26.73,0,0,0,3.16.15c2.51,0,3.76-.15,4.25-.49s.57-1,.67-3.48a8.32,8.32,0,0,0,2.86,1,9.27,9.27,0,0,1-.6,3.35,2.9,2.9,0,0,1-2.31,1.91,23.33,23.33,0,0,1-5.26.31c-5.47,0-6.38-.41-6.38-2.92v-4.83l-5.62.63a19.67,19.67,0,0,0-2.83.46l-.28-2.93h.51c.52,0,1.64-.07,2.34-.13l5.88-.65Zm1.32-9a7.41,7.41,0,0,0-.15-1.5h3.19a6.76,6.76,0,0,0-.13,1.5v.83h7.15a28.59,28.59,0,0,0,2.88-.1,12,12,0,0,0-.1,1.92v2a14.83,14.83,0,0,0,.1,2H56.54v-3.13H39.76v3.13H36.91a11.79,11.79,0,0,0,.13-2v-1.94a14.84,14.84,0,0,0-.1-1.92,27.71,27.71,0,0,0,2.85.1h6.63Z"/><path class="cls-1" d="M65.27,104a17.8,17.8,0,0,0-2.36.11v-2.78a26.46,26.46,0,0,0,2.78.13h7a17.74,17.74,0,0,0,2.77-.13v2.78a14.57,14.57,0,0,0-2.2-.11v2.6h.18a19.89,19.89,0,0,0,2.52-.11v2.8a21,21,0,0,0-2.47-.1h-.23v2.49c0,.93,0,1.32,0,2h2.13a6.77,6.77,0,0,0-.13,1.64v.8h5.18a21.78,21.78,0,0,0,3.06-.15v2.82a28.87,28.87,0,0,0-3-.13H75.28V121h7.31a27.09,27.09,0,0,0,3-.13v2.91a25.89,25.89,0,0,0-3.26-.16H65.61a25,25,0,0,0-3.19.16v-2.91a27.49,27.49,0,0,0,3,.13h7v-2.36H67.5c-1.22,0-2.15,0-3,.13V116a16.53,16.53,0,0,0,2.67.13h5.19v-.78c0-.28,0-.46,0-.85h-2a20.62,20.62,0,0,0,.16-2.83v-2.51H68A10.28,10.28,0,0,1,67,112.4a9.15,9.15,0,0,1-2.78,3.3,8.94,8.94,0,0,0-2.07-2.15,6.13,6.13,0,0,0,3-4.41h-.39a15.54,15.54,0,0,0-2.46.13v-2.85a18.23,18.23,0,0,0,2.54.13h.57c0-.21,0-1.07,0-2.6Zm2.93,0v.81c0,.65,0,1.24,0,1.79h2.33V104Zm8.53,7.21a14.6,14.6,0,0,0,.13-2.07V104a15.11,15.11,0,0,0-.13-2.13h3a12.94,12.94,0,0,0-.11,2v5.44a17.79,17.79,0,0,0,.08,1.87Zm8.14.86c0,2.23-.7,2.72-3.76,2.72a20.38,20.38,0,0,1-2.15-.11,8.52,8.52,0,0,0-.75-2.82A20.4,20.4,0,0,0,81,112c1,0,1.06-.05,1.06-.59v-8.51a13.83,13.83,0,0,0-.13-2.23H85a17.33,17.33,0,0,0-.13,2.44Z"/><path class="cls-1" d="M93.12,112.74A28.27,28.27,0,0,1,89.36,116a7.83,7.83,0,0,0-1.77-2.52A22.85,22.85,0,0,0,92,109.94,17.11,17.11,0,0,0,95,105.87H91.38a24.36,24.36,0,0,0-3.09.16v-2.88a26.88,26.88,0,0,0,3.11.16h4.88a11.53,11.53,0,0,0,.75-2.8l3.24.36a12.49,12.49,0,0,0-.57,1.45c-.1.31-.16.44-.36,1h9.25a25.21,25.21,0,0,0,3-.16V106a23.83,23.83,0,0,0-3-.16H98.17c-.47.86-.78,1.38-1.27,2.18h8.87a26.25,26.25,0,0,0,2.69-.1,29.27,29.27,0,0,0-.1,3v10.81a2.21,2.21,0,0,1-1,2.1,6.77,6.77,0,0,1-3,.42c-.6,0-1.09,0-2.38-.08a8.06,8.06,0,0,0-.68-2.72,22.77,22.77,0,0,0,3,.23c1.14,0,1.29-.1,1.29-.73v-2H95.89v2.21c0,1.4,0,2.3.13,3.24H93a30,30,0,0,0,.16-3.27Zm12.46-2.2H95.89v1.89h9.69Zm-9.69,4.2v1.92h9.69v-1.92Z"/><path class="cls-1" d="M124,117.46c-.13.34-.15.47-.28.88a19.17,19.17,0,0,1-2.62-3.65c.13,1.76.16,2.12.16,3v4.28a15.48,15.48,0,0,0,.15,2.7h-3a16.8,16.8,0,0,0,.18-2.75v-3.35c0-1,.06-2.25.11-3.11a18.11,18.11,0,0,1-3.37,5.84,7.9,7.9,0,0,0-1.32-2.68,17.15,17.15,0,0,0,2.8-3.83,23.24,23.24,0,0,0,1.37-2.93h-1.35a12.75,12.75,0,0,0-2.33.13v-2.75a13.15,13.15,0,0,0,2.33.13h1.74v-6.14a16.67,16.67,0,0,0-.13-2.55h3a16.34,16.34,0,0,0-.12,2.52v6.17h1.21a14.37,14.37,0,0,0,2-.1v2.69a14.79,14.79,0,0,0-2.05-.1h-.93a13.79,13.79,0,0,0,3.34,4,16.23,16.23,0,0,0-.72,1.46,16.89,16.89,0,0,0,2.38-.37l6.07-1.34V103.67a17.56,17.56,0,0,0-.16-3h3.14a18.25,18.25,0,0,0-.16,3v11.25a17.59,17.59,0,0,0,2.21-.64l.54,3a19.52,19.52,0,0,0-2.49.47l-.26,0v3.78a18.82,18.82,0,0,0,.16,3.06h-3.14a18.58,18.58,0,0,0,.16-3.08v-3.14l-5.5,1.25c-1.14.26-1.89.46-2.46.64Zm-7.49-15.4a31.31,31.31,0,0,1,1.58,5.6l-2.17.93a21.26,21.26,0,0,0-1.61-5.54Zm8.89.91a31.27,31.27,0,0,1-2.07,5.62l-1.89-1a21.71,21.71,0,0,0,1.79-5.6Zm1.3,5.88a23.71,23.71,0,0,1,4.51,3.81l-1.76,2.1a22.87,22.87,0,0,0-4.57-4Zm.8-6.48a25.45,25.45,0,0,1,4.54,3.81l-1.76,2.18a21.88,21.88,0,0,0-4.59-4Z"/><path class="cls-1" d="M143.38,111.47a24.5,24.5,0,0,0-3.13.16v-2.91a21.62,21.62,0,0,0,3.13.16h5.84v-2.62h-3.94c-1.38,0-2.26,0-3,.1v-2.85a20.11,20.11,0,0,0,3,.16h3.92v-.75a12.81,12.81,0,0,0-.16-2.29h3.19a11.3,11.3,0,0,0-.16,2.34v.7h2.26a19.49,19.49,0,0,0,2.85-.16v2a16.31,16.31,0,0,0,2.62-3.62l2.75,1.58-.73.85a43.39,43.39,0,0,1-4.2,4.54h2.83a20.28,20.28,0,0,0,2.95-.16v2.91a24.73,24.73,0,0,0-3.08-.16h-5.71a51.56,51.56,0,0,1-5.46,3.76v1.17a48.58,48.58,0,0,0,6.92-2.15A16,16,0,0,0,158.6,113l2.18,2.38a3.37,3.37,0,0,1-.49.18l-.88.37c-.81.31-3.3,1.16-4.59,1.58-2,.59-2.7.78-5.65,1.45v1.48c0,.88.46,1,5.13,1,2.69,0,3.78-.13,4.17-.54s.49-1.17.55-3.45a9.43,9.43,0,0,0,2.85,1.06c-.26,3.27-.57,4.28-1.51,4.9s-2.51.73-7.49.73c-5.75,0-6.61-.36-6.61-2.83v-4.48c-1.79.88-2.88,1.37-4.87,2.2a9,9,0,0,0-1.71-2.56,44.37,44.37,0,0,0,10.47-5Zm10.27-2.59a34,34,0,0,0,2.83-2.57c-.52,0-1,0-1.92,0h-2.47v2.62Z"/><path class="cls-1" d="M179.34,101a17.58,17.58,0,0,0-.18,2.67,18.57,18.57,0,0,0,2.54,10.21,21.19,21.19,0,0,0,8.11,7.73,9.89,9.89,0,0,0-2,2.87,25.28,25.28,0,0,1-6.58-6.11,20.52,20.52,0,0,1-3.45-7.08,18.73,18.73,0,0,1-2,5.24,18,18,0,0,1-4,5,21.63,21.63,0,0,1-4,3,7.87,7.87,0,0,0-2-2.67,17.35,17.35,0,0,0,5.65-4.33c3.34-3.83,4.74-8.08,4.74-14.31A18.49,18.49,0,0,0,176,101Z"/><path class="cls-1" d="M199.36,111c-.08.31-.11.34-.21.8a26.75,26.75,0,0,1-4.36,10.06,11.22,11.22,0,0,0-3-1.66,18.63,18.63,0,0,0,3.63-6.82,13.71,13.71,0,0,0,.75-3.18Zm2.61-7a14.34,14.34,0,0,0-.15-2.67h3.5a20.61,20.61,0,0,0-.11,2.75v1.37h5.94a18,18,0,0,0,3.35-.18v3.19a24.9,24.9,0,0,0-3.3-.13h-6v12.57a22.89,22.89,0,0,0,.13,2.91h-3.52a18.13,18.13,0,0,0,.15-2.93V108.31h-5.75a24.57,24.57,0,0,0-3.27.13v-3.19a17.79,17.79,0,0,0,3.32.18H202Zm8.9,6.2a16.31,16.31,0,0,0,.9,2.9,24.13,24.13,0,0,0,3.68,7,19.44,19.44,0,0,0-3,1.82,34.75,34.75,0,0,1-4.25-9.7,8,8,0,0,0-.41-1.22Z"/><path class="cls-1" d="M218.46,110.64a25,25,0,0,0,4.2.18h13.82a25,25,0,0,0,4.2-.18v3.61a28.42,28.42,0,0,0-4.23-.13H222.69a28.42,28.42,0,0,0-4.23.13Z"/><path class="cls-1" d="M256.44,102.09a8.08,8.08,0,0,0-.67,1.86,153.4,153.4,0,0,1-5.14,14.78,101.52,101.52,0,0,0,10.79-1.32c-.29-.62-.6-1.19-1.22-2.36a33,33,0,0,0-2.46-4.12l2.93-1.14a60.48,60.48,0,0,1,6.27,12l-3.14,1.63a24.76,24.76,0,0,0-1.24-3.21l-.93.21c-2.62.54-6.93,1.08-14.68,1.84a14.3,14.3,0,0,0-2.36.31l-.46-3.5h.67c.52,0,1.14,0,2.23-.08,1.38-3.27,2.41-6.2,3.76-10.45a40.6,40.6,0,0,0,1.89-7.18Z"/><path class="cls-1" d="M75.88,141.91c-.29,6.41-2.73,9.83-8.59,12.08a8.25,8.25,0,0,0-2.12-2.87c5.08-1.61,7.1-4.18,7.28-9.21h-6.3a23.3,23.3,0,0,0-3.29.13V139a17.51,17.51,0,0,0,3.35.18H81.37a17.51,17.51,0,0,0,3.35-.18V142a23.47,23.47,0,0,0-3.3-.13Zm3.91-6.35a21.67,21.67,0,0,0-3.29-.13H68.77a21.94,21.94,0,0,0-3.29.13V132.4a17.07,17.07,0,0,0,3.34.18h7.63a16.76,16.76,0,0,0,3.34-.18Zm1.5-4.85a18,18,0,0,1,2.31,4.1l-1.94.72a19.6,19.6,0,0,0-2.28-4.14ZM85,134.39a19,19,0,0,0-2.23-4l1.87-.68a16.14,16.14,0,0,1,2.28,3.94Z"/><path class="cls-1" d="M109.79,133.41a8.35,8.35,0,0,0-1,.91,46.83,46.83,0,0,1-6.12,5.34v11.07a18.67,18.67,0,0,0,.13,2.87H99.21a14.66,14.66,0,0,0,.15-2.8v-9.12a42.05,42.05,0,0,1-9.25,4.2,9.86,9.86,0,0,0-1.74-3A37.85,37.85,0,0,0,102,136.18a20.66,20.66,0,0,0,4.82-4.85Z"/><path class="cls-1" d="M129.23,136.42l0-1.17v-.83a15.93,15.93,0,0,0-.13-2.88h3.35a9.52,9.52,0,0,0-.1,1.74c0,1.58,0,1.58,0,3.14H134a17.82,17.82,0,0,0,3.37-.19v3.17a25.25,25.25,0,0,0-3.32-.13h-1.74a31.27,31.27,0,0,1-.18,4.28A10.41,10.41,0,0,1,128.4,151a14.5,14.5,0,0,1-5.06,2.72A7.67,7.67,0,0,0,121.4,151a12,12,0,0,0,4.95-2.46c1.76-1.53,2.52-3.24,2.75-6.23.05-.59.05-1.21.1-3h-6.71v3.89a15.54,15.54,0,0,0,.1,2.17h-3.37a16.5,16.5,0,0,0,.11-2.23v-3.83h-1.59a25,25,0,0,0-3.31.13v-3.17a17.82,17.82,0,0,0,3.37.19h1.53v-2.6a14.08,14.08,0,0,0-.13-2.3h3.39a13.36,13.36,0,0,0-.1,2.23v2.67Z"/><path class="cls-1" d="M140.69,140.64a25,25,0,0,0,4.2.18h13.82a24.91,24.91,0,0,0,4.19-.18v3.61a28.25,28.25,0,0,0-4.22-.13H144.91a28.25,28.25,0,0,0-4.22.13Z"/><path class="cls-1" d="M172.52,140c3.92-.73,9.65-3,11.33-4.62l2.08,2.93c-.19.08-1,.44-2.34,1.12A44.13,44.13,0,0,1,172.52,143v3.42a2.19,2.19,0,0,0,0,.33c0,1.51.1,2.1.46,2.47s1.92.67,4.44.67a48.7,48.7,0,0,0,6-.41,15.38,15.38,0,0,0,3-.63l.15,3.45c-.54,0-.67,0-3.42.29-1.53.15-4.8.31-6.38.31-3.26,0-5.05-.34-6.06-1.12a3.53,3.53,0,0,1-1.27-2.64,17.7,17.7,0,0,1-.08-2.39l0-12a14.22,14.22,0,0,0-.1-2.39h3.47a13.49,13.49,0,0,0-.13,2.41Zm12.32-8.87a16.92,16.92,0,0,1,2.59,3.94l-1.87.86a16.72,16.72,0,0,0-2.56-4Zm3.89,3.29a19.61,19.61,0,0,0-2.49-3.86l1.79-.83a15.38,15.38,0,0,1,2.54,3.76Z"/><path class="cls-1" d="M212.4,153.24a50.56,50.56,0,0,0-8-7.7,30.67,30.67,0,0,1-9.88,7.49,10.56,10.56,0,0,0-2.1-2.87,21.14,21.14,0,0,0,5.18-2.86,24.83,24.83,0,0,0,8.71-10.55l.29-.67c-.41,0-.41,0-8.58.15a21,21,0,0,0-2.83.21l-.1-3.32a11.3,11.3,0,0,0,2.28.16H198l9.13-.13a5.57,5.57,0,0,0,2.31-.29l1.71,1.77a4.79,4.79,0,0,0-.83,1.4,34.66,34.66,0,0,1-4,7.15,39.72,39.72,0,0,1,4.8,3.76c.65.57.65.57,3.78,3.6Z"/><path class="cls-1" d="M15.38,165.61c0-1.13,0-3.06,2.17-3.06s2.23,1.8,2.23,3.2v3.52h7.15c1.06,0,3.52.1,3.52,3.46v14.54c0,1.2.14,1.4,1.77,1.4,1.23,0,1.69-.3,1.83-2.33.1-1.37.2-2.86,1.86-2.86a1.8,1.8,0,0,1,1.83,2.06c0,1.7-.4,4.82-1.53,6.05s-3.29,1.33-4.29,1.33c-3.76,0-5.63-.23-5.63-4.22v-14c0-.86,0-1.36-1.16-1.36H19.68c-.44,7.62-2.37,11.57-4.3,14.43-1.49,2.27-4.45,5.49-6.38,5.49a2.14,2.14,0,0,1-2-2c0-.83.53-1.26,1.76-2.46,5.66-5.46,6.39-11.28,6.59-15.5H9.56c-1.09,0-2.52,0-2.52-2s1.63-2,2.52-2h5.82Z"/><path class="cls-1" d="M44.68,171.07A24,24,0,0,1,43.19,179a1.68,1.68,0,0,1-1.7,1,1.75,1.75,0,0,1-1.8-1.83,24.36,24.36,0,0,1,.74-2.66,31.67,31.67,0,0,0,.73-5.26A1.59,1.59,0,0,1,43,168.64C44.68,168.64,44.68,170.27,44.68,171.07Zm.74-5.72c0-1.33,0-2.66,1.69-2.66,1.86,0,1.86,1.19,1.86,2.66v11.51c0,3.29,0,9.78-3.32,14.27-1.4,1.89-2,2.16-2.83,2.16a1.68,1.68,0,0,1-1.8-1.76,2.6,2.6,0,0,1,.77-1.8c2.89-3.69,3.63-7.38,3.63-12.64Zm8.31,6a50.32,50.32,0,0,1,.87,6,1.92,1.92,0,0,1-2.13,2c-1.4,0-1.57-1.63-1.7-2.83-.13-1-1-5.82-1-6.22,0-1.4,1.66-1.8,2.39-1.67C53.2,168.74,53.53,170.34,53.73,171.3Zm5.32,18.83c0,1.43,0,2.66-1.83,2.66s-1.86-1.13-1.86-2.66V165.58c0-1.5,0-2.66,1.86-2.66s1.83,1.26,1.83,2.66Zm4.33-20.66A44.54,44.54,0,0,1,65,176.23a1.92,1.92,0,0,1-3.79.46c-.5-2-1.56-6.65-1.56-7.05a1.84,1.84,0,0,1,2.09-1.86C62.61,167.78,63.05,168.48,63.38,169.47Zm5.79,21.13c0,1.39,0,2.66-1.77,2.66-1.93,0-1.93-1.1-1.93-2.66V165.45c0-1.37,0-2.66,1.77-2.66,1.93,0,1.93,1.09,1.93,2.66Z"/><path class="cls-1" d="M84,181.71a2.84,2.84,0,0,1,.06-.5,1.42,1.42,0,0,1-1.06.4c-.73,0-.9-.16-2.43-1.69v10.64c0,1.7-.1,2.66-2,2.66s-1.83-1.33-1.83-2.66v-8.68c-1,1-1.3,1.26-2.06,1.26a2,2,0,0,1-1.83-1.89c0-.77.36-1.17,1.53-2.46a18.43,18.43,0,0,0,4.29-7.12c0-.2-.1-.2-.47-.2H76.11c-1.53,0-2.66,0-2.66-2s1.13-1.89,2.66-1.89h.8v-2.27c0-1.56,0-2.66,1.9-2.66s1.76,1.3,1.76,2.66v2.27h.56a2,2,0,0,1,2.17,2.26c0,1.5-1.2,4.12-2.07,5.69.47.4,3.3,3,3.63,3.82a2.43,2.43,0,0,1,2.06-.86H100c1.92,0,2.92,1.16,2.92,3.22v7.56c0,.39-.16,3.22-2.92,3.22H86.92c-2.59,0-2.92-2.49-2.92-3.22Zm17-18c1.36,0,2.66,0,2.66,1.73,0,1.9-1.13,1.9-2.66,1.9H86.66c-1.33,0-2.66,0-2.66-1.73,0-1.9,1.16-1.9,2.66-1.9Zm-1.66,5a2.45,2.45,0,0,1,2.46,2.29v3.79a2.46,2.46,0,0,1-2.46,2.3H87.82a2.45,2.45,0,0,1-2.46-2.3V171a2.45,2.45,0,0,1,2.46-2.29Zm-7.82,15.1v-1.7h-3c-.5,0-.63.17-.63.57v1.13Zm-3.66,3.26v1.23c0,.37.1.57.63.57h3v-1.8Zm1.86-15.17c-.26,0-.53,0-.53.4v1c0,.39.27.39.53.39h7.65c.24,0,.54,0,.54-.39v-1c0-.4-.3-.4-.54-.4Zm9.42,11.91v-1.13c0-.37-.1-.57-.63-.57H95.31v1.7Zm-3.79,3.26v1.8h3.16c.53,0,.63-.2.63-.57v-1.23Z"/><path class="cls-1" d="M114.79,190.7c0,1.09,0,2.69-2,2.69s-2-1.46-2-2.69v-8c-1,.8-1.57,1.26-2.4,1.26a2,2,0,0,1-2-1.89c0-1,.27-1.23,2.63-3.1a17.19,17.19,0,0,0,5.19-7c0-.16-.2-.2-.4-.2h-4.36c-1.4,0-2.66,0-2.66-1.76,0-2,1-2,2.66-2H111v-2.43c0-1.47,0-2.7,1.8-2.7,1.43,0,1.89.73,1.89,2V168h1.8c1.89,0,2.76,1.09,2.76,2.22,0,.57-.4,2.8-3.16,6.82,1.1,1.07,2,1.93,2.39,2.27,1.2,1.06,1.77,1.56,1.77,2.16a1.82,1.82,0,0,1-1.77,1.89c-1.23,0-2.06-.89-3.69-2.59Zm12.58-2V165.85c0-1.43,0-2.66,1.79-2.66,2.1,0,2.1,1,2.1,2.66v6.75h2.53c1.43,0,2.66,0,2.66,1.8,0,2-1,2-2.66,2h-2.53v12.28h3.32c1.4,0,2.67,0,2.67,1.79,0,2.06-1,2.06-2.67,2.06h-14.2c-1.4,0-2.66,0-2.66-1.79,0-2.06,1-2.06,2.66-2.06h.67V172c0-1.4,0-2.66,1.79-2.66,2,0,2,1,2,2.66v16.67Z"/><path class="cls-1" d="M159.36,167.44c0-1.73,0-3.52,2.23-3.52s2.26,1.79,2.26,3.52v3.13h2.86c1.7,0,3.56,0,3.56,2.2s-1.86,2.16-3.56,2.16h-2.86v1.73c0,4.06,0,9.25-6,13a15.44,15.44,0,0,1-7.35,2.39,2.22,2.22,0,0,1-2.36-2.49,2.11,2.11,0,0,1,1.86-2.13c4.16-1,6.32-1.47,8-4.29a12.41,12.41,0,0,0,1.36-6.42v-1.83h-8.28v3c0,1.73,0,3.53-2.23,3.53s-2.23-1.8-2.23-3.53v-3h-3.09c-1.7,0-3.56,0-3.56-2.2s1.86-2.16,3.56-2.16h3.09v-3.13c0-1.73,0-3.52,2.23-3.52s2.23,1.79,2.23,3.52v3.13h8.28Z"/><path class="cls-1" d="M198.8,175.73c1.8,0,3.53,0,3.53,2.29s-1.73,2.3-3.53,2.3H177.92c-1.8,0-3.53,0-3.53-2.3s1.73-2.29,3.53-2.29Z"/><path class="cls-1" d="M215.16,182.38c0,2.76,0,4,7.79,4a41.6,41.6,0,0,0,8.28-.7,4.13,4.13,0,0,1,1.13-.17,2.23,2.23,0,0,1,2.2,2.43,2.06,2.06,0,0,1-1.63,2,42.6,42.6,0,0,1-9.65.86c-10.38,0-12.71-1.92-12.71-7V167.71c0-1.8,0-3.53,2.3-3.53s2.29,1.73,2.29,3.53V173a45,45,0,0,0,13.61-2.87c1.7-.73,1.9-.83,2.43-.83a2.22,2.22,0,0,1,2.13,2.33c0,1.37-.57,2.1-4.89,3.36a53.32,53.32,0,0,1-13.28,2.33Zm14.51-16.2c-.7-1.46-.77-1.6-.77-2a1.25,1.25,0,0,1,1.27-1.29c.86,0,1.19.53,1.83,1.53,1,1.63,1.16,2.16,1.16,2.59a1.45,1.45,0,0,1-1.53,1.53C230.8,168.54,230.67,168.31,229.67,166.18Zm7.38-.8a1.31,1.31,0,0,1-1.39,1.4c-1.47,0-3-3.49-3-4.09a1.14,1.14,0,0,1,1.43-1.1C235.09,161.82,237.05,164.18,237.05,165.38Z"/><path class="cls-1" d="M246.79,169.41c-1.69,0-3.56,0-3.56-2.2s1.87-2.19,3.56-2.19H260c2.63,0,4.33,1,4.33,3.65,0,.74-.34,4.73-4.1,10.08a41.81,41.81,0,0,1,6,5.59c2.93,3.2,3.26,4.06,3.26,4.89a2.43,2.43,0,0,1-2.43,2.23c-.93,0-1-.07-3.16-2.73a50.43,50.43,0,0,0-6.49-6.58c-5.88,6-12.7,9.24-14.43,9.24a2.38,2.38,0,0,1-2.23-2.49c0-1.5,1-1.9,1.86-2.23,12-4.52,16.67-14.37,16.67-16.67,0-.59-.27-.59-1.07-.59Z"/><path class="cls-1" d="M55.42,90.68H53.25l-2.46-3.94-.7.86v3.08h-1.8V78.21h1.8V86h0c.2-.33.44-.7.66-1l2.13-2.86H55l-3,3.53Z"/><path class="cls-1" d="M63.22,82.11l-2.07,5.94c-1,2.81-1.73,4.4-2.75,5.39a4.5,4.5,0,0,1-2,1.11L55.94,93a4,4,0,0,0,2.53-2.64.8.8,0,0,0-.09-.37l-2.94-7.9h2L59,86.93c.17.56.34,1.21.47,1.71h.05c.12-.5.29-1.14.45-1.71l1.38-4.82Z"/><path class="cls-1" d="M71.46,88.22c0,1,.05,1.77.08,2.46H70l-.09-1.25h0a3,3,0,0,1-2.58,1.42c-1.48,0-2.77-.92-2.77-3.66v-5.1h1.81V86.9c0,1.48.42,2.45,1.6,2.45a1.84,1.84,0,0,0,1.79-1.94v-5.3h1.8Z"/><path class="cls-1" d="M80.75,88.22c0,1,0,1.77.08,2.46H79.24l-.09-1.25H79.1a3,3,0,0,1-2.58,1.42c-1.48,0-2.77-.92-2.77-3.66v-5.1h1.8V86.9c0,1.48.42,2.45,1.61,2.45a1.83,1.83,0,0,0,1.78-1.94v-5.3h1.81Z"/><path class="cls-1" d="M87.33,83.73a3.12,3.12,0,0,0-1.63-.49c-.81,0-1.25.47-1.25,1.05s.39.88,1.43,1.33C87.3,86.2,88,87,88,88.22c0,1.65-1.26,2.63-3.2,2.63a4.74,4.74,0,0,1-2.33-.58l.4-1.33a4.24,4.24,0,0,0,2,.57c1,0,1.43-.47,1.43-1.12s-.36-1-1.38-1.44c-1.53-.61-2.19-1.47-2.19-2.46a2.68,2.68,0,0,1,3-2.57,4.26,4.26,0,0,1,2,.5Z"/><path class="cls-1" d="M96.58,82.11l-2.07,5.94c-1,2.81-1.72,4.4-2.75,5.39a4.5,4.5,0,0,1-2,1.11L89.31,93a4,4,0,0,0,2.53-2.64,1,1,0,0,0-.09-.37l-2.94-7.9h2l1.56,4.82c.17.56.34,1.21.46,1.71h0c.12-.5.3-1.14.45-1.71l1.39-4.82Z"/><path class="cls-1" d="M104.83,88.22c0,1,0,1.77.07,2.46h-1.58l-.1-1.25h0a3,3,0,0,1-2.58,1.42c-1.48,0-2.77-.92-2.77-3.66v-5.1h1.8V86.9c0,1.48.42,2.45,1.6,2.45A1.83,1.83,0,0,0,103,87.41v-5.3h1.81Z"/><path class="cls-1" d="M114.11,88.22c0,1,0,1.77.08,2.46H112.6l-.09-1.25h-.05a3,3,0,0,1-2.58,1.42c-1.47,0-2.76-.92-2.76-3.66v-5.1h1.8V86.9c0,1.48.42,2.45,1.6,2.45a1.84,1.84,0,0,0,1.79-1.94v-5.3h1.8Z"/><path class="cls-1" d="M120.15,82.11a4.42,4.42,0,0,1,1-3.28A3,3,0,0,1,123.2,78a3.36,3.36,0,0,1,1.3.23l-.18,1.38a2.39,2.39,0,0,0-.92-.17c-1.12,0-1.46,1-1.46,2.16v.47h1.88v1.35H122v7.22h-1.8V83.46H119V82.11Z"/><path class="cls-1" d="M132.05,88.22c0,1,0,1.77.07,2.46h-1.58l-.09-1.25h0a3,3,0,0,1-2.58,1.42c-1.48,0-2.77-.92-2.77-3.66v-5.1h1.8V86.9c0,1.48.42,2.45,1.61,2.45a1.83,1.83,0,0,0,1.78-1.94v-5.3h1.81Z"/><path class="cls-1" d="M141.5,90.68h-2.17l-2.46-3.94-.7.86v3.08h-1.8V78.21h1.8V86h0c.2-.33.44-.7.66-1L139,82.11h2.13l-3,3.53Z"/><path class="cls-1" d="M149.48,88.22c0,1,.05,1.77.08,2.46H148l-.1-1.25h0a3,3,0,0,1-2.59,1.42c-1.47,0-2.76-.92-2.76-3.66v-5.1h1.8V86.9c0,1.48.42,2.45,1.6,2.45a1.83,1.83,0,0,0,1.79-1.94v-5.3h1.8Z"/><path class="cls-1" d="M156.06,83.73a3.09,3.09,0,0,0-1.63-.49c-.81,0-1.24.47-1.24,1.05s.39.88,1.43,1.33c1.41.58,2.16,1.36,2.16,2.6,0,1.65-1.26,2.63-3.2,2.63a4.78,4.78,0,0,1-2.34-.58l.41-1.33a4.2,4.2,0,0,0,2,.57c1,0,1.43-.47,1.43-1.12s-.36-1-1.39-1.44c-1.52-.61-2.19-1.47-2.19-2.46a2.69,2.69,0,0,1,3-2.57,4.33,4.33,0,0,1,2,.5Z"/><path class="cls-1" d="M165.61,90.68h-1.8v-5c0-1.23-.42-2.25-1.63-2.25a1.91,1.91,0,0,0-1.84,2v5.24h-1.8V78.21h1.8v5.07h0a2.93,2.93,0,0,1,2.46-1.36c1.29,0,2.78.87,2.78,3.58Z"/><path class="cls-1" d="M168.79,80.79a1.05,1.05,0,1,1,1.06-1A1,1,0,0,1,168.79,80.79Zm.9,9.89h-1.8V82.09h1.8Z"/><path class="cls-1" d="M179.75,83.73a3.09,3.09,0,0,0-1.63-.49c-.81,0-1.24.47-1.24,1.05s.39.88,1.43,1.33c1.41.58,2.16,1.36,2.16,2.6,0,1.65-1.26,2.63-3.2,2.63a4.81,4.81,0,0,1-2.34-.58l.41-1.33a4.2,4.2,0,0,0,2,.57c1,0,1.43-.47,1.43-1.12s-.36-1-1.39-1.44c-1.52-.61-2.19-1.47-2.19-2.46a2.69,2.69,0,0,1,3-2.57,4.33,4.33,0,0,1,2,.5Z"/><path class="cls-1" d="M188.5,90.33a6.73,6.73,0,0,1-2.73.52c-2.58,0-4.07-1.73-4.07-4.34s1.43-4.59,3.86-4.59,3.37,2,3.37,4.12a4.38,4.38,0,0,1-.05.77h-5.44a2.44,2.44,0,0,0,2.6,2.65,5.4,5.4,0,0,0,2.16-.4Zm-1.28-4.82c0-1-.4-2.3-1.79-2.3s-1.88,1.31-2,2.3Z"/><path class="cls-1" d="M195,83.7a2.07,2.07,0,0,0-.53,0c-1.21,0-2,1-2,2.49v4.54h-1.8v-6c0-1,0-1.82-.07-2.61h1.57l.07,1.57h.06a2.46,2.46,0,0,1,2.22-1.76,2.14,2.14,0,0,1,.45,0Z"/><path class="cls-1" d="M203.24,82.11l-3.08,8.57h-1.72l-3-8.57h1.94l1.4,4.56c.23.74.42,1.46.57,2.17h.05c.16-.71.36-1.41.58-2.16l1.38-4.57Z"/><path class="cls-1" d="M205.48,80.79a1.05,1.05,0,1,1,1.06-1A1,1,0,0,1,205.48,80.79Zm.91,9.89h-1.81V82.09h1.81Z"/><path class="cls-1" d="M214.47,90.41a5.45,5.45,0,0,1-2.21.44c-2.47,0-4.08-1.7-4.08-4.37a4.26,4.26,0,0,1,4.43-4.56,4.53,4.53,0,0,1,1.91.39l-.36,1.39a3.28,3.28,0,0,0-1.54-.35c-1.68,0-2.61,1.37-2.61,3.05,0,1.88,1.1,3,2.6,3a3.9,3.9,0,0,0,1.61-.34Z"/><path class="cls-1" d="M222.36,90.33a6.71,6.71,0,0,1-2.72.52c-2.58,0-4.08-1.73-4.08-4.34s1.44-4.59,3.86-4.59,3.37,2,3.37,4.12a5.78,5.78,0,0,1,0,.77h-5.44a2.42,2.42,0,0,0,2.59,2.65,5.4,5.4,0,0,0,2.16-.4Zm-1.28-4.82c0-1-.4-2.3-1.78-2.3s-1.88,1.31-2,2.3Z"/><polygon class="cls-2" points="3.07 195.16 1 195.16 1 98.18 137.89 1 272.26 97.88 271.05 99.56 137.88 3.55 3.07 99.25 3.07 195.16"/><path class="cls-2" d="M12.83,113.93c0-.67,0-1.19.07-3a18.29,18.29,0,0,1-2,2.77,13.34,13.34,0,0,0-1.17-3.13A21.06,21.06,0,0,0,14,103.77a16.14,16.14,0,0,0,1-3.37l3,.75a40.46,40.46,0,0,1-2.31,5.68V121.4a21.85,21.85,0,0,0,.18,3H12.64a17.35,17.35,0,0,0,.19-3Zm13.27-8.24A25.84,25.84,0,0,0,21,102.42l2-1.91a31.64,31.64,0,0,1,5.45,3.21l-1.95,2h3.92a23.66,23.66,0,0,0,3.08-.16v2.91c-.91-.08-1.89-.13-3-.13H26.57v4.54h3.21a23.57,23.57,0,0,0,2.88-.16v2.85c-.83-.08-1.76-.13-2.85-.13H26.57v5.45h4.48a27.41,27.41,0,0,0,3.09-.16v2.9c-.94-.07-1.82-.13-3.11-.13H19.57c-1.27,0-2.13.06-3.09.13v-2.9a25.74,25.74,0,0,0,3,.16h4.2v-5.45H20.92c-1.09,0-2,0-2.86.13v-2.85a22.86,22.86,0,0,0,2.86.16h2.74v-4.54H20.27c-1.09,0-2.05,0-3,.13v-2.91a17.58,17.58,0,0,0,2.93.16Z"/><path class="cls-2" d="M45.1,111.16c-3.16.52-3.16.52-6.32.93a12.3,12.3,0,0,0-1.2-2.61A71.47,71.47,0,0,0,48.19,108a19.09,19.09,0,0,0,5.57-1.9l2.41,2.34a18,18,0,0,0-2,.54c-3,.91-4.46,1.3-6.2,1.66v2.72l8.87-1a18.3,18.3,0,0,0,2.8-.49l.28,3a2.93,2.93,0,0,0-.47,0c-.46,0-1.68.08-2.38.16L48,116v4.31c0,.64.13.8.73,1a26.73,26.73,0,0,0,3.16.15c2.51,0,3.76-.15,4.25-.49s.57-1,.67-3.48a8.32,8.32,0,0,0,2.86,1,9.27,9.27,0,0,1-.6,3.35,2.9,2.9,0,0,1-2.31,1.91,23.33,23.33,0,0,1-5.26.31c-5.47,0-6.38-.41-6.38-2.92v-4.83l-5.62.63a19.67,19.67,0,0,0-2.83.46l-.28-2.93h.51c.52,0,1.64-.07,2.34-.13l5.88-.65Zm1.32-9a7.41,7.41,0,0,0-.15-1.5h3.19a6.76,6.76,0,0,0-.13,1.5v.83h7.15a28.59,28.59,0,0,0,2.88-.1,12,12,0,0,0-.1,1.92v2a14.83,14.83,0,0,0,.1,2H56.54v-3.13H39.76v3.13H36.91a11.79,11.79,0,0,0,.13-2v-1.94a14.84,14.84,0,0,0-.1-1.92,27.71,27.71,0,0,0,2.85.1h6.63Z"/><path class="cls-2" d="M65.27,104a17.8,17.8,0,0,0-2.36.11v-2.78a26.46,26.46,0,0,0,2.78.13h7a17.74,17.74,0,0,0,2.77-.13v2.78a14.57,14.57,0,0,0-2.2-.11v2.6h.18a19.89,19.89,0,0,0,2.52-.11v2.8a21,21,0,0,0-2.47-.1h-.23v2.49c0,.93,0,1.32,0,2h2.13a6.77,6.77,0,0,0-.13,1.64v.8h5.18a21.78,21.78,0,0,0,3.06-.15v2.82a28.87,28.87,0,0,0-3-.13H75.28V121h7.31a27.09,27.09,0,0,0,3-.13v2.91a25.89,25.89,0,0,0-3.26-.16H65.61a25,25,0,0,0-3.19.16v-2.91a27.49,27.49,0,0,0,3,.13h7v-2.36H67.5c-1.22,0-2.15,0-3,.13V116a16.53,16.53,0,0,0,2.67.13h5.19v-.78c0-.28,0-.46,0-.85h-2a20.62,20.62,0,0,0,.16-2.83v-2.51H68A10.28,10.28,0,0,1,67,112.4a9.15,9.15,0,0,1-2.78,3.3,8.94,8.94,0,0,0-2.07-2.15,6.13,6.13,0,0,0,3-4.41h-.39a15.54,15.54,0,0,0-2.46.13v-2.85a18.23,18.23,0,0,0,2.54.13h.57c0-.21,0-1.07,0-2.6Zm2.93,0v.81c0,.65,0,1.24,0,1.79h2.33V104Zm8.53,7.21a14.6,14.6,0,0,0,.13-2.07V104a15.11,15.11,0,0,0-.13-2.13h3a12.94,12.94,0,0,0-.11,2v5.44a17.79,17.79,0,0,0,.08,1.87Zm8.14.86c0,2.23-.7,2.72-3.76,2.72a20.38,20.38,0,0,1-2.15-.11,8.52,8.52,0,0,0-.75-2.82A20.4,20.4,0,0,0,81,112c1,0,1.06-.05,1.06-.59v-8.51a13.83,13.83,0,0,0-.13-2.23H85a17.33,17.33,0,0,0-.13,2.44Z"/><path class="cls-2" d="M93.12,112.74A28.27,28.27,0,0,1,89.36,116a7.83,7.83,0,0,0-1.77-2.52A22.85,22.85,0,0,0,92,109.94,17.11,17.11,0,0,0,95,105.87H91.38a24.36,24.36,0,0,0-3.09.16v-2.88a26.88,26.88,0,0,0,3.11.16h4.88a11.53,11.53,0,0,0,.75-2.8l3.24.36a12.49,12.49,0,0,0-.57,1.45c-.1.31-.16.44-.36,1h9.25a25.21,25.21,0,0,0,3-.16V106a23.83,23.83,0,0,0-3-.16H98.17c-.47.86-.78,1.38-1.27,2.18h8.87a26.25,26.25,0,0,0,2.69-.1,29.27,29.27,0,0,0-.1,3v10.81a2.21,2.21,0,0,1-1,2.1,6.77,6.77,0,0,1-3,.42c-.6,0-1.09,0-2.38-.08a8.06,8.06,0,0,0-.68-2.72,22.77,22.77,0,0,0,3,.23c1.14,0,1.29-.1,1.29-.73v-2H95.89v2.21c0,1.4,0,2.3.13,3.24H93a30,30,0,0,0,.16-3.27Zm12.46-2.2H95.89v1.89h9.69Zm-9.69,4.2v1.92h9.69v-1.92Z"/><path class="cls-2" d="M124,117.46c-.13.34-.15.47-.28.88a19.17,19.17,0,0,1-2.62-3.65c.13,1.76.16,2.12.16,3v4.28a15.48,15.48,0,0,0,.15,2.7h-3a16.8,16.8,0,0,0,.18-2.75v-3.35c0-1,.06-2.25.11-3.11a18.11,18.11,0,0,1-3.37,5.84,7.9,7.9,0,0,0-1.32-2.68,17.15,17.15,0,0,0,2.8-3.83,23.24,23.24,0,0,0,1.37-2.93h-1.35a12.75,12.75,0,0,0-2.33.13v-2.75a13.15,13.15,0,0,0,2.33.13h1.74v-6.14a16.67,16.67,0,0,0-.13-2.55h3a16.34,16.34,0,0,0-.12,2.52v6.17h1.21a14.37,14.37,0,0,0,2-.1v2.69a14.79,14.79,0,0,0-2.05-.1h-.93a13.79,13.79,0,0,0,3.34,4,16.23,16.23,0,0,0-.72,1.46,16.89,16.89,0,0,0,2.38-.37l6.07-1.34V103.67a17.56,17.56,0,0,0-.16-3h3.14a18.25,18.25,0,0,0-.16,3v11.25a17.59,17.59,0,0,0,2.21-.64l.54,3a19.52,19.52,0,0,0-2.49.47l-.26,0v3.78a18.82,18.82,0,0,0,.16,3.06h-3.14a18.58,18.58,0,0,0,.16-3.08v-3.14l-5.5,1.25c-1.14.26-1.89.46-2.46.64Zm-7.49-15.4a31.31,31.31,0,0,1,1.58,5.6l-2.17.93a21.26,21.26,0,0,0-1.61-5.54Zm8.89.91a31.27,31.27,0,0,1-2.07,5.62l-1.89-1a21.71,21.71,0,0,0,1.79-5.6Zm1.3,5.88a23.71,23.71,0,0,1,4.51,3.81l-1.76,2.1a22.87,22.87,0,0,0-4.57-4Zm.8-6.48a25.45,25.45,0,0,1,4.54,3.81l-1.76,2.18a21.88,21.88,0,0,0-4.59-4Z"/><path class="cls-2" d="M143.38,111.47a24.5,24.5,0,0,0-3.13.16v-2.91a21.62,21.62,0,0,0,3.13.16h5.84v-2.62h-3.94c-1.38,0-2.26,0-3,.1v-2.85a20.11,20.11,0,0,0,3,.16h3.92v-.75a12.81,12.81,0,0,0-.16-2.29h3.19a11.3,11.3,0,0,0-.16,2.34v.7h2.26a19.49,19.49,0,0,0,2.85-.16v2a16.31,16.31,0,0,0,2.62-3.62l2.75,1.58-.73.85a43.39,43.39,0,0,1-4.2,4.54h2.83a20.28,20.28,0,0,0,2.95-.16v2.91a24.73,24.73,0,0,0-3.08-.16h-5.71a51.56,51.56,0,0,1-5.46,3.76v1.17a48.58,48.58,0,0,0,6.92-2.15A16,16,0,0,0,158.6,113l2.18,2.38a3.37,3.37,0,0,1-.49.18l-.88.37c-.81.31-3.3,1.16-4.59,1.58-2,.59-2.7.78-5.65,1.45v1.48c0,.88.46,1,5.13,1,2.69,0,3.78-.13,4.17-.54s.49-1.17.55-3.45a9.43,9.43,0,0,0,2.85,1.06c-.26,3.27-.57,4.28-1.51,4.9s-2.51.73-7.49.73c-5.75,0-6.61-.36-6.61-2.83v-4.48c-1.79.88-2.88,1.37-4.87,2.2a9,9,0,0,0-1.71-2.56,44.37,44.37,0,0,0,10.47-5Zm10.27-2.59a34,34,0,0,0,2.83-2.57c-.52,0-1,0-1.92,0h-2.47v2.62Z"/><path class="cls-2" d="M179.34,101a17.58,17.58,0,0,0-.18,2.67,18.57,18.57,0,0,0,2.54,10.21,21.19,21.19,0,0,0,8.11,7.73,9.89,9.89,0,0,0-2,2.87,25.28,25.28,0,0,1-6.58-6.11,20.52,20.52,0,0,1-3.45-7.08,18.73,18.73,0,0,1-2,5.24,18,18,0,0,1-4,5,21.63,21.63,0,0,1-4,3,7.87,7.87,0,0,0-2-2.67,17.35,17.35,0,0,0,5.65-4.33c3.34-3.83,4.74-8.08,4.74-14.31A18.49,18.49,0,0,0,176,101Z"/><path class="cls-2" d="M199.36,111c-.08.31-.11.34-.21.8a26.75,26.75,0,0,1-4.36,10.06,11.22,11.22,0,0,0-3-1.66,18.63,18.63,0,0,0,3.63-6.82,13.71,13.71,0,0,0,.75-3.18Zm2.61-7a14.34,14.34,0,0,0-.15-2.67h3.5a20.61,20.61,0,0,0-.11,2.75v1.37h5.94a18,18,0,0,0,3.35-.18v3.19a24.9,24.9,0,0,0-3.3-.13h-6v12.57a22.89,22.89,0,0,0,.13,2.91h-3.52a18.13,18.13,0,0,0,.15-2.93V108.31h-5.75a24.57,24.57,0,0,0-3.27.13v-3.19a17.79,17.79,0,0,0,3.32.18H202Zm8.9,6.2a16.31,16.31,0,0,0,.9,2.9,24.13,24.13,0,0,0,3.68,7,19.44,19.44,0,0,0-3,1.82,34.75,34.75,0,0,1-4.25-9.7,8,8,0,0,0-.41-1.22Z"/><path class="cls-2" d="M218.46,110.64a25,25,0,0,0,4.2.18h13.82a25,25,0,0,0,4.2-.18v3.61a28.42,28.42,0,0,0-4.23-.13H222.69a28.42,28.42,0,0,0-4.23.13Z"/><path class="cls-2" d="M256.44,102.09a8.08,8.08,0,0,0-.67,1.86,153.4,153.4,0,0,1-5.14,14.78,101.52,101.52,0,0,0,10.79-1.32c-.29-.62-.6-1.19-1.22-2.36a33,33,0,0,0-2.46-4.12l2.93-1.14a60.48,60.48,0,0,1,6.27,12l-3.14,1.63a24.76,24.76,0,0,0-1.24-3.21l-.93.21c-2.62.54-6.93,1.08-14.68,1.84a14.3,14.3,0,0,0-2.36.31l-.46-3.5h.67c.52,0,1.14,0,2.23-.08,1.38-3.27,2.41-6.2,3.76-10.45a40.6,40.6,0,0,0,1.89-7.18Z"/><path class="cls-2" d="M75.88,141.91c-.29,6.41-2.73,9.83-8.59,12.08a8.25,8.25,0,0,0-2.12-2.87c5.08-1.61,7.1-4.18,7.28-9.21h-6.3a23.3,23.3,0,0,0-3.29.13V139a17.51,17.51,0,0,0,3.35.18H81.37a17.51,17.51,0,0,0,3.35-.18V142a23.47,23.47,0,0,0-3.3-.13Zm3.91-6.35a21.67,21.67,0,0,0-3.29-.13H68.77a21.94,21.94,0,0,0-3.29.13V132.4a17.07,17.07,0,0,0,3.34.18h7.63a16.76,16.76,0,0,0,3.34-.18Zm1.5-4.85a18,18,0,0,1,2.31,4.1l-1.94.72a19.6,19.6,0,0,0-2.28-4.14ZM85,134.39a19,19,0,0,0-2.23-4l1.87-.68a16.14,16.14,0,0,1,2.28,3.94Z"/><path class="cls-2" d="M109.79,133.41a8.35,8.35,0,0,0-1,.91,46.83,46.83,0,0,1-6.12,5.34v11.07a18.67,18.67,0,0,0,.13,2.87H99.21a14.66,14.66,0,0,0,.15-2.8v-9.12a42.05,42.05,0,0,1-9.25,4.2,9.86,9.86,0,0,0-1.74-3A37.85,37.85,0,0,0,102,136.18a20.66,20.66,0,0,0,4.82-4.85Z"/><path class="cls-2" d="M129.23,136.42l0-1.17v-.83a15.93,15.93,0,0,0-.13-2.88h3.35a9.52,9.52,0,0,0-.1,1.74c0,1.58,0,1.58,0,3.14H134a17.82,17.82,0,0,0,3.37-.19v3.17a25.25,25.25,0,0,0-3.32-.13h-1.74a31.27,31.27,0,0,1-.18,4.28A10.41,10.41,0,0,1,128.4,151a14.5,14.5,0,0,1-5.06,2.72A7.67,7.67,0,0,0,121.4,151a12,12,0,0,0,4.95-2.46c1.76-1.53,2.52-3.24,2.75-6.23.05-.59.05-1.21.1-3h-6.71v3.89a15.54,15.54,0,0,0,.1,2.17h-3.37a16.5,16.5,0,0,0,.11-2.23v-3.83h-1.59a25,25,0,0,0-3.31.13v-3.17a17.82,17.82,0,0,0,3.37.19h1.53v-2.6a14.08,14.08,0,0,0-.13-2.3h3.39a13.36,13.36,0,0,0-.1,2.23v2.67Z"/><path class="cls-2" d="M140.69,140.64a25,25,0,0,0,4.2.18h13.82a24.91,24.91,0,0,0,4.19-.18v3.61a28.25,28.25,0,0,0-4.22-.13H144.91a28.25,28.25,0,0,0-4.22.13Z"/><path class="cls-2" d="M172.52,140c3.92-.73,9.65-3,11.33-4.62l2.08,2.93c-.19.08-1,.44-2.34,1.12A44.13,44.13,0,0,1,172.52,143v3.42a2.19,2.19,0,0,0,0,.33c0,1.51.1,2.1.46,2.47s1.92.67,4.44.67a48.7,48.7,0,0,0,6-.41,15.38,15.38,0,0,0,3-.63l.15,3.45c-.54,0-.67,0-3.42.29-1.53.15-4.8.31-6.38.31-3.26,0-5.05-.34-6.06-1.12a3.53,3.53,0,0,1-1.27-2.64,17.7,17.7,0,0,1-.08-2.39l0-12a14.22,14.22,0,0,0-.1-2.39h3.47a13.49,13.49,0,0,0-.13,2.41Zm12.32-8.87a16.92,16.92,0,0,1,2.59,3.94l-1.87.86a16.72,16.72,0,0,0-2.56-4Zm3.89,3.29a19.61,19.61,0,0,0-2.49-3.86l1.79-.83a15.38,15.38,0,0,1,2.54,3.76Z"/><path class="cls-2" d="M212.4,153.24a50.56,50.56,0,0,0-8-7.7,30.67,30.67,0,0,1-9.88,7.49,10.56,10.56,0,0,0-2.1-2.87,21.14,21.14,0,0,0,5.18-2.86,24.83,24.83,0,0,0,8.71-10.55l.29-.67c-.41,0-.41,0-8.58.15a21,21,0,0,0-2.83.21l-.1-3.32a11.3,11.3,0,0,0,2.28.16H198l9.13-.13a5.57,5.57,0,0,0,2.31-.29l1.71,1.77a4.79,4.79,0,0,0-.83,1.4,34.66,34.66,0,0,1-4,7.15,39.72,39.72,0,0,1,4.8,3.76c.65.57.65.57,3.78,3.6Z"/><path class="cls-2" d="M15.38,165.61c0-1.13,0-3.06,2.17-3.06s2.23,1.8,2.23,3.2v3.52h7.15c1.06,0,3.52.1,3.52,3.46v14.54c0,1.2.14,1.4,1.77,1.4,1.23,0,1.69-.3,1.83-2.33.1-1.37.2-2.86,1.86-2.86a1.8,1.8,0,0,1,1.83,2.06c0,1.7-.4,4.82-1.53,6.05s-3.29,1.33-4.29,1.33c-3.76,0-5.63-.23-5.63-4.22v-14c0-.86,0-1.36-1.16-1.36H19.68c-.44,7.62-2.37,11.57-4.3,14.43-1.49,2.27-4.45,5.49-6.38,5.49a2.14,2.14,0,0,1-2-2c0-.83.53-1.26,1.76-2.46,5.66-5.46,6.39-11.28,6.59-15.5H9.56c-1.09,0-2.52,0-2.52-2s1.63-2,2.52-2h5.82Z"/><path class="cls-2" d="M44.68,171.07A24,24,0,0,1,43.19,179a1.68,1.68,0,0,1-1.7,1,1.75,1.75,0,0,1-1.8-1.83,24.36,24.36,0,0,1,.74-2.66,31.67,31.67,0,0,0,.73-5.26A1.59,1.59,0,0,1,43,168.64C44.68,168.64,44.68,170.27,44.68,171.07Zm.74-5.72c0-1.33,0-2.66,1.69-2.66,1.86,0,1.86,1.19,1.86,2.66v11.51c0,3.29,0,9.78-3.32,14.27-1.4,1.89-2,2.16-2.83,2.16a1.68,1.68,0,0,1-1.8-1.76,2.6,2.6,0,0,1,.77-1.8c2.89-3.69,3.63-7.38,3.63-12.64Zm8.31,6a50.32,50.32,0,0,1,.87,6,1.92,1.92,0,0,1-2.13,2c-1.4,0-1.57-1.63-1.7-2.83-.13-1-1-5.82-1-6.22,0-1.4,1.66-1.8,2.39-1.67C53.2,168.74,53.53,170.34,53.73,171.3Zm5.32,18.83c0,1.43,0,2.66-1.83,2.66s-1.86-1.13-1.86-2.66V165.58c0-1.5,0-2.66,1.86-2.66s1.83,1.26,1.83,2.66Zm4.33-20.66A44.54,44.54,0,0,1,65,176.23a1.92,1.92,0,0,1-3.79.46c-.5-2-1.56-6.65-1.56-7.05a1.84,1.84,0,0,1,2.09-1.86C62.61,167.78,63.05,168.48,63.38,169.47Zm5.79,21.13c0,1.39,0,2.66-1.77,2.66-1.93,0-1.93-1.1-1.93-2.66V165.45c0-1.37,0-2.66,1.77-2.66,1.93,0,1.93,1.09,1.93,2.66Z"/><path class="cls-2" d="M84,181.71a2.84,2.84,0,0,1,.06-.5,1.42,1.42,0,0,1-1.06.4c-.73,0-.9-.16-2.43-1.69v10.64c0,1.7-.1,2.66-2,2.66s-1.83-1.33-1.83-2.66v-8.68c-1,1-1.3,1.26-2.06,1.26a2,2,0,0,1-1.83-1.89c0-.77.36-1.17,1.53-2.46a18.43,18.43,0,0,0,4.29-7.12c0-.2-.1-.2-.47-.2H76.11c-1.53,0-2.66,0-2.66-2s1.13-1.89,2.66-1.89h.8v-2.27c0-1.56,0-2.66,1.9-2.66s1.76,1.3,1.76,2.66v2.27h.56a2,2,0,0,1,2.17,2.26c0,1.5-1.2,4.12-2.07,5.69.47.4,3.3,3,3.63,3.82a2.43,2.43,0,0,1,2.06-.86H100c1.92,0,2.92,1.16,2.92,3.22v7.56c0,.39-.16,3.22-2.92,3.22H86.92c-2.59,0-2.92-2.49-2.92-3.22Zm17-18c1.36,0,2.66,0,2.66,1.73,0,1.9-1.13,1.9-2.66,1.9H86.66c-1.33,0-2.66,0-2.66-1.73,0-1.9,1.16-1.9,2.66-1.9Zm-1.66,5a2.45,2.45,0,0,1,2.46,2.29v3.79a2.46,2.46,0,0,1-2.46,2.3H87.82a2.45,2.45,0,0,1-2.46-2.3V171a2.45,2.45,0,0,1,2.46-2.29Zm-7.82,15.1v-1.7h-3c-.5,0-.63.17-.63.57v1.13Zm-3.66,3.26v1.23c0,.37.1.57.63.57h3v-1.8Zm1.86-15.17c-.26,0-.53,0-.53.4v1c0,.39.27.39.53.39h7.65c.24,0,.54,0,.54-.39v-1c0-.4-.3-.4-.54-.4Zm9.42,11.91v-1.13c0-.37-.1-.57-.63-.57H95.31v1.7Zm-3.79,3.26v1.8h3.16c.53,0,.63-.2.63-.57v-1.23Z"/><path class="cls-2" d="M114.79,190.7c0,1.09,0,2.69-2,2.69s-2-1.46-2-2.69v-8c-1,.8-1.57,1.26-2.4,1.26a2,2,0,0,1-2-1.89c0-1,.27-1.23,2.63-3.1a17.19,17.19,0,0,0,5.19-7c0-.16-.2-.2-.4-.2h-4.36c-1.4,0-2.66,0-2.66-1.76,0-2,1-2,2.66-2H111v-2.43c0-1.47,0-2.7,1.8-2.7,1.43,0,1.89.73,1.89,2V168h1.8c1.89,0,2.76,1.09,2.76,2.22,0,.57-.4,2.8-3.16,6.82,1.1,1.07,2,1.93,2.39,2.27,1.2,1.06,1.77,1.56,1.77,2.16a1.82,1.82,0,0,1-1.77,1.89c-1.23,0-2.06-.89-3.69-2.59Zm12.58-2V165.85c0-1.43,0-2.66,1.79-2.66,2.1,0,2.1,1,2.1,2.66v6.75h2.53c1.43,0,2.66,0,2.66,1.8,0,2-1,2-2.66,2h-2.53v12.28h3.32c1.4,0,2.67,0,2.67,1.79,0,2.06-1,2.06-2.67,2.06h-14.2c-1.4,0-2.66,0-2.66-1.79,0-2.06,1-2.06,2.66-2.06h.67V172c0-1.4,0-2.66,1.79-2.66,2,0,2,1,2,2.66v16.67Z"/><path class="cls-2" d="M159.36,167.44c0-1.73,0-3.52,2.23-3.52s2.26,1.79,2.26,3.52v3.13h2.86c1.7,0,3.56,0,3.56,2.2s-1.86,2.16-3.56,2.16h-2.86v1.73c0,4.06,0,9.25-6,13a15.44,15.44,0,0,1-7.35,2.39,2.22,2.22,0,0,1-2.36-2.49,2.11,2.11,0,0,1,1.86-2.13c4.16-1,6.32-1.47,8-4.29a12.41,12.41,0,0,0,1.36-6.42v-1.83h-8.28v3c0,1.73,0,3.53-2.23,3.53s-2.23-1.8-2.23-3.53v-3h-3.09c-1.7,0-3.56,0-3.56-2.2s1.86-2.16,3.56-2.16h3.09v-3.13c0-1.73,0-3.52,2.23-3.52s2.23,1.79,2.23,3.52v3.13h8.28Z"/><path class="cls-2" d="M198.8,175.73c1.8,0,3.53,0,3.53,2.29s-1.73,2.3-3.53,2.3H177.92c-1.8,0-3.53,0-3.53-2.3s1.73-2.29,3.53-2.29Z"/><path class="cls-2" d="M215.16,182.38c0,2.76,0,4,7.79,4a41.6,41.6,0,0,0,8.28-.7,4.13,4.13,0,0,1,1.13-.17,2.23,2.23,0,0,1,2.2,2.43,2.06,2.06,0,0,1-1.63,2,42.6,42.6,0,0,1-9.65.86c-10.38,0-12.71-1.92-12.71-7V167.71c0-1.8,0-3.53,2.3-3.53s2.29,1.73,2.29,3.53V173a45,45,0,0,0,13.61-2.87c1.7-.73,1.9-.83,2.43-.83a2.22,2.22,0,0,1,2.13,2.33c0,1.37-.57,2.1-4.89,3.36a53.32,53.32,0,0,1-13.28,2.33Zm14.51-16.2c-.7-1.46-.77-1.6-.77-2a1.25,1.25,0,0,1,1.27-1.29c.86,0,1.19.53,1.83,1.53,1,1.63,1.16,2.16,1.16,2.59a1.45,1.45,0,0,1-1.53,1.53C230.8,168.54,230.67,168.31,229.67,166.18Zm7.38-.8a1.31,1.31,0,0,1-1.39,1.4c-1.47,0-3-3.49-3-4.09a1.14,1.14,0,0,1,1.43-1.1C235.09,161.82,237.05,164.18,237.05,165.38Z"/><path class="cls-2" d="M246.79,169.41c-1.69,0-3.56,0-3.56-2.2s1.87-2.19,3.56-2.19H260c2.63,0,4.33,1,4.33,3.65,0,.74-.34,4.73-4.1,10.08a41.81,41.81,0,0,1,6,5.59c2.93,3.2,3.26,4.06,3.26,4.89a2.43,2.43,0,0,1-2.43,2.23c-.93,0-1-.07-3.16-2.73a50.43,50.43,0,0,0-6.49-6.58c-5.88,6-12.7,9.24-14.43,9.24a2.38,2.38,0,0,1-2.23-2.49c0-1.5,1-1.9,1.86-2.23,12-4.52,16.67-14.37,16.67-16.67,0-.59-.27-.59-1.07-.59Z"/><path class="cls-2" d="M55.42,90.68H53.25l-2.46-3.94-.7.86v3.08h-1.8V78.21h1.8V86h0c.2-.33.44-.7.66-1l2.13-2.86H55l-3,3.53Z"/><path class="cls-2" d="M63.22,82.11l-2.07,5.94c-1,2.81-1.73,4.4-2.75,5.39a4.5,4.5,0,0,1-2,1.11L55.94,93a4,4,0,0,0,2.53-2.64.8.8,0,0,0-.09-.37l-2.94-7.9h2L59,86.93c.17.56.34,1.21.47,1.71h.05c.12-.5.29-1.14.45-1.71l1.38-4.82Z"/><path class="cls-2" d="M71.46,88.22c0,1,.05,1.77.08,2.46H70l-.09-1.25h0a3,3,0,0,1-2.58,1.42c-1.48,0-2.77-.92-2.77-3.66v-5.1h1.81V86.9c0,1.48.42,2.45,1.6,2.45a1.84,1.84,0,0,0,1.79-1.94v-5.3h1.8Z"/><path class="cls-2" d="M80.75,88.22c0,1,0,1.77.08,2.46H79.24l-.09-1.25H79.1a3,3,0,0,1-2.58,1.42c-1.48,0-2.77-.92-2.77-3.66v-5.1h1.8V86.9c0,1.48.42,2.45,1.61,2.45a1.83,1.83,0,0,0,1.78-1.94v-5.3h1.81Z"/><path class="cls-2" d="M87.33,83.73a3.12,3.12,0,0,0-1.63-.49c-.81,0-1.25.47-1.25,1.05s.39.88,1.43,1.33C87.3,86.2,88,87,88,88.22c0,1.65-1.26,2.63-3.2,2.63a4.74,4.74,0,0,1-2.33-.58l.4-1.33a4.24,4.24,0,0,0,2,.57c1,0,1.43-.47,1.43-1.12s-.36-1-1.38-1.44c-1.53-.61-2.19-1.47-2.19-2.46a2.68,2.68,0,0,1,3-2.57,4.26,4.26,0,0,1,2,.5Z"/><path class="cls-2" d="M96.58,82.11l-2.07,5.94c-1,2.81-1.72,4.4-2.75,5.39a4.5,4.5,0,0,1-2,1.11L89.31,93a4,4,0,0,0,2.53-2.64,1,1,0,0,0-.09-.37l-2.94-7.9h2l1.56,4.82c.17.56.34,1.21.46,1.71h0c.12-.5.3-1.14.45-1.71l1.39-4.82Z"/><path class="cls-2" d="M104.83,88.22c0,1,0,1.77.07,2.46h-1.58l-.1-1.25h0a3,3,0,0,1-2.58,1.42c-1.48,0-2.77-.92-2.77-3.66v-5.1h1.8V86.9c0,1.48.42,2.45,1.6,2.45A1.83,1.83,0,0,0,103,87.41v-5.3h1.81Z"/><path class="cls-2" d="M114.11,88.22c0,1,0,1.77.08,2.46H112.6l-.09-1.25h-.05a3,3,0,0,1-2.58,1.42c-1.47,0-2.76-.92-2.76-3.66v-5.1h1.8V86.9c0,1.48.42,2.45,1.6,2.45a1.84,1.84,0,0,0,1.79-1.94v-5.3h1.8Z"/><path class="cls-2" d="M120.15,82.11a4.42,4.42,0,0,1,1-3.28A3,3,0,0,1,123.2,78a3.36,3.36,0,0,1,1.3.23l-.18,1.38a2.39,2.39,0,0,0-.92-.17c-1.12,0-1.46,1-1.46,2.16v.47h1.88v1.35H122v7.22h-1.8V83.46H119V82.11Z"/><path class="cls-2" d="M132.05,88.22c0,1,0,1.77.07,2.46h-1.58l-.09-1.25h0a3,3,0,0,1-2.58,1.42c-1.48,0-2.77-.92-2.77-3.66v-5.1h1.8V86.9c0,1.48.42,2.45,1.61,2.45a1.83,1.83,0,0,0,1.78-1.94v-5.3h1.81Z"/><path class="cls-2" d="M141.5,90.68h-2.17l-2.46-3.94-.7.86v3.08h-1.8V78.21h1.8V86h0c.2-.33.44-.7.66-1L139,82.11h2.13l-3,3.53Z"/><path class="cls-2" d="M149.48,88.22c0,1,.05,1.77.08,2.46H148l-.1-1.25h0a3,3,0,0,1-2.59,1.42c-1.47,0-2.76-.92-2.76-3.66v-5.1h1.8V86.9c0,1.48.42,2.45,1.6,2.45a1.83,1.83,0,0,0,1.79-1.94v-5.3h1.8Z"/><path class="cls-2" d="M156.06,83.73a3.09,3.09,0,0,0-1.63-.49c-.81,0-1.24.47-1.24,1.05s.39.88,1.43,1.33c1.41.58,2.16,1.36,2.16,2.6,0,1.65-1.26,2.63-3.2,2.63a4.78,4.78,0,0,1-2.34-.58l.41-1.33a4.2,4.2,0,0,0,2,.57c1,0,1.43-.47,1.43-1.12s-.36-1-1.39-1.44c-1.52-.61-2.19-1.47-2.19-2.46a2.69,2.69,0,0,1,3-2.57,4.33,4.33,0,0,1,2,.5Z"/><path class="cls-2" d="M165.61,90.68h-1.8v-5c0-1.23-.42-2.25-1.63-2.25a1.91,1.91,0,0,0-1.84,2v5.24h-1.8V78.21h1.8v5.07h0a2.93,2.93,0,0,1,2.46-1.36c1.29,0,2.78.87,2.78,3.58Z"/><path class="cls-2" d="M168.79,80.79a1.05,1.05,0,1,1,1.06-1A1,1,0,0,1,168.79,80.79Zm.9,9.89h-1.8V82.09h1.8Z"/><path class="cls-2" d="M179.75,83.73a3.09,3.09,0,0,0-1.63-.49c-.81,0-1.24.47-1.24,1.05s.39.88,1.43,1.33c1.41.58,2.16,1.36,2.16,2.6,0,1.65-1.26,2.63-3.2,2.63a4.81,4.81,0,0,1-2.34-.58l.41-1.33a4.2,4.2,0,0,0,2,.57c1,0,1.43-.47,1.43-1.12s-.36-1-1.39-1.44c-1.52-.61-2.19-1.47-2.19-2.46a2.69,2.69,0,0,1,3-2.57,4.33,4.33,0,0,1,2,.5Z"/><path class="cls-2" d="M188.5,90.33a6.73,6.73,0,0,1-2.73.52c-2.58,0-4.07-1.73-4.07-4.34s1.43-4.59,3.86-4.59,3.37,2,3.37,4.12a4.38,4.38,0,0,1-.05.77h-5.44a2.44,2.44,0,0,0,2.6,2.65,5.4,5.4,0,0,0,2.16-.4Zm-1.28-4.82c0-1-.4-2.3-1.79-2.3s-1.88,1.31-2,2.3Z"/><path class="cls-2" d="M195,83.7a2.07,2.07,0,0,0-.53,0c-1.21,0-2,1-2,2.49v4.54h-1.8v-6c0-1,0-1.82-.07-2.61h1.57l.07,1.57h.06a2.46,2.46,0,0,1,2.22-1.76,2.14,2.14,0,0,1,.45,0Z"/><path class="cls-2" d="M203.24,82.11l-3.08,8.57h-1.72l-3-8.57h1.94l1.4,4.56c.23.74.42,1.46.57,2.17h.05c.16-.71.36-1.41.58-2.16l1.38-4.57Z"/><path class="cls-2" d="M205.48,80.79a1.05,1.05,0,1,1,1.06-1A1,1,0,0,1,205.48,80.79Zm.91,9.89h-1.81V82.09h1.81Z"/><path class="cls-2" d="M214.47,90.41a5.45,5.45,0,0,1-2.21.44c-2.47,0-4.08-1.7-4.08-4.37a4.26,4.26,0,0,1,4.43-4.56,4.53,4.53,0,0,1,1.91.39l-.36,1.39a3.28,3.28,0,0,0-1.54-.35c-1.68,0-2.61,1.37-2.61,3.05,0,1.88,1.1,3,2.6,3a3.9,3.9,0,0,0,1.61-.34Z"/><path class="cls-2" d="M222.36,90.33a6.71,6.71,0,0,1-2.72.52c-2.58,0-4.08-1.73-4.08-4.34s1.44-4.59,3.86-4.59,3.37,2,3.37,4.12a5.78,5.78,0,0,1,0,.77h-5.44a2.42,2.42,0,0,0,2.59,2.65,5.4,5.4,0,0,0,2.16-.4Zm-1.28-4.82c0-1-.4-2.3-1.78-2.3s-1.88,1.31-2,2.3Z"/><polygon class="cls-2" points="3.07 195.16 1 195.16 1 98.18 137.89 1 272.26 97.88 271.05 99.56 137.88 3.55 3.07 99.25 3.07 195.16"/><path class="cls-2" d="M12.83,113.93c0-.67,0-1.19.07-3a18.29,18.29,0,0,1-2,2.77,13.34,13.34,0,0,0-1.17-3.13A21.06,21.06,0,0,0,14,103.77a16.14,16.14,0,0,0,1-3.37l3,.75a40.46,40.46,0,0,1-2.31,5.68V121.4a21.85,21.85,0,0,0,.18,3H12.64a17.35,17.35,0,0,0,.19-3Zm13.27-8.24A25.84,25.84,0,0,0,21,102.42l2-1.91a31.64,31.64,0,0,1,5.45,3.21l-1.95,2h3.92a23.66,23.66,0,0,0,3.08-.16v2.91c-.91-.08-1.89-.13-3-.13H26.57v4.54h3.21a23.57,23.57,0,0,0,2.88-.16v2.85c-.83-.08-1.76-.13-2.85-.13H26.57v5.45h4.48a27.41,27.41,0,0,0,3.09-.16v2.9c-.94-.07-1.82-.13-3.11-.13H19.57c-1.27,0-2.13.06-3.09.13v-2.9a25.74,25.74,0,0,0,3,.16h4.2v-5.45H20.92c-1.09,0-2,0-2.86.13v-2.85a22.86,22.86,0,0,0,2.86.16h2.74v-4.54H20.27c-1.09,0-2.05,0-3,.13v-2.91a17.58,17.58,0,0,0,2.93.16Z"/><path class="cls-2" d="M45.1,111.16c-3.16.52-3.16.52-6.32.93a12.3,12.3,0,0,0-1.2-2.61A71.47,71.47,0,0,0,48.19,108a19.09,19.09,0,0,0,5.57-1.9l2.41,2.34a18,18,0,0,0-2,.54c-3,.91-4.46,1.3-6.2,1.66v2.72l8.87-1a18.3,18.3,0,0,0,2.8-.49l.28,3a2.93,2.93,0,0,0-.47,0c-.46,0-1.68.08-2.38.16L48,116v4.31c0,.64.13.8.73,1a26.73,26.73,0,0,0,3.16.15c2.51,0,3.76-.15,4.25-.49s.57-1,.67-3.48a8.32,8.32,0,0,0,2.86,1,9.27,9.27,0,0,1-.6,3.35,2.9,2.9,0,0,1-2.31,1.91,23.33,23.33,0,0,1-5.26.31c-5.47,0-6.38-.41-6.38-2.92v-4.83l-5.62.63a19.67,19.67,0,0,0-2.83.46l-.28-2.93h.51c.52,0,1.64-.07,2.34-.13l5.88-.65Zm1.32-9a7.41,7.41,0,0,0-.15-1.5h3.19a6.76,6.76,0,0,0-.13,1.5v.83h7.15a28.59,28.59,0,0,0,2.88-.1,12,12,0,0,0-.1,1.92v2a14.83,14.83,0,0,0,.1,2H56.54v-3.13H39.76v3.13H36.91a11.79,11.79,0,0,0,.13-2v-1.94a14.84,14.84,0,0,0-.1-1.92,27.71,27.71,0,0,0,2.85.1h6.63Z"/><path class="cls-2" d="M65.27,104a17.8,17.8,0,0,0-2.36.11v-2.78a26.46,26.46,0,0,0,2.78.13h7a17.74,17.74,0,0,0,2.77-.13v2.78a14.57,14.57,0,0,0-2.2-.11v2.6h.18a19.89,19.89,0,0,0,2.52-.11v2.8a21,21,0,0,0-2.47-.1h-.23v2.49c0,.93,0,1.32,0,2h2.13a6.77,6.77,0,0,0-.13,1.64v.8h5.18a21.78,21.78,0,0,0,3.06-.15v2.82a28.87,28.87,0,0,0-3-.13H75.28V121h7.31a27.09,27.09,0,0,0,3-.13v2.91a25.89,25.89,0,0,0-3.26-.16H65.61a25,25,0,0,0-3.19.16v-2.91a27.49,27.49,0,0,0,3,.13h7v-2.36H67.5c-1.22,0-2.15,0-3,.13V116a16.53,16.53,0,0,0,2.67.13h5.19v-.78c0-.28,0-.46,0-.85h-2a20.62,20.62,0,0,0,.16-2.83v-2.51H68A10.28,10.28,0,0,1,67,112.4a9.15,9.15,0,0,1-2.78,3.3,8.94,8.94,0,0,0-2.07-2.15,6.13,6.13,0,0,0,3-4.41h-.39a15.54,15.54,0,0,0-2.46.13v-2.85a18.23,18.23,0,0,0,2.54.13h.57c0-.21,0-1.07,0-2.6Zm2.93,0v.81c0,.65,0,1.24,0,1.79h2.33V104Zm8.53,7.21a14.6,14.6,0,0,0,.13-2.07V104a15.11,15.11,0,0,0-.13-2.13h3a12.94,12.94,0,0,0-.11,2v5.44a17.79,17.79,0,0,0,.08,1.87Zm8.14.86c0,2.23-.7,2.72-3.76,2.72a20.38,20.38,0,0,1-2.15-.11,8.52,8.52,0,0,0-.75-2.82A20.4,20.4,0,0,0,81,112c1,0,1.06-.05,1.06-.59v-8.51a13.83,13.83,0,0,0-.13-2.23H85a17.33,17.33,0,0,0-.13,2.44Z"/><path class="cls-2" d="M93.12,112.74A28.27,28.27,0,0,1,89.36,116a7.83,7.83,0,0,0-1.77-2.52A22.85,22.85,0,0,0,92,109.94,17.11,17.11,0,0,0,95,105.87H91.38a24.36,24.36,0,0,0-3.09.16v-2.88a26.88,26.88,0,0,0,3.11.16h4.88a11.53,11.53,0,0,0,.75-2.8l3.24.36a12.49,12.49,0,0,0-.57,1.45c-.1.31-.16.44-.36,1h9.25a25.21,25.21,0,0,0,3-.16V106a23.83,23.83,0,0,0-3-.16H98.17c-.47.86-.78,1.38-1.27,2.18h8.87a26.25,26.25,0,0,0,2.69-.1,29.27,29.27,0,0,0-.1,3v10.81a2.21,2.21,0,0,1-1,2.1,6.77,6.77,0,0,1-3,.42c-.6,0-1.09,0-2.38-.08a8.06,8.06,0,0,0-.68-2.72,22.77,22.77,0,0,0,3,.23c1.14,0,1.29-.1,1.29-.73v-2H95.89v2.21c0,1.4,0,2.3.13,3.24H93a30,30,0,0,0,.16-3.27Zm12.46-2.2H95.89v1.89h9.69Zm-9.69,4.2v1.92h9.69v-1.92Z"/><path class="cls-2" d="M124,117.46c-.13.34-.15.47-.28.88a19.17,19.17,0,0,1-2.62-3.65c.13,1.76.16,2.12.16,3v4.28a15.48,15.48,0,0,0,.15,2.7h-3a16.8,16.8,0,0,0,.18-2.75v-3.35c0-1,.06-2.25.11-3.11a18.11,18.11,0,0,1-3.37,5.84,7.9,7.9,0,0,0-1.32-2.68,17.15,17.15,0,0,0,2.8-3.83,23.24,23.24,0,0,0,1.37-2.93h-1.35a12.75,12.75,0,0,0-2.33.13v-2.75a13.15,13.15,0,0,0,2.33.13h1.74v-6.14a16.67,16.67,0,0,0-.13-2.55h3a16.34,16.34,0,0,0-.12,2.52v6.17h1.21a14.37,14.37,0,0,0,2-.1v2.69a14.79,14.79,0,0,0-2.05-.1h-.93a13.79,13.79,0,0,0,3.34,4,16.23,16.23,0,0,0-.72,1.46,16.89,16.89,0,0,0,2.38-.37l6.07-1.34V103.67a17.56,17.56,0,0,0-.16-3h3.14a18.25,18.25,0,0,0-.16,3v11.25a17.59,17.59,0,0,0,2.21-.64l.54,3a19.52,19.52,0,0,0-2.49.47l-.26,0v3.78a18.82,18.82,0,0,0,.16,3.06h-3.14a18.58,18.58,0,0,0,.16-3.08v-3.14l-5.5,1.25c-1.14.26-1.89.46-2.46.64Zm-7.49-15.4a31.31,31.31,0,0,1,1.58,5.6l-2.17.93a21.26,21.26,0,0,0-1.61-5.54Zm8.89.91a31.27,31.27,0,0,1-2.07,5.62l-1.89-1a21.71,21.71,0,0,0,1.79-5.6Zm1.3,5.88a23.71,23.71,0,0,1,4.51,3.81l-1.76,2.1a22.87,22.87,0,0,0-4.57-4Zm.8-6.48a25.45,25.45,0,0,1,4.54,3.81l-1.76,2.18a21.88,21.88,0,0,0-4.59-4Z"/><path class="cls-2" d="M143.38,111.47a24.5,24.5,0,0,0-3.13.16v-2.91a21.62,21.62,0,0,0,3.13.16h5.84v-2.62h-3.94c-1.38,0-2.26,0-3,.1v-2.85a20.11,20.11,0,0,0,3,.16h3.92v-.75a12.81,12.81,0,0,0-.16-2.29h3.19a11.3,11.3,0,0,0-.16,2.34v.7h2.26a19.49,19.49,0,0,0,2.85-.16v2a16.31,16.31,0,0,0,2.62-3.62l2.75,1.58-.73.85a43.39,43.39,0,0,1-4.2,4.54h2.83a20.28,20.28,0,0,0,2.95-.16v2.91a24.73,24.73,0,0,0-3.08-.16h-5.71a51.56,51.56,0,0,1-5.46,3.76v1.17a48.58,48.58,0,0,0,6.92-2.15A16,16,0,0,0,158.6,113l2.18,2.38a3.37,3.37,0,0,1-.49.18l-.88.37c-.81.31-3.3,1.16-4.59,1.58-2,.59-2.7.78-5.65,1.45v1.48c0,.88.46,1,5.13,1,2.69,0,3.78-.13,4.17-.54s.49-1.17.55-3.45a9.43,9.43,0,0,0,2.85,1.06c-.26,3.27-.57,4.28-1.51,4.9s-2.51.73-7.49.73c-5.75,0-6.61-.36-6.61-2.83v-4.48c-1.79.88-2.88,1.37-4.87,2.2a9,9,0,0,0-1.71-2.56,44.37,44.37,0,0,0,10.47-5Zm10.27-2.59a34,34,0,0,0,2.83-2.57c-.52,0-1,0-1.92,0h-2.47v2.62Z"/><path class="cls-2" d="M179.34,101a17.58,17.58,0,0,0-.18,2.67,18.57,18.57,0,0,0,2.54,10.21,21.19,21.19,0,0,0,8.11,7.73,9.89,9.89,0,0,0-2,2.87,25.28,25.28,0,0,1-6.58-6.11,20.52,20.52,0,0,1-3.45-7.08,18.73,18.73,0,0,1-2,5.24,18,18,0,0,1-4,5,21.63,21.63,0,0,1-4,3,7.87,7.87,0,0,0-2-2.67,17.35,17.35,0,0,0,5.65-4.33c3.34-3.83,4.74-8.08,4.74-14.31A18.49,18.49,0,0,0,176,101Z"/><path class="cls-2" d="M199.36,111c-.08.31-.11.34-.21.8a26.75,26.75,0,0,1-4.36,10.06,11.22,11.22,0,0,0-3-1.66,18.63,18.63,0,0,0,3.63-6.82,13.71,13.71,0,0,0,.75-3.18Zm2.61-7a14.34,14.34,0,0,0-.15-2.67h3.5a20.61,20.61,0,0,0-.11,2.75v1.37h5.94a18,18,0,0,0,3.35-.18v3.19a24.9,24.9,0,0,0-3.3-.13h-6v12.57a22.89,22.89,0,0,0,.13,2.91h-3.52a18.13,18.13,0,0,0,.15-2.93V108.31h-5.75a24.57,24.57,0,0,0-3.27.13v-3.19a17.79,17.79,0,0,0,3.32.18H202Zm8.9,6.2a16.31,16.31,0,0,0,.9,2.9,24.13,24.13,0,0,0,3.68,7,19.44,19.44,0,0,0-3,1.82,34.75,34.75,0,0,1-4.25-9.7,8,8,0,0,0-.41-1.22Z"/><path class="cls-2" d="M218.46,110.64a25,25,0,0,0,4.2.18h13.82a25,25,0,0,0,4.2-.18v3.61a28.42,28.42,0,0,0-4.23-.13H222.69a28.42,28.42,0,0,0-4.23.13Z"/><path class="cls-2" d="M256.44,102.09a8.08,8.08,0,0,0-.67,1.86,153.4,153.4,0,0,1-5.14,14.78,101.52,101.52,0,0,0,10.79-1.32c-.29-.62-.6-1.19-1.22-2.36a33,33,0,0,0-2.46-4.12l2.93-1.14a60.48,60.48,0,0,1,6.27,12l-3.14,1.63a24.76,24.76,0,0,0-1.24-3.21l-.93.21c-2.62.54-6.93,1.08-14.68,1.84a14.3,14.3,0,0,0-2.36.31l-.46-3.5h.67c.52,0,1.14,0,2.23-.08,1.38-3.27,2.41-6.2,3.76-10.45a40.6,40.6,0,0,0,1.89-7.18Z"/><path class="cls-2" d="M75.88,141.91c-.29,6.41-2.73,9.83-8.59,12.08a8.25,8.25,0,0,0-2.12-2.87c5.08-1.61,7.1-4.18,7.28-9.21h-6.3a23.3,23.3,0,0,0-3.29.13V139a17.51,17.51,0,0,0,3.35.18H81.37a17.51,17.51,0,0,0,3.35-.18V142a23.47,23.47,0,0,0-3.3-.13Zm3.91-6.35a21.67,21.67,0,0,0-3.29-.13H68.77a21.94,21.94,0,0,0-3.29.13V132.4a17.07,17.07,0,0,0,3.34.18h7.63a16.76,16.76,0,0,0,3.34-.18Zm1.5-4.85a18,18,0,0,1,2.31,4.1l-1.94.72a19.6,19.6,0,0,0-2.28-4.14ZM85,134.39a19,19,0,0,0-2.23-4l1.87-.68a16.14,16.14,0,0,1,2.28,3.94Z"/><path class="cls-2" d="M109.79,133.41a8.35,8.35,0,0,0-1,.91,46.83,46.83,0,0,1-6.12,5.34v11.07a18.67,18.67,0,0,0,.13,2.87H99.21a14.66,14.66,0,0,0,.15-2.8v-9.12a42.05,42.05,0,0,1-9.25,4.2,9.86,9.86,0,0,0-1.74-3A37.85,37.85,0,0,0,102,136.18a20.66,20.66,0,0,0,4.82-4.85Z"/><path class="cls-2" d="M129.23,136.42l0-1.17v-.83a15.93,15.93,0,0,0-.13-2.88h3.35a9.52,9.52,0,0,0-.1,1.74c0,1.58,0,1.58,0,3.14H134a17.82,17.82,0,0,0,3.37-.19v3.17a25.25,25.25,0,0,0-3.32-.13h-1.74a31.27,31.27,0,0,1-.18,4.28A10.41,10.41,0,0,1,128.4,151a14.5,14.5,0,0,1-5.06,2.72A7.67,7.67,0,0,0,121.4,151a12,12,0,0,0,4.95-2.46c1.76-1.53,2.52-3.24,2.75-6.23.05-.59.05-1.21.1-3h-6.71v3.89a15.54,15.54,0,0,0,.1,2.17h-3.37a16.5,16.5,0,0,0,.11-2.23v-3.83h-1.59a25,25,0,0,0-3.31.13v-3.17a17.82,17.82,0,0,0,3.37.19h1.53v-2.6a14.08,14.08,0,0,0-.13-2.3h3.39a13.36,13.36,0,0,0-.1,2.23v2.67Z"/><path class="cls-2" d="M140.69,140.64a25,25,0,0,0,4.2.18h13.82a24.91,24.91,0,0,0,4.19-.18v3.61a28.25,28.25,0,0,0-4.22-.13H144.91a28.25,28.25,0,0,0-4.22.13Z"/><path class="cls-2" d="M172.52,140c3.92-.73,9.65-3,11.33-4.62l2.08,2.93c-.19.08-1,.44-2.34,1.12A44.13,44.13,0,0,1,172.52,143v3.42a2.19,2.19,0,0,0,0,.33c0,1.51.1,2.1.46,2.47s1.92.67,4.44.67a48.7,48.7,0,0,0,6-.41,15.38,15.38,0,0,0,3-.63l.15,3.45c-.54,0-.67,0-3.42.29-1.53.15-4.8.31-6.38.31-3.26,0-5.05-.34-6.06-1.12a3.53,3.53,0,0,1-1.27-2.64,17.7,17.7,0,0,1-.08-2.39l0-12a14.22,14.22,0,0,0-.1-2.39h3.47a13.49,13.49,0,0,0-.13,2.41Zm12.32-8.87a16.92,16.92,0,0,1,2.59,3.94l-1.87.86a16.72,16.72,0,0,0-2.56-4Zm3.89,3.29a19.61,19.61,0,0,0-2.49-3.86l1.79-.83a15.38,15.38,0,0,1,2.54,3.76Z"/><path class="cls-2" d="M212.4,153.24a50.56,50.56,0,0,0-8-7.7,30.67,30.67,0,0,1-9.88,7.49,10.56,10.56,0,0,0-2.1-2.87,21.14,21.14,0,0,0,5.18-2.86,24.83,24.83,0,0,0,8.71-10.55l.29-.67c-.41,0-.41,0-8.58.15a21,21,0,0,0-2.83.21l-.1-3.32a11.3,11.3,0,0,0,2.28.16H198l9.13-.13a5.57,5.57,0,0,0,2.31-.29l1.71,1.77a4.79,4.79,0,0,0-.83,1.4,34.66,34.66,0,0,1-4,7.15,39.72,39.72,0,0,1,4.8,3.76c.65.57.65.57,3.78,3.6Z"/><path class="cls-2" d="M15.38,165.61c0-1.13,0-3.06,2.17-3.06s2.23,1.8,2.23,3.2v3.52h7.15c1.06,0,3.52.1,3.52,3.46v14.54c0,1.2.14,1.4,1.77,1.4,1.23,0,1.69-.3,1.83-2.33.1-1.37.2-2.86,1.86-2.86a1.8,1.8,0,0,1,1.83,2.06c0,1.7-.4,4.82-1.53,6.05s-3.29,1.33-4.29,1.33c-3.76,0-5.63-.23-5.63-4.22v-14c0-.86,0-1.36-1.16-1.36H19.68c-.44,7.62-2.37,11.57-4.3,14.43-1.49,2.27-4.45,5.49-6.38,5.49a2.14,2.14,0,0,1-2-2c0-.83.53-1.26,1.76-2.46,5.66-5.46,6.39-11.28,6.59-15.5H9.56c-1.09,0-2.52,0-2.52-2s1.63-2,2.52-2h5.82Z"/><path class="cls-2" d="M44.68,171.07A24,24,0,0,1,43.19,179a1.68,1.68,0,0,1-1.7,1,1.75,1.75,0,0,1-1.8-1.83,24.36,24.36,0,0,1,.74-2.66,31.67,31.67,0,0,0,.73-5.26A1.59,1.59,0,0,1,43,168.64C44.68,168.64,44.68,170.27,44.68,171.07Zm.74-5.72c0-1.33,0-2.66,1.69-2.66,1.86,0,1.86,1.19,1.86,2.66v11.51c0,3.29,0,9.78-3.32,14.27-1.4,1.89-2,2.16-2.83,2.16a1.68,1.68,0,0,1-1.8-1.76,2.6,2.6,0,0,1,.77-1.8c2.89-3.69,3.63-7.38,3.63-12.64Zm8.31,6a50.32,50.32,0,0,1,.87,6,1.92,1.92,0,0,1-2.13,2c-1.4,0-1.57-1.63-1.7-2.83-.13-1-1-5.82-1-6.22,0-1.4,1.66-1.8,2.39-1.67C53.2,168.74,53.53,170.34,53.73,171.3Zm5.32,18.83c0,1.43,0,2.66-1.83,2.66s-1.86-1.13-1.86-2.66V165.58c0-1.5,0-2.66,1.86-2.66s1.83,1.26,1.83,2.66Zm4.33-20.66A44.54,44.54,0,0,1,65,176.23a1.92,1.92,0,0,1-3.79.46c-.5-2-1.56-6.65-1.56-7.05a1.84,1.84,0,0,1,2.09-1.86C62.61,167.78,63.05,168.48,63.38,169.47Zm5.79,21.13c0,1.39,0,2.66-1.77,2.66-1.93,0-1.93-1.1-1.93-2.66V165.45c0-1.37,0-2.66,1.77-2.66,1.93,0,1.93,1.09,1.93,2.66Z"/><path class="cls-2" d="M84,181.71a2.84,2.84,0,0,1,.06-.5,1.42,1.42,0,0,1-1.06.4c-.73,0-.9-.16-2.43-1.69v10.64c0,1.7-.1,2.66-2,2.66s-1.83-1.33-1.83-2.66v-8.68c-1,1-1.3,1.26-2.06,1.26a2,2,0,0,1-1.83-1.89c0-.77.36-1.17,1.53-2.46a18.43,18.43,0,0,0,4.29-7.12c0-.2-.1-.2-.47-.2H76.11c-1.53,0-2.66,0-2.66-2s1.13-1.89,2.66-1.89h.8v-2.27c0-1.56,0-2.66,1.9-2.66s1.76,1.3,1.76,2.66v2.27h.56a2,2,0,0,1,2.17,2.26c0,1.5-1.2,4.12-2.07,5.69.47.4,3.3,3,3.63,3.82a2.43,2.43,0,0,1,2.06-.86H100c1.92,0,2.92,1.16,2.92,3.22v7.56c0,.39-.16,3.22-2.92,3.22H86.92c-2.59,0-2.92-2.49-2.92-3.22Zm17-18c1.36,0,2.66,0,2.66,1.73,0,1.9-1.13,1.9-2.66,1.9H86.66c-1.33,0-2.66,0-2.66-1.73,0-1.9,1.16-1.9,2.66-1.9Zm-1.66,5a2.45,2.45,0,0,1,2.46,2.29v3.79a2.46,2.46,0,0,1-2.46,2.3H87.82a2.45,2.45,0,0,1-2.46-2.3V171a2.45,2.45,0,0,1,2.46-2.29Zm-7.82,15.1v-1.7h-3c-.5,0-.63.17-.63.57v1.13Zm-3.66,3.26v1.23c0,.37.1.57.63.57h3v-1.8Zm1.86-15.17c-.26,0-.53,0-.53.4v1c0,.39.27.39.53.39h7.65c.24,0,.54,0,.54-.39v-1c0-.4-.3-.4-.54-.4Zm9.42,11.91v-1.13c0-.37-.1-.57-.63-.57H95.31v1.7Zm-3.79,3.26v1.8h3.16c.53,0,.63-.2.63-.57v-1.23Z"/><path class="cls-2" d="M114.79,190.7c0,1.09,0,2.69-2,2.69s-2-1.46-2-2.69v-8c-1,.8-1.57,1.26-2.4,1.26a2,2,0,0,1-2-1.89c0-1,.27-1.23,2.63-3.1a17.19,17.19,0,0,0,5.19-7c0-.16-.2-.2-.4-.2h-4.36c-1.4,0-2.66,0-2.66-1.76,0-2,1-2,2.66-2H111v-2.43c0-1.47,0-2.7,1.8-2.7,1.43,0,1.89.73,1.89,2V168h1.8c1.89,0,2.76,1.09,2.76,2.22,0,.57-.4,2.8-3.16,6.82,1.1,1.07,2,1.93,2.39,2.27,1.2,1.06,1.77,1.56,1.77,2.16a1.82,1.82,0,0,1-1.77,1.89c-1.23,0-2.06-.89-3.69-2.59Zm12.58-2V165.85c0-1.43,0-2.66,1.79-2.66,2.1,0,2.1,1,2.1,2.66v6.75h2.53c1.43,0,2.66,0,2.66,1.8,0,2-1,2-2.66,2h-2.53v12.28h3.32c1.4,0,2.67,0,2.67,1.79,0,2.06-1,2.06-2.67,2.06h-14.2c-1.4,0-2.66,0-2.66-1.79,0-2.06,1-2.06,2.66-2.06h.67V172c0-1.4,0-2.66,1.79-2.66,2,0,2,1,2,2.66v16.67Z"/><path class="cls-2" d="M159.36,167.44c0-1.73,0-3.52,2.23-3.52s2.26,1.79,2.26,3.52v3.13h2.86c1.7,0,3.56,0,3.56,2.2s-1.86,2.16-3.56,2.16h-2.86v1.73c0,4.06,0,9.25-6,13a15.44,15.44,0,0,1-7.35,2.39,2.22,2.22,0,0,1-2.36-2.49,2.11,2.11,0,0,1,1.86-2.13c4.16-1,6.32-1.47,8-4.29a12.41,12.41,0,0,0,1.36-6.42v-1.83h-8.28v3c0,1.73,0,3.53-2.23,3.53s-2.23-1.8-2.23-3.53v-3h-3.09c-1.7,0-3.56,0-3.56-2.2s1.86-2.16,3.56-2.16h3.09v-3.13c0-1.73,0-3.52,2.23-3.52s2.23,1.79,2.23,3.52v3.13h8.28Z"/><path class="cls-2" d="M198.8,175.73c1.8,0,3.53,0,3.53,2.29s-1.73,2.3-3.53,2.3H177.92c-1.8,0-3.53,0-3.53-2.3s1.73-2.29,3.53-2.29Z"/><path class="cls-2" d="M215.16,182.38c0,2.76,0,4,7.79,4a41.6,41.6,0,0,0,8.28-.7,4.13,4.13,0,0,1,1.13-.17,2.23,2.23,0,0,1,2.2,2.43,2.06,2.06,0,0,1-1.63,2,42.6,42.6,0,0,1-9.65.86c-10.38,0-12.71-1.92-12.71-7V167.71c0-1.8,0-3.53,2.3-3.53s2.29,1.73,2.29,3.53V173a45,45,0,0,0,13.61-2.87c1.7-.73,1.9-.83,2.43-.83a2.22,2.22,0,0,1,2.13,2.33c0,1.37-.57,2.1-4.89,3.36a53.32,53.32,0,0,1-13.28,2.33Zm14.51-16.2c-.7-1.46-.77-1.6-.77-2a1.25,1.25,0,0,1,1.27-1.29c.86,0,1.19.53,1.83,1.53,1,1.63,1.16,2.16,1.16,2.59a1.45,1.45,0,0,1-1.53,1.53C230.8,168.54,230.67,168.31,229.67,166.18Zm7.38-.8a1.31,1.31,0,0,1-1.39,1.4c-1.47,0-3-3.49-3-4.09a1.14,1.14,0,0,1,1.43-1.1C235.09,161.82,237.05,164.18,237.05,165.38Z"/><path class="cls-2" d="M246.79,169.41c-1.69,0-3.56,0-3.56-2.2s1.87-2.19,3.56-2.19H260c2.63,0,4.33,1,4.33,3.65,0,.74-.34,4.73-4.1,10.08a41.81,41.81,0,0,1,6,5.59c2.93,3.2,3.26,4.06,3.26,4.89a2.43,2.43,0,0,1-2.43,2.23c-.93,0-1-.07-3.16-2.73a50.43,50.43,0,0,0-6.49-6.58c-5.88,6-12.7,9.24-14.43,9.24a2.38,2.38,0,0,1-2.23-2.49c0-1.5,1-1.9,1.86-2.23,12-4.52,16.67-14.37,16.67-16.67,0-.59-.27-.59-1.07-.59Z"/><path class="cls-2" d="M55.42,90.68H53.25l-2.46-3.94-.7.86v3.08h-1.8V78.21h1.8V86h0c.2-.33.44-.7.66-1l2.13-2.86H55l-3,3.53Z"/><path class="cls-2" d="M63.22,82.11l-2.07,5.94c-1,2.81-1.73,4.4-2.75,5.39a4.5,4.5,0,0,1-2,1.11L55.94,93a4,4,0,0,0,2.53-2.64.8.8,0,0,0-.09-.37l-2.94-7.9h2L59,86.93c.17.56.34,1.21.47,1.71h.05c.12-.5.29-1.14.45-1.71l1.38-4.82Z"/><path class="cls-2" d="M71.46,88.22c0,1,.05,1.77.08,2.46H70l-.09-1.25h0a3,3,0,0,1-2.58,1.42c-1.48,0-2.77-.92-2.77-3.66v-5.1h1.81V86.9c0,1.48.42,2.45,1.6,2.45a1.84,1.84,0,0,0,1.79-1.94v-5.3h1.8Z"/><path class="cls-2" d="M80.75,88.22c0,1,0,1.77.08,2.46H79.24l-.09-1.25H79.1a3,3,0,0,1-2.58,1.42c-1.48,0-2.77-.92-2.77-3.66v-5.1h1.8V86.9c0,1.48.42,2.45,1.61,2.45a1.83,1.83,0,0,0,1.78-1.94v-5.3h1.81Z"/><path class="cls-2" d="M87.33,83.73a3.12,3.12,0,0,0-1.63-.49c-.81,0-1.25.47-1.25,1.05s.39.88,1.43,1.33C87.3,86.2,88,87,88,88.22c0,1.65-1.26,2.63-3.2,2.63a4.74,4.74,0,0,1-2.33-.58l.4-1.33a4.24,4.24,0,0,0,2,.57c1,0,1.43-.47,1.43-1.12s-.36-1-1.38-1.44c-1.53-.61-2.19-1.47-2.19-2.46a2.68,2.68,0,0,1,3-2.57,4.26,4.26,0,0,1,2,.5Z"/><path class="cls-2" d="M96.58,82.11l-2.07,5.94c-1,2.81-1.72,4.4-2.75,5.39a4.5,4.5,0,0,1-2,1.11L89.31,93a4,4,0,0,0,2.53-2.64,1,1,0,0,0-.09-.37l-2.94-7.9h2l1.56,4.82c.17.56.34,1.21.46,1.71h0c.12-.5.3-1.14.45-1.71l1.39-4.82Z"/><path class="cls-2" d="M104.83,88.22c0,1,0,1.77.07,2.46h-1.58l-.1-1.25h0a3,3,0,0,1-2.58,1.42c-1.48,0-2.77-.92-2.77-3.66v-5.1h1.8V86.9c0,1.48.42,2.45,1.6,2.45A1.83,1.83,0,0,0,103,87.41v-5.3h1.81Z"/><path class="cls-2" d="M114.11,88.22c0,1,0,1.77.08,2.46H112.6l-.09-1.25h-.05a3,3,0,0,1-2.58,1.42c-1.47,0-2.76-.92-2.76-3.66v-5.1h1.8V86.9c0,1.48.42,2.45,1.6,2.45a1.84,1.84,0,0,0,1.79-1.94v-5.3h1.8Z"/><path class="cls-2" d="M120.15,82.11a4.42,4.42,0,0,1,1-3.28A3,3,0,0,1,123.2,78a3.36,3.36,0,0,1,1.3.23l-.18,1.38a2.39,2.39,0,0,0-.92-.17c-1.12,0-1.46,1-1.46,2.16v.47h1.88v1.35H122v7.22h-1.8V83.46H119V82.11Z"/><path class="cls-2" d="M132.05,88.22c0,1,0,1.77.07,2.46h-1.58l-.09-1.25h0a3,3,0,0,1-2.58,1.42c-1.48,0-2.77-.92-2.77-3.66v-5.1h1.8V86.9c0,1.48.42,2.45,1.61,2.45a1.83,1.83,0,0,0,1.78-1.94v-5.3h1.81Z"/><path class="cls-2" d="M141.5,90.68h-2.17l-2.46-3.94-.7.86v3.08h-1.8V78.21h1.8V86h0c.2-.33.44-.7.66-1L139,82.11h2.13l-3,3.53Z"/><path class="cls-2" d="M149.48,88.22c0,1,.05,1.77.08,2.46H148l-.1-1.25h0a3,3,0,0,1-2.59,1.42c-1.47,0-2.76-.92-2.76-3.66v-5.1h1.8V86.9c0,1.48.42,2.45,1.6,2.45a1.83,1.83,0,0,0,1.79-1.94v-5.3h1.8Z"/><path class="cls-2" d="M156.06,83.73a3.09,3.09,0,0,0-1.63-.49c-.81,0-1.24.47-1.24,1.05s.39.88,1.43,1.33c1.41.58,2.16,1.36,2.16,2.6,0,1.65-1.26,2.63-3.2,2.63a4.78,4.78,0,0,1-2.34-.58l.41-1.33a4.2,4.2,0,0,0,2,.57c1,0,1.43-.47,1.43-1.12s-.36-1-1.39-1.44c-1.52-.61-2.19-1.47-2.19-2.46a2.69,2.69,0,0,1,3-2.57,4.33,4.33,0,0,1,2,.5Z"/><path class="cls-2" d="M165.61,90.68h-1.8v-5c0-1.23-.42-2.25-1.63-2.25a1.91,1.91,0,0,0-1.84,2v5.24h-1.8V78.21h1.8v5.07h0a2.93,2.93,0,0,1,2.46-1.36c1.29,0,2.78.87,2.78,3.58Z"/><path class="cls-2" d="M168.79,80.79a1.05,1.05,0,1,1,1.06-1A1,1,0,0,1,168.79,80.79Zm.9,9.89h-1.8V82.09h1.8Z"/><path class="cls-2" d="M179.75,83.73a3.09,3.09,0,0,0-1.63-.49c-.81,0-1.24.47-1.24,1.05s.39.88,1.43,1.33c1.41.58,2.16,1.36,2.16,2.6,0,1.65-1.26,2.63-3.2,2.63a4.81,4.81,0,0,1-2.34-.58l.41-1.33a4.2,4.2,0,0,0,2,.57c1,0,1.43-.47,1.43-1.12s-.36-1-1.39-1.44c-1.52-.61-2.19-1.47-2.19-2.46a2.69,2.69,0,0,1,3-2.57,4.33,4.33,0,0,1,2,.5Z"/><path class="cls-2" d="M188.5,90.33a6.73,6.73,0,0,1-2.73.52c-2.58,0-4.07-1.73-4.07-4.34s1.43-4.59,3.86-4.59,3.37,2,3.37,4.12a4.38,4.38,0,0,1-.05.77h-5.44a2.44,2.44,0,0,0,2.6,2.65,5.4,5.4,0,0,0,2.16-.4Zm-1.28-4.82c0-1-.4-2.3-1.79-2.3s-1.88,1.31-2,2.3Z"/><path class="cls-2" d="M195,83.7a2.07,2.07,0,0,0-.53,0c-1.21,0-2,1-2,2.49v4.54h-1.8v-6c0-1,0-1.82-.07-2.61h1.57l.07,1.57h.06a2.46,2.46,0,0,1,2.22-1.76,2.14,2.14,0,0,1,.45,0Z"/><path class="cls-2" d="M203.24,82.11l-3.08,8.57h-1.72l-3-8.57h1.94l1.4,4.56c.23.74.42,1.46.57,2.17h.05c.16-.71.36-1.41.58-2.16l1.38-4.57Z"/><path class="cls-2" d="M205.48,80.79a1.05,1.05,0,1,1,1.06-1A1,1,0,0,1,205.48,80.79Zm.91,9.89h-1.81V82.09h1.81Z"/><path class="cls-2" d="M214.47,90.41a5.45,5.45,0,0,1-2.21.44c-2.47,0-4.08-1.7-4.08-4.37a4.26,4.26,0,0,1,4.43-4.56,4.53,4.53,0,0,1,1.91.39l-.36,1.39a3.28,3.28,0,0,0-1.54-.35c-1.68,0-2.61,1.37-2.61,3.05,0,1.88,1.1,3,2.6,3a3.9,3.9,0,0,0,1.61-.34Z"/><path class="cls-2" d="M222.36,90.33a6.71,6.71,0,0,1-2.72.52c-2.58,0-4.08-1.73-4.08-4.34s1.44-4.59,3.86-4.59,3.37,2,3.37,4.12a5.78,5.78,0,0,1,0,.77h-5.44a2.42,2.42,0,0,0,2.59,2.65,5.4,5.4,0,0,0,2.16-.4Zm-1.28-4.82c0-1-.4-2.3-1.78-2.3s-1.88,1.31-2,2.3Z"/></g></g></svg>