<svg xmlns="http://www.w3.org/2000/svg" width="263.58" height="189.23" viewBox="0 0 263.58 189.23"><defs><style>.cls-1{fill:none;stroke:#fff;stroke-linejoin:round;stroke-width:2px;}.cls-2{fill:#2e3192;}</style></defs><title>mark_day_service</title><g id="レイヤー_2" data-name="レイヤー 2"><g id="レイヤー_1-2" data-name="レイヤー 1"><polygon class="cls-1" points="3 188.23 1 188.23 1 94.71 133 1 262.58 94.42 261.42 96.04 133 3.46 3 95.75 3 188.23"/><path class="cls-1" d="M71.27,114.71c-.27,6.17-2.62,9.47-8.27,11.65a8,8,0,0,0-2-2.78c4.9-1.55,6.85-4,7-8.87H61.9a22.14,22.14,0,0,0-3.17.12v-3A16.37,16.37,0,0,0,62,112H76.57a16.55,16.55,0,0,0,3.23-.17v3a22.31,22.31,0,0,0-3.18-.12Zm3.78-6.13a20.84,20.84,0,0,0-3.18-.12H64.42a20.93,20.93,0,0,0-3.17.12v-3a16.19,16.19,0,0,0,3.23.17h7.34a16,16,0,0,0,3.23-.17Zm1.45-4.67a17.63,17.63,0,0,1,2.22,4l-1.87.7a18.77,18.77,0,0,0-2.2-4Zm3.57,3.55a17.91,17.91,0,0,0-2.15-3.87l1.8-.65a15.27,15.27,0,0,1,2.2,3.79Z"/><path class="cls-1" d="M104,106.51a10.94,10.94,0,0,0-.92.87,44.16,44.16,0,0,1-5.9,5.15v10.68a19,19,0,0,0,.12,2.77h-3.5a13.59,13.59,0,0,0,.15-2.7v-8.8a40.34,40.34,0,0,1-8.92,4,9.45,9.45,0,0,0-1.67-2.85,36.45,36.45,0,0,0,13.12-6.5,20,20,0,0,0,4.65-4.67Z"/><path class="cls-1" d="M122.72,109.41l0-1.13v-.8a15.78,15.78,0,0,0-.13-2.77h3.23a8.85,8.85,0,0,0-.1,1.68c0,1.52,0,1.52,0,3h1.6a17.57,17.57,0,0,0,3.25-.18v3a25.62,25.62,0,0,0-3.2-.12H125.7a28.88,28.88,0,0,1-.18,4.12,10,10,0,0,1-3.6,7.18,13.79,13.79,0,0,1-4.87,2.62,7.49,7.49,0,0,0-1.88-2.65,11.54,11.54,0,0,0,4.78-2.37c1.7-1.48,2.42-3.13,2.65-6,.05-.58.05-1.18.1-2.9h-6.48v3.75a16.25,16.25,0,0,0,.1,2.1h-3.24a17.45,17.45,0,0,0,.1-2.15v-3.7h-1.53a25.71,25.71,0,0,0-3.2.12v-3a17.7,17.7,0,0,0,3.25.18h1.48v-2.5a13.17,13.17,0,0,0-.13-2.22h3.27a12.37,12.37,0,0,0-.1,2.14v2.58Z"/><path class="cls-1" d="M133.78,113.48a24.32,24.32,0,0,0,4.05.18h13.32a24.4,24.4,0,0,0,4-.18V117a26.48,26.48,0,0,0-4.08-.13H137.85a26.31,26.31,0,0,0-4.07.13Z"/><path class="cls-1" d="M164.48,112.83c3.77-.7,9.29-2.92,10.92-4.45l2,2.83c-.18.07-.93.42-2.25,1.07a42.16,42.16,0,0,1-10.67,3.45V119a1.43,1.43,0,0,0,0,.33c0,1.45.1,2,.45,2.37s1.85.65,4.27.65a47,47,0,0,0,5.8-.4,14.41,14.41,0,0,0,2.85-.6l.15,3.33c-.52,0-.65,0-3.3.27-1.47.15-4.62.3-6.15.3-3.14,0-4.87-.32-5.84-1.07a3.48,3.48,0,0,1-1.23-2.55,19.41,19.41,0,0,1-.07-2.3l0-11.6a13.27,13.27,0,0,0-.1-2.3h3.35a12.79,12.79,0,0,0-.12,2.32Zm11.87-8.54a16.08,16.08,0,0,1,2.5,3.79l-1.8.83a16,16,0,0,0-2.48-3.82Zm3.75,3.17a18.94,18.94,0,0,0-2.4-3.72l1.72-.8a14.55,14.55,0,0,1,2.45,3.62Z"/><path class="cls-1" d="M202.92,125.63a47.78,47.78,0,0,0-7.67-7.42,29.71,29.71,0,0,1-9.52,7.22,9.85,9.85,0,0,0-2-2.77,20.62,20.62,0,0,0,5-2.75,24.18,24.18,0,0,0,8.4-10.18l.27-.65c-.4,0-.4,0-8.27.15a21.31,21.31,0,0,0-2.72.2l-.1-3.19a11.29,11.29,0,0,0,2.2.15h.6l8.79-.13a5.49,5.49,0,0,0,2.23-.27l1.65,1.7A4.52,4.52,0,0,0,201,109a33.21,33.21,0,0,1-3.9,6.9,38.68,38.68,0,0,1,4.62,3.63c.63.55.63.55,3.65,3.47Z"/><path class="cls-1" d="M13.36,185.59c-2.39,0-5.13-1.08-5.13-4.9,0-9.07,8.78-15.34,12.71-17.9,7.41-4.79,10.15-6.61,10.15-10.15,0-2.45-2.17-5.3-6.78-5.3-6.16,0-7.41,3.76-7.93,5.19s-1.08,3.3-3.76,3.3a4.23,4.23,0,0,1-4.33-4.1c0-3.25,3.42-12.09,15.62-12.09,8.66,0,15.22,4.79,15.22,12.72,0,6.78-3.54,10.26-12.32,15.67-6.49,4-7.35,5.19-8.15,6.33a9.53,9.53,0,0,0-1.59,3.76c0,.23.28.29.45.29H35c.68,0,4.22,0,4.22,3.48,0,1.08-.4,3.7-4.22,3.7Z"/><path class="cls-1" d="M73.73,182.85a3.66,3.66,0,0,1-3.64,3.77,3.72,3.72,0,0,1-3.6-3.82V165c0-2.62-1-6.21-5.75-6.21A7.89,7.89,0,0,0,52.81,166v16.87a3.65,3.65,0,1,1-7.29,0V161.08c0-1-.46-5.36-.46-6.27a3.38,3.38,0,0,1,3.65-3.37c2.56,0,3.65,2.11,4.27,3.65.92-1,3.42-3.65,9.69-3.65,6.62,0,11.06,4.22,11.06,10.32Z"/><path class="cls-1" d="M109.65,182.63c0,1.76,0,4-3.08,4-2.62,0-3.47-1.88-3.7-3.88-1.49,1.71-3.37,3.88-8.67,3.88C84.11,186.62,80,177.9,80,168.83c0-8.89,3.82-17.39,13.68-17.39,1,0,5.59,0,8.72,3V143.35c0-1.31,1-3.71,3.48-3.71a3.7,3.7,0,0,1,3.76,3.65Zm-7.24-15.79c0-.92,0-7.81-7.64-7.81-1.94,0-7.29,0-7.29,10.09,0,4.21,1.08,9.92,7.12,9.92,6.67,0,7.81-5.82,7.81-8.1Z"/><path class="cls-1" d="M137.08,143.69a4,4,0,0,1,4-4.05,4.07,4.07,0,0,1,3.88,4.05v31.64c0,1.82.23,2.39,1.65,2.39h16.08a3.64,3.64,0,0,1,3.93,3.82c0,2.85-1.94,4.05-3.59,4.05H143.69c-3.42,0-6.61-.8-6.61-7.24Z"/><path class="cls-1" d="M173.45,143.69a3.86,3.86,0,0,1,3.82-4.05,4,4,0,0,1,4.1,4.05v38.88a3.82,3.82,0,0,1-3.87,4.05,4,4,0,0,1-4.05-4.05Z"/><path class="cls-1" d="M198.87,182.34c0,3.65-2.62,4.33-4,4.33-2.5,0-3.93-1.31-3.93-4.1V147.28c0-3.42,1.65-6.61,6-6.61h19.32c1.31,0,4.28.4,4.28,4.1,0,3-2.23,3.82-4,3.82H200.13c-1,0-1.26.74-1.26,1.71v8.78h16A3.65,3.65,0,0,1,218.6,163c0,2.91-1.94,3.7-3.48,3.7H198.87Z"/><path class="cls-1" d="M250.81,158.57a3.71,3.71,0,0,1,3.76,3.93,3.43,3.43,0,0,1-3.53,3.71H234.79v9.86a1.61,1.61,0,0,0,1.65,1.6h15.85c1.37,0,4.16.4,4.16,4s-3.36,3.88-4,3.88H233c-4.05,0-6.1-2.11-6.1-7.13V147.28c0-3.25,1.59-6.61,6-6.61h19.33c1.25,0,4.27.34,4.27,4.1,0,3.2-2.68,3.82-4,3.82H236.1c-1,0-1.31.86-1.31,1.71v8.27Z"/><path class="cls-1" d="M46.74,92.3h-2.1l-2.37-3.8-.68.83v3H39.85v-12h1.74v7.48h0c.2-.31.42-.67.63-1L44.31,84h2l-2.91,3.4Z"/><path class="cls-1" d="M54.25,84l-2,5.73c-1,2.71-1.67,4.24-2.66,5.2A4.34,4.34,0,0,1,47.68,96l-.45-1.47A3.9,3.9,0,0,0,49.68,92a.92.92,0,0,0-.09-.36L46.75,84h1.91l1.5,4.65c.16.54.33,1.16.45,1.64h0c.12-.48.29-1.09.44-1.64L52.42,84Z"/><path class="cls-1" d="M62.2,89.93c0,.93,0,1.71.08,2.37H60.75l-.09-1.2h0a2.86,2.86,0,0,1-2.49,1.36c-1.42,0-2.67-.88-2.67-3.52V84h1.74v4.63c0,1.43.41,2.37,1.55,2.37a1.76,1.76,0,0,0,1.72-1.87V84H62.2Z"/><path class="cls-1" d="M71.16,89.93c0,.93,0,1.71.07,2.37H69.7l-.09-1.2h0a2.89,2.89,0,0,1-2.49,1.36c-1.43,0-2.67-.88-2.67-3.52V84h1.74v4.63c0,1.43.4,2.37,1.54,2.37a1.76,1.76,0,0,0,1.73-1.87V84h1.74Z"/><path class="cls-1" d="M77.5,85.6a3,3,0,0,0-1.57-.47c-.78,0-1.2.45-1.2,1s.37.85,1.38,1.28c1.36.56,2.08,1.31,2.08,2.51,0,1.59-1.21,2.53-3.09,2.53a4.59,4.59,0,0,1-2.25-.55l.39-1.29a4,4,0,0,0,1.89.55c.93,0,1.38-.44,1.38-1.08s-.34-1-1.33-1.39c-1.47-.59-2.12-1.41-2.12-2.37a2.6,2.6,0,0,1,2.87-2.48,4.15,4.15,0,0,1,2,.48Z"/><path class="cls-1" d="M86.43,84l-2,5.73c-1,2.71-1.66,4.24-2.65,5.2A4.39,4.39,0,0,1,79.86,96l-.45-1.47A3.88,3.88,0,0,0,81.85,92a.77.77,0,0,0-.09-.36L78.93,84h1.9l1.5,4.65c.17.54.33,1.16.45,1.64h0c.12-.48.28-1.09.43-1.64L84.6,84Z"/><path class="cls-1" d="M94.38,89.93c0,.93,0,1.71.07,2.37H92.92l-.09-1.2h0a2.89,2.89,0,0,1-2.49,1.36c-1.43,0-2.67-.88-2.67-3.52V84h1.74v4.63c0,1.43.4,2.37,1.54,2.37a1.76,1.76,0,0,0,1.73-1.87V84h1.74Z"/><path class="cls-1" d="M103.33,89.93c0,.93,0,1.71.08,2.37h-1.53l-.09-1.2h-.05a2.86,2.86,0,0,1-2.49,1.36c-1.42,0-2.67-.88-2.67-3.52V84h1.74v4.63c0,1.43.41,2.37,1.55,2.37a1.76,1.76,0,0,0,1.72-1.87V84h1.74Z"/><path class="cls-1" d="M109.15,84a4.26,4.26,0,0,1,.93-3.17,2.9,2.9,0,0,1,2-.76,3.4,3.4,0,0,1,1.26.22l-.18,1.34a2.17,2.17,0,0,0-.88-.17c-1.08,0-1.41,1-1.41,2.08V84h1.81v1.3h-1.8v7h-1.74v-7H108V84Z"/><path class="cls-1" d="M120.63,89.93c0,.93,0,1.71.07,2.37h-1.53l-.09-1.2h0a2.89,2.89,0,0,1-2.49,1.36c-1.43,0-2.67-.88-2.67-3.52V84h1.74v4.63c0,1.43.4,2.37,1.54,2.37a1.76,1.76,0,0,0,1.73-1.87V84h1.74Z"/><path class="cls-1" d="M129.75,92.3h-2.1l-2.37-3.8-.68.83v3h-1.74v-12h1.74v7.48h0c.2-.31.42-.67.63-1L127.32,84h2.05l-2.91,3.4Z"/><path class="cls-1" d="M137.44,89.93c0,.93.05,1.71.07,2.37H136l-.09-1.2h-.05a2.88,2.88,0,0,1-2.49,1.36c-1.42,0-2.67-.88-2.67-3.52V84h1.74v4.63c0,1.43.4,2.37,1.55,2.37a1.76,1.76,0,0,0,1.72-1.87V84h1.74Z"/><path class="cls-1" d="M143.79,85.6a3.05,3.05,0,0,0-1.58-.47c-.78,0-1.2.45-1.2,1s.38.85,1.38,1.28c1.36.56,2.09,1.31,2.09,2.51,0,1.59-1.22,2.53-3.09,2.53a4.56,4.56,0,0,1-2.25-.55l.39-1.29a3.94,3.94,0,0,0,1.89.55c.93,0,1.37-.44,1.37-1.08s-.34-1-1.33-1.39c-1.47-.59-2.11-1.41-2.11-2.37a2.59,2.59,0,0,1,2.86-2.48,4.12,4.12,0,0,1,2,.48Z"/><path class="cls-1" d="M153,92.3h-1.75V87.47c0-1.18-.4-2.18-1.57-2.18a1.85,1.85,0,0,0-1.77,2v5h-1.74v-12h1.74v4.89h0a2.83,2.83,0,0,1,2.37-1.31c1.25,0,2.69.85,2.69,3.46Z"/><path class="cls-1" d="M156.05,82.76a1,1,0,1,1,1-1A1,1,0,0,1,156.05,82.76Zm.87,9.54h-1.73V84h1.73Z"/><path class="cls-1" d="M166.63,85.6a3,3,0,0,0-1.58-.47c-.77,0-1.19.45-1.19,1s.37.85,1.38,1.28c1.36.56,2.08,1.31,2.08,2.51,0,1.59-1.22,2.53-3.09,2.53a4.59,4.59,0,0,1-2.25-.55l.39-1.29a3.94,3.94,0,0,0,1.89.55c.93,0,1.38-.44,1.38-1.08s-.35-1-1.34-1.39c-1.47-.59-2.11-1.41-2.11-2.37a2.59,2.59,0,0,1,2.86-2.48,4.16,4.16,0,0,1,2,.48Z"/><path class="cls-1" d="M175.06,92a6.48,6.48,0,0,1-2.62.49c-2.49,0-3.94-1.66-3.94-4.18s1.38-4.43,3.72-4.43,3.26,1.94,3.26,4a5.12,5.12,0,0,1,0,.73h-5.24a2.34,2.34,0,0,0,2.5,2.57,5.25,5.25,0,0,0,2.09-.39Zm-1.23-4.65c0-1-.39-2.22-1.72-2.22s-1.82,1.26-1.91,2.22Z"/><path class="cls-1" d="M181.31,85.56a3.52,3.52,0,0,0-.51,0c-1.17,0-1.9,1-1.9,2.4V92.3h-1.74V86.56c0-1,0-1.76-.06-2.52h1.51l.06,1.51h.06a2.39,2.39,0,0,1,2.15-1.7,2,2,0,0,1,.43.05Z"/><path class="cls-1" d="M189.28,84l-3,8.26h-1.67L181.75,84h1.87L185,88.43c.23.72.41,1.41.56,2.1h0c.15-.69.35-1.36.56-2.09l1.33-4.4Z"/><path class="cls-1" d="M191.44,82.76a1,1,0,1,1,1-1A1,1,0,0,1,191.44,82.76Zm.87,9.54h-1.74V84h1.74Z"/><path class="cls-1" d="M200.11,92a5.35,5.35,0,0,1-2.13.42c-2.39,0-3.95-1.63-3.95-4.21a4.13,4.13,0,0,1,4.28-4.4,4.42,4.42,0,0,1,1.84.38l-.34,1.33a3.38,3.38,0,0,0-1.49-.33c-1.62,0-2.52,1.33-2.52,2.94,0,1.82,1.07,2.9,2.51,2.9a3.86,3.86,0,0,0,1.56-.33Z"/><path class="cls-1" d="M207.71,92a6.45,6.45,0,0,1-2.62.49c-2.49,0-3.93-1.66-3.93-4.18s1.38-4.43,3.72-4.43,3.25,1.94,3.25,4a5.25,5.25,0,0,1,0,.73h-5.25a2.35,2.35,0,0,0,2.5,2.57,5.25,5.25,0,0,0,2.09-.39Zm-1.23-4.65c0-1-.39-2.22-1.72-2.22s-1.82,1.26-1.91,2.22Z"/><polygon class="cls-2" points="3 188.23 1 188.23 1 94.71 133 1 262.58 94.42 261.42 96.04 133 3.46 3 95.75 3 188.23"/><path class="cls-2" d="M71.27,114.71c-.27,6.17-2.62,9.47-8.27,11.65a8,8,0,0,0-2-2.78c4.9-1.55,6.85-4,7-8.87H61.9a22.14,22.14,0,0,0-3.17.12v-3A16.37,16.37,0,0,0,62,112H76.57a16.55,16.55,0,0,0,3.23-.17v3a22.31,22.31,0,0,0-3.18-.12Zm3.78-6.13a20.84,20.84,0,0,0-3.18-.12H64.42a20.93,20.93,0,0,0-3.17.12v-3a16.19,16.19,0,0,0,3.23.17h7.34a16,16,0,0,0,3.23-.17Zm1.45-4.67a17.63,17.63,0,0,1,2.22,4l-1.87.7a18.77,18.77,0,0,0-2.2-4Zm3.57,3.55a17.91,17.91,0,0,0-2.15-3.87l1.8-.65a15.27,15.27,0,0,1,2.2,3.79Z"/><path class="cls-2" d="M104,106.51a10.94,10.94,0,0,0-.92.87,44.16,44.16,0,0,1-5.9,5.15v10.68a19,19,0,0,0,.12,2.77h-3.5a13.59,13.59,0,0,0,.15-2.7v-8.8a40.34,40.34,0,0,1-8.92,4,9.45,9.45,0,0,0-1.67-2.85,36.45,36.45,0,0,0,13.12-6.5,20,20,0,0,0,4.65-4.67Z"/><path class="cls-2" d="M122.72,109.41l0-1.13v-.8a15.78,15.78,0,0,0-.13-2.77h3.23a8.85,8.85,0,0,0-.1,1.68c0,1.52,0,1.52,0,3h1.6a17.57,17.57,0,0,0,3.25-.18v3a25.62,25.62,0,0,0-3.2-.12H125.7a28.88,28.88,0,0,1-.18,4.12,10,10,0,0,1-3.6,7.18,13.79,13.79,0,0,1-4.87,2.62,7.49,7.49,0,0,0-1.88-2.65,11.54,11.54,0,0,0,4.78-2.37c1.7-1.48,2.42-3.13,2.65-6,.05-.58.05-1.18.1-2.9h-6.48v3.75a16.25,16.25,0,0,0,.1,2.1h-3.24a17.45,17.45,0,0,0,.1-2.15v-3.7h-1.53a25.71,25.71,0,0,0-3.2.12v-3a17.7,17.7,0,0,0,3.25.18h1.48v-2.5a13.17,13.17,0,0,0-.13-2.22h3.27a12.37,12.37,0,0,0-.1,2.14v2.58Z"/><path class="cls-2" d="M133.78,113.48a24.32,24.32,0,0,0,4.05.18h13.32a24.4,24.4,0,0,0,4-.18V117a26.48,26.48,0,0,0-4.08-.13H137.85a26.31,26.31,0,0,0-4.07.13Z"/><path class="cls-2" d="M164.48,112.83c3.77-.7,9.29-2.92,10.92-4.45l2,2.83c-.18.07-.93.42-2.25,1.07a42.16,42.16,0,0,1-10.67,3.45V119a1.43,1.43,0,0,0,0,.33c0,1.45.1,2,.45,2.37s1.85.65,4.27.65a47,47,0,0,0,5.8-.4,14.41,14.41,0,0,0,2.85-.6l.15,3.33c-.52,0-.65,0-3.3.27-1.47.15-4.62.3-6.15.3-3.14,0-4.87-.32-5.84-1.07a3.48,3.48,0,0,1-1.23-2.55,19.41,19.41,0,0,1-.07-2.3l0-11.6a13.27,13.27,0,0,0-.1-2.3h3.35a12.79,12.79,0,0,0-.12,2.32Zm11.87-8.54a16.08,16.08,0,0,1,2.5,3.79l-1.8.83a16,16,0,0,0-2.48-3.82Zm3.75,3.17a18.94,18.94,0,0,0-2.4-3.72l1.72-.8a14.55,14.55,0,0,1,2.45,3.62Z"/><path class="cls-2" d="M202.92,125.63a47.78,47.78,0,0,0-7.67-7.42,29.71,29.71,0,0,1-9.52,7.22,9.85,9.85,0,0,0-2-2.77,20.62,20.62,0,0,0,5-2.75,24.18,24.18,0,0,0,8.4-10.18l.27-.65c-.4,0-.4,0-8.27.15a21.31,21.31,0,0,0-2.72.2l-.1-3.19a11.29,11.29,0,0,0,2.2.15h.6l8.79-.13a5.49,5.49,0,0,0,2.23-.27l1.65,1.7A4.52,4.52,0,0,0,201,109a33.21,33.21,0,0,1-3.9,6.9,38.68,38.68,0,0,1,4.62,3.63c.63.55.63.55,3.65,3.47Z"/><path class="cls-2" d="M13.36,185.59c-2.39,0-5.13-1.08-5.13-4.9,0-9.07,8.78-15.34,12.71-17.9,7.41-4.79,10.15-6.61,10.15-10.15,0-2.45-2.17-5.3-6.78-5.3-6.16,0-7.41,3.76-7.93,5.19s-1.08,3.3-3.76,3.3a4.23,4.23,0,0,1-4.33-4.1c0-3.25,3.42-12.09,15.62-12.09,8.66,0,15.22,4.79,15.22,12.72,0,6.78-3.54,10.26-12.32,15.67-6.49,4-7.35,5.19-8.15,6.33a9.53,9.53,0,0,0-1.59,3.76c0,.23.28.29.45.29H35c.68,0,4.22,0,4.22,3.48,0,1.08-.4,3.7-4.22,3.7Z"/><path class="cls-2" d="M73.73,182.85a3.66,3.66,0,0,1-3.64,3.77,3.72,3.72,0,0,1-3.6-3.82V165c0-2.62-1-6.21-5.75-6.21A7.89,7.89,0,0,0,52.81,166v16.87a3.65,3.65,0,1,1-7.29,0V161.08c0-1-.46-5.36-.46-6.27a3.38,3.38,0,0,1,3.65-3.37c2.56,0,3.65,2.11,4.27,3.65.92-1,3.42-3.65,9.69-3.65,6.62,0,11.06,4.22,11.06,10.32Z"/><path class="cls-2" d="M109.65,182.63c0,1.76,0,4-3.08,4-2.62,0-3.47-1.88-3.7-3.88-1.49,1.71-3.37,3.88-8.67,3.88C84.11,186.62,80,177.9,80,168.83c0-8.89,3.82-17.39,13.68-17.39,1,0,5.59,0,8.72,3V143.35c0-1.31,1-3.71,3.48-3.71a3.7,3.7,0,0,1,3.76,3.65Zm-7.24-15.79c0-.92,0-7.81-7.64-7.81-1.94,0-7.29,0-7.29,10.09,0,4.21,1.08,9.92,7.12,9.92,6.67,0,7.81-5.82,7.81-8.1Z"/><path class="cls-2" d="M137.08,143.69a4,4,0,0,1,4-4.05,4.07,4.07,0,0,1,3.88,4.05v31.64c0,1.82.23,2.39,1.65,2.39h16.08a3.64,3.64,0,0,1,3.93,3.82c0,2.85-1.94,4.05-3.59,4.05H143.69c-3.42,0-6.61-.8-6.61-7.24Z"/><path class="cls-2" d="M173.45,143.69a3.86,3.86,0,0,1,3.82-4.05,4,4,0,0,1,4.1,4.05v38.88a3.82,3.82,0,0,1-3.87,4.05,4,4,0,0,1-4.05-4.05Z"/><path class="cls-2" d="M198.87,182.34c0,3.65-2.62,4.33-4,4.33-2.5,0-3.93-1.31-3.93-4.1V147.28c0-3.42,1.65-6.61,6-6.61h19.32c1.31,0,4.28.4,4.28,4.1,0,3-2.23,3.82-4,3.82H200.13c-1,0-1.26.74-1.26,1.71v8.78h16A3.65,3.65,0,0,1,218.6,163c0,2.91-1.94,3.7-3.48,3.7H198.87Z"/><path class="cls-2" d="M250.81,158.57a3.71,3.71,0,0,1,3.76,3.93,3.43,3.43,0,0,1-3.53,3.71H234.79v9.86a1.61,1.61,0,0,0,1.65,1.6h15.85c1.37,0,4.16.4,4.16,4s-3.36,3.88-4,3.88H233c-4.05,0-6.1-2.11-6.1-7.13V147.28c0-3.25,1.59-6.61,6-6.61h19.33c1.25,0,4.27.34,4.27,4.1,0,3.2-2.68,3.82-4,3.82H236.1c-1,0-1.31.86-1.31,1.71v8.27Z"/><path class="cls-2" d="M46.74,92.3h-2.1l-2.37-3.8-.68.83v3H39.85v-12h1.74v7.48h0c.2-.31.42-.67.63-1L44.31,84h2l-2.91,3.4Z"/><path class="cls-2" d="M54.25,84l-2,5.73c-1,2.71-1.67,4.24-2.66,5.2A4.34,4.34,0,0,1,47.68,96l-.45-1.47A3.9,3.9,0,0,0,49.68,92a.92.92,0,0,0-.09-.36L46.75,84h1.91l1.5,4.65c.16.54.33,1.16.45,1.64h0c.12-.48.29-1.09.44-1.64L52.42,84Z"/><path class="cls-2" d="M62.2,89.93c0,.93,0,1.71.08,2.37H60.75l-.09-1.2h0a2.86,2.86,0,0,1-2.49,1.36c-1.42,0-2.67-.88-2.67-3.52V84h1.74v4.63c0,1.43.41,2.37,1.55,2.37a1.76,1.76,0,0,0,1.72-1.87V84H62.2Z"/><path class="cls-2" d="M71.16,89.93c0,.93,0,1.71.07,2.37H69.7l-.09-1.2h0a2.89,2.89,0,0,1-2.49,1.36c-1.43,0-2.67-.88-2.67-3.52V84h1.74v4.63c0,1.43.4,2.37,1.54,2.37a1.76,1.76,0,0,0,1.73-1.87V84h1.74Z"/><path class="cls-2" d="M77.5,85.6a3,3,0,0,0-1.57-.47c-.78,0-1.2.45-1.2,1s.37.85,1.38,1.28c1.36.56,2.08,1.31,2.08,2.51,0,1.59-1.21,2.53-3.09,2.53a4.59,4.59,0,0,1-2.25-.55l.39-1.29a4,4,0,0,0,1.89.55c.93,0,1.38-.44,1.38-1.08s-.34-1-1.33-1.39c-1.47-.59-2.12-1.41-2.12-2.37a2.6,2.6,0,0,1,2.87-2.48,4.15,4.15,0,0,1,2,.48Z"/><path class="cls-2" d="M86.43,84l-2,5.73c-1,2.71-1.66,4.24-2.65,5.2A4.39,4.39,0,0,1,79.86,96l-.45-1.47A3.88,3.88,0,0,0,81.85,92a.77.77,0,0,0-.09-.36L78.93,84h1.9l1.5,4.65c.17.54.33,1.16.45,1.64h0c.12-.48.28-1.09.43-1.64L84.6,84Z"/><path class="cls-2" d="M94.38,89.93c0,.93,0,1.71.07,2.37H92.92l-.09-1.2h0a2.89,2.89,0,0,1-2.49,1.36c-1.43,0-2.67-.88-2.67-3.52V84h1.74v4.63c0,1.43.4,2.37,1.54,2.37a1.76,1.76,0,0,0,1.73-1.87V84h1.74Z"/><path class="cls-2" d="M103.33,89.93c0,.93,0,1.71.08,2.37h-1.53l-.09-1.2h-.05a2.86,2.86,0,0,1-2.49,1.36c-1.42,0-2.67-.88-2.67-3.52V84h1.74v4.63c0,1.43.41,2.37,1.55,2.37a1.76,1.76,0,0,0,1.72-1.87V84h1.74Z"/><path class="cls-2" d="M109.15,84a4.26,4.26,0,0,1,.93-3.17,2.9,2.9,0,0,1,2-.76,3.4,3.4,0,0,1,1.26.22l-.18,1.34a2.17,2.17,0,0,0-.88-.17c-1.08,0-1.41,1-1.41,2.08V84h1.81v1.3h-1.8v7h-1.74v-7H108V84Z"/><path class="cls-2" d="M120.63,89.93c0,.93,0,1.71.07,2.37h-1.53l-.09-1.2h0a2.89,2.89,0,0,1-2.49,1.36c-1.43,0-2.67-.88-2.67-3.52V84h1.74v4.63c0,1.43.4,2.37,1.54,2.37a1.76,1.76,0,0,0,1.73-1.87V84h1.74Z"/><path class="cls-2" d="M129.75,92.3h-2.1l-2.37-3.8-.68.83v3h-1.74v-12h1.74v7.48h0c.2-.31.42-.67.63-1L127.32,84h2.05l-2.91,3.4Z"/><path class="cls-2" d="M137.44,89.93c0,.93.05,1.71.07,2.37H136l-.09-1.2h-.05a2.88,2.88,0,0,1-2.49,1.36c-1.42,0-2.67-.88-2.67-3.52V84h1.74v4.63c0,1.43.4,2.37,1.55,2.37a1.76,1.76,0,0,0,1.72-1.87V84h1.74Z"/><path class="cls-2" d="M143.79,85.6a3.05,3.05,0,0,0-1.58-.47c-.78,0-1.2.45-1.2,1s.38.85,1.38,1.28c1.36.56,2.09,1.31,2.09,2.51,0,1.59-1.22,2.53-3.09,2.53a4.56,4.56,0,0,1-2.25-.55l.39-1.29a3.94,3.94,0,0,0,1.89.55c.93,0,1.37-.44,1.37-1.08s-.34-1-1.33-1.39c-1.47-.59-2.11-1.41-2.11-2.37a2.59,2.59,0,0,1,2.86-2.48,4.12,4.12,0,0,1,2,.48Z"/><path class="cls-2" d="M153,92.3h-1.75V87.47c0-1.18-.4-2.18-1.57-2.18a1.85,1.85,0,0,0-1.77,2v5h-1.74v-12h1.74v4.89h0a2.83,2.83,0,0,1,2.37-1.31c1.25,0,2.69.85,2.69,3.46Z"/><path class="cls-2" d="M156.05,82.76a1,1,0,1,1,1-1A1,1,0,0,1,156.05,82.76Zm.87,9.54h-1.73V84h1.73Z"/><path class="cls-2" d="M166.63,85.6a3,3,0,0,0-1.58-.47c-.77,0-1.19.45-1.19,1s.37.85,1.38,1.28c1.36.56,2.08,1.31,2.08,2.51,0,1.59-1.22,2.53-3.09,2.53a4.59,4.59,0,0,1-2.25-.55l.39-1.29a3.94,3.94,0,0,0,1.89.55c.93,0,1.38-.44,1.38-1.08s-.35-1-1.34-1.39c-1.47-.59-2.11-1.41-2.11-2.37a2.59,2.59,0,0,1,2.86-2.48,4.16,4.16,0,0,1,2,.48Z"/><path class="cls-2" d="M175.06,92a6.48,6.48,0,0,1-2.62.49c-2.49,0-3.94-1.66-3.94-4.18s1.38-4.43,3.72-4.43,3.26,1.94,3.26,4a5.12,5.12,0,0,1,0,.73h-5.24a2.34,2.34,0,0,0,2.5,2.57,5.25,5.25,0,0,0,2.09-.39Zm-1.23-4.65c0-1-.39-2.22-1.72-2.22s-1.82,1.26-1.91,2.22Z"/><path class="cls-2" d="M181.31,85.56a3.52,3.52,0,0,0-.51,0c-1.17,0-1.9,1-1.9,2.4V92.3h-1.74V86.56c0-1,0-1.76-.06-2.52h1.51l.06,1.51h.06a2.39,2.39,0,0,1,2.15-1.7,2,2,0,0,1,.43.05Z"/><path class="cls-2" d="M189.28,84l-3,8.26h-1.67L181.75,84h1.87L185,88.43c.23.72.41,1.41.56,2.1h0c.15-.69.35-1.36.56-2.09l1.33-4.4Z"/><path class="cls-2" d="M191.44,82.76a1,1,0,1,1,1-1A1,1,0,0,1,191.44,82.76Zm.87,9.54h-1.74V84h1.74Z"/><path class="cls-2" d="M200.11,92a5.35,5.35,0,0,1-2.13.42c-2.39,0-3.95-1.63-3.95-4.21a4.13,4.13,0,0,1,4.28-4.4,4.42,4.42,0,0,1,1.84.38l-.34,1.33a3.38,3.38,0,0,0-1.49-.33c-1.62,0-2.52,1.33-2.52,2.94,0,1.82,1.07,2.9,2.51,2.9a3.86,3.86,0,0,0,1.56-.33Z"/><path class="cls-2" d="M207.71,92a6.45,6.45,0,0,1-2.62.49c-2.49,0-3.93-1.66-3.93-4.18s1.38-4.43,3.72-4.43,3.25,1.94,3.25,4a5.25,5.25,0,0,1,0,.73h-5.25a2.35,2.35,0,0,0,2.5,2.57,5.25,5.25,0,0,0,2.09-.39Zm-1.23-4.65c0-1-.39-2.22-1.72-2.22s-1.82,1.26-1.91,2.22Z"/><polygon class="cls-2" points="3 188.23 1 188.23 1 94.71 133 1 262.58 94.42 261.42 96.04 133 3.46 3 95.75 3 188.23"/><path class="cls-2" d="M71.27,114.71c-.27,6.17-2.62,9.47-8.27,11.65a8,8,0,0,0-2-2.78c4.9-1.55,6.85-4,7-8.87H61.9a22.14,22.14,0,0,0-3.17.12v-3A16.37,16.37,0,0,0,62,112H76.57a16.55,16.55,0,0,0,3.23-.17v3a22.31,22.31,0,0,0-3.18-.12Zm3.78-6.13a20.84,20.84,0,0,0-3.18-.12H64.42a20.93,20.93,0,0,0-3.17.12v-3a16.19,16.19,0,0,0,3.23.17h7.34a16,16,0,0,0,3.23-.17Zm1.45-4.67a17.63,17.63,0,0,1,2.22,4l-1.87.7a18.77,18.77,0,0,0-2.2-4Zm3.57,3.55a17.91,17.91,0,0,0-2.15-3.87l1.8-.65a15.27,15.27,0,0,1,2.2,3.79Z"/><path class="cls-2" d="M104,106.51a10.94,10.94,0,0,0-.92.87,44.16,44.16,0,0,1-5.9,5.15v10.68a19,19,0,0,0,.12,2.77h-3.5a13.59,13.59,0,0,0,.15-2.7v-8.8a40.34,40.34,0,0,1-8.92,4,9.45,9.45,0,0,0-1.67-2.85,36.45,36.45,0,0,0,13.12-6.5,20,20,0,0,0,4.65-4.67Z"/><path class="cls-2" d="M122.72,109.41l0-1.13v-.8a15.78,15.78,0,0,0-.13-2.77h3.23a8.85,8.85,0,0,0-.1,1.68c0,1.52,0,1.52,0,3h1.6a17.57,17.57,0,0,0,3.25-.18v3a25.62,25.62,0,0,0-3.2-.12H125.7a28.88,28.88,0,0,1-.18,4.12,10,10,0,0,1-3.6,7.18,13.79,13.79,0,0,1-4.87,2.62,7.49,7.49,0,0,0-1.88-2.65,11.54,11.54,0,0,0,4.78-2.37c1.7-1.48,2.42-3.13,2.65-6,.05-.58.05-1.18.1-2.9h-6.48v3.75a16.25,16.25,0,0,0,.1,2.1h-3.24a17.45,17.45,0,0,0,.1-2.15v-3.7h-1.53a25.71,25.71,0,0,0-3.2.12v-3a17.7,17.7,0,0,0,3.25.18h1.48v-2.5a13.17,13.17,0,0,0-.13-2.22h3.27a12.37,12.37,0,0,0-.1,2.14v2.58Z"/><path class="cls-2" d="M133.78,113.48a24.32,24.32,0,0,0,4.05.18h13.32a24.4,24.4,0,0,0,4-.18V117a26.48,26.48,0,0,0-4.08-.13H137.85a26.31,26.31,0,0,0-4.07.13Z"/><path class="cls-2" d="M164.48,112.83c3.77-.7,9.29-2.92,10.92-4.45l2,2.83c-.18.07-.93.42-2.25,1.07a42.16,42.16,0,0,1-10.67,3.45V119a1.43,1.43,0,0,0,0,.33c0,1.45.1,2,.45,2.37s1.85.65,4.27.65a47,47,0,0,0,5.8-.4,14.41,14.41,0,0,0,2.85-.6l.15,3.33c-.52,0-.65,0-3.3.27-1.47.15-4.62.3-6.15.3-3.14,0-4.87-.32-5.84-1.07a3.48,3.48,0,0,1-1.23-2.55,19.41,19.41,0,0,1-.07-2.3l0-11.6a13.27,13.27,0,0,0-.1-2.3h3.35a12.79,12.79,0,0,0-.12,2.32Zm11.87-8.54a16.08,16.08,0,0,1,2.5,3.79l-1.8.83a16,16,0,0,0-2.48-3.82Zm3.75,3.17a18.94,18.94,0,0,0-2.4-3.72l1.72-.8a14.55,14.55,0,0,1,2.45,3.62Z"/><path class="cls-2" d="M202.92,125.63a47.78,47.78,0,0,0-7.67-7.42,29.71,29.71,0,0,1-9.52,7.22,9.85,9.85,0,0,0-2-2.77,20.62,20.62,0,0,0,5-2.75,24.18,24.18,0,0,0,8.4-10.18l.27-.65c-.4,0-.4,0-8.27.15a21.31,21.31,0,0,0-2.72.2l-.1-3.19a11.29,11.29,0,0,0,2.2.15h.6l8.79-.13a5.49,5.49,0,0,0,2.23-.27l1.65,1.7A4.52,4.52,0,0,0,201,109a33.21,33.21,0,0,1-3.9,6.9,38.68,38.68,0,0,1,4.62,3.63c.63.55.63.55,3.65,3.47Z"/><path class="cls-2" d="M13.36,185.59c-2.39,0-5.13-1.08-5.13-4.9,0-9.07,8.78-15.34,12.71-17.9,7.41-4.79,10.15-6.61,10.15-10.15,0-2.45-2.17-5.3-6.78-5.3-6.16,0-7.41,3.76-7.93,5.19s-1.08,3.3-3.76,3.3a4.23,4.23,0,0,1-4.33-4.1c0-3.25,3.42-12.09,15.62-12.09,8.66,0,15.22,4.79,15.22,12.72,0,6.78-3.54,10.26-12.32,15.67-6.49,4-7.35,5.19-8.15,6.33a9.53,9.53,0,0,0-1.59,3.76c0,.23.28.29.45.29H35c.68,0,4.22,0,4.22,3.48,0,1.08-.4,3.7-4.22,3.7Z"/><path class="cls-2" d="M73.73,182.85a3.66,3.66,0,0,1-3.64,3.77,3.72,3.72,0,0,1-3.6-3.82V165c0-2.62-1-6.21-5.75-6.21A7.89,7.89,0,0,0,52.81,166v16.87a3.65,3.65,0,1,1-7.29,0V161.08c0-1-.46-5.36-.46-6.27a3.38,3.38,0,0,1,3.65-3.37c2.56,0,3.65,2.11,4.27,3.65.92-1,3.42-3.65,9.69-3.65,6.62,0,11.06,4.22,11.06,10.32Z"/><path class="cls-2" d="M109.65,182.63c0,1.76,0,4-3.08,4-2.62,0-3.47-1.88-3.7-3.88-1.49,1.71-3.37,3.88-8.67,3.88C84.11,186.62,80,177.9,80,168.83c0-8.89,3.82-17.39,13.68-17.39,1,0,5.59,0,8.72,3V143.35c0-1.31,1-3.71,3.48-3.71a3.7,3.7,0,0,1,3.76,3.65Zm-7.24-15.79c0-.92,0-7.81-7.64-7.81-1.94,0-7.29,0-7.29,10.09,0,4.21,1.08,9.92,7.12,9.92,6.67,0,7.81-5.82,7.81-8.1Z"/><path class="cls-2" d="M137.08,143.69a4,4,0,0,1,4-4.05,4.07,4.07,0,0,1,3.88,4.05v31.64c0,1.82.23,2.39,1.65,2.39h16.08a3.64,3.64,0,0,1,3.93,3.82c0,2.85-1.94,4.05-3.59,4.05H143.69c-3.42,0-6.61-.8-6.61-7.24Z"/><path class="cls-2" d="M173.45,143.69a3.86,3.86,0,0,1,3.82-4.05,4,4,0,0,1,4.1,4.05v38.88a3.82,3.82,0,0,1-3.87,4.05,4,4,0,0,1-4.05-4.05Z"/><path class="cls-2" d="M198.87,182.34c0,3.65-2.62,4.33-4,4.33-2.5,0-3.93-1.31-3.93-4.1V147.28c0-3.42,1.65-6.61,6-6.61h19.32c1.31,0,4.28.4,4.28,4.1,0,3-2.23,3.82-4,3.82H200.13c-1,0-1.26.74-1.26,1.71v8.78h16A3.65,3.65,0,0,1,218.6,163c0,2.91-1.94,3.7-3.48,3.7H198.87Z"/><path class="cls-2" d="M250.81,158.57a3.71,3.71,0,0,1,3.76,3.93,3.43,3.43,0,0,1-3.53,3.71H234.79v9.86a1.61,1.61,0,0,0,1.65,1.6h15.85c1.37,0,4.16.4,4.16,4s-3.36,3.88-4,3.88H233c-4.05,0-6.1-2.11-6.1-7.13V147.28c0-3.25,1.59-6.61,6-6.61h19.33c1.25,0,4.27.34,4.27,4.1,0,3.2-2.68,3.82-4,3.82H236.1c-1,0-1.31.86-1.31,1.71v8.27Z"/><path class="cls-2" d="M46.74,92.3h-2.1l-2.37-3.8-.68.83v3H39.85v-12h1.74v7.48h0c.2-.31.42-.67.63-1L44.31,84h2l-2.91,3.4Z"/><path class="cls-2" d="M54.25,84l-2,5.73c-1,2.71-1.67,4.24-2.66,5.2A4.34,4.34,0,0,1,47.68,96l-.45-1.47A3.9,3.9,0,0,0,49.68,92a.92.92,0,0,0-.09-.36L46.75,84h1.91l1.5,4.65c.16.54.33,1.16.45,1.64h0c.12-.48.29-1.09.44-1.64L52.42,84Z"/><path class="cls-2" d="M62.2,89.93c0,.93,0,1.71.08,2.37H60.75l-.09-1.2h0a2.86,2.86,0,0,1-2.49,1.36c-1.42,0-2.67-.88-2.67-3.52V84h1.74v4.63c0,1.43.41,2.37,1.55,2.37a1.76,1.76,0,0,0,1.72-1.87V84H62.2Z"/><path class="cls-2" d="M71.16,89.93c0,.93,0,1.71.07,2.37H69.7l-.09-1.2h0a2.89,2.89,0,0,1-2.49,1.36c-1.43,0-2.67-.88-2.67-3.52V84h1.74v4.63c0,1.43.4,2.37,1.54,2.37a1.76,1.76,0,0,0,1.73-1.87V84h1.74Z"/><path class="cls-2" d="M77.5,85.6a3,3,0,0,0-1.57-.47c-.78,0-1.2.45-1.2,1s.37.85,1.38,1.28c1.36.56,2.08,1.31,2.08,2.51,0,1.59-1.21,2.53-3.09,2.53a4.59,4.59,0,0,1-2.25-.55l.39-1.29a4,4,0,0,0,1.89.55c.93,0,1.38-.44,1.38-1.08s-.34-1-1.33-1.39c-1.47-.59-2.12-1.41-2.12-2.37a2.6,2.6,0,0,1,2.87-2.48,4.15,4.15,0,0,1,2,.48Z"/><path class="cls-2" d="M86.43,84l-2,5.73c-1,2.71-1.66,4.24-2.65,5.2A4.39,4.39,0,0,1,79.86,96l-.45-1.47A3.88,3.88,0,0,0,81.85,92a.77.77,0,0,0-.09-.36L78.93,84h1.9l1.5,4.65c.17.54.33,1.16.45,1.64h0c.12-.48.28-1.09.43-1.64L84.6,84Z"/><path class="cls-2" d="M94.38,89.93c0,.93,0,1.71.07,2.37H92.92l-.09-1.2h0a2.89,2.89,0,0,1-2.49,1.36c-1.43,0-2.67-.88-2.67-3.52V84h1.74v4.63c0,1.43.4,2.37,1.54,2.37a1.76,1.76,0,0,0,1.73-1.87V84h1.74Z"/><path class="cls-2" d="M103.33,89.93c0,.93,0,1.71.08,2.37h-1.53l-.09-1.2h-.05a2.86,2.86,0,0,1-2.49,1.36c-1.42,0-2.67-.88-2.67-3.52V84h1.74v4.63c0,1.43.41,2.37,1.55,2.37a1.76,1.76,0,0,0,1.72-1.87V84h1.74Z"/><path class="cls-2" d="M109.15,84a4.26,4.26,0,0,1,.93-3.17,2.9,2.9,0,0,1,2-.76,3.4,3.4,0,0,1,1.26.22l-.18,1.34a2.17,2.17,0,0,0-.88-.17c-1.08,0-1.41,1-1.41,2.08V84h1.81v1.3h-1.8v7h-1.74v-7H108V84Z"/><path class="cls-2" d="M120.63,89.93c0,.93,0,1.71.07,2.37h-1.53l-.09-1.2h0a2.89,2.89,0,0,1-2.49,1.36c-1.43,0-2.67-.88-2.67-3.52V84h1.74v4.63c0,1.43.4,2.37,1.54,2.37a1.76,1.76,0,0,0,1.73-1.87V84h1.74Z"/><path class="cls-2" d="M129.75,92.3h-2.1l-2.37-3.8-.68.83v3h-1.74v-12h1.74v7.48h0c.2-.31.42-.67.63-1L127.32,84h2.05l-2.91,3.4Z"/><path class="cls-2" d="M137.44,89.93c0,.93.05,1.71.07,2.37H136l-.09-1.2h-.05a2.88,2.88,0,0,1-2.49,1.36c-1.42,0-2.67-.88-2.67-3.52V84h1.74v4.63c0,1.43.4,2.37,1.55,2.37a1.76,1.76,0,0,0,1.72-1.87V84h1.74Z"/><path class="cls-2" d="M143.79,85.6a3.05,3.05,0,0,0-1.58-.47c-.78,0-1.2.45-1.2,1s.38.85,1.38,1.28c1.36.56,2.09,1.31,2.09,2.51,0,1.59-1.22,2.53-3.09,2.53a4.56,4.56,0,0,1-2.25-.55l.39-1.29a3.94,3.94,0,0,0,1.89.55c.93,0,1.37-.44,1.37-1.08s-.34-1-1.33-1.39c-1.47-.59-2.11-1.41-2.11-2.37a2.59,2.59,0,0,1,2.86-2.48,4.12,4.12,0,0,1,2,.48Z"/><path class="cls-2" d="M153,92.3h-1.75V87.47c0-1.18-.4-2.18-1.57-2.18a1.85,1.85,0,0,0-1.77,2v5h-1.74v-12h1.74v4.89h0a2.83,2.83,0,0,1,2.37-1.31c1.25,0,2.69.85,2.69,3.46Z"/><path class="cls-2" d="M156.05,82.76a1,1,0,1,1,1-1A1,1,0,0,1,156.05,82.76Zm.87,9.54h-1.73V84h1.73Z"/><path class="cls-2" d="M166.63,85.6a3,3,0,0,0-1.58-.47c-.77,0-1.19.45-1.19,1s.37.85,1.38,1.28c1.36.56,2.08,1.31,2.08,2.51,0,1.59-1.22,2.53-3.09,2.53a4.59,4.59,0,0,1-2.25-.55l.39-1.29a3.94,3.94,0,0,0,1.89.55c.93,0,1.38-.44,1.38-1.08s-.35-1-1.34-1.39c-1.47-.59-2.11-1.41-2.11-2.37a2.59,2.59,0,0,1,2.86-2.48,4.16,4.16,0,0,1,2,.48Z"/><path class="cls-2" d="M175.06,92a6.48,6.48,0,0,1-2.62.49c-2.49,0-3.94-1.66-3.94-4.18s1.38-4.43,3.72-4.43,3.26,1.94,3.26,4a5.12,5.12,0,0,1,0,.73h-5.24a2.34,2.34,0,0,0,2.5,2.57,5.25,5.25,0,0,0,2.09-.39Zm-1.23-4.65c0-1-.39-2.22-1.72-2.22s-1.82,1.26-1.91,2.22Z"/><path class="cls-2" d="M181.31,85.56a3.52,3.52,0,0,0-.51,0c-1.17,0-1.9,1-1.9,2.4V92.3h-1.74V86.56c0-1,0-1.76-.06-2.52h1.51l.06,1.51h.06a2.39,2.39,0,0,1,2.15-1.7,2,2,0,0,1,.43.05Z"/><path class="cls-2" d="M189.28,84l-3,8.26h-1.67L181.75,84h1.87L185,88.43c.23.72.41,1.41.56,2.1h0c.15-.69.35-1.36.56-2.09l1.33-4.4Z"/><path class="cls-2" d="M191.44,82.76a1,1,0,1,1,1-1A1,1,0,0,1,191.44,82.76Zm.87,9.54h-1.74V84h1.74Z"/><path class="cls-2" d="M200.11,92a5.35,5.35,0,0,1-2.13.42c-2.39,0-3.95-1.63-3.95-4.21a4.13,4.13,0,0,1,4.28-4.4,4.42,4.42,0,0,1,1.84.38l-.34,1.33a3.38,3.38,0,0,0-1.49-.33c-1.62,0-2.52,1.33-2.52,2.94,0,1.82,1.07,2.9,2.51,2.9a3.86,3.86,0,0,0,1.56-.33Z"/><path class="cls-2" d="M207.71,92a6.45,6.45,0,0,1-2.62.49c-2.49,0-3.93-1.66-3.93-4.18s1.38-4.43,3.72-4.43,3.25,1.94,3.25,4a5.25,5.25,0,0,1,0,.73h-5.25a2.35,2.35,0,0,0,2.5,2.57,5.25,5.25,0,0,0,2.09-.39Zm-1.23-4.65c0-1-.39-2.22-1.72-2.22s-1.82,1.26-1.91,2.22Z"/></g></g></svg>