<svg xmlns="http://www.w3.org/2000/svg" width="414" height="170" viewBox="0 0 414 170"><defs><style>.cls-1{fill:#2e3192;}.cls-2{fill:#fff;}</style></defs><title>ico_compliance</title><g id="レイヤー_2" data-name="レイヤー 2"><g id="レイヤー_1-2" data-name="レイヤー 1"><rect class="cls-1" width="414" height="170"/><path class="cls-2" d="M61.26,100.6a42.59,42.59,0,0,0-4.8.16v-5a25.45,25.45,0,0,0,4.87.27H79.08V79H62a37.14,37.14,0,0,0-5,.2V74.12a26.57,26.57,0,0,0,5,.27H80.8c2,0,2,0,3.39-.08a23.21,23.21,0,0,0-.12,3.24V99a25.09,25.09,0,0,0,.2,4H79V100.6Z"/><path class="cls-2" d="M94.68,97.83A37,37,0,0,0,106.22,95a26.05,26.05,0,0,0,11.59-9.56,32.66,32.66,0,0,0,4-7.8,16.74,16.74,0,0,0,4.13,3.82c-3.31,7.14-7,11.74-12.36,15.29a42.28,42.28,0,0,1-14.86,5.85,14,14,0,0,0-2.58.66ZM98,73.61a55.54,55.54,0,0,1,10.06,7.53l-3.36,4.25a41,41,0,0,0-9.94-7.92Z"/><path class="cls-2" d="M156.14,74.16c1.18,0,1.64,0,2.31-.08a4.51,4.51,0,1,1,4.48,4.49,5.2,5.2,0,0,1-.74-.08C159,91.24,152.13,99.2,139.8,104.35a14.27,14.27,0,0,0-3.43-4.65c10.8-3.35,17.86-10.6,20.36-21H138.17a27.48,27.48,0,0,0-4.92.24V73.89a27.17,27.17,0,0,0,5,.27ZM160.4,74a2.56,2.56,0,1,0,2.53-2.53A2.53,2.53,0,0,0,160.4,74Z"/><path class="cls-2" d="M202.83,83.67a17.13,17.13,0,0,0-1.09,2.46c-2,5.74-5,10.06-9.05,13.18-2.77,2.15-5.31,3.48-10.22,5.31a13.82,13.82,0,0,0-3-4.53c4.76-1.2,7.84-2.65,10.84-5.14s4.56-4.8,6.28-9.13h-19a38.82,38.82,0,0,0-5,.2V81.26a28.11,28.11,0,0,0,5.07.27H196.2a17.23,17.23,0,0,0,4.41-.35Zm-27-11.81a22.51,22.51,0,0,0,4.56.27h13.61a22.62,22.62,0,0,0,4.57-.27v4.79a31.12,31.12,0,0,0-4.49-.19H180.36a31,31,0,0,0-4.48.19Z"/><path class="cls-2" d="M241.28,74a15.67,15.67,0,0,0-1.44,1.37,68.57,68.57,0,0,1-9.21,8V100a28.89,28.89,0,0,0,.2,4.33h-5.46a22.62,22.62,0,0,0,.23-4.22V86.41c-4.56,2.73-6.74,3.74-13.92,6.31a14.79,14.79,0,0,0-2.61-4.44,57.12,57.12,0,0,0,20.47-10.14c3.47-2.69,6.13-5.39,7.26-7.3Z"/><path class="cls-2" d="M266.67,80.55a17.55,17.55,0,0,0-.16,3.16c-.15,6.67-1.2,10.42-3.86,13.81-2.34,3-5.18,5-10.06,7a13.7,13.7,0,0,0-3.08-4.45,17.87,17.87,0,0,0,6.82-3.31c4-3.16,5.23-6.51,5.23-13.88a10.34,10.34,0,0,0-.19-2.35Zm15.84-4.91A10.48,10.48,0,0,0,281,78.37a24.8,24.8,0,0,1-6,7.84,24.55,24.55,0,0,1-4.68,3.24,13.14,13.14,0,0,0-3.51-3.55,18.13,18.13,0,0,0,5.69-3.59,16.21,16.21,0,0,0,3.71-5H255.67a38.34,38.34,0,0,0-5.3.23V72.72a31.52,31.52,0,0,0,5.38.31h20.36a10.77,10.77,0,0,0,3.78-.35Z"/><path class="cls-2" d="M289.68,97.83A37,37,0,0,0,301.22,95a26.05,26.05,0,0,0,11.59-9.56,32.66,32.66,0,0,0,4-7.8,16.74,16.74,0,0,0,4.13,3.82c-3.31,7.14-7,11.74-12.36,15.29a42.28,42.28,0,0,1-14.86,5.85,14,14,0,0,0-2.58.66ZM293,73.61a55.54,55.54,0,0,1,10.06,7.53l-3.36,4.25a41,41,0,0,0-9.94-7.92Z"/><path class="cls-2" d="M356.64,103.8a74.3,74.3,0,0,0-12-11.58,46.48,46.48,0,0,1-14.86,11.27,15.61,15.61,0,0,0-3.16-4.33,31.88,31.88,0,0,0,7.8-4.29A37.65,37.65,0,0,0,347.56,79l.43-1c-.63,0-.63,0-12.91.23a29.8,29.8,0,0,0-4.25.32l-.16-5a16.61,16.61,0,0,0,3.43.24H335l13.73-.2a8.33,8.33,0,0,0,3.47-.43l2.57,2.66a7.41,7.41,0,0,0-1.25,2.1,51.34,51.34,0,0,1-6.08,10.77,60.05,60.05,0,0,1,7.21,5.65c1,.86,1,.86,5.7,5.42Z"/></g></g></svg>